  0
SECTION
  2
HEADER
  9
$ACADVER
  1
AC1009
  9
$FILLMODE
 70
 0
  9
$SPLFRAME
 70
 1
  9
$EXTMIN
 10
0
 20
0
 30
0.0
  9
$EXTMAX
 10
1058.33
 20
1058.33
 30
0.0
  0
ENDSEC
  0
SECTION
  2
TABLES
  0
TABLE
  2
LAYER
 70
1
  0
LAYER
  2
0
 70
     0
 62
     7
  6
CONTINUOUS
  0
ENDTAB
  0
ENDSEC
  0
SECTION
  2
ENTITIES
  0
LINE
  8
0
 62
     0
 10
0.0950846
 20
148.071
 30
0.0
 11
156.278
 21
148.071
 31
0.0
  0
LINE
  8
0
 62
     0
 10
156.278
 20
148.071
 30
0.0
 11
156.278
 21
0.308681
 31
0.0
  0
LINE
  8
0
 62
     0
 10
156.278
 20
0.308681
 30
0.0
 11
0.0950846
 21
0.308681
 31
0.0
  0
LINE
  8
0
 62
     0
 10
0.0950846
 20
0.308681
 30
0.0
 11
0.0950846
 21
148.071
 31
0.0
  0
LINE
  8
0
 62
     0
 10
136.785
 20
33.7798
 30
0.0
 11
139.583
 21
32.1648
 31
0.0
  0
LINE
  8
0
 62
     0
 10
139.583
 20
32.1648
 30
0.0
 11
138.821
 21
30.8446
 31
0.0
  0
LINE
  8
0
 62
     0
 10
138.821
 20
30.8446
 30
0.0
 11
138.3
 21
31.1451
 31
0.0
  0
LINE
  8
0
 62
     0
 10
138.3
 20
31.1451
 30
0.0
 11
138.701
 21
31.8368
 31
0.0
  0
LINE
  8
0
 62
     0
 10
138.701
 20
31.8368
 30
0.0
 11
136.015
 21
33.3871
 31
0.0
  0
LINE
  8
0
 62
     0
 10
136.015
 20
33.3871
 30
0.0
 11
135.616
 21
32.6953
 31
0.0
  0
LINE
  8
0
 62
     0
 10
135.616
 20
32.6953
 30
0.0
 11
134.75
 21
33.1956
 31
0.0
  0
LINE
  8
0
 62
     0
 10
134.75
 20
33.1956
 30
0.0
 11
127.75
 21
21.0702
 31
0.0
  0
LINE
  8
0
 62
     0
 10
127.75
 20
21.0702
 30
0.0
 11
128.615
 21
20.57
 31
0.0
  0
LINE
  8
0
 62
     0
 10
128.615
 20
20.57
 30
0.0
 11
128.215
 21
19.8768
 31
0.0
  0
LINE
  8
0
 62
     0
 10
128.215
 20
19.8768
 30
0.0
 11
130.9
 21
18.3265
 31
0.0
  0
LINE
  8
0
 62
     0
 10
130.9
 20
18.3265
 30
0.0
 11
131.301
 21
19.0197
 31
0.0
  0
LINE
  8
0
 62
     0
 10
131.301
 20
19.0197
 30
0.0
 11
131.82
 21
18.7206
 31
0.0
  0
LINE
  8
0
 62
     0
 10
131.82
 20
18.7206
 30
0.0
 11
131.057
 21
17.3991
 31
0.0
  0
LINE
  8
0
 62
     0
 10
131.057
 20
17.3991
 30
0.0
 11
128.261
 21
19.0142
 31
0.0
  0
LINE
  8
0
 62
     0
 10
128.261
 20
19.0142
 30
0.0
 11
124.886
 21
13.1685
 31
0.0
  0
LINE
  8
0
 62
     0
 10
124.886
 20
13.1685
 30
0.0
 11
127.682
 21
11.5548
 31
0.0
  0
LINE
  8
0
 62
     0
 10
127.682
 20
11.5548
 30
0.0
 11
127.27
 21
10.8397
 31
0.0
  0
LINE
  8
0
 62
     0
 10
127.27
 20
10.8397
 30
0.0
 11
129.696
 21
9.43956
 31
0.0
  0
LINE
  8
0
 62
     0
 10
129.696
 20
9.43956
 30
0.0
 11
130.108
 21
10.1548
 31
0.0
  0
LINE
  8
0
 62
     0
 10
130.108
 20
10.1548
 30
0.0
 11
135.537
 21
7.01971
 31
0.0
  0
LINE
  8
0
 62
     0
 10
135.537
 20
7.01971
 30
0.0
 11
136.4
 21
8.51352
 31
0.0
  0
LINE
  8
0
 62
     0
 10
136.4
 20
8.51352
 30
0.0
 11
137.44
 21
7.9127
 31
0.0
  0
LINE
  8
0
 62
     0
 10
137.44
 20
7.9127
 30
0.0
 11
139.09
 21
10.7708
 31
0.0
  0
LINE
  8
0
 62
     0
 10
139.09
 20
10.7708
 30
0.0
 11
138.049
 21
11.3716
 31
0.0
  0
LINE
  8
0
 62
     0
 10
138.049
 20
11.3716
 30
0.0
 11
138.913
 21
12.864
 31
0.0
  0
LINE
  8
0
 62
     0
 10
138.913
 20
12.864
 30
0.0
 11
135.041
 21
15.0992
 31
0.0
  0
LINE
  8
0
 62
     0
 10
135.041
 20
15.0992
 30
0.0
 11
135.804
 21
16.4207
 31
0.0
  0
LINE
  8
0
 62
     0
 10
135.804
 20
16.4207
 30
0.0
 11
136.324
 21
16.1203
 31
0.0
  0
LINE
  8
0
 62
     0
 10
136.324
 20
16.1203
 30
0.0
 11
135.923
 21
15.4271
 31
0.0
  0
LINE
  8
0
 62
     0
 10
135.923
 20
15.4271
 30
0.0
 11
138.609
 21
13.8768
 31
0.0
  0
LINE
  8
0
 62
     0
 10
138.609
 20
13.8768
 30
0.0
 11
139.008
 21
14.57
 31
0.0
  0
LINE
  8
0
 62
     0
 10
139.008
 20
14.57
 30
0.0
 11
139.875
 21
14.0698
 31
0.0
  0
LINE
  8
0
 62
     0
 10
139.875
 20
14.0698
 30
0.0
 11
146.874
 21
26.1951
 31
0.0
  0
LINE
  8
0
 62
     0
 10
146.874
 20
26.1951
 30
0.0
 11
146.009
 21
26.6954
 31
0.0
  0
LINE
  8
0
 62
     0
 10
146.009
 20
26.6954
 30
0.0
 11
146.408
 21
27.3871
 31
0.0
  0
LINE
  8
0
 62
     0
 10
146.408
 20
27.3871
 30
0.0
 11
143.724
 21
28.9374
 31
0.0
  0
LINE
  8
0
 62
     0
 10
143.724
 20
28.9374
 30
0.0
 11
143.323
 21
28.2456
 31
0.0
  0
LINE
  8
0
 62
     0
 10
143.323
 20
28.2456
 30
0.0
 11
142.805
 21
28.5447
 31
0.0
  0
LINE
  8
0
 62
     0
 10
142.805
 20
28.5447
 30
0.0
 11
143.567
 21
29.8649
 31
0.0
  0
LINE
  8
0
 62
     0
 10
143.567
 20
29.8649
 30
0.0
 11
147.438
 21
27.6297
 31
0.0
  0
LINE
  8
0
 62
     0
 10
147.438
 20
27.6297
 30
0.0
 11
148.299
 21
29.1248
 31
0.0
  0
LINE
  8
0
 62
     0
 10
148.299
 20
29.1248
 30
0.0
 11
149.339
 21
28.524
 31
0.0
  0
LINE
  8
0
 62
     0
 10
149.339
 20
28.524
 30
0.0
 11
150.989
 21
31.3821
 31
0.0
  0
LINE
  8
0
 62
     0
 10
150.989
 20
31.3821
 30
0.0
 11
149.95
 21
31.9815
 31
0.0
  0
LINE
  8
0
 62
     0
 10
149.95
 20
31.9815
 30
0.0
 11
150.813
 21
33.4767
 31
0.0
  0
LINE
  8
0
 62
     0
 10
150.813
 20
33.4767
 30
0.0
 11
145.383
 21
36.6116
 31
0.0
  0
LINE
  8
0
 62
     0
 10
145.383
 20
36.6116
 30
0.0
 11
145.795
 21
37.3257
 31
0.0
  0
LINE
  8
0
 62
     0
 10
145.795
 20
37.3257
 30
0.0
 11
143.371
 21
38.7255
 31
0.0
  0
LINE
  8
0
 62
     0
 10
143.371
 20
38.7255
 30
0.0
 11
142.958
 21
38.0118
 31
0.0
  0
LINE
  8
0
 62
     0
 10
142.958
 20
38.0118
 30
0.0
 11
140.16
 21
39.6268
 31
0.0
  0
LINE
  8
0
 62
     0
 10
140.16
 20
39.6268
 30
0.0
 11
136.785
 21
33.7798
 31
0.0
  0
LINE
  8
0
 62
     0
 10
5.00091
 20
45.5344
 30
0.0
 11
5.00091
 21
44.5354
 31
0.0
  0
LINE
  8
0
 62
     0
 10
5.00091
 20
44.5354
 30
0.0
 11
4.20028
 21
44.5354
 31
0.0
  0
LINE
  8
0
 62
     0
 10
4.20028
 20
44.5354
 30
0.0
 11
4.20028
 21
41.4348
 31
0.0
  0
LINE
  8
0
 62
     0
 10
4.20028
 20
41.4348
 30
0.0
 11
5.00091
 21
41.4348
 31
0.0
  0
LINE
  8
0
 62
     0
 10
5.00091
 20
41.4348
 30
0.0
 11
5.00091
 21
35.6348
 31
0.0
  0
LINE
  8
0
 62
     0
 10
5.00091
 20
35.6348
 30
0.0
 11
4.20028
 21
35.6348
 31
0.0
  0
LINE
  8
0
 62
     0
 10
4.20028
 20
35.6348
 30
0.0
 11
4.20028
 21
32.5355
 31
0.0
  0
LINE
  8
0
 62
     0
 10
4.20028
 20
32.5355
 30
0.0
 11
5.00091
 21
32.5355
 31
0.0
  0
LINE
  8
0
 62
     0
 10
5.00091
 20
32.5355
 30
0.0
 11
5.00091
 21
31.535
 31
0.0
  0
LINE
  8
0
 62
     0
 10
5.00091
 20
31.535
 30
0.0
 11
19.0004
 21
31.535
 31
0.0
  0
LINE
  8
0
 62
     0
 10
19.0004
 20
31.535
 30
0.0
 11
19.0004
 21
32.5355
 31
0.0
  0
LINE
  8
0
 62
     0
 10
19.0004
 20
32.5355
 30
0.0
 11
19.801
 21
32.5355
 31
0.0
  0
LINE
  8
0
 62
     0
 10
19.801
 20
32.5355
 30
0.0
 11
19.801
 21
35.6348
 31
0.0
  0
LINE
  8
0
 62
     0
 10
19.801
 20
35.6348
 30
0.0
 11
19.0004
 21
35.6348
 31
0.0
  0
LINE
  8
0
 62
     0
 10
19.0004
 20
35.6348
 30
0.0
 11
19.0004
 21
41.4348
 31
0.0
  0
LINE
  8
0
 62
     0
 10
19.0004
 20
41.4348
 30
0.0
 11
19.801
 21
41.4348
 31
0.0
  0
LINE
  8
0
 62
     0
 10
19.801
 20
41.4348
 30
0.0
 11
19.801
 21
44.5354
 31
0.0
  0
LINE
  8
0
 62
     0
 10
19.801
 20
44.5354
 30
0.0
 11
19.0004
 21
44.5354
 31
0.0
  0
LINE
  8
0
 62
     0
 10
19.0004
 20
44.5354
 30
0.0
 11
19.0004
 21
45.5344
 31
0.0
  0
LINE
  8
0
 62
     0
 10
19.0004
 20
45.5344
 30
0.0
 11
5.00091
 21
45.5344
 31
0.0
  0
LINE
  8
0
 62
     0
 10
28.812
 20
45.5344
 30
0.0
 11
28.812
 21
44.5354
 31
0.0
  0
LINE
  8
0
 62
     0
 10
28.812
 20
44.5354
 30
0.0
 11
28.0128
 21
44.5354
 31
0.0
  0
LINE
  8
0
 62
     0
 10
28.0128
 20
44.5354
 30
0.0
 11
28.0128
 21
41.4348
 31
0.0
  0
LINE
  8
0
 62
     0
 10
28.0128
 20
41.4348
 30
0.0
 11
28.812
 21
41.4348
 31
0.0
  0
LINE
  8
0
 62
     0
 10
28.812
 20
41.4348
 30
0.0
 11
28.812
 21
35.6348
 31
0.0
  0
LINE
  8
0
 62
     0
 10
28.812
 20
35.6348
 30
0.0
 11
28.0128
 21
35.6348
 31
0.0
  0
LINE
  8
0
 62
     0
 10
28.0128
 20
35.6348
 30
0.0
 11
28.0128
 21
32.5355
 31
0.0
  0
LINE
  8
0
 62
     0
 10
28.0128
 20
32.5355
 30
0.0
 11
28.812
 21
32.5355
 31
0.0
  0
LINE
  8
0
 62
     0
 10
28.812
 20
32.5355
 30
0.0
 11
28.812
 21
31.535
 31
0.0
  0
LINE
  8
0
 62
     0
 10
28.812
 20
31.535
 30
0.0
 11
42.8128
 21
31.535
 31
0.0
  0
LINE
  8
0
 62
     0
 10
42.8128
 20
31.535
 30
0.0
 11
42.8128
 21
32.5355
 31
0.0
  0
LINE
  8
0
 62
     0
 10
42.8128
 20
32.5355
 30
0.0
 11
43.6122
 21
32.5355
 31
0.0
  0
LINE
  8
0
 62
     0
 10
43.6122
 20
32.5355
 30
0.0
 11
43.6122
 21
35.6348
 31
0.0
  0
LINE
  8
0
 62
     0
 10
43.6122
 20
35.6348
 30
0.0
 11
42.8128
 21
35.6348
 31
0.0
  0
LINE
  8
0
 62
     0
 10
42.8128
 20
35.6348
 30
0.0
 11
42.8128
 21
41.4348
 31
0.0
  0
LINE
  8
0
 62
     0
 10
42.8128
 20
41.4348
 30
0.0
 11
43.6122
 21
41.4348
 31
0.0
  0
LINE
  8
0
 62
     0
 10
43.6122
 20
41.4348
 30
0.0
 11
43.6122
 21
44.5354
 31
0.0
  0
LINE
  8
0
 62
     0
 10
43.6122
 20
44.5354
 30
0.0
 11
42.8128
 21
44.5354
 31
0.0
  0
LINE
  8
0
 62
     0
 10
42.8128
 20
44.5354
 30
0.0
 11
42.8128
 21
45.5344
 31
0.0
  0
LINE
  8
0
 62
     0
 10
42.8128
 20
45.5344
 30
0.0
 11
28.812
 21
45.5344
 31
0.0
  0
LINE
  8
0
 62
     0
 10
52.626
 20
45.5344
 30
0.0
 11
52.626
 21
44.5354
 31
0.0
  0
LINE
  8
0
 62
     0
 10
52.626
 20
44.5354
 30
0.0
 11
51.8252
 21
44.5354
 31
0.0
  0
LINE
  8
0
 62
     0
 10
51.8252
 20
44.5354
 30
0.0
 11
51.8252
 21
41.4348
 31
0.0
  0
LINE
  8
0
 62
     0
 10
51.8252
 20
41.4348
 30
0.0
 11
52.626
 21
41.4348
 31
0.0
  0
LINE
  8
0
 62
     0
 10
52.626
 20
41.4348
 30
0.0
 11
52.626
 21
35.6348
 31
0.0
  0
LINE
  8
0
 62
     0
 10
52.626
 20
35.6348
 30
0.0
 11
51.8252
 21
35.6348
 31
0.0
  0
LINE
  8
0
 62
     0
 10
51.8252
 20
35.6348
 30
0.0
 11
51.8252
 21
32.5355
 31
0.0
  0
LINE
  8
0
 62
     0
 10
51.8252
 20
32.5355
 30
0.0
 11
52.626
 21
32.5355
 31
0.0
  0
LINE
  8
0
 62
     0
 10
52.626
 20
32.5355
 30
0.0
 11
52.626
 21
31.535
 31
0.0
  0
LINE
  8
0
 62
     0
 10
52.626
 20
31.535
 30
0.0
 11
66.6253
 21
31.535
 31
0.0
  0
LINE
  8
0
 62
     0
 10
66.6253
 20
31.535
 30
0.0
 11
66.6253
 21
32.5355
 31
0.0
  0
LINE
  8
0
 62
     0
 10
66.6253
 20
32.5355
 30
0.0
 11
67.4261
 21
32.5355
 31
0.0
  0
LINE
  8
0
 62
     0
 10
67.4261
 20
32.5355
 30
0.0
 11
67.4261
 21
35.6348
 31
0.0
  0
LINE
  8
0
 62
     0
 10
67.4261
 20
35.6348
 30
0.0
 11
66.6253
 21
35.6348
 31
0.0
  0
LINE
  8
0
 62
     0
 10
66.6253
 20
35.6348
 30
0.0
 11
66.6253
 21
41.4348
 31
0.0
  0
LINE
  8
0
 62
     0
 10
66.6253
 20
41.4348
 30
0.0
 11
67.4261
 21
41.4348
 31
0.0
  0
LINE
  8
0
 62
     0
 10
67.4261
 20
41.4348
 30
0.0
 11
67.4261
 21
44.5354
 31
0.0
  0
LINE
  8
0
 62
     0
 10
67.4261
 20
44.5354
 30
0.0
 11
66.6253
 21
44.5354
 31
0.0
  0
LINE
  8
0
 62
     0
 10
66.6253
 20
44.5354
 30
0.0
 11
66.6253
 21
45.5344
 31
0.0
  0
LINE
  8
0
 62
     0
 10
66.6253
 20
45.5344
 30
0.0
 11
52.626
 21
45.5344
 31
0.0
  0
LINE
  8
0
 62
     0
 10
76.4371
 20
45.5344
 30
0.0
 11
76.4371
 21
44.5354
 31
0.0
  0
LINE
  8
0
 62
     0
 10
76.4371
 20
44.5354
 30
0.0
 11
75.6377
 21
44.5354
 31
0.0
  0
LINE
  8
0
 62
     0
 10
75.6377
 20
44.5354
 30
0.0
 11
75.6377
 21
41.4348
 31
0.0
  0
LINE
  8
0
 62
     0
 10
75.6377
 20
41.4348
 30
0.0
 11
76.4371
 21
41.4348
 31
0.0
  0
LINE
  8
0
 62
     0
 10
76.4371
 20
41.4348
 30
0.0
 11
76.4371
 21
35.6348
 31
0.0
  0
LINE
  8
0
 62
     0
 10
76.4371
 20
35.6348
 30
0.0
 11
75.6377
 21
35.6348
 31
0.0
  0
LINE
  8
0
 62
     0
 10
75.6377
 20
35.6348
 30
0.0
 11
75.6377
 21
32.5355
 31
0.0
  0
LINE
  8
0
 62
     0
 10
75.6377
 20
32.5355
 30
0.0
 11
76.4371
 21
32.5355
 31
0.0
  0
LINE
  8
0
 62
     0
 10
76.4371
 20
32.5355
 30
0.0
 11
76.4371
 21
31.535
 31
0.0
  0
LINE
  8
0
 62
     0
 10
76.4371
 20
31.535
 30
0.0
 11
90.4378
 21
31.535
 31
0.0
  0
LINE
  8
0
 62
     0
 10
90.4378
 20
31.535
 30
0.0
 11
90.4378
 21
32.5355
 31
0.0
  0
LINE
  8
0
 62
     0
 10
90.4378
 20
32.5355
 30
0.0
 11
91.2372
 21
32.5355
 31
0.0
  0
LINE
  8
0
 62
     0
 10
91.2372
 20
32.5355
 30
0.0
 11
91.2372
 21
35.6348
 31
0.0
  0
LINE
  8
0
 62
     0
 10
91.2372
 20
35.6348
 30
0.0
 11
90.4378
 21
35.6348
 31
0.0
  0
LINE
  8
0
 62
     0
 10
90.4378
 20
35.6348
 30
0.0
 11
90.4378
 21
41.4348
 31
0.0
  0
LINE
  8
0
 62
     0
 10
90.4378
 20
41.4348
 30
0.0
 11
91.2372
 21
41.4348
 31
0.0
  0
LINE
  8
0
 62
     0
 10
91.2372
 20
41.4348
 30
0.0
 11
91.2372
 21
44.5354
 31
0.0
  0
LINE
  8
0
 62
     0
 10
91.2372
 20
44.5354
 30
0.0
 11
90.4378
 21
44.5354
 31
0.0
  0
LINE
  8
0
 62
     0
 10
90.4378
 20
44.5354
 30
0.0
 11
90.4378
 21
45.5344
 31
0.0
  0
LINE
  8
0
 62
     0
 10
90.4378
 20
45.5344
 30
0.0
 11
76.4371
 21
45.5344
 31
0.0
  0
LINE
  8
0
 62
     0
 10
14.5259
 20
64.5844
 30
0.0
 11
14.5259
 21
63.5854
 31
0.0
  0
LINE
  8
0
 62
     0
 10
14.5259
 20
63.5854
 30
0.0
 11
13.7253
 21
63.5854
 31
0.0
  0
LINE
  8
0
 62
     0
 10
13.7253
 20
63.5854
 30
0.0
 11
13.7253
 21
60.4848
 31
0.0
  0
LINE
  8
0
 62
     0
 10
13.7253
 20
60.4848
 30
0.0
 11
14.5259
 21
60.4848
 31
0.0
  0
LINE
  8
0
 62
     0
 10
14.5259
 20
60.4848
 30
0.0
 11
14.5259
 21
59.8854
 31
0.0
  0
LINE
  8
0
 62
     0
 10
14.5259
 20
59.8854
 30
0.0
 11
13.0004
 21
59.8854
 31
0.0
  0
LINE
  8
0
 62
     0
 10
13.0004
 20
59.8854
 30
0.0
 11
13.0004
 21
63.1155
 31
0.0
  0
LINE
  8
0
 62
     0
 10
13.0004
 20
63.1155
 30
0.0
 11
6.2508
 21
63.1155
 31
0.0
  0
LINE
  8
0
 62
     0
 10
6.2508
 20
63.1155
 30
0.0
 11
6.2508
 21
59.8854
 31
0.0
  0
LINE
  8
0
 62
     0
 10
6.2508
 20
59.8854
 30
0.0
 11
5.42533
 21
59.8854
 31
0.0
  0
LINE
  8
0
 62
     0
 10
5.42533
 20
59.8854
 30
0.0
 11
5.42533
 21
57.0851
 31
0.0
  0
LINE
  8
0
 62
     0
 10
5.42533
 20
57.0851
 30
0.0
 11
6.2508
 21
57.0851
 31
0.0
  0
LINE
  8
0
 62
     0
 10
6.2508
 20
57.0851
 30
0.0
 11
6.2508
 21
50.8152
 31
0.0
  0
LINE
  8
0
 62
     0
 10
6.2508
 20
50.8152
 30
0.0
 11
7.97609
 21
50.8152
 31
0.0
  0
LINE
  8
0
 62
     0
 10
7.97609
 20
50.8152
 30
0.0
 11
7.97609
 21
49.615
 31
0.0
  0
LINE
  8
0
 62
     0
 10
7.97609
 20
49.615
 30
0.0
 11
11.2751
 21
49.615
 31
0.0
  0
LINE
  8
0
 62
     0
 10
11.2751
 20
49.615
 30
0.0
 11
11.2751
 21
50.8152
 31
0.0
  0
LINE
  8
0
 62
     0
 10
11.2751
 20
50.8152
 30
0.0
 11
13.0004
 21
50.8152
 31
0.0
  0
LINE
  8
0
 62
     0
 10
13.0004
 20
50.8152
 30
0.0
 11
13.0004
 21
55.2856
 31
0.0
  0
LINE
  8
0
 62
     0
 10
13.0004
 20
55.2856
 30
0.0
 11
14.5259
 21
55.2856
 31
0.0
  0
LINE
  8
0
 62
     0
 10
14.5259
 20
55.2856
 30
0.0
 11
14.5259
 21
54.6848
 31
0.0
  0
LINE
  8
0
 62
     0
 10
14.5259
 20
54.6848
 30
0.0
 11
13.7253
 21
54.6848
 31
0.0
  0
LINE
  8
0
 62
     0
 10
13.7253
 20
54.6848
 30
0.0
 11
13.7253
 21
51.5856
 31
0.0
  0
LINE
  8
0
 62
     0
 10
13.7253
 20
51.5856
 30
0.0
 11
14.5259
 21
51.5856
 31
0.0
  0
LINE
  8
0
 62
     0
 10
14.5259
 20
51.5856
 30
0.0
 11
14.5259
 21
50.5852
 31
0.0
  0
LINE
  8
0
 62
     0
 10
14.5259
 20
50.5852
 30
0.0
 11
28.5254
 21
50.5852
 31
0.0
  0
LINE
  8
0
 62
     0
 10
28.5254
 20
50.5852
 30
0.0
 11
28.5254
 21
51.5856
 31
0.0
  0
LINE
  8
0
 62
     0
 10
28.5254
 20
51.5856
 30
0.0
 11
29.326
 21
51.5856
 31
0.0
  0
LINE
  8
0
 62
     0
 10
29.326
 20
51.5856
 30
0.0
 11
29.326
 21
54.6848
 31
0.0
  0
LINE
  8
0
 62
     0
 10
29.326
 20
54.6848
 30
0.0
 11
28.5254
 21
54.6848
 31
0.0
  0
LINE
  8
0
 62
     0
 10
28.5254
 20
54.6848
 30
0.0
 11
28.5254
 21
55.2856
 31
0.0
  0
LINE
  8
0
 62
     0
 10
28.5254
 20
55.2856
 30
0.0
 11
30.0509
 21
55.2856
 31
0.0
  0
LINE
  8
0
 62
     0
 10
30.0509
 20
55.2856
 30
0.0
 11
30.0509
 21
50.8152
 31
0.0
  0
LINE
  8
0
 62
     0
 10
30.0509
 20
50.8152
 30
0.0
 11
31.7748
 21
50.8152
 31
0.0
  0
LINE
  8
0
 62
     0
 10
31.7748
 20
50.8152
 30
0.0
 11
31.7748
 21
49.615
 31
0.0
  0
LINE
  8
0
 62
     0
 10
31.7748
 20
49.615
 30
0.0
 11
35.0752
 21
49.615
 31
0.0
  0
LINE
  8
0
 62
     0
 10
35.0752
 20
49.615
 30
0.0
 11
35.0752
 21
50.8152
 31
0.0
  0
LINE
  8
0
 62
     0
 10
35.0752
 20
50.8152
 30
0.0
 11
36.8004
 21
50.8152
 31
0.0
  0
LINE
  8
0
 62
     0
 10
36.8004
 20
50.8152
 30
0.0
 11
36.8004
 21
57.0851
 31
0.0
  0
LINE
  8
0
 62
     0
 10
36.8004
 20
57.0851
 30
0.0
 11
37.6259
 21
57.0851
 31
0.0
  0
LINE
  8
0
 62
     0
 10
37.6259
 20
57.0851
 30
0.0
 11
37.6259
 21
59.8854
 31
0.0
  0
LINE
  8
0
 62
     0
 10
37.6259
 20
59.8854
 30
0.0
 11
36.8004
 21
59.8854
 31
0.0
  0
LINE
  8
0
 62
     0
 10
36.8004
 20
59.8854
 30
0.0
 11
36.8004
 21
63.1155
 31
0.0
  0
LINE
  8
0
 62
     0
 10
36.8004
 20
63.1155
 30
0.0
 11
30.0509
 21
63.1155
 31
0.0
  0
LINE
  8
0
 62
     0
 10
30.0509
 20
63.1155
 30
0.0
 11
30.0509
 21
59.8854
 31
0.0
  0
LINE
  8
0
 62
     0
 10
30.0509
 20
59.8854
 30
0.0
 11
28.5254
 21
59.8854
 31
0.0
  0
LINE
  8
0
 62
     0
 10
28.5254
 20
59.8854
 30
0.0
 11
28.5254
 21
60.4848
 31
0.0
  0
LINE
  8
0
 62
     0
 10
28.5254
 20
60.4848
 30
0.0
 11
29.326
 21
60.4848
 31
0.0
  0
LINE
  8
0
 62
     0
 10
29.326
 20
60.4848
 30
0.0
 11
29.326
 21
63.5854
 31
0.0
  0
LINE
  8
0
 62
     0
 10
29.326
 20
63.5854
 30
0.0
 11
28.5254
 21
63.5854
 31
0.0
  0
LINE
  8
0
 62
     0
 10
28.5254
 20
63.5854
 30
0.0
 11
28.5254
 21
64.5844
 31
0.0
  0
LINE
  8
0
 62
     0
 10
28.5254
 20
64.5844
 30
0.0
 11
14.5259
 21
64.5844
 31
0.0
  0
LINE
  8
0
 62
     0
 10
45.4822
 20
64.5844
 30
0.0
 11
45.4822
 21
63.5854
 31
0.0
  0
LINE
  8
0
 62
     0
 10
45.4822
 20
63.5854
 30
0.0
 11
44.6814
 21
63.5854
 31
0.0
  0
LINE
  8
0
 62
     0
 10
44.6814
 20
63.5854
 30
0.0
 11
44.6814
 21
60.4848
 31
0.0
  0
LINE
  8
0
 62
     0
 10
44.6814
 20
60.4848
 30
0.0
 11
45.4822
 21
60.4848
 31
0.0
  0
LINE
  8
0
 62
     0
 10
45.4822
 20
60.4848
 30
0.0
 11
45.4822
 21
54.6848
 31
0.0
  0
LINE
  8
0
 62
     0
 10
45.4822
 20
54.6848
 30
0.0
 11
44.6814
 21
54.6848
 31
0.0
  0
LINE
  8
0
 62
     0
 10
44.6814
 20
54.6848
 30
0.0
 11
44.6814
 21
51.5856
 31
0.0
  0
LINE
  8
0
 62
     0
 10
44.6814
 20
51.5856
 30
0.0
 11
45.4822
 21
51.5856
 31
0.0
  0
LINE
  8
0
 62
     0
 10
45.4822
 20
51.5856
 30
0.0
 11
45.4822
 21
50.5852
 31
0.0
  0
LINE
  8
0
 62
     0
 10
45.4822
 20
50.5852
 30
0.0
 11
59.4815
 21
50.5852
 31
0.0
  0
LINE
  8
0
 62
     0
 10
59.4815
 20
50.5852
 30
0.0
 11
59.4815
 21
51.5856
 31
0.0
  0
LINE
  8
0
 62
     0
 10
59.4815
 20
51.5856
 30
0.0
 11
60.2809
 21
51.5856
 31
0.0
  0
LINE
  8
0
 62
     0
 10
60.2809
 20
51.5856
 30
0.0
 11
60.2809
 21
54.6848
 31
0.0
  0
LINE
  8
0
 62
     0
 10
60.2809
 20
54.6848
 30
0.0
 11
59.4815
 21
54.6848
 31
0.0
  0
LINE
  8
0
 62
     0
 10
59.4815
 20
54.6848
 30
0.0
 11
59.4815
 21
60.4848
 31
0.0
  0
LINE
  8
0
 62
     0
 10
59.4815
 20
60.4848
 30
0.0
 11
60.2809
 21
60.4848
 31
0.0
  0
LINE
  8
0
 62
     0
 10
60.2809
 20
60.4848
 30
0.0
 11
60.2809
 21
63.5854
 31
0.0
  0
LINE
  8
0
 62
     0
 10
60.2809
 20
63.5854
 30
0.0
 11
59.4815
 21
63.5854
 31
0.0
  0
LINE
  8
0
 62
     0
 10
59.4815
 20
63.5854
 30
0.0
 11
59.4815
 21
64.5844
 31
0.0
  0
LINE
  8
0
 62
     0
 10
59.4815
 20
64.5844
 30
0.0
 11
45.4822
 21
64.5844
 31
0.0
  0
LINE
  8
0
 62
     0
 10
64.5322
 20
64.5844
 30
0.0
 11
64.5322
 21
63.5854
 31
0.0
  0
LINE
  8
0
 62
     0
 10
64.5322
 20
63.5854
 30
0.0
 11
63.7314
 21
63.5854
 31
0.0
  0
LINE
  8
0
 62
     0
 10
63.7314
 20
63.5854
 30
0.0
 11
63.7314
 21
60.4848
 31
0.0
  0
LINE
  8
0
 62
     0
 10
63.7314
 20
60.4848
 30
0.0
 11
64.5322
 21
60.4848
 31
0.0
  0
LINE
  8
0
 62
     0
 10
64.5322
 20
60.4848
 30
0.0
 11
64.5322
 21
54.6848
 31
0.0
  0
LINE
  8
0
 62
     0
 10
64.5322
 20
54.6848
 30
0.0
 11
63.7314
 21
54.6848
 31
0.0
  0
LINE
  8
0
 62
     0
 10
63.7314
 20
54.6848
 30
0.0
 11
63.7314
 21
51.5856
 31
0.0
  0
LINE
  8
0
 62
     0
 10
63.7314
 20
51.5856
 30
0.0
 11
64.5322
 21
51.5856
 31
0.0
  0
LINE
  8
0
 62
     0
 10
64.5322
 20
51.5856
 30
0.0
 11
64.5322
 21
50.5852
 31
0.0
  0
LINE
  8
0
 62
     0
 10
64.5322
 20
50.5852
 30
0.0
 11
78.5315
 21
50.5852
 31
0.0
  0
LINE
  8
0
 62
     0
 10
78.5315
 20
50.5852
 30
0.0
 11
78.5315
 21
51.5856
 31
0.0
  0
LINE
  8
0
 62
     0
 10
78.5315
 20
51.5856
 30
0.0
 11
79.3309
 21
51.5856
 31
0.0
  0
LINE
  8
0
 62
     0
 10
79.3309
 20
51.5856
 30
0.0
 11
79.3309
 21
54.6848
 31
0.0
  0
LINE
  8
0
 62
     0
 10
79.3309
 20
54.6848
 30
0.0
 11
78.5315
 21
54.6848
 31
0.0
  0
LINE
  8
0
 62
     0
 10
78.5315
 20
54.6848
 30
0.0
 11
78.5315
 21
60.4848
 31
0.0
  0
LINE
  8
0
 62
     0
 10
78.5315
 20
60.4848
 30
0.0
 11
79.3309
 21
60.4848
 31
0.0
  0
LINE
  8
0
 62
     0
 10
79.3309
 20
60.4848
 30
0.0
 11
79.3309
 21
63.5854
 31
0.0
  0
LINE
  8
0
 62
     0
 10
79.3309
 20
63.5854
 30
0.0
 11
78.5315
 21
63.5854
 31
0.0
  0
LINE
  8
0
 62
     0
 10
78.5315
 20
63.5854
 30
0.0
 11
78.5315
 21
64.5844
 31
0.0
  0
LINE
  8
0
 62
     0
 10
78.5315
 20
64.5844
 30
0.0
 11
64.5322
 21
64.5844
 31
0.0
  0
LINE
  8
0
 62
     0
 10
83.5822
 20
64.5844
 30
0.0
 11
83.5822
 21
63.5854
 31
0.0
  0
LINE
  8
0
 62
     0
 10
83.5822
 20
63.5854
 30
0.0
 11
82.7814
 21
63.5854
 31
0.0
  0
LINE
  8
0
 62
     0
 10
82.7814
 20
63.5854
 30
0.0
 11
82.7814
 21
60.4848
 31
0.0
  0
LINE
  8
0
 62
     0
 10
82.7814
 20
60.4848
 30
0.0
 11
83.5822
 21
60.4848
 31
0.0
  0
LINE
  8
0
 62
     0
 10
83.5822
 20
60.4848
 30
0.0
 11
83.5822
 21
54.6848
 31
0.0
  0
LINE
  8
0
 62
     0
 10
83.5822
 20
54.6848
 30
0.0
 11
82.7814
 21
54.6848
 31
0.0
  0
LINE
  8
0
 62
     0
 10
82.7814
 20
54.6848
 30
0.0
 11
82.7814
 21
51.5856
 31
0.0
  0
LINE
  8
0
 62
     0
 10
82.7814
 20
51.5856
 30
0.0
 11
83.5822
 21
51.5856
 31
0.0
  0
LINE
  8
0
 62
     0
 10
83.5822
 20
51.5856
 30
0.0
 11
83.5822
 21
50.5852
 31
0.0
  0
LINE
  8
0
 62
     0
 10
83.5822
 20
50.5852
 30
0.0
 11
97.5815
 21
50.5852
 31
0.0
  0
LINE
  8
0
 62
     0
 10
97.5815
 20
50.5852
 30
0.0
 11
97.5815
 21
51.5856
 31
0.0
  0
LINE
  8
0
 62
     0
 10
97.5815
 20
51.5856
 30
0.0
 11
98.3809
 21
51.5856
 31
0.0
  0
LINE
  8
0
 62
     0
 10
98.3809
 20
51.5856
 30
0.0
 11
98.3809
 21
54.6848
 31
0.0
  0
LINE
  8
0
 62
     0
 10
98.3809
 20
54.6848
 30
0.0
 11
97.5815
 21
54.6848
 31
0.0
  0
LINE
  8
0
 62
     0
 10
97.5815
 20
54.6848
 30
0.0
 11
97.5815
 21
60.4848
 31
0.0
  0
LINE
  8
0
 62
     0
 10
97.5815
 20
60.4848
 30
0.0
 11
98.3809
 21
60.4848
 31
0.0
  0
LINE
  8
0
 62
     0
 10
98.3809
 20
60.4848
 30
0.0
 11
98.3809
 21
63.5854
 31
0.0
  0
LINE
  8
0
 62
     0
 10
98.3809
 20
63.5854
 30
0.0
 11
97.5815
 21
63.5854
 31
0.0
  0
LINE
  8
0
 62
     0
 10
97.5815
 20
63.5854
 30
0.0
 11
97.5815
 21
64.5844
 31
0.0
  0
LINE
  8
0
 62
     0
 10
97.5815
 20
64.5844
 30
0.0
 11
83.5822
 21
64.5844
 31
0.0
  0
LINE
  8
0
 62
     0
 10
102.632
 20
64.5844
 30
0.0
 11
102.632
 21
63.5854
 31
0.0
  0
LINE
  8
0
 62
     0
 10
102.632
 20
63.5854
 30
0.0
 11
101.831
 21
63.5854
 31
0.0
  0
LINE
  8
0
 62
     0
 10
101.831
 20
63.5854
 30
0.0
 11
101.831
 21
60.4848
 31
0.0
  0
LINE
  8
0
 62
     0
 10
101.831
 20
60.4848
 30
0.0
 11
102.632
 21
60.4848
 31
0.0
  0
LINE
  8
0
 62
     0
 10
102.632
 20
60.4848
 30
0.0
 11
102.632
 21
54.6848
 31
0.0
  0
LINE
  8
0
 62
     0
 10
102.632
 20
54.6848
 30
0.0
 11
101.831
 21
54.6848
 31
0.0
  0
LINE
  8
0
 62
     0
 10
101.831
 20
54.6848
 30
0.0
 11
101.831
 21
51.5856
 31
0.0
  0
LINE
  8
0
 62
     0
 10
101.831
 20
51.5856
 30
0.0
 11
102.632
 21
51.5856
 31
0.0
  0
LINE
  8
0
 62
     0
 10
102.632
 20
51.5856
 30
0.0
 11
102.632
 21
50.5852
 31
0.0
  0
LINE
  8
0
 62
     0
 10
102.632
 20
50.5852
 30
0.0
 11
116.632
 21
50.5852
 31
0.0
  0
LINE
  8
0
 62
     0
 10
116.632
 20
50.5852
 30
0.0
 11
116.632
 21
51.5856
 31
0.0
  0
LINE
  8
0
 62
     0
 10
116.632
 20
51.5856
 30
0.0
 11
117.431
 21
51.5856
 31
0.0
  0
LINE
  8
0
 62
     0
 10
117.431
 20
51.5856
 30
0.0
 11
117.431
 21
54.6848
 31
0.0
  0
LINE
  8
0
 62
     0
 10
117.431
 20
54.6848
 30
0.0
 11
116.632
 21
54.6848
 31
0.0
  0
LINE
  8
0
 62
     0
 10
116.632
 20
54.6848
 30
0.0
 11
116.632
 21
60.4848
 31
0.0
  0
LINE
  8
0
 62
     0
 10
116.632
 20
60.4848
 30
0.0
 11
117.431
 21
60.4848
 31
0.0
  0
LINE
  8
0
 62
     0
 10
117.431
 20
60.4848
 30
0.0
 11
117.431
 21
63.5854
 31
0.0
  0
LINE
  8
0
 62
     0
 10
117.431
 20
63.5854
 30
0.0
 11
116.632
 21
63.5854
 31
0.0
  0
LINE
  8
0
 62
     0
 10
116.632
 20
63.5854
 30
0.0
 11
116.632
 21
64.5844
 31
0.0
  0
LINE
  8
0
 62
     0
 10
116.632
 20
64.5844
 30
0.0
 11
102.632
 21
64.5844
 31
0.0
  0
LINE
  8
0
 62
     0
 10
121.682
 20
64.5844
 30
0.0
 11
121.682
 21
63.5854
 31
0.0
  0
LINE
  8
0
 62
     0
 10
121.682
 20
63.5854
 30
0.0
 11
120.881
 21
63.5854
 31
0.0
  0
LINE
  8
0
 62
     0
 10
120.881
 20
63.5854
 30
0.0
 11
120.881
 21
60.4848
 31
0.0
  0
LINE
  8
0
 62
     0
 10
120.881
 20
60.4848
 30
0.0
 11
121.682
 21
60.4848
 31
0.0
  0
LINE
  8
0
 62
     0
 10
121.682
 20
60.4848
 30
0.0
 11
121.682
 21
54.6848
 31
0.0
  0
LINE
  8
0
 62
     0
 10
121.682
 20
54.6848
 30
0.0
 11
120.881
 21
54.6848
 31
0.0
  0
LINE
  8
0
 62
     0
 10
120.881
 20
54.6848
 30
0.0
 11
120.881
 21
51.5856
 31
0.0
  0
LINE
  8
0
 62
     0
 10
120.881
 20
51.5856
 30
0.0
 11
121.682
 21
51.5856
 31
0.0
  0
LINE
  8
0
 62
     0
 10
121.682
 20
51.5856
 30
0.0
 11
121.682
 21
50.5852
 31
0.0
  0
LINE
  8
0
 62
     0
 10
121.682
 20
50.5852
 30
0.0
 11
135.682
 21
50.5852
 31
0.0
  0
LINE
  8
0
 62
     0
 10
135.682
 20
50.5852
 30
0.0
 11
135.682
 21
51.5856
 31
0.0
  0
LINE
  8
0
 62
     0
 10
135.682
 20
51.5856
 30
0.0
 11
136.481
 21
51.5856
 31
0.0
  0
LINE
  8
0
 62
     0
 10
136.481
 20
51.5856
 30
0.0
 11
136.481
 21
54.6848
 31
0.0
  0
LINE
  8
0
 62
     0
 10
136.481
 20
54.6848
 30
0.0
 11
135.682
 21
54.6848
 31
0.0
  0
LINE
  8
0
 62
     0
 10
135.682
 20
54.6848
 30
0.0
 11
135.682
 21
60.4848
 31
0.0
  0
LINE
  8
0
 62
     0
 10
135.682
 20
60.4848
 30
0.0
 11
136.481
 21
60.4848
 31
0.0
  0
LINE
  8
0
 62
     0
 10
136.481
 20
60.4848
 30
0.0
 11
136.481
 21
63.5854
 31
0.0
  0
LINE
  8
0
 62
     0
 10
136.481
 20
63.5854
 30
0.0
 11
135.682
 21
63.5854
 31
0.0
  0
LINE
  8
0
 62
     0
 10
135.682
 20
63.5854
 30
0.0
 11
135.682
 21
64.5844
 31
0.0
  0
LINE
  8
0
 62
     0
 10
135.682
 20
64.5844
 30
0.0
 11
121.682
 21
64.5844
 31
0.0
  0
LINE
  8
0
 62
     0
 10
9.76203
 20
83.6344
 30
0.0
 11
9.76203
 21
82.6354
 31
0.0
  0
LINE
  8
0
 62
     0
 10
9.76203
 20
82.6354
 30
0.0
 11
8.96278
 21
82.6354
 31
0.0
  0
LINE
  8
0
 62
     0
 10
8.96278
 20
82.6354
 30
0.0
 11
8.96278
 21
79.5348
 31
0.0
  0
LINE
  8
0
 62
     0
 10
8.96278
 20
79.5348
 30
0.0
 11
9.76203
 21
79.5348
 31
0.0
  0
LINE
  8
0
 62
     0
 10
9.76203
 20
79.5348
 30
0.0
 11
9.76203
 21
73.7348
 31
0.0
  0
LINE
  8
0
 62
     0
 10
9.76203
 20
73.7348
 30
0.0
 11
8.96278
 21
73.7348
 31
0.0
  0
LINE
  8
0
 62
     0
 10
8.96278
 20
73.7348
 30
0.0
 11
8.96278
 21
70.6356
 31
0.0
  0
LINE
  8
0
 62
     0
 10
8.96278
 20
70.6356
 30
0.0
 11
9.76203
 21
70.6356
 31
0.0
  0
LINE
  8
0
 62
     0
 10
9.76203
 20
70.6356
 30
0.0
 11
9.76203
 21
69.6352
 31
0.0
  0
LINE
  8
0
 62
     0
 10
9.76203
 20
69.6352
 30
0.0
 11
23.7629
 21
69.6352
 31
0.0
  0
LINE
  8
0
 62
     0
 10
23.7629
 20
69.6352
 30
0.0
 11
23.7629
 21
70.6356
 31
0.0
  0
LINE
  8
0
 62
     0
 10
23.7629
 20
70.6356
 30
0.0
 11
24.5622
 21
70.6356
 31
0.0
  0
LINE
  8
0
 62
     0
 10
24.5622
 20
70.6356
 30
0.0
 11
24.5622
 21
73.7348
 31
0.0
  0
LINE
  8
0
 62
     0
 10
24.5622
 20
73.7348
 30
0.0
 11
23.7629
 21
73.7348
 31
0.0
  0
LINE
  8
0
 62
     0
 10
23.7629
 20
73.7348
 30
0.0
 11
23.7629
 21
79.5348
 31
0.0
  0
LINE
  8
0
 62
     0
 10
23.7629
 20
79.5348
 30
0.0
 11
24.5622
 21
79.5348
 31
0.0
  0
LINE
  8
0
 62
     0
 10
24.5622
 20
79.5348
 30
0.0
 11
24.5622
 21
82.6354
 31
0.0
  0
LINE
  8
0
 62
     0
 10
24.5622
 20
82.6354
 30
0.0
 11
23.7629
 21
82.6354
 31
0.0
  0
LINE
  8
0
 62
     0
 10
23.7629
 20
82.6354
 30
0.0
 11
23.7629
 21
83.6344
 31
0.0
  0
LINE
  8
0
 62
     0
 10
23.7629
 20
83.6344
 30
0.0
 11
9.76203
 21
83.6344
 31
0.0
  0
LINE
  8
0
 62
     0
 10
35.9572
 20
83.6344
 30
0.0
 11
35.9572
 21
82.6354
 31
0.0
  0
LINE
  8
0
 62
     0
 10
35.9572
 20
82.6354
 30
0.0
 11
35.1565
 21
82.6354
 31
0.0
  0
LINE
  8
0
 62
     0
 10
35.1565
 20
82.6354
 30
0.0
 11
35.1565
 21
79.5348
 31
0.0
  0
LINE
  8
0
 62
     0
 10
35.1565
 20
79.5348
 30
0.0
 11
35.9572
 21
79.5348
 31
0.0
  0
LINE
  8
0
 62
     0
 10
35.9572
 20
79.5348
 30
0.0
 11
35.9572
 21
73.7348
 31
0.0
  0
LINE
  8
0
 62
     0
 10
35.9572
 20
73.7348
 30
0.0
 11
35.1565
 21
73.7348
 31
0.0
  0
LINE
  8
0
 62
     0
 10
35.1565
 20
73.7348
 30
0.0
 11
35.1565
 21
70.6356
 31
0.0
  0
LINE
  8
0
 62
     0
 10
35.1565
 20
70.6356
 30
0.0
 11
35.9572
 21
70.6356
 31
0.0
  0
LINE
  8
0
 62
     0
 10
35.9572
 20
70.6356
 30
0.0
 11
35.9572
 21
69.6352
 31
0.0
  0
LINE
  8
0
 62
     0
 10
35.9572
 20
69.6352
 30
0.0
 11
49.9565
 21
69.6352
 31
0.0
  0
LINE
  8
0
 62
     0
 10
49.9565
 20
69.6352
 30
0.0
 11
49.9565
 21
70.6356
 31
0.0
  0
LINE
  8
0
 62
     0
 10
49.9565
 20
70.6356
 30
0.0
 11
50.7559
 21
70.6356
 31
0.0
  0
LINE
  8
0
 62
     0
 10
50.7559
 20
70.6356
 30
0.0
 11
50.7559
 21
73.7348
 31
0.0
  0
LINE
  8
0
 62
     0
 10
50.7559
 20
73.7348
 30
0.0
 11
49.9565
 21
73.7348
 31
0.0
  0
LINE
  8
0
 62
     0
 10
49.9565
 20
73.7348
 30
0.0
 11
49.9565
 21
79.5348
 31
0.0
  0
LINE
  8
0
 62
     0
 10
49.9565
 20
79.5348
 30
0.0
 11
50.7559
 21
79.5348
 31
0.0
  0
LINE
  8
0
 62
     0
 10
50.7559
 20
79.5348
 30
0.0
 11
50.7559
 21
82.6354
 31
0.0
  0
LINE
  8
0
 62
     0
 10
50.7559
 20
82.6354
 30
0.0
 11
49.9565
 21
82.6354
 31
0.0
  0
LINE
  8
0
 62
     0
 10
49.9565
 20
82.6354
 30
0.0
 11
49.9565
 21
83.6344
 31
0.0
  0
LINE
  8
0
 62
     0
 10
49.9565
 20
83.6344
 30
0.0
 11
35.9572
 21
83.6344
 31
0.0
  0
LINE
  8
0
 62
     0
 10
55.0072
 20
83.6344
 30
0.0
 11
55.0072
 21
82.6354
 31
0.0
  0
LINE
  8
0
 62
     0
 10
55.0072
 20
82.6354
 30
0.0
 11
54.2064
 21
82.6354
 31
0.0
  0
LINE
  8
0
 62
     0
 10
54.2064
 20
82.6354
 30
0.0
 11
54.2064
 21
79.5348
 31
0.0
  0
LINE
  8
0
 62
     0
 10
54.2064
 20
79.5348
 30
0.0
 11
55.0072
 21
79.5348
 31
0.0
  0
LINE
  8
0
 62
     0
 10
55.0072
 20
79.5348
 30
0.0
 11
55.0072
 21
73.7348
 31
0.0
  0
LINE
  8
0
 62
     0
 10
55.0072
 20
73.7348
 30
0.0
 11
54.2064
 21
73.7348
 31
0.0
  0
LINE
  8
0
 62
     0
 10
54.2064
 20
73.7348
 30
0.0
 11
54.2064
 21
70.6356
 31
0.0
  0
LINE
  8
0
 62
     0
 10
54.2064
 20
70.6356
 30
0.0
 11
55.0072
 21
70.6356
 31
0.0
  0
LINE
  8
0
 62
     0
 10
55.0072
 20
70.6356
 30
0.0
 11
55.0072
 21
69.6352
 31
0.0
  0
LINE
  8
0
 62
     0
 10
55.0072
 20
69.6352
 30
0.0
 11
69.0065
 21
69.6352
 31
0.0
  0
LINE
  8
0
 62
     0
 10
69.0065
 20
69.6352
 30
0.0
 11
69.0065
 21
70.6356
 31
0.0
  0
LINE
  8
0
 62
     0
 10
69.0065
 20
70.6356
 30
0.0
 11
69.8059
 21
70.6356
 31
0.0
  0
LINE
  8
0
 62
     0
 10
69.8059
 20
70.6356
 30
0.0
 11
69.8059
 21
73.7348
 31
0.0
  0
LINE
  8
0
 62
     0
 10
69.8059
 20
73.7348
 30
0.0
 11
69.0065
 21
73.7348
 31
0.0
  0
LINE
  8
0
 62
     0
 10
69.0065
 20
73.7348
 30
0.0
 11
69.0065
 21
79.5348
 31
0.0
  0
LINE
  8
0
 62
     0
 10
69.0065
 20
79.5348
 30
0.0
 11
69.8059
 21
79.5348
 31
0.0
  0
LINE
  8
0
 62
     0
 10
69.8059
 20
79.5348
 30
0.0
 11
69.8059
 21
82.6354
 31
0.0
  0
LINE
  8
0
 62
     0
 10
69.8059
 20
82.6354
 30
0.0
 11
69.0065
 21
82.6354
 31
0.0
  0
LINE
  8
0
 62
     0
 10
69.0065
 20
82.6354
 30
0.0
 11
69.0065
 21
83.6344
 31
0.0
  0
LINE
  8
0
 62
     0
 10
69.0065
 20
83.6344
 30
0.0
 11
55.0072
 21
83.6344
 31
0.0
  0
LINE
  8
0
 62
     0
 10
74.0572
 20
83.6344
 30
0.0
 11
74.0572
 21
82.6354
 31
0.0
  0
LINE
  8
0
 62
     0
 10
74.0572
 20
82.6354
 30
0.0
 11
73.2564
 21
82.6354
 31
0.0
  0
LINE
  8
0
 62
     0
 10
73.2564
 20
82.6354
 30
0.0
 11
73.2564
 21
79.5348
 31
0.0
  0
LINE
  8
0
 62
     0
 10
73.2564
 20
79.5348
 30
0.0
 11
74.0572
 21
79.5348
 31
0.0
  0
LINE
  8
0
 62
     0
 10
74.0572
 20
79.5348
 30
0.0
 11
74.0572
 21
73.7348
 31
0.0
  0
LINE
  8
0
 62
     0
 10
74.0572
 20
73.7348
 30
0.0
 11
73.2564
 21
73.7348
 31
0.0
  0
LINE
  8
0
 62
     0
 10
73.2564
 20
73.7348
 30
0.0
 11
73.2564
 21
70.6356
 31
0.0
  0
LINE
  8
0
 62
     0
 10
73.2564
 20
70.6356
 30
0.0
 11
74.0572
 21
70.6356
 31
0.0
  0
LINE
  8
0
 62
     0
 10
74.0572
 20
70.6356
 30
0.0
 11
74.0572
 21
69.6352
 31
0.0
  0
LINE
  8
0
 62
     0
 10
74.0572
 20
69.6352
 30
0.0
 11
88.0565
 21
69.6352
 31
0.0
  0
LINE
  8
0
 62
     0
 10
88.0565
 20
69.6352
 30
0.0
 11
88.0565
 21
70.6356
 31
0.0
  0
LINE
  8
0
 62
     0
 10
88.0565
 20
70.6356
 30
0.0
 11
88.8559
 21
70.6356
 31
0.0
  0
LINE
  8
0
 62
     0
 10
88.8559
 20
70.6356
 30
0.0
 11
88.8559
 21
73.7348
 31
0.0
  0
LINE
  8
0
 62
     0
 10
88.8559
 20
73.7348
 30
0.0
 11
88.0565
 21
73.7348
 31
0.0
  0
LINE
  8
0
 62
     0
 10
88.0565
 20
73.7348
 30
0.0
 11
88.0565
 21
79.5348
 31
0.0
  0
LINE
  8
0
 62
     0
 10
88.0565
 20
79.5348
 30
0.0
 11
88.8559
 21
79.5348
 31
0.0
  0
LINE
  8
0
 62
     0
 10
88.8559
 20
79.5348
 30
0.0
 11
88.8559
 21
82.6354
 31
0.0
  0
LINE
  8
0
 62
     0
 10
88.8559
 20
82.6354
 30
0.0
 11
88.0565
 21
82.6354
 31
0.0
  0
LINE
  8
0
 62
     0
 10
88.0565
 20
82.6354
 30
0.0
 11
88.0565
 21
83.6344
 31
0.0
  0
LINE
  8
0
 62
     0
 10
88.0565
 20
83.6344
 30
0.0
 11
74.0572
 21
83.6344
 31
0.0
  0
LINE
  8
0
 62
     0
 10
93.1072
 20
83.6344
 30
0.0
 11
93.1072
 21
82.6354
 31
0.0
  0
LINE
  8
0
 62
     0
 10
93.1072
 20
82.6354
 30
0.0
 11
92.3064
 21
82.6354
 31
0.0
  0
LINE
  8
0
 62
     0
 10
92.3064
 20
82.6354
 30
0.0
 11
92.3064
 21
79.5348
 31
0.0
  0
LINE
  8
0
 62
     0
 10
92.3064
 20
79.5348
 30
0.0
 11
93.1072
 21
79.5348
 31
0.0
  0
LINE
  8
0
 62
     0
 10
93.1072
 20
79.5348
 30
0.0
 11
93.1072
 21
73.7348
 31
0.0
  0
LINE
  8
0
 62
     0
 10
93.1072
 20
73.7348
 30
0.0
 11
92.3064
 21
73.7348
 31
0.0
  0
LINE
  8
0
 62
     0
 10
92.3064
 20
73.7348
 30
0.0
 11
92.3064
 21
70.6356
 31
0.0
  0
LINE
  8
0
 62
     0
 10
92.3064
 20
70.6356
 30
0.0
 11
93.1072
 21
70.6356
 31
0.0
  0
LINE
  8
0
 62
     0
 10
93.1072
 20
70.6356
 30
0.0
 11
93.1072
 21
69.6352
 31
0.0
  0
LINE
  8
0
 62
     0
 10
93.1072
 20
69.6352
 30
0.0
 11
107.107
 21
69.6352
 31
0.0
  0
LINE
  8
0
 62
     0
 10
107.107
 20
69.6352
 30
0.0
 11
107.107
 21
70.6356
 31
0.0
  0
LINE
  8
0
 62
     0
 10
107.107
 20
70.6356
 30
0.0
 11
107.906
 21
70.6356
 31
0.0
  0
LINE
  8
0
 62
     0
 10
107.906
 20
70.6356
 30
0.0
 11
107.906
 21
73.7348
 31
0.0
  0
LINE
  8
0
 62
     0
 10
107.906
 20
73.7348
 30
0.0
 11
107.107
 21
73.7348
 31
0.0
  0
LINE
  8
0
 62
     0
 10
107.107
 20
73.7348
 30
0.0
 11
107.107
 21
79.5348
 31
0.0
  0
LINE
  8
0
 62
     0
 10
107.107
 20
79.5348
 30
0.0
 11
107.906
 21
79.5348
 31
0.0
  0
LINE
  8
0
 62
     0
 10
107.906
 20
79.5348
 30
0.0
 11
107.906
 21
82.6354
 31
0.0
  0
LINE
  8
0
 62
     0
 10
107.906
 20
82.6354
 30
0.0
 11
107.107
 21
82.6354
 31
0.0
  0
LINE
  8
0
 62
     0
 10
107.107
 20
82.6354
 30
0.0
 11
107.107
 21
83.6344
 31
0.0
  0
LINE
  8
0
 62
     0
 10
107.107
 20
83.6344
 30
0.0
 11
93.1072
 21
83.6344
 31
0.0
  0
LINE
  8
0
 62
     0
 10
112.157
 20
83.6344
 30
0.0
 11
112.157
 21
82.6354
 31
0.0
  0
LINE
  8
0
 62
     0
 10
112.157
 20
82.6354
 30
0.0
 11
111.356
 21
82.6354
 31
0.0
  0
LINE
  8
0
 62
     0
 10
111.356
 20
82.6354
 30
0.0
 11
111.356
 21
79.5348
 31
0.0
  0
LINE
  8
0
 62
     0
 10
111.356
 20
79.5348
 30
0.0
 11
112.157
 21
79.5348
 31
0.0
  0
LINE
  8
0
 62
     0
 10
112.157
 20
79.5348
 30
0.0
 11
112.157
 21
73.7348
 31
0.0
  0
LINE
  8
0
 62
     0
 10
112.157
 20
73.7348
 30
0.0
 11
111.356
 21
73.7348
 31
0.0
  0
LINE
  8
0
 62
     0
 10
111.356
 20
73.7348
 30
0.0
 11
111.356
 21
70.6356
 31
0.0
  0
LINE
  8
0
 62
     0
 10
111.356
 20
70.6356
 30
0.0
 11
112.157
 21
70.6356
 31
0.0
  0
LINE
  8
0
 62
     0
 10
112.157
 20
70.6356
 30
0.0
 11
112.157
 21
69.6352
 31
0.0
  0
LINE
  8
0
 62
     0
 10
112.157
 20
69.6352
 30
0.0
 11
126.157
 21
69.6352
 31
0.0
  0
LINE
  8
0
 62
     0
 10
126.157
 20
69.6352
 30
0.0
 11
126.157
 21
70.6356
 31
0.0
  0
LINE
  8
0
 62
     0
 10
126.157
 20
70.6356
 30
0.0
 11
126.956
 21
70.6356
 31
0.0
  0
LINE
  8
0
 62
     0
 10
126.956
 20
70.6356
 30
0.0
 11
126.956
 21
73.7348
 31
0.0
  0
LINE
  8
0
 62
     0
 10
126.956
 20
73.7348
 30
0.0
 11
126.157
 21
73.7348
 31
0.0
  0
LINE
  8
0
 62
     0
 10
126.157
 20
73.7348
 30
0.0
 11
126.157
 21
79.5348
 31
0.0
  0
LINE
  8
0
 62
     0
 10
126.157
 20
79.5348
 30
0.0
 11
126.956
 21
79.5348
 31
0.0
  0
LINE
  8
0
 62
     0
 10
126.956
 20
79.5348
 30
0.0
 11
126.956
 21
82.6354
 31
0.0
  0
LINE
  8
0
 62
     0
 10
126.956
 20
82.6354
 30
0.0
 11
126.157
 21
82.6354
 31
0.0
  0
LINE
  8
0
 62
     0
 10
126.157
 20
82.6354
 30
0.0
 11
126.157
 21
83.6344
 31
0.0
  0
LINE
  8
0
 62
     0
 10
126.157
 20
83.6344
 30
0.0
 11
112.157
 21
83.6344
 31
0.0
  0
LINE
  8
0
 62
     0
 10
7.38216
 20
102.684
 30
0.0
 11
7.38216
 21
101.685
 31
0.0
  0
LINE
  8
0
 62
     0
 10
7.38216
 20
101.685
 30
0.0
 11
6.58153
 21
101.685
 31
0.0
  0
LINE
  8
0
 62
     0
 10
6.58153
 20
101.685
 30
0.0
 11
6.58153
 21
98.5848
 31
0.0
  0
LINE
  8
0
 62
     0
 10
6.58153
 20
98.5848
 30
0.0
 11
7.38216
 21
98.5848
 31
0.0
  0
LINE
  8
0
 62
     0
 10
7.38216
 20
98.5848
 30
0.0
 11
7.38216
 21
92.7848
 31
0.0
  0
LINE
  8
0
 62
     0
 10
7.38216
 20
92.7848
 30
0.0
 11
6.58153
 21
92.7848
 31
0.0
  0
LINE
  8
0
 62
     0
 10
6.58153
 20
92.7848
 30
0.0
 11
6.58153
 21
89.6856
 31
0.0
  0
LINE
  8
0
 62
     0
 10
6.58153
 20
89.6856
 30
0.0
 11
7.38216
 21
89.6856
 31
0.0
  0
LINE
  8
0
 62
     0
 10
7.38216
 20
89.6856
 30
0.0
 11
7.38216
 21
88.6852
 31
0.0
  0
LINE
  8
0
 62
     0
 10
7.38216
 20
88.6852
 30
0.0
 11
21.3817
 21
88.6852
 31
0.0
  0
LINE
  8
0
 62
     0
 10
21.3817
 20
88.6852
 30
0.0
 11
21.3817
 21
89.6856
 31
0.0
  0
LINE
  8
0
 62
     0
 10
21.3817
 20
89.6856
 30
0.0
 11
22.1809
 21
89.6856
 31
0.0
  0
LINE
  8
0
 62
     0
 10
22.1809
 20
89.6856
 30
0.0
 11
22.1809
 21
92.7848
 31
0.0
  0
LINE
  8
0
 62
     0
 10
22.1809
 20
92.7848
 30
0.0
 11
21.3817
 21
92.7848
 31
0.0
  0
LINE
  8
0
 62
     0
 10
21.3817
 20
92.7848
 30
0.0
 11
21.3817
 21
98.5848
 31
0.0
  0
LINE
  8
0
 62
     0
 10
21.3817
 20
98.5848
 30
0.0
 11
22.1809
 21
98.5848
 31
0.0
  0
LINE
  8
0
 62
     0
 10
22.1809
 20
98.5848
 30
0.0
 11
22.1809
 21
101.685
 31
0.0
  0
LINE
  8
0
 62
     0
 10
22.1809
 20
101.685
 30
0.0
 11
21.3817
 21
101.685
 31
0.0
  0
LINE
  8
0
 62
     0
 10
21.3817
 20
101.685
 30
0.0
 11
21.3817
 21
102.684
 31
0.0
  0
LINE
  8
0
 62
     0
 10
21.3817
 20
102.684
 30
0.0
 11
7.38216
 21
102.684
 31
0.0
  0
LINE
  8
0
 62
     0
 10
31.1947
 20
102.684
 30
0.0
 11
31.1947
 21
101.685
 31
0.0
  0
LINE
  8
0
 62
     0
 10
31.1947
 20
101.685
 30
0.0
 11
30.394
 21
101.685
 31
0.0
  0
LINE
  8
0
 62
     0
 10
30.394
 20
101.685
 30
0.0
 11
30.394
 21
98.5848
 31
0.0
  0
LINE
  8
0
 62
     0
 10
30.394
 20
98.5848
 30
0.0
 11
31.1947
 21
98.5848
 31
0.0
  0
LINE
  8
0
 62
     0
 10
31.1947
 20
98.5848
 30
0.0
 11
31.1947
 21
92.7848
 31
0.0
  0
LINE
  8
0
 62
     0
 10
31.1947
 20
92.7848
 30
0.0
 11
30.394
 21
92.7848
 31
0.0
  0
LINE
  8
0
 62
     0
 10
30.394
 20
92.7848
 30
0.0
 11
30.394
 21
89.6856
 31
0.0
  0
LINE
  8
0
 62
     0
 10
30.394
 20
89.6856
 30
0.0
 11
31.1947
 21
89.6856
 31
0.0
  0
LINE
  8
0
 62
     0
 10
31.1947
 20
89.6856
 30
0.0
 11
31.1947
 21
88.6852
 31
0.0
  0
LINE
  8
0
 62
     0
 10
31.1947
 20
88.6852
 30
0.0
 11
45.194
 21
88.6852
 31
0.0
  0
LINE
  8
0
 62
     0
 10
45.194
 20
88.6852
 30
0.0
 11
45.194
 21
89.6856
 31
0.0
  0
LINE
  8
0
 62
     0
 10
45.194
 20
89.6856
 30
0.0
 11
45.9948
 21
89.6856
 31
0.0
  0
LINE
  8
0
 62
     0
 10
45.9948
 20
89.6856
 30
0.0
 11
45.9948
 21
92.7848
 31
0.0
  0
LINE
  8
0
 62
     0
 10
45.9948
 20
92.7848
 30
0.0
 11
45.194
 21
92.7848
 31
0.0
  0
LINE
  8
0
 62
     0
 10
45.194
 20
92.7848
 30
0.0
 11
45.194
 21
98.5848
 31
0.0
  0
LINE
  8
0
 62
     0
 10
45.194
 20
98.5848
 30
0.0
 11
45.9948
 21
98.5848
 31
0.0
  0
LINE
  8
0
 62
     0
 10
45.9948
 20
98.5848
 30
0.0
 11
45.9948
 21
101.685
 31
0.0
  0
LINE
  8
0
 62
     0
 10
45.9948
 20
101.685
 30
0.0
 11
45.194
 21
101.685
 31
0.0
  0
LINE
  8
0
 62
     0
 10
45.194
 20
101.685
 30
0.0
 11
45.194
 21
102.684
 31
0.0
  0
LINE
  8
0
 62
     0
 10
45.194
 20
102.684
 30
0.0
 11
31.1947
 21
102.684
 31
0.0
  0
LINE
  8
0
 62
     0
 10
50.2447
 20
102.684
 30
0.0
 11
50.2447
 21
101.685
 31
0.0
  0
LINE
  8
0
 62
     0
 10
50.2447
 20
101.685
 30
0.0
 11
49.4439
 21
101.685
 31
0.0
  0
LINE
  8
0
 62
     0
 10
49.4439
 20
101.685
 30
0.0
 11
49.4439
 21
98.5848
 31
0.0
  0
LINE
  8
0
 62
     0
 10
49.4439
 20
98.5848
 30
0.0
 11
50.2447
 21
98.5848
 31
0.0
  0
LINE
  8
0
 62
     0
 10
50.2447
 20
98.5848
 30
0.0
 11
50.2447
 21
92.7848
 31
0.0
  0
LINE
  8
0
 62
     0
 10
50.2447
 20
92.7848
 30
0.0
 11
49.4439
 21
92.7848
 31
0.0
  0
LINE
  8
0
 62
     0
 10
49.4439
 20
92.7848
 30
0.0
 11
49.4439
 21
89.6856
 31
0.0
  0
LINE
  8
0
 62
     0
 10
49.4439
 20
89.6856
 30
0.0
 11
50.2447
 21
89.6856
 31
0.0
  0
LINE
  8
0
 62
     0
 10
50.2447
 20
89.6856
 30
0.0
 11
50.2447
 21
88.6852
 31
0.0
  0
LINE
  8
0
 62
     0
 10
50.2447
 20
88.6852
 30
0.0
 11
64.244
 21
88.6852
 31
0.0
  0
LINE
  8
0
 62
     0
 10
64.244
 20
88.6852
 30
0.0
 11
64.244
 21
89.6856
 31
0.0
  0
LINE
  8
0
 62
     0
 10
64.244
 20
89.6856
 30
0.0
 11
65.0448
 21
89.6856
 31
0.0
  0
LINE
  8
0
 62
     0
 10
65.0448
 20
89.6856
 30
0.0
 11
65.0448
 21
92.7848
 31
0.0
  0
LINE
  8
0
 62
     0
 10
65.0448
 20
92.7848
 30
0.0
 11
64.244
 21
92.7848
 31
0.0
  0
LINE
  8
0
 62
     0
 10
64.244
 20
92.7848
 30
0.0
 11
64.244
 21
98.5848
 31
0.0
  0
LINE
  8
0
 62
     0
 10
64.244
 20
98.5848
 30
0.0
 11
65.0448
 21
98.5848
 31
0.0
  0
LINE
  8
0
 62
     0
 10
65.0448
 20
98.5848
 30
0.0
 11
65.0448
 21
101.685
 31
0.0
  0
LINE
  8
0
 62
     0
 10
65.0448
 20
101.685
 30
0.0
 11
64.244
 21
101.685
 31
0.0
  0
LINE
  8
0
 62
     0
 10
64.244
 20
101.685
 30
0.0
 11
64.244
 21
102.684
 31
0.0
  0
LINE
  8
0
 62
     0
 10
64.244
 20
102.684
 30
0.0
 11
50.2447
 21
102.684
 31
0.0
  0
LINE
  8
0
 62
     0
 10
69.2947
 20
102.684
 30
0.0
 11
69.2947
 21
101.685
 31
0.0
  0
LINE
  8
0
 62
     0
 10
69.2947
 20
101.685
 30
0.0
 11
68.4939
 21
101.685
 31
0.0
  0
LINE
  8
0
 62
     0
 10
68.4939
 20
101.685
 30
0.0
 11
68.4939
 21
98.5848
 31
0.0
  0
LINE
  8
0
 62
     0
 10
68.4939
 20
98.5848
 30
0.0
 11
69.2947
 21
98.5848
 31
0.0
  0
LINE
  8
0
 62
     0
 10
69.2947
 20
98.5848
 30
0.0
 11
69.2947
 21
92.7848
 31
0.0
  0
LINE
  8
0
 62
     0
 10
69.2947
 20
92.7848
 30
0.0
 11
68.4939
 21
92.7848
 31
0.0
  0
LINE
  8
0
 62
     0
 10
68.4939
 20
92.7848
 30
0.0
 11
68.4939
 21
89.6856
 31
0.0
  0
LINE
  8
0
 62
     0
 10
68.4939
 20
89.6856
 30
0.0
 11
69.2947
 21
89.6856
 31
0.0
  0
LINE
  8
0
 62
     0
 10
69.2947
 20
89.6856
 30
0.0
 11
69.2947
 21
88.6852
 31
0.0
  0
LINE
  8
0
 62
     0
 10
69.2947
 20
88.6852
 30
0.0
 11
83.294
 21
88.6852
 31
0.0
  0
LINE
  8
0
 62
     0
 10
83.294
 20
88.6852
 30
0.0
 11
83.294
 21
89.6856
 31
0.0
  0
LINE
  8
0
 62
     0
 10
83.294
 20
89.6856
 30
0.0
 11
84.0948
 21
89.6856
 31
0.0
  0
LINE
  8
0
 62
     0
 10
84.0948
 20
89.6856
 30
0.0
 11
84.0948
 21
92.7848
 31
0.0
  0
LINE
  8
0
 62
     0
 10
84.0948
 20
92.7848
 30
0.0
 11
83.294
 21
92.7848
 31
0.0
  0
LINE
  8
0
 62
     0
 10
83.294
 20
92.7848
 30
0.0
 11
83.294
 21
98.5848
 31
0.0
  0
LINE
  8
0
 62
     0
 10
83.294
 20
98.5848
 30
0.0
 11
84.0948
 21
98.5848
 31
0.0
  0
LINE
  8
0
 62
     0
 10
84.0948
 20
98.5848
 30
0.0
 11
84.0948
 21
101.685
 31
0.0
  0
LINE
  8
0
 62
     0
 10
84.0948
 20
101.685
 30
0.0
 11
83.294
 21
101.685
 31
0.0
  0
LINE
  8
0
 62
     0
 10
83.294
 20
101.685
 30
0.0
 11
83.294
 21
102.684
 31
0.0
  0
LINE
  8
0
 62
     0
 10
83.294
 20
102.684
 30
0.0
 11
69.2947
 21
102.684
 31
0.0
  0
LINE
  8
0
 62
     0
 10
88.3447
 20
102.684
 30
0.0
 11
88.3447
 21
101.685
 31
0.0
  0
LINE
  8
0
 62
     0
 10
88.3447
 20
101.685
 30
0.0
 11
87.5439
 21
101.685
 31
0.0
  0
LINE
  8
0
 62
     0
 10
87.5439
 20
101.685
 30
0.0
 11
87.5439
 21
98.5848
 31
0.0
  0
LINE
  8
0
 62
     0
 10
87.5439
 20
98.5848
 30
0.0
 11
88.3447
 21
98.5848
 31
0.0
  0
LINE
  8
0
 62
     0
 10
88.3447
 20
98.5848
 30
0.0
 11
88.3447
 21
92.7848
 31
0.0
  0
LINE
  8
0
 62
     0
 10
88.3447
 20
92.7848
 30
0.0
 11
87.5439
 21
92.7848
 31
0.0
  0
LINE
  8
0
 62
     0
 10
87.5439
 20
92.7848
 30
0.0
 11
87.5439
 21
89.6856
 31
0.0
  0
LINE
  8
0
 62
     0
 10
87.5439
 20
89.6856
 30
0.0
 11
88.3447
 21
89.6856
 31
0.0
  0
LINE
  8
0
 62
     0
 10
88.3447
 20
89.6856
 30
0.0
 11
88.3447
 21
88.6852
 31
0.0
  0
LINE
  8
0
 62
     0
 10
88.3447
 20
88.6852
 30
0.0
 11
102.344
 21
88.6852
 31
0.0
  0
LINE
  8
0
 62
     0
 10
102.344
 20
88.6852
 30
0.0
 11
102.344
 21
89.6856
 31
0.0
  0
LINE
  8
0
 62
     0
 10
102.344
 20
89.6856
 30
0.0
 11
103.145
 21
89.6856
 31
0.0
  0
LINE
  8
0
 62
     0
 10
103.145
 20
89.6856
 30
0.0
 11
103.145
 21
92.7848
 31
0.0
  0
LINE
  8
0
 62
     0
 10
103.145
 20
92.7848
 30
0.0
 11
102.344
 21
92.7848
 31
0.0
  0
LINE
  8
0
 62
     0
 10
102.344
 20
92.7848
 30
0.0
 11
102.344
 21
98.5848
 31
0.0
  0
LINE
  8
0
 62
     0
 10
102.344
 20
98.5848
 30
0.0
 11
103.145
 21
98.5848
 31
0.0
  0
LINE
  8
0
 62
     0
 10
103.145
 20
98.5848
 30
0.0
 11
103.145
 21
101.685
 31
0.0
  0
LINE
  8
0
 62
     0
 10
103.145
 20
101.685
 30
0.0
 11
102.344
 21
101.685
 31
0.0
  0
LINE
  8
0
 62
     0
 10
102.344
 20
101.685
 30
0.0
 11
102.344
 21
102.684
 31
0.0
  0
LINE
  8
0
 62
     0
 10
102.344
 20
102.684
 30
0.0
 11
88.3447
 21
102.684
 31
0.0
  0
LINE
  8
0
 62
     0
 10
107.395
 20
102.684
 30
0.0
 11
107.395
 21
101.685
 31
0.0
  0
LINE
  8
0
 62
     0
 10
107.395
 20
101.685
 30
0.0
 11
106.594
 21
101.685
 31
0.0
  0
LINE
  8
0
 62
     0
 10
106.594
 20
101.685
 30
0.0
 11
106.594
 21
98.5848
 31
0.0
  0
LINE
  8
0
 62
     0
 10
106.594
 20
98.5848
 30
0.0
 11
107.395
 21
98.5848
 31
0.0
  0
LINE
  8
0
 62
     0
 10
107.395
 20
98.5848
 30
0.0
 11
107.395
 21
92.7848
 31
0.0
  0
LINE
  8
0
 62
     0
 10
107.395
 20
92.7848
 30
0.0
 11
106.594
 21
92.7848
 31
0.0
  0
LINE
  8
0
 62
     0
 10
106.594
 20
92.7848
 30
0.0
 11
106.594
 21
89.6856
 31
0.0
  0
LINE
  8
0
 62
     0
 10
106.594
 20
89.6856
 30
0.0
 11
107.395
 21
89.6856
 31
0.0
  0
LINE
  8
0
 62
     0
 10
107.395
 20
89.6856
 30
0.0
 11
107.395
 21
88.6852
 31
0.0
  0
LINE
  8
0
 62
     0
 10
107.395
 20
88.6852
 30
0.0
 11
121.394
 21
88.6852
 31
0.0
  0
LINE
  8
0
 62
     0
 10
121.394
 20
88.6852
 30
0.0
 11
121.394
 21
89.6856
 31
0.0
  0
LINE
  8
0
 62
     0
 10
121.394
 20
89.6856
 30
0.0
 11
122.195
 21
89.6856
 31
0.0
  0
LINE
  8
0
 62
     0
 10
122.195
 20
89.6856
 30
0.0
 11
122.195
 21
92.7848
 31
0.0
  0
LINE
  8
0
 62
     0
 10
122.195
 20
92.7848
 30
0.0
 11
121.394
 21
92.7848
 31
0.0
  0
LINE
  8
0
 62
     0
 10
121.394
 20
92.7848
 30
0.0
 11
121.394
 21
98.5848
 31
0.0
  0
LINE
  8
0
 62
     0
 10
121.394
 20
98.5848
 30
0.0
 11
122.195
 21
98.5848
 31
0.0
  0
LINE
  8
0
 62
     0
 10
122.195
 20
98.5848
 30
0.0
 11
122.195
 21
101.685
 31
0.0
  0
LINE
  8
0
 62
     0
 10
122.195
 20
101.685
 30
0.0
 11
121.394
 21
101.685
 31
0.0
  0
LINE
  8
0
 62
     0
 10
121.394
 20
101.685
 30
0.0
 11
121.394
 21
102.684
 31
0.0
  0
LINE
  8
0
 62
     0
 10
121.394
 20
102.684
 30
0.0
 11
107.395
 21
102.684
 31
0.0
  0
LINE
  8
0
 62
     0
 10
126.445
 20
102.684
 30
0.0
 11
126.445
 21
101.685
 31
0.0
  0
LINE
  8
0
 62
     0
 10
126.445
 20
101.685
 30
0.0
 11
125.644
 21
101.685
 31
0.0
  0
LINE
  8
0
 62
     0
 10
125.644
 20
101.685
 30
0.0
 11
125.644
 21
98.5848
 31
0.0
  0
LINE
  8
0
 62
     0
 10
125.644
 20
98.5848
 30
0.0
 11
126.445
 21
98.5848
 31
0.0
  0
LINE
  8
0
 62
     0
 10
126.445
 20
98.5848
 30
0.0
 11
126.445
 21
92.7848
 31
0.0
  0
LINE
  8
0
 62
     0
 10
126.445
 20
92.7848
 30
0.0
 11
125.644
 21
92.7848
 31
0.0
  0
LINE
  8
0
 62
     0
 10
125.644
 20
92.7848
 30
0.0
 11
125.644
 21
89.6856
 31
0.0
  0
LINE
  8
0
 62
     0
 10
125.644
 20
89.6856
 30
0.0
 11
126.445
 21
89.6856
 31
0.0
  0
LINE
  8
0
 62
     0
 10
126.445
 20
89.6856
 30
0.0
 11
126.445
 21
88.6852
 31
0.0
  0
LINE
  8
0
 62
     0
 10
126.445
 20
88.6852
 30
0.0
 11
140.444
 21
88.6852
 31
0.0
  0
LINE
  8
0
 62
     0
 10
140.444
 20
88.6852
 30
0.0
 11
140.444
 21
89.6856
 31
0.0
  0
LINE
  8
0
 62
     0
 10
140.444
 20
89.6856
 30
0.0
 11
141.245
 21
89.6856
 31
0.0
  0
LINE
  8
0
 62
     0
 10
141.245
 20
89.6856
 30
0.0
 11
141.245
 21
92.7848
 31
0.0
  0
LINE
  8
0
 62
     0
 10
141.245
 20
92.7848
 30
0.0
 11
140.444
 21
92.7848
 31
0.0
  0
LINE
  8
0
 62
     0
 10
140.444
 20
92.7848
 30
0.0
 11
140.444
 21
98.5848
 31
0.0
  0
LINE
  8
0
 62
     0
 10
140.444
 20
98.5848
 30
0.0
 11
141.245
 21
98.5848
 31
0.0
  0
LINE
  8
0
 62
     0
 10
141.245
 20
98.5848
 30
0.0
 11
141.245
 21
101.685
 31
0.0
  0
LINE
  8
0
 62
     0
 10
141.245
 20
101.685
 30
0.0
 11
140.444
 21
101.685
 31
0.0
  0
LINE
  8
0
 62
     0
 10
140.444
 20
101.685
 30
0.0
 11
140.444
 21
102.684
 31
0.0
  0
LINE
  8
0
 62
     0
 10
140.444
 20
102.684
 30
0.0
 11
126.445
 21
102.684
 31
0.0
  0
LINE
  8
0
 62
     0
 10
2.61965
 20
121.734
 30
0.0
 11
2.61965
 21
120.735
 31
0.0
  0
LINE
  8
0
 62
     0
 10
2.61965
 20
120.735
 30
0.0
 11
1.81901
 21
120.735
 31
0.0
  0
LINE
  8
0
 62
     0
 10
1.81901
 20
120.735
 30
0.0
 11
1.81901
 21
117.635
 31
0.0
  0
LINE
  8
0
 62
     0
 10
1.81901
 20
117.635
 30
0.0
 11
2.61965
 21
117.635
 31
0.0
  0
LINE
  8
0
 62
     0
 10
2.61965
 20
117.635
 30
0.0
 11
2.61965
 21
111.835
 31
0.0
  0
LINE
  8
0
 62
     0
 10
2.61965
 20
111.835
 30
0.0
 11
1.81901
 21
111.835
 31
0.0
  0
LINE
  8
0
 62
     0
 10
1.81901
 20
111.835
 30
0.0
 11
1.81901
 21
108.736
 31
0.0
  0
LINE
  8
0
 62
     0
 10
1.81901
 20
108.736
 30
0.0
 11
2.61965
 21
108.736
 31
0.0
  0
LINE
  8
0
 62
     0
 10
2.61965
 20
108.736
 30
0.0
 11
2.61965
 21
107.735
 31
0.0
  0
LINE
  8
0
 62
     0
 10
2.61965
 20
107.735
 30
0.0
 11
16.6192
 21
107.735
 31
0.0
  0
LINE
  8
0
 62
     0
 10
16.6192
 20
107.735
 30
0.0
 11
16.6192
 21
108.736
 31
0.0
  0
LINE
  8
0
 62
     0
 10
16.6192
 20
108.736
 30
0.0
 11
17.4198
 21
108.736
 31
0.0
  0
LINE
  8
0
 62
     0
 10
17.4198
 20
108.736
 30
0.0
 11
17.4198
 21
111.835
 31
0.0
  0
LINE
  8
0
 62
     0
 10
17.4198
 20
111.835
 30
0.0
 11
16.6192
 21
111.835
 31
0.0
  0
LINE
  8
0
 62
     0
 10
16.6192
 20
111.835
 30
0.0
 11
16.6192
 21
117.635
 31
0.0
  0
LINE
  8
0
 62
     0
 10
16.6192
 20
117.635
 30
0.0
 11
17.4198
 21
117.635
 31
0.0
  0
LINE
  8
0
 62
     0
 10
17.4198
 20
117.635
 30
0.0
 11
17.4198
 21
120.735
 31
0.0
  0
LINE
  8
0
 62
     0
 10
17.4198
 20
120.735
 30
0.0
 11
16.6192
 21
120.735
 31
0.0
  0
LINE
  8
0
 62
     0
 10
16.6192
 20
120.735
 30
0.0
 11
16.6192
 21
121.734
 31
0.0
  0
LINE
  8
0
 62
     0
 10
16.6192
 20
121.734
 30
0.0
 11
2.61965
 21
121.734
 31
0.0
  0
LINE
  8
0
 62
     0
 10
21.6697
 20
121.734
 30
0.0
 11
21.6697
 21
120.735
 31
0.0
  0
LINE
  8
0
 62
     0
 10
21.6697
 20
120.735
 30
0.0
 11
20.869
 21
120.735
 31
0.0
  0
LINE
  8
0
 62
     0
 10
20.869
 20
120.735
 30
0.0
 11
20.869
 21
117.635
 31
0.0
  0
LINE
  8
0
 62
     0
 10
20.869
 20
117.635
 30
0.0
 11
21.6697
 21
117.635
 31
0.0
  0
LINE
  8
0
 62
     0
 10
21.6697
 20
117.635
 30
0.0
 11
21.6697
 21
111.835
 31
0.0
  0
LINE
  8
0
 62
     0
 10
21.6697
 20
111.835
 30
0.0
 11
20.869
 21
111.835
 31
0.0
  0
LINE
  8
0
 62
     0
 10
20.869
 20
111.835
 30
0.0
 11
20.869
 21
108.736
 31
0.0
  0
LINE
  8
0
 62
     0
 10
20.869
 20
108.736
 30
0.0
 11
21.6697
 21
108.736
 31
0.0
  0
LINE
  8
0
 62
     0
 10
21.6697
 20
108.736
 30
0.0
 11
21.6697
 21
107.735
 31
0.0
  0
LINE
  8
0
 62
     0
 10
21.6697
 20
107.735
 30
0.0
 11
35.669
 21
107.735
 31
0.0
  0
LINE
  8
0
 62
     0
 10
35.669
 20
107.735
 30
0.0
 11
35.669
 21
108.736
 31
0.0
  0
LINE
  8
0
 62
     0
 10
35.669
 20
108.736
 30
0.0
 11
36.4698
 21
108.736
 31
0.0
  0
LINE
  8
0
 62
     0
 10
36.4698
 20
108.736
 30
0.0
 11
36.4698
 21
111.835
 31
0.0
  0
LINE
  8
0
 62
     0
 10
36.4698
 20
111.835
 30
0.0
 11
35.669
 21
111.835
 31
0.0
  0
LINE
  8
0
 62
     0
 10
35.669
 20
111.835
 30
0.0
 11
35.669
 21
117.635
 31
0.0
  0
LINE
  8
0
 62
     0
 10
35.669
 20
117.635
 30
0.0
 11
36.4698
 21
117.635
 31
0.0
  0
LINE
  8
0
 62
     0
 10
36.4698
 20
117.635
 30
0.0
 11
36.4698
 21
120.735
 31
0.0
  0
LINE
  8
0
 62
     0
 10
36.4698
 20
120.735
 30
0.0
 11
35.669
 21
120.735
 31
0.0
  0
LINE
  8
0
 62
     0
 10
35.669
 20
120.735
 30
0.0
 11
35.669
 21
121.734
 31
0.0
  0
LINE
  8
0
 62
     0
 10
35.669
 20
121.734
 30
0.0
 11
21.6697
 21
121.734
 31
0.0
  0
LINE
  8
0
 62
     0
 10
40.7197
 20
121.734
 30
0.0
 11
40.7197
 21
120.735
 31
0.0
  0
LINE
  8
0
 62
     0
 10
40.7197
 20
120.735
 30
0.0
 11
39.9189
 21
120.735
 31
0.0
  0
LINE
  8
0
 62
     0
 10
39.9189
 20
120.735
 30
0.0
 11
39.9189
 21
117.635
 31
0.0
  0
LINE
  8
0
 62
     0
 10
39.9189
 20
117.635
 30
0.0
 11
40.7197
 21
117.635
 31
0.0
  0
LINE
  8
0
 62
     0
 10
40.7197
 20
117.635
 30
0.0
 11
40.7197
 21
111.835
 31
0.0
  0
LINE
  8
0
 62
     0
 10
40.7197
 20
111.835
 30
0.0
 11
39.9189
 21
111.835
 31
0.0
  0
LINE
  8
0
 62
     0
 10
39.9189
 20
111.835
 30
0.0
 11
39.9189
 21
108.736
 31
0.0
  0
LINE
  8
0
 62
     0
 10
39.9189
 20
108.736
 30
0.0
 11
40.7197
 21
108.736
 31
0.0
  0
LINE
  8
0
 62
     0
 10
40.7197
 20
108.736
 30
0.0
 11
40.7197
 21
107.735
 31
0.0
  0
LINE
  8
0
 62
     0
 10
40.7197
 20
107.735
 30
0.0
 11
54.719
 21
107.735
 31
0.0
  0
LINE
  8
0
 62
     0
 10
54.719
 20
107.735
 30
0.0
 11
54.719
 21
108.736
 31
0.0
  0
LINE
  8
0
 62
     0
 10
54.719
 20
108.736
 30
0.0
 11
55.5198
 21
108.736
 31
0.0
  0
LINE
  8
0
 62
     0
 10
55.5198
 20
108.736
 30
0.0
 11
55.5198
 21
111.835
 31
0.0
  0
LINE
  8
0
 62
     0
 10
55.5198
 20
111.835
 30
0.0
 11
54.719
 21
111.835
 31
0.0
  0
LINE
  8
0
 62
     0
 10
54.719
 20
111.835
 30
0.0
 11
54.719
 21
117.635
 31
0.0
  0
LINE
  8
0
 62
     0
 10
54.719
 20
117.635
 30
0.0
 11
55.5198
 21
117.635
 31
0.0
  0
LINE
  8
0
 62
     0
 10
55.5198
 20
117.635
 30
0.0
 11
55.5198
 21
120.735
 31
0.0
  0
LINE
  8
0
 62
     0
 10
55.5198
 20
120.735
 30
0.0
 11
54.719
 21
120.735
 31
0.0
  0
LINE
  8
0
 62
     0
 10
54.719
 20
120.735
 30
0.0
 11
54.719
 21
121.734
 31
0.0
  0
LINE
  8
0
 62
     0
 10
54.719
 20
121.734
 30
0.0
 11
40.7197
 21
121.734
 31
0.0
  0
LINE
  8
0
 62
     0
 10
59.7697
 20
121.734
 30
0.0
 11
59.7697
 21
120.735
 31
0.0
  0
LINE
  8
0
 62
     0
 10
59.7697
 20
120.735
 30
0.0
 11
58.9689
 21
120.735
 31
0.0
  0
LINE
  8
0
 62
     0
 10
58.9689
 20
120.735
 30
0.0
 11
58.9689
 21
117.635
 31
0.0
  0
LINE
  8
0
 62
     0
 10
58.9689
 20
117.635
 30
0.0
 11
59.7697
 21
117.635
 31
0.0
  0
LINE
  8
0
 62
     0
 10
59.7697
 20
117.635
 30
0.0
 11
59.7697
 21
111.835
 31
0.0
  0
LINE
  8
0
 62
     0
 10
59.7697
 20
111.835
 30
0.0
 11
58.9689
 21
111.835
 31
0.0
  0
LINE
  8
0
 62
     0
 10
58.9689
 20
111.835
 30
0.0
 11
58.9689
 21
108.736
 31
0.0
  0
LINE
  8
0
 62
     0
 10
58.9689
 20
108.736
 30
0.0
 11
59.7697
 21
108.736
 31
0.0
  0
LINE
  8
0
 62
     0
 10
59.7697
 20
108.736
 30
0.0
 11
59.7697
 21
107.735
 31
0.0
  0
LINE
  8
0
 62
     0
 10
59.7697
 20
107.735
 30
0.0
 11
73.769
 21
107.735
 31
0.0
  0
LINE
  8
0
 62
     0
 10
73.769
 20
107.735
 30
0.0
 11
73.769
 21
108.736
 31
0.0
  0
LINE
  8
0
 62
     0
 10
73.769
 20
108.736
 30
0.0
 11
74.5698
 21
108.736
 31
0.0
  0
LINE
  8
0
 62
     0
 10
74.5698
 20
108.736
 30
0.0
 11
74.5698
 21
111.835
 31
0.0
  0
LINE
  8
0
 62
     0
 10
74.5698
 20
111.835
 30
0.0
 11
73.769
 21
111.835
 31
0.0
  0
LINE
  8
0
 62
     0
 10
73.769
 20
111.835
 30
0.0
 11
73.769
 21
117.635
 31
0.0
  0
LINE
  8
0
 62
     0
 10
73.769
 20
117.635
 30
0.0
 11
74.5698
 21
117.635
 31
0.0
  0
LINE
  8
0
 62
     0
 10
74.5698
 20
117.635
 30
0.0
 11
74.5698
 21
120.735
 31
0.0
  0
LINE
  8
0
 62
     0
 10
74.5698
 20
120.735
 30
0.0
 11
73.769
 21
120.735
 31
0.0
  0
LINE
  8
0
 62
     0
 10
73.769
 20
120.735
 30
0.0
 11
73.769
 21
121.734
 31
0.0
  0
LINE
  8
0
 62
     0
 10
73.769
 20
121.734
 30
0.0
 11
59.7697
 21
121.734
 31
0.0
  0
LINE
  8
0
 62
     0
 10
78.8197
 20
121.734
 30
0.0
 11
78.8197
 21
120.735
 31
0.0
  0
LINE
  8
0
 62
     0
 10
78.8197
 20
120.735
 30
0.0
 11
78.0189
 21
120.735
 31
0.0
  0
LINE
  8
0
 62
     0
 10
78.0189
 20
120.735
 30
0.0
 11
78.0189
 21
117.635
 31
0.0
  0
LINE
  8
0
 62
     0
 10
78.0189
 20
117.635
 30
0.0
 11
78.8197
 21
117.635
 31
0.0
  0
LINE
  8
0
 62
     0
 10
78.8197
 20
117.635
 30
0.0
 11
78.8197
 21
111.835
 31
0.0
  0
LINE
  8
0
 62
     0
 10
78.8197
 20
111.835
 30
0.0
 11
78.0189
 21
111.835
 31
0.0
  0
LINE
  8
0
 62
     0
 10
78.0189
 20
111.835
 30
0.0
 11
78.0189
 21
108.736
 31
0.0
  0
LINE
  8
0
 62
     0
 10
78.0189
 20
108.736
 30
0.0
 11
78.8197
 21
108.736
 31
0.0
  0
LINE
  8
0
 62
     0
 10
78.8197
 20
108.736
 30
0.0
 11
78.8197
 21
107.735
 31
0.0
  0
LINE
  8
0
 62
     0
 10
78.8197
 20
107.735
 30
0.0
 11
92.819
 21
107.735
 31
0.0
  0
LINE
  8
0
 62
     0
 10
92.819
 20
107.735
 30
0.0
 11
92.819
 21
108.736
 31
0.0
  0
LINE
  8
0
 62
     0
 10
92.819
 20
108.736
 30
0.0
 11
93.6184
 21
108.736
 31
0.0
  0
LINE
  8
0
 62
     0
 10
93.6184
 20
108.736
 30
0.0
 11
93.6184
 21
111.835
 31
0.0
  0
LINE
  8
0
 62
     0
 10
93.6184
 20
111.835
 30
0.0
 11
92.819
 21
111.835
 31
0.0
  0
LINE
  8
0
 62
     0
 10
92.819
 20
111.835
 30
0.0
 11
92.819
 21
117.635
 31
0.0
  0
LINE
  8
0
 62
     0
 10
92.819
 20
117.635
 30
0.0
 11
93.6184
 21
117.635
 31
0.0
  0
LINE
  8
0
 62
     0
 10
93.6184
 20
117.635
 30
0.0
 11
93.6184
 21
120.735
 31
0.0
  0
LINE
  8
0
 62
     0
 10
93.6184
 20
120.735
 30
0.0
 11
92.819
 21
120.735
 31
0.0
  0
LINE
  8
0
 62
     0
 10
92.819
 20
120.735
 30
0.0
 11
92.819
 21
121.734
 31
0.0
  0
LINE
  8
0
 62
     0
 10
92.819
 20
121.734
 30
0.0
 11
78.8197
 21
121.734
 31
0.0
  0
LINE
  8
0
 62
     0
 10
97.8683
 20
121.734
 30
0.0
 11
97.8683
 21
120.735
 31
0.0
  0
LINE
  8
0
 62
     0
 10
97.8683
 20
120.735
 30
0.0
 11
97.0689
 21
120.735
 31
0.0
  0
LINE
  8
0
 62
     0
 10
97.0689
 20
120.735
 30
0.0
 11
97.0689
 21
117.635
 31
0.0
  0
LINE
  8
0
 62
     0
 10
97.0689
 20
117.635
 30
0.0
 11
97.8683
 21
117.635
 31
0.0
  0
LINE
  8
0
 62
     0
 10
97.8683
 20
117.635
 30
0.0
 11
97.8683
 21
111.835
 31
0.0
  0
LINE
  8
0
 62
     0
 10
97.8683
 20
111.835
 30
0.0
 11
97.0689
 21
111.835
 31
0.0
  0
LINE
  8
0
 62
     0
 10
97.0689
 20
111.835
 30
0.0
 11
97.0689
 21
108.736
 31
0.0
  0
LINE
  8
0
 62
     0
 10
97.0689
 20
108.736
 30
0.0
 11
97.8683
 21
108.736
 31
0.0
  0
LINE
  8
0
 62
     0
 10
97.8683
 20
108.736
 30
0.0
 11
97.8683
 21
107.735
 31
0.0
  0
LINE
  8
0
 62
     0
 10
97.8683
 20
107.735
 30
0.0
 11
111.869
 21
107.735
 31
0.0
  0
LINE
  8
0
 62
     0
 10
111.869
 20
107.735
 30
0.0
 11
111.869
 21
108.736
 31
0.0
  0
LINE
  8
0
 62
     0
 10
111.869
 20
108.736
 30
0.0
 11
112.668
 21
108.736
 31
0.0
  0
LINE
  8
0
 62
     0
 10
112.668
 20
108.736
 30
0.0
 11
112.668
 21
111.835
 31
0.0
  0
LINE
  8
0
 62
     0
 10
112.668
 20
111.835
 30
0.0
 11
111.869
 21
111.835
 31
0.0
  0
LINE
  8
0
 62
     0
 10
111.869
 20
111.835
 30
0.0
 11
111.869
 21
117.635
 31
0.0
  0
LINE
  8
0
 62
     0
 10
111.869
 20
117.635
 30
0.0
 11
112.668
 21
117.635
 31
0.0
  0
LINE
  8
0
 62
     0
 10
112.668
 20
117.635
 30
0.0
 11
112.668
 21
120.735
 31
0.0
  0
LINE
  8
0
 62
     0
 10
112.668
 20
120.735
 30
0.0
 11
111.869
 21
120.735
 31
0.0
  0
LINE
  8
0
 62
     0
 10
111.869
 20
120.735
 30
0.0
 11
111.869
 21
121.734
 31
0.0
  0
LINE
  8
0
 62
     0
 10
111.869
 20
121.734
 30
0.0
 11
97.8683
 21
121.734
 31
0.0
  0
LINE
  8
0
 62
     0
 10
116.918
 20
121.734
 30
0.0
 11
116.918
 21
120.735
 31
0.0
  0
LINE
  8
0
 62
     0
 10
116.918
 20
120.735
 30
0.0
 11
116.119
 21
120.735
 31
0.0
  0
LINE
  8
0
 62
     0
 10
116.119
 20
120.735
 30
0.0
 11
116.119
 21
117.635
 31
0.0
  0
LINE
  8
0
 62
     0
 10
116.119
 20
117.635
 30
0.0
 11
116.918
 21
117.635
 31
0.0
  0
LINE
  8
0
 62
     0
 10
116.918
 20
117.635
 30
0.0
 11
116.918
 21
111.835
 31
0.0
  0
LINE
  8
0
 62
     0
 10
116.918
 20
111.835
 30
0.0
 11
116.119
 21
111.835
 31
0.0
  0
LINE
  8
0
 62
     0
 10
116.119
 20
111.835
 30
0.0
 11
116.119
 21
108.736
 31
0.0
  0
LINE
  8
0
 62
     0
 10
116.119
 20
108.736
 30
0.0
 11
116.918
 21
108.736
 31
0.0
  0
LINE
  8
0
 62
     0
 10
116.918
 20
108.736
 30
0.0
 11
116.918
 21
107.735
 31
0.0
  0
LINE
  8
0
 62
     0
 10
116.918
 20
107.735
 30
0.0
 11
130.919
 21
107.735
 31
0.0
  0
LINE
  8
0
 62
     0
 10
130.919
 20
107.735
 30
0.0
 11
130.919
 21
108.736
 31
0.0
  0
LINE
  8
0
 62
     0
 10
130.919
 20
108.736
 30
0.0
 11
131.72
 21
108.736
 31
0.0
  0
LINE
  8
0
 62
     0
 10
131.72
 20
108.736
 30
0.0
 11
131.72
 21
111.835
 31
0.0
  0
LINE
  8
0
 62
     0
 10
131.72
 20
111.835
 30
0.0
 11
130.919
 21
111.835
 31
0.0
  0
LINE
  8
0
 62
     0
 10
130.919
 20
111.835
 30
0.0
 11
130.919
 21
117.635
 31
0.0
  0
LINE
  8
0
 62
     0
 10
130.919
 20
117.635
 30
0.0
 11
131.72
 21
117.635
 31
0.0
  0
LINE
  8
0
 62
     0
 10
131.72
 20
117.635
 30
0.0
 11
131.72
 21
120.735
 31
0.0
  0
LINE
  8
0
 62
     0
 10
131.72
 20
120.735
 30
0.0
 11
130.919
 21
120.735
 31
0.0
  0
LINE
  8
0
 62
     0
 10
130.919
 20
120.735
 30
0.0
 11
130.919
 21
121.734
 31
0.0
  0
LINE
  8
0
 62
     0
 10
130.919
 20
121.734
 30
0.0
 11
116.918
 21
121.734
 31
0.0
  0
LINE
  8
0
 62
     0
 10
2.61965
 20
145.547
 30
0.0
 11
2.61965
 21
144.546
 31
0.0
  0
LINE
  8
0
 62
     0
 10
2.61965
 20
144.546
 30
0.0
 11
1.81901
 21
144.546
 31
0.0
  0
LINE
  8
0
 62
     0
 10
1.81901
 20
144.546
 30
0.0
 11
1.81901
 21
141.447
 31
0.0
  0
LINE
  8
0
 62
     0
 10
1.81901
 20
141.447
 30
0.0
 11
2.61965
 21
141.447
 31
0.0
  0
LINE
  8
0
 62
     0
 10
2.61965
 20
141.447
 30
0.0
 11
2.61965
 21
135.647
 31
0.0
  0
LINE
  8
0
 62
     0
 10
2.61965
 20
135.647
 30
0.0
 11
1.81901
 21
135.647
 31
0.0
  0
LINE
  8
0
 62
     0
 10
1.81901
 20
135.647
 30
0.0
 11
1.81901
 21
132.547
 31
0.0
  0
LINE
  8
0
 62
     0
 10
1.81901
 20
132.547
 30
0.0
 11
2.61965
 21
132.547
 31
0.0
  0
LINE
  8
0
 62
     0
 10
2.61965
 20
132.547
 30
0.0
 11
2.61965
 21
131.548
 31
0.0
  0
LINE
  8
0
 62
     0
 10
2.61965
 20
131.548
 30
0.0
 11
16.6192
 21
131.548
 31
0.0
  0
LINE
  8
0
 62
     0
 10
16.6192
 20
131.548
 30
0.0
 11
16.6192
 21
132.547
 31
0.0
  0
LINE
  8
0
 62
     0
 10
16.6192
 20
132.547
 30
0.0
 11
17.4198
 21
132.547
 31
0.0
  0
LINE
  8
0
 62
     0
 10
17.4198
 20
132.547
 30
0.0
 11
17.4198
 21
135.647
 31
0.0
  0
LINE
  8
0
 62
     0
 10
17.4198
 20
135.647
 30
0.0
 11
16.6192
 21
135.647
 31
0.0
  0
LINE
  8
0
 62
     0
 10
16.6192
 20
135.647
 30
0.0
 11
16.6192
 21
141.447
 31
0.0
  0
LINE
  8
0
 62
     0
 10
16.6192
 20
141.447
 30
0.0
 11
17.4198
 21
141.447
 31
0.0
  0
LINE
  8
0
 62
     0
 10
17.4198
 20
141.447
 30
0.0
 11
17.4198
 21
144.546
 31
0.0
  0
LINE
  8
0
 62
     0
 10
17.4198
 20
144.546
 30
0.0
 11
16.6192
 21
144.546
 31
0.0
  0
LINE
  8
0
 62
     0
 10
16.6192
 20
144.546
 30
0.0
 11
16.6192
 21
145.547
 31
0.0
  0
LINE
  8
0
 62
     0
 10
16.6192
 20
145.547
 30
0.0
 11
2.61965
 21
145.547
 31
0.0
  0
LINE
  8
0
 62
     0
 10
40.7197
 20
145.547
 30
0.0
 11
40.7197
 21
144.546
 31
0.0
  0
LINE
  8
0
 62
     0
 10
40.7197
 20
144.546
 30
0.0
 11
39.9189
 21
144.546
 31
0.0
  0
LINE
  8
0
 62
     0
 10
39.9189
 20
144.546
 30
0.0
 11
39.9189
 21
141.447
 31
0.0
  0
LINE
  8
0
 62
     0
 10
39.9189
 20
141.447
 30
0.0
 11
40.7197
 21
141.447
 31
0.0
  0
LINE
  8
0
 62
     0
 10
40.7197
 20
141.447
 30
0.0
 11
40.7197
 21
135.647
 31
0.0
  0
LINE
  8
0
 62
     0
 10
40.7197
 20
135.647
 30
0.0
 11
39.9189
 21
135.647
 31
0.0
  0
LINE
  8
0
 62
     0
 10
39.9189
 20
135.647
 30
0.0
 11
39.9189
 21
132.547
 31
0.0
  0
LINE
  8
0
 62
     0
 10
39.9189
 20
132.547
 30
0.0
 11
40.7197
 21
132.547
 31
0.0
  0
LINE
  8
0
 62
     0
 10
40.7197
 20
132.547
 30
0.0
 11
40.7197
 21
131.548
 31
0.0
  0
LINE
  8
0
 62
     0
 10
40.7197
 20
131.548
 30
0.0
 11
54.719
 21
131.548
 31
0.0
  0
LINE
  8
0
 62
     0
 10
54.719
 20
131.548
 30
0.0
 11
54.719
 21
132.547
 31
0.0
  0
LINE
  8
0
 62
     0
 10
54.719
 20
132.547
 30
0.0
 11
55.5198
 21
132.547
 31
0.0
  0
LINE
  8
0
 62
     0
 10
55.5198
 20
132.547
 30
0.0
 11
55.5198
 21
135.647
 31
0.0
  0
LINE
  8
0
 62
     0
 10
55.5198
 20
135.647
 30
0.0
 11
54.719
 21
135.647
 31
0.0
  0
LINE
  8
0
 62
     0
 10
54.719
 20
135.647
 30
0.0
 11
54.719
 21
141.447
 31
0.0
  0
LINE
  8
0
 62
     0
 10
54.719
 20
141.447
 30
0.0
 11
55.5198
 21
141.447
 31
0.0
  0
LINE
  8
0
 62
     0
 10
55.5198
 20
141.447
 30
0.0
 11
55.5198
 21
144.546
 31
0.0
  0
LINE
  8
0
 62
     0
 10
55.5198
 20
144.546
 30
0.0
 11
54.719
 21
144.546
 31
0.0
  0
LINE
  8
0
 62
     0
 10
54.719
 20
144.546
 30
0.0
 11
54.719
 21
145.547
 31
0.0
  0
LINE
  8
0
 62
     0
 10
54.719
 20
145.547
 30
0.0
 11
40.7197
 21
145.547
 31
0.0
  0
LINE
  8
0
 62
     0
 10
59.7697
 20
145.547
 30
0.0
 11
59.7697
 21
144.546
 31
0.0
  0
LINE
  8
0
 62
     0
 10
59.7697
 20
144.546
 30
0.0
 11
58.9689
 21
144.546
 31
0.0
  0
LINE
  8
0
 62
     0
 10
58.9689
 20
144.546
 30
0.0
 11
58.9689
 21
141.447
 31
0.0
  0
LINE
  8
0
 62
     0
 10
58.9689
 20
141.447
 30
0.0
 11
59.7697
 21
141.447
 31
0.0
  0
LINE
  8
0
 62
     0
 10
59.7697
 20
141.447
 30
0.0
 11
59.7697
 21
135.647
 31
0.0
  0
LINE
  8
0
 62
     0
 10
59.7697
 20
135.647
 30
0.0
 11
58.9689
 21
135.647
 31
0.0
  0
LINE
  8
0
 62
     0
 10
58.9689
 20
135.647
 30
0.0
 11
58.9689
 21
132.547
 31
0.0
  0
LINE
  8
0
 62
     0
 10
58.9689
 20
132.547
 30
0.0
 11
59.7697
 21
132.547
 31
0.0
  0
LINE
  8
0
 62
     0
 10
59.7697
 20
132.547
 30
0.0
 11
59.7697
 21
131.548
 31
0.0
  0
LINE
  8
0
 62
     0
 10
59.7697
 20
131.548
 30
0.0
 11
73.769
 21
131.548
 31
0.0
  0
LINE
  8
0
 62
     0
 10
73.769
 20
131.548
 30
0.0
 11
73.769
 21
132.547
 31
0.0
  0
LINE
  8
0
 62
     0
 10
73.769
 20
132.547
 30
0.0
 11
74.5698
 21
132.547
 31
0.0
  0
LINE
  8
0
 62
     0
 10
74.5698
 20
132.547
 30
0.0
 11
74.5698
 21
135.647
 31
0.0
  0
LINE
  8
0
 62
     0
 10
74.5698
 20
135.647
 30
0.0
 11
73.769
 21
135.647
 31
0.0
  0
LINE
  8
0
 62
     0
 10
73.769
 20
135.647
 30
0.0
 11
73.769
 21
141.447
 31
0.0
  0
LINE
  8
0
 62
     0
 10
73.769
 20
141.447
 30
0.0
 11
74.5698
 21
141.447
 31
0.0
  0
LINE
  8
0
 62
     0
 10
74.5698
 20
141.447
 30
0.0
 11
74.5698
 21
144.546
 31
0.0
  0
LINE
  8
0
 62
     0
 10
74.5698
 20
144.546
 30
0.0
 11
73.769
 21
144.546
 31
0.0
  0
LINE
  8
0
 62
     0
 10
73.769
 20
144.546
 30
0.0
 11
73.769
 21
145.547
 31
0.0
  0
LINE
  8
0
 62
     0
 10
73.769
 20
145.547
 30
0.0
 11
59.7697
 21
145.547
 31
0.0
  0
LINE
  8
0
 62
     0
 10
78.8197
 20
145.547
 30
0.0
 11
78.8197
 21
144.546
 31
0.0
  0
LINE
  8
0
 62
     0
 10
78.8197
 20
144.546
 30
0.0
 11
78.0189
 21
144.546
 31
0.0
  0
LINE
  8
0
 62
     0
 10
78.0189
 20
144.546
 30
0.0
 11
78.0189
 21
141.447
 31
0.0
  0
LINE
  8
0
 62
     0
 10
78.0189
 20
141.447
 30
0.0
 11
78.8197
 21
141.447
 31
0.0
  0
LINE
  8
0
 62
     0
 10
78.8197
 20
141.447
 30
0.0
 11
78.8197
 21
135.647
 31
0.0
  0
LINE
  8
0
 62
     0
 10
78.8197
 20
135.647
 30
0.0
 11
78.0189
 21
135.647
 31
0.0
  0
LINE
  8
0
 62
     0
 10
78.0189
 20
135.647
 30
0.0
 11
78.0189
 21
132.547
 31
0.0
  0
LINE
  8
0
 62
     0
 10
78.0189
 20
132.547
 30
0.0
 11
78.8197
 21
132.547
 31
0.0
  0
LINE
  8
0
 62
     0
 10
78.8197
 20
132.547
 30
0.0
 11
78.8197
 21
131.548
 31
0.0
  0
LINE
  8
0
 62
     0
 10
78.8197
 20
131.548
 30
0.0
 11
92.819
 21
131.548
 31
0.0
  0
LINE
  8
0
 62
     0
 10
92.819
 20
131.548
 30
0.0
 11
92.819
 21
132.547
 31
0.0
  0
LINE
  8
0
 62
     0
 10
92.819
 20
132.547
 30
0.0
 11
93.6184
 21
132.547
 31
0.0
  0
LINE
  8
0
 62
     0
 10
93.6184
 20
132.547
 30
0.0
 11
93.6184
 21
135.647
 31
0.0
  0
LINE
  8
0
 62
     0
 10
93.6184
 20
135.647
 30
0.0
 11
92.819
 21
135.647
 31
0.0
  0
LINE
  8
0
 62
     0
 10
92.819
 20
135.647
 30
0.0
 11
92.819
 21
141.447
 31
0.0
  0
LINE
  8
0
 62
     0
 10
92.819
 20
141.447
 30
0.0
 11
93.6184
 21
141.447
 31
0.0
  0
LINE
  8
0
 62
     0
 10
93.6184
 20
141.447
 30
0.0
 11
93.6184
 21
144.546
 31
0.0
  0
LINE
  8
0
 62
     0
 10
93.6184
 20
144.546
 30
0.0
 11
92.819
 21
144.546
 31
0.0
  0
LINE
  8
0
 62
     0
 10
92.819
 20
144.546
 30
0.0
 11
92.819
 21
145.547
 31
0.0
  0
LINE
  8
0
 62
     0
 10
92.819
 20
145.547
 30
0.0
 11
78.8197
 21
145.547
 31
0.0
  0
LINE
  8
0
 62
     0
 10
97.8683
 20
145.547
 30
0.0
 11
97.8683
 21
144.546
 31
0.0
  0
LINE
  8
0
 62
     0
 10
97.8683
 20
144.546
 30
0.0
 11
97.0689
 21
144.546
 31
0.0
  0
LINE
  8
0
 62
     0
 10
97.0689
 20
144.546
 30
0.0
 11
97.0689
 21
141.447
 31
0.0
  0
LINE
  8
0
 62
     0
 10
97.0689
 20
141.447
 30
0.0
 11
97.8683
 21
141.447
 31
0.0
  0
LINE
  8
0
 62
     0
 10
97.8683
 20
141.447
 30
0.0
 11
97.8683
 21
135.647
 31
0.0
  0
LINE
  8
0
 62
     0
 10
97.8683
 20
135.647
 30
0.0
 11
97.0689
 21
135.647
 31
0.0
  0
LINE
  8
0
 62
     0
 10
97.0689
 20
135.647
 30
0.0
 11
97.0689
 21
132.547
 31
0.0
  0
LINE
  8
0
 62
     0
 10
97.0689
 20
132.547
 30
0.0
 11
97.8683
 21
132.547
 31
0.0
  0
LINE
  8
0
 62
     0
 10
97.8683
 20
132.547
 30
0.0
 11
97.8683
 21
131.548
 31
0.0
  0
LINE
  8
0
 62
     0
 10
97.8683
 20
131.548
 30
0.0
 11
111.869
 21
131.548
 31
0.0
  0
LINE
  8
0
 62
     0
 10
111.869
 20
131.548
 30
0.0
 11
111.869
 21
132.547
 31
0.0
  0
LINE
  8
0
 62
     0
 10
111.869
 20
132.547
 30
0.0
 11
112.668
 21
132.547
 31
0.0
  0
LINE
  8
0
 62
     0
 10
112.668
 20
132.547
 30
0.0
 11
112.668
 21
135.647
 31
0.0
  0
LINE
  8
0
 62
     0
 10
112.668
 20
135.647
 30
0.0
 11
111.869
 21
135.647
 31
0.0
  0
LINE
  8
0
 62
     0
 10
111.869
 20
135.647
 30
0.0
 11
111.869
 21
141.447
 31
0.0
  0
LINE
  8
0
 62
     0
 10
111.869
 20
141.447
 30
0.0
 11
112.668
 21
141.447
 31
0.0
  0
LINE
  8
0
 62
     0
 10
112.668
 20
141.447
 30
0.0
 11
112.668
 21
144.546
 31
0.0
  0
LINE
  8
0
 62
     0
 10
112.668
 20
144.546
 30
0.0
 11
111.869
 21
144.546
 31
0.0
  0
LINE
  8
0
 62
     0
 10
111.869
 20
144.546
 30
0.0
 11
111.869
 21
145.547
 31
0.0
  0
LINE
  8
0
 62
     0
 10
111.869
 20
145.547
 30
0.0
 11
97.8683
 21
145.547
 31
0.0
  0
LINE
  8
0
 62
     0
 10
116.918
 20
145.547
 30
0.0
 11
116.918
 21
144.546
 31
0.0
  0
LINE
  8
0
 62
     0
 10
116.918
 20
144.546
 30
0.0
 11
116.119
 21
144.546
 31
0.0
  0
LINE
  8
0
 62
     0
 10
116.119
 20
144.546
 30
0.0
 11
116.119
 21
141.447
 31
0.0
  0
LINE
  8
0
 62
     0
 10
116.119
 20
141.447
 30
0.0
 11
116.918
 21
141.447
 31
0.0
  0
LINE
  8
0
 62
     0
 10
116.918
 20
141.447
 30
0.0
 11
116.918
 21
135.647
 31
0.0
  0
LINE
  8
0
 62
     0
 10
116.918
 20
135.647
 30
0.0
 11
116.119
 21
135.647
 31
0.0
  0
LINE
  8
0
 62
     0
 10
116.119
 20
135.647
 30
0.0
 11
116.119
 21
132.547
 31
0.0
  0
LINE
  8
0
 62
     0
 10
116.119
 20
132.547
 30
0.0
 11
116.918
 21
132.547
 31
0.0
  0
LINE
  8
0
 62
     0
 10
116.918
 20
132.547
 30
0.0
 11
116.918
 21
131.548
 31
0.0
  0
LINE
  8
0
 62
     0
 10
116.918
 20
131.548
 30
0.0
 11
130.919
 21
131.548
 31
0.0
  0
LINE
  8
0
 62
     0
 10
130.919
 20
131.548
 30
0.0
 11
130.919
 21
132.547
 31
0.0
  0
LINE
  8
0
 62
     0
 10
130.919
 20
132.547
 30
0.0
 11
131.72
 21
132.547
 31
0.0
  0
LINE
  8
0
 62
     0
 10
131.72
 20
132.547
 30
0.0
 11
131.72
 21
135.647
 31
0.0
  0
LINE
  8
0
 62
     0
 10
131.72
 20
135.647
 30
0.0
 11
130.919
 21
135.647
 31
0.0
  0
LINE
  8
0
 62
     0
 10
130.919
 20
135.647
 30
0.0
 11
130.919
 21
141.447
 31
0.0
  0
LINE
  8
0
 62
     0
 10
130.919
 20
141.447
 30
0.0
 11
131.72
 21
141.447
 31
0.0
  0
LINE
  8
0
 62
     0
 10
131.72
 20
141.447
 30
0.0
 11
131.72
 21
144.546
 31
0.0
  0
LINE
  8
0
 62
     0
 10
131.72
 20
144.546
 30
0.0
 11
130.919
 21
144.546
 31
0.0
  0
LINE
  8
0
 62
     0
 10
130.919
 20
144.546
 30
0.0
 11
130.919
 21
145.547
 31
0.0
  0
LINE
  8
0
 62
     0
 10
130.919
 20
145.547
 30
0.0
 11
116.918
 21
145.547
 31
0.0
  0
ENDSEC
  0
EOF
