  0
SECTION
  2
HEADER
  9
$ACADVER
  1
AC1009
  9
$FILLMODE
 70
 0
  9
$SPLFRAME
 70
 1
  9
$EXTMIN
 10
0
 20
0
 30
0.0
  9
$EXTMAX
 10
1058.33
 20
1058.33
 30
0.0
  0
ENDSEC
  0
SECTION
  2
TABLES
  0
TABLE
  2
LAYER
 70
1
  0
LAYER
  2
0
 70
     0
 62
     7
  6
CONTINUOUS
  0
ENDTAB
  0
ENDSEC
  0
SECTION
  2
ENTITIES
  0
LINE
  8
0
 62
     0
 10
0.0950846
 20
147.719
 30
0.0
 11
400.145
 21
147.719
 31
0.0
  0
LINE
  8
0
 62
     0
 10
400.145
 20
147.719
 30
0.0
 11
400.145
 21
0.423058
 31
0.0
  0
LINE
  8
0
 62
     0
 10
400.145
 20
0.423058
 30
0.0
 11
0.0950846
 21
0.423058
 31
0.0
  0
LINE
  8
0
 62
     0
 10
0.0950846
 20
0.423058
 30
0.0
 11
0.0950846
 21
147.719
 31
0.0
  0
LINE
  8
0
 62
     0
 10
199.38
 20
37.2251
 30
0.0
 11
198.968
 21
37.9388
 31
0.0
  0
LINE
  8
0
 62
     0
 10
198.968
 20
37.9388
 30
0.0
 11
196.544
 21
36.54
 31
0.0
  0
LINE
  8
0
 62
     0
 10
196.544
 20
36.54
 30
0.0
 11
196.956
 21
35.8249
 31
0.0
  0
LINE
  8
0
 62
     0
 10
196.956
 20
35.8249
 30
0.0
 11
194.159
 21
34.2098
 31
0.0
  0
LINE
  8
0
 62
     0
 10
194.159
 20
34.2098
 30
0.0
 11
197.534
 21
28.3641
 31
0.0
  0
LINE
  8
0
 62
     0
 10
197.534
 20
28.3641
 30
0.0
 11
200.331
 21
29.9792
 31
0.0
  0
LINE
  8
0
 62
     0
 10
200.331
 20
29.9792
 30
0.0
 11
201.093
 21
28.6591
 31
0.0
  0
LINE
  8
0
 62
     0
 10
201.093
 20
28.6591
 30
0.0
 11
200.574
 21
28.36
 31
0.0
  0
LINE
  8
0
 62
     0
 10
200.574
 20
28.36
 30
0.0
 11
200.174
 21
29.0518
 31
0.0
  0
LINE
  8
0
 62
     0
 10
200.174
 20
29.0518
 30
0.0
 11
197.488
 21
27.5015
 31
0.0
  0
LINE
  8
0
 62
     0
 10
197.488
 20
27.5015
 30
0.0
 11
197.889
 21
26.8097
 31
0.0
  0
LINE
  8
0
 62
     0
 10
197.889
 20
26.8097
 30
0.0
 11
197.022
 21
26.3095
 31
0.0
  0
LINE
  8
0
 62
     0
 10
197.022
 20
26.3095
 30
0.0
 11
204.023
 21
14.1841
 31
0.0
  0
LINE
  8
0
 62
     0
 10
204.023
 20
14.1841
 30
0.0
 11
204.888
 21
14.6844
 31
0.0
  0
LINE
  8
0
 62
     0
 10
204.888
 20
14.6844
 30
0.0
 11
205.289
 21
13.9912
 31
0.0
  0
LINE
  8
0
 62
     0
 10
205.289
 20
13.9912
 30
0.0
 11
207.973
 21
15.5415
 31
0.0
  0
LINE
  8
0
 62
     0
 10
207.973
 20
15.5415
 30
0.0
 11
207.574
 21
16.2347
 31
0.0
  0
LINE
  8
0
 62
     0
 10
207.574
 20
16.2347
 30
0.0
 11
208.093
 21
16.5351
 31
0.0
  0
LINE
  8
0
 62
     0
 10
208.093
 20
16.5351
 30
0.0
 11
208.855
 21
15.2149
 31
0.0
  0
LINE
  8
0
 62
     0
 10
208.855
 20
15.2149
 30
0.0
 11
206.058
 21
13.5999
 31
0.0
  0
LINE
  8
0
 62
     0
 10
206.058
 20
13.5999
 30
0.0
 11
209.433
 21
7.75286
 31
0.0
  0
LINE
  8
0
 62
     0
 10
209.433
 20
7.75286
 30
0.0
 11
212.23
 21
9.36791
 31
0.0
  0
LINE
  8
0
 62
     0
 10
212.23
 20
9.36791
 30
0.0
 11
212.644
 21
8.6541
 31
0.0
  0
LINE
  8
0
 62
     0
 10
212.644
 20
8.6541
 30
0.0
 11
215.069
 21
10.0528
 31
0.0
  0
LINE
  8
0
 62
     0
 10
215.069
 20
10.0528
 30
0.0
 11
214.656
 21
10.768
 31
0.0
  0
LINE
  8
0
 62
     0
 10
214.656
 20
10.768
 30
0.0
 11
220.085
 21
13.903
 31
0.0
  0
LINE
  8
0
 62
     0
 10
220.085
 20
13.903
 30
0.0
 11
219.224
 21
15.3968
 31
0.0
  0
LINE
  8
0
 62
     0
 10
219.224
 20
15.3968
 30
0.0
 11
220.263
 21
15.9977
 31
0.0
  0
LINE
  8
0
 62
     0
 10
220.263
 20
15.9977
 30
0.0
 11
218.612
 21
18.8557
 31
0.0
  0
LINE
  8
0
 62
     0
 10
218.612
 20
18.8557
 30
0.0
 11
217.573
 21
18.2549
 31
0.0
  0
LINE
  8
0
 62
     0
 10
217.573
 20
18.2549
 30
0.0
 11
216.71
 21
19.7501
 31
0.0
  0
LINE
  8
0
 62
     0
 10
216.71
 20
19.7501
 30
0.0
 11
212.839
 21
17.5149
 31
0.0
  0
LINE
  8
0
 62
     0
 10
212.839
 20
17.5149
 30
0.0
 11
212.077
 21
18.835
 31
0.0
  0
LINE
  8
0
 62
     0
 10
212.077
 20
18.835
 30
0.0
 11
212.597
 21
19.1341
 31
0.0
  0
LINE
  8
0
 62
     0
 10
212.597
 20
19.1341
 30
0.0
 11
212.997
 21
18.4409
 31
0.0
  0
LINE
  8
0
 62
     0
 10
212.997
 20
18.4409
 30
0.0
 11
215.681
 21
19.9912
 31
0.0
  0
LINE
  8
0
 62
     0
 10
215.681
 20
19.9912
 30
0.0
 11
215.281
 21
20.6843
 31
0.0
  0
LINE
  8
0
 62
     0
 10
215.281
 20
20.6843
 30
0.0
 11
216.148
 21
21.1846
 31
0.0
  0
LINE
  8
0
 62
     0
 10
216.148
 20
21.1846
 30
0.0
 11
209.147
 21
33.3099
 31
0.0
  0
LINE
  8
0
 62
     0
 10
209.147
 20
33.3099
 30
0.0
 11
208.281
 21
32.8097
 31
0.0
  0
LINE
  8
0
 62
     0
 10
208.281
 20
32.8097
 30
0.0
 11
207.881
 21
33.5015
 31
0.0
  0
LINE
  8
0
 62
     0
 10
207.881
 20
33.5015
 30
0.0
 11
205.197
 21
31.9512
 31
0.0
  0
LINE
  8
0
 62
     0
 10
205.197
 20
31.9512
 30
0.0
 11
205.596
 21
31.2594
 31
0.0
  0
LINE
  8
0
 62
     0
 10
205.596
 20
31.2594
 30
0.0
 11
205.077
 21
30.959
 31
0.0
  0
LINE
  8
0
 62
     0
 10
205.077
 20
30.959
 30
0.0
 11
204.315
 21
32.2792
 31
0.0
  0
LINE
  8
0
 62
     0
 10
204.315
 20
32.2792
 30
0.0
 11
208.186
 21
34.5143
 31
0.0
  0
LINE
  8
0
 62
     0
 10
208.186
 20
34.5143
 30
0.0
 11
207.323
 21
36.008
 31
0.0
  0
LINE
  8
0
 62
     0
 10
207.323
 20
36.008
 30
0.0
 11
208.362
 21
36.6088
 31
0.0
  0
LINE
  8
0
 62
     0
 10
208.362
 20
36.6088
 30
0.0
 11
206.713
 21
39.467
 31
0.0
  0
LINE
  8
0
 62
     0
 10
206.713
 20
39.467
 30
0.0
 11
205.674
 21
38.8662
 31
0.0
  0
LINE
  8
0
 62
     0
 10
205.674
 20
38.8662
 30
0.0
 11
204.811
 21
40.3599
 31
0.0
  0
LINE
  8
0
 62
     0
 10
204.811
 20
40.3599
 30
0.0
 11
199.38
 21
37.2251
 31
0.0
  0
LINE
  8
0
 62
     0
 10
264.557
 20
45.1817
 30
0.0
 11
264.557
 21
44.1826
 31
0.0
  0
LINE
  8
0
 62
     0
 10
264.557
 20
44.1826
 30
0.0
 11
263.756
 21
44.1826
 31
0.0
  0
LINE
  8
0
 62
     0
 10
263.756
 20
44.1826
 30
0.0
 11
263.756
 21
41.082
 31
0.0
  0
LINE
  8
0
 62
     0
 10
263.756
 20
41.082
 30
0.0
 11
264.557
 21
41.082
 31
0.0
  0
LINE
  8
0
 62
     0
 10
264.557
 20
41.082
 30
0.0
 11
264.557
 21
35.282
 31
0.0
  0
LINE
  8
0
 62
     0
 10
264.557
 20
35.282
 30
0.0
 11
263.756
 21
35.282
 31
0.0
  0
LINE
  8
0
 62
     0
 10
263.756
 20
35.282
 30
0.0
 11
263.756
 21
32.1827
 31
0.0
  0
LINE
  8
0
 62
     0
 10
263.756
 20
32.1827
 30
0.0
 11
264.557
 21
32.1827
 31
0.0
  0
LINE
  8
0
 62
     0
 10
264.557
 20
32.1827
 30
0.0
 11
264.557
 21
31.1822
 31
0.0
  0
LINE
  8
0
 62
     0
 10
264.557
 20
31.1822
 30
0.0
 11
278.557
 21
31.1822
 31
0.0
  0
LINE
  8
0
 62
     0
 10
278.557
 20
31.1822
 30
0.0
 11
278.557
 21
32.1827
 31
0.0
  0
LINE
  8
0
 62
     0
 10
278.557
 20
32.1827
 30
0.0
 11
279.356
 21
32.1827
 31
0.0
  0
LINE
  8
0
 62
     0
 10
279.356
 20
32.1827
 30
0.0
 11
279.356
 21
35.282
 31
0.0
  0
LINE
  8
0
 62
     0
 10
279.356
 20
35.282
 30
0.0
 11
278.557
 21
35.282
 31
0.0
  0
LINE
  8
0
 62
     0
 10
278.557
 20
35.282
 30
0.0
 11
278.557
 21
41.082
 31
0.0
  0
LINE
  8
0
 62
     0
 10
278.557
 20
41.082
 30
0.0
 11
279.356
 21
41.082
 31
0.0
  0
LINE
  8
0
 62
     0
 10
279.356
 20
41.082
 30
0.0
 11
279.356
 21
44.1826
 31
0.0
  0
LINE
  8
0
 62
     0
 10
279.356
 20
44.1826
 30
0.0
 11
278.557
 21
44.1826
 31
0.0
  0
LINE
  8
0
 62
     0
 10
278.557
 20
44.1826
 30
0.0
 11
278.557
 21
45.1817
 31
0.0
  0
LINE
  8
0
 62
     0
 10
278.557
 20
45.1817
 30
0.0
 11
264.557
 21
45.1817
 31
0.0
  0
LINE
  8
0
 62
     0
 10
283.607
 20
45.1817
 30
0.0
 11
283.607
 21
44.1826
 31
0.0
  0
LINE
  8
0
 62
     0
 10
283.607
 20
44.1826
 30
0.0
 11
282.806
 21
44.1826
 31
0.0
  0
LINE
  8
0
 62
     0
 10
282.806
 20
44.1826
 30
0.0
 11
282.806
 21
41.082
 31
0.0
  0
LINE
  8
0
 62
     0
 10
282.806
 20
41.082
 30
0.0
 11
283.607
 21
41.082
 31
0.0
  0
LINE
  8
0
 62
     0
 10
283.607
 20
41.082
 30
0.0
 11
283.607
 21
35.282
 31
0.0
  0
LINE
  8
0
 62
     0
 10
283.607
 20
35.282
 30
0.0
 11
282.806
 21
35.282
 31
0.0
  0
LINE
  8
0
 62
     0
 10
282.806
 20
35.282
 30
0.0
 11
282.806
 21
32.1827
 31
0.0
  0
LINE
  8
0
 62
     0
 10
282.806
 20
32.1827
 30
0.0
 11
283.607
 21
32.1827
 31
0.0
  0
LINE
  8
0
 62
     0
 10
283.607
 20
32.1827
 30
0.0
 11
283.607
 21
31.1822
 31
0.0
  0
LINE
  8
0
 62
     0
 10
283.607
 20
31.1822
 30
0.0
 11
297.607
 21
31.1822
 31
0.0
  0
LINE
  8
0
 62
     0
 10
297.607
 20
31.1822
 30
0.0
 11
297.607
 21
32.1827
 31
0.0
  0
LINE
  8
0
 62
     0
 10
297.607
 20
32.1827
 30
0.0
 11
298.406
 21
32.1827
 31
0.0
  0
LINE
  8
0
 62
     0
 10
298.406
 20
32.1827
 30
0.0
 11
298.406
 21
35.282
 31
0.0
  0
LINE
  8
0
 62
     0
 10
298.406
 20
35.282
 30
0.0
 11
297.607
 21
35.282
 31
0.0
  0
LINE
  8
0
 62
     0
 10
297.607
 20
35.282
 30
0.0
 11
297.607
 21
41.082
 31
0.0
  0
LINE
  8
0
 62
     0
 10
297.607
 20
41.082
 30
0.0
 11
298.406
 21
41.082
 31
0.0
  0
LINE
  8
0
 62
     0
 10
298.406
 20
41.082
 30
0.0
 11
298.406
 21
44.1826
 31
0.0
  0
LINE
  8
0
 62
     0
 10
298.406
 20
44.1826
 30
0.0
 11
297.607
 21
44.1826
 31
0.0
  0
LINE
  8
0
 62
     0
 10
297.607
 20
44.1826
 30
0.0
 11
297.607
 21
45.1817
 31
0.0
  0
LINE
  8
0
 62
     0
 10
297.607
 20
45.1817
 30
0.0
 11
283.607
 21
45.1817
 31
0.0
  0
LINE
  8
0
 62
     0
 10
302.657
 20
45.1817
 30
0.0
 11
302.657
 21
44.1826
 31
0.0
  0
LINE
  8
0
 62
     0
 10
302.657
 20
44.1826
 30
0.0
 11
301.856
 21
44.1826
 31
0.0
  0
LINE
  8
0
 62
     0
 10
301.856
 20
44.1826
 30
0.0
 11
301.856
 21
41.082
 31
0.0
  0
LINE
  8
0
 62
     0
 10
301.856
 20
41.082
 30
0.0
 11
302.657
 21
41.082
 31
0.0
  0
LINE
  8
0
 62
     0
 10
302.657
 20
41.082
 30
0.0
 11
302.657
 21
35.282
 31
0.0
  0
LINE
  8
0
 62
     0
 10
302.657
 20
35.282
 30
0.0
 11
301.856
 21
35.282
 31
0.0
  0
LINE
  8
0
 62
     0
 10
301.856
 20
35.282
 30
0.0
 11
301.856
 21
32.1827
 31
0.0
  0
LINE
  8
0
 62
     0
 10
301.856
 20
32.1827
 30
0.0
 11
302.657
 21
32.1827
 31
0.0
  0
LINE
  8
0
 62
     0
 10
302.657
 20
32.1827
 30
0.0
 11
302.657
 21
31.1822
 31
0.0
  0
LINE
  8
0
 62
     0
 10
302.657
 20
31.1822
 30
0.0
 11
316.657
 21
31.1822
 31
0.0
  0
LINE
  8
0
 62
     0
 10
316.657
 20
31.1822
 30
0.0
 11
316.657
 21
32.1827
 31
0.0
  0
LINE
  8
0
 62
     0
 10
316.657
 20
32.1827
 30
0.0
 11
317.456
 21
32.1827
 31
0.0
  0
LINE
  8
0
 62
     0
 10
317.456
 20
32.1827
 30
0.0
 11
317.456
 21
35.282
 31
0.0
  0
LINE
  8
0
 62
     0
 10
317.456
 20
35.282
 30
0.0
 11
316.657
 21
35.282
 31
0.0
  0
LINE
  8
0
 62
     0
 10
316.657
 20
35.282
 30
0.0
 11
316.657
 21
41.082
 31
0.0
  0
LINE
  8
0
 62
     0
 10
316.657
 20
41.082
 30
0.0
 11
317.456
 21
41.082
 31
0.0
  0
LINE
  8
0
 62
     0
 10
317.456
 20
41.082
 30
0.0
 11
317.456
 21
44.1826
 31
0.0
  0
LINE
  8
0
 62
     0
 10
317.456
 20
44.1826
 30
0.0
 11
316.657
 21
44.1826
 31
0.0
  0
LINE
  8
0
 62
     0
 10
316.657
 20
44.1826
 30
0.0
 11
316.657
 21
45.1817
 31
0.0
  0
LINE
  8
0
 62
     0
 10
316.657
 20
45.1817
 30
0.0
 11
302.657
 21
45.1817
 31
0.0
  0
LINE
  8
0
 62
     0
 10
321.707
 20
45.1817
 30
0.0
 11
321.707
 21
44.1826
 31
0.0
  0
LINE
  8
0
 62
     0
 10
321.707
 20
44.1826
 30
0.0
 11
320.906
 21
44.1826
 31
0.0
  0
LINE
  8
0
 62
     0
 10
320.906
 20
44.1826
 30
0.0
 11
320.906
 21
41.082
 31
0.0
  0
LINE
  8
0
 62
     0
 10
320.906
 20
41.082
 30
0.0
 11
321.707
 21
41.082
 31
0.0
  0
LINE
  8
0
 62
     0
 10
321.707
 20
41.082
 30
0.0
 11
321.707
 21
35.282
 31
0.0
  0
LINE
  8
0
 62
     0
 10
321.707
 20
35.282
 30
0.0
 11
320.906
 21
35.282
 31
0.0
  0
LINE
  8
0
 62
     0
 10
320.906
 20
35.282
 30
0.0
 11
320.906
 21
32.1827
 31
0.0
  0
LINE
  8
0
 62
     0
 10
320.906
 20
32.1827
 30
0.0
 11
321.707
 21
32.1827
 31
0.0
  0
LINE
  8
0
 62
     0
 10
321.707
 20
32.1827
 30
0.0
 11
321.707
 21
31.1822
 31
0.0
  0
LINE
  8
0
 62
     0
 10
321.707
 20
31.1822
 30
0.0
 11
335.707
 21
31.1822
 31
0.0
  0
LINE
  8
0
 62
     0
 10
335.707
 20
31.1822
 30
0.0
 11
335.707
 21
32.1827
 31
0.0
  0
LINE
  8
0
 62
     0
 10
335.707
 20
32.1827
 30
0.0
 11
336.506
 21
32.1827
 31
0.0
  0
LINE
  8
0
 62
     0
 10
336.506
 20
32.1827
 30
0.0
 11
336.506
 21
35.282
 31
0.0
  0
LINE
  8
0
 62
     0
 10
336.506
 20
35.282
 30
0.0
 11
335.707
 21
35.282
 31
0.0
  0
LINE
  8
0
 62
     0
 10
335.707
 20
35.282
 30
0.0
 11
335.707
 21
41.082
 31
0.0
  0
LINE
  8
0
 62
     0
 10
335.707
 20
41.082
 30
0.0
 11
336.506
 21
41.082
 31
0.0
  0
LINE
  8
0
 62
     0
 10
336.506
 20
41.082
 30
0.0
 11
336.506
 21
44.1826
 31
0.0
  0
LINE
  8
0
 62
     0
 10
336.506
 20
44.1826
 30
0.0
 11
335.707
 21
44.1826
 31
0.0
  0
LINE
  8
0
 62
     0
 10
335.707
 20
44.1826
 30
0.0
 11
335.707
 21
45.1817
 31
0.0
  0
LINE
  8
0
 62
     0
 10
335.707
 20
45.1817
 30
0.0
 11
321.707
 21
45.1817
 31
0.0
  0
LINE
  8
0
 62
     0
 10
345.52
 20
45.1817
 30
0.0
 11
345.52
 21
44.1826
 31
0.0
  0
LINE
  8
0
 62
     0
 10
345.52
 20
44.1826
 30
0.0
 11
344.719
 21
44.1826
 31
0.0
  0
LINE
  8
0
 62
     0
 10
344.719
 20
44.1826
 30
0.0
 11
344.719
 21
41.082
 31
0.0
  0
LINE
  8
0
 62
     0
 10
344.719
 20
41.082
 30
0.0
 11
345.52
 21
41.082
 31
0.0
  0
LINE
  8
0
 62
     0
 10
345.52
 20
41.082
 30
0.0
 11
345.52
 21
35.282
 31
0.0
  0
LINE
  8
0
 62
     0
 10
345.52
 20
35.282
 30
0.0
 11
344.719
 21
35.282
 31
0.0
  0
LINE
  8
0
 62
     0
 10
344.719
 20
35.282
 30
0.0
 11
344.719
 21
32.1827
 31
0.0
  0
LINE
  8
0
 62
     0
 10
344.719
 20
32.1827
 30
0.0
 11
345.52
 21
32.1827
 31
0.0
  0
LINE
  8
0
 62
     0
 10
345.52
 20
32.1827
 30
0.0
 11
345.52
 21
31.1822
 31
0.0
  0
LINE
  8
0
 62
     0
 10
345.52
 20
31.1822
 30
0.0
 11
359.519
 21
31.1822
 31
0.0
  0
LINE
  8
0
 62
     0
 10
359.519
 20
31.1822
 30
0.0
 11
359.519
 21
32.1827
 31
0.0
  0
LINE
  8
0
 62
     0
 10
359.519
 20
32.1827
 30
0.0
 11
360.32
 21
32.1827
 31
0.0
  0
LINE
  8
0
 62
     0
 10
360.32
 20
32.1827
 30
0.0
 11
360.32
 21
35.282
 31
0.0
  0
LINE
  8
0
 62
     0
 10
360.32
 20
35.282
 30
0.0
 11
359.519
 21
35.282
 31
0.0
  0
LINE
  8
0
 62
     0
 10
359.519
 20
35.282
 30
0.0
 11
359.519
 21
41.082
 31
0.0
  0
LINE
  8
0
 62
     0
 10
359.519
 20
41.082
 30
0.0
 11
360.32
 21
41.082
 31
0.0
  0
LINE
  8
0
 62
     0
 10
360.32
 20
41.082
 30
0.0
 11
360.32
 21
44.1826
 31
0.0
  0
LINE
  8
0
 62
     0
 10
360.32
 20
44.1826
 30
0.0
 11
359.519
 21
44.1826
 31
0.0
  0
LINE
  8
0
 62
     0
 10
359.519
 20
44.1826
 30
0.0
 11
359.519
 21
45.1817
 31
0.0
  0
LINE
  8
0
 62
     0
 10
359.519
 20
45.1817
 30
0.0
 11
345.52
 21
45.1817
 31
0.0
  0
LINE
  8
0
 62
     0
 10
364.571
 20
45.1817
 30
0.0
 11
364.571
 21
44.1826
 31
0.0
  0
LINE
  8
0
 62
     0
 10
364.571
 20
44.1826
 30
0.0
 11
363.77
 21
44.1826
 31
0.0
  0
LINE
  8
0
 62
     0
 10
363.77
 20
44.1826
 30
0.0
 11
363.77
 21
41.082
 31
0.0
  0
LINE
  8
0
 62
     0
 10
363.77
 20
41.082
 30
0.0
 11
364.571
 21
41.082
 31
0.0
  0
LINE
  8
0
 62
     0
 10
364.571
 20
41.082
 30
0.0
 11
364.571
 21
35.282
 31
0.0
  0
LINE
  8
0
 62
     0
 10
364.571
 20
35.282
 30
0.0
 11
363.77
 21
35.282
 31
0.0
  0
LINE
  8
0
 62
     0
 10
363.77
 20
35.282
 30
0.0
 11
363.77
 21
32.1827
 31
0.0
  0
LINE
  8
0
 62
     0
 10
363.77
 20
32.1827
 30
0.0
 11
364.571
 21
32.1827
 31
0.0
  0
LINE
  8
0
 62
     0
 10
364.571
 20
32.1827
 30
0.0
 11
364.571
 21
31.1822
 31
0.0
  0
LINE
  8
0
 62
     0
 10
364.571
 20
31.1822
 30
0.0
 11
378.569
 21
31.1822
 31
0.0
  0
LINE
  8
0
 62
     0
 10
378.569
 20
31.1822
 30
0.0
 11
378.569
 21
32.1827
 31
0.0
  0
LINE
  8
0
 62
     0
 10
378.569
 20
32.1827
 30
0.0
 11
379.37
 21
32.1827
 31
0.0
  0
LINE
  8
0
 62
     0
 10
379.37
 20
32.1827
 30
0.0
 11
379.37
 21
35.282
 31
0.0
  0
LINE
  8
0
 62
     0
 10
379.37
 20
35.282
 30
0.0
 11
378.569
 21
35.282
 31
0.0
  0
LINE
  8
0
 62
     0
 10
378.569
 20
35.282
 30
0.0
 11
378.569
 21
41.082
 31
0.0
  0
LINE
  8
0
 62
     0
 10
378.569
 20
41.082
 30
0.0
 11
379.37
 21
41.082
 31
0.0
  0
LINE
  8
0
 62
     0
 10
379.37
 20
41.082
 30
0.0
 11
379.37
 21
44.1826
 31
0.0
  0
LINE
  8
0
 62
     0
 10
379.37
 20
44.1826
 30
0.0
 11
378.569
 21
44.1826
 31
0.0
  0
LINE
  8
0
 62
     0
 10
378.569
 20
44.1826
 30
0.0
 11
378.569
 21
45.1817
 31
0.0
  0
LINE
  8
0
 62
     0
 10
378.569
 20
45.1817
 30
0.0
 11
364.571
 21
45.1817
 31
0.0
  0
LINE
  8
0
 62
     0
 10
383.621
 20
45.1817
 30
0.0
 11
383.621
 21
44.1826
 31
0.0
  0
LINE
  8
0
 62
     0
 10
383.621
 20
44.1826
 30
0.0
 11
382.82
 21
44.1826
 31
0.0
  0
LINE
  8
0
 62
     0
 10
382.82
 20
44.1826
 30
0.0
 11
382.82
 21
41.082
 31
0.0
  0
LINE
  8
0
 62
     0
 10
382.82
 20
41.082
 30
0.0
 11
383.621
 21
41.082
 31
0.0
  0
LINE
  8
0
 62
     0
 10
383.621
 20
41.082
 30
0.0
 11
383.621
 21
35.282
 31
0.0
  0
LINE
  8
0
 62
     0
 10
383.621
 20
35.282
 30
0.0
 11
382.82
 21
35.282
 31
0.0
  0
LINE
  8
0
 62
     0
 10
382.82
 20
35.282
 30
0.0
 11
382.82
 21
32.1827
 31
0.0
  0
LINE
  8
0
 62
     0
 10
382.82
 20
32.1827
 30
0.0
 11
383.621
 21
32.1827
 31
0.0
  0
LINE
  8
0
 62
     0
 10
383.621
 20
32.1827
 30
0.0
 11
383.621
 21
31.1822
 31
0.0
  0
LINE
  8
0
 62
     0
 10
383.621
 20
31.1822
 30
0.0
 11
397.619
 21
31.1822
 31
0.0
  0
LINE
  8
0
 62
     0
 10
397.619
 20
31.1822
 30
0.0
 11
397.619
 21
32.1827
 31
0.0
  0
LINE
  8
0
 62
     0
 10
397.619
 20
32.1827
 30
0.0
 11
398.42
 21
32.1827
 31
0.0
  0
LINE
  8
0
 62
     0
 10
398.42
 20
32.1827
 30
0.0
 11
398.42
 21
35.282
 31
0.0
  0
LINE
  8
0
 62
     0
 10
398.42
 20
35.282
 30
0.0
 11
397.619
 21
35.282
 31
0.0
  0
LINE
  8
0
 62
     0
 10
397.619
 20
35.282
 30
0.0
 11
397.619
 21
41.082
 31
0.0
  0
LINE
  8
0
 62
     0
 10
397.619
 20
41.082
 30
0.0
 11
398.42
 21
41.082
 31
0.0
  0
LINE
  8
0
 62
     0
 10
398.42
 20
41.082
 30
0.0
 11
398.42
 21
44.1826
 31
0.0
  0
LINE
  8
0
 62
     0
 10
398.42
 20
44.1826
 30
0.0
 11
397.619
 21
44.1826
 31
0.0
  0
LINE
  8
0
 62
     0
 10
397.619
 20
44.1826
 30
0.0
 11
397.619
 21
45.1817
 31
0.0
  0
LINE
  8
0
 62
     0
 10
397.619
 20
45.1817
 30
0.0
 11
383.621
 21
45.1817
 31
0.0
  0
LINE
  8
0
 62
     0
 10
212.17
 20
64.2317
 30
0.0
 11
212.17
 21
63.2326
 31
0.0
  0
LINE
  8
0
 62
     0
 10
212.17
 20
63.2326
 30
0.0
 11
211.369
 21
63.2326
 31
0.0
  0
LINE
  8
0
 62
     0
 10
211.369
 20
63.2326
 30
0.0
 11
211.369
 21
60.132
 31
0.0
  0
LINE
  8
0
 62
     0
 10
211.369
 20
60.132
 30
0.0
 11
212.17
 21
60.132
 31
0.0
  0
LINE
  8
0
 62
     0
 10
212.17
 20
60.132
 30
0.0
 11
212.17
 21
54.332
 31
0.0
  0
LINE
  8
0
 62
     0
 10
212.17
 20
54.332
 30
0.0
 11
211.369
 21
54.332
 31
0.0
  0
LINE
  8
0
 62
     0
 10
211.369
 20
54.332
 30
0.0
 11
211.369
 21
51.2329
 31
0.0
  0
LINE
  8
0
 62
     0
 10
211.369
 20
51.2329
 30
0.0
 11
212.17
 21
51.2329
 31
0.0
  0
LINE
  8
0
 62
     0
 10
212.17
 20
51.2329
 30
0.0
 11
212.17
 21
50.2324
 31
0.0
  0
LINE
  8
0
 62
     0
 10
212.17
 20
50.2324
 30
0.0
 11
226.169
 21
50.2324
 31
0.0
  0
LINE
  8
0
 62
     0
 10
226.169
 20
50.2324
 30
0.0
 11
226.169
 21
51.2329
 31
0.0
  0
LINE
  8
0
 62
     0
 10
226.169
 20
51.2329
 30
0.0
 11
226.97
 21
51.2329
 31
0.0
  0
LINE
  8
0
 62
     0
 10
226.97
 20
51.2329
 30
0.0
 11
226.97
 21
54.332
 31
0.0
  0
LINE
  8
0
 62
     0
 10
226.97
 20
54.332
 30
0.0
 11
226.169
 21
54.332
 31
0.0
  0
LINE
  8
0
 62
     0
 10
226.169
 20
54.332
 30
0.0
 11
226.169
 21
60.132
 31
0.0
  0
LINE
  8
0
 62
     0
 10
226.169
 20
60.132
 30
0.0
 11
226.97
 21
60.132
 31
0.0
  0
LINE
  8
0
 62
     0
 10
226.97
 20
60.132
 30
0.0
 11
226.97
 21
63.2326
 31
0.0
  0
LINE
  8
0
 62
     0
 10
226.97
 20
63.2326
 30
0.0
 11
226.169
 21
63.2326
 31
0.0
  0
LINE
  8
0
 62
     0
 10
226.169
 20
63.2326
 30
0.0
 11
226.169
 21
64.2317
 31
0.0
  0
LINE
  8
0
 62
     0
 10
226.169
 20
64.2317
 30
0.0
 11
212.17
 21
64.2317
 31
0.0
  0
LINE
  8
0
 62
     0
 10
231.22
 20
64.2317
 30
0.0
 11
231.22
 21
63.2326
 31
0.0
  0
LINE
  8
0
 62
     0
 10
231.22
 20
63.2326
 30
0.0
 11
230.419
 21
63.2326
 31
0.0
  0
LINE
  8
0
 62
     0
 10
230.419
 20
63.2326
 30
0.0
 11
230.419
 21
60.132
 31
0.0
  0
LINE
  8
0
 62
     0
 10
230.419
 20
60.132
 30
0.0
 11
231.22
 21
60.132
 31
0.0
  0
LINE
  8
0
 62
     0
 10
231.22
 20
60.132
 30
0.0
 11
231.22
 21
54.332
 31
0.0
  0
LINE
  8
0
 62
     0
 10
231.22
 20
54.332
 30
0.0
 11
230.419
 21
54.332
 31
0.0
  0
LINE
  8
0
 62
     0
 10
230.419
 20
54.332
 30
0.0
 11
230.419
 21
51.2329
 31
0.0
  0
LINE
  8
0
 62
     0
 10
230.419
 20
51.2329
 30
0.0
 11
231.22
 21
51.2329
 31
0.0
  0
LINE
  8
0
 62
     0
 10
231.22
 20
51.2329
 30
0.0
 11
231.22
 21
50.2324
 31
0.0
  0
LINE
  8
0
 62
     0
 10
231.22
 20
50.2324
 30
0.0
 11
245.219
 21
50.2324
 31
0.0
  0
LINE
  8
0
 62
     0
 10
245.219
 20
50.2324
 30
0.0
 11
245.219
 21
51.2329
 31
0.0
  0
LINE
  8
0
 62
     0
 10
245.219
 20
51.2329
 30
0.0
 11
246.02
 21
51.2329
 31
0.0
  0
LINE
  8
0
 62
     0
 10
246.02
 20
51.2329
 30
0.0
 11
246.02
 21
54.332
 31
0.0
  0
LINE
  8
0
 62
     0
 10
246.02
 20
54.332
 30
0.0
 11
245.219
 21
54.332
 31
0.0
  0
LINE
  8
0
 62
     0
 10
245.219
 20
54.332
 30
0.0
 11
245.219
 21
60.132
 31
0.0
  0
LINE
  8
0
 62
     0
 10
245.219
 20
60.132
 30
0.0
 11
246.02
 21
60.132
 31
0.0
  0
LINE
  8
0
 62
     0
 10
246.02
 20
60.132
 30
0.0
 11
246.02
 21
63.2326
 31
0.0
  0
LINE
  8
0
 62
     0
 10
246.02
 20
63.2326
 30
0.0
 11
245.219
 21
63.2326
 31
0.0
  0
LINE
  8
0
 62
     0
 10
245.219
 20
63.2326
 30
0.0
 11
245.219
 21
64.2317
 31
0.0
  0
LINE
  8
0
 62
     0
 10
245.219
 20
64.2317
 30
0.0
 11
231.22
 21
64.2317
 31
0.0
  0
LINE
  8
0
 62
     0
 10
250.27
 20
64.2317
 30
0.0
 11
250.27
 21
63.2326
 31
0.0
  0
LINE
  8
0
 62
     0
 10
250.27
 20
63.2326
 30
0.0
 11
249.469
 21
63.2326
 31
0.0
  0
LINE
  8
0
 62
     0
 10
249.469
 20
63.2326
 30
0.0
 11
249.469
 21
60.132
 31
0.0
  0
LINE
  8
0
 62
     0
 10
249.469
 20
60.132
 30
0.0
 11
250.27
 21
60.132
 31
0.0
  0
LINE
  8
0
 62
     0
 10
250.27
 20
60.132
 30
0.0
 11
250.27
 21
54.332
 31
0.0
  0
LINE
  8
0
 62
     0
 10
250.27
 20
54.332
 30
0.0
 11
249.469
 21
54.332
 31
0.0
  0
LINE
  8
0
 62
     0
 10
249.469
 20
54.332
 30
0.0
 11
249.469
 21
51.2329
 31
0.0
  0
LINE
  8
0
 62
     0
 10
249.469
 20
51.2329
 30
0.0
 11
250.27
 21
51.2329
 31
0.0
  0
LINE
  8
0
 62
     0
 10
250.27
 20
51.2329
 30
0.0
 11
250.27
 21
50.2324
 31
0.0
  0
LINE
  8
0
 62
     0
 10
250.27
 20
50.2324
 30
0.0
 11
264.269
 21
50.2324
 31
0.0
  0
LINE
  8
0
 62
     0
 10
264.269
 20
50.2324
 30
0.0
 11
264.269
 21
51.2329
 31
0.0
  0
LINE
  8
0
 62
     0
 10
264.269
 20
51.2329
 30
0.0
 11
265.07
 21
51.2329
 31
0.0
  0
LINE
  8
0
 62
     0
 10
265.07
 20
51.2329
 30
0.0
 11
265.07
 21
54.332
 31
0.0
  0
LINE
  8
0
 62
     0
 10
265.07
 20
54.332
 30
0.0
 11
264.269
 21
54.332
 31
0.0
  0
LINE
  8
0
 62
     0
 10
264.269
 20
54.332
 30
0.0
 11
264.269
 21
60.132
 31
0.0
  0
LINE
  8
0
 62
     0
 10
264.269
 20
60.132
 30
0.0
 11
265.07
 21
60.132
 31
0.0
  0
LINE
  8
0
 62
     0
 10
265.07
 20
60.132
 30
0.0
 11
265.07
 21
63.2326
 31
0.0
  0
LINE
  8
0
 62
     0
 10
265.07
 20
63.2326
 30
0.0
 11
264.269
 21
63.2326
 31
0.0
  0
LINE
  8
0
 62
     0
 10
264.269
 20
63.2326
 30
0.0
 11
264.269
 21
64.2317
 31
0.0
  0
LINE
  8
0
 62
     0
 10
264.269
 20
64.2317
 30
0.0
 11
250.27
 21
64.2317
 31
0.0
  0
LINE
  8
0
 62
     0
 10
269.32
 20
64.2317
 30
0.0
 11
269.32
 21
63.2326
 31
0.0
  0
LINE
  8
0
 62
     0
 10
269.32
 20
63.2326
 30
0.0
 11
268.519
 21
63.2326
 31
0.0
  0
LINE
  8
0
 62
     0
 10
268.519
 20
63.2326
 30
0.0
 11
268.519
 21
60.132
 31
0.0
  0
LINE
  8
0
 62
     0
 10
268.519
 20
60.132
 30
0.0
 11
269.32
 21
60.132
 31
0.0
  0
LINE
  8
0
 62
     0
 10
269.32
 20
60.132
 30
0.0
 11
269.32
 21
54.332
 31
0.0
  0
LINE
  8
0
 62
     0
 10
269.32
 20
54.332
 30
0.0
 11
268.519
 21
54.332
 31
0.0
  0
LINE
  8
0
 62
     0
 10
268.519
 20
54.332
 30
0.0
 11
268.519
 21
51.2329
 31
0.0
  0
LINE
  8
0
 62
     0
 10
268.519
 20
51.2329
 30
0.0
 11
269.32
 21
51.2329
 31
0.0
  0
LINE
  8
0
 62
     0
 10
269.32
 20
51.2329
 30
0.0
 11
269.32
 21
50.2324
 31
0.0
  0
LINE
  8
0
 62
     0
 10
269.32
 20
50.2324
 30
0.0
 11
283.319
 21
50.2324
 31
0.0
  0
LINE
  8
0
 62
     0
 10
283.319
 20
50.2324
 30
0.0
 11
283.319
 21
51.2329
 31
0.0
  0
LINE
  8
0
 62
     0
 10
283.319
 20
51.2329
 30
0.0
 11
284.12
 21
51.2329
 31
0.0
  0
LINE
  8
0
 62
     0
 10
284.12
 20
51.2329
 30
0.0
 11
284.12
 21
54.332
 31
0.0
  0
LINE
  8
0
 62
     0
 10
284.12
 20
54.332
 30
0.0
 11
283.319
 21
54.332
 31
0.0
  0
LINE
  8
0
 62
     0
 10
283.319
 20
54.332
 30
0.0
 11
283.319
 21
60.132
 31
0.0
  0
LINE
  8
0
 62
     0
 10
283.319
 20
60.132
 30
0.0
 11
284.12
 21
60.132
 31
0.0
  0
LINE
  8
0
 62
     0
 10
284.12
 20
60.132
 30
0.0
 11
284.12
 21
63.2326
 31
0.0
  0
LINE
  8
0
 62
     0
 10
284.12
 20
63.2326
 30
0.0
 11
283.319
 21
63.2326
 31
0.0
  0
LINE
  8
0
 62
     0
 10
283.319
 20
63.2326
 30
0.0
 11
283.319
 21
64.2317
 31
0.0
  0
LINE
  8
0
 62
     0
 10
283.319
 20
64.2317
 30
0.0
 11
269.32
 21
64.2317
 31
0.0
  0
LINE
  8
0
 62
     0
 10
288.37
 20
64.2317
 30
0.0
 11
288.37
 21
63.2326
 31
0.0
  0
LINE
  8
0
 62
     0
 10
288.37
 20
63.2326
 30
0.0
 11
287.569
 21
63.2326
 31
0.0
  0
LINE
  8
0
 62
     0
 10
287.569
 20
63.2326
 30
0.0
 11
287.569
 21
60.132
 31
0.0
  0
LINE
  8
0
 62
     0
 10
287.569
 20
60.132
 30
0.0
 11
288.37
 21
60.132
 31
0.0
  0
LINE
  8
0
 62
     0
 10
288.37
 20
60.132
 30
0.0
 11
288.37
 21
54.332
 31
0.0
  0
LINE
  8
0
 62
     0
 10
288.37
 20
54.332
 30
0.0
 11
287.569
 21
54.332
 31
0.0
  0
LINE
  8
0
 62
     0
 10
287.569
 20
54.332
 30
0.0
 11
287.569
 21
51.2329
 31
0.0
  0
LINE
  8
0
 62
     0
 10
287.569
 20
51.2329
 30
0.0
 11
288.37
 21
51.2329
 31
0.0
  0
LINE
  8
0
 62
     0
 10
288.37
 20
51.2329
 30
0.0
 11
288.37
 21
50.2324
 31
0.0
  0
LINE
  8
0
 62
     0
 10
288.37
 20
50.2324
 30
0.0
 11
302.369
 21
50.2324
 31
0.0
  0
LINE
  8
0
 62
     0
 10
302.369
 20
50.2324
 30
0.0
 11
302.369
 21
51.2329
 31
0.0
  0
LINE
  8
0
 62
     0
 10
302.369
 20
51.2329
 30
0.0
 11
303.17
 21
51.2329
 31
0.0
  0
LINE
  8
0
 62
     0
 10
303.17
 20
51.2329
 30
0.0
 11
303.17
 21
54.332
 31
0.0
  0
LINE
  8
0
 62
     0
 10
303.17
 20
54.332
 30
0.0
 11
302.369
 21
54.332
 31
0.0
  0
LINE
  8
0
 62
     0
 10
302.369
 20
54.332
 30
0.0
 11
302.369
 21
60.132
 31
0.0
  0
LINE
  8
0
 62
     0
 10
302.369
 20
60.132
 30
0.0
 11
303.17
 21
60.132
 31
0.0
  0
LINE
  8
0
 62
     0
 10
303.17
 20
60.132
 30
0.0
 11
303.17
 21
63.2326
 31
0.0
  0
LINE
  8
0
 62
     0
 10
303.17
 20
63.2326
 30
0.0
 11
302.369
 21
63.2326
 31
0.0
  0
LINE
  8
0
 62
     0
 10
302.369
 20
63.2326
 30
0.0
 11
302.369
 21
64.2317
 31
0.0
  0
LINE
  8
0
 62
     0
 10
302.369
 20
64.2317
 30
0.0
 11
288.37
 21
64.2317
 31
0.0
  0
LINE
  8
0
 62
     0
 10
307.42
 20
64.2317
 30
0.0
 11
307.42
 21
63.2326
 31
0.0
  0
LINE
  8
0
 62
     0
 10
307.42
 20
63.2326
 30
0.0
 11
306.619
 21
63.2326
 31
0.0
  0
LINE
  8
0
 62
     0
 10
306.619
 20
63.2326
 30
0.0
 11
306.619
 21
60.132
 31
0.0
  0
LINE
  8
0
 62
     0
 10
306.619
 20
60.132
 30
0.0
 11
307.42
 21
60.132
 31
0.0
  0
LINE
  8
0
 62
     0
 10
307.42
 20
60.132
 30
0.0
 11
307.42
 21
54.332
 31
0.0
  0
LINE
  8
0
 62
     0
 10
307.42
 20
54.332
 30
0.0
 11
306.619
 21
54.332
 31
0.0
  0
LINE
  8
0
 62
     0
 10
306.619
 20
54.332
 30
0.0
 11
306.619
 21
51.2329
 31
0.0
  0
LINE
  8
0
 62
     0
 10
306.619
 20
51.2329
 30
0.0
 11
307.42
 21
51.2329
 31
0.0
  0
LINE
  8
0
 62
     0
 10
307.42
 20
51.2329
 30
0.0
 11
307.42
 21
50.2324
 31
0.0
  0
LINE
  8
0
 62
     0
 10
307.42
 20
50.2324
 30
0.0
 11
321.419
 21
50.2324
 31
0.0
  0
LINE
  8
0
 62
     0
 10
321.419
 20
50.2324
 30
0.0
 11
321.419
 21
51.2329
 31
0.0
  0
LINE
  8
0
 62
     0
 10
321.419
 20
51.2329
 30
0.0
 11
322.22
 21
51.2329
 31
0.0
  0
LINE
  8
0
 62
     0
 10
322.22
 20
51.2329
 30
0.0
 11
322.22
 21
54.332
 31
0.0
  0
LINE
  8
0
 62
     0
 10
322.22
 20
54.332
 30
0.0
 11
321.419
 21
54.332
 31
0.0
  0
LINE
  8
0
 62
     0
 10
321.419
 20
54.332
 30
0.0
 11
321.419
 21
60.132
 31
0.0
  0
LINE
  8
0
 62
     0
 10
321.419
 20
60.132
 30
0.0
 11
322.22
 21
60.132
 31
0.0
  0
LINE
  8
0
 62
     0
 10
322.22
 20
60.132
 30
0.0
 11
322.22
 21
63.2326
 31
0.0
  0
LINE
  8
0
 62
     0
 10
322.22
 20
63.2326
 30
0.0
 11
321.419
 21
63.2326
 31
0.0
  0
LINE
  8
0
 62
     0
 10
321.419
 20
63.2326
 30
0.0
 11
321.419
 21
64.2317
 31
0.0
  0
LINE
  8
0
 62
     0
 10
321.419
 20
64.2317
 30
0.0
 11
307.42
 21
64.2317
 31
0.0
  0
LINE
  8
0
 62
     0
 10
333.612
 20
64.2317
 30
0.0
 11
333.612
 21
63.2326
 31
0.0
  0
LINE
  8
0
 62
     0
 10
333.612
 20
63.2326
 30
0.0
 11
332.813
 21
63.2326
 31
0.0
  0
LINE
  8
0
 62
     0
 10
332.813
 20
63.2326
 30
0.0
 11
332.813
 21
60.132
 31
0.0
  0
LINE
  8
0
 62
     0
 10
332.813
 20
60.132
 30
0.0
 11
333.612
 21
60.132
 31
0.0
  0
LINE
  8
0
 62
     0
 10
333.612
 20
60.132
 30
0.0
 11
333.612
 21
54.332
 31
0.0
  0
LINE
  8
0
 62
     0
 10
333.612
 20
54.332
 30
0.0
 11
332.813
 21
54.332
 31
0.0
  0
LINE
  8
0
 62
     0
 10
332.813
 20
54.332
 30
0.0
 11
332.813
 21
51.2329
 31
0.0
  0
LINE
  8
0
 62
     0
 10
332.813
 20
51.2329
 30
0.0
 11
333.612
 21
51.2329
 31
0.0
  0
LINE
  8
0
 62
     0
 10
333.612
 20
51.2329
 30
0.0
 11
333.612
 21
50.2324
 31
0.0
  0
LINE
  8
0
 62
     0
 10
333.612
 20
50.2324
 30
0.0
 11
347.613
 21
50.2324
 31
0.0
  0
LINE
  8
0
 62
     0
 10
347.613
 20
50.2324
 30
0.0
 11
347.613
 21
51.2329
 31
0.0
  0
LINE
  8
0
 62
     0
 10
347.613
 20
51.2329
 30
0.0
 11
348.412
 21
51.2329
 31
0.0
  0
LINE
  8
0
 62
     0
 10
348.412
 20
51.2329
 30
0.0
 11
348.412
 21
54.332
 31
0.0
  0
LINE
  8
0
 62
     0
 10
348.412
 20
54.332
 30
0.0
 11
347.613
 21
54.332
 31
0.0
  0
LINE
  8
0
 62
     0
 10
347.613
 20
54.332
 30
0.0
 11
347.613
 21
60.132
 31
0.0
  0
LINE
  8
0
 62
     0
 10
347.613
 20
60.132
 30
0.0
 11
348.412
 21
60.132
 31
0.0
  0
LINE
  8
0
 62
     0
 10
348.412
 20
60.132
 30
0.0
 11
348.412
 21
63.2326
 31
0.0
  0
LINE
  8
0
 62
     0
 10
348.412
 20
63.2326
 30
0.0
 11
347.613
 21
63.2326
 31
0.0
  0
LINE
  8
0
 62
     0
 10
347.613
 20
63.2326
 30
0.0
 11
347.613
 21
64.2317
 31
0.0
  0
LINE
  8
0
 62
     0
 10
347.613
 20
64.2317
 30
0.0
 11
333.612
 21
64.2317
 31
0.0
  0
LINE
  8
0
 62
     0
 10
364.571
 20
64.2317
 30
0.0
 11
364.571
 21
63.2326
 31
0.0
  0
LINE
  8
0
 62
     0
 10
364.571
 20
63.2326
 30
0.0
 11
363.77
 21
63.2326
 31
0.0
  0
LINE
  8
0
 62
     0
 10
363.77
 20
63.2326
 30
0.0
 11
363.77
 21
60.132
 31
0.0
  0
LINE
  8
0
 62
     0
 10
363.77
 20
60.132
 30
0.0
 11
364.571
 21
60.132
 31
0.0
  0
LINE
  8
0
 62
     0
 10
364.571
 20
60.132
 30
0.0
 11
364.571
 21
54.332
 31
0.0
  0
LINE
  8
0
 62
     0
 10
364.571
 20
54.332
 30
0.0
 11
363.77
 21
54.332
 31
0.0
  0
LINE
  8
0
 62
     0
 10
363.77
 20
54.332
 30
0.0
 11
363.77
 21
51.2329
 31
0.0
  0
LINE
  8
0
 62
     0
 10
363.77
 20
51.2329
 30
0.0
 11
364.571
 21
51.2329
 31
0.0
  0
LINE
  8
0
 62
     0
 10
364.571
 20
51.2329
 30
0.0
 11
364.571
 21
50.2324
 31
0.0
  0
LINE
  8
0
 62
     0
 10
364.571
 20
50.2324
 30
0.0
 11
378.569
 21
50.2324
 31
0.0
  0
LINE
  8
0
 62
     0
 10
378.569
 20
50.2324
 30
0.0
 11
378.569
 21
51.2329
 31
0.0
  0
LINE
  8
0
 62
     0
 10
378.569
 20
51.2329
 30
0.0
 11
379.37
 21
51.2329
 31
0.0
  0
LINE
  8
0
 62
     0
 10
379.37
 20
51.2329
 30
0.0
 11
379.37
 21
54.332
 31
0.0
  0
LINE
  8
0
 62
     0
 10
379.37
 20
54.332
 30
0.0
 11
378.569
 21
54.332
 31
0.0
  0
LINE
  8
0
 62
     0
 10
378.569
 20
54.332
 30
0.0
 11
378.569
 21
60.132
 31
0.0
  0
LINE
  8
0
 62
     0
 10
378.569
 20
60.132
 30
0.0
 11
379.37
 21
60.132
 31
0.0
  0
LINE
  8
0
 62
     0
 10
379.37
 20
60.132
 30
0.0
 11
379.37
 21
63.2326
 31
0.0
  0
LINE
  8
0
 62
     0
 10
379.37
 20
63.2326
 30
0.0
 11
378.569
 21
63.2326
 31
0.0
  0
LINE
  8
0
 62
     0
 10
378.569
 20
63.2326
 30
0.0
 11
378.569
 21
64.2317
 31
0.0
  0
LINE
  8
0
 62
     0
 10
378.569
 20
64.2317
 30
0.0
 11
364.571
 21
64.2317
 31
0.0
  0
LINE
  8
0
 62
     0
 10
347.901
 20
83.2817
 30
0.0
 11
347.901
 21
82.2826
 31
0.0
  0
LINE
  8
0
 62
     0
 10
347.901
 20
82.2826
 30
0.0
 11
347.1
 21
82.2826
 31
0.0
  0
LINE
  8
0
 62
     0
 10
347.1
 20
82.2826
 30
0.0
 11
347.1
 21
79.182
 31
0.0
  0
LINE
  8
0
 62
     0
 10
347.1
 20
79.182
 30
0.0
 11
347.901
 21
79.182
 31
0.0
  0
LINE
  8
0
 62
     0
 10
347.901
 20
79.182
 30
0.0
 11
347.901
 21
78.5827
 31
0.0
  0
LINE
  8
0
 62
     0
 10
347.901
 20
78.5827
 30
0.0
 11
346.376
 21
78.5827
 31
0.0
  0
LINE
  8
0
 62
     0
 10
346.376
 20
78.5827
 30
0.0
 11
346.376
 21
81.8127
 31
0.0
  0
LINE
  8
0
 62
     0
 10
346.376
 20
81.8127
 30
0.0
 11
339.626
 21
81.8127
 31
0.0
  0
LINE
  8
0
 62
     0
 10
339.626
 20
81.8127
 30
0.0
 11
339.626
 21
78.5827
 31
0.0
  0
LINE
  8
0
 62
     0
 10
339.626
 20
78.5827
 30
0.0
 11
338.8
 21
78.5827
 31
0.0
  0
LINE
  8
0
 62
     0
 10
338.8
 20
78.5827
 30
0.0
 11
338.8
 21
75.7823
 31
0.0
  0
LINE
  8
0
 62
     0
 10
338.8
 20
75.7823
 30
0.0
 11
339.626
 21
75.7823
 31
0.0
  0
LINE
  8
0
 62
     0
 10
339.626
 20
75.7823
 30
0.0
 11
339.626
 21
69.5124
 31
0.0
  0
LINE
  8
0
 62
     0
 10
339.626
 20
69.5124
 30
0.0
 11
341.351
 21
69.5124
 31
0.0
  0
LINE
  8
0
 62
     0
 10
341.351
 20
69.5124
 30
0.0
 11
341.351
 21
68.3122
 31
0.0
  0
LINE
  8
0
 62
     0
 10
341.351
 20
68.3122
 30
0.0
 11
344.65
 21
68.3122
 31
0.0
  0
LINE
  8
0
 62
     0
 10
344.65
 20
68.3122
 30
0.0
 11
344.65
 21
69.5124
 31
0.0
  0
LINE
  8
0
 62
     0
 10
344.65
 20
69.5124
 30
0.0
 11
346.376
 21
69.5124
 31
0.0
  0
LINE
  8
0
 62
     0
 10
346.376
 20
69.5124
 30
0.0
 11
346.376
 21
73.9828
 31
0.0
  0
LINE
  8
0
 62
     0
 10
346.376
 20
73.9828
 30
0.0
 11
347.901
 21
73.9828
 31
0.0
  0
LINE
  8
0
 62
     0
 10
347.901
 20
73.9828
 30
0.0
 11
347.901
 21
73.382
 31
0.0
  0
LINE
  8
0
 62
     0
 10
347.901
 20
73.382
 30
0.0
 11
347.1
 21
73.382
 31
0.0
  0
LINE
  8
0
 62
     0
 10
347.1
 20
73.382
 30
0.0
 11
347.1
 21
70.2829
 31
0.0
  0
LINE
  8
0
 62
     0
 10
347.1
 20
70.2829
 30
0.0
 11
347.901
 21
70.2829
 31
0.0
  0
LINE
  8
0
 62
     0
 10
347.901
 20
70.2829
 30
0.0
 11
347.901
 21
69.2824
 31
0.0
  0
LINE
  8
0
 62
     0
 10
347.901
 20
69.2824
 30
0.0
 11
361.901
 21
69.2824
 31
0.0
  0
LINE
  8
0
 62
     0
 10
361.901
 20
69.2824
 30
0.0
 11
361.901
 21
70.2829
 31
0.0
  0
LINE
  8
0
 62
     0
 10
361.901
 20
70.2829
 30
0.0
 11
362.701
 21
70.2829
 31
0.0
  0
LINE
  8
0
 62
     0
 10
362.701
 20
70.2829
 30
0.0
 11
362.701
 21
73.382
 31
0.0
  0
LINE
  8
0
 62
     0
 10
362.701
 20
73.382
 30
0.0
 11
361.901
 21
73.382
 31
0.0
  0
LINE
  8
0
 62
     0
 10
361.901
 20
73.382
 30
0.0
 11
361.901
 21
73.9828
 31
0.0
  0
LINE
  8
0
 62
     0
 10
361.901
 20
73.9828
 30
0.0
 11
363.425
 21
73.9828
 31
0.0
  0
LINE
  8
0
 62
     0
 10
363.425
 20
73.9828
 30
0.0
 11
363.425
 21
69.5124
 31
0.0
  0
LINE
  8
0
 62
     0
 10
363.425
 20
69.5124
 30
0.0
 11
365.15
 21
69.5124
 31
0.0
  0
LINE
  8
0
 62
     0
 10
365.15
 20
69.5124
 30
0.0
 11
365.15
 21
68.3122
 31
0.0
  0
LINE
  8
0
 62
     0
 10
365.15
 20
68.3122
 30
0.0
 11
368.452
 21
68.3122
 31
0.0
  0
LINE
  8
0
 62
     0
 10
368.452
 20
68.3122
 30
0.0
 11
368.452
 21
69.5124
 31
0.0
  0
LINE
  8
0
 62
     0
 10
368.452
 20
69.5124
 30
0.0
 11
370.177
 21
69.5124
 31
0.0
  0
LINE
  8
0
 62
     0
 10
370.177
 20
69.5124
 30
0.0
 11
370.177
 21
75.7823
 31
0.0
  0
LINE
  8
0
 62
     0
 10
370.177
 20
75.7823
 30
0.0
 11
371.002
 21
75.7823
 31
0.0
  0
LINE
  8
0
 62
     0
 10
371.002
 20
75.7823
 30
0.0
 11
371.002
 21
78.5827
 31
0.0
  0
LINE
  8
0
 62
     0
 10
371.002
 20
78.5827
 30
0.0
 11
370.177
 21
78.5827
 31
0.0
  0
LINE
  8
0
 62
     0
 10
370.177
 20
78.5827
 30
0.0
 11
370.177
 21
81.8127
 31
0.0
  0
LINE
  8
0
 62
     0
 10
370.177
 20
81.8127
 30
0.0
 11
363.425
 21
81.8127
 31
0.0
  0
LINE
  8
0
 62
     0
 10
363.425
 20
81.8127
 30
0.0
 11
363.425
 21
78.5827
 31
0.0
  0
LINE
  8
0
 62
     0
 10
363.425
 20
78.5827
 30
0.0
 11
361.901
 21
78.5827
 31
0.0
  0
LINE
  8
0
 62
     0
 10
361.901
 20
78.5827
 30
0.0
 11
361.901
 21
79.182
 31
0.0
  0
LINE
  8
0
 62
     0
 10
361.901
 20
79.182
 30
0.0
 11
362.701
 21
79.182
 31
0.0
  0
LINE
  8
0
 62
     0
 10
362.701
 20
79.182
 30
0.0
 11
362.701
 21
82.2826
 31
0.0
  0
LINE
  8
0
 62
     0
 10
362.701
 20
82.2826
 30
0.0
 11
361.901
 21
82.2826
 31
0.0
  0
LINE
  8
0
 62
     0
 10
361.901
 20
82.2826
 30
0.0
 11
361.901
 21
83.2817
 31
0.0
  0
LINE
  8
0
 62
     0
 10
361.901
 20
83.2817
 30
0.0
 11
347.901
 21
83.2817
 31
0.0
  0
LINE
  8
0
 62
     0
 10
221.695
 20
83.2817
 30
0.0
 11
221.695
 21
82.2826
 31
0.0
  0
LINE
  8
0
 62
     0
 10
221.695
 20
82.2826
 30
0.0
 11
220.894
 21
82.2826
 31
0.0
  0
LINE
  8
0
 62
     0
 10
220.894
 20
82.2826
 30
0.0
 11
220.894
 21
79.182
 31
0.0
  0
LINE
  8
0
 62
     0
 10
220.894
 20
79.182
 30
0.0
 11
221.695
 21
79.182
 31
0.0
  0
LINE
  8
0
 62
     0
 10
221.695
 20
79.182
 30
0.0
 11
221.695
 21
73.382
 31
0.0
  0
LINE
  8
0
 62
     0
 10
221.695
 20
73.382
 30
0.0
 11
220.894
 21
73.382
 31
0.0
  0
LINE
  8
0
 62
     0
 10
220.894
 20
73.382
 30
0.0
 11
220.894
 21
70.2829
 31
0.0
  0
LINE
  8
0
 62
     0
 10
220.894
 20
70.2829
 30
0.0
 11
221.695
 21
70.2829
 31
0.0
  0
LINE
  8
0
 62
     0
 10
221.695
 20
70.2829
 30
0.0
 11
221.695
 21
69.2824
 31
0.0
  0
LINE
  8
0
 62
     0
 10
221.695
 20
69.2824
 30
0.0
 11
235.694
 21
69.2824
 31
0.0
  0
LINE
  8
0
 62
     0
 10
235.694
 20
69.2824
 30
0.0
 11
235.694
 21
70.2829
 31
0.0
  0
LINE
  8
0
 62
     0
 10
235.694
 20
70.2829
 30
0.0
 11
236.495
 21
70.2829
 31
0.0
  0
LINE
  8
0
 62
     0
 10
236.495
 20
70.2829
 30
0.0
 11
236.495
 21
73.382
 31
0.0
  0
LINE
  8
0
 62
     0
 10
236.495
 20
73.382
 30
0.0
 11
235.694
 21
73.382
 31
0.0
  0
LINE
  8
0
 62
     0
 10
235.694
 20
73.382
 30
0.0
 11
235.694
 21
79.182
 31
0.0
  0
LINE
  8
0
 62
     0
 10
235.694
 20
79.182
 30
0.0
 11
236.495
 21
79.182
 31
0.0
  0
LINE
  8
0
 62
     0
 10
236.495
 20
79.182
 30
0.0
 11
236.495
 21
82.2826
 31
0.0
  0
LINE
  8
0
 62
     0
 10
236.495
 20
82.2826
 30
0.0
 11
235.694
 21
82.2826
 31
0.0
  0
LINE
  8
0
 62
     0
 10
235.694
 20
82.2826
 30
0.0
 11
235.694
 21
83.2817
 31
0.0
  0
LINE
  8
0
 62
     0
 10
235.694
 20
83.2817
 30
0.0
 11
221.695
 21
83.2817
 31
0.0
  0
LINE
  8
0
 62
     0
 10
240.745
 20
83.2817
 30
0.0
 11
240.745
 21
82.2826
 31
0.0
  0
LINE
  8
0
 62
     0
 10
240.745
 20
82.2826
 30
0.0
 11
239.944
 21
82.2826
 31
0.0
  0
LINE
  8
0
 62
     0
 10
239.944
 20
82.2826
 30
0.0
 11
239.944
 21
79.182
 31
0.0
  0
LINE
  8
0
 62
     0
 10
239.944
 20
79.182
 30
0.0
 11
240.745
 21
79.182
 31
0.0
  0
LINE
  8
0
 62
     0
 10
240.745
 20
79.182
 30
0.0
 11
240.745
 21
73.382
 31
0.0
  0
LINE
  8
0
 62
     0
 10
240.745
 20
73.382
 30
0.0
 11
239.944
 21
73.382
 31
0.0
  0
LINE
  8
0
 62
     0
 10
239.944
 20
73.382
 30
0.0
 11
239.944
 21
70.2829
 31
0.0
  0
LINE
  8
0
 62
     0
 10
239.944
 20
70.2829
 30
0.0
 11
240.745
 21
70.2829
 31
0.0
  0
LINE
  8
0
 62
     0
 10
240.745
 20
70.2829
 30
0.0
 11
240.745
 21
69.2824
 31
0.0
  0
LINE
  8
0
 62
     0
 10
240.745
 20
69.2824
 30
0.0
 11
254.744
 21
69.2824
 31
0.0
  0
LINE
  8
0
 62
     0
 10
254.744
 20
69.2824
 30
0.0
 11
254.744
 21
70.2829
 31
0.0
  0
LINE
  8
0
 62
     0
 10
254.744
 20
70.2829
 30
0.0
 11
255.545
 21
70.2829
 31
0.0
  0
LINE
  8
0
 62
     0
 10
255.545
 20
70.2829
 30
0.0
 11
255.545
 21
73.382
 31
0.0
  0
LINE
  8
0
 62
     0
 10
255.545
 20
73.382
 30
0.0
 11
254.744
 21
73.382
 31
0.0
  0
LINE
  8
0
 62
     0
 10
254.744
 20
73.382
 30
0.0
 11
254.744
 21
79.182
 31
0.0
  0
LINE
  8
0
 62
     0
 10
254.744
 20
79.182
 30
0.0
 11
255.545
 21
79.182
 31
0.0
  0
LINE
  8
0
 62
     0
 10
255.545
 20
79.182
 30
0.0
 11
255.545
 21
82.2826
 31
0.0
  0
LINE
  8
0
 62
     0
 10
255.545
 20
82.2826
 30
0.0
 11
254.744
 21
82.2826
 31
0.0
  0
LINE
  8
0
 62
     0
 10
254.744
 20
82.2826
 30
0.0
 11
254.744
 21
83.2817
 31
0.0
  0
LINE
  8
0
 62
     0
 10
254.744
 20
83.2817
 30
0.0
 11
240.745
 21
83.2817
 31
0.0
  0
LINE
  8
0
 62
     0
 10
259.795
 20
83.2817
 30
0.0
 11
259.795
 21
82.2826
 31
0.0
  0
LINE
  8
0
 62
     0
 10
259.795
 20
82.2826
 30
0.0
 11
258.994
 21
82.2826
 31
0.0
  0
LINE
  8
0
 62
     0
 10
258.994
 20
82.2826
 30
0.0
 11
258.994
 21
79.182
 31
0.0
  0
LINE
  8
0
 62
     0
 10
258.994
 20
79.182
 30
0.0
 11
259.795
 21
79.182
 31
0.0
  0
LINE
  8
0
 62
     0
 10
259.795
 20
79.182
 30
0.0
 11
259.795
 21
73.382
 31
0.0
  0
LINE
  8
0
 62
     0
 10
259.795
 20
73.382
 30
0.0
 11
258.994
 21
73.382
 31
0.0
  0
LINE
  8
0
 62
     0
 10
258.994
 20
73.382
 30
0.0
 11
258.994
 21
70.2829
 31
0.0
  0
LINE
  8
0
 62
     0
 10
258.994
 20
70.2829
 30
0.0
 11
259.795
 21
70.2829
 31
0.0
  0
LINE
  8
0
 62
     0
 10
259.795
 20
70.2829
 30
0.0
 11
259.795
 21
69.2824
 31
0.0
  0
LINE
  8
0
 62
     0
 10
259.795
 20
69.2824
 30
0.0
 11
273.794
 21
69.2824
 31
0.0
  0
LINE
  8
0
 62
     0
 10
273.794
 20
69.2824
 30
0.0
 11
273.794
 21
70.2829
 31
0.0
  0
LINE
  8
0
 62
     0
 10
273.794
 20
70.2829
 30
0.0
 11
274.595
 21
70.2829
 31
0.0
  0
LINE
  8
0
 62
     0
 10
274.595
 20
70.2829
 30
0.0
 11
274.595
 21
73.382
 31
0.0
  0
LINE
  8
0
 62
     0
 10
274.595
 20
73.382
 30
0.0
 11
273.794
 21
73.382
 31
0.0
  0
LINE
  8
0
 62
     0
 10
273.794
 20
73.382
 30
0.0
 11
273.794
 21
79.182
 31
0.0
  0
LINE
  8
0
 62
     0
 10
273.794
 20
79.182
 30
0.0
 11
274.595
 21
79.182
 31
0.0
  0
LINE
  8
0
 62
     0
 10
274.595
 20
79.182
 30
0.0
 11
274.595
 21
82.2826
 31
0.0
  0
LINE
  8
0
 62
     0
 10
274.595
 20
82.2826
 30
0.0
 11
273.794
 21
82.2826
 31
0.0
  0
LINE
  8
0
 62
     0
 10
273.794
 20
82.2826
 30
0.0
 11
273.794
 21
83.2817
 31
0.0
  0
LINE
  8
0
 62
     0
 10
273.794
 20
83.2817
 30
0.0
 11
259.795
 21
83.2817
 31
0.0
  0
LINE
  8
0
 62
     0
 10
278.845
 20
83.2817
 30
0.0
 11
278.845
 21
82.2826
 31
0.0
  0
LINE
  8
0
 62
     0
 10
278.845
 20
82.2826
 30
0.0
 11
278.044
 21
82.2826
 31
0.0
  0
LINE
  8
0
 62
     0
 10
278.044
 20
82.2826
 30
0.0
 11
278.044
 21
79.182
 31
0.0
  0
LINE
  8
0
 62
     0
 10
278.044
 20
79.182
 30
0.0
 11
278.845
 21
79.182
 31
0.0
  0
LINE
  8
0
 62
     0
 10
278.845
 20
79.182
 30
0.0
 11
278.845
 21
73.382
 31
0.0
  0
LINE
  8
0
 62
     0
 10
278.845
 20
73.382
 30
0.0
 11
278.044
 21
73.382
 31
0.0
  0
LINE
  8
0
 62
     0
 10
278.044
 20
73.382
 30
0.0
 11
278.044
 21
70.2829
 31
0.0
  0
LINE
  8
0
 62
     0
 10
278.044
 20
70.2829
 30
0.0
 11
278.845
 21
70.2829
 31
0.0
  0
LINE
  8
0
 62
     0
 10
278.845
 20
70.2829
 30
0.0
 11
278.845
 21
69.2824
 31
0.0
  0
LINE
  8
0
 62
     0
 10
278.845
 20
69.2824
 30
0.0
 11
292.844
 21
69.2824
 31
0.0
  0
LINE
  8
0
 62
     0
 10
292.844
 20
69.2824
 30
0.0
 11
292.844
 21
70.2829
 31
0.0
  0
LINE
  8
0
 62
     0
 10
292.844
 20
70.2829
 30
0.0
 11
293.645
 21
70.2829
 31
0.0
  0
LINE
  8
0
 62
     0
 10
293.645
 20
70.2829
 30
0.0
 11
293.645
 21
73.382
 31
0.0
  0
LINE
  8
0
 62
     0
 10
293.645
 20
73.382
 30
0.0
 11
292.844
 21
73.382
 31
0.0
  0
LINE
  8
0
 62
     0
 10
292.844
 20
73.382
 30
0.0
 11
292.844
 21
79.182
 31
0.0
  0
LINE
  8
0
 62
     0
 10
292.844
 20
79.182
 30
0.0
 11
293.645
 21
79.182
 31
0.0
  0
LINE
  8
0
 62
     0
 10
293.645
 20
79.182
 30
0.0
 11
293.645
 21
82.2826
 31
0.0
  0
LINE
  8
0
 62
     0
 10
293.645
 20
82.2826
 30
0.0
 11
292.844
 21
82.2826
 31
0.0
  0
LINE
  8
0
 62
     0
 10
292.844
 20
82.2826
 30
0.0
 11
292.844
 21
83.2817
 31
0.0
  0
LINE
  8
0
 62
     0
 10
292.844
 20
83.2817
 30
0.0
 11
278.845
 21
83.2817
 31
0.0
  0
LINE
  8
0
 62
     0
 10
297.895
 20
83.2817
 30
0.0
 11
297.895
 21
82.2826
 31
0.0
  0
LINE
  8
0
 62
     0
 10
297.895
 20
82.2826
 30
0.0
 11
297.094
 21
82.2826
 31
0.0
  0
LINE
  8
0
 62
     0
 10
297.094
 20
82.2826
 30
0.0
 11
297.094
 21
79.182
 31
0.0
  0
LINE
  8
0
 62
     0
 10
297.094
 20
79.182
 30
0.0
 11
297.895
 21
79.182
 31
0.0
  0
LINE
  8
0
 62
     0
 10
297.895
 20
79.182
 30
0.0
 11
297.895
 21
73.382
 31
0.0
  0
LINE
  8
0
 62
     0
 10
297.895
 20
73.382
 30
0.0
 11
297.094
 21
73.382
 31
0.0
  0
LINE
  8
0
 62
     0
 10
297.094
 20
73.382
 30
0.0
 11
297.094
 21
70.2829
 31
0.0
  0
LINE
  8
0
 62
     0
 10
297.094
 20
70.2829
 30
0.0
 11
297.895
 21
70.2829
 31
0.0
  0
LINE
  8
0
 62
     0
 10
297.895
 20
70.2829
 30
0.0
 11
297.895
 21
69.2824
 31
0.0
  0
LINE
  8
0
 62
     0
 10
297.895
 20
69.2824
 30
0.0
 11
311.894
 21
69.2824
 31
0.0
  0
LINE
  8
0
 62
     0
 10
311.894
 20
69.2824
 30
0.0
 11
311.894
 21
70.2829
 31
0.0
  0
LINE
  8
0
 62
     0
 10
311.894
 20
70.2829
 30
0.0
 11
312.695
 21
70.2829
 31
0.0
  0
LINE
  8
0
 62
     0
 10
312.695
 20
70.2829
 30
0.0
 11
312.695
 21
73.382
 31
0.0
  0
LINE
  8
0
 62
     0
 10
312.695
 20
73.382
 30
0.0
 11
311.894
 21
73.382
 31
0.0
  0
LINE
  8
0
 62
     0
 10
311.894
 20
73.382
 30
0.0
 11
311.894
 21
79.182
 31
0.0
  0
LINE
  8
0
 62
     0
 10
311.894
 20
79.182
 30
0.0
 11
312.695
 21
79.182
 31
0.0
  0
LINE
  8
0
 62
     0
 10
312.695
 20
79.182
 30
0.0
 11
312.695
 21
82.2826
 31
0.0
  0
LINE
  8
0
 62
     0
 10
312.695
 20
82.2826
 30
0.0
 11
311.894
 21
82.2826
 31
0.0
  0
LINE
  8
0
 62
     0
 10
311.894
 20
82.2826
 30
0.0
 11
311.894
 21
83.2817
 31
0.0
  0
LINE
  8
0
 62
     0
 10
311.894
 20
83.2817
 30
0.0
 11
297.895
 21
83.2817
 31
0.0
  0
LINE
  8
0
 62
     0
 10
316.945
 20
83.2817
 30
0.0
 11
316.945
 21
82.2826
 31
0.0
  0
LINE
  8
0
 62
     0
 10
316.945
 20
82.2826
 30
0.0
 11
316.144
 21
82.2826
 31
0.0
  0
LINE
  8
0
 62
     0
 10
316.144
 20
82.2826
 30
0.0
 11
316.144
 21
79.182
 31
0.0
  0
LINE
  8
0
 62
     0
 10
316.144
 20
79.182
 30
0.0
 11
316.945
 21
79.182
 31
0.0
  0
LINE
  8
0
 62
     0
 10
316.945
 20
79.182
 30
0.0
 11
316.945
 21
73.382
 31
0.0
  0
LINE
  8
0
 62
     0
 10
316.945
 20
73.382
 30
0.0
 11
316.144
 21
73.382
 31
0.0
  0
LINE
  8
0
 62
     0
 10
316.144
 20
73.382
 30
0.0
 11
316.144
 21
70.2829
 31
0.0
  0
LINE
  8
0
 62
     0
 10
316.144
 20
70.2829
 30
0.0
 11
316.945
 21
70.2829
 31
0.0
  0
LINE
  8
0
 62
     0
 10
316.945
 20
70.2829
 30
0.0
 11
316.945
 21
69.2824
 31
0.0
  0
LINE
  8
0
 62
     0
 10
316.945
 20
69.2824
 30
0.0
 11
330.944
 21
69.2824
 31
0.0
  0
LINE
  8
0
 62
     0
 10
330.944
 20
69.2824
 30
0.0
 11
330.944
 21
70.2829
 31
0.0
  0
LINE
  8
0
 62
     0
 10
330.944
 20
70.2829
 30
0.0
 11
331.745
 21
70.2829
 31
0.0
  0
LINE
  8
0
 62
     0
 10
331.745
 20
70.2829
 30
0.0
 11
331.745
 21
73.382
 31
0.0
  0
LINE
  8
0
 62
     0
 10
331.745
 20
73.382
 30
0.0
 11
330.944
 21
73.382
 31
0.0
  0
LINE
  8
0
 62
     0
 10
330.944
 20
73.382
 30
0.0
 11
330.944
 21
79.182
 31
0.0
  0
LINE
  8
0
 62
     0
 10
330.944
 20
79.182
 30
0.0
 11
331.745
 21
79.182
 31
0.0
  0
LINE
  8
0
 62
     0
 10
331.745
 20
79.182
 30
0.0
 11
331.745
 21
82.2826
 31
0.0
  0
LINE
  8
0
 62
     0
 10
331.745
 20
82.2826
 30
0.0
 11
330.944
 21
82.2826
 31
0.0
  0
LINE
  8
0
 62
     0
 10
330.944
 20
82.2826
 30
0.0
 11
330.944
 21
83.2817
 31
0.0
  0
LINE
  8
0
 62
     0
 10
330.944
 20
83.2817
 30
0.0
 11
316.945
 21
83.2817
 31
0.0
  0
LINE
  8
0
 62
     0
 10
383.621
 20
83.2817
 30
0.0
 11
383.621
 21
82.2826
 31
0.0
  0
LINE
  8
0
 62
     0
 10
383.621
 20
82.2826
 30
0.0
 11
382.82
 21
82.2826
 31
0.0
  0
LINE
  8
0
 62
     0
 10
382.82
 20
82.2826
 30
0.0
 11
382.82
 21
79.182
 31
0.0
  0
LINE
  8
0
 62
     0
 10
382.82
 20
79.182
 30
0.0
 11
383.621
 21
79.182
 31
0.0
  0
LINE
  8
0
 62
     0
 10
383.621
 20
79.182
 30
0.0
 11
383.621
 21
73.382
 31
0.0
  0
LINE
  8
0
 62
     0
 10
383.621
 20
73.382
 30
0.0
 11
382.82
 21
73.382
 31
0.0
  0
LINE
  8
0
 62
     0
 10
382.82
 20
73.382
 30
0.0
 11
382.82
 21
70.2829
 31
0.0
  0
LINE
  8
0
 62
     0
 10
382.82
 20
70.2829
 30
0.0
 11
383.621
 21
70.2829
 31
0.0
  0
LINE
  8
0
 62
     0
 10
383.621
 20
70.2829
 30
0.0
 11
383.621
 21
69.2824
 31
0.0
  0
LINE
  8
0
 62
     0
 10
383.621
 20
69.2824
 30
0.0
 11
397.619
 21
69.2824
 31
0.0
  0
LINE
  8
0
 62
     0
 10
397.619
 20
69.2824
 30
0.0
 11
397.619
 21
70.2829
 31
0.0
  0
LINE
  8
0
 62
     0
 10
397.619
 20
70.2829
 30
0.0
 11
398.42
 21
70.2829
 31
0.0
  0
LINE
  8
0
 62
     0
 10
398.42
 20
70.2829
 30
0.0
 11
398.42
 21
73.382
 31
0.0
  0
LINE
  8
0
 62
     0
 10
398.42
 20
73.382
 30
0.0
 11
397.619
 21
73.382
 31
0.0
  0
LINE
  8
0
 62
     0
 10
397.619
 20
73.382
 30
0.0
 11
397.619
 21
79.182
 31
0.0
  0
LINE
  8
0
 62
     0
 10
397.619
 20
79.182
 30
0.0
 11
398.42
 21
79.182
 31
0.0
  0
LINE
  8
0
 62
     0
 10
398.42
 20
79.182
 30
0.0
 11
398.42
 21
82.2826
 31
0.0
  0
LINE
  8
0
 62
     0
 10
398.42
 20
82.2826
 30
0.0
 11
397.619
 21
82.2826
 31
0.0
  0
LINE
  8
0
 62
     0
 10
397.619
 20
82.2826
 30
0.0
 11
397.619
 21
83.2817
 31
0.0
  0
LINE
  8
0
 62
     0
 10
397.619
 20
83.2817
 30
0.0
 11
383.621
 21
83.2817
 31
0.0
  0
LINE
  8
0
 62
     0
 10
216.932
 20
102.332
 30
0.0
 11
216.932
 21
101.333
 31
0.0
  0
LINE
  8
0
 62
     0
 10
216.932
 20
101.333
 30
0.0
 11
216.131
 21
101.333
 31
0.0
  0
LINE
  8
0
 62
     0
 10
216.131
 20
101.333
 30
0.0
 11
216.131
 21
98.232
 31
0.0
  0
LINE
  8
0
 62
     0
 10
216.131
 20
98.232
 30
0.0
 11
216.932
 21
98.232
 31
0.0
  0
LINE
  8
0
 62
     0
 10
216.932
 20
98.232
 30
0.0
 11
216.932
 21
92.432
 31
0.0
  0
LINE
  8
0
 62
     0
 10
216.932
 20
92.432
 30
0.0
 11
216.131
 21
92.432
 31
0.0
  0
LINE
  8
0
 62
     0
 10
216.131
 20
92.432
 30
0.0
 11
216.131
 21
89.3329
 31
0.0
  0
LINE
  8
0
 62
     0
 10
216.131
 20
89.3329
 30
0.0
 11
216.932
 21
89.3329
 31
0.0
  0
LINE
  8
0
 62
     0
 10
216.932
 20
89.3329
 30
0.0
 11
216.932
 21
88.3324
 31
0.0
  0
LINE
  8
0
 62
     0
 10
216.932
 20
88.3324
 30
0.0
 11
230.932
 21
88.3324
 31
0.0
  0
LINE
  8
0
 62
     0
 10
230.932
 20
88.3324
 30
0.0
 11
230.932
 21
89.3329
 31
0.0
  0
LINE
  8
0
 62
     0
 10
230.932
 20
89.3329
 30
0.0
 11
231.731
 21
89.3329
 31
0.0
  0
LINE
  8
0
 62
     0
 10
231.731
 20
89.3329
 30
0.0
 11
231.731
 21
92.432
 31
0.0
  0
LINE
  8
0
 62
     0
 10
231.731
 20
92.432
 30
0.0
 11
230.932
 21
92.432
 31
0.0
  0
LINE
  8
0
 62
     0
 10
230.932
 20
92.432
 30
0.0
 11
230.932
 21
98.232
 31
0.0
  0
LINE
  8
0
 62
     0
 10
230.932
 20
98.232
 30
0.0
 11
231.731
 21
98.232
 31
0.0
  0
LINE
  8
0
 62
     0
 10
231.731
 20
98.232
 30
0.0
 11
231.731
 21
101.333
 31
0.0
  0
LINE
  8
0
 62
     0
 10
231.731
 20
101.333
 30
0.0
 11
230.932
 21
101.333
 31
0.0
  0
LINE
  8
0
 62
     0
 10
230.932
 20
101.333
 30
0.0
 11
230.932
 21
102.332
 31
0.0
  0
LINE
  8
0
 62
     0
 10
230.932
 20
102.332
 30
0.0
 11
216.932
 21
102.332
 31
0.0
  0
LINE
  8
0
 62
     0
 10
235.982
 20
102.332
 30
0.0
 11
235.982
 21
101.333
 31
0.0
  0
LINE
  8
0
 62
     0
 10
235.982
 20
101.333
 30
0.0
 11
235.181
 21
101.333
 31
0.0
  0
LINE
  8
0
 62
     0
 10
235.181
 20
101.333
 30
0.0
 11
235.181
 21
98.232
 31
0.0
  0
LINE
  8
0
 62
     0
 10
235.181
 20
98.232
 30
0.0
 11
235.982
 21
98.232
 31
0.0
  0
LINE
  8
0
 62
     0
 10
235.982
 20
98.232
 30
0.0
 11
235.982
 21
92.432
 31
0.0
  0
LINE
  8
0
 62
     0
 10
235.982
 20
92.432
 30
0.0
 11
235.181
 21
92.432
 31
0.0
  0
LINE
  8
0
 62
     0
 10
235.181
 20
92.432
 30
0.0
 11
235.181
 21
89.3329
 31
0.0
  0
LINE
  8
0
 62
     0
 10
235.181
 20
89.3329
 30
0.0
 11
235.982
 21
89.3329
 31
0.0
  0
LINE
  8
0
 62
     0
 10
235.982
 20
89.3329
 30
0.0
 11
235.982
 21
88.3324
 31
0.0
  0
LINE
  8
0
 62
     0
 10
235.982
 20
88.3324
 30
0.0
 11
249.982
 21
88.3324
 31
0.0
  0
LINE
  8
0
 62
     0
 10
249.982
 20
88.3324
 30
0.0
 11
249.982
 21
89.3329
 31
0.0
  0
LINE
  8
0
 62
     0
 10
249.982
 20
89.3329
 30
0.0
 11
250.781
 21
89.3329
 31
0.0
  0
LINE
  8
0
 62
     0
 10
250.781
 20
89.3329
 30
0.0
 11
250.781
 21
92.432
 31
0.0
  0
LINE
  8
0
 62
     0
 10
250.781
 20
92.432
 30
0.0
 11
249.982
 21
92.432
 31
0.0
  0
LINE
  8
0
 62
     0
 10
249.982
 20
92.432
 30
0.0
 11
249.982
 21
98.232
 31
0.0
  0
LINE
  8
0
 62
     0
 10
249.982
 20
98.232
 30
0.0
 11
250.781
 21
98.232
 31
0.0
  0
LINE
  8
0
 62
     0
 10
250.781
 20
98.232
 30
0.0
 11
250.781
 21
101.333
 31
0.0
  0
LINE
  8
0
 62
     0
 10
250.781
 20
101.333
 30
0.0
 11
249.982
 21
101.333
 31
0.0
  0
LINE
  8
0
 62
     0
 10
249.982
 20
101.333
 30
0.0
 11
249.982
 21
102.332
 31
0.0
  0
LINE
  8
0
 62
     0
 10
249.982
 20
102.332
 30
0.0
 11
235.982
 21
102.332
 31
0.0
  0
LINE
  8
0
 62
     0
 10
255.032
 20
102.332
 30
0.0
 11
255.032
 21
101.333
 31
0.0
  0
LINE
  8
0
 62
     0
 10
255.032
 20
101.333
 30
0.0
 11
254.231
 21
101.333
 31
0.0
  0
LINE
  8
0
 62
     0
 10
254.231
 20
101.333
 30
0.0
 11
254.231
 21
98.232
 31
0.0
  0
LINE
  8
0
 62
     0
 10
254.231
 20
98.232
 30
0.0
 11
255.032
 21
98.232
 31
0.0
  0
LINE
  8
0
 62
     0
 10
255.032
 20
98.232
 30
0.0
 11
255.032
 21
92.432
 31
0.0
  0
LINE
  8
0
 62
     0
 10
255.032
 20
92.432
 30
0.0
 11
254.231
 21
92.432
 31
0.0
  0
LINE
  8
0
 62
     0
 10
254.231
 20
92.432
 30
0.0
 11
254.231
 21
89.3329
 31
0.0
  0
LINE
  8
0
 62
     0
 10
254.231
 20
89.3329
 30
0.0
 11
255.032
 21
89.3329
 31
0.0
  0
LINE
  8
0
 62
     0
 10
255.032
 20
89.3329
 30
0.0
 11
255.032
 21
88.3324
 31
0.0
  0
LINE
  8
0
 62
     0
 10
255.032
 20
88.3324
 30
0.0
 11
269.032
 21
88.3324
 31
0.0
  0
LINE
  8
0
 62
     0
 10
269.032
 20
88.3324
 30
0.0
 11
269.032
 21
89.3329
 31
0.0
  0
LINE
  8
0
 62
     0
 10
269.032
 20
89.3329
 30
0.0
 11
269.831
 21
89.3329
 31
0.0
  0
LINE
  8
0
 62
     0
 10
269.831
 20
89.3329
 30
0.0
 11
269.831
 21
92.432
 31
0.0
  0
LINE
  8
0
 62
     0
 10
269.831
 20
92.432
 30
0.0
 11
269.032
 21
92.432
 31
0.0
  0
LINE
  8
0
 62
     0
 10
269.032
 20
92.432
 30
0.0
 11
269.032
 21
98.232
 31
0.0
  0
LINE
  8
0
 62
     0
 10
269.032
 20
98.232
 30
0.0
 11
269.831
 21
98.232
 31
0.0
  0
LINE
  8
0
 62
     0
 10
269.831
 20
98.232
 30
0.0
 11
269.831
 21
101.333
 31
0.0
  0
LINE
  8
0
 62
     0
 10
269.831
 20
101.333
 30
0.0
 11
269.032
 21
101.333
 31
0.0
  0
LINE
  8
0
 62
     0
 10
269.032
 20
101.333
 30
0.0
 11
269.032
 21
102.332
 31
0.0
  0
LINE
  8
0
 62
     0
 10
269.032
 20
102.332
 30
0.0
 11
255.032
 21
102.332
 31
0.0
  0
LINE
  8
0
 62
     0
 10
274.082
 20
102.332
 30
0.0
 11
274.082
 21
101.333
 31
0.0
  0
LINE
  8
0
 62
     0
 10
274.082
 20
101.333
 30
0.0
 11
273.281
 21
101.333
 31
0.0
  0
LINE
  8
0
 62
     0
 10
273.281
 20
101.333
 30
0.0
 11
273.281
 21
98.232
 31
0.0
  0
LINE
  8
0
 62
     0
 10
273.281
 20
98.232
 30
0.0
 11
274.082
 21
98.232
 31
0.0
  0
LINE
  8
0
 62
     0
 10
274.082
 20
98.232
 30
0.0
 11
274.082
 21
92.432
 31
0.0
  0
LINE
  8
0
 62
     0
 10
274.082
 20
92.432
 30
0.0
 11
273.281
 21
92.432
 31
0.0
  0
LINE
  8
0
 62
     0
 10
273.281
 20
92.432
 30
0.0
 11
273.281
 21
89.3329
 31
0.0
  0
LINE
  8
0
 62
     0
 10
273.281
 20
89.3329
 30
0.0
 11
274.082
 21
89.3329
 31
0.0
  0
LINE
  8
0
 62
     0
 10
274.082
 20
89.3329
 30
0.0
 11
274.082
 21
88.3324
 31
0.0
  0
LINE
  8
0
 62
     0
 10
274.082
 20
88.3324
 30
0.0
 11
288.082
 21
88.3324
 31
0.0
  0
LINE
  8
0
 62
     0
 10
288.082
 20
88.3324
 30
0.0
 11
288.082
 21
89.3329
 31
0.0
  0
LINE
  8
0
 62
     0
 10
288.082
 20
89.3329
 30
0.0
 11
288.881
 21
89.3329
 31
0.0
  0
LINE
  8
0
 62
     0
 10
288.881
 20
89.3329
 30
0.0
 11
288.881
 21
92.432
 31
0.0
  0
LINE
  8
0
 62
     0
 10
288.881
 20
92.432
 30
0.0
 11
288.082
 21
92.432
 31
0.0
  0
LINE
  8
0
 62
     0
 10
288.082
 20
92.432
 30
0.0
 11
288.082
 21
98.232
 31
0.0
  0
LINE
  8
0
 62
     0
 10
288.082
 20
98.232
 30
0.0
 11
288.881
 21
98.232
 31
0.0
  0
LINE
  8
0
 62
     0
 10
288.881
 20
98.232
 30
0.0
 11
288.881
 21
101.333
 31
0.0
  0
LINE
  8
0
 62
     0
 10
288.881
 20
101.333
 30
0.0
 11
288.082
 21
101.333
 31
0.0
  0
LINE
  8
0
 62
     0
 10
288.082
 20
101.333
 30
0.0
 11
288.082
 21
102.332
 31
0.0
  0
LINE
  8
0
 62
     0
 10
288.082
 20
102.332
 30
0.0
 11
274.082
 21
102.332
 31
0.0
  0
LINE
  8
0
 62
     0
 10
293.132
 20
102.332
 30
0.0
 11
293.132
 21
101.333
 31
0.0
  0
LINE
  8
0
 62
     0
 10
293.132
 20
101.333
 30
0.0
 11
292.331
 21
101.333
 31
0.0
  0
LINE
  8
0
 62
     0
 10
292.331
 20
101.333
 30
0.0
 11
292.331
 21
98.232
 31
0.0
  0
LINE
  8
0
 62
     0
 10
292.331
 20
98.232
 30
0.0
 11
293.132
 21
98.232
 31
0.0
  0
LINE
  8
0
 62
     0
 10
293.132
 20
98.232
 30
0.0
 11
293.132
 21
92.432
 31
0.0
  0
LINE
  8
0
 62
     0
 10
293.132
 20
92.432
 30
0.0
 11
292.331
 21
92.432
 31
0.0
  0
LINE
  8
0
 62
     0
 10
292.331
 20
92.432
 30
0.0
 11
292.331
 21
89.3329
 31
0.0
  0
LINE
  8
0
 62
     0
 10
292.331
 20
89.3329
 30
0.0
 11
293.132
 21
89.3329
 31
0.0
  0
LINE
  8
0
 62
     0
 10
293.132
 20
89.3329
 30
0.0
 11
293.132
 21
88.3324
 31
0.0
  0
LINE
  8
0
 62
     0
 10
293.132
 20
88.3324
 30
0.0
 11
307.132
 21
88.3324
 31
0.0
  0
LINE
  8
0
 62
     0
 10
307.132
 20
88.3324
 30
0.0
 11
307.132
 21
89.3329
 31
0.0
  0
LINE
  8
0
 62
     0
 10
307.132
 20
89.3329
 30
0.0
 11
307.931
 21
89.3329
 31
0.0
  0
LINE
  8
0
 62
     0
 10
307.931
 20
89.3329
 30
0.0
 11
307.931
 21
92.432
 31
0.0
  0
LINE
  8
0
 62
     0
 10
307.931
 20
92.432
 30
0.0
 11
307.132
 21
92.432
 31
0.0
  0
LINE
  8
0
 62
     0
 10
307.132
 20
92.432
 30
0.0
 11
307.132
 21
98.232
 31
0.0
  0
LINE
  8
0
 62
     0
 10
307.132
 20
98.232
 30
0.0
 11
307.931
 21
98.232
 31
0.0
  0
LINE
  8
0
 62
     0
 10
307.931
 20
98.232
 30
0.0
 11
307.931
 21
101.333
 31
0.0
  0
LINE
  8
0
 62
     0
 10
307.931
 20
101.333
 30
0.0
 11
307.132
 21
101.333
 31
0.0
  0
LINE
  8
0
 62
     0
 10
307.132
 20
101.333
 30
0.0
 11
307.132
 21
102.332
 31
0.0
  0
LINE
  8
0
 62
     0
 10
307.132
 20
102.332
 30
0.0
 11
293.132
 21
102.332
 31
0.0
  0
LINE
  8
0
 62
     0
 10
312.182
 20
102.332
 30
0.0
 11
312.182
 21
101.333
 31
0.0
  0
LINE
  8
0
 62
     0
 10
312.182
 20
101.333
 30
0.0
 11
311.381
 21
101.333
 31
0.0
  0
LINE
  8
0
 62
     0
 10
311.381
 20
101.333
 30
0.0
 11
311.381
 21
98.232
 31
0.0
  0
LINE
  8
0
 62
     0
 10
311.381
 20
98.232
 30
0.0
 11
312.182
 21
98.232
 31
0.0
  0
LINE
  8
0
 62
     0
 10
312.182
 20
98.232
 30
0.0
 11
312.182
 21
92.432
 31
0.0
  0
LINE
  8
0
 62
     0
 10
312.182
 20
92.432
 30
0.0
 11
311.381
 21
92.432
 31
0.0
  0
LINE
  8
0
 62
     0
 10
311.381
 20
92.432
 30
0.0
 11
311.381
 21
89.3329
 31
0.0
  0
LINE
  8
0
 62
     0
 10
311.381
 20
89.3329
 30
0.0
 11
312.182
 21
89.3329
 31
0.0
  0
LINE
  8
0
 62
     0
 10
312.182
 20
89.3329
 30
0.0
 11
312.182
 21
88.3324
 31
0.0
  0
LINE
  8
0
 62
     0
 10
312.182
 20
88.3324
 30
0.0
 11
326.182
 21
88.3324
 31
0.0
  0
LINE
  8
0
 62
     0
 10
326.182
 20
88.3324
 30
0.0
 11
326.182
 21
89.3329
 31
0.0
  0
LINE
  8
0
 62
     0
 10
326.182
 20
89.3329
 30
0.0
 11
326.981
 21
89.3329
 31
0.0
  0
LINE
  8
0
 62
     0
 10
326.981
 20
89.3329
 30
0.0
 11
326.981
 21
92.432
 31
0.0
  0
LINE
  8
0
 62
     0
 10
326.981
 20
92.432
 30
0.0
 11
326.182
 21
92.432
 31
0.0
  0
LINE
  8
0
 62
     0
 10
326.182
 20
92.432
 30
0.0
 11
326.182
 21
98.232
 31
0.0
  0
LINE
  8
0
 62
     0
 10
326.182
 20
98.232
 30
0.0
 11
326.981
 21
98.232
 31
0.0
  0
LINE
  8
0
 62
     0
 10
326.981
 20
98.232
 30
0.0
 11
326.981
 21
101.333
 31
0.0
  0
LINE
  8
0
 62
     0
 10
326.981
 20
101.333
 30
0.0
 11
326.182
 21
101.333
 31
0.0
  0
LINE
  8
0
 62
     0
 10
326.182
 20
101.333
 30
0.0
 11
326.182
 21
102.332
 31
0.0
  0
LINE
  8
0
 62
     0
 10
326.182
 20
102.332
 30
0.0
 11
312.182
 21
102.332
 31
0.0
  0
LINE
  8
0
 62
     0
 10
331.232
 20
102.332
 30
0.0
 11
331.232
 21
101.333
 31
0.0
  0
LINE
  8
0
 62
     0
 10
331.232
 20
101.333
 30
0.0
 11
330.431
 21
101.333
 31
0.0
  0
LINE
  8
0
 62
     0
 10
330.431
 20
101.333
 30
0.0
 11
330.431
 21
98.232
 31
0.0
  0
LINE
  8
0
 62
     0
 10
330.431
 20
98.232
 30
0.0
 11
331.232
 21
98.232
 31
0.0
  0
LINE
  8
0
 62
     0
 10
331.232
 20
98.232
 30
0.0
 11
331.232
 21
92.432
 31
0.0
  0
LINE
  8
0
 62
     0
 10
331.232
 20
92.432
 30
0.0
 11
330.431
 21
92.432
 31
0.0
  0
LINE
  8
0
 62
     0
 10
330.431
 20
92.432
 30
0.0
 11
330.431
 21
89.3329
 31
0.0
  0
LINE
  8
0
 62
     0
 10
330.431
 20
89.3329
 30
0.0
 11
331.232
 21
89.3329
 31
0.0
  0
LINE
  8
0
 62
     0
 10
331.232
 20
89.3329
 30
0.0
 11
331.232
 21
88.3324
 31
0.0
  0
LINE
  8
0
 62
     0
 10
331.232
 20
88.3324
 30
0.0
 11
345.232
 21
88.3324
 31
0.0
  0
LINE
  8
0
 62
     0
 10
345.232
 20
88.3324
 30
0.0
 11
345.232
 21
89.3329
 31
0.0
  0
LINE
  8
0
 62
     0
 10
345.232
 20
89.3329
 30
0.0
 11
346.031
 21
89.3329
 31
0.0
  0
LINE
  8
0
 62
     0
 10
346.031
 20
89.3329
 30
0.0
 11
346.031
 21
92.432
 31
0.0
  0
LINE
  8
0
 62
     0
 10
346.031
 20
92.432
 30
0.0
 11
345.232
 21
92.432
 31
0.0
  0
LINE
  8
0
 62
     0
 10
345.232
 20
92.432
 30
0.0
 11
345.232
 21
98.232
 31
0.0
  0
LINE
  8
0
 62
     0
 10
345.232
 20
98.232
 30
0.0
 11
346.031
 21
98.232
 31
0.0
  0
LINE
  8
0
 62
     0
 10
346.031
 20
98.232
 30
0.0
 11
346.031
 21
101.333
 31
0.0
  0
LINE
  8
0
 62
     0
 10
346.031
 20
101.333
 30
0.0
 11
345.232
 21
101.333
 31
0.0
  0
LINE
  8
0
 62
     0
 10
345.232
 20
101.333
 30
0.0
 11
345.232
 21
102.332
 31
0.0
  0
LINE
  8
0
 62
     0
 10
345.232
 20
102.332
 30
0.0
 11
331.232
 21
102.332
 31
0.0
  0
LINE
  8
0
 62
     0
 10
355.046
 20
102.332
 30
0.0
 11
355.046
 21
101.333
 31
0.0
  0
LINE
  8
0
 62
     0
 10
355.046
 20
101.333
 30
0.0
 11
354.245
 21
101.333
 31
0.0
  0
LINE
  8
0
 62
     0
 10
354.245
 20
101.333
 30
0.0
 11
354.245
 21
98.232
 31
0.0
  0
LINE
  8
0
 62
     0
 10
354.245
 20
98.232
 30
0.0
 11
355.046
 21
98.232
 31
0.0
  0
LINE
  8
0
 62
     0
 10
355.046
 20
98.232
 30
0.0
 11
355.046
 21
92.432
 31
0.0
  0
LINE
  8
0
 62
     0
 10
355.046
 20
92.432
 30
0.0
 11
354.245
 21
92.432
 31
0.0
  0
LINE
  8
0
 62
     0
 10
354.245
 20
92.432
 30
0.0
 11
354.245
 21
89.3329
 31
0.0
  0
LINE
  8
0
 62
     0
 10
354.245
 20
89.3329
 30
0.0
 11
355.046
 21
89.3329
 31
0.0
  0
LINE
  8
0
 62
     0
 10
355.046
 20
89.3329
 30
0.0
 11
355.046
 21
88.3324
 31
0.0
  0
LINE
  8
0
 62
     0
 10
355.046
 20
88.3324
 30
0.0
 11
369.044
 21
88.3324
 31
0.0
  0
LINE
  8
0
 62
     0
 10
369.044
 20
88.3324
 30
0.0
 11
369.044
 21
89.3329
 31
0.0
  0
LINE
  8
0
 62
     0
 10
369.044
 20
89.3329
 30
0.0
 11
369.845
 21
89.3329
 31
0.0
  0
LINE
  8
0
 62
     0
 10
369.845
 20
89.3329
 30
0.0
 11
369.845
 21
92.432
 31
0.0
  0
LINE
  8
0
 62
     0
 10
369.845
 20
92.432
 30
0.0
 11
369.044
 21
92.432
 31
0.0
  0
LINE
  8
0
 62
     0
 10
369.044
 20
92.432
 30
0.0
 11
369.044
 21
98.232
 31
0.0
  0
LINE
  8
0
 62
     0
 10
369.044
 20
98.232
 30
0.0
 11
369.845
 21
98.232
 31
0.0
  0
LINE
  8
0
 62
     0
 10
369.845
 20
98.232
 30
0.0
 11
369.845
 21
101.333
 31
0.0
  0
LINE
  8
0
 62
     0
 10
369.845
 20
101.333
 30
0.0
 11
369.044
 21
101.333
 31
0.0
  0
LINE
  8
0
 62
     0
 10
369.044
 20
101.333
 30
0.0
 11
369.044
 21
102.332
 31
0.0
  0
LINE
  8
0
 62
     0
 10
369.044
 20
102.332
 30
0.0
 11
355.046
 21
102.332
 31
0.0
  0
LINE
  8
0
 62
     0
 10
383.621
 20
102.332
 30
0.0
 11
383.621
 21
101.333
 31
0.0
  0
LINE
  8
0
 62
     0
 10
383.621
 20
101.333
 30
0.0
 11
382.82
 21
101.333
 31
0.0
  0
LINE
  8
0
 62
     0
 10
382.82
 20
101.333
 30
0.0
 11
382.82
 21
98.232
 31
0.0
  0
LINE
  8
0
 62
     0
 10
382.82
 20
98.232
 30
0.0
 11
383.621
 21
98.232
 31
0.0
  0
LINE
  8
0
 62
     0
 10
383.621
 20
98.232
 30
0.0
 11
383.621
 21
92.432
 31
0.0
  0
LINE
  8
0
 62
     0
 10
383.621
 20
92.432
 30
0.0
 11
382.82
 21
92.432
 31
0.0
  0
LINE
  8
0
 62
     0
 10
382.82
 20
92.432
 30
0.0
 11
382.82
 21
89.3329
 31
0.0
  0
LINE
  8
0
 62
     0
 10
382.82
 20
89.3329
 30
0.0
 11
383.621
 21
89.3329
 31
0.0
  0
LINE
  8
0
 62
     0
 10
383.621
 20
89.3329
 30
0.0
 11
383.621
 21
88.3324
 31
0.0
  0
LINE
  8
0
 62
     0
 10
383.621
 20
88.3324
 30
0.0
 11
397.619
 21
88.3324
 31
0.0
  0
LINE
  8
0
 62
     0
 10
397.619
 20
88.3324
 30
0.0
 11
397.619
 21
89.3329
 31
0.0
  0
LINE
  8
0
 62
     0
 10
397.619
 20
89.3329
 30
0.0
 11
398.42
 21
89.3329
 31
0.0
  0
LINE
  8
0
 62
     0
 10
398.42
 20
89.3329
 30
0.0
 11
398.42
 21
92.432
 31
0.0
  0
LINE
  8
0
 62
     0
 10
398.42
 20
92.432
 30
0.0
 11
397.619
 21
92.432
 31
0.0
  0
LINE
  8
0
 62
     0
 10
397.619
 20
92.432
 30
0.0
 11
397.619
 21
98.232
 31
0.0
  0
LINE
  8
0
 62
     0
 10
397.619
 20
98.232
 30
0.0
 11
398.42
 21
98.232
 31
0.0
  0
LINE
  8
0
 62
     0
 10
398.42
 20
98.232
 30
0.0
 11
398.42
 21
101.333
 31
0.0
  0
LINE
  8
0
 62
     0
 10
398.42
 20
101.333
 30
0.0
 11
397.619
 21
101.333
 31
0.0
  0
LINE
  8
0
 62
     0
 10
397.619
 20
101.333
 30
0.0
 11
397.619
 21
102.332
 31
0.0
  0
LINE
  8
0
 62
     0
 10
397.619
 20
102.332
 30
0.0
 11
383.621
 21
102.332
 31
0.0
  0
LINE
  8
0
 62
     0
 10
350.282
 20
121.382
 30
0.0
 11
350.282
 21
120.383
 31
0.0
  0
LINE
  8
0
 62
     0
 10
350.282
 20
120.383
 30
0.0
 11
349.481
 21
120.383
 31
0.0
  0
LINE
  8
0
 62
     0
 10
349.481
 20
120.383
 30
0.0
 11
349.481
 21
117.282
 31
0.0
  0
LINE
  8
0
 62
     0
 10
349.481
 20
117.282
 30
0.0
 11
350.282
 21
117.282
 31
0.0
  0
LINE
  8
0
 62
     0
 10
350.282
 20
117.282
 30
0.0
 11
350.282
 21
116.683
 31
0.0
  0
LINE
  8
0
 62
     0
 10
350.282
 20
116.683
 30
0.0
 11
348.757
 21
116.683
 31
0.0
  0
LINE
  8
0
 62
     0
 10
348.757
 20
116.683
 30
0.0
 11
348.757
 21
119.913
 31
0.0
  0
LINE
  8
0
 62
     0
 10
348.757
 20
119.913
 30
0.0
 11
342.007
 21
119.913
 31
0.0
  0
LINE
  8
0
 62
     0
 10
342.007
 20
119.913
 30
0.0
 11
342.007
 21
116.683
 31
0.0
  0
LINE
  8
0
 62
     0
 10
342.007
 20
116.683
 30
0.0
 11
341.182
 21
116.683
 31
0.0
  0
LINE
  8
0
 62
     0
 10
341.182
 20
116.683
 30
0.0
 11
341.182
 21
113.882
 31
0.0
  0
LINE
  8
0
 62
     0
 10
341.182
 20
113.882
 30
0.0
 11
342.007
 21
113.882
 31
0.0
  0
LINE
  8
0
 62
     0
 10
342.007
 20
113.882
 30
0.0
 11
342.007
 21
107.612
 31
0.0
  0
LINE
  8
0
 62
     0
 10
342.007
 20
107.612
 30
0.0
 11
343.731
 21
107.612
 31
0.0
  0
LINE
  8
0
 62
     0
 10
343.731
 20
107.612
 30
0.0
 11
343.731
 21
106.412
 31
0.0
  0
LINE
  8
0
 62
     0
 10
343.731
 20
106.412
 30
0.0
 11
347.031
 21
106.412
 31
0.0
  0
LINE
  8
0
 62
     0
 10
347.031
 20
106.412
 30
0.0
 11
347.031
 21
107.612
 31
0.0
  0
LINE
  8
0
 62
     0
 10
347.031
 20
107.612
 30
0.0
 11
348.757
 21
107.612
 31
0.0
  0
LINE
  8
0
 62
     0
 10
348.757
 20
107.612
 30
0.0
 11
348.757
 21
112.083
 31
0.0
  0
LINE
  8
0
 62
     0
 10
348.757
 20
112.083
 30
0.0
 11
350.282
 21
112.083
 31
0.0
  0
LINE
  8
0
 62
     0
 10
350.282
 20
112.083
 30
0.0
 11
350.282
 21
111.482
 31
0.0
  0
LINE
  8
0
 62
     0
 10
350.282
 20
111.482
 30
0.0
 11
349.481
 21
111.482
 31
0.0
  0
LINE
  8
0
 62
     0
 10
349.481
 20
111.482
 30
0.0
 11
349.481
 21
108.383
 31
0.0
  0
LINE
  8
0
 62
     0
 10
349.481
 20
108.383
 30
0.0
 11
350.282
 21
108.383
 31
0.0
  0
LINE
  8
0
 62
     0
 10
350.282
 20
108.383
 30
0.0
 11
350.282
 21
107.382
 31
0.0
  0
LINE
  8
0
 62
     0
 10
350.282
 20
107.382
 30
0.0
 11
364.282
 21
107.382
 31
0.0
  0
LINE
  8
0
 62
     0
 10
364.282
 20
107.382
 30
0.0
 11
364.282
 21
108.383
 31
0.0
  0
LINE
  8
0
 62
     0
 10
364.282
 20
108.383
 30
0.0
 11
365.083
 21
108.383
 31
0.0
  0
LINE
  8
0
 62
     0
 10
365.083
 20
108.383
 30
0.0
 11
365.083
 21
111.482
 31
0.0
  0
LINE
  8
0
 62
     0
 10
365.083
 20
111.482
 30
0.0
 11
364.282
 21
111.482
 31
0.0
  0
LINE
  8
0
 62
     0
 10
364.282
 20
111.482
 30
0.0
 11
364.282
 21
112.083
 31
0.0
  0
LINE
  8
0
 62
     0
 10
364.282
 20
112.083
 30
0.0
 11
365.806
 21
112.083
 31
0.0
  0
LINE
  8
0
 62
     0
 10
365.806
 20
112.083
 30
0.0
 11
365.806
 21
107.612
 31
0.0
  0
LINE
  8
0
 62
     0
 10
365.806
 20
107.612
 30
0.0
 11
367.531
 21
107.612
 31
0.0
  0
LINE
  8
0
 62
     0
 10
367.531
 20
107.612
 30
0.0
 11
367.531
 21
106.412
 31
0.0
  0
LINE
  8
0
 62
     0
 10
367.531
 20
106.412
 30
0.0
 11
370.833
 21
106.412
 31
0.0
  0
LINE
  8
0
 62
     0
 10
370.833
 20
106.412
 30
0.0
 11
370.833
 21
107.612
 31
0.0
  0
LINE
  8
0
 62
     0
 10
370.833
 20
107.612
 30
0.0
 11
372.558
 21
107.612
 31
0.0
  0
LINE
  8
0
 62
     0
 10
372.558
 20
107.612
 30
0.0
 11
372.558
 21
113.882
 31
0.0
  0
LINE
  8
0
 62
     0
 10
372.558
 20
113.882
 30
0.0
 11
373.38
 21
113.882
 31
0.0
  0
LINE
  8
0
 62
     0
 10
373.38
 20
113.882
 30
0.0
 11
373.38
 21
116.683
 31
0.0
  0
LINE
  8
0
 62
     0
 10
373.38
 20
116.683
 30
0.0
 11
372.558
 21
116.683
 31
0.0
  0
LINE
  8
0
 62
     0
 10
372.558
 20
116.683
 30
0.0
 11
372.558
 21
119.913
 31
0.0
  0
LINE
  8
0
 62
     0
 10
372.558
 20
119.913
 30
0.0
 11
365.806
 21
119.913
 31
0.0
  0
LINE
  8
0
 62
     0
 10
365.806
 20
119.913
 30
0.0
 11
365.806
 21
116.683
 31
0.0
  0
LINE
  8
0
 62
     0
 10
365.806
 20
116.683
 30
0.0
 11
364.282
 21
116.683
 31
0.0
  0
LINE
  8
0
 62
     0
 10
364.282
 20
116.683
 30
0.0
 11
364.282
 21
117.282
 31
0.0
  0
LINE
  8
0
 62
     0
 10
364.282
 20
117.282
 30
0.0
 11
365.083
 21
117.282
 31
0.0
  0
LINE
  8
0
 62
     0
 10
365.083
 20
117.282
 30
0.0
 11
365.083
 21
120.383
 31
0.0
  0
LINE
  8
0
 62
     0
 10
365.083
 20
120.383
 30
0.0
 11
364.282
 21
120.383
 31
0.0
  0
LINE
  8
0
 62
     0
 10
364.282
 20
120.383
 30
0.0
 11
364.282
 21
121.382
 31
0.0
  0
LINE
  8
0
 62
     0
 10
364.282
 20
121.382
 30
0.0
 11
350.282
 21
121.382
 31
0.0
  0
LINE
  8
0
 62
     0
 10
207.407
 20
121.382
 30
0.0
 11
207.407
 21
120.383
 31
0.0
  0
LINE
  8
0
 62
     0
 10
207.407
 20
120.383
 30
0.0
 11
206.606
 21
120.383
 31
0.0
  0
LINE
  8
0
 62
     0
 10
206.606
 20
120.383
 30
0.0
 11
206.606
 21
117.282
 31
0.0
  0
LINE
  8
0
 62
     0
 10
206.606
 20
117.282
 30
0.0
 11
207.407
 21
117.282
 31
0.0
  0
LINE
  8
0
 62
     0
 10
207.407
 20
117.282
 30
0.0
 11
207.407
 21
111.482
 31
0.0
  0
LINE
  8
0
 62
     0
 10
207.407
 20
111.482
 30
0.0
 11
206.606
 21
111.482
 31
0.0
  0
LINE
  8
0
 62
     0
 10
206.606
 20
111.482
 30
0.0
 11
206.606
 21
108.383
 31
0.0
  0
LINE
  8
0
 62
     0
 10
206.606
 20
108.383
 30
0.0
 11
207.407
 21
108.383
 31
0.0
  0
LINE
  8
0
 62
     0
 10
207.407
 20
108.383
 30
0.0
 11
207.407
 21
107.382
 31
0.0
  0
LINE
  8
0
 62
     0
 10
207.407
 20
107.382
 30
0.0
 11
221.407
 21
107.382
 31
0.0
  0
LINE
  8
0
 62
     0
 10
221.407
 20
107.382
 30
0.0
 11
221.407
 21
108.383
 31
0.0
  0
LINE
  8
0
 62
     0
 10
221.407
 20
108.383
 30
0.0
 11
222.206
 21
108.383
 31
0.0
  0
LINE
  8
0
 62
     0
 10
222.206
 20
108.383
 30
0.0
 11
222.206
 21
111.482
 31
0.0
  0
LINE
  8
0
 62
     0
 10
222.206
 20
111.482
 30
0.0
 11
221.407
 21
111.482
 31
0.0
  0
LINE
  8
0
 62
     0
 10
221.407
 20
111.482
 30
0.0
 11
221.407
 21
117.282
 31
0.0
  0
LINE
  8
0
 62
     0
 10
221.407
 20
117.282
 30
0.0
 11
222.206
 21
117.282
 31
0.0
  0
LINE
  8
0
 62
     0
 10
222.206
 20
117.282
 30
0.0
 11
222.206
 21
120.383
 31
0.0
  0
LINE
  8
0
 62
     0
 10
222.206
 20
120.383
 30
0.0
 11
221.407
 21
120.383
 31
0.0
  0
LINE
  8
0
 62
     0
 10
221.407
 20
120.383
 30
0.0
 11
221.407
 21
121.382
 31
0.0
  0
LINE
  8
0
 62
     0
 10
221.407
 20
121.382
 30
0.0
 11
207.407
 21
121.382
 31
0.0
  0
LINE
  8
0
 62
     0
 10
226.457
 20
121.382
 30
0.0
 11
226.457
 21
120.383
 31
0.0
  0
LINE
  8
0
 62
     0
 10
226.457
 20
120.383
 30
0.0
 11
225.656
 21
120.383
 31
0.0
  0
LINE
  8
0
 62
     0
 10
225.656
 20
120.383
 30
0.0
 11
225.656
 21
117.282
 31
0.0
  0
LINE
  8
0
 62
     0
 10
225.656
 20
117.282
 30
0.0
 11
226.457
 21
117.282
 31
0.0
  0
LINE
  8
0
 62
     0
 10
226.457
 20
117.282
 30
0.0
 11
226.457
 21
111.482
 31
0.0
  0
LINE
  8
0
 62
     0
 10
226.457
 20
111.482
 30
0.0
 11
225.656
 21
111.482
 31
0.0
  0
LINE
  8
0
 62
     0
 10
225.656
 20
111.482
 30
0.0
 11
225.656
 21
108.383
 31
0.0
  0
LINE
  8
0
 62
     0
 10
225.656
 20
108.383
 30
0.0
 11
226.457
 21
108.383
 31
0.0
  0
LINE
  8
0
 62
     0
 10
226.457
 20
108.383
 30
0.0
 11
226.457
 21
107.382
 31
0.0
  0
LINE
  8
0
 62
     0
 10
226.457
 20
107.382
 30
0.0
 11
240.457
 21
107.382
 31
0.0
  0
LINE
  8
0
 62
     0
 10
240.457
 20
107.382
 30
0.0
 11
240.457
 21
108.383
 31
0.0
  0
LINE
  8
0
 62
     0
 10
240.457
 20
108.383
 30
0.0
 11
241.256
 21
108.383
 31
0.0
  0
LINE
  8
0
 62
     0
 10
241.256
 20
108.383
 30
0.0
 11
241.256
 21
111.482
 31
0.0
  0
LINE
  8
0
 62
     0
 10
241.256
 20
111.482
 30
0.0
 11
240.457
 21
111.482
 31
0.0
  0
LINE
  8
0
 62
     0
 10
240.457
 20
111.482
 30
0.0
 11
240.457
 21
117.282
 31
0.0
  0
LINE
  8
0
 62
     0
 10
240.457
 20
117.282
 30
0.0
 11
241.256
 21
117.282
 31
0.0
  0
LINE
  8
0
 62
     0
 10
241.256
 20
117.282
 30
0.0
 11
241.256
 21
120.383
 31
0.0
  0
LINE
  8
0
 62
     0
 10
241.256
 20
120.383
 30
0.0
 11
240.457
 21
120.383
 31
0.0
  0
LINE
  8
0
 62
     0
 10
240.457
 20
120.383
 30
0.0
 11
240.457
 21
121.382
 31
0.0
  0
LINE
  8
0
 62
     0
 10
240.457
 20
121.382
 30
0.0
 11
226.457
 21
121.382
 31
0.0
  0
LINE
  8
0
 62
     0
 10
245.507
 20
121.382
 30
0.0
 11
245.507
 21
120.383
 31
0.0
  0
LINE
  8
0
 62
     0
 10
245.507
 20
120.383
 30
0.0
 11
244.706
 21
120.383
 31
0.0
  0
LINE
  8
0
 62
     0
 10
244.706
 20
120.383
 30
0.0
 11
244.706
 21
117.282
 31
0.0
  0
LINE
  8
0
 62
     0
 10
244.706
 20
117.282
 30
0.0
 11
245.507
 21
117.282
 31
0.0
  0
LINE
  8
0
 62
     0
 10
245.507
 20
117.282
 30
0.0
 11
245.507
 21
111.482
 31
0.0
  0
LINE
  8
0
 62
     0
 10
245.507
 20
111.482
 30
0.0
 11
244.706
 21
111.482
 31
0.0
  0
LINE
  8
0
 62
     0
 10
244.706
 20
111.482
 30
0.0
 11
244.706
 21
108.383
 31
0.0
  0
LINE
  8
0
 62
     0
 10
244.706
 20
108.383
 30
0.0
 11
245.507
 21
108.383
 31
0.0
  0
LINE
  8
0
 62
     0
 10
245.507
 20
108.383
 30
0.0
 11
245.507
 21
107.382
 31
0.0
  0
LINE
  8
0
 62
     0
 10
245.507
 20
107.382
 30
0.0
 11
259.507
 21
107.382
 31
0.0
  0
LINE
  8
0
 62
     0
 10
259.507
 20
107.382
 30
0.0
 11
259.507
 21
108.383
 31
0.0
  0
LINE
  8
0
 62
     0
 10
259.507
 20
108.383
 30
0.0
 11
260.306
 21
108.383
 31
0.0
  0
LINE
  8
0
 62
     0
 10
260.306
 20
108.383
 30
0.0
 11
260.306
 21
111.482
 31
0.0
  0
LINE
  8
0
 62
     0
 10
260.306
 20
111.482
 30
0.0
 11
259.507
 21
111.482
 31
0.0
  0
LINE
  8
0
 62
     0
 10
259.507
 20
111.482
 30
0.0
 11
259.507
 21
117.282
 31
0.0
  0
LINE
  8
0
 62
     0
 10
259.507
 20
117.282
 30
0.0
 11
260.306
 21
117.282
 31
0.0
  0
LINE
  8
0
 62
     0
 10
260.306
 20
117.282
 30
0.0
 11
260.306
 21
120.383
 31
0.0
  0
LINE
  8
0
 62
     0
 10
260.306
 20
120.383
 30
0.0
 11
259.507
 21
120.383
 31
0.0
  0
LINE
  8
0
 62
     0
 10
259.507
 20
120.383
 30
0.0
 11
259.507
 21
121.382
 31
0.0
  0
LINE
  8
0
 62
     0
 10
259.507
 20
121.382
 30
0.0
 11
245.507
 21
121.382
 31
0.0
  0
LINE
  8
0
 62
     0
 10
264.557
 20
121.382
 30
0.0
 11
264.557
 21
120.383
 31
0.0
  0
LINE
  8
0
 62
     0
 10
264.557
 20
120.383
 30
0.0
 11
263.756
 21
120.383
 31
0.0
  0
LINE
  8
0
 62
     0
 10
263.756
 20
120.383
 30
0.0
 11
263.756
 21
117.282
 31
0.0
  0
LINE
  8
0
 62
     0
 10
263.756
 20
117.282
 30
0.0
 11
264.557
 21
117.282
 31
0.0
  0
LINE
  8
0
 62
     0
 10
264.557
 20
117.282
 30
0.0
 11
264.557
 21
111.482
 31
0.0
  0
LINE
  8
0
 62
     0
 10
264.557
 20
111.482
 30
0.0
 11
263.756
 21
111.482
 31
0.0
  0
LINE
  8
0
 62
     0
 10
263.756
 20
111.482
 30
0.0
 11
263.756
 21
108.383
 31
0.0
  0
LINE
  8
0
 62
     0
 10
263.756
 20
108.383
 30
0.0
 11
264.557
 21
108.383
 31
0.0
  0
LINE
  8
0
 62
     0
 10
264.557
 20
108.383
 30
0.0
 11
264.557
 21
107.382
 31
0.0
  0
LINE
  8
0
 62
     0
 10
264.557
 20
107.382
 30
0.0
 11
278.557
 21
107.382
 31
0.0
  0
LINE
  8
0
 62
     0
 10
278.557
 20
107.382
 30
0.0
 11
278.557
 21
108.383
 31
0.0
  0
LINE
  8
0
 62
     0
 10
278.557
 20
108.383
 30
0.0
 11
279.356
 21
108.383
 31
0.0
  0
LINE
  8
0
 62
     0
 10
279.356
 20
108.383
 30
0.0
 11
279.356
 21
111.482
 31
0.0
  0
LINE
  8
0
 62
     0
 10
279.356
 20
111.482
 30
0.0
 11
278.557
 21
111.482
 31
0.0
  0
LINE
  8
0
 62
     0
 10
278.557
 20
111.482
 30
0.0
 11
278.557
 21
117.282
 31
0.0
  0
LINE
  8
0
 62
     0
 10
278.557
 20
117.282
 30
0.0
 11
279.356
 21
117.282
 31
0.0
  0
LINE
  8
0
 62
     0
 10
279.356
 20
117.282
 30
0.0
 11
279.356
 21
120.383
 31
0.0
  0
LINE
  8
0
 62
     0
 10
279.356
 20
120.383
 30
0.0
 11
278.557
 21
120.383
 31
0.0
  0
LINE
  8
0
 62
     0
 10
278.557
 20
120.383
 30
0.0
 11
278.557
 21
121.382
 31
0.0
  0
LINE
  8
0
 62
     0
 10
278.557
 20
121.382
 30
0.0
 11
264.557
 21
121.382
 31
0.0
  0
LINE
  8
0
 62
     0
 10
283.607
 20
121.382
 30
0.0
 11
283.607
 21
120.383
 31
0.0
  0
LINE
  8
0
 62
     0
 10
283.607
 20
120.383
 30
0.0
 11
282.806
 21
120.383
 31
0.0
  0
LINE
  8
0
 62
     0
 10
282.806
 20
120.383
 30
0.0
 11
282.806
 21
117.282
 31
0.0
  0
LINE
  8
0
 62
     0
 10
282.806
 20
117.282
 30
0.0
 11
283.607
 21
117.282
 31
0.0
  0
LINE
  8
0
 62
     0
 10
283.607
 20
117.282
 30
0.0
 11
283.607
 21
111.482
 31
0.0
  0
LINE
  8
0
 62
     0
 10
283.607
 20
111.482
 30
0.0
 11
282.806
 21
111.482
 31
0.0
  0
LINE
  8
0
 62
     0
 10
282.806
 20
111.482
 30
0.0
 11
282.806
 21
108.383
 31
0.0
  0
LINE
  8
0
 62
     0
 10
282.806
 20
108.383
 30
0.0
 11
283.607
 21
108.383
 31
0.0
  0
LINE
  8
0
 62
     0
 10
283.607
 20
108.383
 30
0.0
 11
283.607
 21
107.382
 31
0.0
  0
LINE
  8
0
 62
     0
 10
283.607
 20
107.382
 30
0.0
 11
297.607
 21
107.382
 31
0.0
  0
LINE
  8
0
 62
     0
 10
297.607
 20
107.382
 30
0.0
 11
297.607
 21
108.383
 31
0.0
  0
LINE
  8
0
 62
     0
 10
297.607
 20
108.383
 30
0.0
 11
298.406
 21
108.383
 31
0.0
  0
LINE
  8
0
 62
     0
 10
298.406
 20
108.383
 30
0.0
 11
298.406
 21
111.482
 31
0.0
  0
LINE
  8
0
 62
     0
 10
298.406
 20
111.482
 30
0.0
 11
297.607
 21
111.482
 31
0.0
  0
LINE
  8
0
 62
     0
 10
297.607
 20
111.482
 30
0.0
 11
297.607
 21
117.282
 31
0.0
  0
LINE
  8
0
 62
     0
 10
297.607
 20
117.282
 30
0.0
 11
298.406
 21
117.282
 31
0.0
  0
LINE
  8
0
 62
     0
 10
298.406
 20
117.282
 30
0.0
 11
298.406
 21
120.383
 31
0.0
  0
LINE
  8
0
 62
     0
 10
298.406
 20
120.383
 30
0.0
 11
297.607
 21
120.383
 31
0.0
  0
LINE
  8
0
 62
     0
 10
297.607
 20
120.383
 30
0.0
 11
297.607
 21
121.382
 31
0.0
  0
LINE
  8
0
 62
     0
 10
297.607
 20
121.382
 30
0.0
 11
283.607
 21
121.382
 31
0.0
  0
LINE
  8
0
 62
     0
 10
302.657
 20
121.382
 30
0.0
 11
302.657
 21
120.383
 31
0.0
  0
LINE
  8
0
 62
     0
 10
302.657
 20
120.383
 30
0.0
 11
301.856
 21
120.383
 31
0.0
  0
LINE
  8
0
 62
     0
 10
301.856
 20
120.383
 30
0.0
 11
301.856
 21
117.282
 31
0.0
  0
LINE
  8
0
 62
     0
 10
301.856
 20
117.282
 30
0.0
 11
302.657
 21
117.282
 31
0.0
  0
LINE
  8
0
 62
     0
 10
302.657
 20
117.282
 30
0.0
 11
302.657
 21
111.482
 31
0.0
  0
LINE
  8
0
 62
     0
 10
302.657
 20
111.482
 30
0.0
 11
301.856
 21
111.482
 31
0.0
  0
LINE
  8
0
 62
     0
 10
301.856
 20
111.482
 30
0.0
 11
301.856
 21
108.383
 31
0.0
  0
LINE
  8
0
 62
     0
 10
301.856
 20
108.383
 30
0.0
 11
302.657
 21
108.383
 31
0.0
  0
LINE
  8
0
 62
     0
 10
302.657
 20
108.383
 30
0.0
 11
302.657
 21
107.382
 31
0.0
  0
LINE
  8
0
 62
     0
 10
302.657
 20
107.382
 30
0.0
 11
316.657
 21
107.382
 31
0.0
  0
LINE
  8
0
 62
     0
 10
316.657
 20
107.382
 30
0.0
 11
316.657
 21
108.383
 31
0.0
  0
LINE
  8
0
 62
     0
 10
316.657
 20
108.383
 30
0.0
 11
317.456
 21
108.383
 31
0.0
  0
LINE
  8
0
 62
     0
 10
317.456
 20
108.383
 30
0.0
 11
317.456
 21
111.482
 31
0.0
  0
LINE
  8
0
 62
     0
 10
317.456
 20
111.482
 30
0.0
 11
316.657
 21
111.482
 31
0.0
  0
LINE
  8
0
 62
     0
 10
316.657
 20
111.482
 30
0.0
 11
316.657
 21
117.282
 31
0.0
  0
LINE
  8
0
 62
     0
 10
316.657
 20
117.282
 30
0.0
 11
317.456
 21
117.282
 31
0.0
  0
LINE
  8
0
 62
     0
 10
317.456
 20
117.282
 30
0.0
 11
317.456
 21
120.383
 31
0.0
  0
LINE
  8
0
 62
     0
 10
317.456
 20
120.383
 30
0.0
 11
316.657
 21
120.383
 31
0.0
  0
LINE
  8
0
 62
     0
 10
316.657
 20
120.383
 30
0.0
 11
316.657
 21
121.382
 31
0.0
  0
LINE
  8
0
 62
     0
 10
316.657
 20
121.382
 30
0.0
 11
302.657
 21
121.382
 31
0.0
  0
LINE
  8
0
 62
     0
 10
321.707
 20
121.382
 30
0.0
 11
321.707
 21
120.383
 31
0.0
  0
LINE
  8
0
 62
     0
 10
321.707
 20
120.383
 30
0.0
 11
320.906
 21
120.383
 31
0.0
  0
LINE
  8
0
 62
     0
 10
320.906
 20
120.383
 30
0.0
 11
320.906
 21
117.282
 31
0.0
  0
LINE
  8
0
 62
     0
 10
320.906
 20
117.282
 30
0.0
 11
321.707
 21
117.282
 31
0.0
  0
LINE
  8
0
 62
     0
 10
321.707
 20
117.282
 30
0.0
 11
321.707
 21
111.482
 31
0.0
  0
LINE
  8
0
 62
     0
 10
321.707
 20
111.482
 30
0.0
 11
320.906
 21
111.482
 31
0.0
  0
LINE
  8
0
 62
     0
 10
320.906
 20
111.482
 30
0.0
 11
320.906
 21
108.383
 31
0.0
  0
LINE
  8
0
 62
     0
 10
320.906
 20
108.383
 30
0.0
 11
321.707
 21
108.383
 31
0.0
  0
LINE
  8
0
 62
     0
 10
321.707
 20
108.383
 30
0.0
 11
321.707
 21
107.382
 31
0.0
  0
LINE
  8
0
 62
     0
 10
321.707
 20
107.382
 30
0.0
 11
335.707
 21
107.382
 31
0.0
  0
LINE
  8
0
 62
     0
 10
335.707
 20
107.382
 30
0.0
 11
335.707
 21
108.383
 31
0.0
  0
LINE
  8
0
 62
     0
 10
335.707
 20
108.383
 30
0.0
 11
336.506
 21
108.383
 31
0.0
  0
LINE
  8
0
 62
     0
 10
336.506
 20
108.383
 30
0.0
 11
336.506
 21
111.482
 31
0.0
  0
LINE
  8
0
 62
     0
 10
336.506
 20
111.482
 30
0.0
 11
335.707
 21
111.482
 31
0.0
  0
LINE
  8
0
 62
     0
 10
335.707
 20
111.482
 30
0.0
 11
335.707
 21
117.282
 31
0.0
  0
LINE
  8
0
 62
     0
 10
335.707
 20
117.282
 30
0.0
 11
336.506
 21
117.282
 31
0.0
  0
LINE
  8
0
 62
     0
 10
336.506
 20
117.282
 30
0.0
 11
336.506
 21
120.383
 31
0.0
  0
LINE
  8
0
 62
     0
 10
336.506
 20
120.383
 30
0.0
 11
335.707
 21
120.383
 31
0.0
  0
LINE
  8
0
 62
     0
 10
335.707
 20
120.383
 30
0.0
 11
335.707
 21
121.382
 31
0.0
  0
LINE
  8
0
 62
     0
 10
335.707
 20
121.382
 30
0.0
 11
321.707
 21
121.382
 31
0.0
  0
LINE
  8
0
 62
     0
 10
383.621
 20
121.382
 30
0.0
 11
383.621
 21
120.383
 31
0.0
  0
LINE
  8
0
 62
     0
 10
383.621
 20
120.383
 30
0.0
 11
382.82
 21
120.383
 31
0.0
  0
LINE
  8
0
 62
     0
 10
382.82
 20
120.383
 30
0.0
 11
382.82
 21
117.282
 31
0.0
  0
LINE
  8
0
 62
     0
 10
382.82
 20
117.282
 30
0.0
 11
383.621
 21
117.282
 31
0.0
  0
LINE
  8
0
 62
     0
 10
383.621
 20
117.282
 30
0.0
 11
383.621
 21
111.482
 31
0.0
  0
LINE
  8
0
 62
     0
 10
383.621
 20
111.482
 30
0.0
 11
382.82
 21
111.482
 31
0.0
  0
LINE
  8
0
 62
     0
 10
382.82
 20
111.482
 30
0.0
 11
382.82
 21
108.383
 31
0.0
  0
LINE
  8
0
 62
     0
 10
382.82
 20
108.383
 30
0.0
 11
383.621
 21
108.383
 31
0.0
  0
LINE
  8
0
 62
     0
 10
383.621
 20
108.383
 30
0.0
 11
383.621
 21
107.382
 31
0.0
  0
LINE
  8
0
 62
     0
 10
383.621
 20
107.382
 30
0.0
 11
397.619
 21
107.382
 31
0.0
  0
LINE
  8
0
 62
     0
 10
397.619
 20
107.382
 30
0.0
 11
397.619
 21
108.383
 31
0.0
  0
LINE
  8
0
 62
     0
 10
397.619
 20
108.383
 30
0.0
 11
398.42
 21
108.383
 31
0.0
  0
LINE
  8
0
 62
     0
 10
398.42
 20
108.383
 30
0.0
 11
398.42
 21
111.482
 31
0.0
  0
LINE
  8
0
 62
     0
 10
398.42
 20
111.482
 30
0.0
 11
397.619
 21
111.482
 31
0.0
  0
LINE
  8
0
 62
     0
 10
397.619
 20
111.482
 30
0.0
 11
397.619
 21
117.282
 31
0.0
  0
LINE
  8
0
 62
     0
 10
397.619
 20
117.282
 30
0.0
 11
398.42
 21
117.282
 31
0.0
  0
LINE
  8
0
 62
     0
 10
398.42
 20
117.282
 30
0.0
 11
398.42
 21
120.383
 31
0.0
  0
LINE
  8
0
 62
     0
 10
398.42
 20
120.383
 30
0.0
 11
397.619
 21
120.383
 31
0.0
  0
LINE
  8
0
 62
     0
 10
397.619
 20
120.383
 30
0.0
 11
397.619
 21
121.382
 31
0.0
  0
LINE
  8
0
 62
     0
 10
397.619
 20
121.382
 30
0.0
 11
383.621
 21
121.382
 31
0.0
  0
LINE
  8
0
 62
     0
 10
207.407
 20
145.194
 30
0.0
 11
207.407
 21
144.194
 31
0.0
  0
LINE
  8
0
 62
     0
 10
207.407
 20
144.194
 30
0.0
 11
206.606
 21
144.194
 31
0.0
  0
LINE
  8
0
 62
     0
 10
206.606
 20
144.194
 30
0.0
 11
206.606
 21
141.095
 31
0.0
  0
LINE
  8
0
 62
     0
 10
206.606
 20
141.095
 30
0.0
 11
207.407
 21
141.095
 31
0.0
  0
LINE
  8
0
 62
     0
 10
207.407
 20
141.095
 30
0.0
 11
207.407
 21
135.295
 31
0.0
  0
LINE
  8
0
 62
     0
 10
207.407
 20
135.295
 30
0.0
 11
206.606
 21
135.295
 31
0.0
  0
LINE
  8
0
 62
     0
 10
206.606
 20
135.295
 30
0.0
 11
206.606
 21
132.194
 31
0.0
  0
LINE
  8
0
 62
     0
 10
206.606
 20
132.194
 30
0.0
 11
207.407
 21
132.194
 31
0.0
  0
LINE
  8
0
 62
     0
 10
207.407
 20
132.194
 30
0.0
 11
207.407
 21
131.195
 31
0.0
  0
LINE
  8
0
 62
     0
 10
207.407
 20
131.195
 30
0.0
 11
221.407
 21
131.195
 31
0.0
  0
LINE
  8
0
 62
     0
 10
221.407
 20
131.195
 30
0.0
 11
221.407
 21
132.194
 31
0.0
  0
LINE
  8
0
 62
     0
 10
221.407
 20
132.194
 30
0.0
 11
222.206
 21
132.194
 31
0.0
  0
LINE
  8
0
 62
     0
 10
222.206
 20
132.194
 30
0.0
 11
222.206
 21
135.295
 31
0.0
  0
LINE
  8
0
 62
     0
 10
222.206
 20
135.295
 30
0.0
 11
221.407
 21
135.295
 31
0.0
  0
LINE
  8
0
 62
     0
 10
221.407
 20
135.295
 30
0.0
 11
221.407
 21
141.095
 31
0.0
  0
LINE
  8
0
 62
     0
 10
221.407
 20
141.095
 30
0.0
 11
222.206
 21
141.095
 31
0.0
  0
LINE
  8
0
 62
     0
 10
222.206
 20
141.095
 30
0.0
 11
222.206
 21
144.194
 31
0.0
  0
LINE
  8
0
 62
     0
 10
222.206
 20
144.194
 30
0.0
 11
221.407
 21
144.194
 31
0.0
  0
LINE
  8
0
 62
     0
 10
221.407
 20
144.194
 30
0.0
 11
221.407
 21
145.194
 31
0.0
  0
LINE
  8
0
 62
     0
 10
221.407
 20
145.194
 30
0.0
 11
207.407
 21
145.194
 31
0.0
  0
LINE
  8
0
 62
     0
 10
226.457
 20
145.194
 30
0.0
 11
226.457
 21
144.194
 31
0.0
  0
LINE
  8
0
 62
     0
 10
226.457
 20
144.194
 30
0.0
 11
225.656
 21
144.194
 31
0.0
  0
LINE
  8
0
 62
     0
 10
225.656
 20
144.194
 30
0.0
 11
225.656
 21
141.095
 31
0.0
  0
LINE
  8
0
 62
     0
 10
225.656
 20
141.095
 30
0.0
 11
226.457
 21
141.095
 31
0.0
  0
LINE
  8
0
 62
     0
 10
226.457
 20
141.095
 30
0.0
 11
226.457
 21
135.295
 31
0.0
  0
LINE
  8
0
 62
     0
 10
226.457
 20
135.295
 30
0.0
 11
225.656
 21
135.295
 31
0.0
  0
LINE
  8
0
 62
     0
 10
225.656
 20
135.295
 30
0.0
 11
225.656
 21
132.194
 31
0.0
  0
LINE
  8
0
 62
     0
 10
225.656
 20
132.194
 30
0.0
 11
226.457
 21
132.194
 31
0.0
  0
LINE
  8
0
 62
     0
 10
226.457
 20
132.194
 30
0.0
 11
226.457
 21
131.195
 31
0.0
  0
LINE
  8
0
 62
     0
 10
226.457
 20
131.195
 30
0.0
 11
240.457
 21
131.195
 31
0.0
  0
LINE
  8
0
 62
     0
 10
240.457
 20
131.195
 30
0.0
 11
240.457
 21
132.194
 31
0.0
  0
LINE
  8
0
 62
     0
 10
240.457
 20
132.194
 30
0.0
 11
241.256
 21
132.194
 31
0.0
  0
LINE
  8
0
 62
     0
 10
241.256
 20
132.194
 30
0.0
 11
241.256
 21
135.295
 31
0.0
  0
LINE
  8
0
 62
     0
 10
241.256
 20
135.295
 30
0.0
 11
240.457
 21
135.295
 31
0.0
  0
LINE
  8
0
 62
     0
 10
240.457
 20
135.295
 30
0.0
 11
240.457
 21
141.095
 31
0.0
  0
LINE
  8
0
 62
     0
 10
240.457
 20
141.095
 30
0.0
 11
241.256
 21
141.095
 31
0.0
  0
LINE
  8
0
 62
     0
 10
241.256
 20
141.095
 30
0.0
 11
241.256
 21
144.194
 31
0.0
  0
LINE
  8
0
 62
     0
 10
241.256
 20
144.194
 30
0.0
 11
240.457
 21
144.194
 31
0.0
  0
LINE
  8
0
 62
     0
 10
240.457
 20
144.194
 30
0.0
 11
240.457
 21
145.194
 31
0.0
  0
LINE
  8
0
 62
     0
 10
240.457
 20
145.194
 30
0.0
 11
226.457
 21
145.194
 31
0.0
  0
LINE
  8
0
 62
     0
 10
245.507
 20
145.194
 30
0.0
 11
245.507
 21
144.194
 31
0.0
  0
LINE
  8
0
 62
     0
 10
245.507
 20
144.194
 30
0.0
 11
244.706
 21
144.194
 31
0.0
  0
LINE
  8
0
 62
     0
 10
244.706
 20
144.194
 30
0.0
 11
244.706
 21
141.095
 31
0.0
  0
LINE
  8
0
 62
     0
 10
244.706
 20
141.095
 30
0.0
 11
245.507
 21
141.095
 31
0.0
  0
LINE
  8
0
 62
     0
 10
245.507
 20
141.095
 30
0.0
 11
245.507
 21
135.295
 31
0.0
  0
LINE
  8
0
 62
     0
 10
245.507
 20
135.295
 30
0.0
 11
244.706
 21
135.295
 31
0.0
  0
LINE
  8
0
 62
     0
 10
244.706
 20
135.295
 30
0.0
 11
244.706
 21
132.194
 31
0.0
  0
LINE
  8
0
 62
     0
 10
244.706
 20
132.194
 30
0.0
 11
245.507
 21
132.194
 31
0.0
  0
LINE
  8
0
 62
     0
 10
245.507
 20
132.194
 30
0.0
 11
245.507
 21
131.195
 31
0.0
  0
LINE
  8
0
 62
     0
 10
245.507
 20
131.195
 30
0.0
 11
259.507
 21
131.195
 31
0.0
  0
LINE
  8
0
 62
     0
 10
259.507
 20
131.195
 30
0.0
 11
259.507
 21
132.194
 31
0.0
  0
LINE
  8
0
 62
     0
 10
259.507
 20
132.194
 30
0.0
 11
260.306
 21
132.194
 31
0.0
  0
LINE
  8
0
 62
     0
 10
260.306
 20
132.194
 30
0.0
 11
260.306
 21
135.295
 31
0.0
  0
LINE
  8
0
 62
     0
 10
260.306
 20
135.295
 30
0.0
 11
259.507
 21
135.295
 31
0.0
  0
LINE
  8
0
 62
     0
 10
259.507
 20
135.295
 30
0.0
 11
259.507
 21
141.095
 31
0.0
  0
LINE
  8
0
 62
     0
 10
259.507
 20
141.095
 30
0.0
 11
260.306
 21
141.095
 31
0.0
  0
LINE
  8
0
 62
     0
 10
260.306
 20
141.095
 30
0.0
 11
260.306
 21
144.194
 31
0.0
  0
LINE
  8
0
 62
     0
 10
260.306
 20
144.194
 30
0.0
 11
259.507
 21
144.194
 31
0.0
  0
LINE
  8
0
 62
     0
 10
259.507
 20
144.194
 30
0.0
 11
259.507
 21
145.194
 31
0.0
  0
LINE
  8
0
 62
     0
 10
259.507
 20
145.194
 30
0.0
 11
245.507
 21
145.194
 31
0.0
  0
LINE
  8
0
 62
     0
 10
264.557
 20
145.194
 30
0.0
 11
264.557
 21
144.194
 31
0.0
  0
LINE
  8
0
 62
     0
 10
264.557
 20
144.194
 30
0.0
 11
263.756
 21
144.194
 31
0.0
  0
LINE
  8
0
 62
     0
 10
263.756
 20
144.194
 30
0.0
 11
263.756
 21
141.095
 31
0.0
  0
LINE
  8
0
 62
     0
 10
263.756
 20
141.095
 30
0.0
 11
264.557
 21
141.095
 31
0.0
  0
LINE
  8
0
 62
     0
 10
264.557
 20
141.095
 30
0.0
 11
264.557
 21
135.295
 31
0.0
  0
LINE
  8
0
 62
     0
 10
264.557
 20
135.295
 30
0.0
 11
263.756
 21
135.295
 31
0.0
  0
LINE
  8
0
 62
     0
 10
263.756
 20
135.295
 30
0.0
 11
263.756
 21
132.194
 31
0.0
  0
LINE
  8
0
 62
     0
 10
263.756
 20
132.194
 30
0.0
 11
264.557
 21
132.194
 31
0.0
  0
LINE
  8
0
 62
     0
 10
264.557
 20
132.194
 30
0.0
 11
264.557
 21
131.195
 31
0.0
  0
LINE
  8
0
 62
     0
 10
264.557
 20
131.195
 30
0.0
 11
278.557
 21
131.195
 31
0.0
  0
LINE
  8
0
 62
     0
 10
278.557
 20
131.195
 30
0.0
 11
278.557
 21
132.194
 31
0.0
  0
LINE
  8
0
 62
     0
 10
278.557
 20
132.194
 30
0.0
 11
279.356
 21
132.194
 31
0.0
  0
LINE
  8
0
 62
     0
 10
279.356
 20
132.194
 30
0.0
 11
279.356
 21
135.295
 31
0.0
  0
LINE
  8
0
 62
     0
 10
279.356
 20
135.295
 30
0.0
 11
278.557
 21
135.295
 31
0.0
  0
LINE
  8
0
 62
     0
 10
278.557
 20
135.295
 30
0.0
 11
278.557
 21
141.095
 31
0.0
  0
LINE
  8
0
 62
     0
 10
278.557
 20
141.095
 30
0.0
 11
279.356
 21
141.095
 31
0.0
  0
LINE
  8
0
 62
     0
 10
279.356
 20
141.095
 30
0.0
 11
279.356
 21
144.194
 31
0.0
  0
LINE
  8
0
 62
     0
 10
279.356
 20
144.194
 30
0.0
 11
278.557
 21
144.194
 31
0.0
  0
LINE
  8
0
 62
     0
 10
278.557
 20
144.194
 30
0.0
 11
278.557
 21
145.194
 31
0.0
  0
LINE
  8
0
 62
     0
 10
278.557
 20
145.194
 30
0.0
 11
264.557
 21
145.194
 31
0.0
  0
LINE
  8
0
 62
     0
 10
283.607
 20
145.194
 30
0.0
 11
283.607
 21
144.194
 31
0.0
  0
LINE
  8
0
 62
     0
 10
283.607
 20
144.194
 30
0.0
 11
282.806
 21
144.194
 31
0.0
  0
LINE
  8
0
 62
     0
 10
282.806
 20
144.194
 30
0.0
 11
282.806
 21
141.095
 31
0.0
  0
LINE
  8
0
 62
     0
 10
282.806
 20
141.095
 30
0.0
 11
283.607
 21
141.095
 31
0.0
  0
LINE
  8
0
 62
     0
 10
283.607
 20
141.095
 30
0.0
 11
283.607
 21
135.295
 31
0.0
  0
LINE
  8
0
 62
     0
 10
283.607
 20
135.295
 30
0.0
 11
282.806
 21
135.295
 31
0.0
  0
LINE
  8
0
 62
     0
 10
282.806
 20
135.295
 30
0.0
 11
282.806
 21
132.194
 31
0.0
  0
LINE
  8
0
 62
     0
 10
282.806
 20
132.194
 30
0.0
 11
283.607
 21
132.194
 31
0.0
  0
LINE
  8
0
 62
     0
 10
283.607
 20
132.194
 30
0.0
 11
283.607
 21
131.195
 31
0.0
  0
LINE
  8
0
 62
     0
 10
283.607
 20
131.195
 30
0.0
 11
297.607
 21
131.195
 31
0.0
  0
LINE
  8
0
 62
     0
 10
297.607
 20
131.195
 30
0.0
 11
297.607
 21
132.194
 31
0.0
  0
LINE
  8
0
 62
     0
 10
297.607
 20
132.194
 30
0.0
 11
298.406
 21
132.194
 31
0.0
  0
LINE
  8
0
 62
     0
 10
298.406
 20
132.194
 30
0.0
 11
298.406
 21
135.295
 31
0.0
  0
LINE
  8
0
 62
     0
 10
298.406
 20
135.295
 30
0.0
 11
297.607
 21
135.295
 31
0.0
  0
LINE
  8
0
 62
     0
 10
297.607
 20
135.295
 30
0.0
 11
297.607
 21
141.095
 31
0.0
  0
LINE
  8
0
 62
     0
 10
297.607
 20
141.095
 30
0.0
 11
298.406
 21
141.095
 31
0.0
  0
LINE
  8
0
 62
     0
 10
298.406
 20
141.095
 30
0.0
 11
298.406
 21
144.194
 31
0.0
  0
LINE
  8
0
 62
     0
 10
298.406
 20
144.194
 30
0.0
 11
297.607
 21
144.194
 31
0.0
  0
LINE
  8
0
 62
     0
 10
297.607
 20
144.194
 30
0.0
 11
297.607
 21
145.194
 31
0.0
  0
LINE
  8
0
 62
     0
 10
297.607
 20
145.194
 30
0.0
 11
283.607
 21
145.194
 31
0.0
  0
LINE
  8
0
 62
     0
 10
302.657
 20
145.194
 30
0.0
 11
302.657
 21
144.194
 31
0.0
  0
LINE
  8
0
 62
     0
 10
302.657
 20
144.194
 30
0.0
 11
301.856
 21
144.194
 31
0.0
  0
LINE
  8
0
 62
     0
 10
301.856
 20
144.194
 30
0.0
 11
301.856
 21
141.095
 31
0.0
  0
LINE
  8
0
 62
     0
 10
301.856
 20
141.095
 30
0.0
 11
302.657
 21
141.095
 31
0.0
  0
LINE
  8
0
 62
     0
 10
302.657
 20
141.095
 30
0.0
 11
302.657
 21
135.295
 31
0.0
  0
LINE
  8
0
 62
     0
 10
302.657
 20
135.295
 30
0.0
 11
301.856
 21
135.295
 31
0.0
  0
LINE
  8
0
 62
     0
 10
301.856
 20
135.295
 30
0.0
 11
301.856
 21
132.194
 31
0.0
  0
LINE
  8
0
 62
     0
 10
301.856
 20
132.194
 30
0.0
 11
302.657
 21
132.194
 31
0.0
  0
LINE
  8
0
 62
     0
 10
302.657
 20
132.194
 30
0.0
 11
302.657
 21
131.195
 31
0.0
  0
LINE
  8
0
 62
     0
 10
302.657
 20
131.195
 30
0.0
 11
316.657
 21
131.195
 31
0.0
  0
LINE
  8
0
 62
     0
 10
316.657
 20
131.195
 30
0.0
 11
316.657
 21
132.194
 31
0.0
  0
LINE
  8
0
 62
     0
 10
316.657
 20
132.194
 30
0.0
 11
317.456
 21
132.194
 31
0.0
  0
LINE
  8
0
 62
     0
 10
317.456
 20
132.194
 30
0.0
 11
317.456
 21
135.295
 31
0.0
  0
LINE
  8
0
 62
     0
 10
317.456
 20
135.295
 30
0.0
 11
316.657
 21
135.295
 31
0.0
  0
LINE
  8
0
 62
     0
 10
316.657
 20
135.295
 30
0.0
 11
316.657
 21
141.095
 31
0.0
  0
LINE
  8
0
 62
     0
 10
316.657
 20
141.095
 30
0.0
 11
317.456
 21
141.095
 31
0.0
  0
LINE
  8
0
 62
     0
 10
317.456
 20
141.095
 30
0.0
 11
317.456
 21
144.194
 31
0.0
  0
LINE
  8
0
 62
     0
 10
317.456
 20
144.194
 30
0.0
 11
316.657
 21
144.194
 31
0.0
  0
LINE
  8
0
 62
     0
 10
316.657
 20
144.194
 30
0.0
 11
316.657
 21
145.194
 31
0.0
  0
LINE
  8
0
 62
     0
 10
316.657
 20
145.194
 30
0.0
 11
302.657
 21
145.194
 31
0.0
  0
LINE
  8
0
 62
     0
 10
321.707
 20
145.194
 30
0.0
 11
321.707
 21
144.194
 31
0.0
  0
LINE
  8
0
 62
     0
 10
321.707
 20
144.194
 30
0.0
 11
320.906
 21
144.194
 31
0.0
  0
LINE
  8
0
 62
     0
 10
320.906
 20
144.194
 30
0.0
 11
320.906
 21
141.095
 31
0.0
  0
LINE
  8
0
 62
     0
 10
320.906
 20
141.095
 30
0.0
 11
321.707
 21
141.095
 31
0.0
  0
LINE
  8
0
 62
     0
 10
321.707
 20
141.095
 30
0.0
 11
321.707
 21
135.295
 31
0.0
  0
LINE
  8
0
 62
     0
 10
321.707
 20
135.295
 30
0.0
 11
320.906
 21
135.295
 31
0.0
  0
LINE
  8
0
 62
     0
 10
320.906
 20
135.295
 30
0.0
 11
320.906
 21
132.194
 31
0.0
  0
LINE
  8
0
 62
     0
 10
320.906
 20
132.194
 30
0.0
 11
321.707
 21
132.194
 31
0.0
  0
LINE
  8
0
 62
     0
 10
321.707
 20
132.194
 30
0.0
 11
321.707
 21
131.195
 31
0.0
  0
LINE
  8
0
 62
     0
 10
321.707
 20
131.195
 30
0.0
 11
335.707
 21
131.195
 31
0.0
  0
LINE
  8
0
 62
     0
 10
335.707
 20
131.195
 30
0.0
 11
335.707
 21
132.194
 31
0.0
  0
LINE
  8
0
 62
     0
 10
335.707
 20
132.194
 30
0.0
 11
336.506
 21
132.194
 31
0.0
  0
LINE
  8
0
 62
     0
 10
336.506
 20
132.194
 30
0.0
 11
336.506
 21
135.295
 31
0.0
  0
LINE
  8
0
 62
     0
 10
336.506
 20
135.295
 30
0.0
 11
335.707
 21
135.295
 31
0.0
  0
LINE
  8
0
 62
     0
 10
335.707
 20
135.295
 30
0.0
 11
335.707
 21
141.095
 31
0.0
  0
LINE
  8
0
 62
     0
 10
335.707
 20
141.095
 30
0.0
 11
336.506
 21
141.095
 31
0.0
  0
LINE
  8
0
 62
     0
 10
336.506
 20
141.095
 30
0.0
 11
336.506
 21
144.194
 31
0.0
  0
LINE
  8
0
 62
     0
 10
336.506
 20
144.194
 30
0.0
 11
335.707
 21
144.194
 31
0.0
  0
LINE
  8
0
 62
     0
 10
335.707
 20
144.194
 30
0.0
 11
335.707
 21
145.194
 31
0.0
  0
LINE
  8
0
 62
     0
 10
335.707
 20
145.194
 30
0.0
 11
321.707
 21
145.194
 31
0.0
  0
LINE
  8
0
 62
     0
 10
340.757
 20
145.194
 30
0.0
 11
340.757
 21
144.194
 31
0.0
  0
LINE
  8
0
 62
     0
 10
340.757
 20
144.194
 30
0.0
 11
339.956
 21
144.194
 31
0.0
  0
LINE
  8
0
 62
     0
 10
339.956
 20
144.194
 30
0.0
 11
339.956
 21
141.095
 31
0.0
  0
LINE
  8
0
 62
     0
 10
339.956
 20
141.095
 30
0.0
 11
340.757
 21
141.095
 31
0.0
  0
LINE
  8
0
 62
     0
 10
340.757
 20
141.095
 30
0.0
 11
340.757
 21
135.295
 31
0.0
  0
LINE
  8
0
 62
     0
 10
340.757
 20
135.295
 30
0.0
 11
339.956
 21
135.295
 31
0.0
  0
LINE
  8
0
 62
     0
 10
339.956
 20
135.295
 30
0.0
 11
339.956
 21
132.194
 31
0.0
  0
LINE
  8
0
 62
     0
 10
339.956
 20
132.194
 30
0.0
 11
340.757
 21
132.194
 31
0.0
  0
LINE
  8
0
 62
     0
 10
340.757
 20
132.194
 30
0.0
 11
340.757
 21
131.195
 31
0.0
  0
LINE
  8
0
 62
     0
 10
340.757
 20
131.195
 30
0.0
 11
354.757
 21
131.195
 31
0.0
  0
LINE
  8
0
 62
     0
 10
354.757
 20
131.195
 30
0.0
 11
354.757
 21
132.194
 31
0.0
  0
LINE
  8
0
 62
     0
 10
354.757
 20
132.194
 30
0.0
 11
355.558
 21
132.194
 31
0.0
  0
LINE
  8
0
 62
     0
 10
355.558
 20
132.194
 30
0.0
 11
355.558
 21
135.295
 31
0.0
  0
LINE
  8
0
 62
     0
 10
355.558
 20
135.295
 30
0.0
 11
354.757
 21
135.295
 31
0.0
  0
LINE
  8
0
 62
     0
 10
354.757
 20
135.295
 30
0.0
 11
354.757
 21
141.095
 31
0.0
  0
LINE
  8
0
 62
     0
 10
354.757
 20
141.095
 30
0.0
 11
355.558
 21
141.095
 31
0.0
  0
LINE
  8
0
 62
     0
 10
355.558
 20
141.095
 30
0.0
 11
355.558
 21
144.194
 31
0.0
  0
LINE
  8
0
 62
     0
 10
355.558
 20
144.194
 30
0.0
 11
354.757
 21
144.194
 31
0.0
  0
LINE
  8
0
 62
     0
 10
354.757
 20
144.194
 30
0.0
 11
354.757
 21
145.194
 31
0.0
  0
LINE
  8
0
 62
     0
 10
354.757
 20
145.194
 30
0.0
 11
340.757
 21
145.194
 31
0.0
  0
LINE
  8
0
 62
     0
 10
359.809
 20
145.194
 30
0.0
 11
359.809
 21
144.194
 31
0.0
  0
LINE
  8
0
 62
     0
 10
359.809
 20
144.194
 30
0.0
 11
359.008
 21
144.194
 31
0.0
  0
LINE
  8
0
 62
     0
 10
359.008
 20
144.194
 30
0.0
 11
359.008
 21
141.095
 31
0.0
  0
LINE
  8
0
 62
     0
 10
359.008
 20
141.095
 30
0.0
 11
359.809
 21
141.095
 31
0.0
  0
LINE
  8
0
 62
     0
 10
359.809
 20
141.095
 30
0.0
 11
359.809
 21
135.295
 31
0.0
  0
LINE
  8
0
 62
     0
 10
359.809
 20
135.295
 30
0.0
 11
359.008
 21
135.295
 31
0.0
  0
LINE
  8
0
 62
     0
 10
359.008
 20
135.295
 30
0.0
 11
359.008
 21
132.194
 31
0.0
  0
LINE
  8
0
 62
     0
 10
359.008
 20
132.194
 30
0.0
 11
359.809
 21
132.194
 31
0.0
  0
LINE
  8
0
 62
     0
 10
359.809
 20
132.194
 30
0.0
 11
359.809
 21
131.195
 31
0.0
  0
LINE
  8
0
 62
     0
 10
359.809
 20
131.195
 30
0.0
 11
373.807
 21
131.195
 31
0.0
  0
LINE
  8
0
 62
     0
 10
373.807
 20
131.195
 30
0.0
 11
373.807
 21
132.194
 31
0.0
  0
LINE
  8
0
 62
     0
 10
373.807
 20
132.194
 30
0.0
 11
374.608
 21
132.194
 31
0.0
  0
LINE
  8
0
 62
     0
 10
374.608
 20
132.194
 30
0.0
 11
374.608
 21
135.295
 31
0.0
  0
LINE
  8
0
 62
     0
 10
374.608
 20
135.295
 30
0.0
 11
373.807
 21
135.295
 31
0.0
  0
LINE
  8
0
 62
     0
 10
373.807
 20
135.295
 30
0.0
 11
373.807
 21
141.095
 31
0.0
  0
LINE
  8
0
 62
     0
 10
373.807
 20
141.095
 30
0.0
 11
374.608
 21
141.095
 31
0.0
  0
LINE
  8
0
 62
     0
 10
374.608
 20
141.095
 30
0.0
 11
374.608
 21
144.194
 31
0.0
  0
LINE
  8
0
 62
     0
 10
374.608
 20
144.194
 30
0.0
 11
373.807
 21
144.194
 31
0.0
  0
LINE
  8
0
 62
     0
 10
373.807
 20
144.194
 30
0.0
 11
373.807
 21
145.194
 31
0.0
  0
LINE
  8
0
 62
     0
 10
373.807
 20
145.194
 30
0.0
 11
359.809
 21
145.194
 31
0.0
  0
LINE
  8
0
 62
     0
 10
383.621
 20
145.194
 30
0.0
 11
383.621
 21
144.194
 31
0.0
  0
LINE
  8
0
 62
     0
 10
383.621
 20
144.194
 30
0.0
 11
382.82
 21
144.194
 31
0.0
  0
LINE
  8
0
 62
     0
 10
382.82
 20
144.194
 30
0.0
 11
382.82
 21
141.095
 31
0.0
  0
LINE
  8
0
 62
     0
 10
382.82
 20
141.095
 30
0.0
 11
383.621
 21
141.095
 31
0.0
  0
LINE
  8
0
 62
     0
 10
383.621
 20
141.095
 30
0.0
 11
383.621
 21
135.295
 31
0.0
  0
LINE
  8
0
 62
     0
 10
383.621
 20
135.295
 30
0.0
 11
382.82
 21
135.295
 31
0.0
  0
LINE
  8
0
 62
     0
 10
382.82
 20
135.295
 30
0.0
 11
382.82
 21
132.194
 31
0.0
  0
LINE
  8
0
 62
     0
 10
382.82
 20
132.194
 30
0.0
 11
383.621
 21
132.194
 31
0.0
  0
LINE
  8
0
 62
     0
 10
383.621
 20
132.194
 30
0.0
 11
383.621
 21
131.195
 31
0.0
  0
LINE
  8
0
 62
     0
 10
383.621
 20
131.195
 30
0.0
 11
397.619
 21
131.195
 31
0.0
  0
LINE
  8
0
 62
     0
 10
397.619
 20
131.195
 30
0.0
 11
397.619
 21
132.194
 31
0.0
  0
LINE
  8
0
 62
     0
 10
397.619
 20
132.194
 30
0.0
 11
398.42
 21
132.194
 31
0.0
  0
LINE
  8
0
 62
     0
 10
398.42
 20
132.194
 30
0.0
 11
398.42
 21
135.295
 31
0.0
  0
LINE
  8
0
 62
     0
 10
398.42
 20
135.295
 30
0.0
 11
397.619
 21
135.295
 31
0.0
  0
LINE
  8
0
 62
     0
 10
397.619
 20
135.295
 30
0.0
 11
397.619
 21
141.095
 31
0.0
  0
LINE
  8
0
 62
     0
 10
397.619
 20
141.095
 30
0.0
 11
398.42
 21
141.095
 31
0.0
  0
LINE
  8
0
 62
     0
 10
398.42
 20
141.095
 30
0.0
 11
398.42
 21
144.194
 31
0.0
  0
LINE
  8
0
 62
     0
 10
398.42
 20
144.194
 30
0.0
 11
397.619
 21
144.194
 31
0.0
  0
LINE
  8
0
 62
     0
 10
397.619
 20
144.194
 30
0.0
 11
397.619
 21
145.194
 31
0.0
  0
LINE
  8
0
 62
     0
 10
397.619
 20
145.194
 30
0.0
 11
383.621
 21
145.194
 31
0.0
  0
ENDSEC
  0
EOF
