999
dxfrw 0.6.3
  0
SECTION
  2
HEADER
  9
$ACADVER
  1
AC1021
  9
$DWGCODEPAGE
  3
ANSI_1252
  9
$INSBASE
 10
0
 20
0
 30
0
  9
$EXTMIN
 10
0.09508460000000001
 20
0.423058
 30
0
  9
$EXTMAX
 10
400.145
 20
147.719
 30
0
  9
$LIMMIN
 10
0
 20
0
  9
$LIMMAX
 10
420
 20
297
  9
$ORTHOMODE
 70
    0
  9
$REGENMODE
 70
    1
  9
$FILLMODE
 70
    0
  9
$QTEXTMODE
 70
    0
  9
$MIRRTEXT
 70
    0
  9
$LTSCALE
 40
1
  9
$ATTMODE
 70
    0
  9
$TEXTSIZE
 40
2.5
  9
$TRACEWID
 40
15.68
  9
$TEXTSTYLE
  7
STANDARD
  9
$CLAYER
  8
0
  9
$CELTYPE
  6
BYLAYER
  9
$CECOLOR
 62
  256
  9
$CELTSCALE
 40
1
  9
$DISPSILH
 70
    0
  9
$DIMSCALE
 40
2.5
  9
$DIMASZ
 40
2.5
  9
$DIMEXO
 40
0.625
  9
$DIMDLI
 40
3.75
  9
$DIMRND
 40
0
  9
$DIMDLE
 40
0
  9
$DIMEXE
 40
1.25
  9
$DIMTP
 40
0
  9
$DIMTM
 40
0
  9
$DIMTXT
 40
2.5
  9
$DIMCEN
 40
2.5
  9
$DIMTSZ
 40
0
  9
$DIMTOL
 70
    0
  9
$DIMLIM
 70
    0
  9
$DIMTIH
 70
    0
  9
$DIMTOH
 70
    0
  9
$DIMSE1
 70
    0
  9
$DIMSE2
 70
    0
  9
$DIMTAD
 70
    1
  9
$DIMZIN
 70
    8
  9
$DIMBLK
  1

  9
$DIMASO
 70
    1
  9
$DIMSHO
 70
    1
  9
$DIMPOST
  1

  9
$DIMAPOST
  1

  9
$DIMALT
 70
    0
  9
$DIMALTD
 70
    3
  9
$DIMALTF
 40
0.03937
  9
$DIMLFAC
 40
1
  9
$DIMTOFL
 70
    1
  9
$DIMTVP
 40
0
  9
$DIMTIX
 70
    0
  9
$DIMSOXD
 70
    0
  9
$DIMSAH
 70
    0
  9
$DIMBLK1
  1

  9
$DIMBLK2
  1

  9
$DIMSTYLE
  2
Standard
  9
$DIMCLRD
 70
    0
  9
$DIMCLRE
 70
    0
  9
$DIMCLRT
 70
    0
  9
$DIMTFAC
 40
1
  9
$DIMGAP
 40
0.625
  9
$DIMJUST
 70
    0
  9
$DIMSD1
 70
    0
  9
$DIMSD2
 70
    0
  9
$DIMTOLJ
 70
    0
  9
$DIMTZIN
 70
    8
  9
$DIMALTZ
 70
    0
  9
$DIMALTTZ
 70
    0
  9
$DIMUPT
 70
    0
  9
$DIMDEC
 70
    2
  9
$DIMTDEC
 70
    2
  9
$DIMALTU
 70
    2
  9
$DIMALTTD
 70
    3
  9
$DIMTXSTY
  7
STANDARD
  9
$DIMAUNIT
 70
    0
  9
$DIMADEC
 70
    0
  9
$DIMALTRND
 40
0
  9
$DIMAZIN
 70
    0
  9
$DIMDSEP
 70
   44
  9
$DIMATFIT
 70
    3
  9
$DIMFRAC
 70
    0
  9
$DIMLDRBLK
  1
STANDARD
  9
$DIMLUNIT
 70
    2
  9
$DIMLWD
 70
   -2
  9
$DIMLWE
 70
   -2
  9
$DIMTMOVE
 70
    0
  9
$DIMFXL
 40
1
  9
$DIMFXLON
 70
    0
  9
$DIMJOGANG
 40
0.7854
  9
$DIMTFILL
 70
    0
  9
$DIMTFILLCLR
 70
    0
  9
$DIMARCSYM
 70
    0
  9
$DIMLTYPE
  6

  9
$DIMLTEX1
  6

  9
$DIMLTEX2
  6

  9
$LUNITS
 70
    2
  9
$LUPREC
 70
    4
  9
$SKETCHINC
 40
1
  9
$FILLETRAD
 40
0
  9
$AUNITS
 70
    0
  9
$AUPREC
 70
    2
  9
$MENU
  1
.
  9
$ELEVATION
 40
0
  9
$PELEVATION
 40
0
  9
$THICKNESS
 40
0
  9
$LIMCHECK
 70
    0
  9
$CHAMFERA
 40
0
  9
$CHAMFERB
 40
0
  9
$CHAMFERC
 40
0
  9
$CHAMFERD
 40
0
  9
$SKPOLY
 70
    0
  9
$USRTIMER
 70
    1
  9
$ANGBASE
 50
0
  9
$ANGDIR
 70
    0
  9
$PDMODE
 70
   34
  9
$PDSIZE
 40
0
  9
$PLINEWID
 40
0
  9
$SPLFRAME
 70
    1
  9
$SPLINETYPE
 70
    2
  9
$SPLINESEGS
 70
    8
  9
$HANDSEED
  5
20000
  9
$SURFTAB1
 70
    6
  9
$SURFTAB2
 70
    6
  9
$SURFTYPE
 70
    6
  9
$SURFU
 70
    6
  9
$SURFV
 70
    6
  9
$UCSBASE
  2

  9
$UCSNAME
  2

  9
$UCSORG
 10
0
 20
0
 30
0
  9
$UCSXDIR
 10
1
 20
0
 30
0
  9
$UCSYDIR
 10
0
 20
1
 30
0
  9
$UCSORTHOREF
  2

  9
$UCSORTHOVIEW
 70
    0
  9
$UCSORGTOP
 10
0
 20
0
 30
0
  9
$UCSORGBOTTOM
 10
0
 20
0
 30
0
  9
$UCSORGLEFT
 10
0
 20
0
 30
0
  9
$UCSORGRIGHT
 10
0
 20
0
 30
0
  9
$UCSORGFRONT
 10
0
 20
0
 30
0
  9
$UCSORGBACK
 10
0
 20
0
 30
0
  9
$PUCSBASE
  2

  9
$PUCSNAME
  2

  9
$PUCSORG
 10
0
 20
0
 30
0
  9
$PUCSXDIR
 10
1
 20
0
 30
0
  9
$PUCSYDIR
 10
0
 20
1
 30
0
  9
$PUCSORTHOREF
  2

  9
$PUCSORTHOVIEW
 70
    0
  9
$PUCSORGTOP
 10
0
 20
0
 30
0
  9
$PUCSORGBOTTOM
 10
0
 20
0
 30
0
  9
$PUCSORGLEFT
 10
0
 20
0
 30
0
  9
$PUCSORGRIGHT
 10
0
 20
0
 30
0
  9
$PUCSORGFRONT
 10
0
 20
0
 30
0
  9
$PUCSORGBACK
 10
0
 20
0
 30
0
  9
$USERI1
 70
    0
  9
$USERI2
 70
    0
  9
$USERI3
 70
    0
  9
$USERI4
 70
    0
  9
$USERI5
 70
    0
  9
$USERR1
 40
0
  9
$USERR2
 40
0
  9
$USERR3
 40
0
  9
$USERR4
 40
0
  9
$USERR5
 40
0
  9
$WORLDVIEW
 70
    1
  9
$SHADEDGE
 70
    3
  9
$SHADEDIF
 70
   70
  9
$TILEMODE
 70
    1
  9
$MAXACTVP
 70
   64
  9
$PINSBASE
 10
0
 20
0
 30
0
  9
$PLIMCHECK
 70
    0
  9
$PEXTMIN
 10
0
 20
0
 30
0
  9
$PEXTMAX
 10
0
 20
0
 30
0
  9
$SNAPSTYLE
 70
    0
  9
$PLIMMIN
 10
0
 20
0
  9
$PLIMMAX
 10
210
 20
297
  9
$UNITMODE
 70
    0
  9
$VISRETAIN
 70
    1
  9
$PLINEGEN
 70
    0
  9
$PSLTSCALE
 70
    1
  9
$TREEDEPTH
 70
 3020
  9
$CMLSTYLE
  2
Standard
  9
$CMLJUST
 70
    0
  9
$CMLSCALE
 40
20
  9
$PROXYGRAPHICS
 70
    1
  9
$MEASUREMENT
 70
    1
  9
$CELWEIGHT
370
   -1
  9
$ENDCAPS
280
    0
  9
$JOINSTYLE
280
    0
  9
$LWDISPLAY
290
    0
  9
$INSUNITS
 70
    4
  9
$HYPERLINKBASE
  1

  9
$STYLESHEET
  1

  9
$XEDIT
290
    1
  9
$CEPSNTYPE
380
    0
  9
$PSTYLEMODE
290
    1
  9
$EXTNAMES
290
    1
  9
$PSVPSCALE
 40
1
  9
$OLESTARTUP
290
    0
  9
$SORTENTS
280
  127
  9
$INDEXCTL
280
    0
  9
$HIDETEXT
280
    1
  9
$XCLIPFRAME
290
    0
  9
$HALOGAP
280
    0
  9
$OBSCOLOR
 70
  257
  9
$OBSLTYPE
280
    0
  9
$INTERSECTIONDISPLAY
280
    0
  9
$INTERSECTIONCOLOR
 70
  257
  9
$DIMASSOC
280
    1
  9
$PROJECTNAME
  1

  9
$CAMERADISPLAY
290
    0
  9
$LENSLENGTH
 40
50
  9
$CAMERAHEIGHT
 40
0
  9
$STEPSPERSEC
 40
2
  9
$STEPSIZE
 40
50
  9
$3DDWFPREC
 40
2
  9
$PSOLWIDTH
 40
5
  9
$PSOLHEIGHT
 40
80
  9
$LOFTANG1
 40
1.570796326794897
  9
$LOFTANG2
 40
1.570796326794897
  9
$LOFTMAG1
 40
0
  9
$LOFTMAG2
 40
0
  9
$LOFTPARAM
 70
    7
  9
$LOFTNORMALS
280
    1
  9
$LATITUDE
 40
1
  9
$LONGITUDE
 40
1
  9
$NORTHDIRECTION
 40
0
  9
$TIMEZONE
 70
-8000
  9
$LIGHTGLYPHDISPLAY
280
    1
  9
$TILEMODELIGHTSYNCH
280
    1
  9
$SOLIDHIST
280
    1
  9
$SHOWHIST
280
    1
  9
$DWFFRAME
280
    2
  9
$DGNFRAME
280
    0
  9
$REALWORLDSCALE
290
    1
  9
$INTERFERECOLOR
 62
    1
  9
$CSHADOW
280
    0
  9
$SHADOWPLANELOCATION
 40
0
  0
ENDSEC
  0
SECTION
  2
CLASSES
  0
ENDSEC
  0
SECTION
  2
TABLES
  0
TABLE
  2
VPORT
  5
8
330
0
100
AcDbSymbolTable
 70
    1
  0
VPORT
  5
31
330
2
100
AcDbSymbolTableRecord
100
AcDbViewportTableRecord
  2
*ACTIVE
 70
    0
 10
0
 20
0
 11
1
 21
1
 12
259.4618244627957
 22
121.1657473336727
 13
0
 23
0
 14
10
 24
10
 15
10
 25
10
 16
0
 26
0
 36
1
 17
0
 27
0
 37
0
 40
345.9490992837275
 41
1.794685990338164
 42
50
 43
0
 44
0
 50
0
 51
0
 71
    0
 72
  100
 73
    1
 74
    3
 75
    0
 76
    1
 77
    0
 78
    0
281
    0
 65
    1
110
0
120
0
130
0
111
1
121
0
131
0
112
0
122
1
132
0
 79
    0
146
0
348
10020
 60
    7
 61
    5
292
1
282
    1
141
0
142
0
 63
  250
421
3358443
  0
ENDTAB
  0
TABLE
  2
LTYPE
  5
5
330
0
100
AcDbSymbolTable
 70
    4
  0
LTYPE
  5
14
330
5
100
AcDbSymbolTableRecord
100
AcDbLinetypeTableRecord
  2
ByBlock
 70
    0
  3

 72
   65
 73
    0
 40
0
  0
LTYPE
  5
15
330
5
100
AcDbSymbolTableRecord
100
AcDbLinetypeTableRecord
  2
ByLayer
 70
    0
  3

 72
   65
 73
    0
 40
0
  0
LTYPE
  5
16
330
5
100
AcDbSymbolTableRecord
100
AcDbLinetypeTableRecord
  2
Continuous
 70
    0
  3
Solid line
 72
   65
 73
    0
 40
0
  0
LTYPE
  5
32
330
5
100
AcDbSymbolTableRecord
100
AcDbLinetypeTableRecord
  2
DOT
 70
    0
  3
Dot . . . . . . . . . . . . . . . . . . . . . .
 72
   65
 73
    2
 40
6.35
 49
0
 74
    0
 49
-6.35
 74
    0
  0
LTYPE
  5
33
330
5
100
AcDbSymbolTableRecord
100
AcDbLinetypeTableRecord
  2
DOTTINY
 70
    0
  3
Dot (.15x) .....................................
 72
   65
 73
    2
 40
0.9525
 49
0
 74
    0
 49
-0.9525
 74
    0
  0
LTYPE
  5
34
330
5
100
AcDbSymbolTableRecord
100
AcDbLinetypeTableRecord
  2
DOT2
 70
    0
  3
Dot (.5x) .....................................
 72
   65
 73
    2
 40
3.175
 49
0
 74
    0
 49
-3.175
 74
    0
  0
LTYPE
  5
35
330
5
100
AcDbSymbolTableRecord
100
AcDbLinetypeTableRecord
  2
DOTX2
 70
    0
  3
Dot (2x) .  .  .  .  .  .  .  .  .  .  .  .  .
 72
   65
 73
    2
 40
12.7
 49
0
 74
    0
 49
-12.7
 74
    0
  0
LTYPE
  5
36
330
5
100
AcDbSymbolTableRecord
100
AcDbLinetypeTableRecord
  2
DASHED
 70
    0
  3
Dashed _ _ _ _ _ _ _ _ _ _ _ _ _ _ _ _ _
 72
   65
 73
    2
 40
19.05
 49
12.7
 74
    0
 49
-6.35
 74
    0
  0
LTYPE
  5
37
330
5
100
AcDbSymbolTableRecord
100
AcDbLinetypeTableRecord
  2
DASHEDTINY
 70
    0
  3
Dashed (.15x) _ _ _ _ _ _ _ _ _ _ _ _ _ _ _ _ _
 72
   65
 73
    2
 40
2.8575
 49
1.905
 74
    0
 49
-0.9525
 74
    0
  0
LTYPE
  5
38
330
5
100
AcDbSymbolTableRecord
100
AcDbLinetypeTableRecord
  2
DASHED2
 70
    0
  3
Dashed (.5x) _ _ _ _ _ _ _ _ _ _ _ _ _ _ _ _ _
 72
   65
 73
    2
 40
9.524999999999999
 49
6.35
 74
    0
 49
-3.175
 74
    0
  0
LTYPE
  5
39
330
5
100
AcDbSymbolTableRecord
100
AcDbLinetypeTableRecord
  2
DASHEDX2
 70
    0
  3
Dashed (2x) ____  ____  ____  ____  ____  ___
 72
   65
 73
    2
 40
38.09999999999999
 49
25.4
 74
    0
 49
-12.7
 74
    0
  0
LTYPE
  5
3A
330
5
100
AcDbSymbolTableRecord
100
AcDbLinetypeTableRecord
  2
DASHDOT
 70
    0
  3
Dash dot __ . __ . __ . __ . __ . __ . __ . __
 72
   65
 73
    4
 40
25.4
 49
12.7
 74
    0
 49
-6.35
 74
    0
 49
0
 74
    0
 49
-6.35
 74
    0
  0
LTYPE
  5
3B
330
5
100
AcDbSymbolTableRecord
100
AcDbLinetypeTableRecord
  2
DASHDOTTINY
 70
    0
  3
Dash dot (.15x) _._._._._._._._._._._._._._._.
 72
   65
 73
    4
 40
3.81
 49
1.905
 74
    0
 49
-0.9525
 74
    0
 49
0
 74
    0
 49
-0.9525
 74
    0
  0
LTYPE
  5
3C
330
5
100
AcDbSymbolTableRecord
100
AcDbLinetypeTableRecord
  2
DASHDOT2
 70
    0
  3
Dash dot (.5x) _._._._._._._._._._._._._._._.
 72
   65
 73
    4
 40
12.7
 49
6.35
 74
    0
 49
-3.175
 74
    0
 49
0
 74
    0
 49
-3.175
 74
    0
  0
LTYPE
  5
3D
330
5
100
AcDbSymbolTableRecord
100
AcDbLinetypeTableRecord
  2
DASHDOTX2
 70
    0
  3
Dash dot (2x) ____  .  ____  .  ____  .  ___
 72
   65
 73
    4
 40
50.8
 49
25.4
 74
    0
 49
-12.7
 74
    0
 49
0
 74
    0
 49
-12.7
 74
    0
  0
LTYPE
  5
3E
330
5
100
AcDbSymbolTableRecord
100
AcDbLinetypeTableRecord
  2
DIVIDE
 70
    0
  3
Divide ____ . . ____ . . ____ . . ____ . . ____
 72
   65
 73
    6
 40
31.75
 49
12.7
 74
    0
 49
-6.35
 74
    0
 49
0
 74
    0
 49
-6.35
 74
    0
 49
0
 74
    0
 49
-6.35
 74
    0
  0
LTYPE
  5
3F
330
5
100
AcDbSymbolTableRecord
100
AcDbLinetypeTableRecord
  2
DIVIDETINY
 70
    0
  3
Divide (.15x) __..__..__..__..__..__..__..__.._
 72
   65
 73
    6
 40
4.7625
 49
1.905
 74
    0
 49
-0.9525
 74
    0
 49
0
 74
    0
 49
-0.9525
 74
    0
 49
0
 74
    0
 49
-0.9525
 74
    0
  0
LTYPE
  5
40
330
5
100
AcDbSymbolTableRecord
100
AcDbLinetypeTableRecord
  2
DIVIDE2
 70
    0
  3
Divide (.5x) __..__..__..__..__..__..__..__.._
 72
   65
 73
    6
 40
15.875
 49
6.35
 74
    0
 49
-3.175
 74
    0
 49
0
 74
    0
 49
-3.175
 74
    0
 49
0
 74
    0
 49
-3.175
 74
    0
  0
LTYPE
  5
41
330
5
100
AcDbSymbolTableRecord
100
AcDbLinetypeTableRecord
  2
DIVIDEX2
 70
    0
  3
Divide (2x) ________  .  .  ________  .  .  _
 72
   65
 73
    6
 40
63.5
 49
25.4
 74
    0
 49
-12.7
 74
    0
 49
0
 74
    0
 49
-12.7
 74
    0
 49
0
 74
    0
 49
-12.7
 74
    0
  0
LTYPE
  5
42
330
5
100
AcDbSymbolTableRecord
100
AcDbLinetypeTableRecord
  2
BORDER
 70
    0
  3
Border __ __ . __ __ . __ __ . __ __ . __ __ .
 72
   65
 73
    6
 40
44.45
 49
12.7
 74
    0
 49
-6.35
 74
    0
 49
12.7
 74
    0
 49
-6.35
 74
    0
 49
0
 74
    0
 49
-6.35
 74
    0
  0
LTYPE
  5
43
330
5
100
AcDbSymbolTableRecord
100
AcDbLinetypeTableRecord
  2
BORDERTINY
 70
    0
  3
Border (.15x) __.__.__.__.__.__.__.__.__.__.__.
 72
   65
 73
    6
 40
6.6675
 49
1.905
 74
    0
 49
-0.9525
 74
    0
 49
1.905
 74
    0
 49
-0.9525
 74
    0
 49
0
 74
    0
 49
-0.9525
 74
    0
  0
LTYPE
  5
44
330
5
100
AcDbSymbolTableRecord
100
AcDbLinetypeTableRecord
  2
BORDER2
 70
    0
  3
Border (.5x) __.__.__.__.__.__.__.__.__.__.__.
 72
   65
 73
    6
 40
22.225
 49
6.35
 74
    0
 49
-3.175
 74
    0
 49
6.35
 74
    0
 49
-3.175
 74
    0
 49
0
 74
    0
 49
-3.175
 74
    0
  0
LTYPE
  5
45
330
5
100
AcDbSymbolTableRecord
100
AcDbLinetypeTableRecord
  2
BORDERX2
 70
    0
  3
Border (2x) ____  ____  .  ____  ____  .  ___
 72
   65
 73
    6
 40
88.89999999999999
 49
25.4
 74
    0
 49
-12.7
 74
    0
 49
25.4
 74
    0
 49
-12.7
 74
    0
 49
0
 74
    0
 49
-12.7
 74
    0
  0
LTYPE
  5
46
330
5
100
AcDbSymbolTableRecord
100
AcDbLinetypeTableRecord
  2
CENTER
 70
    0
  3
Center ____ _ ____ _ ____ _ ____ _ ____ _ ____
 72
   65
 73
    4
 40
50.8
 49
31.75
 74
    0
 49
-6.35
 74
    0
 49
6.35
 74
    0
 49
-6.35
 74
    0
  0
LTYPE
  5
47
330
5
100
AcDbSymbolTableRecord
100
AcDbLinetypeTableRecord
  2
CENTERTINY
 70
    0
  3
Center (.15x) ___ _ ___ _ ___ _ ___ _ ___ _ ___
 72
   65
 73
    4
 40
7.62
 49
4.7625
 74
    0
 49
-0.9525
 74
    0
 49
0.9525
 74
    0
 49
-0.9525
 74
    0
  0
LTYPE
  5
48
330
5
100
AcDbSymbolTableRecord
100
AcDbLinetypeTableRecord
  2
CENTER2
 70
    0
  3
Center (.5x) ___ _ ___ _ ___ _ ___ _ ___ _ ___
 72
   65
 73
    4
 40
28.575
 49
19.05
 74
    0
 49
-3.175
 74
    0
 49
3.175
 74
    0
 49
-3.175
 74
    0
  0
LTYPE
  5
49
330
5
100
AcDbSymbolTableRecord
100
AcDbLinetypeTableRecord
  2
CENTERX2
 70
    0
  3
Center (2x) ________  __  ________  __  _____
 72
   65
 73
    4
 40
101.6
 49
63.5
 74
    0
 49
-12.7
 74
    0
 49
12.7
 74
    0
 49
-12.7
 74
    0
  0
ENDTAB
  0
TABLE
  2
LAYER
  5
2
330
0
100
AcDbSymbolTable
 70
    1
  0
LAYER
  5
10
330
2
100
AcDbSymbolTableRecord
100
AcDbLayerTableRecord
  2
0
 70
    0
 62
    7
  6
CONTINUOUS
370
   -3
390
F
  0
ENDTAB
  0
TABLE
  2
STYLE
  5
3
330
0
100
AcDbSymbolTable
 70
    3
  0
STYLE
  5
4A
330
2
100
AcDbSymbolTableRecord
100
AcDbTextStyleTableRecord
  2
Standard
 70
    0
 40
0
 41
1
 50
0
 71
    0
 42
1
  3
txt
  4

  0
ENDTAB
  0
TABLE
  2
VIEW
  5
6
330
0
100
AcDbSymbolTable
 70
    0
  0
ENDTAB
  0
TABLE
  2
UCS
  5
7
330
0
100
AcDbSymbolTable
 70
    0
  0
ENDTAB
  0
TABLE
  2
APPID
  5
9
330
0
100
AcDbSymbolTable
 70
    1
  0
APPID
  5
12
330
9
100
AcDbSymbolTableRecord
100
AcDbRegAppTableRecord
  2
ACAD
 70
    0
  0
APPID
  5
4B
330
9
100
AcDbSymbolTableRecord
100
AcDbRegAppTableRecord
  2
LibreCad
 70
    0
  0
ENDTAB
  0
TABLE
  2
DIMSTYLE
  5
A
330
0
100
AcDbSymbolTable
 70
    1
100
AcDbDimStyleTable
 71
    1
  0
DIMSTYLE
105
4C
330
A
100
AcDbSymbolTableRecord
100
AcDbDimStyleTableRecord
  2
Standard
 70
    0
 40
1
 41
2.5
 42
0.625
 43
0.38
 44
1.25
 45
0
 46
0
 47
0
 48
0
 49
1
140
2.5
141
0.09
142
2.5
143
25.4
144
1
145
0
146
1
147
0.625
148
0
 71
    0
 72
    0
 73
    0
 74
    1
 75
    0
 76
    0
 77
    0
 78
    1
 79
    0
170
    0
171
    2
172
    0
173
    0
174
    0
175
    0
176
    0
177
    0
178
    0
179
    0
271
    2
272
    4
273
    2
274
    2
275
    0
276
    0
277
    2
278
    0
279
    0
280
    0
281
    0
282
    0
283
    1
284
    0
285
    0
286
    0
288
    0
289
    3
340
standard
341

371
   -2
372
   -2
  0
ENDTAB
  0
TABLE
  2
BLOCK_RECORD
  5
1
330
0
100
AcDbSymbolTable
 70
    2
  0
BLOCK_RECORD
  5
1F
330
1
100
AcDbSymbolTableRecord
100
AcDbBlockTableRecord
  2
*Model_Space
 70
    0
280
    1
281
    0
  0
BLOCK_RECORD
  5
1E
330
1
100
AcDbSymbolTableRecord
100
AcDbBlockTableRecord
  2
*Paper_Space
 70
    0
280
    1
281
    0
  0
ENDTAB
  0
ENDSEC
  0
SECTION
  2
BLOCKS
  0
BLOCK
  5
20
330
1F
100
AcDbEntity
  8
0
100
AcDbBlockBegin
  2
*Model_Space
 70
    0
 10
0
 20
0
 30
0
  3
*Model_Space
  1

  0
ENDBLK
  5
21
330
1F
100
AcDbEntity
  8
0
100
AcDbBlockEnd
  0
BLOCK
  5
1C
330
1B
100
AcDbEntity
  8
0
100
AcDbBlockBegin
  2
*Paper_Space
 70
    0
 10
0
 20
0
 30
0
  3
*Paper_Space
  1

  0
ENDBLK
  5
1D
330
1F
100
AcDbEntity
  8
0
100
AcDbBlockEnd
  0
ENDSEC
  0
SECTION
  2
ENTITIES
  0
LINE
  5
4D
100
AcDbEntity
  8
0
  6
ByLayer
 62
    0
370
   -1
100
AcDbLine
 10
199.38
 20
37.2251
 11
198.968
 21
37.9388
  0
LINE
  5
4E
100
AcDbEntity
  8
0
  6
ByLayer
 62
    0
370
   -1
100
AcDbLine
 10
198.968
 20
37.9388
 11
196.544
 21
36.54
  0
LINE
  5
4F
100
AcDbEntity
  8
0
  6
ByLayer
 62
    0
370
   -1
100
AcDbLine
 10
196.544
 20
36.54
 11
196.956
 21
35.8249
  0
LINE
  5
50
100
AcDbEntity
  8
0
  6
ByLayer
 62
    0
370
   -1
100
AcDbLine
 10
196.956
 20
35.8249
 11
194.159
 21
34.2098
  0
LINE
  5
51
100
AcDbEntity
  8
0
  6
ByLayer
 62
    0
370
   -1
100
AcDbLine
 10
194.159
 20
34.2098
 11
197.534
 21
28.3641
  0
LINE
  5
52
100
AcDbEntity
  8
0
  6
ByLayer
 62
    0
370
   -1
100
AcDbLine
 10
197.534
 20
28.3641
 11
200.331
 21
29.9792
  0
LINE
  5
53
100
AcDbEntity
  8
0
  6
ByLayer
 62
    0
370
   -1
100
AcDbLine
 10
200.331
 20
29.9792
 11
201.093
 21
28.6591
  0
LINE
  5
54
100
AcDbEntity
  8
0
  6
ByLayer
 62
    0
370
   -1
100
AcDbLine
 10
201.093
 20
28.6591
 11
200.574
 21
28.36
  0
LINE
  5
55
100
AcDbEntity
  8
0
  6
ByLayer
 62
    0
370
   -1
100
AcDbLine
 10
200.574
 20
28.36
 11
200.174
 21
29.0518
  0
LINE
  5
56
100
AcDbEntity
  8
0
  6
ByLayer
 62
    0
370
   -1
100
AcDbLine
 10
200.174
 20
29.0518
 11
197.488
 21
27.5015
  0
LINE
  5
57
100
AcDbEntity
  8
0
  6
ByLayer
 62
    0
370
   -1
100
AcDbLine
 10
197.488
 20
27.5015
 11
197.889
 21
26.8097
  0
LINE
  5
58
100
AcDbEntity
  8
0
  6
ByLayer
 62
    0
370
   -1
100
AcDbLine
 10
197.889
 20
26.8097
 11
197.022
 21
26.3095
  0
LINE
  5
59
100
AcDbEntity
  8
0
  6
ByLayer
 62
    0
370
   -1
100
AcDbLine
 10
197.022
 20
26.3095
 11
204.023
 21
14.1841
  0
LINE
  5
5A
100
AcDbEntity
  8
0
  6
ByLayer
 62
    0
370
   -1
100
AcDbLine
 10
204.023
 20
14.1841
 11
204.888
 21
14.6844
  0
LINE
  5
5B
100
AcDbEntity
  8
0
  6
ByLayer
 62
    0
370
   -1
100
AcDbLine
 10
204.888
 20
14.6844
 11
205.289
 21
13.9912
  0
LINE
  5
5C
100
AcDbEntity
  8
0
  6
ByLayer
 62
    0
370
   -1
100
AcDbLine
 10
205.289
 20
13.9912
 11
207.973
 21
15.5415
  0
LINE
  5
5D
100
AcDbEntity
  8
0
  6
ByLayer
 62
    0
370
   -1
100
AcDbLine
 10
207.973
 20
15.5415
 11
207.574
 21
16.2347
  0
LINE
  5
5E
100
AcDbEntity
  8
0
  6
ByLayer
 62
    0
370
   -1
100
AcDbLine
 10
207.574
 20
16.2347
 11
208.093
 21
16.5351
  0
LINE
  5
5F
100
AcDbEntity
  8
0
  6
ByLayer
 62
    0
370
   -1
100
AcDbLine
 10
208.093
 20
16.5351
 11
208.855
 21
15.2149
  0
LINE
  5
60
100
AcDbEntity
  8
0
  6
ByLayer
 62
    0
370
   -1
100
AcDbLine
 10
208.855
 20
15.2149
 11
206.058
 21
13.5999
  0
LINE
  5
61
100
AcDbEntity
  8
0
  6
ByLayer
 62
    0
370
   -1
100
AcDbLine
 10
206.058
 20
13.5999
 11
209.433
 21
7.75286
  0
LINE
  5
62
100
AcDbEntity
  8
0
  6
ByLayer
 62
    0
370
   -1
100
AcDbLine
 10
209.433
 20
7.75286
 11
212.23
 21
9.36791
  0
LINE
  5
63
100
AcDbEntity
  8
0
  6
ByLayer
 62
    0
370
   -1
100
AcDbLine
 10
212.23
 20
9.36791
 11
212.644
 21
8.6541
  0
LINE
  5
64
100
AcDbEntity
  8
0
  6
ByLayer
 62
    0
370
   -1
100
AcDbLine
 10
212.644
 20
8.6541
 11
215.069
 21
10.0528
  0
LINE
  5
65
100
AcDbEntity
  8
0
  6
ByLayer
 62
    0
370
   -1
100
AcDbLine
 10
215.069
 20
10.0528
 11
214.656
 21
10.768
  0
LINE
  5
66
100
AcDbEntity
  8
0
  6
ByLayer
 62
    0
370
   -1
100
AcDbLine
 10
214.656
 20
10.768
 11
220.085
 21
13.903
  0
LINE
  5
67
100
AcDbEntity
  8
0
  6
ByLayer
 62
    0
370
   -1
100
AcDbLine
 10
220.085
 20
13.903
 11
219.224
 21
15.3968
  0
LINE
  5
68
100
AcDbEntity
  8
0
  6
ByLayer
 62
    0
370
   -1
100
AcDbLine
 10
219.224
 20
15.3968
 11
220.263
 21
15.9977
  0
LINE
  5
69
100
AcDbEntity
  8
0
  6
ByLayer
 62
    0
370
   -1
100
AcDbLine
 10
220.263
 20
15.9977
 11
218.612
 21
18.8557
  0
LINE
  5
6A
100
AcDbEntity
  8
0
  6
ByLayer
 62
    0
370
   -1
100
AcDbLine
 10
218.612
 20
18.8557
 11
217.573
 21
18.2549
  0
LINE
  5
6B
100
AcDbEntity
  8
0
  6
ByLayer
 62
    0
370
   -1
100
AcDbLine
 10
217.573
 20
18.2549
 11
216.71
 21
19.7501
  0
LINE
  5
6C
100
AcDbEntity
  8
0
  6
ByLayer
 62
    0
370
   -1
100
AcDbLine
 10
216.71
 20
19.7501
 11
212.839
 21
17.5149
  0
LINE
  5
6D
100
AcDbEntity
  8
0
  6
ByLayer
 62
    0
370
   -1
100
AcDbLine
 10
212.839
 20
17.5149
 11
212.077
 21
18.835
  0
LINE
  5
6E
100
AcDbEntity
  8
0
  6
ByLayer
 62
    0
370
   -1
100
AcDbLine
 10
212.077
 20
18.835
 11
212.597
 21
19.1341
  0
LINE
  5
6F
100
AcDbEntity
  8
0
  6
ByLayer
 62
    0
370
   -1
100
AcDbLine
 10
212.597
 20
19.1341
 11
212.997
 21
18.4409
  0
LINE
  5
70
100
AcDbEntity
  8
0
  6
ByLayer
 62
    0
370
   -1
100
AcDbLine
 10
212.997
 20
18.4409
 11
215.681
 21
19.9912
  0
LINE
  5
71
100
AcDbEntity
  8
0
  6
ByLayer
 62
    0
370
   -1
100
AcDbLine
 10
215.681
 20
19.9912
 11
215.281
 21
20.6843
  0
LINE
  5
72
100
AcDbEntity
  8
0
  6
ByLayer
 62
    0
370
   -1
100
AcDbLine
 10
215.281
 20
20.6843
 11
216.148
 21
21.1846
  0
LINE
  5
73
100
AcDbEntity
  8
0
  6
ByLayer
 62
    0
370
   -1
100
AcDbLine
 10
216.148
 20
21.1846
 11
209.147
 21
33.3099
  0
LINE
  5
74
100
AcDbEntity
  8
0
  6
ByLayer
 62
    0
370
   -1
100
AcDbLine
 10
209.147
 20
33.3099
 11
208.281
 21
32.8097
  0
LINE
  5
75
100
AcDbEntity
  8
0
  6
ByLayer
 62
    0
370
   -1
100
AcDbLine
 10
208.281
 20
32.8097
 11
207.881
 21
33.5015
  0
LINE
  5
76
100
AcDbEntity
  8
0
  6
ByLayer
 62
    0
370
   -1
100
AcDbLine
 10
207.881
 20
33.5015
 11
205.197
 21
31.9512
  0
LINE
  5
77
100
AcDbEntity
  8
0
  6
ByLayer
 62
    0
370
   -1
100
AcDbLine
 10
205.197
 20
31.9512
 11
205.596
 21
31.2594
  0
LINE
  5
78
100
AcDbEntity
  8
0
  6
ByLayer
 62
    0
370
   -1
100
AcDbLine
 10
205.596
 20
31.2594
 11
205.077
 21
30.959
  0
LINE
  5
79
100
AcDbEntity
  8
0
  6
ByLayer
 62
    0
370
   -1
100
AcDbLine
 10
205.077
 20
30.959
 11
204.315
 21
32.2792
  0
LINE
  5
7A
100
AcDbEntity
  8
0
  6
ByLayer
 62
    0
370
   -1
100
AcDbLine
 10
204.315
 20
32.2792
 11
208.186
 21
34.5143
  0
LINE
  5
7B
100
AcDbEntity
  8
0
  6
ByLayer
 62
    0
370
   -1
100
AcDbLine
 10
208.186
 20
34.5143
 11
207.323
 21
36.008
  0
LINE
  5
7C
100
AcDbEntity
  8
0
  6
ByLayer
 62
    0
370
   -1
100
AcDbLine
 10
207.323
 20
36.008
 11
208.362
 21
36.6088
  0
LINE
  5
7D
100
AcDbEntity
  8
0
  6
ByLayer
 62
    0
370
   -1
100
AcDbLine
 10
208.362
 20
36.6088
 11
206.713
 21
39.467
  0
LINE
  5
7E
100
AcDbEntity
  8
0
  6
ByLayer
 62
    0
370
   -1
100
AcDbLine
 10
206.713
 20
39.467
 11
205.674
 21
38.8662
  0
LINE
  5
7F
100
AcDbEntity
  8
0
  6
ByLayer
 62
    0
370
   -1
100
AcDbLine
 10
205.674
 20
38.8662
 11
204.811
 21
40.3599
  0
LINE
  5
80
100
AcDbEntity
  8
0
  6
ByLayer
 62
    0
370
   -1
100
AcDbLine
 10
204.811
 20
40.3599
 11
199.38
 21
37.2251
  0
LINE
  5
81
100
AcDbEntity
  8
0
  6
ByLayer
 62
    0
370
   -1
100
AcDbLine
 10
264.557
 20
45.1817
 11
264.557
 21
44.1826
  0
LINE
  5
82
100
AcDbEntity
  8
0
  6
ByLayer
 62
    0
370
   -1
100
AcDbLine
 10
264.557
 20
44.1826
 11
263.756
 21
44.1826
  0
LINE
  5
83
100
AcDbEntity
  8
0
  6
ByLayer
 62
    0
370
   -1
100
AcDbLine
 10
263.756
 20
44.1826
 11
263.756
 21
41.082
  0
LINE
  5
84
100
AcDbEntity
  8
0
  6
ByLayer
 62
    0
370
   -1
100
AcDbLine
 10
263.756
 20
41.082
 11
264.557
 21
41.082
  0
LINE
  5
85
100
AcDbEntity
  8
0
  6
ByLayer
 62
    0
370
   -1
100
AcDbLine
 10
264.557
 20
41.082
 11
264.557
 21
35.282
  0
LINE
  5
86
100
AcDbEntity
  8
0
  6
ByLayer
 62
    0
370
   -1
100
AcDbLine
 10
264.557
 20
35.282
 11
263.756
 21
35.282
  0
LINE
  5
87
100
AcDbEntity
  8
0
  6
ByLayer
 62
    0
370
   -1
100
AcDbLine
 10
263.756
 20
35.282
 11
263.756
 21
32.1827
  0
LINE
  5
88
100
AcDbEntity
  8
0
  6
ByLayer
 62
    0
370
   -1
100
AcDbLine
 10
263.756
 20
32.1827
 11
264.557
 21
32.1827
  0
LINE
  5
89
100
AcDbEntity
  8
0
  6
ByLayer
 62
    0
370
   -1
100
AcDbLine
 10
264.557
 20
32.1827
 11
264.557
 21
31.1822
  0
LINE
  5
8A
100
AcDbEntity
  8
0
  6
ByLayer
 62
    0
370
   -1
100
AcDbLine
 10
264.557
 20
31.1822
 11
278.557
 21
31.1822
  0
LINE
  5
8B
100
AcDbEntity
  8
0
  6
ByLayer
 62
    0
370
   -1
100
AcDbLine
 10
278.557
 20
31.1822
 11
278.557
 21
32.1827
  0
LINE
  5
8C
100
AcDbEntity
  8
0
  6
ByLayer
 62
    0
370
   -1
100
AcDbLine
 10
278.557
 20
32.1827
 11
279.356
 21
32.1827
  0
LINE
  5
8D
100
AcDbEntity
  8
0
  6
ByLayer
 62
    0
370
   -1
100
AcDbLine
 10
279.356
 20
32.1827
 11
279.356
 21
35.282
  0
LINE
  5
8E
100
AcDbEntity
  8
0
  6
ByLayer
 62
    0
370
   -1
100
AcDbLine
 10
279.356
 20
35.282
 11
278.557
 21
35.282
  0
LINE
  5
8F
100
AcDbEntity
  8
0
  6
ByLayer
 62
    0
370
   -1
100
AcDbLine
 10
278.557
 20
35.282
 11
278.557
 21
41.082
  0
LINE
  5
90
100
AcDbEntity
  8
0
  6
ByLayer
 62
    0
370
   -1
100
AcDbLine
 10
278.557
 20
41.082
 11
279.356
 21
41.082
  0
LINE
  5
91
100
AcDbEntity
  8
0
  6
ByLayer
 62
    0
370
   -1
100
AcDbLine
 10
279.356
 20
41.082
 11
279.356
 21
44.1826
  0
LINE
  5
92
100
AcDbEntity
  8
0
  6
ByLayer
 62
    0
370
   -1
100
AcDbLine
 10
279.356
 20
44.1826
 11
278.557
 21
44.1826
  0
LINE
  5
93
100
AcDbEntity
  8
0
  6
ByLayer
 62
    0
370
   -1
100
AcDbLine
 10
278.557
 20
44.1826
 11
278.557
 21
45.1817
  0
LINE
  5
94
100
AcDbEntity
  8
0
  6
ByLayer
 62
    0
370
   -1
100
AcDbLine
 10
278.557
 20
45.1817
 11
264.557
 21
45.1817
  0
LINE
  5
95
100
AcDbEntity
  8
0
  6
ByLayer
 62
    0
370
   -1
100
AcDbLine
 10
283.607
 20
45.1817
 11
283.607
 21
44.1826
  0
LINE
  5
96
100
AcDbEntity
  8
0
  6
ByLayer
 62
    0
370
   -1
100
AcDbLine
 10
283.607
 20
44.1826
 11
282.806
 21
44.1826
  0
LINE
  5
97
100
AcDbEntity
  8
0
  6
ByLayer
 62
    0
370
   -1
100
AcDbLine
 10
282.806
 20
44.1826
 11
282.806
 21
41.082
  0
LINE
  5
98
100
AcDbEntity
  8
0
  6
ByLayer
 62
    0
370
   -1
100
AcDbLine
 10
282.806
 20
41.082
 11
283.607
 21
41.082
  0
LINE
  5
99
100
AcDbEntity
  8
0
  6
ByLayer
 62
    0
370
   -1
100
AcDbLine
 10
283.607
 20
41.082
 11
283.607
 21
35.282
  0
LINE
  5
9A
100
AcDbEntity
  8
0
  6
ByLayer
 62
    0
370
   -1
100
AcDbLine
 10
283.607
 20
35.282
 11
282.806
 21
35.282
  0
LINE
  5
9B
100
AcDbEntity
  8
0
  6
ByLayer
 62
    0
370
   -1
100
AcDbLine
 10
282.806
 20
35.282
 11
282.806
 21
32.1827
  0
LINE
  5
9C
100
AcDbEntity
  8
0
  6
ByLayer
 62
    0
370
   -1
100
AcDbLine
 10
282.806
 20
32.1827
 11
283.607
 21
32.1827
  0
LINE
  5
9D
100
AcDbEntity
  8
0
  6
ByLayer
 62
    0
370
   -1
100
AcDbLine
 10
283.607
 20
32.1827
 11
283.607
 21
31.1822
  0
LINE
  5
9E
100
AcDbEntity
  8
0
  6
ByLayer
 62
    0
370
   -1
100
AcDbLine
 10
283.607
 20
31.1822
 11
297.607
 21
31.1822
  0
LINE
  5
9F
100
AcDbEntity
  8
0
  6
ByLayer
 62
    0
370
   -1
100
AcDbLine
 10
297.607
 20
31.1822
 11
297.607
 21
32.1827
  0
LINE
  5
A0
100
AcDbEntity
  8
0
  6
ByLayer
 62
    0
370
   -1
100
AcDbLine
 10
297.607
 20
32.1827
 11
298.406
 21
32.1827
  0
LINE
  5
A1
100
AcDbEntity
  8
0
  6
ByLayer
 62
    0
370
   -1
100
AcDbLine
 10
298.406
 20
32.1827
 11
298.406
 21
35.282
  0
LINE
  5
A2
100
AcDbEntity
  8
0
  6
ByLayer
 62
    0
370
   -1
100
AcDbLine
 10
298.406
 20
35.282
 11
297.607
 21
35.282
  0
LINE
  5
A3
100
AcDbEntity
  8
0
  6
ByLayer
 62
    0
370
   -1
100
AcDbLine
 10
297.607
 20
35.282
 11
297.607
 21
41.082
  0
LINE
  5
A4
100
AcDbEntity
  8
0
  6
ByLayer
 62
    0
370
   -1
100
AcDbLine
 10
297.607
 20
41.082
 11
298.406
 21
41.082
  0
LINE
  5
A5
100
AcDbEntity
  8
0
  6
ByLayer
 62
    0
370
   -1
100
AcDbLine
 10
298.406
 20
41.082
 11
298.406
 21
44.1826
  0
LINE
  5
A6
100
AcDbEntity
  8
0
  6
ByLayer
 62
    0
370
   -1
100
AcDbLine
 10
298.406
 20
44.1826
 11
297.607
 21
44.1826
  0
LINE
  5
A7
100
AcDbEntity
  8
0
  6
ByLayer
 62
    0
370
   -1
100
AcDbLine
 10
297.607
 20
44.1826
 11
297.607
 21
45.1817
  0
LINE
  5
A8
100
AcDbEntity
  8
0
  6
ByLayer
 62
    0
370
   -1
100
AcDbLine
 10
297.607
 20
45.1817
 11
283.607
 21
45.1817
  0
LINE
  5
A9
100
AcDbEntity
  8
0
  6
ByLayer
 62
    0
370
   -1
100
AcDbLine
 10
302.657
 20
45.1817
 11
302.657
 21
44.1826
  0
LINE
  5
AA
100
AcDbEntity
  8
0
  6
ByLayer
 62
    0
370
   -1
100
AcDbLine
 10
302.657
 20
44.1826
 11
301.856
 21
44.1826
  0
LINE
  5
AB
100
AcDbEntity
  8
0
  6
ByLayer
 62
    0
370
   -1
100
AcDbLine
 10
301.856
 20
44.1826
 11
301.856
 21
41.082
  0
LINE
  5
AC
100
AcDbEntity
  8
0
  6
ByLayer
 62
    0
370
   -1
100
AcDbLine
 10
301.856
 20
41.082
 11
302.657
 21
41.082
  0
LINE
  5
AD
100
AcDbEntity
  8
0
  6
ByLayer
 62
    0
370
   -1
100
AcDbLine
 10
302.657
 20
41.082
 11
302.657
 21
35.282
  0
LINE
  5
AE
100
AcDbEntity
  8
0
  6
ByLayer
 62
    0
370
   -1
100
AcDbLine
 10
302.657
 20
35.282
 11
301.856
 21
35.282
  0
LINE
  5
AF
100
AcDbEntity
  8
0
  6
ByLayer
 62
    0
370
   -1
100
AcDbLine
 10
301.856
 20
35.282
 11
301.856
 21
32.1827
  0
LINE
  5
B0
100
AcDbEntity
  8
0
  6
ByLayer
 62
    0
370
   -1
100
AcDbLine
 10
301.856
 20
32.1827
 11
302.657
 21
32.1827
  0
LINE
  5
B1
100
AcDbEntity
  8
0
  6
ByLayer
 62
    0
370
   -1
100
AcDbLine
 10
302.657
 20
32.1827
 11
302.657
 21
31.1822
  0
LINE
  5
B2
100
AcDbEntity
  8
0
  6
ByLayer
 62
    0
370
   -1
100
AcDbLine
 10
302.657
 20
31.1822
 11
316.657
 21
31.1822
  0
LINE
  5
B3
100
AcDbEntity
  8
0
  6
ByLayer
 62
    0
370
   -1
100
AcDbLine
 10
316.657
 20
31.1822
 11
316.657
 21
32.1827
  0
LINE
  5
B4
100
AcDbEntity
  8
0
  6
ByLayer
 62
    0
370
   -1
100
AcDbLine
 10
316.657
 20
32.1827
 11
317.456
 21
32.1827
  0
LINE
  5
B5
100
AcDbEntity
  8
0
  6
ByLayer
 62
    0
370
   -1
100
AcDbLine
 10
317.456
 20
32.1827
 11
317.456
 21
35.282
  0
LINE
  5
B6
100
AcDbEntity
  8
0
  6
ByLayer
 62
    0
370
   -1
100
AcDbLine
 10
317.456
 20
35.282
 11
316.657
 21
35.282
  0
LINE
  5
B7
100
AcDbEntity
  8
0
  6
ByLayer
 62
    0
370
   -1
100
AcDbLine
 10
316.657
 20
35.282
 11
316.657
 21
41.082
  0
LINE
  5
B8
100
AcDbEntity
  8
0
  6
ByLayer
 62
    0
370
   -1
100
AcDbLine
 10
316.657
 20
41.082
 11
317.456
 21
41.082
  0
LINE
  5
B9
100
AcDbEntity
  8
0
  6
ByLayer
 62
    0
370
   -1
100
AcDbLine
 10
317.456
 20
41.082
 11
317.456
 21
44.1826
  0
LINE
  5
BA
100
AcDbEntity
  8
0
  6
ByLayer
 62
    0
370
   -1
100
AcDbLine
 10
317.456
 20
44.1826
 11
316.657
 21
44.1826
  0
LINE
  5
BB
100
AcDbEntity
  8
0
  6
ByLayer
 62
    0
370
   -1
100
AcDbLine
 10
316.657
 20
44.1826
 11
316.657
 21
45.1817
  0
LINE
  5
BC
100
AcDbEntity
  8
0
  6
ByLayer
 62
    0
370
   -1
100
AcDbLine
 10
316.657
 20
45.1817
 11
302.657
 21
45.1817
  0
LINE
  5
BD
100
AcDbEntity
  8
0
  6
ByLayer
 62
    0
370
   -1
100
AcDbLine
 10
321.707
 20
45.1817
 11
321.707
 21
44.1826
  0
LINE
  5
BE
100
AcDbEntity
  8
0
  6
ByLayer
 62
    0
370
   -1
100
AcDbLine
 10
321.707
 20
44.1826
 11
320.906
 21
44.1826
  0
LINE
  5
BF
100
AcDbEntity
  8
0
  6
ByLayer
 62
    0
370
   -1
100
AcDbLine
 10
320.906
 20
44.1826
 11
320.906
 21
41.082
  0
LINE
  5
C0
100
AcDbEntity
  8
0
  6
ByLayer
 62
    0
370
   -1
100
AcDbLine
 10
320.906
 20
41.082
 11
321.707
 21
41.082
  0
LINE
  5
C1
100
AcDbEntity
  8
0
  6
ByLayer
 62
    0
370
   -1
100
AcDbLine
 10
321.707
 20
41.082
 11
321.707
 21
35.282
  0
LINE
  5
C2
100
AcDbEntity
  8
0
  6
ByLayer
 62
    0
370
   -1
100
AcDbLine
 10
321.707
 20
35.282
 11
320.906
 21
35.282
  0
LINE
  5
C3
100
AcDbEntity
  8
0
  6
ByLayer
 62
    0
370
   -1
100
AcDbLine
 10
320.906
 20
35.282
 11
320.906
 21
32.1827
  0
LINE
  5
C4
100
AcDbEntity
  8
0
  6
ByLayer
 62
    0
370
   -1
100
AcDbLine
 10
320.906
 20
32.1827
 11
321.707
 21
32.1827
  0
LINE
  5
C5
100
AcDbEntity
  8
0
  6
ByLayer
 62
    0
370
   -1
100
AcDbLine
 10
321.707
 20
32.1827
 11
321.707
 21
31.1822
  0
LINE
  5
C6
100
AcDbEntity
  8
0
  6
ByLayer
 62
    0
370
   -1
100
AcDbLine
 10
321.707
 20
31.1822
 11
335.707
 21
31.1822
  0
LINE
  5
C7
100
AcDbEntity
  8
0
  6
ByLayer
 62
    0
370
   -1
100
AcDbLine
 10
335.707
 20
31.1822
 11
335.707
 21
32.1827
  0
LINE
  5
C8
100
AcDbEntity
  8
0
  6
ByLayer
 62
    0
370
   -1
100
AcDbLine
 10
335.707
 20
32.1827
 11
336.506
 21
32.1827
  0
LINE
  5
C9
100
AcDbEntity
  8
0
  6
ByLayer
 62
    0
370
   -1
100
AcDbLine
 10
336.506
 20
32.1827
 11
336.506
 21
35.282
  0
LINE
  5
CA
100
AcDbEntity
  8
0
  6
ByLayer
 62
    0
370
   -1
100
AcDbLine
 10
336.506
 20
35.282
 11
335.707
 21
35.282
  0
LINE
  5
CB
100
AcDbEntity
  8
0
  6
ByLayer
 62
    0
370
   -1
100
AcDbLine
 10
335.707
 20
35.282
 11
335.707
 21
41.082
  0
LINE
  5
CC
100
AcDbEntity
  8
0
  6
ByLayer
 62
    0
370
   -1
100
AcDbLine
 10
335.707
 20
41.082
 11
336.506
 21
41.082
  0
LINE
  5
CD
100
AcDbEntity
  8
0
  6
ByLayer
 62
    0
370
   -1
100
AcDbLine
 10
336.506
 20
41.082
 11
336.506
 21
44.1826
  0
LINE
  5
CE
100
AcDbEntity
  8
0
  6
ByLayer
 62
    0
370
   -1
100
AcDbLine
 10
336.506
 20
44.1826
 11
335.707
 21
44.1826
  0
LINE
  5
CF
100
AcDbEntity
  8
0
  6
ByLayer
 62
    0
370
   -1
100
AcDbLine
 10
335.707
 20
44.1826
 11
335.707
 21
45.1817
  0
LINE
  5
D0
100
AcDbEntity
  8
0
  6
ByLayer
 62
    0
370
   -1
100
AcDbLine
 10
335.707
 20
45.1817
 11
321.707
 21
45.1817
  0
LINE
  5
D1
100
AcDbEntity
  8
0
  6
ByLayer
 62
    0
370
   -1
100
AcDbLine
 10
345.52
 20
45.1817
 11
345.52
 21
44.1826
  0
LINE
  5
D2
100
AcDbEntity
  8
0
  6
ByLayer
 62
    0
370
   -1
100
AcDbLine
 10
345.52
 20
44.1826
 11
344.719
 21
44.1826
  0
LINE
  5
D3
100
AcDbEntity
  8
0
  6
ByLayer
 62
    0
370
   -1
100
AcDbLine
 10
344.719
 20
44.1826
 11
344.719
 21
41.082
  0
LINE
  5
D4
100
AcDbEntity
  8
0
  6
ByLayer
 62
    0
370
   -1
100
AcDbLine
 10
344.719
 20
41.082
 11
345.52
 21
41.082
  0
LINE
  5
D5
100
AcDbEntity
  8
0
  6
ByLayer
 62
    0
370
   -1
100
AcDbLine
 10
345.52
 20
41.082
 11
345.52
 21
35.282
  0
LINE
  5
D6
100
AcDbEntity
  8
0
  6
ByLayer
 62
    0
370
   -1
100
AcDbLine
 10
345.52
 20
35.282
 11
344.719
 21
35.282
  0
LINE
  5
D7
100
AcDbEntity
  8
0
  6
ByLayer
 62
    0
370
   -1
100
AcDbLine
 10
344.719
 20
35.282
 11
344.719
 21
32.1827
  0
LINE
  5
D8
100
AcDbEntity
  8
0
  6
ByLayer
 62
    0
370
   -1
100
AcDbLine
 10
344.719
 20
32.1827
 11
345.52
 21
32.1827
  0
LINE
  5
D9
100
AcDbEntity
  8
0
  6
ByLayer
 62
    0
370
   -1
100
AcDbLine
 10
345.52
 20
32.1827
 11
345.52
 21
31.1822
  0
LINE
  5
DA
100
AcDbEntity
  8
0
  6
ByLayer
 62
    0
370
   -1
100
AcDbLine
 10
345.52
 20
31.1822
 11
359.519
 21
31.1822
  0
LINE
  5
DB
100
AcDbEntity
  8
0
  6
ByLayer
 62
    0
370
   -1
100
AcDbLine
 10
359.519
 20
31.1822
 11
359.519
 21
32.1827
  0
LINE
  5
DC
100
AcDbEntity
  8
0
  6
ByLayer
 62
    0
370
   -1
100
AcDbLine
 10
359.519
 20
32.1827
 11
360.32
 21
32.1827
  0
LINE
  5
DD
100
AcDbEntity
  8
0
  6
ByLayer
 62
    0
370
   -1
100
AcDbLine
 10
360.32
 20
32.1827
 11
360.32
 21
35.282
  0
LINE
  5
DE
100
AcDbEntity
  8
0
  6
ByLayer
 62
    0
370
   -1
100
AcDbLine
 10
360.32
 20
35.282
 11
359.519
 21
35.282
  0
LINE
  5
DF
100
AcDbEntity
  8
0
  6
ByLayer
 62
    0
370
   -1
100
AcDbLine
 10
359.519
 20
35.282
 11
359.519
 21
41.082
  0
LINE
  5
E0
100
AcDbEntity
  8
0
  6
ByLayer
 62
    0
370
   -1
100
AcDbLine
 10
359.519
 20
41.082
 11
360.32
 21
41.082
  0
LINE
  5
E1
100
AcDbEntity
  8
0
  6
ByLayer
 62
    0
370
   -1
100
AcDbLine
 10
360.32
 20
41.082
 11
360.32
 21
44.1826
  0
LINE
  5
E2
100
AcDbEntity
  8
0
  6
ByLayer
 62
    0
370
   -1
100
AcDbLine
 10
360.32
 20
44.1826
 11
359.519
 21
44.1826
  0
LINE
  5
E3
100
AcDbEntity
  8
0
  6
ByLayer
 62
    0
370
   -1
100
AcDbLine
 10
359.519
 20
44.1826
 11
359.519
 21
45.1817
  0
LINE
  5
E4
100
AcDbEntity
  8
0
  6
ByLayer
 62
    0
370
   -1
100
AcDbLine
 10
359.519
 20
45.1817
 11
345.52
 21
45.1817
  0
LINE
  5
E5
100
AcDbEntity
  8
0
  6
ByLayer
 62
    0
370
   -1
100
AcDbLine
 10
364.571
 20
45.1817
 11
364.571
 21
44.1826
  0
LINE
  5
E6
100
AcDbEntity
  8
0
  6
ByLayer
 62
    0
370
   -1
100
AcDbLine
 10
364.571
 20
44.1826
 11
363.77
 21
44.1826
  0
LINE
  5
E7
100
AcDbEntity
  8
0
  6
ByLayer
 62
    0
370
   -1
100
AcDbLine
 10
363.77
 20
44.1826
 11
363.77
 21
41.082
  0
LINE
  5
E8
100
AcDbEntity
  8
0
  6
ByLayer
 62
    0
370
   -1
100
AcDbLine
 10
363.77
 20
41.082
 11
364.571
 21
41.082
  0
LINE
  5
E9
100
AcDbEntity
  8
0
  6
ByLayer
 62
    0
370
   -1
100
AcDbLine
 10
364.571
 20
41.082
 11
364.571
 21
35.282
  0
LINE
  5
EA
100
AcDbEntity
  8
0
  6
ByLayer
 62
    0
370
   -1
100
AcDbLine
 10
364.571
 20
35.282
 11
363.77
 21
35.282
  0
LINE
  5
EB
100
AcDbEntity
  8
0
  6
ByLayer
 62
    0
370
   -1
100
AcDbLine
 10
363.77
 20
35.282
 11
363.77
 21
32.1827
  0
LINE
  5
EC
100
AcDbEntity
  8
0
  6
ByLayer
 62
    0
370
   -1
100
AcDbLine
 10
363.77
 20
32.1827
 11
364.571
 21
32.1827
  0
LINE
  5
ED
100
AcDbEntity
  8
0
  6
ByLayer
 62
    0
370
   -1
100
AcDbLine
 10
364.571
 20
32.1827
 11
364.571
 21
31.1822
  0
LINE
  5
EE
100
AcDbEntity
  8
0
  6
ByLayer
 62
    0
370
   -1
100
AcDbLine
 10
364.571
 20
31.1822
 11
378.569
 21
31.1822
  0
LINE
  5
EF
100
AcDbEntity
  8
0
  6
ByLayer
 62
    0
370
   -1
100
AcDbLine
 10
378.569
 20
31.1822
 11
378.569
 21
32.1827
  0
LINE
  5
F0
100
AcDbEntity
  8
0
  6
ByLayer
 62
    0
370
   -1
100
AcDbLine
 10
378.569
 20
32.1827
 11
379.37
 21
32.1827
  0
LINE
  5
F1
100
AcDbEntity
  8
0
  6
ByLayer
 62
    0
370
   -1
100
AcDbLine
 10
379.37
 20
32.1827
 11
379.37
 21
35.282
  0
LINE
  5
F2
100
AcDbEntity
  8
0
  6
ByLayer
 62
    0
370
   -1
100
AcDbLine
 10
379.37
 20
35.282
 11
378.569
 21
35.282
  0
LINE
  5
F3
100
AcDbEntity
  8
0
  6
ByLayer
 62
    0
370
   -1
100
AcDbLine
 10
378.569
 20
35.282
 11
378.569
 21
41.082
  0
LINE
  5
F4
100
AcDbEntity
  8
0
  6
ByLayer
 62
    0
370
   -1
100
AcDbLine
 10
378.569
 20
41.082
 11
379.37
 21
41.082
  0
LINE
  5
F5
100
AcDbEntity
  8
0
  6
ByLayer
 62
    0
370
   -1
100
AcDbLine
 10
379.37
 20
41.082
 11
379.37
 21
44.1826
  0
LINE
  5
F6
100
AcDbEntity
  8
0
  6
ByLayer
 62
    0
370
   -1
100
AcDbLine
 10
379.37
 20
44.1826
 11
378.569
 21
44.1826
  0
LINE
  5
F7
100
AcDbEntity
  8
0
  6
ByLayer
 62
    0
370
   -1
100
AcDbLine
 10
378.569
 20
44.1826
 11
378.569
 21
45.1817
  0
LINE
  5
F8
100
AcDbEntity
  8
0
  6
ByLayer
 62
    0
370
   -1
100
AcDbLine
 10
378.569
 20
45.1817
 11
364.571
 21
45.1817
  0
LINE
  5
F9
100
AcDbEntity
  8
0
  6
ByLayer
 62
    0
370
   -1
100
AcDbLine
 10
383.621
 20
45.1817
 11
383.621
 21
44.1826
  0
LINE
  5
FA
100
AcDbEntity
  8
0
  6
ByLayer
 62
    0
370
   -1
100
AcDbLine
 10
383.621
 20
44.1826
 11
382.82
 21
44.1826
  0
LINE
  5
FB
100
AcDbEntity
  8
0
  6
ByLayer
 62
    0
370
   -1
100
AcDbLine
 10
382.82
 20
44.1826
 11
382.82
 21
41.082
  0
LINE
  5
FC
100
AcDbEntity
  8
0
  6
ByLayer
 62
    0
370
   -1
100
AcDbLine
 10
382.82
 20
41.082
 11
383.621
 21
41.082
  0
LINE
  5
FD
100
AcDbEntity
  8
0
  6
ByLayer
 62
    0
370
   -1
100
AcDbLine
 10
383.621
 20
41.082
 11
383.621
 21
35.282
  0
LINE
  5
FE
100
AcDbEntity
  8
0
  6
ByLayer
 62
    0
370
   -1
100
AcDbLine
 10
383.621
 20
35.282
 11
382.82
 21
35.282
  0
LINE
  5
FF
100
AcDbEntity
  8
0
  6
ByLayer
 62
    0
370
   -1
100
AcDbLine
 10
382.82
 20
35.282
 11
382.82
 21
32.1827
  0
LINE
  5
100
100
AcDbEntity
  8
0
  6
ByLayer
 62
    0
370
   -1
100
AcDbLine
 10
382.82
 20
32.1827
 11
383.621
 21
32.1827
  0
LINE
  5
101
100
AcDbEntity
  8
0
  6
ByLayer
 62
    0
370
   -1
100
AcDbLine
 10
383.621
 20
32.1827
 11
383.621
 21
31.1822
  0
LINE
  5
102
100
AcDbEntity
  8
0
  6
ByLayer
 62
    0
370
   -1
100
AcDbLine
 10
383.621
 20
31.1822
 11
397.619
 21
31.1822
  0
LINE
  5
103
100
AcDbEntity
  8
0
  6
ByLayer
 62
    0
370
   -1
100
AcDbLine
 10
397.619
 20
31.1822
 11
397.619
 21
32.1827
  0
LINE
  5
104
100
AcDbEntity
  8
0
  6
ByLayer
 62
    0
370
   -1
100
AcDbLine
 10
397.619
 20
32.1827
 11
398.42
 21
32.1827
  0
LINE
  5
105
100
AcDbEntity
  8
0
  6
ByLayer
 62
    0
370
   -1
100
AcDbLine
 10
398.42
 20
32.1827
 11
398.42
 21
35.282
  0
LINE
  5
106
100
AcDbEntity
  8
0
  6
ByLayer
 62
    0
370
   -1
100
AcDbLine
 10
398.42
 20
35.282
 11
397.619
 21
35.282
  0
LINE
  5
107
100
AcDbEntity
  8
0
  6
ByLayer
 62
    0
370
   -1
100
AcDbLine
 10
397.619
 20
35.282
 11
397.619
 21
41.082
  0
LINE
  5
108
100
AcDbEntity
  8
0
  6
ByLayer
 62
    0
370
   -1
100
AcDbLine
 10
397.619
 20
41.082
 11
398.42
 21
41.082
  0
LINE
  5
109
100
AcDbEntity
  8
0
  6
ByLayer
 62
    0
370
   -1
100
AcDbLine
 10
398.42
 20
41.082
 11
398.42
 21
44.1826
  0
LINE
  5
10A
100
AcDbEntity
  8
0
  6
ByLayer
 62
    0
370
   -1
100
AcDbLine
 10
398.42
 20
44.1826
 11
397.619
 21
44.1826
  0
LINE
  5
10B
100
AcDbEntity
  8
0
  6
ByLayer
 62
    0
370
   -1
100
AcDbLine
 10
397.619
 20
44.1826
 11
397.619
 21
45.1817
  0
LINE
  5
10C
100
AcDbEntity
  8
0
  6
ByLayer
 62
    0
370
   -1
100
AcDbLine
 10
397.619
 20
45.1817
 11
383.621
 21
45.1817
  0
LINE
  5
10D
100
AcDbEntity
  8
0
  6
ByLayer
 62
    0
370
   -1
100
AcDbLine
 10
212.17
 20
64.2317
 11
212.17
 21
63.2326
  0
LINE
  5
10E
100
AcDbEntity
  8
0
  6
ByLayer
 62
    0
370
   -1
100
AcDbLine
 10
212.17
 20
63.2326
 11
211.369
 21
63.2326
  0
LINE
  5
10F
100
AcDbEntity
  8
0
  6
ByLayer
 62
    0
370
   -1
100
AcDbLine
 10
211.369
 20
63.2326
 11
211.369
 21
60.132
  0
LINE
  5
110
100
AcDbEntity
  8
0
  6
ByLayer
 62
    0
370
   -1
100
AcDbLine
 10
211.369
 20
60.132
 11
212.17
 21
60.132
  0
LINE
  5
111
100
AcDbEntity
  8
0
  6
ByLayer
 62
    0
370
   -1
100
AcDbLine
 10
212.17
 20
60.132
 11
212.17
 21
54.332
  0
LINE
  5
112
100
AcDbEntity
  8
0
  6
ByLayer
 62
    0
370
   -1
100
AcDbLine
 10
212.17
 20
54.332
 11
211.369
 21
54.332
  0
LINE
  5
113
100
AcDbEntity
  8
0
  6
ByLayer
 62
    0
370
   -1
100
AcDbLine
 10
211.369
 20
54.332
 11
211.369
 21
51.2329
  0
LINE
  5
114
100
AcDbEntity
  8
0
  6
ByLayer
 62
    0
370
   -1
100
AcDbLine
 10
211.369
 20
51.2329
 11
212.17
 21
51.2329
  0
LINE
  5
115
100
AcDbEntity
  8
0
  6
ByLayer
 62
    0
370
   -1
100
AcDbLine
 10
212.17
 20
51.2329
 11
212.17
 21
50.2324
  0
LINE
  5
116
100
AcDbEntity
  8
0
  6
ByLayer
 62
    0
370
   -1
100
AcDbLine
 10
212.17
 20
50.2324
 11
226.169
 21
50.2324
  0
LINE
  5
117
100
AcDbEntity
  8
0
  6
ByLayer
 62
    0
370
   -1
100
AcDbLine
 10
226.169
 20
50.2324
 11
226.169
 21
51.2329
  0
LINE
  5
118
100
AcDbEntity
  8
0
  6
ByLayer
 62
    0
370
   -1
100
AcDbLine
 10
226.169
 20
51.2329
 11
226.97
 21
51.2329
  0
LINE
  5
119
100
AcDbEntity
  8
0
  6
ByLayer
 62
    0
370
   -1
100
AcDbLine
 10
226.97
 20
51.2329
 11
226.97
 21
54.332
  0
LINE
  5
11A
100
AcDbEntity
  8
0
  6
ByLayer
 62
    0
370
   -1
100
AcDbLine
 10
226.97
 20
54.332
 11
226.169
 21
54.332
  0
LINE
  5
11B
100
AcDbEntity
  8
0
  6
ByLayer
 62
    0
370
   -1
100
AcDbLine
 10
226.169
 20
54.332
 11
226.169
 21
60.132
  0
LINE
  5
11C
100
AcDbEntity
  8
0
  6
ByLayer
 62
    0
370
   -1
100
AcDbLine
 10
226.169
 20
60.132
 11
226.97
 21
60.132
  0
LINE
  5
11D
100
AcDbEntity
  8
0
  6
ByLayer
 62
    0
370
   -1
100
AcDbLine
 10
226.97
 20
60.132
 11
226.97
 21
63.2326
  0
LINE
  5
11E
100
AcDbEntity
  8
0
  6
ByLayer
 62
    0
370
   -1
100
AcDbLine
 10
226.97
 20
63.2326
 11
226.169
 21
63.2326
  0
LINE
  5
11F
100
AcDbEntity
  8
0
  6
ByLayer
 62
    0
370
   -1
100
AcDbLine
 10
226.169
 20
63.2326
 11
226.169
 21
64.2317
  0
LINE
  5
120
100
AcDbEntity
  8
0
  6
ByLayer
 62
    0
370
   -1
100
AcDbLine
 10
226.169
 20
64.2317
 11
212.17
 21
64.2317
  0
LINE
  5
121
100
AcDbEntity
  8
0
  6
ByLayer
 62
    0
370
   -1
100
AcDbLine
 10
231.22
 20
64.2317
 11
231.22
 21
63.2326
  0
LINE
  5
122
100
AcDbEntity
  8
0
  6
ByLayer
 62
    0
370
   -1
100
AcDbLine
 10
231.22
 20
63.2326
 11
230.419
 21
63.2326
  0
LINE
  5
123
100
AcDbEntity
  8
0
  6
ByLayer
 62
    0
370
   -1
100
AcDbLine
 10
230.419
 20
63.2326
 11
230.419
 21
60.132
  0
LINE
  5
124
100
AcDbEntity
  8
0
  6
ByLayer
 62
    0
370
   -1
100
AcDbLine
 10
230.419
 20
60.132
 11
231.22
 21
60.132
  0
LINE
  5
125
100
AcDbEntity
  8
0
  6
ByLayer
 62
    0
370
   -1
100
AcDbLine
 10
231.22
 20
60.132
 11
231.22
 21
54.332
  0
LINE
  5
126
100
AcDbEntity
  8
0
  6
ByLayer
 62
    0
370
   -1
100
AcDbLine
 10
231.22
 20
54.332
 11
230.419
 21
54.332
  0
LINE
  5
127
100
AcDbEntity
  8
0
  6
ByLayer
 62
    0
370
   -1
100
AcDbLine
 10
230.419
 20
54.332
 11
230.419
 21
51.2329
  0
LINE
  5
128
100
AcDbEntity
  8
0
  6
ByLayer
 62
    0
370
   -1
100
AcDbLine
 10
230.419
 20
51.2329
 11
231.22
 21
51.2329
  0
LINE
  5
129
100
AcDbEntity
  8
0
  6
ByLayer
 62
    0
370
   -1
100
AcDbLine
 10
231.22
 20
51.2329
 11
231.22
 21
50.2324
  0
LINE
  5
12A
100
AcDbEntity
  8
0
  6
ByLayer
 62
    0
370
   -1
100
AcDbLine
 10
231.22
 20
50.2324
 11
245.219
 21
50.2324
  0
LINE
  5
12B
100
AcDbEntity
  8
0
  6
ByLayer
 62
    0
370
   -1
100
AcDbLine
 10
245.219
 20
50.2324
 11
245.219
 21
51.2329
  0
LINE
  5
12C
100
AcDbEntity
  8
0
  6
ByLayer
 62
    0
370
   -1
100
AcDbLine
 10
245.219
 20
51.2329
 11
246.02
 21
51.2329
  0
LINE
  5
12D
100
AcDbEntity
  8
0
  6
ByLayer
 62
    0
370
   -1
100
AcDbLine
 10
246.02
 20
51.2329
 11
246.02
 21
54.332
  0
LINE
  5
12E
100
AcDbEntity
  8
0
  6
ByLayer
 62
    0
370
   -1
100
AcDbLine
 10
246.02
 20
54.332
 11
245.219
 21
54.332
  0
LINE
  5
12F
100
AcDbEntity
  8
0
  6
ByLayer
 62
    0
370
   -1
100
AcDbLine
 10
245.219
 20
54.332
 11
245.219
 21
60.132
  0
LINE
  5
130
100
AcDbEntity
  8
0
  6
ByLayer
 62
    0
370
   -1
100
AcDbLine
 10
245.219
 20
60.132
 11
246.02
 21
60.132
  0
LINE
  5
131
100
AcDbEntity
  8
0
  6
ByLayer
 62
    0
370
   -1
100
AcDbLine
 10
246.02
 20
60.132
 11
246.02
 21
63.2326
  0
LINE
  5
132
100
AcDbEntity
  8
0
  6
ByLayer
 62
    0
370
   -1
100
AcDbLine
 10
246.02
 20
63.2326
 11
245.219
 21
63.2326
  0
LINE
  5
133
100
AcDbEntity
  8
0
  6
ByLayer
 62
    0
370
   -1
100
AcDbLine
 10
245.219
 20
63.2326
 11
245.219
 21
64.2317
  0
LINE
  5
134
100
AcDbEntity
  8
0
  6
ByLayer
 62
    0
370
   -1
100
AcDbLine
 10
245.219
 20
64.2317
 11
231.22
 21
64.2317
  0
LINE
  5
135
100
AcDbEntity
  8
0
  6
ByLayer
 62
    0
370
   -1
100
AcDbLine
 10
250.27
 20
64.2317
 11
250.27
 21
63.2326
  0
LINE
  5
136
100
AcDbEntity
  8
0
  6
ByLayer
 62
    0
370
   -1
100
AcDbLine
 10
250.27
 20
63.2326
 11
249.469
 21
63.2326
  0
LINE
  5
137
100
AcDbEntity
  8
0
  6
ByLayer
 62
    0
370
   -1
100
AcDbLine
 10
249.469
 20
63.2326
 11
249.469
 21
60.132
  0
LINE
  5
138
100
AcDbEntity
  8
0
  6
ByLayer
 62
    0
370
   -1
100
AcDbLine
 10
249.469
 20
60.132
 11
250.27
 21
60.132
  0
LINE
  5
139
100
AcDbEntity
  8
0
  6
ByLayer
 62
    0
370
   -1
100
AcDbLine
 10
250.27
 20
60.132
 11
250.27
 21
54.332
  0
LINE
  5
13A
100
AcDbEntity
  8
0
  6
ByLayer
 62
    0
370
   -1
100
AcDbLine
 10
250.27
 20
54.332
 11
249.469
 21
54.332
  0
LINE
  5
13B
100
AcDbEntity
  8
0
  6
ByLayer
 62
    0
370
   -1
100
AcDbLine
 10
249.469
 20
54.332
 11
249.469
 21
51.2329
  0
LINE
  5
13C
100
AcDbEntity
  8
0
  6
ByLayer
 62
    0
370
   -1
100
AcDbLine
 10
249.469
 20
51.2329
 11
250.27
 21
51.2329
  0
LINE
  5
13D
100
AcDbEntity
  8
0
  6
ByLayer
 62
    0
370
   -1
100
AcDbLine
 10
250.27
 20
51.2329
 11
250.27
 21
50.2324
  0
LINE
  5
13E
100
AcDbEntity
  8
0
  6
ByLayer
 62
    0
370
   -1
100
AcDbLine
 10
250.27
 20
50.2324
 11
264.269
 21
50.2324
  0
LINE
  5
13F
100
AcDbEntity
  8
0
  6
ByLayer
 62
    0
370
   -1
100
AcDbLine
 10
264.269
 20
50.2324
 11
264.269
 21
51.2329
  0
LINE
  5
140
100
AcDbEntity
  8
0
  6
ByLayer
 62
    0
370
   -1
100
AcDbLine
 10
264.269
 20
51.2329
 11
265.07
 21
51.2329
  0
LINE
  5
141
100
AcDbEntity
  8
0
  6
ByLayer
 62
    0
370
   -1
100
AcDbLine
 10
265.07
 20
51.2329
 11
265.07
 21
54.332
  0
LINE
  5
142
100
AcDbEntity
  8
0
  6
ByLayer
 62
    0
370
   -1
100
AcDbLine
 10
265.07
 20
54.332
 11
264.269
 21
54.332
  0
LINE
  5
143
100
AcDbEntity
  8
0
  6
ByLayer
 62
    0
370
   -1
100
AcDbLine
 10
264.269
 20
54.332
 11
264.269
 21
60.132
  0
LINE
  5
144
100
AcDbEntity
  8
0
  6
ByLayer
 62
    0
370
   -1
100
AcDbLine
 10
264.269
 20
60.132
 11
265.07
 21
60.132
  0
LINE
  5
145
100
AcDbEntity
  8
0
  6
ByLayer
 62
    0
370
   -1
100
AcDbLine
 10
265.07
 20
60.132
 11
265.07
 21
63.2326
  0
LINE
  5
146
100
AcDbEntity
  8
0
  6
ByLayer
 62
    0
370
   -1
100
AcDbLine
 10
265.07
 20
63.2326
 11
264.269
 21
63.2326
  0
LINE
  5
147
100
AcDbEntity
  8
0
  6
ByLayer
 62
    0
370
   -1
100
AcDbLine
 10
264.269
 20
63.2326
 11
264.269
 21
64.2317
  0
LINE
  5
148
100
AcDbEntity
  8
0
  6
ByLayer
 62
    0
370
   -1
100
AcDbLine
 10
264.269
 20
64.2317
 11
250.27
 21
64.2317
  0
LINE
  5
149
100
AcDbEntity
  8
0
  6
ByLayer
 62
    0
370
   -1
100
AcDbLine
 10
269.32
 20
64.2317
 11
269.32
 21
63.2326
  0
LINE
  5
14A
100
AcDbEntity
  8
0
  6
ByLayer
 62
    0
370
   -1
100
AcDbLine
 10
269.32
 20
63.2326
 11
268.519
 21
63.2326
  0
LINE
  5
14B
100
AcDbEntity
  8
0
  6
ByLayer
 62
    0
370
   -1
100
AcDbLine
 10
268.519
 20
63.2326
 11
268.519
 21
60.132
  0
LINE
  5
14C
100
AcDbEntity
  8
0
  6
ByLayer
 62
    0
370
   -1
100
AcDbLine
 10
268.519
 20
60.132
 11
269.32
 21
60.132
  0
LINE
  5
14D
100
AcDbEntity
  8
0
  6
ByLayer
 62
    0
370
   -1
100
AcDbLine
 10
269.32
 20
60.132
 11
269.32
 21
54.332
  0
LINE
  5
14E
100
AcDbEntity
  8
0
  6
ByLayer
 62
    0
370
   -1
100
AcDbLine
 10
269.32
 20
54.332
 11
268.519
 21
54.332
  0
LINE
  5
14F
100
AcDbEntity
  8
0
  6
ByLayer
 62
    0
370
   -1
100
AcDbLine
 10
268.519
 20
54.332
 11
268.519
 21
51.2329
  0
LINE
  5
150
100
AcDbEntity
  8
0
  6
ByLayer
 62
    0
370
   -1
100
AcDbLine
 10
268.519
 20
51.2329
 11
269.32
 21
51.2329
  0
LINE
  5
151
100
AcDbEntity
  8
0
  6
ByLayer
 62
    0
370
   -1
100
AcDbLine
 10
269.32
 20
51.2329
 11
269.32
 21
50.2324
  0
LINE
  5
152
100
AcDbEntity
  8
0
  6
ByLayer
 62
    0
370
   -1
100
AcDbLine
 10
269.32
 20
50.2324
 11
283.319
 21
50.2324
  0
LINE
  5
153
100
AcDbEntity
  8
0
  6
ByLayer
 62
    0
370
   -1
100
AcDbLine
 10
283.319
 20
50.2324
 11
283.319
 21
51.2329
  0
LINE
  5
154
100
AcDbEntity
  8
0
  6
ByLayer
 62
    0
370
   -1
100
AcDbLine
 10
283.319
 20
51.2329
 11
284.12
 21
51.2329
  0
LINE
  5
155
100
AcDbEntity
  8
0
  6
ByLayer
 62
    0
370
   -1
100
AcDbLine
 10
284.12
 20
51.2329
 11
284.12
 21
54.332
  0
LINE
  5
156
100
AcDbEntity
  8
0
  6
ByLayer
 62
    0
370
   -1
100
AcDbLine
 10
284.12
 20
54.332
 11
283.319
 21
54.332
  0
LINE
  5
157
100
AcDbEntity
  8
0
  6
ByLayer
 62
    0
370
   -1
100
AcDbLine
 10
283.319
 20
54.332
 11
283.319
 21
60.132
  0
LINE
  5
158
100
AcDbEntity
  8
0
  6
ByLayer
 62
    0
370
   -1
100
AcDbLine
 10
283.319
 20
60.132
 11
284.12
 21
60.132
  0
LINE
  5
159
100
AcDbEntity
  8
0
  6
ByLayer
 62
    0
370
   -1
100
AcDbLine
 10
284.12
 20
60.132
 11
284.12
 21
63.2326
  0
LINE
  5
15A
100
AcDbEntity
  8
0
  6
ByLayer
 62
    0
370
   -1
100
AcDbLine
 10
284.12
 20
63.2326
 11
283.319
 21
63.2326
  0
LINE
  5
15B
100
AcDbEntity
  8
0
  6
ByLayer
 62
    0
370
   -1
100
AcDbLine
 10
283.319
 20
63.2326
 11
283.319
 21
64.2317
  0
LINE
  5
15C
100
AcDbEntity
  8
0
  6
ByLayer
 62
    0
370
   -1
100
AcDbLine
 10
283.319
 20
64.2317
 11
269.32
 21
64.2317
  0
LINE
  5
15D
100
AcDbEntity
  8
0
  6
ByLayer
 62
    0
370
   -1
100
AcDbLine
 10
288.37
 20
64.2317
 11
288.37
 21
63.2326
  0
LINE
  5
15E
100
AcDbEntity
  8
0
  6
ByLayer
 62
    0
370
   -1
100
AcDbLine
 10
288.37
 20
63.2326
 11
287.569
 21
63.2326
  0
LINE
  5
15F
100
AcDbEntity
  8
0
  6
ByLayer
 62
    0
370
   -1
100
AcDbLine
 10
287.569
 20
63.2326
 11
287.569
 21
60.132
  0
LINE
  5
160
100
AcDbEntity
  8
0
  6
ByLayer
 62
    0
370
   -1
100
AcDbLine
 10
287.569
 20
60.132
 11
288.37
 21
60.132
  0
LINE
  5
161
100
AcDbEntity
  8
0
  6
ByLayer
 62
    0
370
   -1
100
AcDbLine
 10
288.37
 20
60.132
 11
288.37
 21
54.332
  0
LINE
  5
162
100
AcDbEntity
  8
0
  6
ByLayer
 62
    0
370
   -1
100
AcDbLine
 10
288.37
 20
54.332
 11
287.569
 21
54.332
  0
LINE
  5
163
100
AcDbEntity
  8
0
  6
ByLayer
 62
    0
370
   -1
100
AcDbLine
 10
287.569
 20
54.332
 11
287.569
 21
51.2329
  0
LINE
  5
164
100
AcDbEntity
  8
0
  6
ByLayer
 62
    0
370
   -1
100
AcDbLine
 10
287.569
 20
51.2329
 11
288.37
 21
51.2329
  0
LINE
  5
165
100
AcDbEntity
  8
0
  6
ByLayer
 62
    0
370
   -1
100
AcDbLine
 10
288.37
 20
51.2329
 11
288.37
 21
50.2324
  0
LINE
  5
166
100
AcDbEntity
  8
0
  6
ByLayer
 62
    0
370
   -1
100
AcDbLine
 10
288.37
 20
50.2324
 11
302.369
 21
50.2324
  0
LINE
  5
167
100
AcDbEntity
  8
0
  6
ByLayer
 62
    0
370
   -1
100
AcDbLine
 10
302.369
 20
50.2324
 11
302.369
 21
51.2329
  0
LINE
  5
168
100
AcDbEntity
  8
0
  6
ByLayer
 62
    0
370
   -1
100
AcDbLine
 10
302.369
 20
51.2329
 11
303.17
 21
51.2329
  0
LINE
  5
169
100
AcDbEntity
  8
0
  6
ByLayer
 62
    0
370
   -1
100
AcDbLine
 10
303.17
 20
51.2329
 11
303.17
 21
54.332
  0
LINE
  5
16A
100
AcDbEntity
  8
0
  6
ByLayer
 62
    0
370
   -1
100
AcDbLine
 10
303.17
 20
54.332
 11
302.369
 21
54.332
  0
LINE
  5
16B
100
AcDbEntity
  8
0
  6
ByLayer
 62
    0
370
   -1
100
AcDbLine
 10
302.369
 20
54.332
 11
302.369
 21
60.132
  0
LINE
  5
16C
100
AcDbEntity
  8
0
  6
ByLayer
 62
    0
370
   -1
100
AcDbLine
 10
302.369
 20
60.132
 11
303.17
 21
60.132
  0
LINE
  5
16D
100
AcDbEntity
  8
0
  6
ByLayer
 62
    0
370
   -1
100
AcDbLine
 10
303.17
 20
60.132
 11
303.17
 21
63.2326
  0
LINE
  5
16E
100
AcDbEntity
  8
0
  6
ByLayer
 62
    0
370
   -1
100
AcDbLine
 10
303.17
 20
63.2326
 11
302.369
 21
63.2326
  0
LINE
  5
16F
100
AcDbEntity
  8
0
  6
ByLayer
 62
    0
370
   -1
100
AcDbLine
 10
302.369
 20
63.2326
 11
302.369
 21
64.2317
  0
LINE
  5
170
100
AcDbEntity
  8
0
  6
ByLayer
 62
    0
370
   -1
100
AcDbLine
 10
302.369
 20
64.2317
 11
288.37
 21
64.2317
  0
LINE
  5
171
100
AcDbEntity
  8
0
  6
ByLayer
 62
    0
370
   -1
100
AcDbLine
 10
307.42
 20
64.2317
 11
307.42
 21
63.2326
  0
LINE
  5
172
100
AcDbEntity
  8
0
  6
ByLayer
 62
    0
370
   -1
100
AcDbLine
 10
307.42
 20
63.2326
 11
306.619
 21
63.2326
  0
LINE
  5
173
100
AcDbEntity
  8
0
  6
ByLayer
 62
    0
370
   -1
100
AcDbLine
 10
306.619
 20
63.2326
 11
306.619
 21
60.132
  0
LINE
  5
174
100
AcDbEntity
  8
0
  6
ByLayer
 62
    0
370
   -1
100
AcDbLine
 10
306.619
 20
60.132
 11
307.42
 21
60.132
  0
LINE
  5
175
100
AcDbEntity
  8
0
  6
ByLayer
 62
    0
370
   -1
100
AcDbLine
 10
307.42
 20
60.132
 11
307.42
 21
54.332
  0
LINE
  5
176
100
AcDbEntity
  8
0
  6
ByLayer
 62
    0
370
   -1
100
AcDbLine
 10
307.42
 20
54.332
 11
306.619
 21
54.332
  0
LINE
  5
177
100
AcDbEntity
  8
0
  6
ByLayer
 62
    0
370
   -1
100
AcDbLine
 10
306.619
 20
54.332
 11
306.619
 21
51.2329
  0
LINE
  5
178
100
AcDbEntity
  8
0
  6
ByLayer
 62
    0
370
   -1
100
AcDbLine
 10
306.619
 20
51.2329
 11
307.42
 21
51.2329
  0
LINE
  5
179
100
AcDbEntity
  8
0
  6
ByLayer
 62
    0
370
   -1
100
AcDbLine
 10
307.42
 20
51.2329
 11
307.42
 21
50.2324
  0
LINE
  5
17A
100
AcDbEntity
  8
0
  6
ByLayer
 62
    0
370
   -1
100
AcDbLine
 10
307.42
 20
50.2324
 11
321.419
 21
50.2324
  0
LINE
  5
17B
100
AcDbEntity
  8
0
  6
ByLayer
 62
    0
370
   -1
100
AcDbLine
 10
321.419
 20
50.2324
 11
321.419
 21
51.2329
  0
LINE
  5
17C
100
AcDbEntity
  8
0
  6
ByLayer
 62
    0
370
   -1
100
AcDbLine
 10
321.419
 20
51.2329
 11
322.22
 21
51.2329
  0
LINE
  5
17D
100
AcDbEntity
  8
0
  6
ByLayer
 62
    0
370
   -1
100
AcDbLine
 10
322.22
 20
51.2329
 11
322.22
 21
54.332
  0
LINE
  5
17E
100
AcDbEntity
  8
0
  6
ByLayer
 62
    0
370
   -1
100
AcDbLine
 10
322.22
 20
54.332
 11
321.419
 21
54.332
  0
LINE
  5
17F
100
AcDbEntity
  8
0
  6
ByLayer
 62
    0
370
   -1
100
AcDbLine
 10
321.419
 20
54.332
 11
321.419
 21
60.132
  0
LINE
  5
180
100
AcDbEntity
  8
0
  6
ByLayer
 62
    0
370
   -1
100
AcDbLine
 10
321.419
 20
60.132
 11
322.22
 21
60.132
  0
LINE
  5
181
100
AcDbEntity
  8
0
  6
ByLayer
 62
    0
370
   -1
100
AcDbLine
 10
322.22
 20
60.132
 11
322.22
 21
63.2326
  0
LINE
  5
182
100
AcDbEntity
  8
0
  6
ByLayer
 62
    0
370
   -1
100
AcDbLine
 10
322.22
 20
63.2326
 11
321.419
 21
63.2326
  0
LINE
  5
183
100
AcDbEntity
  8
0
  6
ByLayer
 62
    0
370
   -1
100
AcDbLine
 10
321.419
 20
63.2326
 11
321.419
 21
64.2317
  0
LINE
  5
184
100
AcDbEntity
  8
0
  6
ByLayer
 62
    0
370
   -1
100
AcDbLine
 10
321.419
 20
64.2317
 11
307.42
 21
64.2317
  0
LINE
  5
185
100
AcDbEntity
  8
0
  6
ByLayer
 62
    0
370
   -1
100
AcDbLine
 10
333.612
 20
64.2317
 11
333.612
 21
63.2326
  0
LINE
  5
186
100
AcDbEntity
  8
0
  6
ByLayer
 62
    0
370
   -1
100
AcDbLine
 10
333.612
 20
63.2326
 11
332.813
 21
63.2326
  0
LINE
  5
187
100
AcDbEntity
  8
0
  6
ByLayer
 62
    0
370
   -1
100
AcDbLine
 10
332.813
 20
63.2326
 11
332.813
 21
60.132
  0
LINE
  5
188
100
AcDbEntity
  8
0
  6
ByLayer
 62
    0
370
   -1
100
AcDbLine
 10
332.813
 20
60.132
 11
333.612
 21
60.132
  0
LINE
  5
189
100
AcDbEntity
  8
0
  6
ByLayer
 62
    0
370
   -1
100
AcDbLine
 10
333.612
 20
60.132
 11
333.612
 21
54.332
  0
LINE
  5
18A
100
AcDbEntity
  8
0
  6
ByLayer
 62
    0
370
   -1
100
AcDbLine
 10
333.612
 20
54.332
 11
332.813
 21
54.332
  0
LINE
  5
18B
100
AcDbEntity
  8
0
  6
ByLayer
 62
    0
370
   -1
100
AcDbLine
 10
332.813
 20
54.332
 11
332.813
 21
51.2329
  0
LINE
  5
18C
100
AcDbEntity
  8
0
  6
ByLayer
 62
    0
370
   -1
100
AcDbLine
 10
332.813
 20
51.2329
 11
333.612
 21
51.2329
  0
LINE
  5
18D
100
AcDbEntity
  8
0
  6
ByLayer
 62
    0
370
   -1
100
AcDbLine
 10
333.612
 20
51.2329
 11
333.612
 21
50.2324
  0
LINE
  5
18E
100
AcDbEntity
  8
0
  6
ByLayer
 62
    0
370
   -1
100
AcDbLine
 10
333.612
 20
50.2324
 11
347.613
 21
50.2324
  0
LINE
  5
18F
100
AcDbEntity
  8
0
  6
ByLayer
 62
    0
370
   -1
100
AcDbLine
 10
347.613
 20
50.2324
 11
347.613
 21
51.2329
  0
LINE
  5
190
100
AcDbEntity
  8
0
  6
ByLayer
 62
    0
370
   -1
100
AcDbLine
 10
347.613
 20
51.2329
 11
348.412
 21
51.2329
  0
LINE
  5
191
100
AcDbEntity
  8
0
  6
ByLayer
 62
    0
370
   -1
100
AcDbLine
 10
348.412
 20
51.2329
 11
348.412
 21
54.332
  0
LINE
  5
192
100
AcDbEntity
  8
0
  6
ByLayer
 62
    0
370
   -1
100
AcDbLine
 10
348.412
 20
54.332
 11
347.613
 21
54.332
  0
LINE
  5
193
100
AcDbEntity
  8
0
  6
ByLayer
 62
    0
370
   -1
100
AcDbLine
 10
347.613
 20
54.332
 11
347.613
 21
60.132
  0
LINE
  5
194
100
AcDbEntity
  8
0
  6
ByLayer
 62
    0
370
   -1
100
AcDbLine
 10
347.613
 20
60.132
 11
348.412
 21
60.132
  0
LINE
  5
195
100
AcDbEntity
  8
0
  6
ByLayer
 62
    0
370
   -1
100
AcDbLine
 10
348.412
 20
60.132
 11
348.412
 21
63.2326
  0
LINE
  5
196
100
AcDbEntity
  8
0
  6
ByLayer
 62
    0
370
   -1
100
AcDbLine
 10
348.412
 20
63.2326
 11
347.613
 21
63.2326
  0
LINE
  5
197
100
AcDbEntity
  8
0
  6
ByLayer
 62
    0
370
   -1
100
AcDbLine
 10
347.613
 20
63.2326
 11
347.613
 21
64.2317
  0
LINE
  5
198
100
AcDbEntity
  8
0
  6
ByLayer
 62
    0
370
   -1
100
AcDbLine
 10
347.613
 20
64.2317
 11
333.612
 21
64.2317
  0
LINE
  5
199
100
AcDbEntity
  8
0
  6
ByLayer
 62
    0
370
   -1
100
AcDbLine
 10
364.571
 20
64.2317
 11
364.571
 21
63.2326
  0
LINE
  5
19A
100
AcDbEntity
  8
0
  6
ByLayer
 62
    0
370
   -1
100
AcDbLine
 10
364.571
 20
63.2326
 11
363.77
 21
63.2326
  0
LINE
  5
19B
100
AcDbEntity
  8
0
  6
ByLayer
 62
    0
370
   -1
100
AcDbLine
 10
363.77
 20
63.2326
 11
363.77
 21
60.132
  0
LINE
  5
19C
100
AcDbEntity
  8
0
  6
ByLayer
 62
    0
370
   -1
100
AcDbLine
 10
363.77
 20
60.132
 11
364.571
 21
60.132
  0
LINE
  5
19D
100
AcDbEntity
  8
0
  6
ByLayer
 62
    0
370
   -1
100
AcDbLine
 10
364.571
 20
60.132
 11
364.571
 21
54.332
  0
LINE
  5
19E
100
AcDbEntity
  8
0
  6
ByLayer
 62
    0
370
   -1
100
AcDbLine
 10
364.571
 20
54.332
 11
363.77
 21
54.332
  0
LINE
  5
19F
100
AcDbEntity
  8
0
  6
ByLayer
 62
    0
370
   -1
100
AcDbLine
 10
363.77
 20
54.332
 11
363.77
 21
51.2329
  0
LINE
  5
1A0
100
AcDbEntity
  8
0
  6
ByLayer
 62
    0
370
   -1
100
AcDbLine
 10
363.77
 20
51.2329
 11
364.571
 21
51.2329
  0
LINE
  5
1A1
100
AcDbEntity
  8
0
  6
ByLayer
 62
    0
370
   -1
100
AcDbLine
 10
364.571
 20
51.2329
 11
364.571
 21
50.2324
  0
LINE
  5
1A2
100
AcDbEntity
  8
0
  6
ByLayer
 62
    0
370
   -1
100
AcDbLine
 10
364.571
 20
50.2324
 11
378.569
 21
50.2324
  0
LINE
  5
1A3
100
AcDbEntity
  8
0
  6
ByLayer
 62
    0
370
   -1
100
AcDbLine
 10
378.569
 20
50.2324
 11
378.569
 21
51.2329
  0
LINE
  5
1A4
100
AcDbEntity
  8
0
  6
ByLayer
 62
    0
370
   -1
100
AcDbLine
 10
378.569
 20
51.2329
 11
379.37
 21
51.2329
  0
LINE
  5
1A5
100
AcDbEntity
  8
0
  6
ByLayer
 62
    0
370
   -1
100
AcDbLine
 10
379.37
 20
51.2329
 11
379.37
 21
54.332
  0
LINE
  5
1A6
100
AcDbEntity
  8
0
  6
ByLayer
 62
    0
370
   -1
100
AcDbLine
 10
379.37
 20
54.332
 11
378.569
 21
54.332
  0
LINE
  5
1A7
100
AcDbEntity
  8
0
  6
ByLayer
 62
    0
370
   -1
100
AcDbLine
 10
378.569
 20
54.332
 11
378.569
 21
60.132
  0
LINE
  5
1A8
100
AcDbEntity
  8
0
  6
ByLayer
 62
    0
370
   -1
100
AcDbLine
 10
378.569
 20
60.132
 11
379.37
 21
60.132
  0
LINE
  5
1A9
100
AcDbEntity
  8
0
  6
ByLayer
 62
    0
370
   -1
100
AcDbLine
 10
379.37
 20
60.132
 11
379.37
 21
63.2326
  0
LINE
  5
1AA
100
AcDbEntity
  8
0
  6
ByLayer
 62
    0
370
   -1
100
AcDbLine
 10
379.37
 20
63.2326
 11
378.569
 21
63.2326
  0
LINE
  5
1AB
100
AcDbEntity
  8
0
  6
ByLayer
 62
    0
370
   -1
100
AcDbLine
 10
378.569
 20
63.2326
 11
378.569
 21
64.2317
  0
LINE
  5
1AC
100
AcDbEntity
  8
0
  6
ByLayer
 62
    0
370
   -1
100
AcDbLine
 10
378.569
 20
64.2317
 11
364.571
 21
64.2317
  0
LINE
  5
1AD
100
AcDbEntity
  8
0
  6
ByLayer
 62
    0
370
   -1
100
AcDbLine
 10
347.901
 20
83.2817
 11
347.901
 21
82.2826
  0
LINE
  5
1AE
100
AcDbEntity
  8
0
  6
ByLayer
 62
    0
370
   -1
100
AcDbLine
 10
347.901
 20
82.2826
 11
347.1
 21
82.2826
  0
LINE
  5
1AF
100
AcDbEntity
  8
0
  6
ByLayer
 62
    0
370
   -1
100
AcDbLine
 10
347.1
 20
82.2826
 11
347.1
 21
79.182
  0
LINE
  5
1B0
100
AcDbEntity
  8
0
  6
ByLayer
 62
    0
370
   -1
100
AcDbLine
 10
347.1
 20
79.182
 11
347.901
 21
79.182
  0
LINE
  5
1B1
100
AcDbEntity
  8
0
  6
ByLayer
 62
    0
370
   -1
100
AcDbLine
 10
347.901
 20
79.182
 11
347.901
 21
78.5827
  0
LINE
  5
1B2
100
AcDbEntity
  8
0
  6
ByLayer
 62
    0
370
   -1
100
AcDbLine
 10
347.901
 20
78.5827
 11
346.376
 21
78.5827
  0
LINE
  5
1B3
100
AcDbEntity
  8
0
  6
ByLayer
 62
    0
370
   -1
100
AcDbLine
 10
346.376
 20
78.5827
 11
346.376
 21
81.81270000000001
  0
LINE
  5
1B4
100
AcDbEntity
  8
0
  6
ByLayer
 62
    0
370
   -1
100
AcDbLine
 10
346.376
 20
81.81270000000001
 11
339.626
 21
81.81270000000001
  0
LINE
  5
1B5
100
AcDbEntity
  8
0
  6
ByLayer
 62
    0
370
   -1
100
AcDbLine
 10
339.626
 20
81.81270000000001
 11
339.626
 21
78.5827
  0
LINE
  5
1B6
100
AcDbEntity
  8
0
  6
ByLayer
 62
    0
370
   -1
100
AcDbLine
 10
339.626
 20
78.5827
 11
338.8
 21
78.5827
  0
LINE
  5
1B7
100
AcDbEntity
  8
0
  6
ByLayer
 62
    0
370
   -1
100
AcDbLine
 10
338.8
 20
78.5827
 11
338.8
 21
75.78230000000001
  0
LINE
  5
1B8
100
AcDbEntity
  8
0
  6
ByLayer
 62
    0
370
   -1
100
AcDbLine
 10
338.8
 20
75.78230000000001
 11
339.626
 21
75.78230000000001
  0
LINE
  5
1B9
100
AcDbEntity
  8
0
  6
ByLayer
 62
    0
370
   -1
100
AcDbLine
 10
339.626
 20
75.78230000000001
 11
339.626
 21
69.5124
  0
LINE
  5
1BA
100
AcDbEntity
  8
0
  6
ByLayer
 62
    0
370
   -1
100
AcDbLine
 10
339.626
 20
69.5124
 11
341.351
 21
69.5124
  0
LINE
  5
1BB
100
AcDbEntity
  8
0
  6
ByLayer
 62
    0
370
   -1
100
AcDbLine
 10
341.351
 20
69.5124
 11
341.351
 21
68.3122
  0
LINE
  5
1BC
100
AcDbEntity
  8
0
  6
ByLayer
 62
    0
370
   -1
100
AcDbLine
 10
341.351
 20
68.3122
 11
344.65
 21
68.3122
  0
LINE
  5
1BD
100
AcDbEntity
  8
0
  6
ByLayer
 62
    0
370
   -1
100
AcDbLine
 10
344.65
 20
68.3122
 11
344.65
 21
69.5124
  0
LINE
  5
1BE
100
AcDbEntity
  8
0
  6
ByLayer
 62
    0
370
   -1
100
AcDbLine
 10
344.65
 20
69.5124
 11
346.376
 21
69.5124
  0
LINE
  5
1BF
100
AcDbEntity
  8
0
  6
ByLayer
 62
    0
370
   -1
100
AcDbLine
 10
346.376
 20
69.5124
 11
346.376
 21
73.9828
  0
LINE
  5
1C0
100
AcDbEntity
  8
0
  6
ByLayer
 62
    0
370
   -1
100
AcDbLine
 10
346.376
 20
73.9828
 11
347.901
 21
73.9828
  0
LINE
  5
1C1
100
AcDbEntity
  8
0
  6
ByLayer
 62
    0
370
   -1
100
AcDbLine
 10
347.901
 20
73.9828
 11
347.901
 21
73.38200000000001
  0
LINE
  5
1C2
100
AcDbEntity
  8
0
  6
ByLayer
 62
    0
370
   -1
100
AcDbLine
 10
347.901
 20
73.38200000000001
 11
347.1
 21
73.38200000000001
  0
LINE
  5
1C3
100
AcDbEntity
  8
0
  6
ByLayer
 62
    0
370
   -1
100
AcDbLine
 10
347.1
 20
73.38200000000001
 11
347.1
 21
70.2829
  0
LINE
  5
1C4
100
AcDbEntity
  8
0
  6
ByLayer
 62
    0
370
   -1
100
AcDbLine
 10
347.1
 20
70.2829
 11
347.901
 21
70.2829
  0
LINE
  5
1C5
100
AcDbEntity
  8
0
  6
ByLayer
 62
    0
370
   -1
100
AcDbLine
 10
347.901
 20
70.2829
 11
347.901
 21
69.2824
  0
LINE
  5
1C6
100
AcDbEntity
  8
0
  6
ByLayer
 62
    0
370
   -1
100
AcDbLine
 10
347.901
 20
69.2824
 11
361.901
 21
69.2824
  0
LINE
  5
1C7
100
AcDbEntity
  8
0
  6
ByLayer
 62
    0
370
   -1
100
AcDbLine
 10
361.901
 20
69.2824
 11
361.901
 21
70.2829
  0
LINE
  5
1C8
100
AcDbEntity
  8
0
  6
ByLayer
 62
    0
370
   -1
100
AcDbLine
 10
361.901
 20
70.2829
 11
362.701
 21
70.2829
  0
LINE
  5
1C9
100
AcDbEntity
  8
0
  6
ByLayer
 62
    0
370
   -1
100
AcDbLine
 10
362.701
 20
70.2829
 11
362.701
 21
73.38200000000001
  0
LINE
  5
1CA
100
AcDbEntity
  8
0
  6
ByLayer
 62
    0
370
   -1
100
AcDbLine
 10
362.701
 20
73.38200000000001
 11
361.901
 21
73.38200000000001
  0
LINE
  5
1CB
100
AcDbEntity
  8
0
  6
ByLayer
 62
    0
370
   -1
100
AcDbLine
 10
361.901
 20
73.38200000000001
 11
361.901
 21
73.9828
  0
LINE
  5
1CC
100
AcDbEntity
  8
0
  6
ByLayer
 62
    0
370
   -1
100
AcDbLine
 10
361.901
 20
73.9828
 11
363.425
 21
73.9828
  0
LINE
  5
1CD
100
AcDbEntity
  8
0
  6
ByLayer
 62
    0
370
   -1
100
AcDbLine
 10
363.425
 20
73.9828
 11
363.425
 21
69.5124
  0
LINE
  5
1CE
100
AcDbEntity
  8
0
  6
ByLayer
 62
    0
370
   -1
100
AcDbLine
 10
363.425
 20
69.5124
 11
365.15
 21
69.5124
  0
LINE
  5
1CF
100
AcDbEntity
  8
0
  6
ByLayer
 62
    0
370
   -1
100
AcDbLine
 10
365.15
 20
69.5124
 11
365.15
 21
68.3122
  0
LINE
  5
1D0
100
AcDbEntity
  8
0
  6
ByLayer
 62
    0
370
   -1
100
AcDbLine
 10
365.15
 20
68.3122
 11
368.452
 21
68.3122
  0
LINE
  5
1D1
100
AcDbEntity
  8
0
  6
ByLayer
 62
    0
370
   -1
100
AcDbLine
 10
368.452
 20
68.3122
 11
368.452
 21
69.5124
  0
LINE
  5
1D2
100
AcDbEntity
  8
0
  6
ByLayer
 62
    0
370
   -1
100
AcDbLine
 10
368.452
 20
69.5124
 11
370.177
 21
69.5124
  0
LINE
  5
1D3
100
AcDbEntity
  8
0
  6
ByLayer
 62
    0
370
   -1
100
AcDbLine
 10
370.177
 20
69.5124
 11
370.177
 21
75.78230000000001
  0
LINE
  5
1D4
100
AcDbEntity
  8
0
  6
ByLayer
 62
    0
370
   -1
100
AcDbLine
 10
370.177
 20
75.78230000000001
 11
371.002
 21
75.78230000000001
  0
LINE
  5
1D5
100
AcDbEntity
  8
0
  6
ByLayer
 62
    0
370
   -1
100
AcDbLine
 10
371.002
 20
75.78230000000001
 11
371.002
 21
78.5827
  0
LINE
  5
1D6
100
AcDbEntity
  8
0
  6
ByLayer
 62
    0
370
   -1
100
AcDbLine
 10
371.002
 20
78.5827
 11
370.177
 21
78.5827
  0
LINE
  5
1D7
100
AcDbEntity
  8
0
  6
ByLayer
 62
    0
370
   -1
100
AcDbLine
 10
370.177
 20
78.5827
 11
370.177
 21
81.81270000000001
  0
LINE
  5
1D8
100
AcDbEntity
  8
0
  6
ByLayer
 62
    0
370
   -1
100
AcDbLine
 10
370.177
 20
81.81270000000001
 11
363.425
 21
81.81270000000001
  0
LINE
  5
1D9
100
AcDbEntity
  8
0
  6
ByLayer
 62
    0
370
   -1
100
AcDbLine
 10
363.425
 20
81.81270000000001
 11
363.425
 21
78.5827
  0
LINE
  5
1DA
100
AcDbEntity
  8
0
  6
ByLayer
 62
    0
370
   -1
100
AcDbLine
 10
363.425
 20
78.5827
 11
361.901
 21
78.5827
  0
LINE
  5
1DB
100
AcDbEntity
  8
0
  6
ByLayer
 62
    0
370
   -1
100
AcDbLine
 10
361.901
 20
78.5827
 11
361.901
 21
79.182
  0
LINE
  5
1DC
100
AcDbEntity
  8
0
  6
ByLayer
 62
    0
370
   -1
100
AcDbLine
 10
361.901
 20
79.182
 11
362.701
 21
79.182
  0
LINE
  5
1DD
100
AcDbEntity
  8
0
  6
ByLayer
 62
    0
370
   -1
100
AcDbLine
 10
362.701
 20
79.182
 11
362.701
 21
82.2826
  0
LINE
  5
1DE
100
AcDbEntity
  8
0
  6
ByLayer
 62
    0
370
   -1
100
AcDbLine
 10
362.701
 20
82.2826
 11
361.901
 21
82.2826
  0
LINE
  5
1DF
100
AcDbEntity
  8
0
  6
ByLayer
 62
    0
370
   -1
100
AcDbLine
 10
361.901
 20
82.2826
 11
361.901
 21
83.2817
  0
LINE
  5
1E0
100
AcDbEntity
  8
0
  6
ByLayer
 62
    0
370
   -1
100
AcDbLine
 10
361.901
 20
83.2817
 11
347.901
 21
83.2817
  0
LINE
  5
1E1
100
AcDbEntity
  8
0
  6
ByLayer
 62
    0
370
   -1
100
AcDbLine
 10
221.695
 20
83.2817
 11
221.695
 21
82.2826
  0
LINE
  5
1E2
100
AcDbEntity
  8
0
  6
ByLayer
 62
    0
370
   -1
100
AcDbLine
 10
221.695
 20
82.2826
 11
220.894
 21
82.2826
  0
LINE
  5
1E3
100
AcDbEntity
  8
0
  6
ByLayer
 62
    0
370
   -1
100
AcDbLine
 10
220.894
 20
82.2826
 11
220.894
 21
79.182
  0
LINE
  5
1E4
100
AcDbEntity
  8
0
  6
ByLayer
 62
    0
370
   -1
100
AcDbLine
 10
220.894
 20
79.182
 11
221.695
 21
79.182
  0
LINE
  5
1E5
100
AcDbEntity
  8
0
  6
ByLayer
 62
    0
370
   -1
100
AcDbLine
 10
221.695
 20
79.182
 11
221.695
 21
73.38200000000001
  0
LINE
  5
1E6
100
AcDbEntity
  8
0
  6
ByLayer
 62
    0
370
   -1
100
AcDbLine
 10
221.695
 20
73.38200000000001
 11
220.894
 21
73.38200000000001
  0
LINE
  5
1E7
100
AcDbEntity
  8
0
  6
ByLayer
 62
    0
370
   -1
100
AcDbLine
 10
220.894
 20
73.38200000000001
 11
220.894
 21
70.2829
  0
LINE
  5
1E8
100
AcDbEntity
  8
0
  6
ByLayer
 62
    0
370
   -1
100
AcDbLine
 10
220.894
 20
70.2829
 11
221.695
 21
70.2829
  0
LINE
  5
1E9
100
AcDbEntity
  8
0
  6
ByLayer
 62
    0
370
   -1
100
AcDbLine
 10
221.695
 20
70.2829
 11
221.695
 21
69.2824
  0
LINE
  5
1EA
100
AcDbEntity
  8
0
  6
ByLayer
 62
    0
370
   -1
100
AcDbLine
 10
221.695
 20
69.2824
 11
235.694
 21
69.2824
  0
LINE
  5
1EB
100
AcDbEntity
  8
0
  6
ByLayer
 62
    0
370
   -1
100
AcDbLine
 10
235.694
 20
69.2824
 11
235.694
 21
70.2829
  0
LINE
  5
1EC
100
AcDbEntity
  8
0
  6
ByLayer
 62
    0
370
   -1
100
AcDbLine
 10
235.694
 20
70.2829
 11
236.495
 21
70.2829
  0
LINE
  5
1ED
100
AcDbEntity
  8
0
  6
ByLayer
 62
    0
370
   -1
100
AcDbLine
 10
236.495
 20
70.2829
 11
236.495
 21
73.38200000000001
  0
LINE
  5
1EE
100
AcDbEntity
  8
0
  6
ByLayer
 62
    0
370
   -1
100
AcDbLine
 10
236.495
 20
73.38200000000001
 11
235.694
 21
73.38200000000001
  0
LINE
  5
1EF
100
AcDbEntity
  8
0
  6
ByLayer
 62
    0
370
   -1
100
AcDbLine
 10
235.694
 20
73.38200000000001
 11
235.694
 21
79.182
  0
LINE
  5
1F0
100
AcDbEntity
  8
0
  6
ByLayer
 62
    0
370
   -1
100
AcDbLine
 10
235.694
 20
79.182
 11
236.495
 21
79.182
  0
LINE
  5
1F1
100
AcDbEntity
  8
0
  6
ByLayer
 62
    0
370
   -1
100
AcDbLine
 10
236.495
 20
79.182
 11
236.495
 21
82.2826
  0
LINE
  5
1F2
100
AcDbEntity
  8
0
  6
ByLayer
 62
    0
370
   -1
100
AcDbLine
 10
236.495
 20
82.2826
 11
235.694
 21
82.2826
  0
LINE
  5
1F3
100
AcDbEntity
  8
0
  6
ByLayer
 62
    0
370
   -1
100
AcDbLine
 10
235.694
 20
82.2826
 11
235.694
 21
83.2817
  0
LINE
  5
1F4
100
AcDbEntity
  8
0
  6
ByLayer
 62
    0
370
   -1
100
AcDbLine
 10
235.694
 20
83.2817
 11
221.695
 21
83.2817
  0
LINE
  5
1F5
100
AcDbEntity
  8
0
  6
ByLayer
 62
    0
370
   -1
100
AcDbLine
 10
240.745
 20
83.2817
 11
240.745
 21
82.2826
  0
LINE
  5
1F6
100
AcDbEntity
  8
0
  6
ByLayer
 62
    0
370
   -1
100
AcDbLine
 10
240.745
 20
82.2826
 11
239.944
 21
82.2826
  0
LINE
  5
1F7
100
AcDbEntity
  8
0
  6
ByLayer
 62
    0
370
   -1
100
AcDbLine
 10
239.944
 20
82.2826
 11
239.944
 21
79.182
  0
LINE
  5
1F8
100
AcDbEntity
  8
0
  6
ByLayer
 62
    0
370
   -1
100
AcDbLine
 10
239.944
 20
79.182
 11
240.745
 21
79.182
  0
LINE
  5
1F9
100
AcDbEntity
  8
0
  6
ByLayer
 62
    0
370
   -1
100
AcDbLine
 10
240.745
 20
79.182
 11
240.745
 21
73.38200000000001
  0
LINE
  5
1FA
100
AcDbEntity
  8
0
  6
ByLayer
 62
    0
370
   -1
100
AcDbLine
 10
240.745
 20
73.38200000000001
 11
239.944
 21
73.38200000000001
  0
LINE
  5
1FB
100
AcDbEntity
  8
0
  6
ByLayer
 62
    0
370
   -1
100
AcDbLine
 10
239.944
 20
73.38200000000001
 11
239.944
 21
70.2829
  0
LINE
  5
1FC
100
AcDbEntity
  8
0
  6
ByLayer
 62
    0
370
   -1
100
AcDbLine
 10
239.944
 20
70.2829
 11
240.745
 21
70.2829
  0
LINE
  5
1FD
100
AcDbEntity
  8
0
  6
ByLayer
 62
    0
370
   -1
100
AcDbLine
 10
240.745
 20
70.2829
 11
240.745
 21
69.2824
  0
LINE
  5
1FE
100
AcDbEntity
  8
0
  6
ByLayer
 62
    0
370
   -1
100
AcDbLine
 10
240.745
 20
69.2824
 11
254.744
 21
69.2824
  0
LINE
  5
1FF
100
AcDbEntity
  8
0
  6
ByLayer
 62
    0
370
   -1
100
AcDbLine
 10
254.744
 20
69.2824
 11
254.744
 21
70.2829
  0
LINE
  5
200
100
AcDbEntity
  8
0
  6
ByLayer
 62
    0
370
   -1
100
AcDbLine
 10
254.744
 20
70.2829
 11
255.545
 21
70.2829
  0
LINE
  5
201
100
AcDbEntity
  8
0
  6
ByLayer
 62
    0
370
   -1
100
AcDbLine
 10
255.545
 20
70.2829
 11
255.545
 21
73.38200000000001
  0
LINE
  5
202
100
AcDbEntity
  8
0
  6
ByLayer
 62
    0
370
   -1
100
AcDbLine
 10
255.545
 20
73.38200000000001
 11
254.744
 21
73.38200000000001
  0
LINE
  5
203
100
AcDbEntity
  8
0
  6
ByLayer
 62
    0
370
   -1
100
AcDbLine
 10
254.744
 20
73.38200000000001
 11
254.744
 21
79.182
  0
LINE
  5
204
100
AcDbEntity
  8
0
  6
ByLayer
 62
    0
370
   -1
100
AcDbLine
 10
254.744
 20
79.182
 11
255.545
 21
79.182
  0
LINE
  5
205
100
AcDbEntity
  8
0
  6
ByLayer
 62
    0
370
   -1
100
AcDbLine
 10
255.545
 20
79.182
 11
255.545
 21
82.2826
  0
LINE
  5
206
100
AcDbEntity
  8
0
  6
ByLayer
 62
    0
370
   -1
100
AcDbLine
 10
255.545
 20
82.2826
 11
254.744
 21
82.2826
  0
LINE
  5
207
100
AcDbEntity
  8
0
  6
ByLayer
 62
    0
370
   -1
100
AcDbLine
 10
254.744
 20
82.2826
 11
254.744
 21
83.2817
  0
LINE
  5
208
100
AcDbEntity
  8
0
  6
ByLayer
 62
    0
370
   -1
100
AcDbLine
 10
254.744
 20
83.2817
 11
240.745
 21
83.2817
  0
LINE
  5
209
100
AcDbEntity
  8
0
  6
ByLayer
 62
    0
370
   -1
100
AcDbLine
 10
259.795
 20
83.2817
 11
259.795
 21
82.2826
  0
LINE
  5
20A
100
AcDbEntity
  8
0
  6
ByLayer
 62
    0
370
   -1
100
AcDbLine
 10
259.795
 20
82.2826
 11
258.994
 21
82.2826
  0
LINE
  5
20B
100
AcDbEntity
  8
0
  6
ByLayer
 62
    0
370
   -1
100
AcDbLine
 10
258.994
 20
82.2826
 11
258.994
 21
79.182
  0
LINE
  5
20C
100
AcDbEntity
  8
0
  6
ByLayer
 62
    0
370
   -1
100
AcDbLine
 10
258.994
 20
79.182
 11
259.795
 21
79.182
  0
LINE
  5
20D
100
AcDbEntity
  8
0
  6
ByLayer
 62
    0
370
   -1
100
AcDbLine
 10
259.795
 20
79.182
 11
259.795
 21
73.38200000000001
  0
LINE
  5
20E
100
AcDbEntity
  8
0
  6
ByLayer
 62
    0
370
   -1
100
AcDbLine
 10
259.795
 20
73.38200000000001
 11
258.994
 21
73.38200000000001
  0
LINE
  5
20F
100
AcDbEntity
  8
0
  6
ByLayer
 62
    0
370
   -1
100
AcDbLine
 10
258.994
 20
73.38200000000001
 11
258.994
 21
70.2829
  0
LINE
  5
210
100
AcDbEntity
  8
0
  6
ByLayer
 62
    0
370
   -1
100
AcDbLine
 10
258.994
 20
70.2829
 11
259.795
 21
70.2829
  0
LINE
  5
211
100
AcDbEntity
  8
0
  6
ByLayer
 62
    0
370
   -1
100
AcDbLine
 10
259.795
 20
70.2829
 11
259.795
 21
69.2824
  0
LINE
  5
212
100
AcDbEntity
  8
0
  6
ByLayer
 62
    0
370
   -1
100
AcDbLine
 10
259.795
 20
69.2824
 11
273.794
 21
69.2824
  0
LINE
  5
213
100
AcDbEntity
  8
0
  6
ByLayer
 62
    0
370
   -1
100
AcDbLine
 10
273.794
 20
69.2824
 11
273.794
 21
70.2829
  0
LINE
  5
214
100
AcDbEntity
  8
0
  6
ByLayer
 62
    0
370
   -1
100
AcDbLine
 10
273.794
 20
70.2829
 11
274.595
 21
70.2829
  0
LINE
  5
215
100
AcDbEntity
  8
0
  6
ByLayer
 62
    0
370
   -1
100
AcDbLine
 10
274.595
 20
70.2829
 11
274.595
 21
73.38200000000001
  0
LINE
  5
216
100
AcDbEntity
  8
0
  6
ByLayer
 62
    0
370
   -1
100
AcDbLine
 10
274.595
 20
73.38200000000001
 11
273.794
 21
73.38200000000001
  0
LINE
  5
217
100
AcDbEntity
  8
0
  6
ByLayer
 62
    0
370
   -1
100
AcDbLine
 10
273.794
 20
73.38200000000001
 11
273.794
 21
79.182
  0
LINE
  5
218
100
AcDbEntity
  8
0
  6
ByLayer
 62
    0
370
   -1
100
AcDbLine
 10
273.794
 20
79.182
 11
274.595
 21
79.182
  0
LINE
  5
219
100
AcDbEntity
  8
0
  6
ByLayer
 62
    0
370
   -1
100
AcDbLine
 10
274.595
 20
79.182
 11
274.595
 21
82.2826
  0
LINE
  5
21A
100
AcDbEntity
  8
0
  6
ByLayer
 62
    0
370
   -1
100
AcDbLine
 10
274.595
 20
82.2826
 11
273.794
 21
82.2826
  0
LINE
  5
21B
100
AcDbEntity
  8
0
  6
ByLayer
 62
    0
370
   -1
100
AcDbLine
 10
273.794
 20
82.2826
 11
273.794
 21
83.2817
  0
LINE
  5
21C
100
AcDbEntity
  8
0
  6
ByLayer
 62
    0
370
   -1
100
AcDbLine
 10
273.794
 20
83.2817
 11
259.795
 21
83.2817
  0
LINE
  5
21D
100
AcDbEntity
  8
0
  6
ByLayer
 62
    0
370
   -1
100
AcDbLine
 10
278.845
 20
83.2817
 11
278.845
 21
82.2826
  0
LINE
  5
21E
100
AcDbEntity
  8
0
  6
ByLayer
 62
    0
370
   -1
100
AcDbLine
 10
278.845
 20
82.2826
 11
278.044
 21
82.2826
  0
LINE
  5
21F
100
AcDbEntity
  8
0
  6
ByLayer
 62
    0
370
   -1
100
AcDbLine
 10
278.044
 20
82.2826
 11
278.044
 21
79.182
  0
LINE
  5
220
100
AcDbEntity
  8
0
  6
ByLayer
 62
    0
370
   -1
100
AcDbLine
 10
278.044
 20
79.182
 11
278.845
 21
79.182
  0
LINE
  5
221
100
AcDbEntity
  8
0
  6
ByLayer
 62
    0
370
   -1
100
AcDbLine
 10
278.845
 20
79.182
 11
278.845
 21
73.38200000000001
  0
LINE
  5
222
100
AcDbEntity
  8
0
  6
ByLayer
 62
    0
370
   -1
100
AcDbLine
 10
278.845
 20
73.38200000000001
 11
278.044
 21
73.38200000000001
  0
LINE
  5
223
100
AcDbEntity
  8
0
  6
ByLayer
 62
    0
370
   -1
100
AcDbLine
 10
278.044
 20
73.38200000000001
 11
278.044
 21
70.2829
  0
LINE
  5
224
100
AcDbEntity
  8
0
  6
ByLayer
 62
    0
370
   -1
100
AcDbLine
 10
278.044
 20
70.2829
 11
278.845
 21
70.2829
  0
LINE
  5
225
100
AcDbEntity
  8
0
  6
ByLayer
 62
    0
370
   -1
100
AcDbLine
 10
278.845
 20
70.2829
 11
278.845
 21
69.2824
  0
LINE
  5
226
100
AcDbEntity
  8
0
  6
ByLayer
 62
    0
370
   -1
100
AcDbLine
 10
278.845
 20
69.2824
 11
292.844
 21
69.2824
  0
LINE
  5
227
100
AcDbEntity
  8
0
  6
ByLayer
 62
    0
370
   -1
100
AcDbLine
 10
292.844
 20
69.2824
 11
292.844
 21
70.2829
  0
LINE
  5
228
100
AcDbEntity
  8
0
  6
ByLayer
 62
    0
370
   -1
100
AcDbLine
 10
292.844
 20
70.2829
 11
293.645
 21
70.2829
  0
LINE
  5
229
100
AcDbEntity
  8
0
  6
ByLayer
 62
    0
370
   -1
100
AcDbLine
 10
293.645
 20
70.2829
 11
293.645
 21
73.38200000000001
  0
LINE
  5
22A
100
AcDbEntity
  8
0
  6
ByLayer
 62
    0
370
   -1
100
AcDbLine
 10
293.645
 20
73.38200000000001
 11
292.844
 21
73.38200000000001
  0
LINE
  5
22B
100
AcDbEntity
  8
0
  6
ByLayer
 62
    0
370
   -1
100
AcDbLine
 10
292.844
 20
73.38200000000001
 11
292.844
 21
79.182
  0
LINE
  5
22C
100
AcDbEntity
  8
0
  6
ByLayer
 62
    0
370
   -1
100
AcDbLine
 10
292.844
 20
79.182
 11
293.645
 21
79.182
  0
LINE
  5
22D
100
AcDbEntity
  8
0
  6
ByLayer
 62
    0
370
   -1
100
AcDbLine
 10
293.645
 20
79.182
 11
293.645
 21
82.2826
  0
LINE
  5
22E
100
AcDbEntity
  8
0
  6
ByLayer
 62
    0
370
   -1
100
AcDbLine
 10
293.645
 20
82.2826
 11
292.844
 21
82.2826
  0
LINE
  5
22F
100
AcDbEntity
  8
0
  6
ByLayer
 62
    0
370
   -1
100
AcDbLine
 10
292.844
 20
82.2826
 11
292.844
 21
83.2817
  0
LINE
  5
230
100
AcDbEntity
  8
0
  6
ByLayer
 62
    0
370
   -1
100
AcDbLine
 10
292.844
 20
83.2817
 11
278.845
 21
83.2817
  0
LINE
  5
231
100
AcDbEntity
  8
0
  6
ByLayer
 62
    0
370
   -1
100
AcDbLine
 10
297.895
 20
83.2817
 11
297.895
 21
82.2826
  0
LINE
  5
232
100
AcDbEntity
  8
0
  6
ByLayer
 62
    0
370
   -1
100
AcDbLine
 10
297.895
 20
82.2826
 11
297.094
 21
82.2826
  0
LINE
  5
233
100
AcDbEntity
  8
0
  6
ByLayer
 62
    0
370
   -1
100
AcDbLine
 10
297.094
 20
82.2826
 11
297.094
 21
79.182
  0
LINE
  5
234
100
AcDbEntity
  8
0
  6
ByLayer
 62
    0
370
   -1
100
AcDbLine
 10
297.094
 20
79.182
 11
297.895
 21
79.182
  0
LINE
  5
235
100
AcDbEntity
  8
0
  6
ByLayer
 62
    0
370
   -1
100
AcDbLine
 10
297.895
 20
79.182
 11
297.895
 21
73.38200000000001
  0
LINE
  5
236
100
AcDbEntity
  8
0
  6
ByLayer
 62
    0
370
   -1
100
AcDbLine
 10
297.895
 20
73.38200000000001
 11
297.094
 21
73.38200000000001
  0
LINE
  5
237
100
AcDbEntity
  8
0
  6
ByLayer
 62
    0
370
   -1
100
AcDbLine
 10
297.094
 20
73.38200000000001
 11
297.094
 21
70.2829
  0
LINE
  5
238
100
AcDbEntity
  8
0
  6
ByLayer
 62
    0
370
   -1
100
AcDbLine
 10
297.094
 20
70.2829
 11
297.895
 21
70.2829
  0
LINE
  5
239
100
AcDbEntity
  8
0
  6
ByLayer
 62
    0
370
   -1
100
AcDbLine
 10
297.895
 20
70.2829
 11
297.895
 21
69.2824
  0
LINE
  5
23A
100
AcDbEntity
  8
0
  6
ByLayer
 62
    0
370
   -1
100
AcDbLine
 10
297.895
 20
69.2824
 11
311.894
 21
69.2824
  0
LINE
  5
23B
100
AcDbEntity
  8
0
  6
ByLayer
 62
    0
370
   -1
100
AcDbLine
 10
311.894
 20
69.2824
 11
311.894
 21
70.2829
  0
LINE
  5
23C
100
AcDbEntity
  8
0
  6
ByLayer
 62
    0
370
   -1
100
AcDbLine
 10
311.894
 20
70.2829
 11
312.695
 21
70.2829
  0
LINE
  5
23D
100
AcDbEntity
  8
0
  6
ByLayer
 62
    0
370
   -1
100
AcDbLine
 10
312.695
 20
70.2829
 11
312.695
 21
73.38200000000001
  0
LINE
  5
23E
100
AcDbEntity
  8
0
  6
ByLayer
 62
    0
370
   -1
100
AcDbLine
 10
312.695
 20
73.38200000000001
 11
311.894
 21
73.38200000000001
  0
LINE
  5
23F
100
AcDbEntity
  8
0
  6
ByLayer
 62
    0
370
   -1
100
AcDbLine
 10
311.894
 20
73.38200000000001
 11
311.894
 21
79.182
  0
LINE
  5
240
100
AcDbEntity
  8
0
  6
ByLayer
 62
    0
370
   -1
100
AcDbLine
 10
311.894
 20
79.182
 11
312.695
 21
79.182
  0
LINE
  5
241
100
AcDbEntity
  8
0
  6
ByLayer
 62
    0
370
   -1
100
AcDbLine
 10
312.695
 20
79.182
 11
312.695
 21
82.2826
  0
LINE
  5
242
100
AcDbEntity
  8
0
  6
ByLayer
 62
    0
370
   -1
100
AcDbLine
 10
312.695
 20
82.2826
 11
311.894
 21
82.2826
  0
LINE
  5
243
100
AcDbEntity
  8
0
  6
ByLayer
 62
    0
370
   -1
100
AcDbLine
 10
311.894
 20
82.2826
 11
311.894
 21
83.2817
  0
LINE
  5
244
100
AcDbEntity
  8
0
  6
ByLayer
 62
    0
370
   -1
100
AcDbLine
 10
311.894
 20
83.2817
 11
297.895
 21
83.2817
  0
LINE
  5
245
100
AcDbEntity
  8
0
  6
ByLayer
 62
    0
370
   -1
100
AcDbLine
 10
316.945
 20
83.2817
 11
316.945
 21
82.2826
  0
LINE
  5
246
100
AcDbEntity
  8
0
  6
ByLayer
 62
    0
370
   -1
100
AcDbLine
 10
316.945
 20
82.2826
 11
316.144
 21
82.2826
  0
LINE
  5
247
100
AcDbEntity
  8
0
  6
ByLayer
 62
    0
370
   -1
100
AcDbLine
 10
316.144
 20
82.2826
 11
316.144
 21
79.182
  0
LINE
  5
248
100
AcDbEntity
  8
0
  6
ByLayer
 62
    0
370
   -1
100
AcDbLine
 10
316.144
 20
79.182
 11
316.945
 21
79.182
  0
LINE
  5
249
100
AcDbEntity
  8
0
  6
ByLayer
 62
    0
370
   -1
100
AcDbLine
 10
316.945
 20
79.182
 11
316.945
 21
73.38200000000001
  0
LINE
  5
24A
100
AcDbEntity
  8
0
  6
ByLayer
 62
    0
370
   -1
100
AcDbLine
 10
316.945
 20
73.38200000000001
 11
316.144
 21
73.38200000000001
  0
LINE
  5
24B
100
AcDbEntity
  8
0
  6
ByLayer
 62
    0
370
   -1
100
AcDbLine
 10
316.144
 20
73.38200000000001
 11
316.144
 21
70.2829
  0
LINE
  5
24C
100
AcDbEntity
  8
0
  6
ByLayer
 62
    0
370
   -1
100
AcDbLine
 10
316.144
 20
70.2829
 11
316.945
 21
70.2829
  0
LINE
  5
24D
100
AcDbEntity
  8
0
  6
ByLayer
 62
    0
370
   -1
100
AcDbLine
 10
316.945
 20
70.2829
 11
316.945
 21
69.2824
  0
LINE
  5
24E
100
AcDbEntity
  8
0
  6
ByLayer
 62
    0
370
   -1
100
AcDbLine
 10
316.945
 20
69.2824
 11
330.944
 21
69.2824
  0
LINE
  5
24F
100
AcDbEntity
  8
0
  6
ByLayer
 62
    0
370
   -1
100
AcDbLine
 10
330.944
 20
69.2824
 11
330.944
 21
70.2829
  0
LINE
  5
250
100
AcDbEntity
  8
0
  6
ByLayer
 62
    0
370
   -1
100
AcDbLine
 10
330.944
 20
70.2829
 11
331.745
 21
70.2829
  0
LINE
  5
251
100
AcDbEntity
  8
0
  6
ByLayer
 62
    0
370
   -1
100
AcDbLine
 10
331.745
 20
70.2829
 11
331.745
 21
73.38200000000001
  0
LINE
  5
252
100
AcDbEntity
  8
0
  6
ByLayer
 62
    0
370
   -1
100
AcDbLine
 10
331.745
 20
73.38200000000001
 11
330.944
 21
73.38200000000001
  0
LINE
  5
253
100
AcDbEntity
  8
0
  6
ByLayer
 62
    0
370
   -1
100
AcDbLine
 10
330.944
 20
73.38200000000001
 11
330.944
 21
79.182
  0
LINE
  5
254
100
AcDbEntity
  8
0
  6
ByLayer
 62
    0
370
   -1
100
AcDbLine
 10
330.944
 20
79.182
 11
331.745
 21
79.182
  0
LINE
  5
255
100
AcDbEntity
  8
0
  6
ByLayer
 62
    0
370
   -1
100
AcDbLine
 10
331.745
 20
79.182
 11
331.745
 21
82.2826
  0
LINE
  5
256
100
AcDbEntity
  8
0
  6
ByLayer
 62
    0
370
   -1
100
AcDbLine
 10
331.745
 20
82.2826
 11
330.944
 21
82.2826
  0
LINE
  5
257
100
AcDbEntity
  8
0
  6
ByLayer
 62
    0
370
   -1
100
AcDbLine
 10
330.944
 20
82.2826
 11
330.944
 21
83.2817
  0
LINE
  5
258
100
AcDbEntity
  8
0
  6
ByLayer
 62
    0
370
   -1
100
AcDbLine
 10
330.944
 20
83.2817
 11
316.945
 21
83.2817
  0
LINE
  5
259
100
AcDbEntity
  8
0
  6
ByLayer
 62
    0
370
   -1
100
AcDbLine
 10
383.621
 20
83.2817
 11
383.621
 21
82.2826
  0
LINE
  5
25A
100
AcDbEntity
  8
0
  6
ByLayer
 62
    0
370
   -1
100
AcDbLine
 10
383.621
 20
82.2826
 11
382.82
 21
82.2826
  0
LINE
  5
25B
100
AcDbEntity
  8
0
  6
ByLayer
 62
    0
370
   -1
100
AcDbLine
 10
382.82
 20
82.2826
 11
382.82
 21
79.182
  0
LINE
  5
25C
100
AcDbEntity
  8
0
  6
ByLayer
 62
    0
370
   -1
100
AcDbLine
 10
382.82
 20
79.182
 11
383.621
 21
79.182
  0
LINE
  5
25D
100
AcDbEntity
  8
0
  6
ByLayer
 62
    0
370
   -1
100
AcDbLine
 10
383.621
 20
79.182
 11
383.621
 21
73.38200000000001
  0
LINE
  5
25E
100
AcDbEntity
  8
0
  6
ByLayer
 62
    0
370
   -1
100
AcDbLine
 10
383.621
 20
73.38200000000001
 11
382.82
 21
73.38200000000001
  0
LINE
  5
25F
100
AcDbEntity
  8
0
  6
ByLayer
 62
    0
370
   -1
100
AcDbLine
 10
382.82
 20
73.38200000000001
 11
382.82
 21
70.2829
  0
LINE
  5
260
100
AcDbEntity
  8
0
  6
ByLayer
 62
    0
370
   -1
100
AcDbLine
 10
382.82
 20
70.2829
 11
383.621
 21
70.2829
  0
LINE
  5
261
100
AcDbEntity
  8
0
  6
ByLayer
 62
    0
370
   -1
100
AcDbLine
 10
383.621
 20
70.2829
 11
383.621
 21
69.2824
  0
LINE
  5
262
100
AcDbEntity
  8
0
  6
ByLayer
 62
    0
370
   -1
100
AcDbLine
 10
383.621
 20
69.2824
 11
397.619
 21
69.2824
  0
LINE
  5
263
100
AcDbEntity
  8
0
  6
ByLayer
 62
    0
370
   -1
100
AcDbLine
 10
397.619
 20
69.2824
 11
397.619
 21
70.2829
  0
LINE
  5
264
100
AcDbEntity
  8
0
  6
ByLayer
 62
    0
370
   -1
100
AcDbLine
 10
397.619
 20
70.2829
 11
398.42
 21
70.2829
  0
LINE
  5
265
100
AcDbEntity
  8
0
  6
ByLayer
 62
    0
370
   -1
100
AcDbLine
 10
398.42
 20
70.2829
 11
398.42
 21
73.38200000000001
  0
LINE
  5
266
100
AcDbEntity
  8
0
  6
ByLayer
 62
    0
370
   -1
100
AcDbLine
 10
398.42
 20
73.38200000000001
 11
397.619
 21
73.38200000000001
  0
LINE
  5
267
100
AcDbEntity
  8
0
  6
ByLayer
 62
    0
370
   -1
100
AcDbLine
 10
397.619
 20
73.38200000000001
 11
397.619
 21
79.182
  0
LINE
  5
268
100
AcDbEntity
  8
0
  6
ByLayer
 62
    0
370
   -1
100
AcDbLine
 10
397.619
 20
79.182
 11
398.42
 21
79.182
  0
LINE
  5
269
100
AcDbEntity
  8
0
  6
ByLayer
 62
    0
370
   -1
100
AcDbLine
 10
398.42
 20
79.182
 11
398.42
 21
82.2826
  0
LINE
  5
26A
100
AcDbEntity
  8
0
  6
ByLayer
 62
    0
370
   -1
100
AcDbLine
 10
398.42
 20
82.2826
 11
397.619
 21
82.2826
  0
LINE
  5
26B
100
AcDbEntity
  8
0
  6
ByLayer
 62
    0
370
   -1
100
AcDbLine
 10
397.619
 20
82.2826
 11
397.619
 21
83.2817
  0
LINE
  5
26C
100
AcDbEntity
  8
0
  6
ByLayer
 62
    0
370
   -1
100
AcDbLine
 10
397.619
 20
83.2817
 11
383.621
 21
83.2817
  0
LINE
  5
26D
100
AcDbEntity
  8
0
  6
ByLayer
 62
    0
370
   -1
100
AcDbLine
 10
216.932
 20
102.332
 11
216.932
 21
101.333
  0
LINE
  5
26E
100
AcDbEntity
  8
0
  6
ByLayer
 62
    0
370
   -1
100
AcDbLine
 10
216.932
 20
101.333
 11
216.131
 21
101.333
  0
LINE
  5
26F
100
AcDbEntity
  8
0
  6
ByLayer
 62
    0
370
   -1
100
AcDbLine
 10
216.131
 20
101.333
 11
216.131
 21
98.232
  0
LINE
  5
270
100
AcDbEntity
  8
0
  6
ByLayer
 62
    0
370
   -1
100
AcDbLine
 10
216.131
 20
98.232
 11
216.932
 21
98.232
  0
LINE
  5
271
100
AcDbEntity
  8
0
  6
ByLayer
 62
    0
370
   -1
100
AcDbLine
 10
216.932
 20
98.232
 11
216.932
 21
92.432
  0
LINE
  5
272
100
AcDbEntity
  8
0
  6
ByLayer
 62
    0
370
   -1
100
AcDbLine
 10
216.932
 20
92.432
 11
216.131
 21
92.432
  0
LINE
  5
273
100
AcDbEntity
  8
0
  6
ByLayer
 62
    0
370
   -1
100
AcDbLine
 10
216.131
 20
92.432
 11
216.131
 21
89.3329
  0
LINE
  5
274
100
AcDbEntity
  8
0
  6
ByLayer
 62
    0
370
   -1
100
AcDbLine
 10
216.131
 20
89.3329
 11
216.932
 21
89.3329
  0
LINE
  5
275
100
AcDbEntity
  8
0
  6
ByLayer
 62
    0
370
   -1
100
AcDbLine
 10
216.932
 20
89.3329
 11
216.932
 21
88.33240000000001
  0
LINE
  5
276
100
AcDbEntity
  8
0
  6
ByLayer
 62
    0
370
   -1
100
AcDbLine
 10
216.932
 20
88.33240000000001
 11
230.932
 21
88.33240000000001
  0
LINE
  5
277
100
AcDbEntity
  8
0
  6
ByLayer
 62
    0
370
   -1
100
AcDbLine
 10
230.932
 20
88.33240000000001
 11
230.932
 21
89.3329
  0
LINE
  5
278
100
AcDbEntity
  8
0
  6
ByLayer
 62
    0
370
   -1
100
AcDbLine
 10
230.932
 20
89.3329
 11
231.731
 21
89.3329
  0
LINE
  5
279
100
AcDbEntity
  8
0
  6
ByLayer
 62
    0
370
   -1
100
AcDbLine
 10
231.731
 20
89.3329
 11
231.731
 21
92.432
  0
LINE
  5
27A
100
AcDbEntity
  8
0
  6
ByLayer
 62
    0
370
   -1
100
AcDbLine
 10
231.731
 20
92.432
 11
230.932
 21
92.432
  0
LINE
  5
27B
100
AcDbEntity
  8
0
  6
ByLayer
 62
    0
370
   -1
100
AcDbLine
 10
230.932
 20
92.432
 11
230.932
 21
98.232
  0
LINE
  5
27C
100
AcDbEntity
  8
0
  6
ByLayer
 62
    0
370
   -1
100
AcDbLine
 10
230.932
 20
98.232
 11
231.731
 21
98.232
  0
LINE
  5
27D
100
AcDbEntity
  8
0
  6
ByLayer
 62
    0
370
   -1
100
AcDbLine
 10
231.731
 20
98.232
 11
231.731
 21
101.333
  0
LINE
  5
27E
100
AcDbEntity
  8
0
  6
ByLayer
 62
    0
370
   -1
100
AcDbLine
 10
231.731
 20
101.333
 11
230.932
 21
101.333
  0
LINE
  5
27F
100
AcDbEntity
  8
0
  6
ByLayer
 62
    0
370
   -1
100
AcDbLine
 10
230.932
 20
101.333
 11
230.932
 21
102.332
  0
LINE
  5
280
100
AcDbEntity
  8
0
  6
ByLayer
 62
    0
370
   -1
100
AcDbLine
 10
230.932
 20
102.332
 11
216.932
 21
102.332
  0
LINE
  5
281
100
AcDbEntity
  8
0
  6
ByLayer
 62
    0
370
   -1
100
AcDbLine
 10
235.982
 20
102.332
 11
235.982
 21
101.333
  0
LINE
  5
282
100
AcDbEntity
  8
0
  6
ByLayer
 62
    0
370
   -1
100
AcDbLine
 10
235.982
 20
101.333
 11
235.181
 21
101.333
  0
LINE
  5
283
100
AcDbEntity
  8
0
  6
ByLayer
 62
    0
370
   -1
100
AcDbLine
 10
235.181
 20
101.333
 11
235.181
 21
98.232
  0
LINE
  5
284
100
AcDbEntity
  8
0
  6
ByLayer
 62
    0
370
   -1
100
AcDbLine
 10
235.181
 20
98.232
 11
235.982
 21
98.232
  0
LINE
  5
285
100
AcDbEntity
  8
0
  6
ByLayer
 62
    0
370
   -1
100
AcDbLine
 10
235.982
 20
98.232
 11
235.982
 21
92.432
  0
LINE
  5
286
100
AcDbEntity
  8
0
  6
ByLayer
 62
    0
370
   -1
100
AcDbLine
 10
235.982
 20
92.432
 11
235.181
 21
92.432
  0
LINE
  5
287
100
AcDbEntity
  8
0
  6
ByLayer
 62
    0
370
   -1
100
AcDbLine
 10
235.181
 20
92.432
 11
235.181
 21
89.3329
  0
LINE
  5
288
100
AcDbEntity
  8
0
  6
ByLayer
 62
    0
370
   -1
100
AcDbLine
 10
235.181
 20
89.3329
 11
235.982
 21
89.3329
  0
LINE
  5
289
100
AcDbEntity
  8
0
  6
ByLayer
 62
    0
370
   -1
100
AcDbLine
 10
235.982
 20
89.3329
 11
235.982
 21
88.33240000000001
  0
LINE
  5
28A
100
AcDbEntity
  8
0
  6
ByLayer
 62
    0
370
   -1
100
AcDbLine
 10
235.982
 20
88.33240000000001
 11
249.982
 21
88.33240000000001
  0
LINE
  5
28B
100
AcDbEntity
  8
0
  6
ByLayer
 62
    0
370
   -1
100
AcDbLine
 10
249.982
 20
88.33240000000001
 11
249.982
 21
89.3329
  0
LINE
  5
28C
100
AcDbEntity
  8
0
  6
ByLayer
 62
    0
370
   -1
100
AcDbLine
 10
249.982
 20
89.3329
 11
250.781
 21
89.3329
  0
LINE
  5
28D
100
AcDbEntity
  8
0
  6
ByLayer
 62
    0
370
   -1
100
AcDbLine
 10
250.781
 20
89.3329
 11
250.781
 21
92.432
  0
LINE
  5
28E
100
AcDbEntity
  8
0
  6
ByLayer
 62
    0
370
   -1
100
AcDbLine
 10
250.781
 20
92.432
 11
249.982
 21
92.432
  0
LINE
  5
28F
100
AcDbEntity
  8
0
  6
ByLayer
 62
    0
370
   -1
100
AcDbLine
 10
249.982
 20
92.432
 11
249.982
 21
98.232
  0
LINE
  5
290
100
AcDbEntity
  8
0
  6
ByLayer
 62
    0
370
   -1
100
AcDbLine
 10
249.982
 20
98.232
 11
250.781
 21
98.232
  0
LINE
  5
291
100
AcDbEntity
  8
0
  6
ByLayer
 62
    0
370
   -1
100
AcDbLine
 10
250.781
 20
98.232
 11
250.781
 21
101.333
  0
LINE
  5
292
100
AcDbEntity
  8
0
  6
ByLayer
 62
    0
370
   -1
100
AcDbLine
 10
250.781
 20
101.333
 11
249.982
 21
101.333
  0
LINE
  5
293
100
AcDbEntity
  8
0
  6
ByLayer
 62
    0
370
   -1
100
AcDbLine
 10
249.982
 20
101.333
 11
249.982
 21
102.332
  0
LINE
  5
294
100
AcDbEntity
  8
0
  6
ByLayer
 62
    0
370
   -1
100
AcDbLine
 10
249.982
 20
102.332
 11
235.982
 21
102.332
  0
LINE
  5
295
100
AcDbEntity
  8
0
  6
ByLayer
 62
    0
370
   -1
100
AcDbLine
 10
255.032
 20
102.332
 11
255.032
 21
101.333
  0
LINE
  5
296
100
AcDbEntity
  8
0
  6
ByLayer
 62
    0
370
   -1
100
AcDbLine
 10
255.032
 20
101.333
 11
254.231
 21
101.333
  0
LINE
  5
297
100
AcDbEntity
  8
0
  6
ByLayer
 62
    0
370
   -1
100
AcDbLine
 10
254.231
 20
101.333
 11
254.231
 21
98.232
  0
LINE
  5
298
100
AcDbEntity
  8
0
  6
ByLayer
 62
    0
370
   -1
100
AcDbLine
 10
254.231
 20
98.232
 11
255.032
 21
98.232
  0
LINE
  5
299
100
AcDbEntity
  8
0
  6
ByLayer
 62
    0
370
   -1
100
AcDbLine
 10
255.032
 20
98.232
 11
255.032
 21
92.432
  0
LINE
  5
29A
100
AcDbEntity
  8
0
  6
ByLayer
 62
    0
370
   -1
100
AcDbLine
 10
255.032
 20
92.432
 11
254.231
 21
92.432
  0
LINE
  5
29B
100
AcDbEntity
  8
0
  6
ByLayer
 62
    0
370
   -1
100
AcDbLine
 10
254.231
 20
92.432
 11
254.231
 21
89.3329
  0
LINE
  5
29C
100
AcDbEntity
  8
0
  6
ByLayer
 62
    0
370
   -1
100
AcDbLine
 10
254.231
 20
89.3329
 11
255.032
 21
89.3329
  0
LINE
  5
29D
100
AcDbEntity
  8
0
  6
ByLayer
 62
    0
370
   -1
100
AcDbLine
 10
255.032
 20
89.3329
 11
255.032
 21
88.33240000000001
  0
LINE
  5
29E
100
AcDbEntity
  8
0
  6
ByLayer
 62
    0
370
   -1
100
AcDbLine
 10
255.032
 20
88.33240000000001
 11
269.032
 21
88.33240000000001
  0
LINE
  5
29F
100
AcDbEntity
  8
0
  6
ByLayer
 62
    0
370
   -1
100
AcDbLine
 10
269.032
 20
88.33240000000001
 11
269.032
 21
89.3329
  0
LINE
  5
2A0
100
AcDbEntity
  8
0
  6
ByLayer
 62
    0
370
   -1
100
AcDbLine
 10
269.032
 20
89.3329
 11
269.831
 21
89.3329
  0
LINE
  5
2A1
100
AcDbEntity
  8
0
  6
ByLayer
 62
    0
370
   -1
100
AcDbLine
 10
269.831
 20
89.3329
 11
269.831
 21
92.432
  0
LINE
  5
2A2
100
AcDbEntity
  8
0
  6
ByLayer
 62
    0
370
   -1
100
AcDbLine
 10
269.831
 20
92.432
 11
269.032
 21
92.432
  0
LINE
  5
2A3
100
AcDbEntity
  8
0
  6
ByLayer
 62
    0
370
   -1
100
AcDbLine
 10
269.032
 20
92.432
 11
269.032
 21
98.232
  0
LINE
  5
2A4
100
AcDbEntity
  8
0
  6
ByLayer
 62
    0
370
   -1
100
AcDbLine
 10
269.032
 20
98.232
 11
269.831
 21
98.232
  0
LINE
  5
2A5
100
AcDbEntity
  8
0
  6
ByLayer
 62
    0
370
   -1
100
AcDbLine
 10
269.831
 20
98.232
 11
269.831
 21
101.333
  0
LINE
  5
2A6
100
AcDbEntity
  8
0
  6
ByLayer
 62
    0
370
   -1
100
AcDbLine
 10
269.831
 20
101.333
 11
269.032
 21
101.333
  0
LINE
  5
2A7
100
AcDbEntity
  8
0
  6
ByLayer
 62
    0
370
   -1
100
AcDbLine
 10
269.032
 20
101.333
 11
269.032
 21
102.332
  0
LINE
  5
2A8
100
AcDbEntity
  8
0
  6
ByLayer
 62
    0
370
   -1
100
AcDbLine
 10
269.032
 20
102.332
 11
255.032
 21
102.332
  0
LINE
  5
2A9
100
AcDbEntity
  8
0
  6
ByLayer
 62
    0
370
   -1
100
AcDbLine
 10
274.082
 20
102.332
 11
274.082
 21
101.333
  0
LINE
  5
2AA
100
AcDbEntity
  8
0
  6
ByLayer
 62
    0
370
   -1
100
AcDbLine
 10
274.082
 20
101.333
 11
273.281
 21
101.333
  0
LINE
  5
2AB
100
AcDbEntity
  8
0
  6
ByLayer
 62
    0
370
   -1
100
AcDbLine
 10
273.281
 20
101.333
 11
273.281
 21
98.232
  0
LINE
  5
2AC
100
AcDbEntity
  8
0
  6
ByLayer
 62
    0
370
   -1
100
AcDbLine
 10
273.281
 20
98.232
 11
274.082
 21
98.232
  0
LINE
  5
2AD
100
AcDbEntity
  8
0
  6
ByLayer
 62
    0
370
   -1
100
AcDbLine
 10
274.082
 20
98.232
 11
274.082
 21
92.432
  0
LINE
  5
2AE
100
AcDbEntity
  8
0
  6
ByLayer
 62
    0
370
   -1
100
AcDbLine
 10
274.082
 20
92.432
 11
273.281
 21
92.432
  0
LINE
  5
2AF
100
AcDbEntity
  8
0
  6
ByLayer
 62
    0
370
   -1
100
AcDbLine
 10
273.281
 20
92.432
 11
273.281
 21
89.3329
  0
LINE
  5
2B0
100
AcDbEntity
  8
0
  6
ByLayer
 62
    0
370
   -1
100
AcDbLine
 10
273.281
 20
89.3329
 11
274.082
 21
89.3329
  0
LINE
  5
2B1
100
AcDbEntity
  8
0
  6
ByLayer
 62
    0
370
   -1
100
AcDbLine
 10
274.082
 20
89.3329
 11
274.082
 21
88.33240000000001
  0
LINE
  5
2B2
100
AcDbEntity
  8
0
  6
ByLayer
 62
    0
370
   -1
100
AcDbLine
 10
274.082
 20
88.33240000000001
 11
288.082
 21
88.33240000000001
  0
LINE
  5
2B3
100
AcDbEntity
  8
0
  6
ByLayer
 62
    0
370
   -1
100
AcDbLine
 10
288.082
 20
88.33240000000001
 11
288.082
 21
89.3329
  0
LINE
  5
2B4
100
AcDbEntity
  8
0
  6
ByLayer
 62
    0
370
   -1
100
AcDbLine
 10
288.082
 20
89.3329
 11
288.881
 21
89.3329
  0
LINE
  5
2B5
100
AcDbEntity
  8
0
  6
ByLayer
 62
    0
370
   -1
100
AcDbLine
 10
288.881
 20
89.3329
 11
288.881
 21
92.432
  0
LINE
  5
2B6
100
AcDbEntity
  8
0
  6
ByLayer
 62
    0
370
   -1
100
AcDbLine
 10
288.881
 20
92.432
 11
288.082
 21
92.432
  0
LINE
  5
2B7
100
AcDbEntity
  8
0
  6
ByLayer
 62
    0
370
   -1
100
AcDbLine
 10
288.082
 20
92.432
 11
288.082
 21
98.232
  0
LINE
  5
2B8
100
AcDbEntity
  8
0
  6
ByLayer
 62
    0
370
   -1
100
AcDbLine
 10
288.082
 20
98.232
 11
288.881
 21
98.232
  0
LINE
  5
2B9
100
AcDbEntity
  8
0
  6
ByLayer
 62
    0
370
   -1
100
AcDbLine
 10
288.881
 20
98.232
 11
288.881
 21
101.333
  0
LINE
  5
2BA
100
AcDbEntity
  8
0
  6
ByLayer
 62
    0
370
   -1
100
AcDbLine
 10
288.881
 20
101.333
 11
288.082
 21
101.333
  0
LINE
  5
2BB
100
AcDbEntity
  8
0
  6
ByLayer
 62
    0
370
   -1
100
AcDbLine
 10
288.082
 20
101.333
 11
288.082
 21
102.332
  0
LINE
  5
2BC
100
AcDbEntity
  8
0
  6
ByLayer
 62
    0
370
   -1
100
AcDbLine
 10
288.082
 20
102.332
 11
274.082
 21
102.332
  0
LINE
  5
2BD
100
AcDbEntity
  8
0
  6
ByLayer
 62
    0
370
   -1
100
AcDbLine
 10
293.132
 20
102.332
 11
293.132
 21
101.333
  0
LINE
  5
2BE
100
AcDbEntity
  8
0
  6
ByLayer
 62
    0
370
   -1
100
AcDbLine
 10
293.132
 20
101.333
 11
292.331
 21
101.333
  0
LINE
  5
2BF
100
AcDbEntity
  8
0
  6
ByLayer
 62
    0
370
   -1
100
AcDbLine
 10
292.331
 20
101.333
 11
292.331
 21
98.232
  0
LINE
  5
2C0
100
AcDbEntity
  8
0
  6
ByLayer
 62
    0
370
   -1
100
AcDbLine
 10
292.331
 20
98.232
 11
293.132
 21
98.232
  0
LINE
  5
2C1
100
AcDbEntity
  8
0
  6
ByLayer
 62
    0
370
   -1
100
AcDbLine
 10
293.132
 20
98.232
 11
293.132
 21
92.432
  0
LINE
  5
2C2
100
AcDbEntity
  8
0
  6
ByLayer
 62
    0
370
   -1
100
AcDbLine
 10
293.132
 20
92.432
 11
292.331
 21
92.432
  0
LINE
  5
2C3
100
AcDbEntity
  8
0
  6
ByLayer
 62
    0
370
   -1
100
AcDbLine
 10
292.331
 20
92.432
 11
292.331
 21
89.3329
  0
LINE
  5
2C4
100
AcDbEntity
  8
0
  6
ByLayer
 62
    0
370
   -1
100
AcDbLine
 10
292.331
 20
89.3329
 11
293.132
 21
89.3329
  0
LINE
  5
2C5
100
AcDbEntity
  8
0
  6
ByLayer
 62
    0
370
   -1
100
AcDbLine
 10
293.132
 20
89.3329
 11
293.132
 21
88.33240000000001
  0
LINE
  5
2C6
100
AcDbEntity
  8
0
  6
ByLayer
 62
    0
370
   -1
100
AcDbLine
 10
293.132
 20
88.33240000000001
 11
307.132
 21
88.33240000000001
  0
LINE
  5
2C7
100
AcDbEntity
  8
0
  6
ByLayer
 62
    0
370
   -1
100
AcDbLine
 10
307.132
 20
88.33240000000001
 11
307.132
 21
89.3329
  0
LINE
  5
2C8
100
AcDbEntity
  8
0
  6
ByLayer
 62
    0
370
   -1
100
AcDbLine
 10
307.132
 20
89.3329
 11
307.931
 21
89.3329
  0
LINE
  5
2C9
100
AcDbEntity
  8
0
  6
ByLayer
 62
    0
370
   -1
100
AcDbLine
 10
307.931
 20
89.3329
 11
307.931
 21
92.432
  0
LINE
  5
2CA
100
AcDbEntity
  8
0
  6
ByLayer
 62
    0
370
   -1
100
AcDbLine
 10
307.931
 20
92.432
 11
307.132
 21
92.432
  0
LINE
  5
2CB
100
AcDbEntity
  8
0
  6
ByLayer
 62
    0
370
   -1
100
AcDbLine
 10
307.132
 20
92.432
 11
307.132
 21
98.232
  0
LINE
  5
2CC
100
AcDbEntity
  8
0
  6
ByLayer
 62
    0
370
   -1
100
AcDbLine
 10
307.132
 20
98.232
 11
307.931
 21
98.232
  0
LINE
  5
2CD
100
AcDbEntity
  8
0
  6
ByLayer
 62
    0
370
   -1
100
AcDbLine
 10
307.931
 20
98.232
 11
307.931
 21
101.333
  0
LINE
  5
2CE
100
AcDbEntity
  8
0
  6
ByLayer
 62
    0
370
   -1
100
AcDbLine
 10
307.931
 20
101.333
 11
307.132
 21
101.333
  0
LINE
  5
2CF
100
AcDbEntity
  8
0
  6
ByLayer
 62
    0
370
   -1
100
AcDbLine
 10
307.132
 20
101.333
 11
307.132
 21
102.332
  0
LINE
  5
2D0
100
AcDbEntity
  8
0
  6
ByLayer
 62
    0
370
   -1
100
AcDbLine
 10
307.132
 20
102.332
 11
293.132
 21
102.332
  0
LINE
  5
2D1
100
AcDbEntity
  8
0
  6
ByLayer
 62
    0
370
   -1
100
AcDbLine
 10
312.182
 20
102.332
 11
312.182
 21
101.333
  0
LINE
  5
2D2
100
AcDbEntity
  8
0
  6
ByLayer
 62
    0
370
   -1
100
AcDbLine
 10
312.182
 20
101.333
 11
311.381
 21
101.333
  0
LINE
  5
2D3
100
AcDbEntity
  8
0
  6
ByLayer
 62
    0
370
   -1
100
AcDbLine
 10
311.381
 20
101.333
 11
311.381
 21
98.232
  0
LINE
  5
2D4
100
AcDbEntity
  8
0
  6
ByLayer
 62
    0
370
   -1
100
AcDbLine
 10
311.381
 20
98.232
 11
312.182
 21
98.232
  0
LINE
  5
2D5
100
AcDbEntity
  8
0
  6
ByLayer
 62
    0
370
   -1
100
AcDbLine
 10
312.182
 20
98.232
 11
312.182
 21
92.432
  0
LINE
  5
2D6
100
AcDbEntity
  8
0
  6
ByLayer
 62
    0
370
   -1
100
AcDbLine
 10
312.182
 20
92.432
 11
311.381
 21
92.432
  0
LINE
  5
2D7
100
AcDbEntity
  8
0
  6
ByLayer
 62
    0
370
   -1
100
AcDbLine
 10
311.381
 20
92.432
 11
311.381
 21
89.3329
  0
LINE
  5
2D8
100
AcDbEntity
  8
0
  6
ByLayer
 62
    0
370
   -1
100
AcDbLine
 10
311.381
 20
89.3329
 11
312.182
 21
89.3329
  0
LINE
  5
2D9
100
AcDbEntity
  8
0
  6
ByLayer
 62
    0
370
   -1
100
AcDbLine
 10
312.182
 20
89.3329
 11
312.182
 21
88.33240000000001
  0
LINE
  5
2DA
100
AcDbEntity
  8
0
  6
ByLayer
 62
    0
370
   -1
100
AcDbLine
 10
312.182
 20
88.33240000000001
 11
326.182
 21
88.33240000000001
  0
LINE
  5
2DB
100
AcDbEntity
  8
0
  6
ByLayer
 62
    0
370
   -1
100
AcDbLine
 10
326.182
 20
88.33240000000001
 11
326.182
 21
89.3329
  0
LINE
  5
2DC
100
AcDbEntity
  8
0
  6
ByLayer
 62
    0
370
   -1
100
AcDbLine
 10
326.182
 20
89.3329
 11
326.981
 21
89.3329
  0
LINE
  5
2DD
100
AcDbEntity
  8
0
  6
ByLayer
 62
    0
370
   -1
100
AcDbLine
 10
326.981
 20
89.3329
 11
326.981
 21
92.432
  0
LINE
  5
2DE
100
AcDbEntity
  8
0
  6
ByLayer
 62
    0
370
   -1
100
AcDbLine
 10
326.981
 20
92.432
 11
326.182
 21
92.432
  0
LINE
  5
2DF
100
AcDbEntity
  8
0
  6
ByLayer
 62
    0
370
   -1
100
AcDbLine
 10
326.182
 20
92.432
 11
326.182
 21
98.232
  0
LINE
  5
2E0
100
AcDbEntity
  8
0
  6
ByLayer
 62
    0
370
   -1
100
AcDbLine
 10
326.182
 20
98.232
 11
326.981
 21
98.232
  0
LINE
  5
2E1
100
AcDbEntity
  8
0
  6
ByLayer
 62
    0
370
   -1
100
AcDbLine
 10
326.981
 20
98.232
 11
326.981
 21
101.333
  0
LINE
  5
2E2
100
AcDbEntity
  8
0
  6
ByLayer
 62
    0
370
   -1
100
AcDbLine
 10
326.981
 20
101.333
 11
326.182
 21
101.333
  0
LINE
  5
2E3
100
AcDbEntity
  8
0
  6
ByLayer
 62
    0
370
   -1
100
AcDbLine
 10
326.182
 20
101.333
 11
326.182
 21
102.332
  0
LINE
  5
2E4
100
AcDbEntity
  8
0
  6
ByLayer
 62
    0
370
   -1
100
AcDbLine
 10
326.182
 20
102.332
 11
312.182
 21
102.332
  0
LINE
  5
2E5
100
AcDbEntity
  8
0
  6
ByLayer
 62
    0
370
   -1
100
AcDbLine
 10
331.232
 20
102.332
 11
331.232
 21
101.333
  0
LINE
  5
2E6
100
AcDbEntity
  8
0
  6
ByLayer
 62
    0
370
   -1
100
AcDbLine
 10
331.232
 20
101.333
 11
330.431
 21
101.333
  0
LINE
  5
2E7
100
AcDbEntity
  8
0
  6
ByLayer
 62
    0
370
   -1
100
AcDbLine
 10
330.431
 20
101.333
 11
330.431
 21
98.232
  0
LINE
  5
2E8
100
AcDbEntity
  8
0
  6
ByLayer
 62
    0
370
   -1
100
AcDbLine
 10
330.431
 20
98.232
 11
331.232
 21
98.232
  0
LINE
  5
2E9
100
AcDbEntity
  8
0
  6
ByLayer
 62
    0
370
   -1
100
AcDbLine
 10
331.232
 20
98.232
 11
331.232
 21
92.432
  0
LINE
  5
2EA
100
AcDbEntity
  8
0
  6
ByLayer
 62
    0
370
   -1
100
AcDbLine
 10
331.232
 20
92.432
 11
330.431
 21
92.432
  0
LINE
  5
2EB
100
AcDbEntity
  8
0
  6
ByLayer
 62
    0
370
   -1
100
AcDbLine
 10
330.431
 20
92.432
 11
330.431
 21
89.3329
  0
LINE
  5
2EC
100
AcDbEntity
  8
0
  6
ByLayer
 62
    0
370
   -1
100
AcDbLine
 10
330.431
 20
89.3329
 11
331.232
 21
89.3329
  0
LINE
  5
2ED
100
AcDbEntity
  8
0
  6
ByLayer
 62
    0
370
   -1
100
AcDbLine
 10
331.232
 20
89.3329
 11
331.232
 21
88.33240000000001
  0
LINE
  5
2EE
100
AcDbEntity
  8
0
  6
ByLayer
 62
    0
370
   -1
100
AcDbLine
 10
331.232
 20
88.33240000000001
 11
345.232
 21
88.33240000000001
  0
LINE
  5
2EF
100
AcDbEntity
  8
0
  6
ByLayer
 62
    0
370
   -1
100
AcDbLine
 10
345.232
 20
88.33240000000001
 11
345.232
 21
89.3329
  0
LINE
  5
2F0
100
AcDbEntity
  8
0
  6
ByLayer
 62
    0
370
   -1
100
AcDbLine
 10
345.232
 20
89.3329
 11
346.031
 21
89.3329
  0
LINE
  5
2F1
100
AcDbEntity
  8
0
  6
ByLayer
 62
    0
370
   -1
100
AcDbLine
 10
346.031
 20
89.3329
 11
346.031
 21
92.432
  0
LINE
  5
2F2
100
AcDbEntity
  8
0
  6
ByLayer
 62
    0
370
   -1
100
AcDbLine
 10
346.031
 20
92.432
 11
345.232
 21
92.432
  0
LINE
  5
2F3
100
AcDbEntity
  8
0
  6
ByLayer
 62
    0
370
   -1
100
AcDbLine
 10
345.232
 20
92.432
 11
345.232
 21
98.232
  0
LINE
  5
2F4
100
AcDbEntity
  8
0
  6
ByLayer
 62
    0
370
   -1
100
AcDbLine
 10
345.232
 20
98.232
 11
346.031
 21
98.232
  0
LINE
  5
2F5
100
AcDbEntity
  8
0
  6
ByLayer
 62
    0
370
   -1
100
AcDbLine
 10
346.031
 20
98.232
 11
346.031
 21
101.333
  0
LINE
  5
2F6
100
AcDbEntity
  8
0
  6
ByLayer
 62
    0
370
   -1
100
AcDbLine
 10
346.031
 20
101.333
 11
345.232
 21
101.333
  0
LINE
  5
2F7
100
AcDbEntity
  8
0
  6
ByLayer
 62
    0
370
   -1
100
AcDbLine
 10
345.232
 20
101.333
 11
345.232
 21
102.332
  0
LINE
  5
2F8
100
AcDbEntity
  8
0
  6
ByLayer
 62
    0
370
   -1
100
AcDbLine
 10
345.232
 20
102.332
 11
331.232
 21
102.332
  0
LINE
  5
2F9
100
AcDbEntity
  8
0
  6
ByLayer
 62
    0
370
   -1
100
AcDbLine
 10
355.046
 20
102.332
 11
355.046
 21
101.333
  0
LINE
  5
2FA
100
AcDbEntity
  8
0
  6
ByLayer
 62
    0
370
   -1
100
AcDbLine
 10
355.046
 20
101.333
 11
354.245
 21
101.333
  0
LINE
  5
2FB
100
AcDbEntity
  8
0
  6
ByLayer
 62
    0
370
   -1
100
AcDbLine
 10
354.245
 20
101.333
 11
354.245
 21
98.232
  0
LINE
  5
2FC
100
AcDbEntity
  8
0
  6
ByLayer
 62
    0
370
   -1
100
AcDbLine
 10
354.245
 20
98.232
 11
355.046
 21
98.232
  0
LINE
  5
2FD
100
AcDbEntity
  8
0
  6
ByLayer
 62
    0
370
   -1
100
AcDbLine
 10
355.046
 20
98.232
 11
355.046
 21
92.432
  0
LINE
  5
2FE
100
AcDbEntity
  8
0
  6
ByLayer
 62
    0
370
   -1
100
AcDbLine
 10
355.046
 20
92.432
 11
354.245
 21
92.432
  0
LINE
  5
2FF
100
AcDbEntity
  8
0
  6
ByLayer
 62
    0
370
   -1
100
AcDbLine
 10
354.245
 20
92.432
 11
354.245
 21
89.3329
  0
LINE
  5
300
100
AcDbEntity
  8
0
  6
ByLayer
 62
    0
370
   -1
100
AcDbLine
 10
354.245
 20
89.3329
 11
355.046
 21
89.3329
  0
LINE
  5
301
100
AcDbEntity
  8
0
  6
ByLayer
 62
    0
370
   -1
100
AcDbLine
 10
355.046
 20
89.3329
 11
355.046
 21
88.33240000000001
  0
LINE
  5
302
100
AcDbEntity
  8
0
  6
ByLayer
 62
    0
370
   -1
100
AcDbLine
 10
355.046
 20
88.33240000000001
 11
369.044
 21
88.33240000000001
  0
LINE
  5
303
100
AcDbEntity
  8
0
  6
ByLayer
 62
    0
370
   -1
100
AcDbLine
 10
369.044
 20
88.33240000000001
 11
369.044
 21
89.3329
  0
LINE
  5
304
100
AcDbEntity
  8
0
  6
ByLayer
 62
    0
370
   -1
100
AcDbLine
 10
369.044
 20
89.3329
 11
369.845
 21
89.3329
  0
LINE
  5
305
100
AcDbEntity
  8
0
  6
ByLayer
 62
    0
370
   -1
100
AcDbLine
 10
369.845
 20
89.3329
 11
369.845
 21
92.432
  0
LINE
  5
306
100
AcDbEntity
  8
0
  6
ByLayer
 62
    0
370
   -1
100
AcDbLine
 10
369.845
 20
92.432
 11
369.044
 21
92.432
  0
LINE
  5
307
100
AcDbEntity
  8
0
  6
ByLayer
 62
    0
370
   -1
100
AcDbLine
 10
369.044
 20
92.432
 11
369.044
 21
98.232
  0
LINE
  5
308
100
AcDbEntity
  8
0
  6
ByLayer
 62
    0
370
   -1
100
AcDbLine
 10
369.044
 20
98.232
 11
369.845
 21
98.232
  0
LINE
  5
309
100
AcDbEntity
  8
0
  6
ByLayer
 62
    0
370
   -1
100
AcDbLine
 10
369.845
 20
98.232
 11
369.845
 21
101.333
  0
LINE
  5
30A
100
AcDbEntity
  8
0
  6
ByLayer
 62
    0
370
   -1
100
AcDbLine
 10
369.845
 20
101.333
 11
369.044
 21
101.333
  0
LINE
  5
30B
100
AcDbEntity
  8
0
  6
ByLayer
 62
    0
370
   -1
100
AcDbLine
 10
369.044
 20
101.333
 11
369.044
 21
102.332
  0
LINE
  5
30C
100
AcDbEntity
  8
0
  6
ByLayer
 62
    0
370
   -1
100
AcDbLine
 10
369.044
 20
102.332
 11
355.046
 21
102.332
  0
LINE
  5
30D
100
AcDbEntity
  8
0
  6
ByLayer
 62
    0
370
   -1
100
AcDbLine
 10
383.621
 20
102.332
 11
383.621
 21
101.333
  0
LINE
  5
30E
100
AcDbEntity
  8
0
  6
ByLayer
 62
    0
370
   -1
100
AcDbLine
 10
383.621
 20
101.333
 11
382.82
 21
101.333
  0
LINE
  5
30F
100
AcDbEntity
  8
0
  6
ByLayer
 62
    0
370
   -1
100
AcDbLine
 10
382.82
 20
101.333
 11
382.82
 21
98.232
  0
LINE
  5
310
100
AcDbEntity
  8
0
  6
ByLayer
 62
    0
370
   -1
100
AcDbLine
 10
382.82
 20
98.232
 11
383.621
 21
98.232
  0
LINE
  5
311
100
AcDbEntity
  8
0
  6
ByLayer
 62
    0
370
   -1
100
AcDbLine
 10
383.621
 20
98.232
 11
383.621
 21
92.432
  0
LINE
  5
312
100
AcDbEntity
  8
0
  6
ByLayer
 62
    0
370
   -1
100
AcDbLine
 10
383.621
 20
92.432
 11
382.82
 21
92.432
  0
LINE
  5
313
100
AcDbEntity
  8
0
  6
ByLayer
 62
    0
370
   -1
100
AcDbLine
 10
382.82
 20
92.432
 11
382.82
 21
89.3329
  0
LINE
  5
314
100
AcDbEntity
  8
0
  6
ByLayer
 62
    0
370
   -1
100
AcDbLine
 10
382.82
 20
89.3329
 11
383.621
 21
89.3329
  0
LINE
  5
315
100
AcDbEntity
  8
0
  6
ByLayer
 62
    0
370
   -1
100
AcDbLine
 10
383.621
 20
89.3329
 11
383.621
 21
88.33240000000001
  0
LINE
  5
316
100
AcDbEntity
  8
0
  6
ByLayer
 62
    0
370
   -1
100
AcDbLine
 10
383.621
 20
88.33240000000001
 11
397.619
 21
88.33240000000001
  0
LINE
  5
317
100
AcDbEntity
  8
0
  6
ByLayer
 62
    0
370
   -1
100
AcDbLine
 10
397.619
 20
88.33240000000001
 11
397.619
 21
89.3329
  0
LINE
  5
318
100
AcDbEntity
  8
0
  6
ByLayer
 62
    0
370
   -1
100
AcDbLine
 10
397.619
 20
89.3329
 11
398.42
 21
89.3329
  0
LINE
  5
319
100
AcDbEntity
  8
0
  6
ByLayer
 62
    0
370
   -1
100
AcDbLine
 10
398.42
 20
89.3329
 11
398.42
 21
92.432
  0
LINE
  5
31A
100
AcDbEntity
  8
0
  6
ByLayer
 62
    0
370
   -1
100
AcDbLine
 10
398.42
 20
92.432
 11
397.619
 21
92.432
  0
LINE
  5
31B
100
AcDbEntity
  8
0
  6
ByLayer
 62
    0
370
   -1
100
AcDbLine
 10
397.619
 20
92.432
 11
397.619
 21
98.232
  0
LINE
  5
31C
100
AcDbEntity
  8
0
  6
ByLayer
 62
    0
370
   -1
100
AcDbLine
 10
397.619
 20
98.232
 11
398.42
 21
98.232
  0
LINE
  5
31D
100
AcDbEntity
  8
0
  6
ByLayer
 62
    0
370
   -1
100
AcDbLine
 10
398.42
 20
98.232
 11
398.42
 21
101.333
  0
LINE
  5
31E
100
AcDbEntity
  8
0
  6
ByLayer
 62
    0
370
   -1
100
AcDbLine
 10
398.42
 20
101.333
 11
397.619
 21
101.333
  0
LINE
  5
31F
100
AcDbEntity
  8
0
  6
ByLayer
 62
    0
370
   -1
100
AcDbLine
 10
397.619
 20
101.333
 11
397.619
 21
102.332
  0
LINE
  5
320
100
AcDbEntity
  8
0
  6
ByLayer
 62
    0
370
   -1
100
AcDbLine
 10
397.619
 20
102.332
 11
383.621
 21
102.332
  0
LINE
  5
321
100
AcDbEntity
  8
0
  6
ByLayer
 62
    0
370
   -1
100
AcDbLine
 10
350.282
 20
121.382
 11
350.282
 21
120.383
  0
LINE
  5
322
100
AcDbEntity
  8
0
  6
ByLayer
 62
    0
370
   -1
100
AcDbLine
 10
350.282
 20
120.383
 11
349.481
 21
120.383
  0
LINE
  5
323
100
AcDbEntity
  8
0
  6
ByLayer
 62
    0
370
   -1
100
AcDbLine
 10
349.481
 20
120.383
 11
349.481
 21
117.282
  0
LINE
  5
324
100
AcDbEntity
  8
0
  6
ByLayer
 62
    0
370
   -1
100
AcDbLine
 10
349.481
 20
117.282
 11
350.282
 21
117.282
  0
LINE
  5
325
100
AcDbEntity
  8
0
  6
ByLayer
 62
    0
370
   -1
100
AcDbLine
 10
350.282
 20
117.282
 11
350.282
 21
116.683
  0
LINE
  5
326
100
AcDbEntity
  8
0
  6
ByLayer
 62
    0
370
   -1
100
AcDbLine
 10
350.282
 20
116.683
 11
348.757
 21
116.683
  0
LINE
  5
327
100
AcDbEntity
  8
0
  6
ByLayer
 62
    0
370
   -1
100
AcDbLine
 10
348.757
 20
116.683
 11
348.757
 21
119.913
  0
LINE
  5
328
100
AcDbEntity
  8
0
  6
ByLayer
 62
    0
370
   -1
100
AcDbLine
 10
348.757
 20
119.913
 11
342.007
 21
119.913
  0
LINE
  5
329
100
AcDbEntity
  8
0
  6
ByLayer
 62
    0
370
   -1
100
AcDbLine
 10
342.007
 20
119.913
 11
342.007
 21
116.683
  0
LINE
  5
32A
100
AcDbEntity
  8
0
  6
ByLayer
 62
    0
370
   -1
100
AcDbLine
 10
342.007
 20
116.683
 11
341.182
 21
116.683
  0
LINE
  5
32B
100
AcDbEntity
  8
0
  6
ByLayer
 62
    0
370
   -1
100
AcDbLine
 10
341.182
 20
116.683
 11
341.182
 21
113.882
  0
LINE
  5
32C
100
AcDbEntity
  8
0
  6
ByLayer
 62
    0
370
   -1
100
AcDbLine
 10
341.182
 20
113.882
 11
342.007
 21
113.882
  0
LINE
  5
32D
100
AcDbEntity
  8
0
  6
ByLayer
 62
    0
370
   -1
100
AcDbLine
 10
342.007
 20
113.882
 11
342.007
 21
107.612
  0
LINE
  5
32E
100
AcDbEntity
  8
0
  6
ByLayer
 62
    0
370
   -1
100
AcDbLine
 10
342.007
 20
107.612
 11
343.731
 21
107.612
  0
LINE
  5
32F
100
AcDbEntity
  8
0
  6
ByLayer
 62
    0
370
   -1
100
AcDbLine
 10
343.731
 20
107.612
 11
343.731
 21
106.412
  0
LINE
  5
330
100
AcDbEntity
  8
0
  6
ByLayer
 62
    0
370
   -1
100
AcDbLine
 10
343.731
 20
106.412
 11
347.031
 21
106.412
  0
LINE
  5
331
100
AcDbEntity
  8
0
  6
ByLayer
 62
    0
370
   -1
100
AcDbLine
 10
347.031
 20
106.412
 11
347.031
 21
107.612
  0
LINE
  5
332
100
AcDbEntity
  8
0
  6
ByLayer
 62
    0
370
   -1
100
AcDbLine
 10
347.031
 20
107.612
 11
348.757
 21
107.612
  0
LINE
  5
333
100
AcDbEntity
  8
0
  6
ByLayer
 62
    0
370
   -1
100
AcDbLine
 10
348.757
 20
107.612
 11
348.757
 21
112.083
  0
LINE
  5
334
100
AcDbEntity
  8
0
  6
ByLayer
 62
    0
370
   -1
100
AcDbLine
 10
348.757
 20
112.083
 11
350.282
 21
112.083
  0
LINE
  5
335
100
AcDbEntity
  8
0
  6
ByLayer
 62
    0
370
   -1
100
AcDbLine
 10
350.282
 20
112.083
 11
350.282
 21
111.482
  0
LINE
  5
336
100
AcDbEntity
  8
0
  6
ByLayer
 62
    0
370
   -1
100
AcDbLine
 10
350.282
 20
111.482
 11
349.481
 21
111.482
  0
LINE
  5
337
100
AcDbEntity
  8
0
  6
ByLayer
 62
    0
370
   -1
100
AcDbLine
 10
349.481
 20
111.482
 11
349.481
 21
108.383
  0
LINE
  5
338
100
AcDbEntity
  8
0
  6
ByLayer
 62
    0
370
   -1
100
AcDbLine
 10
349.481
 20
108.383
 11
350.282
 21
108.383
  0
LINE
  5
339
100
AcDbEntity
  8
0
  6
ByLayer
 62
    0
370
   -1
100
AcDbLine
 10
350.282
 20
108.383
 11
350.282
 21
107.382
  0
LINE
  5
33A
100
AcDbEntity
  8
0
  6
ByLayer
 62
    0
370
   -1
100
AcDbLine
 10
350.282
 20
107.382
 11
364.282
 21
107.382
  0
LINE
  5
33B
100
AcDbEntity
  8
0
  6
ByLayer
 62
    0
370
   -1
100
AcDbLine
 10
364.282
 20
107.382
 11
364.282
 21
108.383
  0
LINE
  5
33C
100
AcDbEntity
  8
0
  6
ByLayer
 62
    0
370
   -1
100
AcDbLine
 10
364.282
 20
108.383
 11
365.083
 21
108.383
  0
LINE
  5
33D
100
AcDbEntity
  8
0
  6
ByLayer
 62
    0
370
   -1
100
AcDbLine
 10
365.083
 20
108.383
 11
365.083
 21
111.482
  0
LINE
  5
33E
100
AcDbEntity
  8
0
  6
ByLayer
 62
    0
370
   -1
100
AcDbLine
 10
365.083
 20
111.482
 11
364.282
 21
111.482
  0
LINE
  5
33F
100
AcDbEntity
  8
0
  6
ByLayer
 62
    0
370
   -1
100
AcDbLine
 10
364.282
 20
111.482
 11
364.282
 21
112.083
  0
LINE
  5
340
100
AcDbEntity
  8
0
  6
ByLayer
 62
    0
370
   -1
100
AcDbLine
 10
364.282
 20
112.083
 11
365.806
 21
112.083
  0
LINE
  5
341
100
AcDbEntity
  8
0
  6
ByLayer
 62
    0
370
   -1
100
AcDbLine
 10
365.806
 20
112.083
 11
365.806
 21
107.612
  0
LINE
  5
342
100
AcDbEntity
  8
0
  6
ByLayer
 62
    0
370
   -1
100
AcDbLine
 10
365.806
 20
107.612
 11
367.531
 21
107.612
  0
LINE
  5
343
100
AcDbEntity
  8
0
  6
ByLayer
 62
    0
370
   -1
100
AcDbLine
 10
367.531
 20
107.612
 11
367.531
 21
106.412
  0
LINE
  5
344
100
AcDbEntity
  8
0
  6
ByLayer
 62
    0
370
   -1
100
AcDbLine
 10
367.531
 20
106.412
 11
370.833
 21
106.412
  0
LINE
  5
345
100
AcDbEntity
  8
0
  6
ByLayer
 62
    0
370
   -1
100
AcDbLine
 10
370.833
 20
106.412
 11
370.833
 21
107.612
  0
LINE
  5
346
100
AcDbEntity
  8
0
  6
ByLayer
 62
    0
370
   -1
100
AcDbLine
 10
370.833
 20
107.612
 11
372.558
 21
107.612
  0
LINE
  5
347
100
AcDbEntity
  8
0
  6
ByLayer
 62
    0
370
   -1
100
AcDbLine
 10
372.558
 20
107.612
 11
372.558
 21
113.882
  0
LINE
  5
348
100
AcDbEntity
  8
0
  6
ByLayer
 62
    0
370
   -1
100
AcDbLine
 10
372.558
 20
113.882
 11
373.38
 21
113.882
  0
LINE
  5
349
100
AcDbEntity
  8
0
  6
ByLayer
 62
    0
370
   -1
100
AcDbLine
 10
373.38
 20
113.882
 11
373.38
 21
116.683
  0
LINE
  5
34A
100
AcDbEntity
  8
0
  6
ByLayer
 62
    0
370
   -1
100
AcDbLine
 10
373.38
 20
116.683
 11
372.558
 21
116.683
  0
LINE
  5
34B
100
AcDbEntity
  8
0
  6
ByLayer
 62
    0
370
   -1
100
AcDbLine
 10
372.558
 20
116.683
 11
372.558
 21
119.913
  0
LINE
  5
34C
100
AcDbEntity
  8
0
  6
ByLayer
 62
    0
370
   -1
100
AcDbLine
 10
372.558
 20
119.913
 11
365.806
 21
119.913
  0
LINE
  5
34D
100
AcDbEntity
  8
0
  6
ByLayer
 62
    0
370
   -1
100
AcDbLine
 10
365.806
 20
119.913
 11
365.806
 21
116.683
  0
LINE
  5
34E
100
AcDbEntity
  8
0
  6
ByLayer
 62
    0
370
   -1
100
AcDbLine
 10
365.806
 20
116.683
 11
364.282
 21
116.683
  0
LINE
  5
34F
100
AcDbEntity
  8
0
  6
ByLayer
 62
    0
370
   -1
100
AcDbLine
 10
364.282
 20
116.683
 11
364.282
 21
117.282
  0
LINE
  5
350
100
AcDbEntity
  8
0
  6
ByLayer
 62
    0
370
   -1
100
AcDbLine
 10
364.282
 20
117.282
 11
365.083
 21
117.282
  0
LINE
  5
351
100
AcDbEntity
  8
0
  6
ByLayer
 62
    0
370
   -1
100
AcDbLine
 10
365.083
 20
117.282
 11
365.083
 21
120.383
  0
LINE
  5
352
100
AcDbEntity
  8
0
  6
ByLayer
 62
    0
370
   -1
100
AcDbLine
 10
365.083
 20
120.383
 11
364.282
 21
120.383
  0
LINE
  5
353
100
AcDbEntity
  8
0
  6
ByLayer
 62
    0
370
   -1
100
AcDbLine
 10
364.282
 20
120.383
 11
364.282
 21
121.382
  0
LINE
  5
354
100
AcDbEntity
  8
0
  6
ByLayer
 62
    0
370
   -1
100
AcDbLine
 10
364.282
 20
121.382
 11
350.282
 21
121.382
  0
LINE
  5
355
100
AcDbEntity
  8
0
  6
ByLayer
 62
    0
370
   -1
100
AcDbLine
 10
207.407
 20
121.382
 11
207.407
 21
120.383
  0
LINE
  5
356
100
AcDbEntity
  8
0
  6
ByLayer
 62
    0
370
   -1
100
AcDbLine
 10
207.407
 20
120.383
 11
206.606
 21
120.383
  0
LINE
  5
357
100
AcDbEntity
  8
0
  6
ByLayer
 62
    0
370
   -1
100
AcDbLine
 10
206.606
 20
120.383
 11
206.606
 21
117.282
  0
LINE
  5
358
100
AcDbEntity
  8
0
  6
ByLayer
 62
    0
370
   -1
100
AcDbLine
 10
206.606
 20
117.282
 11
207.407
 21
117.282
  0
LINE
  5
359
100
AcDbEntity
  8
0
  6
ByLayer
 62
    0
370
   -1
100
AcDbLine
 10
207.407
 20
117.282
 11
207.407
 21
111.482
  0
LINE
  5
35A
100
AcDbEntity
  8
0
  6
ByLayer
 62
    0
370
   -1
100
AcDbLine
 10
207.407
 20
111.482
 11
206.606
 21
111.482
  0
LINE
  5
35B
100
AcDbEntity
  8
0
  6
ByLayer
 62
    0
370
   -1
100
AcDbLine
 10
206.606
 20
111.482
 11
206.606
 21
108.383
  0
LINE
  5
35C
100
AcDbEntity
  8
0
  6
ByLayer
 62
    0
370
   -1
100
AcDbLine
 10
206.606
 20
108.383
 11
207.407
 21
108.383
  0
LINE
  5
35D
100
AcDbEntity
  8
0
  6
ByLayer
 62
    0
370
   -1
100
AcDbLine
 10
207.407
 20
108.383
 11
207.407
 21
107.382
  0
LINE
  5
35E
100
AcDbEntity
  8
0
  6
ByLayer
 62
    0
370
   -1
100
AcDbLine
 10
207.407
 20
107.382
 11
221.407
 21
107.382
  0
LINE
  5
35F
100
AcDbEntity
  8
0
  6
ByLayer
 62
    0
370
   -1
100
AcDbLine
 10
221.407
 20
107.382
 11
221.407
 21
108.383
  0
LINE
  5
360
100
AcDbEntity
  8
0
  6
ByLayer
 62
    0
370
   -1
100
AcDbLine
 10
221.407
 20
108.383
 11
222.206
 21
108.383
  0
LINE
  5
361
100
AcDbEntity
  8
0
  6
ByLayer
 62
    0
370
   -1
100
AcDbLine
 10
222.206
 20
108.383
 11
222.206
 21
111.482
  0
LINE
  5
362
100
AcDbEntity
  8
0
  6
ByLayer
 62
    0
370
   -1
100
AcDbLine
 10
222.206
 20
111.482
 11
221.407
 21
111.482
  0
LINE
  5
363
100
AcDbEntity
  8
0
  6
ByLayer
 62
    0
370
   -1
100
AcDbLine
 10
221.407
 20
111.482
 11
221.407
 21
117.282
  0
LINE
  5
364
100
AcDbEntity
  8
0
  6
ByLayer
 62
    0
370
   -1
100
AcDbLine
 10
221.407
 20
117.282
 11
222.206
 21
117.282
  0
LINE
  5
365
100
AcDbEntity
  8
0
  6
ByLayer
 62
    0
370
   -1
100
AcDbLine
 10
222.206
 20
117.282
 11
222.206
 21
120.383
  0
LINE
  5
366
100
AcDbEntity
  8
0
  6
ByLayer
 62
    0
370
   -1
100
AcDbLine
 10
222.206
 20
120.383
 11
221.407
 21
120.383
  0
LINE
  5
367
100
AcDbEntity
  8
0
  6
ByLayer
 62
    0
370
   -1
100
AcDbLine
 10
221.407
 20
120.383
 11
221.407
 21
121.382
  0
LINE
  5
368
100
AcDbEntity
  8
0
  6
ByLayer
 62
    0
370
   -1
100
AcDbLine
 10
221.407
 20
121.382
 11
207.407
 21
121.382
  0
LINE
  5
369
100
AcDbEntity
  8
0
  6
ByLayer
 62
    0
370
   -1
100
AcDbLine
 10
226.457
 20
121.382
 11
226.457
 21
120.383
  0
LINE
  5
36A
100
AcDbEntity
  8
0
  6
ByLayer
 62
    0
370
   -1
100
AcDbLine
 10
226.457
 20
120.383
 11
225.656
 21
120.383
  0
LINE
  5
36B
100
AcDbEntity
  8
0
  6
ByLayer
 62
    0
370
   -1
100
AcDbLine
 10
225.656
 20
120.383
 11
225.656
 21
117.282
  0
LINE
  5
36C
100
AcDbEntity
  8
0
  6
ByLayer
 62
    0
370
   -1
100
AcDbLine
 10
225.656
 20
117.282
 11
226.457
 21
117.282
  0
LINE
  5
36D
100
AcDbEntity
  8
0
  6
ByLayer
 62
    0
370
   -1
100
AcDbLine
 10
226.457
 20
117.282
 11
226.457
 21
111.482
  0
LINE
  5
36E
100
AcDbEntity
  8
0
  6
ByLayer
 62
    0
370
   -1
100
AcDbLine
 10
226.457
 20
111.482
 11
225.656
 21
111.482
  0
LINE
  5
36F
100
AcDbEntity
  8
0
  6
ByLayer
 62
    0
370
   -1
100
AcDbLine
 10
225.656
 20
111.482
 11
225.656
 21
108.383
  0
LINE
  5
370
100
AcDbEntity
  8
0
  6
ByLayer
 62
    0
370
   -1
100
AcDbLine
 10
225.656
 20
108.383
 11
226.457
 21
108.383
  0
LINE
  5
371
100
AcDbEntity
  8
0
  6
ByLayer
 62
    0
370
   -1
100
AcDbLine
 10
226.457
 20
108.383
 11
226.457
 21
107.382
  0
LINE
  5
372
100
AcDbEntity
  8
0
  6
ByLayer
 62
    0
370
   -1
100
AcDbLine
 10
226.457
 20
107.382
 11
240.457
 21
107.382
  0
LINE
  5
373
100
AcDbEntity
  8
0
  6
ByLayer
 62
    0
370
   -1
100
AcDbLine
 10
240.457
 20
107.382
 11
240.457
 21
108.383
  0
LINE
  5
374
100
AcDbEntity
  8
0
  6
ByLayer
 62
    0
370
   -1
100
AcDbLine
 10
240.457
 20
108.383
 11
241.256
 21
108.383
  0
LINE
  5
375
100
AcDbEntity
  8
0
  6
ByLayer
 62
    0
370
   -1
100
AcDbLine
 10
241.256
 20
108.383
 11
241.256
 21
111.482
  0
LINE
  5
376
100
AcDbEntity
  8
0
  6
ByLayer
 62
    0
370
   -1
100
AcDbLine
 10
241.256
 20
111.482
 11
240.457
 21
111.482
  0
LINE
  5
377
100
AcDbEntity
  8
0
  6
ByLayer
 62
    0
370
   -1
100
AcDbLine
 10
240.457
 20
111.482
 11
240.457
 21
117.282
  0
LINE
  5
378
100
AcDbEntity
  8
0
  6
ByLayer
 62
    0
370
   -1
100
AcDbLine
 10
240.457
 20
117.282
 11
241.256
 21
117.282
  0
LINE
  5
379
100
AcDbEntity
  8
0
  6
ByLayer
 62
    0
370
   -1
100
AcDbLine
 10
241.256
 20
117.282
 11
241.256
 21
120.383
  0
LINE
  5
37A
100
AcDbEntity
  8
0
  6
ByLayer
 62
    0
370
   -1
100
AcDbLine
 10
241.256
 20
120.383
 11
240.457
 21
120.383
  0
LINE
  5
37B
100
AcDbEntity
  8
0
  6
ByLayer
 62
    0
370
   -1
100
AcDbLine
 10
240.457
 20
120.383
 11
240.457
 21
121.382
  0
LINE
  5
37C
100
AcDbEntity
  8
0
  6
ByLayer
 62
    0
370
   -1
100
AcDbLine
 10
240.457
 20
121.382
 11
226.457
 21
121.382
  0
LINE
  5
37D
100
AcDbEntity
  8
0
  6
ByLayer
 62
    0
370
   -1
100
AcDbLine
 10
245.507
 20
121.382
 11
245.507
 21
120.383
  0
LINE
  5
37E
100
AcDbEntity
  8
0
  6
ByLayer
 62
    0
370
   -1
100
AcDbLine
 10
245.507
 20
120.383
 11
244.706
 21
120.383
  0
LINE
  5
37F
100
AcDbEntity
  8
0
  6
ByLayer
 62
    0
370
   -1
100
AcDbLine
 10
244.706
 20
120.383
 11
244.706
 21
117.282
  0
LINE
  5
380
100
AcDbEntity
  8
0
  6
ByLayer
 62
    0
370
   -1
100
AcDbLine
 10
244.706
 20
117.282
 11
245.507
 21
117.282
  0
LINE
  5
381
100
AcDbEntity
  8
0
  6
ByLayer
 62
    0
370
   -1
100
AcDbLine
 10
245.507
 20
117.282
 11
245.507
 21
111.482
  0
LINE
  5
382
100
AcDbEntity
  8
0
  6
ByLayer
 62
    0
370
   -1
100
AcDbLine
 10
245.507
 20
111.482
 11
244.706
 21
111.482
  0
LINE
  5
383
100
AcDbEntity
  8
0
  6
ByLayer
 62
    0
370
   -1
100
AcDbLine
 10
244.706
 20
111.482
 11
244.706
 21
108.383
  0
LINE
  5
384
100
AcDbEntity
  8
0
  6
ByLayer
 62
    0
370
   -1
100
AcDbLine
 10
244.706
 20
108.383
 11
245.507
 21
108.383
  0
LINE
  5
385
100
AcDbEntity
  8
0
  6
ByLayer
 62
    0
370
   -1
100
AcDbLine
 10
245.507
 20
108.383
 11
245.507
 21
107.382
  0
LINE
  5
386
100
AcDbEntity
  8
0
  6
ByLayer
 62
    0
370
   -1
100
AcDbLine
 10
245.507
 20
107.382
 11
259.507
 21
107.382
  0
LINE
  5
387
100
AcDbEntity
  8
0
  6
ByLayer
 62
    0
370
   -1
100
AcDbLine
 10
259.507
 20
107.382
 11
259.507
 21
108.383
  0
LINE
  5
388
100
AcDbEntity
  8
0
  6
ByLayer
 62
    0
370
   -1
100
AcDbLine
 10
259.507
 20
108.383
 11
260.306
 21
108.383
  0
LINE
  5
389
100
AcDbEntity
  8
0
  6
ByLayer
 62
    0
370
   -1
100
AcDbLine
 10
260.306
 20
108.383
 11
260.306
 21
111.482
  0
LINE
  5
38A
100
AcDbEntity
  8
0
  6
ByLayer
 62
    0
370
   -1
100
AcDbLine
 10
260.306
 20
111.482
 11
259.507
 21
111.482
  0
LINE
  5
38B
100
AcDbEntity
  8
0
  6
ByLayer
 62
    0
370
   -1
100
AcDbLine
 10
259.507
 20
111.482
 11
259.507
 21
117.282
  0
LINE
  5
38C
100
AcDbEntity
  8
0
  6
ByLayer
 62
    0
370
   -1
100
AcDbLine
 10
259.507
 20
117.282
 11
260.306
 21
117.282
  0
LINE
  5
38D
100
AcDbEntity
  8
0
  6
ByLayer
 62
    0
370
   -1
100
AcDbLine
 10
260.306
 20
117.282
 11
260.306
 21
120.383
  0
LINE
  5
38E
100
AcDbEntity
  8
0
  6
ByLayer
 62
    0
370
   -1
100
AcDbLine
 10
260.306
 20
120.383
 11
259.507
 21
120.383
  0
LINE
  5
38F
100
AcDbEntity
  8
0
  6
ByLayer
 62
    0
370
   -1
100
AcDbLine
 10
259.507
 20
120.383
 11
259.507
 21
121.382
  0
LINE
  5
390
100
AcDbEntity
  8
0
  6
ByLayer
 62
    0
370
   -1
100
AcDbLine
 10
259.507
 20
121.382
 11
245.507
 21
121.382
  0
LINE
  5
391
100
AcDbEntity
  8
0
  6
ByLayer
 62
    0
370
   -1
100
AcDbLine
 10
264.557
 20
121.382
 11
264.557
 21
120.383
  0
LINE
  5
392
100
AcDbEntity
  8
0
  6
ByLayer
 62
    0
370
   -1
100
AcDbLine
 10
264.557
 20
120.383
 11
263.756
 21
120.383
  0
LINE
  5
393
100
AcDbEntity
  8
0
  6
ByLayer
 62
    0
370
   -1
100
AcDbLine
 10
263.756
 20
120.383
 11
263.756
 21
117.282
  0
LINE
  5
394
100
AcDbEntity
  8
0
  6
ByLayer
 62
    0
370
   -1
100
AcDbLine
 10
263.756
 20
117.282
 11
264.557
 21
117.282
  0
LINE
  5
395
100
AcDbEntity
  8
0
  6
ByLayer
 62
    0
370
   -1
100
AcDbLine
 10
264.557
 20
117.282
 11
264.557
 21
111.482
  0
LINE
  5
396
100
AcDbEntity
  8
0
  6
ByLayer
 62
    0
370
   -1
100
AcDbLine
 10
264.557
 20
111.482
 11
263.756
 21
111.482
  0
LINE
  5
397
100
AcDbEntity
  8
0
  6
ByLayer
 62
    0
370
   -1
100
AcDbLine
 10
263.756
 20
111.482
 11
263.756
 21
108.383
  0
LINE
  5
398
100
AcDbEntity
  8
0
  6
ByLayer
 62
    0
370
   -1
100
AcDbLine
 10
263.756
 20
108.383
 11
264.557
 21
108.383
  0
LINE
  5
399
100
AcDbEntity
  8
0
  6
ByLayer
 62
    0
370
   -1
100
AcDbLine
 10
264.557
 20
108.383
 11
264.557
 21
107.382
  0
LINE
  5
39A
100
AcDbEntity
  8
0
  6
ByLayer
 62
    0
370
   -1
100
AcDbLine
 10
264.557
 20
107.382
 11
278.557
 21
107.382
  0
LINE
  5
39B
100
AcDbEntity
  8
0
  6
ByLayer
 62
    0
370
   -1
100
AcDbLine
 10
278.557
 20
107.382
 11
278.557
 21
108.383
  0
LINE
  5
39C
100
AcDbEntity
  8
0
  6
ByLayer
 62
    0
370
   -1
100
AcDbLine
 10
278.557
 20
108.383
 11
279.356
 21
108.383
  0
LINE
  5
39D
100
AcDbEntity
  8
0
  6
ByLayer
 62
    0
370
   -1
100
AcDbLine
 10
279.356
 20
108.383
 11
279.356
 21
111.482
  0
LINE
  5
39E
100
AcDbEntity
  8
0
  6
ByLayer
 62
    0
370
   -1
100
AcDbLine
 10
279.356
 20
111.482
 11
278.557
 21
111.482
  0
LINE
  5
39F
100
AcDbEntity
  8
0
  6
ByLayer
 62
    0
370
   -1
100
AcDbLine
 10
278.557
 20
111.482
 11
278.557
 21
117.282
  0
LINE
  5
3A0
100
AcDbEntity
  8
0
  6
ByLayer
 62
    0
370
   -1
100
AcDbLine
 10
278.557
 20
117.282
 11
279.356
 21
117.282
  0
LINE
  5
3A1
100
AcDbEntity
  8
0
  6
ByLayer
 62
    0
370
   -1
100
AcDbLine
 10
279.356
 20
117.282
 11
279.356
 21
120.383
  0
LINE
  5
3A2
100
AcDbEntity
  8
0
  6
ByLayer
 62
    0
370
   -1
100
AcDbLine
 10
279.356
 20
120.383
 11
278.557
 21
120.383
  0
LINE
  5
3A3
100
AcDbEntity
  8
0
  6
ByLayer
 62
    0
370
   -1
100
AcDbLine
 10
278.557
 20
120.383
 11
278.557
 21
121.382
  0
LINE
  5
3A4
100
AcDbEntity
  8
0
  6
ByLayer
 62
    0
370
   -1
100
AcDbLine
 10
278.557
 20
121.382
 11
264.557
 21
121.382
  0
LINE
  5
3A5
100
AcDbEntity
  8
0
  6
ByLayer
 62
    0
370
   -1
100
AcDbLine
 10
283.607
 20
121.382
 11
283.607
 21
120.383
  0
LINE
  5
3A6
100
AcDbEntity
  8
0
  6
ByLayer
 62
    0
370
   -1
100
AcDbLine
 10
283.607
 20
120.383
 11
282.806
 21
120.383
  0
LINE
  5
3A7
100
AcDbEntity
  8
0
  6
ByLayer
 62
    0
370
   -1
100
AcDbLine
 10
282.806
 20
120.383
 11
282.806
 21
117.282
  0
LINE
  5
3A8
100
AcDbEntity
  8
0
  6
ByLayer
 62
    0
370
   -1
100
AcDbLine
 10
282.806
 20
117.282
 11
283.607
 21
117.282
  0
LINE
  5
3A9
100
AcDbEntity
  8
0
  6
ByLayer
 62
    0
370
   -1
100
AcDbLine
 10
283.607
 20
117.282
 11
283.607
 21
111.482
  0
LINE
  5
3AA
100
AcDbEntity
  8
0
  6
ByLayer
 62
    0
370
   -1
100
AcDbLine
 10
283.607
 20
111.482
 11
282.806
 21
111.482
  0
LINE
  5
3AB
100
AcDbEntity
  8
0
  6
ByLayer
 62
    0
370
   -1
100
AcDbLine
 10
282.806
 20
111.482
 11
282.806
 21
108.383
  0
LINE
  5
3AC
100
AcDbEntity
  8
0
  6
ByLayer
 62
    0
370
   -1
100
AcDbLine
 10
282.806
 20
108.383
 11
283.607
 21
108.383
  0
LINE
  5
3AD
100
AcDbEntity
  8
0
  6
ByLayer
 62
    0
370
   -1
100
AcDbLine
 10
283.607
 20
108.383
 11
283.607
 21
107.382
  0
LINE
  5
3AE
100
AcDbEntity
  8
0
  6
ByLayer
 62
    0
370
   -1
100
AcDbLine
 10
283.607
 20
107.382
 11
297.607
 21
107.382
  0
LINE
  5
3AF
100
AcDbEntity
  8
0
  6
ByLayer
 62
    0
370
   -1
100
AcDbLine
 10
297.607
 20
107.382
 11
297.607
 21
108.383
  0
LINE
  5
3B0
100
AcDbEntity
  8
0
  6
ByLayer
 62
    0
370
   -1
100
AcDbLine
 10
297.607
 20
108.383
 11
298.406
 21
108.383
  0
LINE
  5
3B1
100
AcDbEntity
  8
0
  6
ByLayer
 62
    0
370
   -1
100
AcDbLine
 10
298.406
 20
108.383
 11
298.406
 21
111.482
  0
LINE
  5
3B2
100
AcDbEntity
  8
0
  6
ByLayer
 62
    0
370
   -1
100
AcDbLine
 10
298.406
 20
111.482
 11
297.607
 21
111.482
  0
LINE
  5
3B3
100
AcDbEntity
  8
0
  6
ByLayer
 62
    0
370
   -1
100
AcDbLine
 10
297.607
 20
111.482
 11
297.607
 21
117.282
  0
LINE
  5
3B4
100
AcDbEntity
  8
0
  6
ByLayer
 62
    0
370
   -1
100
AcDbLine
 10
297.607
 20
117.282
 11
298.406
 21
117.282
  0
LINE
  5
3B5
100
AcDbEntity
  8
0
  6
ByLayer
 62
    0
370
   -1
100
AcDbLine
 10
298.406
 20
117.282
 11
298.406
 21
120.383
  0
LINE
  5
3B6
100
AcDbEntity
  8
0
  6
ByLayer
 62
    0
370
   -1
100
AcDbLine
 10
298.406
 20
120.383
 11
297.607
 21
120.383
  0
LINE
  5
3B7
100
AcDbEntity
  8
0
  6
ByLayer
 62
    0
370
   -1
100
AcDbLine
 10
297.607
 20
120.383
 11
297.607
 21
121.382
  0
LINE
  5
3B8
100
AcDbEntity
  8
0
  6
ByLayer
 62
    0
370
   -1
100
AcDbLine
 10
297.607
 20
121.382
 11
283.607
 21
121.382
  0
LINE
  5
3B9
100
AcDbEntity
  8
0
  6
ByLayer
 62
    0
370
   -1
100
AcDbLine
 10
302.657
 20
121.382
 11
302.657
 21
120.383
  0
LINE
  5
3BA
100
AcDbEntity
  8
0
  6
ByLayer
 62
    0
370
   -1
100
AcDbLine
 10
302.657
 20
120.383
 11
301.856
 21
120.383
  0
LINE
  5
3BB
100
AcDbEntity
  8
0
  6
ByLayer
 62
    0
370
   -1
100
AcDbLine
 10
301.856
 20
120.383
 11
301.856
 21
117.282
  0
LINE
  5
3BC
100
AcDbEntity
  8
0
  6
ByLayer
 62
    0
370
   -1
100
AcDbLine
 10
301.856
 20
117.282
 11
302.657
 21
117.282
  0
LINE
  5
3BD
100
AcDbEntity
  8
0
  6
ByLayer
 62
    0
370
   -1
100
AcDbLine
 10
302.657
 20
117.282
 11
302.657
 21
111.482
  0
LINE
  5
3BE
100
AcDbEntity
  8
0
  6
ByLayer
 62
    0
370
   -1
100
AcDbLine
 10
302.657
 20
111.482
 11
301.856
 21
111.482
  0
LINE
  5
3BF
100
AcDbEntity
  8
0
  6
ByLayer
 62
    0
370
   -1
100
AcDbLine
 10
301.856
 20
111.482
 11
301.856
 21
108.383
  0
LINE
  5
3C0
100
AcDbEntity
  8
0
  6
ByLayer
 62
    0
370
   -1
100
AcDbLine
 10
301.856
 20
108.383
 11
302.657
 21
108.383
  0
LINE
  5
3C1
100
AcDbEntity
  8
0
  6
ByLayer
 62
    0
370
   -1
100
AcDbLine
 10
302.657
 20
108.383
 11
302.657
 21
107.382
  0
LINE
  5
3C2
100
AcDbEntity
  8
0
  6
ByLayer
 62
    0
370
   -1
100
AcDbLine
 10
302.657
 20
107.382
 11
316.657
 21
107.382
  0
LINE
  5
3C3
100
AcDbEntity
  8
0
  6
ByLayer
 62
    0
370
   -1
100
AcDbLine
 10
316.657
 20
107.382
 11
316.657
 21
108.383
  0
LINE
  5
3C4
100
AcDbEntity
  8
0
  6
ByLayer
 62
    0
370
   -1
100
AcDbLine
 10
316.657
 20
108.383
 11
317.456
 21
108.383
  0
LINE
  5
3C5
100
AcDbEntity
  8
0
  6
ByLayer
 62
    0
370
   -1
100
AcDbLine
 10
317.456
 20
108.383
 11
317.456
 21
111.482
  0
LINE
  5
3C6
100
AcDbEntity
  8
0
  6
ByLayer
 62
    0
370
   -1
100
AcDbLine
 10
317.456
 20
111.482
 11
316.657
 21
111.482
  0
LINE
  5
3C7
100
AcDbEntity
  8
0
  6
ByLayer
 62
    0
370
   -1
100
AcDbLine
 10
316.657
 20
111.482
 11
316.657
 21
117.282
  0
LINE
  5
3C8
100
AcDbEntity
  8
0
  6
ByLayer
 62
    0
370
   -1
100
AcDbLine
 10
316.657
 20
117.282
 11
317.456
 21
117.282
  0
LINE
  5
3C9
100
AcDbEntity
  8
0
  6
ByLayer
 62
    0
370
   -1
100
AcDbLine
 10
317.456
 20
117.282
 11
317.456
 21
120.383
  0
LINE
  5
3CA
100
AcDbEntity
  8
0
  6
ByLayer
 62
    0
370
   -1
100
AcDbLine
 10
317.456
 20
120.383
 11
316.657
 21
120.383
  0
LINE
  5
3CB
100
AcDbEntity
  8
0
  6
ByLayer
 62
    0
370
   -1
100
AcDbLine
 10
316.657
 20
120.383
 11
316.657
 21
121.382
  0
LINE
  5
3CC
100
AcDbEntity
  8
0
  6
ByLayer
 62
    0
370
   -1
100
AcDbLine
 10
316.657
 20
121.382
 11
302.657
 21
121.382
  0
LINE
  5
3CD
100
AcDbEntity
  8
0
  6
ByLayer
 62
    0
370
   -1
100
AcDbLine
 10
321.707
 20
121.382
 11
321.707
 21
120.383
  0
LINE
  5
3CE
100
AcDbEntity
  8
0
  6
ByLayer
 62
    0
370
   -1
100
AcDbLine
 10
321.707
 20
120.383
 11
320.906
 21
120.383
  0
LINE
  5
3CF
100
AcDbEntity
  8
0
  6
ByLayer
 62
    0
370
   -1
100
AcDbLine
 10
320.906
 20
120.383
 11
320.906
 21
117.282
  0
LINE
  5
3D0
100
AcDbEntity
  8
0
  6
ByLayer
 62
    0
370
   -1
100
AcDbLine
 10
320.906
 20
117.282
 11
321.707
 21
117.282
  0
LINE
  5
3D1
100
AcDbEntity
  8
0
  6
ByLayer
 62
    0
370
   -1
100
AcDbLine
 10
321.707
 20
117.282
 11
321.707
 21
111.482
  0
LINE
  5
3D2
100
AcDbEntity
  8
0
  6
ByLayer
 62
    0
370
   -1
100
AcDbLine
 10
321.707
 20
111.482
 11
320.906
 21
111.482
  0
LINE
  5
3D3
100
AcDbEntity
  8
0
  6
ByLayer
 62
    0
370
   -1
100
AcDbLine
 10
320.906
 20
111.482
 11
320.906
 21
108.383
  0
LINE
  5
3D4
100
AcDbEntity
  8
0
  6
ByLayer
 62
    0
370
   -1
100
AcDbLine
 10
320.906
 20
108.383
 11
321.707
 21
108.383
  0
LINE
  5
3D5
100
AcDbEntity
  8
0
  6
ByLayer
 62
    0
370
   -1
100
AcDbLine
 10
321.707
 20
108.383
 11
321.707
 21
107.382
  0
LINE
  5
3D6
100
AcDbEntity
  8
0
  6
ByLayer
 62
    0
370
   -1
100
AcDbLine
 10
321.707
 20
107.382
 11
335.707
 21
107.382
  0
LINE
  5
3D7
100
AcDbEntity
  8
0
  6
ByLayer
 62
    0
370
   -1
100
AcDbLine
 10
335.707
 20
107.382
 11
335.707
 21
108.383
  0
LINE
  5
3D8
100
AcDbEntity
  8
0
  6
ByLayer
 62
    0
370
   -1
100
AcDbLine
 10
335.707
 20
108.383
 11
336.506
 21
108.383
  0
LINE
  5
3D9
100
AcDbEntity
  8
0
  6
ByLayer
 62
    0
370
   -1
100
AcDbLine
 10
336.506
 20
108.383
 11
336.506
 21
111.482
  0
LINE
  5
3DA
100
AcDbEntity
  8
0
  6
ByLayer
 62
    0
370
   -1
100
AcDbLine
 10
336.506
 20
111.482
 11
335.707
 21
111.482
  0
LINE
  5
3DB
100
AcDbEntity
  8
0
  6
ByLayer
 62
    0
370
   -1
100
AcDbLine
 10
335.707
 20
111.482
 11
335.707
 21
117.282
  0
LINE
  5
3DC
100
AcDbEntity
  8
0
  6
ByLayer
 62
    0
370
   -1
100
AcDbLine
 10
335.707
 20
117.282
 11
336.506
 21
117.282
  0
LINE
  5
3DD
100
AcDbEntity
  8
0
  6
ByLayer
 62
    0
370
   -1
100
AcDbLine
 10
336.506
 20
117.282
 11
336.506
 21
120.383
  0
LINE
  5
3DE
100
AcDbEntity
  8
0
  6
ByLayer
 62
    0
370
   -1
100
AcDbLine
 10
336.506
 20
120.383
 11
335.707
 21
120.383
  0
LINE
  5
3DF
100
AcDbEntity
  8
0
  6
ByLayer
 62
    0
370
   -1
100
AcDbLine
 10
335.707
 20
120.383
 11
335.707
 21
121.382
  0
LINE
  5
3E0
100
AcDbEntity
  8
0
  6
ByLayer
 62
    0
370
   -1
100
AcDbLine
 10
335.707
 20
121.382
 11
321.707
 21
121.382
  0
LINE
  5
3E1
100
AcDbEntity
  8
0
  6
ByLayer
 62
    0
370
   -1
100
AcDbLine
 10
383.621
 20
121.382
 11
383.621
 21
120.383
  0
LINE
  5
3E2
100
AcDbEntity
  8
0
  6
ByLayer
 62
    0
370
   -1
100
AcDbLine
 10
383.621
 20
120.383
 11
382.82
 21
120.383
  0
LINE
  5
3E3
100
AcDbEntity
  8
0
  6
ByLayer
 62
    0
370
   -1
100
AcDbLine
 10
382.82
 20
120.383
 11
382.82
 21
117.282
  0
LINE
  5
3E4
100
AcDbEntity
  8
0
  6
ByLayer
 62
    0
370
   -1
100
AcDbLine
 10
382.82
 20
117.282
 11
383.621
 21
117.282
  0
LINE
  5
3E5
100
AcDbEntity
  8
0
  6
ByLayer
 62
    0
370
   -1
100
AcDbLine
 10
383.621
 20
117.282
 11
383.621
 21
111.482
  0
LINE
  5
3E6
100
AcDbEntity
  8
0
  6
ByLayer
 62
    0
370
   -1
100
AcDbLine
 10
383.621
 20
111.482
 11
382.82
 21
111.482
  0
LINE
  5
3E7
100
AcDbEntity
  8
0
  6
ByLayer
 62
    0
370
   -1
100
AcDbLine
 10
382.82
 20
111.482
 11
382.82
 21
108.383
  0
LINE
  5
3E8
100
AcDbEntity
  8
0
  6
ByLayer
 62
    0
370
   -1
100
AcDbLine
 10
382.82
 20
108.383
 11
383.621
 21
108.383
  0
LINE
  5
3E9
100
AcDbEntity
  8
0
  6
ByLayer
 62
    0
370
   -1
100
AcDbLine
 10
383.621
 20
108.383
 11
383.621
 21
107.382
  0
LINE
  5
3EA
100
AcDbEntity
  8
0
  6
ByLayer
 62
    0
370
   -1
100
AcDbLine
 10
383.621
 20
107.382
 11
397.619
 21
107.382
  0
LINE
  5
3EB
100
AcDbEntity
  8
0
  6
ByLayer
 62
    0
370
   -1
100
AcDbLine
 10
397.619
 20
107.382
 11
397.619
 21
108.383
  0
LINE
  5
3EC
100
AcDbEntity
  8
0
  6
ByLayer
 62
    0
370
   -1
100
AcDbLine
 10
397.619
 20
108.383
 11
398.42
 21
108.383
  0
LINE
  5
3ED
100
AcDbEntity
  8
0
  6
ByLayer
 62
    0
370
   -1
100
AcDbLine
 10
398.42
 20
108.383
 11
398.42
 21
111.482
  0
LINE
  5
3EE
100
AcDbEntity
  8
0
  6
ByLayer
 62
    0
370
   -1
100
AcDbLine
 10
398.42
 20
111.482
 11
397.619
 21
111.482
  0
LINE
  5
3EF
100
AcDbEntity
  8
0
  6
ByLayer
 62
    0
370
   -1
100
AcDbLine
 10
397.619
 20
111.482
 11
397.619
 21
117.282
  0
LINE
  5
3F0
100
AcDbEntity
  8
0
  6
ByLayer
 62
    0
370
   -1
100
AcDbLine
 10
397.619
 20
117.282
 11
398.42
 21
117.282
  0
LINE
  5
3F1
100
AcDbEntity
  8
0
  6
ByLayer
 62
    0
370
   -1
100
AcDbLine
 10
398.42
 20
117.282
 11
398.42
 21
120.383
  0
LINE
  5
3F2
100
AcDbEntity
  8
0
  6
ByLayer
 62
    0
370
   -1
100
AcDbLine
 10
398.42
 20
120.383
 11
397.619
 21
120.383
  0
LINE
  5
3F3
100
AcDbEntity
  8
0
  6
ByLayer
 62
    0
370
   -1
100
AcDbLine
 10
397.619
 20
120.383
 11
397.619
 21
121.382
  0
LINE
  5
3F4
100
AcDbEntity
  8
0
  6
ByLayer
 62
    0
370
   -1
100
AcDbLine
 10
397.619
 20
121.382
 11
383.621
 21
121.382
  0
LINE
  5
3F5
100
AcDbEntity
  8
0
  6
ByLayer
 62
    0
370
   -1
100
AcDbLine
 10
207.407
 20
145.194
 11
207.407
 21
144.194
  0
LINE
  5
3F6
100
AcDbEntity
  8
0
  6
ByLayer
 62
    0
370
   -1
100
AcDbLine
 10
207.407
 20
144.194
 11
206.606
 21
144.194
  0
LINE
  5
3F7
100
AcDbEntity
  8
0
  6
ByLayer
 62
    0
370
   -1
100
AcDbLine
 10
206.606
 20
144.194
 11
206.606
 21
141.095
  0
LINE
  5
3F8
100
AcDbEntity
  8
0
  6
ByLayer
 62
    0
370
   -1
100
AcDbLine
 10
206.606
 20
141.095
 11
207.407
 21
141.095
  0
LINE
  5
3F9
100
AcDbEntity
  8
0
  6
ByLayer
 62
    0
370
   -1
100
AcDbLine
 10
207.407
 20
141.095
 11
207.407
 21
135.295
  0
LINE
  5
3FA
100
AcDbEntity
  8
0
  6
ByLayer
 62
    0
370
   -1
100
AcDbLine
 10
207.407
 20
135.295
 11
206.606
 21
135.295
  0
LINE
  5
3FB
100
AcDbEntity
  8
0
  6
ByLayer
 62
    0
370
   -1
100
AcDbLine
 10
206.606
 20
135.295
 11
206.606
 21
132.194
  0
LINE
  5
3FC
100
AcDbEntity
  8
0
  6
ByLayer
 62
    0
370
   -1
100
AcDbLine
 10
206.606
 20
132.194
 11
207.407
 21
132.194
  0
LINE
  5
3FD
100
AcDbEntity
  8
0
  6
ByLayer
 62
    0
370
   -1
100
AcDbLine
 10
207.407
 20
132.194
 11
207.407
 21
131.195
  0
LINE
  5
3FE
100
AcDbEntity
  8
0
  6
ByLayer
 62
    0
370
   -1
100
AcDbLine
 10
207.407
 20
131.195
 11
221.407
 21
131.195
  0
LINE
  5
3FF
100
AcDbEntity
  8
0
  6
ByLayer
 62
    0
370
   -1
100
AcDbLine
 10
221.407
 20
131.195
 11
221.407
 21
132.194
  0
LINE
  5
400
100
AcDbEntity
  8
0
  6
ByLayer
 62
    0
370
   -1
100
AcDbLine
 10
221.407
 20
132.194
 11
222.206
 21
132.194
  0
LINE
  5
401
100
AcDbEntity
  8
0
  6
ByLayer
 62
    0
370
   -1
100
AcDbLine
 10
222.206
 20
132.194
 11
222.206
 21
135.295
  0
LINE
  5
402
100
AcDbEntity
  8
0
  6
ByLayer
 62
    0
370
   -1
100
AcDbLine
 10
222.206
 20
135.295
 11
221.407
 21
135.295
  0
LINE
  5
403
100
AcDbEntity
  8
0
  6
ByLayer
 62
    0
370
   -1
100
AcDbLine
 10
221.407
 20
135.295
 11
221.407
 21
141.095
  0
LINE
  5
404
100
AcDbEntity
  8
0
  6
ByLayer
 62
    0
370
   -1
100
AcDbLine
 10
221.407
 20
141.095
 11
222.206
 21
141.095
  0
LINE
  5
405
100
AcDbEntity
  8
0
  6
ByLayer
 62
    0
370
   -1
100
AcDbLine
 10
222.206
 20
141.095
 11
222.206
 21
144.194
  0
LINE
  5
406
100
AcDbEntity
  8
0
  6
ByLayer
 62
    0
370
   -1
100
AcDbLine
 10
222.206
 20
144.194
 11
221.407
 21
144.194
  0
LINE
  5
407
100
AcDbEntity
  8
0
  6
ByLayer
 62
    0
370
   -1
100
AcDbLine
 10
221.407
 20
144.194
 11
221.407
 21
145.194
  0
LINE
  5
408
100
AcDbEntity
  8
0
  6
ByLayer
 62
    0
370
   -1
100
AcDbLine
 10
221.407
 20
145.194
 11
207.407
 21
145.194
  0
LINE
  5
409
100
AcDbEntity
  8
0
  6
ByLayer
 62
    0
370
   -1
100
AcDbLine
 10
226.457
 20
145.194
 11
226.457
 21
144.194
  0
LINE
  5
40A
100
AcDbEntity
  8
0
  6
ByLayer
 62
    0
370
   -1
100
AcDbLine
 10
226.457
 20
144.194
 11
225.656
 21
144.194
  0
LINE
  5
40B
100
AcDbEntity
  8
0
  6
ByLayer
 62
    0
370
   -1
100
AcDbLine
 10
225.656
 20
144.194
 11
225.656
 21
141.095
  0
LINE
  5
40C
100
AcDbEntity
  8
0
  6
ByLayer
 62
    0
370
   -1
100
AcDbLine
 10
225.656
 20
141.095
 11
226.457
 21
141.095
  0
LINE
  5
40D
100
AcDbEntity
  8
0
  6
ByLayer
 62
    0
370
   -1
100
AcDbLine
 10
226.457
 20
141.095
 11
226.457
 21
135.295
  0
LINE
  5
40E
100
AcDbEntity
  8
0
  6
ByLayer
 62
    0
370
   -1
100
AcDbLine
 10
226.457
 20
135.295
 11
225.656
 21
135.295
  0
LINE
  5
40F
100
AcDbEntity
  8
0
  6
ByLayer
 62
    0
370
   -1
100
AcDbLine
 10
225.656
 20
135.295
 11
225.656
 21
132.194
  0
LINE
  5
410
100
AcDbEntity
  8
0
  6
ByLayer
 62
    0
370
   -1
100
AcDbLine
 10
225.656
 20
132.194
 11
226.457
 21
132.194
  0
LINE
  5
411
100
AcDbEntity
  8
0
  6
ByLayer
 62
    0
370
   -1
100
AcDbLine
 10
226.457
 20
132.194
 11
226.457
 21
131.195
  0
LINE
  5
412
100
AcDbEntity
  8
0
  6
ByLayer
 62
    0
370
   -1
100
AcDbLine
 10
226.457
 20
131.195
 11
240.457
 21
131.195
  0
LINE
  5
413
100
AcDbEntity
  8
0
  6
ByLayer
 62
    0
370
   -1
100
AcDbLine
 10
240.457
 20
131.195
 11
240.457
 21
132.194
  0
LINE
  5
414
100
AcDbEntity
  8
0
  6
ByLayer
 62
    0
370
   -1
100
AcDbLine
 10
240.457
 20
132.194
 11
241.256
 21
132.194
  0
LINE
  5
415
100
AcDbEntity
  8
0
  6
ByLayer
 62
    0
370
   -1
100
AcDbLine
 10
241.256
 20
132.194
 11
241.256
 21
135.295
  0
LINE
  5
416
100
AcDbEntity
  8
0
  6
ByLayer
 62
    0
370
   -1
100
AcDbLine
 10
241.256
 20
135.295
 11
240.457
 21
135.295
  0
LINE
  5
417
100
AcDbEntity
  8
0
  6
ByLayer
 62
    0
370
   -1
100
AcDbLine
 10
240.457
 20
135.295
 11
240.457
 21
141.095
  0
LINE
  5
418
100
AcDbEntity
  8
0
  6
ByLayer
 62
    0
370
   -1
100
AcDbLine
 10
240.457
 20
141.095
 11
241.256
 21
141.095
  0
LINE
  5
419
100
AcDbEntity
  8
0
  6
ByLayer
 62
    0
370
   -1
100
AcDbLine
 10
241.256
 20
141.095
 11
241.256
 21
144.194
  0
LINE
  5
41A
100
AcDbEntity
  8
0
  6
ByLayer
 62
    0
370
   -1
100
AcDbLine
 10
241.256
 20
144.194
 11
240.457
 21
144.194
  0
LINE
  5
41B
100
AcDbEntity
  8
0
  6
ByLayer
 62
    0
370
   -1
100
AcDbLine
 10
240.457
 20
144.194
 11
240.457
 21
145.194
  0
LINE
  5
41C
100
AcDbEntity
  8
0
  6
ByLayer
 62
    0
370
   -1
100
AcDbLine
 10
240.457
 20
145.194
 11
226.457
 21
145.194
  0
LINE
  5
41D
100
AcDbEntity
  8
0
  6
ByLayer
 62
    0
370
   -1
100
AcDbLine
 10
245.507
 20
145.194
 11
245.507
 21
144.194
  0
LINE
  5
41E
100
AcDbEntity
  8
0
  6
ByLayer
 62
    0
370
   -1
100
AcDbLine
 10
245.507
 20
144.194
 11
244.706
 21
144.194
  0
LINE
  5
41F
100
AcDbEntity
  8
0
  6
ByLayer
 62
    0
370
   -1
100
AcDbLine
 10
244.706
 20
144.194
 11
244.706
 21
141.095
  0
LINE
  5
420
100
AcDbEntity
  8
0
  6
ByLayer
 62
    0
370
   -1
100
AcDbLine
 10
244.706
 20
141.095
 11
245.507
 21
141.095
  0
LINE
  5
421
100
AcDbEntity
  8
0
  6
ByLayer
 62
    0
370
   -1
100
AcDbLine
 10
245.507
 20
141.095
 11
245.507
 21
135.295
  0
LINE
  5
422
100
AcDbEntity
  8
0
  6
ByLayer
 62
    0
370
   -1
100
AcDbLine
 10
245.507
 20
135.295
 11
244.706
 21
135.295
  0
LINE
  5
423
100
AcDbEntity
  8
0
  6
ByLayer
 62
    0
370
   -1
100
AcDbLine
 10
244.706
 20
135.295
 11
244.706
 21
132.194
  0
LINE
  5
424
100
AcDbEntity
  8
0
  6
ByLayer
 62
    0
370
   -1
100
AcDbLine
 10
244.706
 20
132.194
 11
245.507
 21
132.194
  0
LINE
  5
425
100
AcDbEntity
  8
0
  6
ByLayer
 62
    0
370
   -1
100
AcDbLine
 10
245.507
 20
132.194
 11
245.507
 21
131.195
  0
LINE
  5
426
100
AcDbEntity
  8
0
  6
ByLayer
 62
    0
370
   -1
100
AcDbLine
 10
245.507
 20
131.195
 11
259.507
 21
131.195
  0
LINE
  5
427
100
AcDbEntity
  8
0
  6
ByLayer
 62
    0
370
   -1
100
AcDbLine
 10
259.507
 20
131.195
 11
259.507
 21
132.194
  0
LINE
  5
428
100
AcDbEntity
  8
0
  6
ByLayer
 62
    0
370
   -1
100
AcDbLine
 10
259.507
 20
132.194
 11
260.306
 21
132.194
  0
LINE
  5
429
100
AcDbEntity
  8
0
  6
ByLayer
 62
    0
370
   -1
100
AcDbLine
 10
260.306
 20
132.194
 11
260.306
 21
135.295
  0
LINE
  5
42A
100
AcDbEntity
  8
0
  6
ByLayer
 62
    0
370
   -1
100
AcDbLine
 10
260.306
 20
135.295
 11
259.507
 21
135.295
  0
LINE
  5
42B
100
AcDbEntity
  8
0
  6
ByLayer
 62
    0
370
   -1
100
AcDbLine
 10
259.507
 20
135.295
 11
259.507
 21
141.095
  0
LINE
  5
42C
100
AcDbEntity
  8
0
  6
ByLayer
 62
    0
370
   -1
100
AcDbLine
 10
259.507
 20
141.095
 11
260.306
 21
141.095
  0
LINE
  5
42D
100
AcDbEntity
  8
0
  6
ByLayer
 62
    0
370
   -1
100
AcDbLine
 10
260.306
 20
141.095
 11
260.306
 21
144.194
  0
LINE
  5
42E
100
AcDbEntity
  8
0
  6
ByLayer
 62
    0
370
   -1
100
AcDbLine
 10
260.306
 20
144.194
 11
259.507
 21
144.194
  0
LINE
  5
42F
100
AcDbEntity
  8
0
  6
ByLayer
 62
    0
370
   -1
100
AcDbLine
 10
259.507
 20
144.194
 11
259.507
 21
145.194
  0
LINE
  5
430
100
AcDbEntity
  8
0
  6
ByLayer
 62
    0
370
   -1
100
AcDbLine
 10
259.507
 20
145.194
 11
245.507
 21
145.194
  0
LINE
  5
431
100
AcDbEntity
  8
0
  6
ByLayer
 62
    0
370
   -1
100
AcDbLine
 10
264.557
 20
145.194
 11
264.557
 21
144.194
  0
LINE
  5
432
100
AcDbEntity
  8
0
  6
ByLayer
 62
    0
370
   -1
100
AcDbLine
 10
264.557
 20
144.194
 11
263.756
 21
144.194
  0
LINE
  5
433
100
AcDbEntity
  8
0
  6
ByLayer
 62
    0
370
   -1
100
AcDbLine
 10
263.756
 20
144.194
 11
263.756
 21
141.095
  0
LINE
  5
434
100
AcDbEntity
  8
0
  6
ByLayer
 62
    0
370
   -1
100
AcDbLine
 10
263.756
 20
141.095
 11
264.557
 21
141.095
  0
LINE
  5
435
100
AcDbEntity
  8
0
  6
ByLayer
 62
    0
370
   -1
100
AcDbLine
 10
264.557
 20
141.095
 11
264.557
 21
135.295
  0
LINE
  5
436
100
AcDbEntity
  8
0
  6
ByLayer
 62
    0
370
   -1
100
AcDbLine
 10
264.557
 20
135.295
 11
263.756
 21
135.295
  0
LINE
  5
437
100
AcDbEntity
  8
0
  6
ByLayer
 62
    0
370
   -1
100
AcDbLine
 10
263.756
 20
135.295
 11
263.756
 21
132.194
  0
LINE
  5
438
100
AcDbEntity
  8
0
  6
ByLayer
 62
    0
370
   -1
100
AcDbLine
 10
263.756
 20
132.194
 11
264.557
 21
132.194
  0
LINE
  5
439
100
AcDbEntity
  8
0
  6
ByLayer
 62
    0
370
   -1
100
AcDbLine
 10
264.557
 20
132.194
 11
264.557
 21
131.195
  0
LINE
  5
43A
100
AcDbEntity
  8
0
  6
ByLayer
 62
    0
370
   -1
100
AcDbLine
 10
264.557
 20
131.195
 11
278.557
 21
131.195
  0
LINE
  5
43B
100
AcDbEntity
  8
0
  6
ByLayer
 62
    0
370
   -1
100
AcDbLine
 10
278.557
 20
131.195
 11
278.557
 21
132.194
  0
LINE
  5
43C
100
AcDbEntity
  8
0
  6
ByLayer
 62
    0
370
   -1
100
AcDbLine
 10
278.557
 20
132.194
 11
279.356
 21
132.194
  0
LINE
  5
43D
100
AcDbEntity
  8
0
  6
ByLayer
 62
    0
370
   -1
100
AcDbLine
 10
279.356
 20
132.194
 11
279.356
 21
135.295
  0
LINE
  5
43E
100
AcDbEntity
  8
0
  6
ByLayer
 62
    0
370
   -1
100
AcDbLine
 10
279.356
 20
135.295
 11
278.557
 21
135.295
  0
LINE
  5
43F
100
AcDbEntity
  8
0
  6
ByLayer
 62
    0
370
   -1
100
AcDbLine
 10
278.557
 20
135.295
 11
278.557
 21
141.095
  0
LINE
  5
440
100
AcDbEntity
  8
0
  6
ByLayer
 62
    0
370
   -1
100
AcDbLine
 10
278.557
 20
141.095
 11
279.356
 21
141.095
  0
LINE
  5
441
100
AcDbEntity
  8
0
  6
ByLayer
 62
    0
370
   -1
100
AcDbLine
 10
279.356
 20
141.095
 11
279.356
 21
144.194
  0
LINE
  5
442
100
AcDbEntity
  8
0
  6
ByLayer
 62
    0
370
   -1
100
AcDbLine
 10
279.356
 20
144.194
 11
278.557
 21
144.194
  0
LINE
  5
443
100
AcDbEntity
  8
0
  6
ByLayer
 62
    0
370
   -1
100
AcDbLine
 10
278.557
 20
144.194
 11
278.557
 21
145.194
  0
LINE
  5
444
100
AcDbEntity
  8
0
  6
ByLayer
 62
    0
370
   -1
100
AcDbLine
 10
278.557
 20
145.194
 11
264.557
 21
145.194
  0
LINE
  5
445
100
AcDbEntity
  8
0
  6
ByLayer
 62
    0
370
   -1
100
AcDbLine
 10
283.607
 20
145.194
 11
283.607
 21
144.194
  0
LINE
  5
446
100
AcDbEntity
  8
0
  6
ByLayer
 62
    0
370
   -1
100
AcDbLine
 10
283.607
 20
144.194
 11
282.806
 21
144.194
  0
LINE
  5
447
100
AcDbEntity
  8
0
  6
ByLayer
 62
    0
370
   -1
100
AcDbLine
 10
282.806
 20
144.194
 11
282.806
 21
141.095
  0
LINE
  5
448
100
AcDbEntity
  8
0
  6
ByLayer
 62
    0
370
   -1
100
AcDbLine
 10
282.806
 20
141.095
 11
283.607
 21
141.095
  0
LINE
  5
449
100
AcDbEntity
  8
0
  6
ByLayer
 62
    0
370
   -1
100
AcDbLine
 10
283.607
 20
141.095
 11
283.607
 21
135.295
  0
LINE
  5
44A
100
AcDbEntity
  8
0
  6
ByLayer
 62
    0
370
   -1
100
AcDbLine
 10
283.607
 20
135.295
 11
282.806
 21
135.295
  0
LINE
  5
44B
100
AcDbEntity
  8
0
  6
ByLayer
 62
    0
370
   -1
100
AcDbLine
 10
282.806
 20
135.295
 11
282.806
 21
132.194
  0
LINE
  5
44C
100
AcDbEntity
  8
0
  6
ByLayer
 62
    0
370
   -1
100
AcDbLine
 10
282.806
 20
132.194
 11
283.607
 21
132.194
  0
LINE
  5
44D
100
AcDbEntity
  8
0
  6
ByLayer
 62
    0
370
   -1
100
AcDbLine
 10
283.607
 20
132.194
 11
283.607
 21
131.195
  0
LINE
  5
44E
100
AcDbEntity
  8
0
  6
ByLayer
 62
    0
370
   -1
100
AcDbLine
 10
283.607
 20
131.195
 11
297.607
 21
131.195
  0
LINE
  5
44F
100
AcDbEntity
  8
0
  6
ByLayer
 62
    0
370
   -1
100
AcDbLine
 10
297.607
 20
131.195
 11
297.607
 21
132.194
  0
LINE
  5
450
100
AcDbEntity
  8
0
  6
ByLayer
 62
    0
370
   -1
100
AcDbLine
 10
297.607
 20
132.194
 11
298.406
 21
132.194
  0
LINE
  5
451
100
AcDbEntity
  8
0
  6
ByLayer
 62
    0
370
   -1
100
AcDbLine
 10
298.406
 20
132.194
 11
298.406
 21
135.295
  0
LINE
  5
452
100
AcDbEntity
  8
0
  6
ByLayer
 62
    0
370
   -1
100
AcDbLine
 10
298.406
 20
135.295
 11
297.607
 21
135.295
  0
LINE
  5
453
100
AcDbEntity
  8
0
  6
ByLayer
 62
    0
370
   -1
100
AcDbLine
 10
297.607
 20
135.295
 11
297.607
 21
141.095
  0
LINE
  5
454
100
AcDbEntity
  8
0
  6
ByLayer
 62
    0
370
   -1
100
AcDbLine
 10
297.607
 20
141.095
 11
298.406
 21
141.095
  0
LINE
  5
455
100
AcDbEntity
  8
0
  6
ByLayer
 62
    0
370
   -1
100
AcDbLine
 10
298.406
 20
141.095
 11
298.406
 21
144.194
  0
LINE
  5
456
100
AcDbEntity
  8
0
  6
ByLayer
 62
    0
370
   -1
100
AcDbLine
 10
298.406
 20
144.194
 11
297.607
 21
144.194
  0
LINE
  5
457
100
AcDbEntity
  8
0
  6
ByLayer
 62
    0
370
   -1
100
AcDbLine
 10
297.607
 20
144.194
 11
297.607
 21
145.194
  0
LINE
  5
458
100
AcDbEntity
  8
0
  6
ByLayer
 62
    0
370
   -1
100
AcDbLine
 10
297.607
 20
145.194
 11
283.607
 21
145.194
  0
LINE
  5
459
100
AcDbEntity
  8
0
  6
ByLayer
 62
    0
370
   -1
100
AcDbLine
 10
302.657
 20
145.194
 11
302.657
 21
144.194
  0
LINE
  5
45A
100
AcDbEntity
  8
0
  6
ByLayer
 62
    0
370
   -1
100
AcDbLine
 10
302.657
 20
144.194
 11
301.856
 21
144.194
  0
LINE
  5
45B
100
AcDbEntity
  8
0
  6
ByLayer
 62
    0
370
   -1
100
AcDbLine
 10
301.856
 20
144.194
 11
301.856
 21
141.095
  0
LINE
  5
45C
100
AcDbEntity
  8
0
  6
ByLayer
 62
    0
370
   -1
100
AcDbLine
 10
301.856
 20
141.095
 11
302.657
 21
141.095
  0
LINE
  5
45D
100
AcDbEntity
  8
0
  6
ByLayer
 62
    0
370
   -1
100
AcDbLine
 10
302.657
 20
141.095
 11
302.657
 21
135.295
  0
LINE
  5
45E
100
AcDbEntity
  8
0
  6
ByLayer
 62
    0
370
   -1
100
AcDbLine
 10
302.657
 20
135.295
 11
301.856
 21
135.295
  0
LINE
  5
45F
100
AcDbEntity
  8
0
  6
ByLayer
 62
    0
370
   -1
100
AcDbLine
 10
301.856
 20
135.295
 11
301.856
 21
132.194
  0
LINE
  5
460
100
AcDbEntity
  8
0
  6
ByLayer
 62
    0
370
   -1
100
AcDbLine
 10
301.856
 20
132.194
 11
302.657
 21
132.194
  0
LINE
  5
461
100
AcDbEntity
  8
0
  6
ByLayer
 62
    0
370
   -1
100
AcDbLine
 10
302.657
 20
132.194
 11
302.657
 21
131.195
  0
LINE
  5
462
100
AcDbEntity
  8
0
  6
ByLayer
 62
    0
370
   -1
100
AcDbLine
 10
302.657
 20
131.195
 11
316.657
 21
131.195
  0
LINE
  5
463
100
AcDbEntity
  8
0
  6
ByLayer
 62
    0
370
   -1
100
AcDbLine
 10
316.657
 20
131.195
 11
316.657
 21
132.194
  0
LINE
  5
464
100
AcDbEntity
  8
0
  6
ByLayer
 62
    0
370
   -1
100
AcDbLine
 10
316.657
 20
132.194
 11
317.456
 21
132.194
  0
LINE
  5
465
100
AcDbEntity
  8
0
  6
ByLayer
 62
    0
370
   -1
100
AcDbLine
 10
317.456
 20
132.194
 11
317.456
 21
135.295
  0
LINE
  5
466
100
AcDbEntity
  8
0
  6
ByLayer
 62
    0
370
   -1
100
AcDbLine
 10
317.456
 20
135.295
 11
316.657
 21
135.295
  0
LINE
  5
467
100
AcDbEntity
  8
0
  6
ByLayer
 62
    0
370
   -1
100
AcDbLine
 10
316.657
 20
135.295
 11
316.657
 21
141.095
  0
LINE
  5
468
100
AcDbEntity
  8
0
  6
ByLayer
 62
    0
370
   -1
100
AcDbLine
 10
316.657
 20
141.095
 11
317.456
 21
141.095
  0
LINE
  5
469
100
AcDbEntity
  8
0
  6
ByLayer
 62
    0
370
   -1
100
AcDbLine
 10
317.456
 20
141.095
 11
317.456
 21
144.194
  0
LINE
  5
46A
100
AcDbEntity
  8
0
  6
ByLayer
 62
    0
370
   -1
100
AcDbLine
 10
317.456
 20
144.194
 11
316.657
 21
144.194
  0
LINE
  5
46B
100
AcDbEntity
  8
0
  6
ByLayer
 62
    0
370
   -1
100
AcDbLine
 10
316.657
 20
144.194
 11
316.657
 21
145.194
  0
LINE
  5
46C
100
AcDbEntity
  8
0
  6
ByLayer
 62
    0
370
   -1
100
AcDbLine
 10
316.657
 20
145.194
 11
302.657
 21
145.194
  0
LINE
  5
46D
100
AcDbEntity
  8
0
  6
ByLayer
 62
    0
370
   -1
100
AcDbLine
 10
321.707
 20
145.194
 11
321.707
 21
144.194
  0
LINE
  5
46E
100
AcDbEntity
  8
0
  6
ByLayer
 62
    0
370
   -1
100
AcDbLine
 10
321.707
 20
144.194
 11
320.906
 21
144.194
  0
LINE
  5
46F
100
AcDbEntity
  8
0
  6
ByLayer
 62
    0
370
   -1
100
AcDbLine
 10
320.906
 20
144.194
 11
320.906
 21
141.095
  0
LINE
  5
470
100
AcDbEntity
  8
0
  6
ByLayer
 62
    0
370
   -1
100
AcDbLine
 10
320.906
 20
141.095
 11
321.707
 21
141.095
  0
LINE
  5
471
100
AcDbEntity
  8
0
  6
ByLayer
 62
    0
370
   -1
100
AcDbLine
 10
321.707
 20
141.095
 11
321.707
 21
135.295
  0
LINE
  5
472
100
AcDbEntity
  8
0
  6
ByLayer
 62
    0
370
   -1
100
AcDbLine
 10
321.707
 20
135.295
 11
320.906
 21
135.295
  0
LINE
  5
473
100
AcDbEntity
  8
0
  6
ByLayer
 62
    0
370
   -1
100
AcDbLine
 10
320.906
 20
135.295
 11
320.906
 21
132.194
  0
LINE
  5
474
100
AcDbEntity
  8
0
  6
ByLayer
 62
    0
370
   -1
100
AcDbLine
 10
320.906
 20
132.194
 11
321.707
 21
132.194
  0
LINE
  5
475
100
AcDbEntity
  8
0
  6
ByLayer
 62
    0
370
   -1
100
AcDbLine
 10
321.707
 20
132.194
 11
321.707
 21
131.195
  0
LINE
  5
476
100
AcDbEntity
  8
0
  6
ByLayer
 62
    0
370
   -1
100
AcDbLine
 10
321.707
 20
131.195
 11
335.707
 21
131.195
  0
LINE
  5
477
100
AcDbEntity
  8
0
  6
ByLayer
 62
    0
370
   -1
100
AcDbLine
 10
335.707
 20
131.195
 11
335.707
 21
132.194
  0
LINE
  5
478
100
AcDbEntity
  8
0
  6
ByLayer
 62
    0
370
   -1
100
AcDbLine
 10
335.707
 20
132.194
 11
336.506
 21
132.194
  0
LINE
  5
479
100
AcDbEntity
  8
0
  6
ByLayer
 62
    0
370
   -1
100
AcDbLine
 10
336.506
 20
132.194
 11
336.506
 21
135.295
  0
LINE
  5
47A
100
AcDbEntity
  8
0
  6
ByLayer
 62
    0
370
   -1
100
AcDbLine
 10
336.506
 20
135.295
 11
335.707
 21
135.295
  0
LINE
  5
47B
100
AcDbEntity
  8
0
  6
ByLayer
 62
    0
370
   -1
100
AcDbLine
 10
335.707
 20
135.295
 11
335.707
 21
141.095
  0
LINE
  5
47C
100
AcDbEntity
  8
0
  6
ByLayer
 62
    0
370
   -1
100
AcDbLine
 10
335.707
 20
141.095
 11
336.506
 21
141.095
  0
LINE
  5
47D
100
AcDbEntity
  8
0
  6
ByLayer
 62
    0
370
   -1
100
AcDbLine
 10
336.506
 20
141.095
 11
336.506
 21
144.194
  0
LINE
  5
47E
100
AcDbEntity
  8
0
  6
ByLayer
 62
    0
370
   -1
100
AcDbLine
 10
336.506
 20
144.194
 11
335.707
 21
144.194
  0
LINE
  5
47F
100
AcDbEntity
  8
0
  6
ByLayer
 62
    0
370
   -1
100
AcDbLine
 10
335.707
 20
144.194
 11
335.707
 21
145.194
  0
LINE
  5
480
100
AcDbEntity
  8
0
  6
ByLayer
 62
    0
370
   -1
100
AcDbLine
 10
335.707
 20
145.194
 11
321.707
 21
145.194
  0
LINE
  5
481
100
AcDbEntity
  8
0
  6
ByLayer
 62
    0
370
   -1
100
AcDbLine
 10
340.757
 20
145.194
 11
340.757
 21
144.194
  0
LINE
  5
482
100
AcDbEntity
  8
0
  6
ByLayer
 62
    0
370
   -1
100
AcDbLine
 10
340.757
 20
144.194
 11
339.956
 21
144.194
  0
LINE
  5
483
100
AcDbEntity
  8
0
  6
ByLayer
 62
    0
370
   -1
100
AcDbLine
 10
339.956
 20
144.194
 11
339.956
 21
141.095
  0
LINE
  5
484
100
AcDbEntity
  8
0
  6
ByLayer
 62
    0
370
   -1
100
AcDbLine
 10
339.956
 20
141.095
 11
340.757
 21
141.095
  0
LINE
  5
485
100
AcDbEntity
  8
0
  6
ByLayer
 62
    0
370
   -1
100
AcDbLine
 10
340.757
 20
141.095
 11
340.757
 21
135.295
  0
LINE
  5
486
100
AcDbEntity
  8
0
  6
ByLayer
 62
    0
370
   -1
100
AcDbLine
 10
340.757
 20
135.295
 11
339.956
 21
135.295
  0
LINE
  5
487
100
AcDbEntity
  8
0
  6
ByLayer
 62
    0
370
   -1
100
AcDbLine
 10
339.956
 20
135.295
 11
339.956
 21
132.194
  0
LINE
  5
488
100
AcDbEntity
  8
0
  6
ByLayer
 62
    0
370
   -1
100
AcDbLine
 10
339.956
 20
132.194
 11
340.757
 21
132.194
  0
LINE
  5
489
100
AcDbEntity
  8
0
  6
ByLayer
 62
    0
370
   -1
100
AcDbLine
 10
340.757
 20
132.194
 11
340.757
 21
131.195
  0
LINE
  5
48A
100
AcDbEntity
  8
0
  6
ByLayer
 62
    0
370
   -1
100
AcDbLine
 10
340.757
 20
131.195
 11
354.757
 21
131.195
  0
LINE
  5
48B
100
AcDbEntity
  8
0
  6
ByLayer
 62
    0
370
   -1
100
AcDbLine
 10
354.757
 20
131.195
 11
354.757
 21
132.194
  0
LINE
  5
48C
100
AcDbEntity
  8
0
  6
ByLayer
 62
    0
370
   -1
100
AcDbLine
 10
354.757
 20
132.194
 11
355.558
 21
132.194
  0
LINE
  5
48D
100
AcDbEntity
  8
0
  6
ByLayer
 62
    0
370
   -1
100
AcDbLine
 10
355.558
 20
132.194
 11
355.558
 21
135.295
  0
LINE
  5
48E
100
AcDbEntity
  8
0
  6
ByLayer
 62
    0
370
   -1
100
AcDbLine
 10
355.558
 20
135.295
 11
354.757
 21
135.295
  0
LINE
  5
48F
100
AcDbEntity
  8
0
  6
ByLayer
 62
    0
370
   -1
100
AcDbLine
 10
354.757
 20
135.295
 11
354.757
 21
141.095
  0
LINE
  5
490
100
AcDbEntity
  8
0
  6
ByLayer
 62
    0
370
   -1
100
AcDbLine
 10
354.757
 20
141.095
 11
355.558
 21
141.095
  0
LINE
  5
491
100
AcDbEntity
  8
0
  6
ByLayer
 62
    0
370
   -1
100
AcDbLine
 10
355.558
 20
141.095
 11
355.558
 21
144.194
  0
LINE
  5
492
100
AcDbEntity
  8
0
  6
ByLayer
 62
    0
370
   -1
100
AcDbLine
 10
355.558
 20
144.194
 11
354.757
 21
144.194
  0
LINE
  5
493
100
AcDbEntity
  8
0
  6
ByLayer
 62
    0
370
   -1
100
AcDbLine
 10
354.757
 20
144.194
 11
354.757
 21
145.194
  0
LINE
  5
494
100
AcDbEntity
  8
0
  6
ByLayer
 62
    0
370
   -1
100
AcDbLine
 10
354.757
 20
145.194
 11
340.757
 21
145.194
  0
LINE
  5
495
100
AcDbEntity
  8
0
  6
ByLayer
 62
    0
370
   -1
100
AcDbLine
 10
359.809
 20
145.194
 11
359.809
 21
144.194
  0
LINE
  5
496
100
AcDbEntity
  8
0
  6
ByLayer
 62
    0
370
   -1
100
AcDbLine
 10
359.809
 20
144.194
 11
359.008
 21
144.194
  0
LINE
  5
497
100
AcDbEntity
  8
0
  6
ByLayer
 62
    0
370
   -1
100
AcDbLine
 10
359.008
 20
144.194
 11
359.008
 21
141.095
  0
LINE
  5
498
100
AcDbEntity
  8
0
  6
ByLayer
 62
    0
370
   -1
100
AcDbLine
 10
359.008
 20
141.095
 11
359.809
 21
141.095
  0
LINE
  5
499
100
AcDbEntity
  8
0
  6
ByLayer
 62
    0
370
   -1
100
AcDbLine
 10
359.809
 20
141.095
 11
359.809
 21
135.295
  0
LINE
  5
49A
100
AcDbEntity
  8
0
  6
ByLayer
 62
    0
370
   -1
100
AcDbLine
 10
359.809
 20
135.295
 11
359.008
 21
135.295
  0
LINE
  5
49B
100
AcDbEntity
  8
0
  6
ByLayer
 62
    0
370
   -1
100
AcDbLine
 10
359.008
 20
135.295
 11
359.008
 21
132.194
  0
LINE
  5
49C
100
AcDbEntity
  8
0
  6
ByLayer
 62
    0
370
   -1
100
AcDbLine
 10
359.008
 20
132.194
 11
359.809
 21
132.194
  0
LINE
  5
49D
100
AcDbEntity
  8
0
  6
ByLayer
 62
    0
370
   -1
100
AcDbLine
 10
359.809
 20
132.194
 11
359.809
 21
131.195
  0
LINE
  5
49E
100
AcDbEntity
  8
0
  6
ByLayer
 62
    0
370
   -1
100
AcDbLine
 10
359.809
 20
131.195
 11
373.807
 21
131.195
  0
LINE
  5
49F
100
AcDbEntity
  8
0
  6
ByLayer
 62
    0
370
   -1
100
AcDbLine
 10
373.807
 20
131.195
 11
373.807
 21
132.194
  0
LINE
  5
4A0
100
AcDbEntity
  8
0
  6
ByLayer
 62
    0
370
   -1
100
AcDbLine
 10
373.807
 20
132.194
 11
374.608
 21
132.194
  0
LINE
  5
4A1
100
AcDbEntity
  8
0
  6
ByLayer
 62
    0
370
   -1
100
AcDbLine
 10
374.608
 20
132.194
 11
374.608
 21
135.295
  0
LINE
  5
4A2
100
AcDbEntity
  8
0
  6
ByLayer
 62
    0
370
   -1
100
AcDbLine
 10
374.608
 20
135.295
 11
373.807
 21
135.295
  0
LINE
  5
4A3
100
AcDbEntity
  8
0
  6
ByLayer
 62
    0
370
   -1
100
AcDbLine
 10
373.807
 20
135.295
 11
373.807
 21
141.095
  0
LINE
  5
4A4
100
AcDbEntity
  8
0
  6
ByLayer
 62
    0
370
   -1
100
AcDbLine
 10
373.807
 20
141.095
 11
374.608
 21
141.095
  0
LINE
  5
4A5
100
AcDbEntity
  8
0
  6
ByLayer
 62
    0
370
   -1
100
AcDbLine
 10
374.608
 20
141.095
 11
374.608
 21
144.194
  0
LINE
  5
4A6
100
AcDbEntity
  8
0
  6
ByLayer
 62
    0
370
   -1
100
AcDbLine
 10
374.608
 20
144.194
 11
373.807
 21
144.194
  0
LINE
  5
4A7
100
AcDbEntity
  8
0
  6
ByLayer
 62
    0
370
   -1
100
AcDbLine
 10
373.807
 20
144.194
 11
373.807
 21
145.194
  0
LINE
  5
4A8
100
AcDbEntity
  8
0
  6
ByLayer
 62
    0
370
   -1
100
AcDbLine
 10
373.807
 20
145.194
 11
359.809
 21
145.194
  0
LINE
  5
4A9
100
AcDbEntity
  8
0
  6
ByLayer
 62
    0
370
   -1
100
AcDbLine
 10
383.621
 20
145.194
 11
383.621
 21
144.194
  0
LINE
  5
4AA
100
AcDbEntity
  8
0
  6
ByLayer
 62
    0
370
   -1
100
AcDbLine
 10
383.621
 20
144.194
 11
382.82
 21
144.194
  0
LINE
  5
4AB
100
AcDbEntity
  8
0
  6
ByLayer
 62
    0
370
   -1
100
AcDbLine
 10
382.82
 20
144.194
 11
382.82
 21
141.095
  0
LINE
  5
4AC
100
AcDbEntity
  8
0
  6
ByLayer
 62
    0
370
   -1
100
AcDbLine
 10
382.82
 20
141.095
 11
383.621
 21
141.095
  0
LINE
  5
4AD
100
AcDbEntity
  8
0
  6
ByLayer
 62
    0
370
   -1
100
AcDbLine
 10
383.621
 20
141.095
 11
383.621
 21
135.295
  0
LINE
  5
4AE
100
AcDbEntity
  8
0
  6
ByLayer
 62
    0
370
   -1
100
AcDbLine
 10
383.621
 20
135.295
 11
382.82
 21
135.295
  0
LINE
  5
4AF
100
AcDbEntity
  8
0
  6
ByLayer
 62
    0
370
   -1
100
AcDbLine
 10
382.82
 20
135.295
 11
382.82
 21
132.194
  0
LINE
  5
4B0
100
AcDbEntity
  8
0
  6
ByLayer
 62
    0
370
   -1
100
AcDbLine
 10
382.82
 20
132.194
 11
383.621
 21
132.194
  0
LINE
  5
4B1
100
AcDbEntity
  8
0
  6
ByLayer
 62
    0
370
   -1
100
AcDbLine
 10
383.621
 20
132.194
 11
383.621
 21
131.195
  0
LINE
  5
4B2
100
AcDbEntity
  8
0
  6
ByLayer
 62
    0
370
   -1
100
AcDbLine
 10
383.621
 20
131.195
 11
397.619
 21
131.195
  0
LINE
  5
4B3
100
AcDbEntity
  8
0
  6
ByLayer
 62
    0
370
   -1
100
AcDbLine
 10
397.619
 20
131.195
 11
397.619
 21
132.194
  0
LINE
  5
4B4
100
AcDbEntity
  8
0
  6
ByLayer
 62
    0
370
   -1
100
AcDbLine
 10
397.619
 20
132.194
 11
398.42
 21
132.194
  0
LINE
  5
4B5
100
AcDbEntity
  8
0
  6
ByLayer
 62
    0
370
   -1
100
AcDbLine
 10
398.42
 20
132.194
 11
398.42
 21
135.295
  0
LINE
  5
4B6
100
AcDbEntity
  8
0
  6
ByLayer
 62
    0
370
   -1
100
AcDbLine
 10
398.42
 20
135.295
 11
397.619
 21
135.295
  0
LINE
  5
4B7
100
AcDbEntity
  8
0
  6
ByLayer
 62
    0
370
   -1
100
AcDbLine
 10
397.619
 20
135.295
 11
397.619
 21
141.095
  0
LINE
  5
4B8
100
AcDbEntity
  8
0
  6
ByLayer
 62
    0
370
   -1
100
AcDbLine
 10
397.619
 20
141.095
 11
398.42
 21
141.095
  0
LINE
  5
4B9
100
AcDbEntity
  8
0
  6
ByLayer
 62
    0
370
   -1
100
AcDbLine
 10
398.42
 20
141.095
 11
398.42
 21
144.194
  0
LINE
  5
4BA
100
AcDbEntity
  8
0
  6
ByLayer
 62
    0
370
   -1
100
AcDbLine
 10
398.42
 20
144.194
 11
397.619
 21
144.194
  0
LINE
  5
4BB
100
AcDbEntity
  8
0
  6
ByLayer
 62
    0
370
   -1
100
AcDbLine
 10
397.619
 20
144.194
 11
397.619
 21
145.194
  0
LINE
  5
4BC
100
AcDbEntity
  8
0
  6
ByLayer
 62
    0
370
   -1
100
AcDbLine
 10
397.619
 20
145.194
 11
383.621
 21
145.194
  0
ENDSEC
  0
SECTION
  2
OBJECTS
  0
DICTIONARY
  5
C
330
0
100
AcDbDictionary
281
    1
  3
ACAD_GROUP
350
D
  0
DICTIONARY
  5
D
330
C
100
AcDbDictionary
281
    1
  0
PLOTSETTINGS
  5
4BD
100
AcDbPlotSettings
  6
1x1
 40
0
 41
0
 42
0
 43
0
  0
ENDSEC
  0
EOF
