M48
; DRILL file {KiCad 7.0.9} date Wed Dec 20 03:59:56 2023
; FORMAT={-:-/ absolute / inch / decimal}
; #@! TF.CreationDate,2023-12-20T03:59:56-06:00
; #@! TF.GenerationSoftware,Kicad,Pcbnew,7.0.9
; #@! TF.FileFunction,Plated,1,2,PTH
FMAT,2
INCH
; #@! TA.AperFunction,Plated,PTH,ViaDrill
T1C0.0157
; #@! TA.AperFunction,Plated,PTH,ComponentDrill
T2C0.0276
; #@! TA.AperFunction,Plated,PTH,ComponentDrill
T3C0.0354
; #@! TA.AperFunction,Plated,PTH,ComponentDrill
T4C0.0430
%
G90
G05
T1
X2.1217Y-2.163
X2.2417Y-3.7909
X2.7394Y-2.1811
X3.028Y-4.3433
X3.6035Y-2.1413
X4.3303Y-2.1791
X5.1181Y-2.2004
X5.8618Y-2.2535
X6.5957Y-2.0161
X6.5976Y-1.889
X7.0744Y-5.2028
X7.0874Y-4.4374
X7.1909Y-2.8618
X7.2043Y-2.2528
X7.2512Y-2.2
X7.2913Y-2.135
X7.2992Y-1.9756
X7.3035Y-1.8657
X7.3299Y-2.0657
X7.3327Y-1.7724
X7.4142Y-2.8815
X7.4807Y-5.6673
T2
X2.6448Y-2.4666
X2.6448Y-2.7737
X2.6469Y-1.5295
X2.6469Y-1.8366
X2.8331Y-5.4661
X2.8331Y-5.7732
X3.0211Y-3.2165
X3.0211Y-3.5236
X3.2078Y-3.9644
X3.2078Y-4.2715
X3.3961Y-2.4657
X3.3961Y-2.7728
X3.5834Y-4.7152
X3.5834Y-5.0222
X3.7705Y-3.2165
X3.7705Y-3.5236
X3.7719Y-5.4646
X3.7719Y-5.7717
X3.9591Y-3.9638
X3.9591Y-4.2709
X4.1457Y-1.5276
X4.1457Y-1.8346
X4.1465Y-2.4657
X4.1465Y-2.7728
X4.3319Y-4.7138
X4.3319Y-5.0209
X4.5209Y-3.2165
X4.5209Y-3.5236
X4.7088Y-5.4656
X4.7088Y-5.7726
X4.7096Y-3.9654
X4.7096Y-4.2724
X4.8961Y-1.5268
X4.8961Y-1.8339
X4.8969Y-2.4657
X4.8969Y-2.7728
X5.0854Y-4.7138
X5.0854Y-5.0209
X5.2717Y-3.2169
X5.2717Y-3.524
X5.4584Y-3.9632
X5.4584Y-4.2703
X5.6461Y-5.4634
X5.6461Y-5.7705
X5.6472Y-1.5256
X5.6472Y-1.8327
X5.6476Y-2.465
X5.6476Y-2.772
X5.8352Y-4.7152
X5.8352Y-5.0222
X6.0225Y-3.2152
X6.0225Y-3.5222
X6.2082Y-3.9646
X6.2082Y-4.2717
X6.3969Y-2.4642
X6.3969Y-2.7713
X6.3972Y-1.5244
X6.3972Y-1.8315
X6.5844Y-4.7138
X6.5844Y-5.0209
X6.772Y-3.2142
X6.772Y-3.5213
X6.9587Y-3.9646
X6.9587Y-4.2717
X7.1461Y-1.5244
X7.1461Y-1.8315
X7.1476Y-2.4634
X7.1476Y-2.7705
X7.3335Y-4.7146
X7.3335Y-5.0217
X7.5213Y-3.2142
X7.5213Y-3.5213
X7.6068Y-5.4004
X7.8727Y-5.5539
T4
X7.5677Y-1.3417
X7.5677Y-1.4417
X7.5677Y-1.5417
X7.5677Y-1.6417
X7.5677Y-1.7417
X7.5677Y-1.8417
X7.5677Y-1.9417
X7.5677Y-2.0417
X7.5677Y-2.1417
X7.5677Y-2.2417
X7.5677Y-2.3417
X7.5677Y-2.4417
X8.1677Y-1.3417
X8.1677Y-1.4417
X8.1677Y-1.5417
X8.1677Y-1.6417
X8.1677Y-1.7417
X8.1677Y-1.8417
X8.1677Y-1.9417
X8.1677Y-2.0417
X8.1677Y-2.1417
X8.1677Y-2.2417
X8.1677Y-2.3417
X8.1677Y-2.4417
T3
G00X8.4516Y-1.7067
M15
G01X8.4516Y-1.7224
M16
G05
G00X8.6327Y-1.3878
M15
G01X8.6327Y-1.4035
M16
G05
G00X8.6327Y-1.5059
M15
G01X8.6327Y-1.5217
M16
G05
G00X8.6327Y-1.6634
M15
G01X8.6327Y-1.6791
M16
G05
T0
M30
