M48
; DRILL file {KiCad 7.0.9} date Wed Dec 20 03:59:56 2023
; FORMAT={-:-/ absolute / inch / decimal}
; #@! TF.CreationDate,2023-12-20T03:59:56-06:00
; #@! TF.GenerationSoftware,Kicad,Pcbnew,7.0.9
; #@! TF.FileFunction,NonPlated,1,2,NPTH
FMAT,2
INCH
; #@! TA.AperFunction,NonPlated,NPTH,ComponentDrill
T1C0.0315
; #@! TA.AperFunction,NonPlated,NPTH,ComponentDrill
T2C0.0689
; #@! TA.AperFunction,NonPlated,NPTH,ComponentDrill
T3C0.1181
; #@! TA.AperFunction,NonPlated,NPTH,ComponentDrill
T4C0.1200
; #@! TA.AperFunction,NonPlated,NPTH,ComponentDrill
T5C0.1570
%
G90
G05
T1
X8.5421Y-1.3327
X8.5421Y-1.6083
T2
X2.0877Y-1.6826
X2.0877Y-2.6201
X2.1814Y-5.6201
X2.2752Y-3.3701
X2.3689Y-4.1201
X2.4877Y-1.6826
X2.4877Y-2.6201
X2.5564Y-4.8701
X2.5814Y-5.6201
X2.6752Y-3.3701
X2.7689Y-4.1201
X2.8377Y-2.6201
X2.9564Y-4.8701
X3.1189Y-5.6201
X3.2127Y-3.3701
X3.2377Y-2.6201
X3.4002Y-4.1201
X3.5189Y-5.6201
X3.5877Y-1.6826
X3.5877Y-2.6201
X3.6127Y-3.3701
X3.7752Y-4.8701
X3.8002Y-4.1201
X3.9627Y-3.3701
X3.9877Y-1.6826
X3.9877Y-2.6201
X4.0564Y-5.6201
X4.1502Y-4.1201
X4.1752Y-4.8701
X4.3377Y-1.6826
X4.3377Y-2.6201
X4.3627Y-3.3701
X4.4564Y-5.6201
X4.5252Y-4.8701
X4.5502Y-4.1201
X4.7127Y-3.3701
X4.7377Y-1.6826
X4.7377Y-2.6201
X4.9002Y-4.1201
X4.9252Y-4.8701
X4.9939Y-5.6201
X5.0877Y-1.6826
X5.0877Y-2.6201
X5.1127Y-3.3701
X5.2752Y-4.8701
X5.3002Y-4.1201
X5.3939Y-5.6201
X5.4627Y-3.3701
X5.4877Y-1.6826
X5.4877Y-2.6201
X5.6502Y-4.1201
X5.6752Y-4.8701
X5.8377Y-1.6826
X5.8377Y-2.6201
X5.8627Y-3.3701
X6.0252Y-4.8701
X6.0502Y-4.1201
X6.2127Y-3.3701
X6.2377Y-1.6826
X6.2377Y-2.6201
X6.4002Y-4.1201
X6.4252Y-4.8701
X6.5877Y-1.6826
X6.5877Y-2.6201
X6.6127Y-3.3701
X6.7752Y-4.8701
X6.8002Y-4.1201
X6.9627Y-3.3701
X6.9877Y-1.6826
X6.9877Y-2.6201
X7.1752Y-4.8701
X7.2154Y-6.3803
X7.3627Y-3.3701
X7.4154Y-6.0339
T3
X2.1377Y-1.5826
X2.1377Y-2.5201
X2.2314Y-5.5201
X2.3252Y-3.2701
X2.3877Y-1.4826
X2.3877Y-2.4201
X2.4189Y-4.0201
X2.4814Y-5.4201
X2.5752Y-3.1701
X2.6064Y-4.7701
X2.6689Y-3.9201
X2.8564Y-4.6701
X2.8877Y-2.5201
X3.1377Y-2.4201
X3.1689Y-5.5201
X3.2627Y-3.2701
X3.4189Y-5.4201
X3.4502Y-4.0201
X3.5127Y-3.1701
X3.6377Y-1.5826
X3.6377Y-2.5201
X3.7002Y-3.9201
X3.8252Y-4.7701
X3.8877Y-1.4826
X3.8877Y-2.4201
X4.0127Y-3.2701
X4.0752Y-4.6701
X4.1064Y-5.5201
X4.2002Y-4.0201
X4.2627Y-3.1701
X4.3564Y-5.4201
X4.3877Y-1.5826
X4.3877Y-2.5201
X4.4502Y-3.9201
X4.5752Y-4.7701
X4.6377Y-1.4826
X4.6377Y-2.4201
X4.7627Y-3.2701
X4.8252Y-4.6701
X4.9502Y-4.0201
X5.0127Y-3.1701
X5.0439Y-5.5201
X5.1377Y-1.5826
X5.1377Y-2.5201
X5.2002Y-3.9201
X5.2939Y-5.4201
X5.3252Y-4.7701
X5.3877Y-1.4826
X5.3877Y-2.4201
X5.5127Y-3.2701
X5.5752Y-4.6701
X5.7002Y-4.0201
X5.7627Y-3.1701
X5.8877Y-1.5826
X5.8877Y-2.5201
X5.9502Y-3.9201
X6.0752Y-4.7701
X6.1377Y-1.4826
X6.1377Y-2.4201
X6.2627Y-3.2701
X6.3252Y-4.6701
X6.4502Y-4.0201
X6.5127Y-3.1701
X6.6377Y-1.5826
X6.6377Y-2.5201
X6.7002Y-3.9201
X6.8252Y-4.7701
X6.8877Y-1.4826
X6.8877Y-2.4201
X7.0127Y-3.2701
X7.0752Y-4.6701
X7.2627Y-3.1701
X7.4386Y-6.3937
X7.477Y-6.1272
T4
X2.2864Y-4.5951
X3.2264Y-4.5951
X7.3186Y-6.7517
X7.7886Y-5.9376
T5
X2.2864Y-5.1951
X2.2877Y-1.6826
X2.2877Y-2.6201
X2.3814Y-5.6201
X2.4752Y-3.3701
X2.5689Y-4.1201
X2.7564Y-4.8701
X3.0377Y-2.6201
X3.2264Y-5.1951
X3.3189Y-5.6201
X3.4127Y-3.3701
X3.6002Y-4.1201
X3.7877Y-1.6826
X3.7877Y-2.6201
X3.9752Y-4.8701
X4.1627Y-3.3701
X4.2564Y-5.6201
X4.3502Y-4.1201
X4.5377Y-1.6826
X4.5377Y-2.6201
X4.7252Y-4.8701
X4.9127Y-3.3701
X5.1002Y-4.1201
X5.1939Y-5.6201
X5.2877Y-1.6826
X5.2877Y-2.6201
X5.4752Y-4.8701
X5.6627Y-3.3701
X5.8502Y-4.1201
X6.0377Y-1.6826
X6.0377Y-2.6201
X6.2252Y-4.8701
X6.4127Y-3.3701
X6.6002Y-4.1201
X6.7877Y-1.6826
X6.7877Y-2.6201
X6.799Y-6.4517
X6.9752Y-4.8701
X7.1627Y-3.3701
X7.269Y-5.6376
X7.3154Y-6.2071
T0
M30
