G04 #@! TF.GenerationSoftware,KiCad,Pcbnew,7.0.9*
G04 #@! TF.CreationDate,2023-12-20T02:37:33-06:00*
G04 #@! TF.ProjectId,keyboard,6b657962-6f61-4726-942e-6b696361645f,rev?*
G04 #@! TF.SameCoordinates,Original*
G04 #@! TF.FileFunction,Paste,Bot*
G04 #@! TF.FilePolarity,Positive*
%FSLAX46Y46*%
G04 Gerber Fmt 4.6, Leading zero omitted, Abs format (unit mm)*
G04 Created by KiCad (PCBNEW 7.0.9) date 2023-12-20 02:37:33*
%MOMM*%
%LPD*%
G01*
G04 APERTURE LIST*
G04 Aperture macros list*
%AMRoundRect*
0 Rectangle with rounded corners*
0 $1 Rounding radius*
0 $2 $3 $4 $5 $6 $7 $8 $9 X,Y pos of 4 corners*
0 Add a 4 corners polygon primitive as box body*
4,1,4,$2,$3,$4,$5,$6,$7,$8,$9,$2,$3,0*
0 Add four circle primitives for the rounded corners*
1,1,$1+$1,$2,$3*
1,1,$1+$1,$4,$5*
1,1,$1+$1,$6,$7*
1,1,$1+$1,$8,$9*
0 Add four rect primitives between the rounded corners*
20,1,$1+$1,$2,$3,$4,$5,0*
20,1,$1+$1,$4,$5,$6,$7,0*
20,1,$1+$1,$6,$7,$8,$9,0*
20,1,$1+$1,$8,$9,$2,$3,0*%
%AMRotRect*
0 Rectangle, with rotation*
0 The origin of the aperture is its center*
0 $1 length*
0 $2 width*
0 $3 Rotation angle, in degrees counterclockwise*
0 Add horizontal line*
21,1,$1,$2,0,0,$3*%
G04 Aperture macros list end*
%ADD10R,2.550000X2.500000*%
%ADD11RotRect,2.550000X2.500000X240.000000*%
%ADD12R,1.200000X1.200000*%
%ADD13RoundRect,0.250000X0.450000X-0.350000X0.450000X0.350000X-0.450000X0.350000X-0.450000X-0.350000X0*%
%ADD14RotRect,1.200000X1.200000X150.000000*%
G04 APERTURE END LIST*
D10*
X112934571Y-121160000D03*
X125861571Y-118620000D03*
X174847071Y-83060000D03*
X187774071Y-80520000D03*
X141509571Y-102110000D03*
X154436571Y-99570000D03*
X58165821Y-102110000D03*
X71092821Y-99570000D03*
X165322071Y-40197500D03*
X178249071Y-37657500D03*
X51022071Y-40197500D03*
X63949071Y-37657500D03*
X170084571Y-121160000D03*
X183011571Y-118620000D03*
X117697071Y-83060000D03*
X130624071Y-80520000D03*
X155797071Y-83060000D03*
X168724071Y-80520000D03*
D11*
X191554165Y-152795321D03*
X187290369Y-165260431D03*
D10*
X55784571Y-83060000D03*
X68711571Y-80520000D03*
X122459571Y-102110000D03*
X135386571Y-99570000D03*
X89122071Y-64010000D03*
X102049071Y-61470000D03*
X165322071Y-64010000D03*
X178249071Y-61470000D03*
X146272071Y-40197500D03*
X159199071Y-37657500D03*
X160559571Y-102110000D03*
X173486571Y-99570000D03*
X89122071Y-40197500D03*
X102049071Y-37657500D03*
X103409571Y-102110000D03*
X116336571Y-99570000D03*
X62928321Y-121160000D03*
X75855321Y-118620000D03*
X136747071Y-83060000D03*
X149674071Y-80520000D03*
X101028321Y-140210000D03*
X113955321Y-137670000D03*
X127222071Y-40197500D03*
X140149071Y-37657500D03*
X84359571Y-102110000D03*
X97286571Y-99570000D03*
X98647071Y-83060000D03*
X111574071Y-80520000D03*
X131984571Y-121160000D03*
X144911571Y-118620000D03*
X51022071Y-64010000D03*
X63949071Y-61470000D03*
X127222071Y-64010000D03*
X140149071Y-61470000D03*
X77215821Y-140210000D03*
X90142821Y-137670000D03*
X79597071Y-83060000D03*
X92524071Y-80520000D03*
X124840821Y-140210000D03*
X137767821Y-137670000D03*
X151034571Y-121160000D03*
X163961571Y-118620000D03*
X53403321Y-140210000D03*
X66330321Y-137670000D03*
X146272071Y-64010000D03*
X159199071Y-61470000D03*
X93884571Y-121160000D03*
X106811571Y-118620000D03*
X108172071Y-40197500D03*
X121099071Y-37657500D03*
X108172071Y-64010000D03*
X121099071Y-61470000D03*
X70072071Y-64010000D03*
X82999071Y-61470000D03*
D12*
X157687500Y-106175000D03*
X157687500Y-103025000D03*
X162490000Y-44195000D03*
X162490000Y-41045000D03*
X105320000Y-68104998D03*
X105320000Y-64954998D03*
X95805000Y-144275000D03*
X95805000Y-141125000D03*
X91017500Y-125240000D03*
X91017500Y-122090000D03*
X143440000Y-44225000D03*
X143440000Y-41075000D03*
X81477500Y-106170000D03*
X81477500Y-103020000D03*
X181550000Y-68045000D03*
X181550000Y-64895000D03*
X110030000Y-125205000D03*
X110030000Y-122055000D03*
D13*
X76900000Y-105680000D03*
X76900000Y-103680000D03*
D12*
X143410000Y-144245000D03*
X143410000Y-141095000D03*
X67230000Y-44325000D03*
X67230000Y-41175000D03*
X67177500Y-68127500D03*
X67177500Y-64977500D03*
X129170000Y-125205000D03*
X129170000Y-122055000D03*
X191040000Y-87115000D03*
X191040000Y-83965000D03*
X119625000Y-106195000D03*
X119625000Y-103045000D03*
X119602500Y-144300000D03*
X119602500Y-141150000D03*
X100560000Y-106155000D03*
X100560000Y-103005000D03*
X124360000Y-44255000D03*
X124360000Y-41105000D03*
X133900000Y-87185000D03*
X133900000Y-84035000D03*
D14*
X197953990Y-139907500D03*
X195226010Y-138332500D03*
D12*
X162480000Y-68065000D03*
X162480000Y-64915000D03*
X172010000Y-87115000D03*
X172010000Y-83965000D03*
X105300000Y-44275000D03*
X105300000Y-41125000D03*
X95770000Y-87175000D03*
X95770000Y-84025000D03*
X148215000Y-125240000D03*
X148215000Y-122090000D03*
X71960000Y-144315000D03*
X71960000Y-141165000D03*
X138642500Y-106140000D03*
X138642500Y-102990000D03*
X76735000Y-87175000D03*
X76735000Y-84025000D03*
X176750000Y-106175000D03*
X176750000Y-103025000D03*
X167242500Y-125205000D03*
X167242500Y-122055000D03*
X124380000Y-68105000D03*
X124380000Y-64955000D03*
X114830000Y-87175000D03*
X114830000Y-84025000D03*
X152972500Y-87140000D03*
X152972500Y-83990000D03*
X143450000Y-68085000D03*
X143450000Y-64935000D03*
X181510000Y-44195000D03*
X181510000Y-41045000D03*
X186270000Y-125225000D03*
X186270000Y-122075000D03*
X86260000Y-68105000D03*
X86260000Y-64955000D03*
M02*
