G04 #@! TF.GenerationSoftware,KiCad,Pcbnew,7.0.9*
G04 #@! TF.CreationDate,2023-12-20T02:37:33-06:00*
G04 #@! TF.ProjectId,keyboard,6b657962-6f61-4726-942e-6b696361645f,rev?*
G04 #@! TF.SameCoordinates,Original*
G04 #@! TF.FileFunction,Legend,Bot*
G04 #@! TF.FilePolarity,Positive*
%FSLAX46Y46*%
G04 Gerber Fmt 4.6, Leading zero omitted, Abs format (unit mm)*
G04 Created by KiCad (PCBNEW 7.0.9) date 2023-12-20 02:37:33*
%MOMM*%
%LPD*%
G01*
G04 APERTURE LIST*
G04 Aperture macros list*
%AMRotRect*
0 Rectangle, with rotation*
0 The origin of the aperture is its center*
0 $1 length*
0 $2 width*
0 $3 Rotation angle, in degrees counterclockwise*
0 Add horizontal line*
21,1,$1,$2,0,0,$3*%
G04 Aperture macros list end*
%ADD10C,0.150000*%
%ADD11C,0.200000*%
%ADD12C,0.120000*%
%ADD13R,1.752600X1.752600*%
%ADD14C,1.752600*%
%ADD15R,1.600000X1.600000*%
%ADD16C,1.600000*%
%ADD17RotRect,1.600000X1.600000X150.000000*%
G04 APERTURE END LIST*
D10*
X121614808Y-127202819D02*
X121614808Y-126202819D01*
X121043380Y-127202819D02*
X121471951Y-126631390D01*
X121043380Y-126202819D02*
X121614808Y-126774247D01*
X120852904Y-127298057D02*
X120090999Y-127298057D01*
X119948141Y-126202819D02*
X119281475Y-127202819D01*
X119281475Y-126202819D02*
X119948141Y-127202819D01*
X118376713Y-127202819D02*
X118948141Y-127202819D01*
X118662427Y-127202819D02*
X118662427Y-126202819D01*
X118662427Y-126202819D02*
X118757665Y-126345676D01*
X118757665Y-126345676D02*
X118852903Y-126440914D01*
X118852903Y-126440914D02*
X118948141Y-126488533D01*
X183479689Y-89102819D02*
X183479689Y-88102819D01*
X182908261Y-89102819D02*
X183336832Y-88531390D01*
X182908261Y-88102819D02*
X183479689Y-88674247D01*
X182717785Y-89198057D02*
X181955880Y-89198057D01*
X181527308Y-88626628D02*
X181527308Y-89102819D01*
X181860641Y-88102819D02*
X181527308Y-88626628D01*
X181527308Y-88626628D02*
X181193975Y-88102819D01*
X180336832Y-89102819D02*
X180908260Y-89102819D01*
X180622546Y-89102819D02*
X180622546Y-88102819D01*
X180622546Y-88102819D02*
X180717784Y-88245676D01*
X180717784Y-88245676D02*
X180813022Y-88340914D01*
X180813022Y-88340914D02*
X180908260Y-88388533D01*
X150142189Y-108152819D02*
X150142189Y-107152819D01*
X149570761Y-108152819D02*
X149999332Y-107581390D01*
X149570761Y-107152819D02*
X150142189Y-107724247D01*
X149380285Y-108248057D02*
X148618380Y-108248057D01*
X148046951Y-107629009D02*
X148380284Y-107629009D01*
X148380284Y-108152819D02*
X148380284Y-107152819D01*
X148380284Y-107152819D02*
X147904094Y-107152819D01*
X147094570Y-107152819D02*
X147285046Y-107152819D01*
X147285046Y-107152819D02*
X147380284Y-107200438D01*
X147380284Y-107200438D02*
X147427903Y-107248057D01*
X147427903Y-107248057D02*
X147523141Y-107390914D01*
X147523141Y-107390914D02*
X147570760Y-107581390D01*
X147570760Y-107581390D02*
X147570760Y-107962342D01*
X147570760Y-107962342D02*
X147523141Y-108057580D01*
X147523141Y-108057580D02*
X147475522Y-108105200D01*
X147475522Y-108105200D02*
X147380284Y-108152819D01*
X147380284Y-108152819D02*
X147189808Y-108152819D01*
X147189808Y-108152819D02*
X147094570Y-108105200D01*
X147094570Y-108105200D02*
X147046951Y-108057580D01*
X147046951Y-108057580D02*
X146999332Y-107962342D01*
X146999332Y-107962342D02*
X146999332Y-107724247D01*
X146999332Y-107724247D02*
X147046951Y-107629009D01*
X147046951Y-107629009D02*
X147094570Y-107581390D01*
X147094570Y-107581390D02*
X147189808Y-107533771D01*
X147189808Y-107533771D02*
X147380284Y-107533771D01*
X147380284Y-107533771D02*
X147475522Y-107581390D01*
X147475522Y-107581390D02*
X147523141Y-107629009D01*
X147523141Y-107629009D02*
X147570760Y-107724247D01*
X68274630Y-108152819D02*
X68274630Y-107152819D01*
X67703202Y-108152819D02*
X68131773Y-107581390D01*
X67703202Y-107152819D02*
X68274630Y-107724247D01*
X67512726Y-108248057D02*
X66750821Y-108248057D01*
X65941297Y-108057580D02*
X65988916Y-108105200D01*
X65988916Y-108105200D02*
X66131773Y-108152819D01*
X66131773Y-108152819D02*
X66227011Y-108152819D01*
X66227011Y-108152819D02*
X66369868Y-108105200D01*
X66369868Y-108105200D02*
X66465106Y-108009961D01*
X66465106Y-108009961D02*
X66512725Y-107914723D01*
X66512725Y-107914723D02*
X66560344Y-107724247D01*
X66560344Y-107724247D02*
X66560344Y-107581390D01*
X66560344Y-107581390D02*
X66512725Y-107390914D01*
X66512725Y-107390914D02*
X66465106Y-107295676D01*
X66465106Y-107295676D02*
X66369868Y-107200438D01*
X66369868Y-107200438D02*
X66227011Y-107152819D01*
X66227011Y-107152819D02*
X66131773Y-107152819D01*
X66131773Y-107152819D02*
X65988916Y-107200438D01*
X65988916Y-107200438D02*
X65941297Y-107248057D01*
X65560344Y-107867104D02*
X65084154Y-107867104D01*
X65655582Y-108152819D02*
X65322249Y-107152819D01*
X65322249Y-107152819D02*
X64988916Y-108152819D01*
X64655582Y-108152819D02*
X64655582Y-107152819D01*
X64655582Y-107152819D02*
X64274630Y-107152819D01*
X64274630Y-107152819D02*
X64179392Y-107200438D01*
X64179392Y-107200438D02*
X64131773Y-107248057D01*
X64131773Y-107248057D02*
X64084154Y-107343295D01*
X64084154Y-107343295D02*
X64084154Y-107486152D01*
X64084154Y-107486152D02*
X64131773Y-107581390D01*
X64131773Y-107581390D02*
X64179392Y-107629009D01*
X64179392Y-107629009D02*
X64274630Y-107676628D01*
X64274630Y-107676628D02*
X64655582Y-107676628D01*
X63703201Y-108105200D02*
X63560344Y-108152819D01*
X63560344Y-108152819D02*
X63322249Y-108152819D01*
X63322249Y-108152819D02*
X63227011Y-108105200D01*
X63227011Y-108105200D02*
X63179392Y-108057580D01*
X63179392Y-108057580D02*
X63131773Y-107962342D01*
X63131773Y-107962342D02*
X63131773Y-107867104D01*
X63131773Y-107867104D02*
X63179392Y-107771866D01*
X63179392Y-107771866D02*
X63227011Y-107724247D01*
X63227011Y-107724247D02*
X63322249Y-107676628D01*
X63322249Y-107676628D02*
X63512725Y-107629009D01*
X63512725Y-107629009D02*
X63607963Y-107581390D01*
X63607963Y-107581390D02*
X63655582Y-107533771D01*
X63655582Y-107533771D02*
X63703201Y-107438533D01*
X63703201Y-107438533D02*
X63703201Y-107343295D01*
X63703201Y-107343295D02*
X63655582Y-107248057D01*
X63655582Y-107248057D02*
X63607963Y-107200438D01*
X63607963Y-107200438D02*
X63512725Y-107152819D01*
X63512725Y-107152819D02*
X63274630Y-107152819D01*
X63274630Y-107152819D02*
X63131773Y-107200438D01*
X62179392Y-108152819D02*
X62750820Y-108152819D01*
X62465106Y-108152819D02*
X62465106Y-107152819D01*
X62465106Y-107152819D02*
X62560344Y-107295676D01*
X62560344Y-107295676D02*
X62655582Y-107390914D01*
X62655582Y-107390914D02*
X62750820Y-107438533D01*
X173954689Y-46240319D02*
X173954689Y-45240319D01*
X173383261Y-46240319D02*
X173811832Y-45668890D01*
X173383261Y-45240319D02*
X173954689Y-45811747D01*
X173192785Y-46335557D02*
X172430880Y-46335557D01*
X171859451Y-45716509D02*
X172192784Y-45716509D01*
X172192784Y-46240319D02*
X172192784Y-45240319D01*
X172192784Y-45240319D02*
X171716594Y-45240319D01*
X170859451Y-45240319D02*
X171335641Y-45240319D01*
X171335641Y-45240319D02*
X171383260Y-45716509D01*
X171383260Y-45716509D02*
X171335641Y-45668890D01*
X171335641Y-45668890D02*
X171240403Y-45621271D01*
X171240403Y-45621271D02*
X171002308Y-45621271D01*
X171002308Y-45621271D02*
X170907070Y-45668890D01*
X170907070Y-45668890D02*
X170859451Y-45716509D01*
X170859451Y-45716509D02*
X170811832Y-45811747D01*
X170811832Y-45811747D02*
X170811832Y-46049842D01*
X170811832Y-46049842D02*
X170859451Y-46145080D01*
X170859451Y-46145080D02*
X170907070Y-46192700D01*
X170907070Y-46192700D02*
X171002308Y-46240319D01*
X171002308Y-46240319D02*
X171240403Y-46240319D01*
X171240403Y-46240319D02*
X171335641Y-46192700D01*
X171335641Y-46192700D02*
X171383260Y-46145080D01*
X60654689Y-46240319D02*
X60654689Y-45240319D01*
X60083261Y-46240319D02*
X60511832Y-45668890D01*
X60083261Y-45240319D02*
X60654689Y-45811747D01*
X59892785Y-46335557D02*
X59130880Y-46335557D01*
X58892784Y-45716509D02*
X58559451Y-45716509D01*
X58416594Y-46240319D02*
X58892784Y-46240319D01*
X58892784Y-46240319D02*
X58892784Y-45240319D01*
X58892784Y-45240319D02*
X58416594Y-45240319D01*
X58035641Y-46192700D02*
X57892784Y-46240319D01*
X57892784Y-46240319D02*
X57654689Y-46240319D01*
X57654689Y-46240319D02*
X57559451Y-46192700D01*
X57559451Y-46192700D02*
X57511832Y-46145080D01*
X57511832Y-46145080D02*
X57464213Y-46049842D01*
X57464213Y-46049842D02*
X57464213Y-45954604D01*
X57464213Y-45954604D02*
X57511832Y-45859366D01*
X57511832Y-45859366D02*
X57559451Y-45811747D01*
X57559451Y-45811747D02*
X57654689Y-45764128D01*
X57654689Y-45764128D02*
X57845165Y-45716509D01*
X57845165Y-45716509D02*
X57940403Y-45668890D01*
X57940403Y-45668890D02*
X57988022Y-45621271D01*
X57988022Y-45621271D02*
X58035641Y-45526033D01*
X58035641Y-45526033D02*
X58035641Y-45430795D01*
X58035641Y-45430795D02*
X57988022Y-45335557D01*
X57988022Y-45335557D02*
X57940403Y-45287938D01*
X57940403Y-45287938D02*
X57845165Y-45240319D01*
X57845165Y-45240319D02*
X57607070Y-45240319D01*
X57607070Y-45240319D02*
X57464213Y-45287938D01*
X56464213Y-46145080D02*
X56511832Y-46192700D01*
X56511832Y-46192700D02*
X56654689Y-46240319D01*
X56654689Y-46240319D02*
X56749927Y-46240319D01*
X56749927Y-46240319D02*
X56892784Y-46192700D01*
X56892784Y-46192700D02*
X56988022Y-46097461D01*
X56988022Y-46097461D02*
X57035641Y-46002223D01*
X57035641Y-46002223D02*
X57083260Y-45811747D01*
X57083260Y-45811747D02*
X57083260Y-45668890D01*
X57083260Y-45668890D02*
X57035641Y-45478414D01*
X57035641Y-45478414D02*
X56988022Y-45383176D01*
X56988022Y-45383176D02*
X56892784Y-45287938D01*
X56892784Y-45287938D02*
X56749927Y-45240319D01*
X56749927Y-45240319D02*
X56654689Y-45240319D01*
X56654689Y-45240319D02*
X56511832Y-45287938D01*
X56511832Y-45287938D02*
X56464213Y-45335557D01*
X55511832Y-46240319D02*
X56083260Y-46240319D01*
X55797546Y-46240319D02*
X55797546Y-45240319D01*
X55797546Y-45240319D02*
X55892784Y-45383176D01*
X55892784Y-45383176D02*
X55988022Y-45478414D01*
X55988022Y-45478414D02*
X56083260Y-45526033D01*
X178788618Y-127202819D02*
X178788618Y-126202819D01*
X178217190Y-127202819D02*
X178645761Y-126631390D01*
X178217190Y-126202819D02*
X178788618Y-126774247D01*
X178026714Y-127298057D02*
X177264809Y-127298057D01*
X176693380Y-126679009D02*
X176550523Y-126726628D01*
X176550523Y-126726628D02*
X176502904Y-126774247D01*
X176502904Y-126774247D02*
X176455285Y-126869485D01*
X176455285Y-126869485D02*
X176455285Y-127012342D01*
X176455285Y-127012342D02*
X176502904Y-127107580D01*
X176502904Y-127107580D02*
X176550523Y-127155200D01*
X176550523Y-127155200D02*
X176645761Y-127202819D01*
X176645761Y-127202819D02*
X177026713Y-127202819D01*
X177026713Y-127202819D02*
X177026713Y-126202819D01*
X177026713Y-126202819D02*
X176693380Y-126202819D01*
X176693380Y-126202819D02*
X176598142Y-126250438D01*
X176598142Y-126250438D02*
X176550523Y-126298057D01*
X176550523Y-126298057D02*
X176502904Y-126393295D01*
X176502904Y-126393295D02*
X176502904Y-126488533D01*
X176502904Y-126488533D02*
X176550523Y-126583771D01*
X176550523Y-126583771D02*
X176598142Y-126631390D01*
X176598142Y-126631390D02*
X176693380Y-126679009D01*
X176693380Y-126679009D02*
X177026713Y-126679009D01*
X175502904Y-127202819D02*
X176074332Y-127202819D01*
X175788618Y-127202819D02*
X175788618Y-126202819D01*
X175788618Y-126202819D02*
X175883856Y-126345676D01*
X175883856Y-126345676D02*
X175979094Y-126440914D01*
X175979094Y-126440914D02*
X176074332Y-126488533D01*
X126353499Y-89102819D02*
X126353499Y-88102819D01*
X125782071Y-89102819D02*
X126210642Y-88531390D01*
X125782071Y-88102819D02*
X126353499Y-88674247D01*
X125591595Y-89198057D02*
X124829690Y-89198057D01*
X124591594Y-88579009D02*
X124258261Y-88579009D01*
X124115404Y-89102819D02*
X124591594Y-89102819D01*
X124591594Y-89102819D02*
X124591594Y-88102819D01*
X124591594Y-88102819D02*
X124115404Y-88102819D01*
X123163023Y-89102819D02*
X123734451Y-89102819D01*
X123448737Y-89102819D02*
X123448737Y-88102819D01*
X123448737Y-88102819D02*
X123543975Y-88245676D01*
X123543975Y-88245676D02*
X123639213Y-88340914D01*
X123639213Y-88340914D02*
X123734451Y-88388533D01*
X164382070Y-89102819D02*
X164382070Y-88102819D01*
X163810642Y-89102819D02*
X164239213Y-88531390D01*
X163810642Y-88102819D02*
X164382070Y-88674247D01*
X163620166Y-89198057D02*
X162858261Y-89198057D01*
X162763022Y-88102819D02*
X162191594Y-88102819D01*
X162477308Y-89102819D02*
X162477308Y-88102819D01*
X161334451Y-89102819D02*
X161905879Y-89102819D01*
X161620165Y-89102819D02*
X161620165Y-88102819D01*
X161620165Y-88102819D02*
X161715403Y-88245676D01*
X161715403Y-88245676D02*
X161810641Y-88340914D01*
X161810641Y-88340914D02*
X161905879Y-88388533D01*
X185304295Y-153354051D02*
X184438269Y-152854051D01*
X185018580Y-153848922D02*
X184737994Y-153192054D01*
X184152555Y-153348922D02*
X184933141Y-153139765D01*
X185005821Y-154061498D02*
X184624869Y-154721327D01*
X184405912Y-154814856D02*
X184375723Y-154962384D01*
X184375723Y-154962384D02*
X184256676Y-155168580D01*
X184256676Y-155168580D02*
X184167817Y-155227249D01*
X184167817Y-155227249D02*
X184102768Y-155244679D01*
X184102768Y-155244679D02*
X183996480Y-155238299D01*
X183996480Y-155238299D02*
X183914002Y-155190680D01*
X183914002Y-155190680D02*
X183855333Y-155101822D01*
X183855333Y-155101822D02*
X183837903Y-155036773D01*
X183837903Y-155036773D02*
X183844283Y-154930485D01*
X183844283Y-154930485D02*
X183898281Y-154741718D01*
X183898281Y-154741718D02*
X183904661Y-154635430D01*
X183904661Y-154635430D02*
X183887231Y-154570381D01*
X183887231Y-154570381D02*
X183828562Y-154481523D01*
X183828562Y-154481523D02*
X183746084Y-154433904D01*
X183746084Y-154433904D02*
X183639795Y-154427524D01*
X183639795Y-154427524D02*
X183574747Y-154444954D01*
X183574747Y-154444954D02*
X183485888Y-154503623D01*
X183485888Y-154503623D02*
X183366841Y-154709819D01*
X183366841Y-154709819D02*
X183336651Y-154857347D01*
X183947152Y-155704691D02*
X183081126Y-155204691D01*
X183081126Y-155204691D02*
X182890650Y-155534606D01*
X182890650Y-155534606D02*
X182884270Y-155640894D01*
X182884270Y-155640894D02*
X182901700Y-155705943D01*
X182901700Y-155705943D02*
X182960369Y-155794801D01*
X182960369Y-155794801D02*
X183084087Y-155866229D01*
X183084087Y-155866229D02*
X183190375Y-155872609D01*
X183190375Y-155872609D02*
X183255424Y-155855179D01*
X183255424Y-155855179D02*
X183344282Y-155796510D01*
X183344282Y-155796510D02*
X183534759Y-155466596D01*
X183223525Y-156386620D02*
X182985430Y-156799013D01*
X183518580Y-156446999D02*
X182485888Y-156235674D01*
X182485888Y-156235674D02*
X183185247Y-157024349D01*
X182650387Y-157760277D02*
X182715436Y-157742847D01*
X182715436Y-157742847D02*
X182828104Y-157642939D01*
X182828104Y-157642939D02*
X182875723Y-157560460D01*
X182875723Y-157560460D02*
X182905912Y-157412933D01*
X182905912Y-157412933D02*
X182871053Y-157282835D01*
X182871053Y-157282835D02*
X182812384Y-157193977D01*
X182812384Y-157193977D02*
X182671236Y-157057499D01*
X182671236Y-157057499D02*
X182547518Y-156986071D01*
X182547518Y-156986071D02*
X182358751Y-156932072D01*
X182358751Y-156932072D02*
X182252463Y-156925692D01*
X182252463Y-156925692D02*
X182122366Y-156960552D01*
X182122366Y-156960552D02*
X182009698Y-157060460D01*
X182009698Y-157060460D02*
X181962079Y-157142939D01*
X181962079Y-157142939D02*
X181931889Y-157290466D01*
X181931889Y-157290466D02*
X181949319Y-157355515D01*
X182064948Y-157917145D02*
X181898281Y-158205820D01*
X182280485Y-158591443D02*
X182518580Y-158179050D01*
X182518580Y-158179050D02*
X181652555Y-157679050D01*
X181652555Y-157679050D02*
X181414460Y-158091443D01*
X181804294Y-159416229D02*
X182090009Y-158921357D01*
X181947152Y-159168793D02*
X181081126Y-158668793D01*
X181081126Y-158668793D02*
X181252463Y-158657743D01*
X181252463Y-158657743D02*
X181382561Y-158622883D01*
X181382561Y-158622883D02*
X181471419Y-158564214D01*
X65298142Y-89102819D02*
X65298142Y-88102819D01*
X64726714Y-89102819D02*
X65155285Y-88531390D01*
X64726714Y-88102819D02*
X65298142Y-88674247D01*
X64536238Y-89198057D02*
X63774333Y-89198057D01*
X63679094Y-88102819D02*
X63107666Y-88102819D01*
X63393380Y-89102819D02*
X63393380Y-88102819D01*
X62821951Y-88817104D02*
X62345761Y-88817104D01*
X62917189Y-89102819D02*
X62583856Y-88102819D01*
X62583856Y-88102819D02*
X62250523Y-89102819D01*
X61583856Y-88579009D02*
X61440999Y-88626628D01*
X61440999Y-88626628D02*
X61393380Y-88674247D01*
X61393380Y-88674247D02*
X61345761Y-88769485D01*
X61345761Y-88769485D02*
X61345761Y-88912342D01*
X61345761Y-88912342D02*
X61393380Y-89007580D01*
X61393380Y-89007580D02*
X61440999Y-89055200D01*
X61440999Y-89055200D02*
X61536237Y-89102819D01*
X61536237Y-89102819D02*
X61917189Y-89102819D01*
X61917189Y-89102819D02*
X61917189Y-88102819D01*
X61917189Y-88102819D02*
X61583856Y-88102819D01*
X61583856Y-88102819D02*
X61488618Y-88150438D01*
X61488618Y-88150438D02*
X61440999Y-88198057D01*
X61440999Y-88198057D02*
X61393380Y-88293295D01*
X61393380Y-88293295D02*
X61393380Y-88388533D01*
X61393380Y-88388533D02*
X61440999Y-88483771D01*
X61440999Y-88483771D02*
X61488618Y-88531390D01*
X61488618Y-88531390D02*
X61583856Y-88579009D01*
X61583856Y-88579009D02*
X61917189Y-88579009D01*
X60393380Y-89102819D02*
X60964808Y-89102819D01*
X60679094Y-89102819D02*
X60679094Y-88102819D01*
X60679094Y-88102819D02*
X60774332Y-88245676D01*
X60774332Y-88245676D02*
X60869570Y-88340914D01*
X60869570Y-88340914D02*
X60964808Y-88388533D01*
X131163618Y-108152819D02*
X131163618Y-107152819D01*
X130592190Y-108152819D02*
X131020761Y-107581390D01*
X130592190Y-107152819D02*
X131163618Y-107724247D01*
X130401714Y-108248057D02*
X129639809Y-108248057D01*
X129401713Y-108152819D02*
X129401713Y-107152819D01*
X129401713Y-107152819D02*
X129163618Y-107152819D01*
X129163618Y-107152819D02*
X129020761Y-107200438D01*
X129020761Y-107200438D02*
X128925523Y-107295676D01*
X128925523Y-107295676D02*
X128877904Y-107390914D01*
X128877904Y-107390914D02*
X128830285Y-107581390D01*
X128830285Y-107581390D02*
X128830285Y-107724247D01*
X128830285Y-107724247D02*
X128877904Y-107914723D01*
X128877904Y-107914723D02*
X128925523Y-108009961D01*
X128925523Y-108009961D02*
X129020761Y-108105200D01*
X129020761Y-108105200D02*
X129163618Y-108152819D01*
X129163618Y-108152819D02*
X129401713Y-108152819D01*
X127877904Y-108152819D02*
X128449332Y-108152819D01*
X128163618Y-108152819D02*
X128163618Y-107152819D01*
X128163618Y-107152819D02*
X128258856Y-107295676D01*
X128258856Y-107295676D02*
X128354094Y-107390914D01*
X128354094Y-107390914D02*
X128449332Y-107438533D01*
X97326118Y-70052819D02*
X97326118Y-69052819D01*
X96754690Y-70052819D02*
X97183261Y-69481390D01*
X96754690Y-69052819D02*
X97326118Y-69624247D01*
X96564214Y-70148057D02*
X95802309Y-70148057D01*
X95611832Y-69148057D02*
X95564213Y-69100438D01*
X95564213Y-69100438D02*
X95468975Y-69052819D01*
X95468975Y-69052819D02*
X95230880Y-69052819D01*
X95230880Y-69052819D02*
X95135642Y-69100438D01*
X95135642Y-69100438D02*
X95088023Y-69148057D01*
X95088023Y-69148057D02*
X95040404Y-69243295D01*
X95040404Y-69243295D02*
X95040404Y-69338533D01*
X95040404Y-69338533D02*
X95088023Y-69481390D01*
X95088023Y-69481390D02*
X95659451Y-70052819D01*
X95659451Y-70052819D02*
X95040404Y-70052819D01*
X173526118Y-70052819D02*
X173526118Y-69052819D01*
X172954690Y-70052819D02*
X173383261Y-69481390D01*
X172954690Y-69052819D02*
X173526118Y-69624247D01*
X172764214Y-70148057D02*
X172002309Y-70148057D01*
X171335642Y-69052819D02*
X171526118Y-69052819D01*
X171526118Y-69052819D02*
X171621356Y-69100438D01*
X171621356Y-69100438D02*
X171668975Y-69148057D01*
X171668975Y-69148057D02*
X171764213Y-69290914D01*
X171764213Y-69290914D02*
X171811832Y-69481390D01*
X171811832Y-69481390D02*
X171811832Y-69862342D01*
X171811832Y-69862342D02*
X171764213Y-69957580D01*
X171764213Y-69957580D02*
X171716594Y-70005200D01*
X171716594Y-70005200D02*
X171621356Y-70052819D01*
X171621356Y-70052819D02*
X171430880Y-70052819D01*
X171430880Y-70052819D02*
X171335642Y-70005200D01*
X171335642Y-70005200D02*
X171288023Y-69957580D01*
X171288023Y-69957580D02*
X171240404Y-69862342D01*
X171240404Y-69862342D02*
X171240404Y-69624247D01*
X171240404Y-69624247D02*
X171288023Y-69529009D01*
X171288023Y-69529009D02*
X171335642Y-69481390D01*
X171335642Y-69481390D02*
X171430880Y-69433771D01*
X171430880Y-69433771D02*
X171621356Y-69433771D01*
X171621356Y-69433771D02*
X171716594Y-69481390D01*
X171716594Y-69481390D02*
X171764213Y-69529009D01*
X171764213Y-69529009D02*
X171811832Y-69624247D01*
X154904689Y-46240319D02*
X154904689Y-45240319D01*
X154333261Y-46240319D02*
X154761832Y-45668890D01*
X154333261Y-45240319D02*
X154904689Y-45811747D01*
X154142785Y-46335557D02*
X153380880Y-46335557D01*
X152809451Y-45716509D02*
X153142784Y-45716509D01*
X153142784Y-46240319D02*
X153142784Y-45240319D01*
X153142784Y-45240319D02*
X152666594Y-45240319D01*
X151857070Y-45573652D02*
X151857070Y-46240319D01*
X152095165Y-45192700D02*
X152333260Y-45906985D01*
X152333260Y-45906985D02*
X151714213Y-45906985D01*
X169263618Y-108152819D02*
X169263618Y-107152819D01*
X168692190Y-108152819D02*
X169120761Y-107581390D01*
X168692190Y-107152819D02*
X169263618Y-107724247D01*
X168501714Y-108248057D02*
X167739809Y-108248057D01*
X166977904Y-107200438D02*
X167073142Y-107152819D01*
X167073142Y-107152819D02*
X167215999Y-107152819D01*
X167215999Y-107152819D02*
X167358856Y-107200438D01*
X167358856Y-107200438D02*
X167454094Y-107295676D01*
X167454094Y-107295676D02*
X167501713Y-107390914D01*
X167501713Y-107390914D02*
X167549332Y-107581390D01*
X167549332Y-107581390D02*
X167549332Y-107724247D01*
X167549332Y-107724247D02*
X167501713Y-107914723D01*
X167501713Y-107914723D02*
X167454094Y-108009961D01*
X167454094Y-108009961D02*
X167358856Y-108105200D01*
X167358856Y-108105200D02*
X167215999Y-108152819D01*
X167215999Y-108152819D02*
X167120761Y-108152819D01*
X167120761Y-108152819D02*
X166977904Y-108105200D01*
X166977904Y-108105200D02*
X166930285Y-108057580D01*
X166930285Y-108057580D02*
X166930285Y-107724247D01*
X166930285Y-107724247D02*
X167120761Y-107724247D01*
X165977904Y-108152819D02*
X166549332Y-108152819D01*
X166263618Y-108152819D02*
X166263618Y-107152819D01*
X166263618Y-107152819D02*
X166358856Y-107295676D01*
X166358856Y-107295676D02*
X166454094Y-107390914D01*
X166454094Y-107390914D02*
X166549332Y-107438533D01*
X97754689Y-46240319D02*
X97754689Y-45240319D01*
X97183261Y-46240319D02*
X97611832Y-45668890D01*
X97183261Y-45240319D02*
X97754689Y-45811747D01*
X96992785Y-46335557D02*
X96230880Y-46335557D01*
X95659451Y-45716509D02*
X95992784Y-45716509D01*
X95992784Y-46240319D02*
X95992784Y-45240319D01*
X95992784Y-45240319D02*
X95516594Y-45240319D01*
X94611832Y-46240319D02*
X95183260Y-46240319D01*
X94897546Y-46240319D02*
X94897546Y-45240319D01*
X94897546Y-45240319D02*
X94992784Y-45383176D01*
X94992784Y-45383176D02*
X95088022Y-45478414D01*
X95088022Y-45478414D02*
X95183260Y-45526033D01*
X112089808Y-108152819D02*
X112089808Y-107152819D01*
X111518380Y-108152819D02*
X111946951Y-107581390D01*
X111518380Y-107152819D02*
X112089808Y-107724247D01*
X111327904Y-108248057D02*
X110565999Y-108248057D01*
X110375522Y-108105200D02*
X110232665Y-108152819D01*
X110232665Y-108152819D02*
X109994570Y-108152819D01*
X109994570Y-108152819D02*
X109899332Y-108105200D01*
X109899332Y-108105200D02*
X109851713Y-108057580D01*
X109851713Y-108057580D02*
X109804094Y-107962342D01*
X109804094Y-107962342D02*
X109804094Y-107867104D01*
X109804094Y-107867104D02*
X109851713Y-107771866D01*
X109851713Y-107771866D02*
X109899332Y-107724247D01*
X109899332Y-107724247D02*
X109994570Y-107676628D01*
X109994570Y-107676628D02*
X110185046Y-107629009D01*
X110185046Y-107629009D02*
X110280284Y-107581390D01*
X110280284Y-107581390D02*
X110327903Y-107533771D01*
X110327903Y-107533771D02*
X110375522Y-107438533D01*
X110375522Y-107438533D02*
X110375522Y-107343295D01*
X110375522Y-107343295D02*
X110327903Y-107248057D01*
X110327903Y-107248057D02*
X110280284Y-107200438D01*
X110280284Y-107200438D02*
X110185046Y-107152819D01*
X110185046Y-107152819D02*
X109946951Y-107152819D01*
X109946951Y-107152819D02*
X109804094Y-107200438D01*
X108851713Y-108152819D02*
X109423141Y-108152819D01*
X109137427Y-108152819D02*
X109137427Y-107152819D01*
X109137427Y-107152819D02*
X109232665Y-107295676D01*
X109232665Y-107295676D02*
X109327903Y-107390914D01*
X109327903Y-107390914D02*
X109423141Y-107438533D01*
X73179987Y-127202819D02*
X73179987Y-126202819D01*
X72608559Y-127202819D02*
X73037130Y-126631390D01*
X72608559Y-126202819D02*
X73179987Y-126774247D01*
X72418083Y-127298057D02*
X71656178Y-127298057D01*
X71465701Y-127155200D02*
X71322844Y-127202819D01*
X71322844Y-127202819D02*
X71084749Y-127202819D01*
X71084749Y-127202819D02*
X70989511Y-127155200D01*
X70989511Y-127155200D02*
X70941892Y-127107580D01*
X70941892Y-127107580D02*
X70894273Y-127012342D01*
X70894273Y-127012342D02*
X70894273Y-126917104D01*
X70894273Y-126917104D02*
X70941892Y-126821866D01*
X70941892Y-126821866D02*
X70989511Y-126774247D01*
X70989511Y-126774247D02*
X71084749Y-126726628D01*
X71084749Y-126726628D02*
X71275225Y-126679009D01*
X71275225Y-126679009D02*
X71370463Y-126631390D01*
X71370463Y-126631390D02*
X71418082Y-126583771D01*
X71418082Y-126583771D02*
X71465701Y-126488533D01*
X71465701Y-126488533D02*
X71465701Y-126393295D01*
X71465701Y-126393295D02*
X71418082Y-126298057D01*
X71418082Y-126298057D02*
X71370463Y-126250438D01*
X71370463Y-126250438D02*
X71275225Y-126202819D01*
X71275225Y-126202819D02*
X71037130Y-126202819D01*
X71037130Y-126202819D02*
X70894273Y-126250438D01*
X70465701Y-127202819D02*
X70465701Y-126202819D01*
X70465701Y-126679009D02*
X69894273Y-126679009D01*
X69894273Y-127202819D02*
X69894273Y-126202819D01*
X69418082Y-127202819D02*
X69418082Y-126202819D01*
X68608559Y-126679009D02*
X68941892Y-126679009D01*
X68941892Y-127202819D02*
X68941892Y-126202819D01*
X68941892Y-126202819D02*
X68465702Y-126202819D01*
X68227606Y-126202819D02*
X67656178Y-126202819D01*
X67941892Y-127202819D02*
X67941892Y-126202819D01*
X66799035Y-127202819D02*
X67370463Y-127202819D01*
X67084749Y-127202819D02*
X67084749Y-126202819D01*
X67084749Y-126202819D02*
X67179987Y-126345676D01*
X67179987Y-126345676D02*
X67275225Y-126440914D01*
X67275225Y-126440914D02*
X67370463Y-126488533D01*
X145451118Y-89102819D02*
X145451118Y-88102819D01*
X144879690Y-89102819D02*
X145308261Y-88531390D01*
X144879690Y-88102819D02*
X145451118Y-88674247D01*
X144689214Y-89198057D02*
X143927309Y-89198057D01*
X143117785Y-89102819D02*
X143451118Y-88626628D01*
X143689213Y-89102819D02*
X143689213Y-88102819D01*
X143689213Y-88102819D02*
X143308261Y-88102819D01*
X143308261Y-88102819D02*
X143213023Y-88150438D01*
X143213023Y-88150438D02*
X143165404Y-88198057D01*
X143165404Y-88198057D02*
X143117785Y-88293295D01*
X143117785Y-88293295D02*
X143117785Y-88436152D01*
X143117785Y-88436152D02*
X143165404Y-88531390D01*
X143165404Y-88531390D02*
X143213023Y-88579009D01*
X143213023Y-88579009D02*
X143308261Y-88626628D01*
X143308261Y-88626628D02*
X143689213Y-88626628D01*
X142165404Y-89102819D02*
X142736832Y-89102819D01*
X142451118Y-89102819D02*
X142451118Y-88102819D01*
X142451118Y-88102819D02*
X142546356Y-88245676D01*
X142546356Y-88245676D02*
X142641594Y-88340914D01*
X142641594Y-88340914D02*
X142736832Y-88388533D01*
X110446654Y-146252819D02*
X110446654Y-145252819D01*
X109875226Y-146252819D02*
X110303797Y-145681390D01*
X109875226Y-145252819D02*
X110446654Y-145824247D01*
X109684750Y-146348057D02*
X108922845Y-146348057D01*
X108732368Y-145967104D02*
X108256178Y-145967104D01*
X108827606Y-146252819D02*
X108494273Y-145252819D01*
X108494273Y-145252819D02*
X108160940Y-146252819D01*
X107351416Y-146252819D02*
X107827606Y-146252819D01*
X107827606Y-146252819D02*
X107827606Y-145252819D01*
X107160939Y-145252819D02*
X106589511Y-145252819D01*
X106875225Y-146252819D02*
X106875225Y-145252819D01*
X105732368Y-146252819D02*
X106303796Y-146252819D01*
X106018082Y-146252819D02*
X106018082Y-145252819D01*
X106018082Y-145252819D02*
X106113320Y-145395676D01*
X106113320Y-145395676D02*
X106208558Y-145490914D01*
X106208558Y-145490914D02*
X106303796Y-145538533D01*
X194969475Y-36982295D02*
X194969475Y-36182295D01*
X194969475Y-36182295D02*
X194778999Y-36182295D01*
X194778999Y-36182295D02*
X194664713Y-36220390D01*
X194664713Y-36220390D02*
X194588523Y-36296580D01*
X194588523Y-36296580D02*
X194550428Y-36372771D01*
X194550428Y-36372771D02*
X194512332Y-36525152D01*
X194512332Y-36525152D02*
X194512332Y-36639438D01*
X194512332Y-36639438D02*
X194550428Y-36791819D01*
X194550428Y-36791819D02*
X194588523Y-36868009D01*
X194588523Y-36868009D02*
X194664713Y-36944200D01*
X194664713Y-36944200D02*
X194778999Y-36982295D01*
X194778999Y-36982295D02*
X194969475Y-36982295D01*
X194207571Y-36258485D02*
X194169475Y-36220390D01*
X194169475Y-36220390D02*
X194093285Y-36182295D01*
X194093285Y-36182295D02*
X193902809Y-36182295D01*
X193902809Y-36182295D02*
X193826618Y-36220390D01*
X193826618Y-36220390D02*
X193788523Y-36258485D01*
X193788523Y-36258485D02*
X193750428Y-36334676D01*
X193750428Y-36334676D02*
X193750428Y-36410866D01*
X193750428Y-36410866D02*
X193788523Y-36525152D01*
X193788523Y-36525152D02*
X194245666Y-36982295D01*
X194245666Y-36982295D02*
X193750428Y-36982295D01*
X194512332Y-52146104D02*
X194550428Y-52184200D01*
X194550428Y-52184200D02*
X194664713Y-52222295D01*
X194664713Y-52222295D02*
X194740904Y-52222295D01*
X194740904Y-52222295D02*
X194855190Y-52184200D01*
X194855190Y-52184200D02*
X194931380Y-52108009D01*
X194931380Y-52108009D02*
X194969475Y-52031819D01*
X194969475Y-52031819D02*
X195007571Y-51879438D01*
X195007571Y-51879438D02*
X195007571Y-51765152D01*
X195007571Y-51765152D02*
X194969475Y-51612771D01*
X194969475Y-51612771D02*
X194931380Y-51536580D01*
X194931380Y-51536580D02*
X194855190Y-51460390D01*
X194855190Y-51460390D02*
X194740904Y-51422295D01*
X194740904Y-51422295D02*
X194664713Y-51422295D01*
X194664713Y-51422295D02*
X194550428Y-51460390D01*
X194550428Y-51460390D02*
X194512332Y-51498485D01*
X193826618Y-51422295D02*
X193978999Y-51422295D01*
X193978999Y-51422295D02*
X194055190Y-51460390D01*
X194055190Y-51460390D02*
X194093285Y-51498485D01*
X194093285Y-51498485D02*
X194169475Y-51612771D01*
X194169475Y-51612771D02*
X194207571Y-51765152D01*
X194207571Y-51765152D02*
X194207571Y-52069914D01*
X194207571Y-52069914D02*
X194169475Y-52146104D01*
X194169475Y-52146104D02*
X194131380Y-52184200D01*
X194131380Y-52184200D02*
X194055190Y-52222295D01*
X194055190Y-52222295D02*
X193902809Y-52222295D01*
X193902809Y-52222295D02*
X193826618Y-52184200D01*
X193826618Y-52184200D02*
X193788523Y-52146104D01*
X193788523Y-52146104D02*
X193750428Y-52069914D01*
X193750428Y-52069914D02*
X193750428Y-51879438D01*
X193750428Y-51879438D02*
X193788523Y-51803247D01*
X193788523Y-51803247D02*
X193826618Y-51765152D01*
X193826618Y-51765152D02*
X193902809Y-51727057D01*
X193902809Y-51727057D02*
X194055190Y-51727057D01*
X194055190Y-51727057D02*
X194131380Y-51765152D01*
X194131380Y-51765152D02*
X194169475Y-51803247D01*
X194169475Y-51803247D02*
X194207571Y-51879438D01*
X205567666Y-46723247D02*
X205834332Y-46723247D01*
X205834332Y-47142295D02*
X205834332Y-46342295D01*
X205834332Y-46342295D02*
X205453380Y-46342295D01*
X204767666Y-46342295D02*
X205148618Y-46342295D01*
X205148618Y-46342295D02*
X205186714Y-46723247D01*
X205186714Y-46723247D02*
X205148618Y-46685152D01*
X205148618Y-46685152D02*
X205072428Y-46647057D01*
X205072428Y-46647057D02*
X204881952Y-46647057D01*
X204881952Y-46647057D02*
X204805761Y-46685152D01*
X204805761Y-46685152D02*
X204767666Y-46723247D01*
X204767666Y-46723247D02*
X204729571Y-46799438D01*
X204729571Y-46799438D02*
X204729571Y-46989914D01*
X204729571Y-46989914D02*
X204767666Y-47066104D01*
X204767666Y-47066104D02*
X204805761Y-47104200D01*
X204805761Y-47104200D02*
X204881952Y-47142295D01*
X204881952Y-47142295D02*
X205072428Y-47142295D01*
X205072428Y-47142295D02*
X205148618Y-47104200D01*
X205148618Y-47104200D02*
X205186714Y-47066104D01*
X205567666Y-49263247D02*
X205834332Y-49263247D01*
X205834332Y-49682295D02*
X205834332Y-48882295D01*
X205834332Y-48882295D02*
X205453380Y-48882295D01*
X204805761Y-48882295D02*
X204958142Y-48882295D01*
X204958142Y-48882295D02*
X205034333Y-48920390D01*
X205034333Y-48920390D02*
X205072428Y-48958485D01*
X205072428Y-48958485D02*
X205148618Y-49072771D01*
X205148618Y-49072771D02*
X205186714Y-49225152D01*
X205186714Y-49225152D02*
X205186714Y-49529914D01*
X205186714Y-49529914D02*
X205148618Y-49606104D01*
X205148618Y-49606104D02*
X205110523Y-49644200D01*
X205110523Y-49644200D02*
X205034333Y-49682295D01*
X205034333Y-49682295D02*
X204881952Y-49682295D01*
X204881952Y-49682295D02*
X204805761Y-49644200D01*
X204805761Y-49644200D02*
X204767666Y-49606104D01*
X204767666Y-49606104D02*
X204729571Y-49529914D01*
X204729571Y-49529914D02*
X204729571Y-49339438D01*
X204729571Y-49339438D02*
X204767666Y-49263247D01*
X204767666Y-49263247D02*
X204805761Y-49225152D01*
X204805761Y-49225152D02*
X204881952Y-49187057D01*
X204881952Y-49187057D02*
X205034333Y-49187057D01*
X205034333Y-49187057D02*
X205110523Y-49225152D01*
X205110523Y-49225152D02*
X205148618Y-49263247D01*
X205148618Y-49263247D02*
X205186714Y-49339438D01*
X205567666Y-44183247D02*
X205834332Y-44183247D01*
X205834332Y-44602295D02*
X205834332Y-43802295D01*
X205834332Y-43802295D02*
X205453380Y-43802295D01*
X204805761Y-44068961D02*
X204805761Y-44602295D01*
X204996237Y-43764200D02*
X205186714Y-44335628D01*
X205186714Y-44335628D02*
X204691475Y-44335628D01*
X205413333Y-39464200D02*
X205299047Y-39502295D01*
X205299047Y-39502295D02*
X205108571Y-39502295D01*
X205108571Y-39502295D02*
X205032380Y-39464200D01*
X205032380Y-39464200D02*
X204994285Y-39426104D01*
X204994285Y-39426104D02*
X204956190Y-39349914D01*
X204956190Y-39349914D02*
X204956190Y-39273723D01*
X204956190Y-39273723D02*
X204994285Y-39197533D01*
X204994285Y-39197533D02*
X205032380Y-39159438D01*
X205032380Y-39159438D02*
X205108571Y-39121342D01*
X205108571Y-39121342D02*
X205260952Y-39083247D01*
X205260952Y-39083247D02*
X205337142Y-39045152D01*
X205337142Y-39045152D02*
X205375237Y-39007057D01*
X205375237Y-39007057D02*
X205413333Y-38930866D01*
X205413333Y-38930866D02*
X205413333Y-38854676D01*
X205413333Y-38854676D02*
X205375237Y-38778485D01*
X205375237Y-38778485D02*
X205337142Y-38740390D01*
X205337142Y-38740390D02*
X205260952Y-38702295D01*
X205260952Y-38702295D02*
X205070475Y-38702295D01*
X205070475Y-38702295D02*
X204956190Y-38740390D01*
X204727618Y-38702295D02*
X204270475Y-38702295D01*
X204499047Y-39502295D02*
X204499047Y-38702295D01*
X205624809Y-59423247D02*
X205510523Y-59461342D01*
X205510523Y-59461342D02*
X205472428Y-59499438D01*
X205472428Y-59499438D02*
X205434332Y-59575628D01*
X205434332Y-59575628D02*
X205434332Y-59689914D01*
X205434332Y-59689914D02*
X205472428Y-59766104D01*
X205472428Y-59766104D02*
X205510523Y-59804200D01*
X205510523Y-59804200D02*
X205586713Y-59842295D01*
X205586713Y-59842295D02*
X205891475Y-59842295D01*
X205891475Y-59842295D02*
X205891475Y-59042295D01*
X205891475Y-59042295D02*
X205624809Y-59042295D01*
X205624809Y-59042295D02*
X205548618Y-59080390D01*
X205548618Y-59080390D02*
X205510523Y-59118485D01*
X205510523Y-59118485D02*
X205472428Y-59194676D01*
X205472428Y-59194676D02*
X205472428Y-59270866D01*
X205472428Y-59270866D02*
X205510523Y-59347057D01*
X205510523Y-59347057D02*
X205548618Y-59385152D01*
X205548618Y-59385152D02*
X205624809Y-59423247D01*
X205624809Y-59423247D02*
X205891475Y-59423247D01*
X205129571Y-59118485D02*
X205091475Y-59080390D01*
X205091475Y-59080390D02*
X205015285Y-59042295D01*
X205015285Y-59042295D02*
X204824809Y-59042295D01*
X204824809Y-59042295D02*
X204748618Y-59080390D01*
X204748618Y-59080390D02*
X204710523Y-59118485D01*
X204710523Y-59118485D02*
X204672428Y-59194676D01*
X204672428Y-59194676D02*
X204672428Y-59270866D01*
X204672428Y-59270866D02*
X204710523Y-59385152D01*
X204710523Y-59385152D02*
X205167666Y-59842295D01*
X205167666Y-59842295D02*
X204672428Y-59842295D01*
X194969475Y-47142295D02*
X194969475Y-46342295D01*
X194969475Y-46342295D02*
X194778999Y-46342295D01*
X194778999Y-46342295D02*
X194664713Y-46380390D01*
X194664713Y-46380390D02*
X194588523Y-46456580D01*
X194588523Y-46456580D02*
X194550428Y-46532771D01*
X194550428Y-46532771D02*
X194512332Y-46685152D01*
X194512332Y-46685152D02*
X194512332Y-46799438D01*
X194512332Y-46799438D02*
X194550428Y-46951819D01*
X194550428Y-46951819D02*
X194588523Y-47028009D01*
X194588523Y-47028009D02*
X194664713Y-47104200D01*
X194664713Y-47104200D02*
X194778999Y-47142295D01*
X194778999Y-47142295D02*
X194969475Y-47142295D01*
X194017094Y-46342295D02*
X193940904Y-46342295D01*
X193940904Y-46342295D02*
X193864713Y-46380390D01*
X193864713Y-46380390D02*
X193826618Y-46418485D01*
X193826618Y-46418485D02*
X193788523Y-46494676D01*
X193788523Y-46494676D02*
X193750428Y-46647057D01*
X193750428Y-46647057D02*
X193750428Y-46837533D01*
X193750428Y-46837533D02*
X193788523Y-46989914D01*
X193788523Y-46989914D02*
X193826618Y-47066104D01*
X193826618Y-47066104D02*
X193864713Y-47104200D01*
X193864713Y-47104200D02*
X193940904Y-47142295D01*
X193940904Y-47142295D02*
X194017094Y-47142295D01*
X194017094Y-47142295D02*
X194093285Y-47104200D01*
X194093285Y-47104200D02*
X194131380Y-47066104D01*
X194131380Y-47066104D02*
X194169475Y-46989914D01*
X194169475Y-46989914D02*
X194207571Y-46837533D01*
X194207571Y-46837533D02*
X194207571Y-46647057D01*
X194207571Y-46647057D02*
X194169475Y-46494676D01*
X194169475Y-46494676D02*
X194131380Y-46418485D01*
X194131380Y-46418485D02*
X194093285Y-46380390D01*
X194093285Y-46380390D02*
X194017094Y-46342295D01*
X205853380Y-34442295D02*
X206120047Y-34061342D01*
X206310523Y-34442295D02*
X206310523Y-33642295D01*
X206310523Y-33642295D02*
X206005761Y-33642295D01*
X206005761Y-33642295D02*
X205929571Y-33680390D01*
X205929571Y-33680390D02*
X205891476Y-33718485D01*
X205891476Y-33718485D02*
X205853380Y-33794676D01*
X205853380Y-33794676D02*
X205853380Y-33908961D01*
X205853380Y-33908961D02*
X205891476Y-33985152D01*
X205891476Y-33985152D02*
X205929571Y-34023247D01*
X205929571Y-34023247D02*
X206005761Y-34061342D01*
X206005761Y-34061342D02*
X206310523Y-34061342D01*
X205548619Y-34213723D02*
X205167666Y-34213723D01*
X205624809Y-34442295D02*
X205358142Y-33642295D01*
X205358142Y-33642295D02*
X205091476Y-34442295D01*
X204901000Y-33642295D02*
X204710524Y-34442295D01*
X204710524Y-34442295D02*
X204558143Y-33870866D01*
X204558143Y-33870866D02*
X204405762Y-34442295D01*
X204405762Y-34442295D02*
X204215286Y-33642295D01*
X205910523Y-36220390D02*
X205986713Y-36182295D01*
X205986713Y-36182295D02*
X206100999Y-36182295D01*
X206100999Y-36182295D02*
X206215285Y-36220390D01*
X206215285Y-36220390D02*
X206291475Y-36296580D01*
X206291475Y-36296580D02*
X206329570Y-36372771D01*
X206329570Y-36372771D02*
X206367666Y-36525152D01*
X206367666Y-36525152D02*
X206367666Y-36639438D01*
X206367666Y-36639438D02*
X206329570Y-36791819D01*
X206329570Y-36791819D02*
X206291475Y-36868009D01*
X206291475Y-36868009D02*
X206215285Y-36944200D01*
X206215285Y-36944200D02*
X206100999Y-36982295D01*
X206100999Y-36982295D02*
X206024808Y-36982295D01*
X206024808Y-36982295D02*
X205910523Y-36944200D01*
X205910523Y-36944200D02*
X205872427Y-36906104D01*
X205872427Y-36906104D02*
X205872427Y-36639438D01*
X205872427Y-36639438D02*
X206024808Y-36639438D01*
X205529570Y-36982295D02*
X205529570Y-36182295D01*
X205529570Y-36182295D02*
X205072427Y-36982295D01*
X205072427Y-36982295D02*
X205072427Y-36182295D01*
X204691475Y-36982295D02*
X204691475Y-36182295D01*
X204691475Y-36182295D02*
X204500999Y-36182295D01*
X204500999Y-36182295D02*
X204386713Y-36220390D01*
X204386713Y-36220390D02*
X204310523Y-36296580D01*
X204310523Y-36296580D02*
X204272428Y-36372771D01*
X204272428Y-36372771D02*
X204234332Y-36525152D01*
X204234332Y-36525152D02*
X204234332Y-36639438D01*
X204234332Y-36639438D02*
X204272428Y-36791819D01*
X204272428Y-36791819D02*
X204310523Y-36868009D01*
X204310523Y-36868009D02*
X204386713Y-36944200D01*
X204386713Y-36944200D02*
X204500999Y-36982295D01*
X204500999Y-36982295D02*
X204691475Y-36982295D01*
X194702809Y-59423247D02*
X194588523Y-59461342D01*
X194588523Y-59461342D02*
X194550428Y-59499438D01*
X194550428Y-59499438D02*
X194512332Y-59575628D01*
X194512332Y-59575628D02*
X194512332Y-59689914D01*
X194512332Y-59689914D02*
X194550428Y-59766104D01*
X194550428Y-59766104D02*
X194588523Y-59804200D01*
X194588523Y-59804200D02*
X194664713Y-59842295D01*
X194664713Y-59842295D02*
X194969475Y-59842295D01*
X194969475Y-59842295D02*
X194969475Y-59042295D01*
X194969475Y-59042295D02*
X194702809Y-59042295D01*
X194702809Y-59042295D02*
X194626618Y-59080390D01*
X194626618Y-59080390D02*
X194588523Y-59118485D01*
X194588523Y-59118485D02*
X194550428Y-59194676D01*
X194550428Y-59194676D02*
X194550428Y-59270866D01*
X194550428Y-59270866D02*
X194588523Y-59347057D01*
X194588523Y-59347057D02*
X194626618Y-59385152D01*
X194626618Y-59385152D02*
X194702809Y-59423247D01*
X194702809Y-59423247D02*
X194969475Y-59423247D01*
X193826618Y-59308961D02*
X193826618Y-59842295D01*
X194017094Y-59004200D02*
X194207571Y-59575628D01*
X194207571Y-59575628D02*
X193712332Y-59575628D01*
X206367666Y-41262295D02*
X206100999Y-42062295D01*
X206100999Y-42062295D02*
X205834333Y-41262295D01*
X205110523Y-41986104D02*
X205148619Y-42024200D01*
X205148619Y-42024200D02*
X205262904Y-42062295D01*
X205262904Y-42062295D02*
X205339095Y-42062295D01*
X205339095Y-42062295D02*
X205453381Y-42024200D01*
X205453381Y-42024200D02*
X205529571Y-41948009D01*
X205529571Y-41948009D02*
X205567666Y-41871819D01*
X205567666Y-41871819D02*
X205605762Y-41719438D01*
X205605762Y-41719438D02*
X205605762Y-41605152D01*
X205605762Y-41605152D02*
X205567666Y-41452771D01*
X205567666Y-41452771D02*
X205529571Y-41376580D01*
X205529571Y-41376580D02*
X205453381Y-41300390D01*
X205453381Y-41300390D02*
X205339095Y-41262295D01*
X205339095Y-41262295D02*
X205262904Y-41262295D01*
X205262904Y-41262295D02*
X205148619Y-41300390D01*
X205148619Y-41300390D02*
X205110523Y-41338485D01*
X204310523Y-41986104D02*
X204348619Y-42024200D01*
X204348619Y-42024200D02*
X204462904Y-42062295D01*
X204462904Y-42062295D02*
X204539095Y-42062295D01*
X204539095Y-42062295D02*
X204653381Y-42024200D01*
X204653381Y-42024200D02*
X204729571Y-41948009D01*
X204729571Y-41948009D02*
X204767666Y-41871819D01*
X204767666Y-41871819D02*
X204805762Y-41719438D01*
X204805762Y-41719438D02*
X204805762Y-41605152D01*
X204805762Y-41605152D02*
X204767666Y-41452771D01*
X204767666Y-41452771D02*
X204729571Y-41376580D01*
X204729571Y-41376580D02*
X204653381Y-41300390D01*
X204653381Y-41300390D02*
X204539095Y-41262295D01*
X204539095Y-41262295D02*
X204462904Y-41262295D01*
X204462904Y-41262295D02*
X204348619Y-41300390D01*
X204348619Y-41300390D02*
X204310523Y-41338485D01*
X205624809Y-61963247D02*
X205510523Y-62001342D01*
X205510523Y-62001342D02*
X205472428Y-62039438D01*
X205472428Y-62039438D02*
X205434332Y-62115628D01*
X205434332Y-62115628D02*
X205434332Y-62229914D01*
X205434332Y-62229914D02*
X205472428Y-62306104D01*
X205472428Y-62306104D02*
X205510523Y-62344200D01*
X205510523Y-62344200D02*
X205586713Y-62382295D01*
X205586713Y-62382295D02*
X205891475Y-62382295D01*
X205891475Y-62382295D02*
X205891475Y-61582295D01*
X205891475Y-61582295D02*
X205624809Y-61582295D01*
X205624809Y-61582295D02*
X205548618Y-61620390D01*
X205548618Y-61620390D02*
X205510523Y-61658485D01*
X205510523Y-61658485D02*
X205472428Y-61734676D01*
X205472428Y-61734676D02*
X205472428Y-61810866D01*
X205472428Y-61810866D02*
X205510523Y-61887057D01*
X205510523Y-61887057D02*
X205548618Y-61925152D01*
X205548618Y-61925152D02*
X205624809Y-61963247D01*
X205624809Y-61963247D02*
X205891475Y-61963247D01*
X204748618Y-61582295D02*
X204900999Y-61582295D01*
X204900999Y-61582295D02*
X204977190Y-61620390D01*
X204977190Y-61620390D02*
X205015285Y-61658485D01*
X205015285Y-61658485D02*
X205091475Y-61772771D01*
X205091475Y-61772771D02*
X205129571Y-61925152D01*
X205129571Y-61925152D02*
X205129571Y-62229914D01*
X205129571Y-62229914D02*
X205091475Y-62306104D01*
X205091475Y-62306104D02*
X205053380Y-62344200D01*
X205053380Y-62344200D02*
X204977190Y-62382295D01*
X204977190Y-62382295D02*
X204824809Y-62382295D01*
X204824809Y-62382295D02*
X204748618Y-62344200D01*
X204748618Y-62344200D02*
X204710523Y-62306104D01*
X204710523Y-62306104D02*
X204672428Y-62229914D01*
X204672428Y-62229914D02*
X204672428Y-62039438D01*
X204672428Y-62039438D02*
X204710523Y-61963247D01*
X204710523Y-61963247D02*
X204748618Y-61925152D01*
X204748618Y-61925152D02*
X204824809Y-61887057D01*
X204824809Y-61887057D02*
X204977190Y-61887057D01*
X204977190Y-61887057D02*
X205053380Y-61925152D01*
X205053380Y-61925152D02*
X205091475Y-61963247D01*
X205091475Y-61963247D02*
X205129571Y-62039438D01*
X194988523Y-38760390D02*
X195064713Y-38722295D01*
X195064713Y-38722295D02*
X195178999Y-38722295D01*
X195178999Y-38722295D02*
X195293285Y-38760390D01*
X195293285Y-38760390D02*
X195369475Y-38836580D01*
X195369475Y-38836580D02*
X195407570Y-38912771D01*
X195407570Y-38912771D02*
X195445666Y-39065152D01*
X195445666Y-39065152D02*
X195445666Y-39179438D01*
X195445666Y-39179438D02*
X195407570Y-39331819D01*
X195407570Y-39331819D02*
X195369475Y-39408009D01*
X195369475Y-39408009D02*
X195293285Y-39484200D01*
X195293285Y-39484200D02*
X195178999Y-39522295D01*
X195178999Y-39522295D02*
X195102808Y-39522295D01*
X195102808Y-39522295D02*
X194988523Y-39484200D01*
X194988523Y-39484200D02*
X194950427Y-39446104D01*
X194950427Y-39446104D02*
X194950427Y-39179438D01*
X194950427Y-39179438D02*
X195102808Y-39179438D01*
X194607570Y-39522295D02*
X194607570Y-38722295D01*
X194607570Y-38722295D02*
X194150427Y-39522295D01*
X194150427Y-39522295D02*
X194150427Y-38722295D01*
X193769475Y-39522295D02*
X193769475Y-38722295D01*
X193769475Y-38722295D02*
X193578999Y-38722295D01*
X193578999Y-38722295D02*
X193464713Y-38760390D01*
X193464713Y-38760390D02*
X193388523Y-38836580D01*
X193388523Y-38836580D02*
X193350428Y-38912771D01*
X193350428Y-38912771D02*
X193312332Y-39065152D01*
X193312332Y-39065152D02*
X193312332Y-39179438D01*
X193312332Y-39179438D02*
X193350428Y-39331819D01*
X193350428Y-39331819D02*
X193388523Y-39408009D01*
X193388523Y-39408009D02*
X193464713Y-39484200D01*
X193464713Y-39484200D02*
X193578999Y-39522295D01*
X193578999Y-39522295D02*
X193769475Y-39522295D01*
X194969475Y-49682295D02*
X194969475Y-48882295D01*
X194969475Y-48882295D02*
X194778999Y-48882295D01*
X194778999Y-48882295D02*
X194664713Y-48920390D01*
X194664713Y-48920390D02*
X194588523Y-48996580D01*
X194588523Y-48996580D02*
X194550428Y-49072771D01*
X194550428Y-49072771D02*
X194512332Y-49225152D01*
X194512332Y-49225152D02*
X194512332Y-49339438D01*
X194512332Y-49339438D02*
X194550428Y-49491819D01*
X194550428Y-49491819D02*
X194588523Y-49568009D01*
X194588523Y-49568009D02*
X194664713Y-49644200D01*
X194664713Y-49644200D02*
X194778999Y-49682295D01*
X194778999Y-49682295D02*
X194969475Y-49682295D01*
X193826618Y-49148961D02*
X193826618Y-49682295D01*
X194017094Y-48844200D02*
X194207571Y-49415628D01*
X194207571Y-49415628D02*
X193712332Y-49415628D01*
X194702809Y-61963247D02*
X194588523Y-62001342D01*
X194588523Y-62001342D02*
X194550428Y-62039438D01*
X194550428Y-62039438D02*
X194512332Y-62115628D01*
X194512332Y-62115628D02*
X194512332Y-62229914D01*
X194512332Y-62229914D02*
X194550428Y-62306104D01*
X194550428Y-62306104D02*
X194588523Y-62344200D01*
X194588523Y-62344200D02*
X194664713Y-62382295D01*
X194664713Y-62382295D02*
X194969475Y-62382295D01*
X194969475Y-62382295D02*
X194969475Y-61582295D01*
X194969475Y-61582295D02*
X194702809Y-61582295D01*
X194702809Y-61582295D02*
X194626618Y-61620390D01*
X194626618Y-61620390D02*
X194588523Y-61658485D01*
X194588523Y-61658485D02*
X194550428Y-61734676D01*
X194550428Y-61734676D02*
X194550428Y-61810866D01*
X194550428Y-61810866D02*
X194588523Y-61887057D01*
X194588523Y-61887057D02*
X194626618Y-61925152D01*
X194626618Y-61925152D02*
X194702809Y-61963247D01*
X194702809Y-61963247D02*
X194969475Y-61963247D01*
X193788523Y-61582295D02*
X194169475Y-61582295D01*
X194169475Y-61582295D02*
X194207571Y-61963247D01*
X194207571Y-61963247D02*
X194169475Y-61925152D01*
X194169475Y-61925152D02*
X194093285Y-61887057D01*
X194093285Y-61887057D02*
X193902809Y-61887057D01*
X193902809Y-61887057D02*
X193826618Y-61925152D01*
X193826618Y-61925152D02*
X193788523Y-61963247D01*
X193788523Y-61963247D02*
X193750428Y-62039438D01*
X193750428Y-62039438D02*
X193750428Y-62229914D01*
X193750428Y-62229914D02*
X193788523Y-62306104D01*
X193788523Y-62306104D02*
X193826618Y-62344200D01*
X193826618Y-62344200D02*
X193902809Y-62382295D01*
X193902809Y-62382295D02*
X194093285Y-62382295D01*
X194093285Y-62382295D02*
X194169475Y-62344200D01*
X194169475Y-62344200D02*
X194207571Y-62306104D01*
X194931380Y-56883247D02*
X194664714Y-56883247D01*
X194550428Y-57302295D02*
X194931380Y-57302295D01*
X194931380Y-57302295D02*
X194931380Y-56502295D01*
X194931380Y-56502295D02*
X194550428Y-56502295D01*
X193864713Y-56502295D02*
X194017094Y-56502295D01*
X194017094Y-56502295D02*
X194093285Y-56540390D01*
X194093285Y-56540390D02*
X194131380Y-56578485D01*
X194131380Y-56578485D02*
X194207570Y-56692771D01*
X194207570Y-56692771D02*
X194245666Y-56845152D01*
X194245666Y-56845152D02*
X194245666Y-57149914D01*
X194245666Y-57149914D02*
X194207570Y-57226104D01*
X194207570Y-57226104D02*
X194169475Y-57264200D01*
X194169475Y-57264200D02*
X194093285Y-57302295D01*
X194093285Y-57302295D02*
X193940904Y-57302295D01*
X193940904Y-57302295D02*
X193864713Y-57264200D01*
X193864713Y-57264200D02*
X193826618Y-57226104D01*
X193826618Y-57226104D02*
X193788523Y-57149914D01*
X193788523Y-57149914D02*
X193788523Y-56959438D01*
X193788523Y-56959438D02*
X193826618Y-56883247D01*
X193826618Y-56883247D02*
X193864713Y-56845152D01*
X193864713Y-56845152D02*
X193940904Y-56807057D01*
X193940904Y-56807057D02*
X194093285Y-56807057D01*
X194093285Y-56807057D02*
X194169475Y-56845152D01*
X194169475Y-56845152D02*
X194207570Y-56883247D01*
X194207570Y-56883247D02*
X194245666Y-56959438D01*
X194969475Y-44602295D02*
X194969475Y-43802295D01*
X194969475Y-43802295D02*
X194778999Y-43802295D01*
X194778999Y-43802295D02*
X194664713Y-43840390D01*
X194664713Y-43840390D02*
X194588523Y-43916580D01*
X194588523Y-43916580D02*
X194550428Y-43992771D01*
X194550428Y-43992771D02*
X194512332Y-44145152D01*
X194512332Y-44145152D02*
X194512332Y-44259438D01*
X194512332Y-44259438D02*
X194550428Y-44411819D01*
X194550428Y-44411819D02*
X194588523Y-44488009D01*
X194588523Y-44488009D02*
X194664713Y-44564200D01*
X194664713Y-44564200D02*
X194778999Y-44602295D01*
X194778999Y-44602295D02*
X194969475Y-44602295D01*
X193750428Y-44602295D02*
X194207571Y-44602295D01*
X193978999Y-44602295D02*
X193978999Y-43802295D01*
X193978999Y-43802295D02*
X194055190Y-43916580D01*
X194055190Y-43916580D02*
X194131380Y-43992771D01*
X194131380Y-43992771D02*
X194207571Y-44030866D01*
X205624809Y-54343247D02*
X205510523Y-54381342D01*
X205510523Y-54381342D02*
X205472428Y-54419438D01*
X205472428Y-54419438D02*
X205434332Y-54495628D01*
X205434332Y-54495628D02*
X205434332Y-54609914D01*
X205434332Y-54609914D02*
X205472428Y-54686104D01*
X205472428Y-54686104D02*
X205510523Y-54724200D01*
X205510523Y-54724200D02*
X205586713Y-54762295D01*
X205586713Y-54762295D02*
X205891475Y-54762295D01*
X205891475Y-54762295D02*
X205891475Y-53962295D01*
X205891475Y-53962295D02*
X205624809Y-53962295D01*
X205624809Y-53962295D02*
X205548618Y-54000390D01*
X205548618Y-54000390D02*
X205510523Y-54038485D01*
X205510523Y-54038485D02*
X205472428Y-54114676D01*
X205472428Y-54114676D02*
X205472428Y-54190866D01*
X205472428Y-54190866D02*
X205510523Y-54267057D01*
X205510523Y-54267057D02*
X205548618Y-54305152D01*
X205548618Y-54305152D02*
X205624809Y-54343247D01*
X205624809Y-54343247D02*
X205891475Y-54343247D01*
X204672428Y-54762295D02*
X205129571Y-54762295D01*
X204900999Y-54762295D02*
X204900999Y-53962295D01*
X204900999Y-53962295D02*
X204977190Y-54076580D01*
X204977190Y-54076580D02*
X205053380Y-54152771D01*
X205053380Y-54152771D02*
X205129571Y-54190866D01*
X198458604Y-33642295D02*
X198001461Y-33642295D01*
X198230033Y-34442295D02*
X198230033Y-33642295D01*
X197810985Y-33642295D02*
X197277651Y-34442295D01*
X197277651Y-33642295D02*
X197810985Y-34442295D01*
X196820508Y-33642295D02*
X196744318Y-33642295D01*
X196744318Y-33642295D02*
X196668127Y-33680390D01*
X196668127Y-33680390D02*
X196630032Y-33718485D01*
X196630032Y-33718485D02*
X196591937Y-33794676D01*
X196591937Y-33794676D02*
X196553842Y-33947057D01*
X196553842Y-33947057D02*
X196553842Y-34137533D01*
X196553842Y-34137533D02*
X196591937Y-34289914D01*
X196591937Y-34289914D02*
X196630032Y-34366104D01*
X196630032Y-34366104D02*
X196668127Y-34404200D01*
X196668127Y-34404200D02*
X196744318Y-34442295D01*
X196744318Y-34442295D02*
X196820508Y-34442295D01*
X196820508Y-34442295D02*
X196896699Y-34404200D01*
X196896699Y-34404200D02*
X196934794Y-34366104D01*
X196934794Y-34366104D02*
X196972889Y-34289914D01*
X196972889Y-34289914D02*
X197010985Y-34137533D01*
X197010985Y-34137533D02*
X197010985Y-33947057D01*
X197010985Y-33947057D02*
X196972889Y-33794676D01*
X196972889Y-33794676D02*
X196934794Y-33718485D01*
X196934794Y-33718485D02*
X196896699Y-33680390D01*
X196896699Y-33680390D02*
X196820508Y-33642295D01*
X195639556Y-33604200D02*
X196325270Y-34632771D01*
X195372889Y-34442295D02*
X195372889Y-33642295D01*
X195372889Y-33642295D02*
X195182413Y-33642295D01*
X195182413Y-33642295D02*
X195068127Y-33680390D01*
X195068127Y-33680390D02*
X194991937Y-33756580D01*
X194991937Y-33756580D02*
X194953842Y-33832771D01*
X194953842Y-33832771D02*
X194915746Y-33985152D01*
X194915746Y-33985152D02*
X194915746Y-34099438D01*
X194915746Y-34099438D02*
X194953842Y-34251819D01*
X194953842Y-34251819D02*
X194991937Y-34328009D01*
X194991937Y-34328009D02*
X195068127Y-34404200D01*
X195068127Y-34404200D02*
X195182413Y-34442295D01*
X195182413Y-34442295D02*
X195372889Y-34442295D01*
X194649080Y-33642295D02*
X194153842Y-33642295D01*
X194153842Y-33642295D02*
X194420508Y-33947057D01*
X194420508Y-33947057D02*
X194306223Y-33947057D01*
X194306223Y-33947057D02*
X194230032Y-33985152D01*
X194230032Y-33985152D02*
X194191937Y-34023247D01*
X194191937Y-34023247D02*
X194153842Y-34099438D01*
X194153842Y-34099438D02*
X194153842Y-34289914D01*
X194153842Y-34289914D02*
X194191937Y-34366104D01*
X194191937Y-34366104D02*
X194230032Y-34404200D01*
X194230032Y-34404200D02*
X194306223Y-34442295D01*
X194306223Y-34442295D02*
X194534794Y-34442295D01*
X194534794Y-34442295D02*
X194610985Y-34404200D01*
X194610985Y-34404200D02*
X194649080Y-34366104D01*
X205624809Y-56883247D02*
X205510523Y-56921342D01*
X205510523Y-56921342D02*
X205472428Y-56959438D01*
X205472428Y-56959438D02*
X205434332Y-57035628D01*
X205434332Y-57035628D02*
X205434332Y-57149914D01*
X205434332Y-57149914D02*
X205472428Y-57226104D01*
X205472428Y-57226104D02*
X205510523Y-57264200D01*
X205510523Y-57264200D02*
X205586713Y-57302295D01*
X205586713Y-57302295D02*
X205891475Y-57302295D01*
X205891475Y-57302295D02*
X205891475Y-56502295D01*
X205891475Y-56502295D02*
X205624809Y-56502295D01*
X205624809Y-56502295D02*
X205548618Y-56540390D01*
X205548618Y-56540390D02*
X205510523Y-56578485D01*
X205510523Y-56578485D02*
X205472428Y-56654676D01*
X205472428Y-56654676D02*
X205472428Y-56730866D01*
X205472428Y-56730866D02*
X205510523Y-56807057D01*
X205510523Y-56807057D02*
X205548618Y-56845152D01*
X205548618Y-56845152D02*
X205624809Y-56883247D01*
X205624809Y-56883247D02*
X205891475Y-56883247D01*
X205167666Y-56502295D02*
X204672428Y-56502295D01*
X204672428Y-56502295D02*
X204939094Y-56807057D01*
X204939094Y-56807057D02*
X204824809Y-56807057D01*
X204824809Y-56807057D02*
X204748618Y-56845152D01*
X204748618Y-56845152D02*
X204710523Y-56883247D01*
X204710523Y-56883247D02*
X204672428Y-56959438D01*
X204672428Y-56959438D02*
X204672428Y-57149914D01*
X204672428Y-57149914D02*
X204710523Y-57226104D01*
X204710523Y-57226104D02*
X204748618Y-57264200D01*
X204748618Y-57264200D02*
X204824809Y-57302295D01*
X204824809Y-57302295D02*
X205053380Y-57302295D01*
X205053380Y-57302295D02*
X205129571Y-57264200D01*
X205129571Y-57264200D02*
X205167666Y-57226104D01*
X205567666Y-51803247D02*
X205834332Y-51803247D01*
X205834332Y-52222295D02*
X205834332Y-51422295D01*
X205834332Y-51422295D02*
X205453380Y-51422295D01*
X205224809Y-51422295D02*
X204691475Y-51422295D01*
X204691475Y-51422295D02*
X205034333Y-52222295D01*
X135854689Y-46240319D02*
X135854689Y-45240319D01*
X135283261Y-46240319D02*
X135711832Y-45668890D01*
X135283261Y-45240319D02*
X135854689Y-45811747D01*
X135092785Y-46335557D02*
X134330880Y-46335557D01*
X133759451Y-45716509D02*
X134092784Y-45716509D01*
X134092784Y-46240319D02*
X134092784Y-45240319D01*
X134092784Y-45240319D02*
X133616594Y-45240319D01*
X133330879Y-45240319D02*
X132711832Y-45240319D01*
X132711832Y-45240319D02*
X133045165Y-45621271D01*
X133045165Y-45621271D02*
X132902308Y-45621271D01*
X132902308Y-45621271D02*
X132807070Y-45668890D01*
X132807070Y-45668890D02*
X132759451Y-45716509D01*
X132759451Y-45716509D02*
X132711832Y-45811747D01*
X132711832Y-45811747D02*
X132711832Y-46049842D01*
X132711832Y-46049842D02*
X132759451Y-46145080D01*
X132759451Y-46145080D02*
X132807070Y-46192700D01*
X132807070Y-46192700D02*
X132902308Y-46240319D01*
X132902308Y-46240319D02*
X133188022Y-46240319D01*
X133188022Y-46240319D02*
X133283260Y-46192700D01*
X133283260Y-46192700D02*
X133330879Y-46145080D01*
X92992189Y-108152819D02*
X92992189Y-107152819D01*
X92420761Y-108152819D02*
X92849332Y-107581390D01*
X92420761Y-107152819D02*
X92992189Y-107724247D01*
X92230285Y-108248057D02*
X91468380Y-108248057D01*
X91277903Y-107867104D02*
X90801713Y-107867104D01*
X91373141Y-108152819D02*
X91039808Y-107152819D01*
X91039808Y-107152819D02*
X90706475Y-108152819D01*
X89849332Y-108152819D02*
X90420760Y-108152819D01*
X90135046Y-108152819D02*
X90135046Y-107152819D01*
X90135046Y-107152819D02*
X90230284Y-107295676D01*
X90230284Y-107295676D02*
X90325522Y-107390914D01*
X90325522Y-107390914D02*
X90420760Y-107438533D01*
X107422546Y-89102819D02*
X107422546Y-88102819D01*
X106851118Y-89102819D02*
X107279689Y-88531390D01*
X106851118Y-88102819D02*
X107422546Y-88674247D01*
X106660642Y-89198057D02*
X105898737Y-89198057D01*
X105755879Y-88102819D02*
X105517784Y-89102819D01*
X105517784Y-89102819D02*
X105327308Y-88388533D01*
X105327308Y-88388533D02*
X105136832Y-89102819D01*
X105136832Y-89102819D02*
X104898737Y-88102819D01*
X103993975Y-89102819D02*
X104565403Y-89102819D01*
X104279689Y-89102819D02*
X104279689Y-88102819D01*
X104279689Y-88102819D02*
X104374927Y-88245676D01*
X104374927Y-88245676D02*
X104470165Y-88340914D01*
X104470165Y-88340914D02*
X104565403Y-88388533D01*
X140688618Y-127202819D02*
X140688618Y-126202819D01*
X140117190Y-127202819D02*
X140545761Y-126631390D01*
X140117190Y-126202819D02*
X140688618Y-126774247D01*
X139926714Y-127298057D02*
X139164809Y-127298057D01*
X138355285Y-127107580D02*
X138402904Y-127155200D01*
X138402904Y-127155200D02*
X138545761Y-127202819D01*
X138545761Y-127202819D02*
X138640999Y-127202819D01*
X138640999Y-127202819D02*
X138783856Y-127155200D01*
X138783856Y-127155200D02*
X138879094Y-127059961D01*
X138879094Y-127059961D02*
X138926713Y-126964723D01*
X138926713Y-126964723D02*
X138974332Y-126774247D01*
X138974332Y-126774247D02*
X138974332Y-126631390D01*
X138974332Y-126631390D02*
X138926713Y-126440914D01*
X138926713Y-126440914D02*
X138879094Y-126345676D01*
X138879094Y-126345676D02*
X138783856Y-126250438D01*
X138783856Y-126250438D02*
X138640999Y-126202819D01*
X138640999Y-126202819D02*
X138545761Y-126202819D01*
X138545761Y-126202819D02*
X138402904Y-126250438D01*
X138402904Y-126250438D02*
X138355285Y-126298057D01*
X137402904Y-127202819D02*
X137974332Y-127202819D01*
X137688618Y-127202819D02*
X137688618Y-126202819D01*
X137688618Y-126202819D02*
X137783856Y-126345676D01*
X137783856Y-126345676D02*
X137879094Y-126440914D01*
X137879094Y-126440914D02*
X137974332Y-126488533D01*
X59416594Y-70052819D02*
X59416594Y-69052819D01*
X58845166Y-70052819D02*
X59273737Y-69481390D01*
X58845166Y-69052819D02*
X59416594Y-69624247D01*
X58654690Y-70148057D02*
X57892785Y-70148057D01*
X57797546Y-69005200D02*
X57654689Y-69148057D01*
X56749928Y-70052819D02*
X57321356Y-70052819D01*
X57035642Y-70052819D02*
X57035642Y-69052819D01*
X57035642Y-69052819D02*
X57130880Y-69195676D01*
X57130880Y-69195676D02*
X57226118Y-69290914D01*
X57226118Y-69290914D02*
X57321356Y-69338533D01*
X135426118Y-70052819D02*
X135426118Y-69052819D01*
X134854690Y-70052819D02*
X135283261Y-69481390D01*
X134854690Y-69052819D02*
X135426118Y-69624247D01*
X134664214Y-70148057D02*
X133902309Y-70148057D01*
X133235642Y-69386152D02*
X133235642Y-70052819D01*
X133473737Y-69005200D02*
X133711832Y-69719485D01*
X133711832Y-69719485D02*
X133092785Y-69719485D01*
X86753201Y-146252819D02*
X86753201Y-145252819D01*
X86181773Y-146252819D02*
X86610344Y-145681390D01*
X86181773Y-145252819D02*
X86753201Y-145824247D01*
X85991297Y-146348057D02*
X85229392Y-146348057D01*
X85086534Y-145252819D02*
X84848439Y-146252819D01*
X84848439Y-146252819D02*
X84657963Y-145538533D01*
X84657963Y-145538533D02*
X84467487Y-146252819D01*
X84467487Y-146252819D02*
X84229392Y-145252819D01*
X83848439Y-146252819D02*
X83848439Y-145252819D01*
X83372249Y-146252819D02*
X83372249Y-145252819D01*
X83372249Y-145252819D02*
X82800821Y-146252819D01*
X82800821Y-146252819D02*
X82800821Y-145252819D01*
X81800821Y-146252819D02*
X82372249Y-146252819D01*
X82086535Y-146252819D02*
X82086535Y-145252819D01*
X82086535Y-145252819D02*
X82181773Y-145395676D01*
X82181773Y-145395676D02*
X82277011Y-145490914D01*
X82277011Y-145490914D02*
X82372249Y-145538533D01*
X88324927Y-89102819D02*
X88324927Y-88102819D01*
X87753499Y-89102819D02*
X88182070Y-88531390D01*
X87753499Y-88102819D02*
X88324927Y-88674247D01*
X87563023Y-89198057D02*
X86801118Y-89198057D01*
X85896356Y-89198057D02*
X85991594Y-89150438D01*
X85991594Y-89150438D02*
X86086832Y-89055200D01*
X86086832Y-89055200D02*
X86229689Y-88912342D01*
X86229689Y-88912342D02*
X86324927Y-88864723D01*
X86324927Y-88864723D02*
X86420165Y-88864723D01*
X86372546Y-89102819D02*
X86467784Y-89055200D01*
X86467784Y-89055200D02*
X86563022Y-88959961D01*
X86563022Y-88959961D02*
X86610641Y-88769485D01*
X86610641Y-88769485D02*
X86610641Y-88436152D01*
X86610641Y-88436152D02*
X86563022Y-88245676D01*
X86563022Y-88245676D02*
X86467784Y-88150438D01*
X86467784Y-88150438D02*
X86372546Y-88102819D01*
X86372546Y-88102819D02*
X86182070Y-88102819D01*
X86182070Y-88102819D02*
X86086832Y-88150438D01*
X86086832Y-88150438D02*
X85991594Y-88245676D01*
X85991594Y-88245676D02*
X85943975Y-88436152D01*
X85943975Y-88436152D02*
X85943975Y-88769485D01*
X85943975Y-88769485D02*
X85991594Y-88959961D01*
X85991594Y-88959961D02*
X86086832Y-89055200D01*
X86086832Y-89055200D02*
X86182070Y-89102819D01*
X86182070Y-89102819D02*
X86372546Y-89102819D01*
X84991594Y-89102819D02*
X85563022Y-89102819D01*
X85277308Y-89102819D02*
X85277308Y-88102819D01*
X85277308Y-88102819D02*
X85372546Y-88245676D01*
X85372546Y-88245676D02*
X85467784Y-88340914D01*
X85467784Y-88340914D02*
X85563022Y-88388533D01*
X133997249Y-146252819D02*
X133997249Y-145252819D01*
X133425821Y-146252819D02*
X133854392Y-145681390D01*
X133425821Y-145252819D02*
X133997249Y-145824247D01*
X133235345Y-146348057D02*
X132473440Y-146348057D01*
X131902011Y-145729009D02*
X132235344Y-145729009D01*
X132235344Y-146252819D02*
X132235344Y-145252819D01*
X132235344Y-145252819D02*
X131759154Y-145252819D01*
X131378201Y-146252819D02*
X131378201Y-145252819D01*
X131378201Y-145252819D02*
X130806773Y-146252819D01*
X130806773Y-146252819D02*
X130806773Y-145252819D01*
X129806773Y-146252819D02*
X130378201Y-146252819D01*
X130092487Y-146252819D02*
X130092487Y-145252819D01*
X130092487Y-145252819D02*
X130187725Y-145395676D01*
X130187725Y-145395676D02*
X130282963Y-145490914D01*
X130282963Y-145490914D02*
X130378201Y-145538533D01*
X159667189Y-127202819D02*
X159667189Y-126202819D01*
X159095761Y-127202819D02*
X159524332Y-126631390D01*
X159095761Y-126202819D02*
X159667189Y-126774247D01*
X158905285Y-127298057D02*
X158143380Y-127298057D01*
X158048141Y-126202819D02*
X157714808Y-127202819D01*
X157714808Y-127202819D02*
X157381475Y-126202819D01*
X156524332Y-127202819D02*
X157095760Y-127202819D01*
X156810046Y-127202819D02*
X156810046Y-126202819D01*
X156810046Y-126202819D02*
X156905284Y-126345676D01*
X156905284Y-126345676D02*
X157000522Y-126440914D01*
X157000522Y-126440914D02*
X157095760Y-126488533D01*
X63393082Y-146252819D02*
X63393082Y-145252819D01*
X62821654Y-146252819D02*
X63250225Y-145681390D01*
X62821654Y-145252819D02*
X63393082Y-145824247D01*
X62631178Y-146348057D02*
X61869273Y-146348057D01*
X61059749Y-146157580D02*
X61107368Y-146205200D01*
X61107368Y-146205200D02*
X61250225Y-146252819D01*
X61250225Y-146252819D02*
X61345463Y-146252819D01*
X61345463Y-146252819D02*
X61488320Y-146205200D01*
X61488320Y-146205200D02*
X61583558Y-146109961D01*
X61583558Y-146109961D02*
X61631177Y-146014723D01*
X61631177Y-146014723D02*
X61678796Y-145824247D01*
X61678796Y-145824247D02*
X61678796Y-145681390D01*
X61678796Y-145681390D02*
X61631177Y-145490914D01*
X61631177Y-145490914D02*
X61583558Y-145395676D01*
X61583558Y-145395676D02*
X61488320Y-145300438D01*
X61488320Y-145300438D02*
X61345463Y-145252819D01*
X61345463Y-145252819D02*
X61250225Y-145252819D01*
X61250225Y-145252819D02*
X61107368Y-145300438D01*
X61107368Y-145300438D02*
X61059749Y-145348057D01*
X60774034Y-145252819D02*
X60202606Y-145252819D01*
X60488320Y-146252819D02*
X60488320Y-145252819D01*
X59297844Y-146252819D02*
X59631177Y-145776628D01*
X59869272Y-146252819D02*
X59869272Y-145252819D01*
X59869272Y-145252819D02*
X59488320Y-145252819D01*
X59488320Y-145252819D02*
X59393082Y-145300438D01*
X59393082Y-145300438D02*
X59345463Y-145348057D01*
X59345463Y-145348057D02*
X59297844Y-145443295D01*
X59297844Y-145443295D02*
X59297844Y-145586152D01*
X59297844Y-145586152D02*
X59345463Y-145681390D01*
X59345463Y-145681390D02*
X59393082Y-145729009D01*
X59393082Y-145729009D02*
X59488320Y-145776628D01*
X59488320Y-145776628D02*
X59869272Y-145776628D01*
X58393082Y-146252819D02*
X58869272Y-146252819D01*
X58869272Y-146252819D02*
X58869272Y-145252819D01*
X57535939Y-146252819D02*
X58107367Y-146252819D01*
X57821653Y-146252819D02*
X57821653Y-145252819D01*
X57821653Y-145252819D02*
X57916891Y-145395676D01*
X57916891Y-145395676D02*
X58012129Y-145490914D01*
X58012129Y-145490914D02*
X58107367Y-145538533D01*
X154476118Y-70052819D02*
X154476118Y-69052819D01*
X153904690Y-70052819D02*
X154333261Y-69481390D01*
X153904690Y-69052819D02*
X154476118Y-69624247D01*
X153714214Y-70148057D02*
X152952309Y-70148057D01*
X152238023Y-69052819D02*
X152714213Y-69052819D01*
X152714213Y-69052819D02*
X152761832Y-69529009D01*
X152761832Y-69529009D02*
X152714213Y-69481390D01*
X152714213Y-69481390D02*
X152618975Y-69433771D01*
X152618975Y-69433771D02*
X152380880Y-69433771D01*
X152380880Y-69433771D02*
X152285642Y-69481390D01*
X152285642Y-69481390D02*
X152238023Y-69529009D01*
X152238023Y-69529009D02*
X152190404Y-69624247D01*
X152190404Y-69624247D02*
X152190404Y-69862342D01*
X152190404Y-69862342D02*
X152238023Y-69957580D01*
X152238023Y-69957580D02*
X152285642Y-70005200D01*
X152285642Y-70005200D02*
X152380880Y-70052819D01*
X152380880Y-70052819D02*
X152618975Y-70052819D01*
X152618975Y-70052819D02*
X152714213Y-70005200D01*
X152714213Y-70005200D02*
X152761832Y-69957580D01*
X102564808Y-127202819D02*
X102564808Y-126202819D01*
X101993380Y-127202819D02*
X102421951Y-126631390D01*
X101993380Y-126202819D02*
X102564808Y-126774247D01*
X101802904Y-127298057D02*
X101040999Y-127298057D01*
X100898141Y-126202819D02*
X100231475Y-126202819D01*
X100231475Y-126202819D02*
X100898141Y-127202819D01*
X100898141Y-127202819D02*
X100231475Y-127202819D01*
X99326713Y-127202819D02*
X99898141Y-127202819D01*
X99612427Y-127202819D02*
X99612427Y-126202819D01*
X99612427Y-126202819D02*
X99707665Y-126345676D01*
X99707665Y-126345676D02*
X99802903Y-126440914D01*
X99802903Y-126440914D02*
X99898141Y-126488533D01*
X116804689Y-46240319D02*
X116804689Y-45240319D01*
X116233261Y-46240319D02*
X116661832Y-45668890D01*
X116233261Y-45240319D02*
X116804689Y-45811747D01*
X116042785Y-46335557D02*
X115280880Y-46335557D01*
X114709451Y-45716509D02*
X115042784Y-45716509D01*
X115042784Y-46240319D02*
X115042784Y-45240319D01*
X115042784Y-45240319D02*
X114566594Y-45240319D01*
X114233260Y-45335557D02*
X114185641Y-45287938D01*
X114185641Y-45287938D02*
X114090403Y-45240319D01*
X114090403Y-45240319D02*
X113852308Y-45240319D01*
X113852308Y-45240319D02*
X113757070Y-45287938D01*
X113757070Y-45287938D02*
X113709451Y-45335557D01*
X113709451Y-45335557D02*
X113661832Y-45430795D01*
X113661832Y-45430795D02*
X113661832Y-45526033D01*
X113661832Y-45526033D02*
X113709451Y-45668890D01*
X113709451Y-45668890D02*
X114280879Y-46240319D01*
X114280879Y-46240319D02*
X113661832Y-46240319D01*
X116376118Y-70052819D02*
X116376118Y-69052819D01*
X115804690Y-70052819D02*
X116233261Y-69481390D01*
X115804690Y-69052819D02*
X116376118Y-69624247D01*
X115614214Y-70148057D02*
X114852309Y-70148057D01*
X114709451Y-69052819D02*
X114090404Y-69052819D01*
X114090404Y-69052819D02*
X114423737Y-69433771D01*
X114423737Y-69433771D02*
X114280880Y-69433771D01*
X114280880Y-69433771D02*
X114185642Y-69481390D01*
X114185642Y-69481390D02*
X114138023Y-69529009D01*
X114138023Y-69529009D02*
X114090404Y-69624247D01*
X114090404Y-69624247D02*
X114090404Y-69862342D01*
X114090404Y-69862342D02*
X114138023Y-69957580D01*
X114138023Y-69957580D02*
X114185642Y-70005200D01*
X114185642Y-70005200D02*
X114280880Y-70052819D01*
X114280880Y-70052819D02*
X114566594Y-70052819D01*
X114566594Y-70052819D02*
X114661832Y-70005200D01*
X114661832Y-70005200D02*
X114709451Y-69957580D01*
X78276118Y-70052819D02*
X78276118Y-69052819D01*
X77704690Y-70052819D02*
X78133261Y-69481390D01*
X77704690Y-69052819D02*
X78276118Y-69624247D01*
X77514214Y-70148057D02*
X76752309Y-70148057D01*
X75990404Y-70052819D02*
X76561832Y-70052819D01*
X76276118Y-70052819D02*
X76276118Y-69052819D01*
X76276118Y-69052819D02*
X76371356Y-69195676D01*
X76371356Y-69195676D02*
X76466594Y-69290914D01*
X76466594Y-69290914D02*
X76561832Y-69338533D01*
X156124795Y-103361905D02*
X155324795Y-103361905D01*
X155324795Y-103361905D02*
X155324795Y-103552381D01*
X155324795Y-103552381D02*
X155362890Y-103666667D01*
X155362890Y-103666667D02*
X155439080Y-103742857D01*
X155439080Y-103742857D02*
X155515271Y-103780952D01*
X155515271Y-103780952D02*
X155667652Y-103819048D01*
X155667652Y-103819048D02*
X155781938Y-103819048D01*
X155781938Y-103819048D02*
X155934319Y-103780952D01*
X155934319Y-103780952D02*
X156010509Y-103742857D01*
X156010509Y-103742857D02*
X156086700Y-103666667D01*
X156086700Y-103666667D02*
X156124795Y-103552381D01*
X156124795Y-103552381D02*
X156124795Y-103361905D01*
X156200985Y-103971429D02*
X156200985Y-104580952D01*
X155705747Y-105038095D02*
X155705747Y-104771429D01*
X156124795Y-104771429D02*
X155324795Y-104771429D01*
X155324795Y-104771429D02*
X155324795Y-105152381D01*
X155324795Y-105800000D02*
X155324795Y-105647619D01*
X155324795Y-105647619D02*
X155362890Y-105571428D01*
X155362890Y-105571428D02*
X155400985Y-105533333D01*
X155400985Y-105533333D02*
X155515271Y-105457143D01*
X155515271Y-105457143D02*
X155667652Y-105419047D01*
X155667652Y-105419047D02*
X155972414Y-105419047D01*
X155972414Y-105419047D02*
X156048604Y-105457143D01*
X156048604Y-105457143D02*
X156086700Y-105495238D01*
X156086700Y-105495238D02*
X156124795Y-105571428D01*
X156124795Y-105571428D02*
X156124795Y-105723809D01*
X156124795Y-105723809D02*
X156086700Y-105800000D01*
X156086700Y-105800000D02*
X156048604Y-105838095D01*
X156048604Y-105838095D02*
X155972414Y-105876190D01*
X155972414Y-105876190D02*
X155781938Y-105876190D01*
X155781938Y-105876190D02*
X155705747Y-105838095D01*
X155705747Y-105838095D02*
X155667652Y-105800000D01*
X155667652Y-105800000D02*
X155629557Y-105723809D01*
X155629557Y-105723809D02*
X155629557Y-105571428D01*
X155629557Y-105571428D02*
X155667652Y-105495238D01*
X155667652Y-105495238D02*
X155705747Y-105457143D01*
X155705747Y-105457143D02*
X155781938Y-105419047D01*
X160927295Y-41381905D02*
X160127295Y-41381905D01*
X160127295Y-41381905D02*
X160127295Y-41572381D01*
X160127295Y-41572381D02*
X160165390Y-41686667D01*
X160165390Y-41686667D02*
X160241580Y-41762857D01*
X160241580Y-41762857D02*
X160317771Y-41800952D01*
X160317771Y-41800952D02*
X160470152Y-41839048D01*
X160470152Y-41839048D02*
X160584438Y-41839048D01*
X160584438Y-41839048D02*
X160736819Y-41800952D01*
X160736819Y-41800952D02*
X160813009Y-41762857D01*
X160813009Y-41762857D02*
X160889200Y-41686667D01*
X160889200Y-41686667D02*
X160927295Y-41572381D01*
X160927295Y-41572381D02*
X160927295Y-41381905D01*
X161003485Y-41991429D02*
X161003485Y-42600952D01*
X160508247Y-43058095D02*
X160508247Y-42791429D01*
X160927295Y-42791429D02*
X160127295Y-42791429D01*
X160127295Y-42791429D02*
X160127295Y-43172381D01*
X160393961Y-43820000D02*
X160927295Y-43820000D01*
X160089200Y-43629524D02*
X160660628Y-43439047D01*
X160660628Y-43439047D02*
X160660628Y-43934286D01*
X103757295Y-65634760D02*
X102957295Y-65634760D01*
X102957295Y-65634760D02*
X102957295Y-65825236D01*
X102957295Y-65825236D02*
X102995390Y-65939522D01*
X102995390Y-65939522D02*
X103071580Y-66015712D01*
X103071580Y-66015712D02*
X103147771Y-66053807D01*
X103147771Y-66053807D02*
X103300152Y-66091903D01*
X103300152Y-66091903D02*
X103414438Y-66091903D01*
X103414438Y-66091903D02*
X103566819Y-66053807D01*
X103566819Y-66053807D02*
X103643009Y-66015712D01*
X103643009Y-66015712D02*
X103719200Y-65939522D01*
X103719200Y-65939522D02*
X103757295Y-65825236D01*
X103757295Y-65825236D02*
X103757295Y-65634760D01*
X103833485Y-66244284D02*
X103833485Y-66853807D01*
X103033485Y-67006188D02*
X102995390Y-67044284D01*
X102995390Y-67044284D02*
X102957295Y-67120474D01*
X102957295Y-67120474D02*
X102957295Y-67310950D01*
X102957295Y-67310950D02*
X102995390Y-67387141D01*
X102995390Y-67387141D02*
X103033485Y-67425236D01*
X103033485Y-67425236D02*
X103109676Y-67463331D01*
X103109676Y-67463331D02*
X103185866Y-67463331D01*
X103185866Y-67463331D02*
X103300152Y-67425236D01*
X103300152Y-67425236D02*
X103757295Y-66968093D01*
X103757295Y-66968093D02*
X103757295Y-67463331D01*
X94242295Y-140738095D02*
X93442295Y-140738095D01*
X93442295Y-140738095D02*
X93442295Y-140928571D01*
X93442295Y-140928571D02*
X93480390Y-141042857D01*
X93480390Y-141042857D02*
X93556580Y-141119047D01*
X93556580Y-141119047D02*
X93632771Y-141157142D01*
X93632771Y-141157142D02*
X93785152Y-141195238D01*
X93785152Y-141195238D02*
X93899438Y-141195238D01*
X93899438Y-141195238D02*
X94051819Y-141157142D01*
X94051819Y-141157142D02*
X94128009Y-141119047D01*
X94128009Y-141119047D02*
X94204200Y-141042857D01*
X94204200Y-141042857D02*
X94242295Y-140928571D01*
X94242295Y-140928571D02*
X94242295Y-140738095D01*
X94318485Y-141347619D02*
X94318485Y-141957142D01*
X93442295Y-142071428D02*
X94242295Y-142261904D01*
X94242295Y-142261904D02*
X93670866Y-142414285D01*
X93670866Y-142414285D02*
X94242295Y-142566666D01*
X94242295Y-142566666D02*
X93442295Y-142757143D01*
X94242295Y-143061905D02*
X93442295Y-143061905D01*
X94242295Y-143442857D02*
X93442295Y-143442857D01*
X93442295Y-143442857D02*
X94242295Y-143900000D01*
X94242295Y-143900000D02*
X93442295Y-143900000D01*
X94242295Y-144699999D02*
X94242295Y-144242856D01*
X94242295Y-144471428D02*
X93442295Y-144471428D01*
X93442295Y-144471428D02*
X93556580Y-144395237D01*
X93556580Y-144395237D02*
X93632771Y-144319047D01*
X93632771Y-144319047D02*
X93670866Y-144242856D01*
X89454795Y-121131667D02*
X88654795Y-121131667D01*
X88654795Y-121131667D02*
X88654795Y-121322143D01*
X88654795Y-121322143D02*
X88692890Y-121436429D01*
X88692890Y-121436429D02*
X88769080Y-121512619D01*
X88769080Y-121512619D02*
X88845271Y-121550714D01*
X88845271Y-121550714D02*
X88997652Y-121588810D01*
X88997652Y-121588810D02*
X89111938Y-121588810D01*
X89111938Y-121588810D02*
X89264319Y-121550714D01*
X89264319Y-121550714D02*
X89340509Y-121512619D01*
X89340509Y-121512619D02*
X89416700Y-121436429D01*
X89416700Y-121436429D02*
X89454795Y-121322143D01*
X89454795Y-121322143D02*
X89454795Y-121131667D01*
X89530985Y-121741191D02*
X89530985Y-122350714D01*
X89416700Y-122503095D02*
X89454795Y-122617381D01*
X89454795Y-122617381D02*
X89454795Y-122807857D01*
X89454795Y-122807857D02*
X89416700Y-122884048D01*
X89416700Y-122884048D02*
X89378604Y-122922143D01*
X89378604Y-122922143D02*
X89302414Y-122960238D01*
X89302414Y-122960238D02*
X89226223Y-122960238D01*
X89226223Y-122960238D02*
X89150033Y-122922143D01*
X89150033Y-122922143D02*
X89111938Y-122884048D01*
X89111938Y-122884048D02*
X89073842Y-122807857D01*
X89073842Y-122807857D02*
X89035747Y-122655476D01*
X89035747Y-122655476D02*
X88997652Y-122579286D01*
X88997652Y-122579286D02*
X88959557Y-122541191D01*
X88959557Y-122541191D02*
X88883366Y-122503095D01*
X88883366Y-122503095D02*
X88807176Y-122503095D01*
X88807176Y-122503095D02*
X88730985Y-122541191D01*
X88730985Y-122541191D02*
X88692890Y-122579286D01*
X88692890Y-122579286D02*
X88654795Y-122655476D01*
X88654795Y-122655476D02*
X88654795Y-122845953D01*
X88654795Y-122845953D02*
X88692890Y-122960238D01*
X89454795Y-123303096D02*
X88654795Y-123303096D01*
X89035747Y-123303096D02*
X89035747Y-123760239D01*
X89454795Y-123760239D02*
X88654795Y-123760239D01*
X89454795Y-124141191D02*
X88654795Y-124141191D01*
X89035747Y-124788809D02*
X89035747Y-124522143D01*
X89454795Y-124522143D02*
X88654795Y-124522143D01*
X88654795Y-124522143D02*
X88654795Y-124903095D01*
X88654795Y-125093571D02*
X88654795Y-125550714D01*
X89454795Y-125322142D02*
X88654795Y-125322142D01*
X89454795Y-126236428D02*
X89454795Y-125779285D01*
X89454795Y-126007857D02*
X88654795Y-126007857D01*
X88654795Y-126007857D02*
X88769080Y-125931666D01*
X88769080Y-125931666D02*
X88845271Y-125855476D01*
X88845271Y-125855476D02*
X88883366Y-125779285D01*
X141877295Y-41411905D02*
X141077295Y-41411905D01*
X141077295Y-41411905D02*
X141077295Y-41602381D01*
X141077295Y-41602381D02*
X141115390Y-41716667D01*
X141115390Y-41716667D02*
X141191580Y-41792857D01*
X141191580Y-41792857D02*
X141267771Y-41830952D01*
X141267771Y-41830952D02*
X141420152Y-41869048D01*
X141420152Y-41869048D02*
X141534438Y-41869048D01*
X141534438Y-41869048D02*
X141686819Y-41830952D01*
X141686819Y-41830952D02*
X141763009Y-41792857D01*
X141763009Y-41792857D02*
X141839200Y-41716667D01*
X141839200Y-41716667D02*
X141877295Y-41602381D01*
X141877295Y-41602381D02*
X141877295Y-41411905D01*
X141953485Y-42021429D02*
X141953485Y-42630952D01*
X141458247Y-43088095D02*
X141458247Y-42821429D01*
X141877295Y-42821429D02*
X141077295Y-42821429D01*
X141077295Y-42821429D02*
X141077295Y-43202381D01*
X141077295Y-43430952D02*
X141077295Y-43926190D01*
X141077295Y-43926190D02*
X141382057Y-43659524D01*
X141382057Y-43659524D02*
X141382057Y-43773809D01*
X141382057Y-43773809D02*
X141420152Y-43850000D01*
X141420152Y-43850000D02*
X141458247Y-43888095D01*
X141458247Y-43888095D02*
X141534438Y-43926190D01*
X141534438Y-43926190D02*
X141724914Y-43926190D01*
X141724914Y-43926190D02*
X141801104Y-43888095D01*
X141801104Y-43888095D02*
X141839200Y-43850000D01*
X141839200Y-43850000D02*
X141877295Y-43773809D01*
X141877295Y-43773809D02*
X141877295Y-43545238D01*
X141877295Y-43545238D02*
X141839200Y-43469047D01*
X141839200Y-43469047D02*
X141801104Y-43430952D01*
X79914795Y-102175952D02*
X79114795Y-102175952D01*
X79114795Y-102175952D02*
X79114795Y-102366428D01*
X79114795Y-102366428D02*
X79152890Y-102480714D01*
X79152890Y-102480714D02*
X79229080Y-102556904D01*
X79229080Y-102556904D02*
X79305271Y-102594999D01*
X79305271Y-102594999D02*
X79457652Y-102633095D01*
X79457652Y-102633095D02*
X79571938Y-102633095D01*
X79571938Y-102633095D02*
X79724319Y-102594999D01*
X79724319Y-102594999D02*
X79800509Y-102556904D01*
X79800509Y-102556904D02*
X79876700Y-102480714D01*
X79876700Y-102480714D02*
X79914795Y-102366428D01*
X79914795Y-102366428D02*
X79914795Y-102175952D01*
X79990985Y-102785476D02*
X79990985Y-103394999D01*
X79838604Y-104042619D02*
X79876700Y-104004523D01*
X79876700Y-104004523D02*
X79914795Y-103890238D01*
X79914795Y-103890238D02*
X79914795Y-103814047D01*
X79914795Y-103814047D02*
X79876700Y-103699761D01*
X79876700Y-103699761D02*
X79800509Y-103623571D01*
X79800509Y-103623571D02*
X79724319Y-103585476D01*
X79724319Y-103585476D02*
X79571938Y-103547380D01*
X79571938Y-103547380D02*
X79457652Y-103547380D01*
X79457652Y-103547380D02*
X79305271Y-103585476D01*
X79305271Y-103585476D02*
X79229080Y-103623571D01*
X79229080Y-103623571D02*
X79152890Y-103699761D01*
X79152890Y-103699761D02*
X79114795Y-103814047D01*
X79114795Y-103814047D02*
X79114795Y-103890238D01*
X79114795Y-103890238D02*
X79152890Y-104004523D01*
X79152890Y-104004523D02*
X79190985Y-104042619D01*
X79686223Y-104347380D02*
X79686223Y-104728333D01*
X79914795Y-104271190D02*
X79114795Y-104537857D01*
X79114795Y-104537857D02*
X79914795Y-104804523D01*
X79914795Y-105071190D02*
X79114795Y-105071190D01*
X79114795Y-105071190D02*
X79114795Y-105375952D01*
X79114795Y-105375952D02*
X79152890Y-105452142D01*
X79152890Y-105452142D02*
X79190985Y-105490237D01*
X79190985Y-105490237D02*
X79267176Y-105528333D01*
X79267176Y-105528333D02*
X79381461Y-105528333D01*
X79381461Y-105528333D02*
X79457652Y-105490237D01*
X79457652Y-105490237D02*
X79495747Y-105452142D01*
X79495747Y-105452142D02*
X79533842Y-105375952D01*
X79533842Y-105375952D02*
X79533842Y-105071190D01*
X79876700Y-105833094D02*
X79914795Y-105947380D01*
X79914795Y-105947380D02*
X79914795Y-106137856D01*
X79914795Y-106137856D02*
X79876700Y-106214047D01*
X79876700Y-106214047D02*
X79838604Y-106252142D01*
X79838604Y-106252142D02*
X79762414Y-106290237D01*
X79762414Y-106290237D02*
X79686223Y-106290237D01*
X79686223Y-106290237D02*
X79610033Y-106252142D01*
X79610033Y-106252142D02*
X79571938Y-106214047D01*
X79571938Y-106214047D02*
X79533842Y-106137856D01*
X79533842Y-106137856D02*
X79495747Y-105985475D01*
X79495747Y-105985475D02*
X79457652Y-105909285D01*
X79457652Y-105909285D02*
X79419557Y-105871190D01*
X79419557Y-105871190D02*
X79343366Y-105833094D01*
X79343366Y-105833094D02*
X79267176Y-105833094D01*
X79267176Y-105833094D02*
X79190985Y-105871190D01*
X79190985Y-105871190D02*
X79152890Y-105909285D01*
X79152890Y-105909285D02*
X79114795Y-105985475D01*
X79114795Y-105985475D02*
X79114795Y-106175952D01*
X79114795Y-106175952D02*
X79152890Y-106290237D01*
X79914795Y-107052142D02*
X79914795Y-106594999D01*
X79914795Y-106823571D02*
X79114795Y-106823571D01*
X79114795Y-106823571D02*
X79229080Y-106747380D01*
X79229080Y-106747380D02*
X79305271Y-106671190D01*
X79305271Y-106671190D02*
X79343366Y-106594999D01*
X179987295Y-65574762D02*
X179187295Y-65574762D01*
X179187295Y-65574762D02*
X179187295Y-65765238D01*
X179187295Y-65765238D02*
X179225390Y-65879524D01*
X179225390Y-65879524D02*
X179301580Y-65955714D01*
X179301580Y-65955714D02*
X179377771Y-65993809D01*
X179377771Y-65993809D02*
X179530152Y-66031905D01*
X179530152Y-66031905D02*
X179644438Y-66031905D01*
X179644438Y-66031905D02*
X179796819Y-65993809D01*
X179796819Y-65993809D02*
X179873009Y-65955714D01*
X179873009Y-65955714D02*
X179949200Y-65879524D01*
X179949200Y-65879524D02*
X179987295Y-65765238D01*
X179987295Y-65765238D02*
X179987295Y-65574762D01*
X180063485Y-66184286D02*
X180063485Y-66793809D01*
X179187295Y-67327143D02*
X179187295Y-67174762D01*
X179187295Y-67174762D02*
X179225390Y-67098571D01*
X179225390Y-67098571D02*
X179263485Y-67060476D01*
X179263485Y-67060476D02*
X179377771Y-66984286D01*
X179377771Y-66984286D02*
X179530152Y-66946190D01*
X179530152Y-66946190D02*
X179834914Y-66946190D01*
X179834914Y-66946190D02*
X179911104Y-66984286D01*
X179911104Y-66984286D02*
X179949200Y-67022381D01*
X179949200Y-67022381D02*
X179987295Y-67098571D01*
X179987295Y-67098571D02*
X179987295Y-67250952D01*
X179987295Y-67250952D02*
X179949200Y-67327143D01*
X179949200Y-67327143D02*
X179911104Y-67365238D01*
X179911104Y-67365238D02*
X179834914Y-67403333D01*
X179834914Y-67403333D02*
X179644438Y-67403333D01*
X179644438Y-67403333D02*
X179568247Y-67365238D01*
X179568247Y-67365238D02*
X179530152Y-67327143D01*
X179530152Y-67327143D02*
X179492057Y-67250952D01*
X179492057Y-67250952D02*
X179492057Y-67098571D01*
X179492057Y-67098571D02*
X179530152Y-67022381D01*
X179530152Y-67022381D02*
X179568247Y-66984286D01*
X179568247Y-66984286D02*
X179644438Y-66946190D01*
X108467295Y-122353809D02*
X107667295Y-122353809D01*
X107667295Y-122353809D02*
X107667295Y-122544285D01*
X107667295Y-122544285D02*
X107705390Y-122658571D01*
X107705390Y-122658571D02*
X107781580Y-122734761D01*
X107781580Y-122734761D02*
X107857771Y-122772856D01*
X107857771Y-122772856D02*
X108010152Y-122810952D01*
X108010152Y-122810952D02*
X108124438Y-122810952D01*
X108124438Y-122810952D02*
X108276819Y-122772856D01*
X108276819Y-122772856D02*
X108353009Y-122734761D01*
X108353009Y-122734761D02*
X108429200Y-122658571D01*
X108429200Y-122658571D02*
X108467295Y-122544285D01*
X108467295Y-122544285D02*
X108467295Y-122353809D01*
X108543485Y-122963333D02*
X108543485Y-123572856D01*
X107667295Y-123687142D02*
X107667295Y-124220476D01*
X107667295Y-124220476D02*
X108467295Y-123687142D01*
X108467295Y-123687142D02*
X108467295Y-124220476D01*
X108467295Y-124944285D02*
X108467295Y-124487142D01*
X108467295Y-124715714D02*
X107667295Y-124715714D01*
X107667295Y-124715714D02*
X107781580Y-124639523D01*
X107781580Y-124639523D02*
X107857771Y-124563333D01*
X107857771Y-124563333D02*
X107895866Y-124487142D01*
X79004819Y-104513333D02*
X78528628Y-104180000D01*
X79004819Y-103941905D02*
X78004819Y-103941905D01*
X78004819Y-103941905D02*
X78004819Y-104322857D01*
X78004819Y-104322857D02*
X78052438Y-104418095D01*
X78052438Y-104418095D02*
X78100057Y-104465714D01*
X78100057Y-104465714D02*
X78195295Y-104513333D01*
X78195295Y-104513333D02*
X78338152Y-104513333D01*
X78338152Y-104513333D02*
X78433390Y-104465714D01*
X78433390Y-104465714D02*
X78481009Y-104418095D01*
X78481009Y-104418095D02*
X78528628Y-104322857D01*
X78528628Y-104322857D02*
X78528628Y-103941905D01*
X79004819Y-105465714D02*
X79004819Y-104894286D01*
X79004819Y-105180000D02*
X78004819Y-105180000D01*
X78004819Y-105180000D02*
X78147676Y-105084762D01*
X78147676Y-105084762D02*
X78242914Y-104989524D01*
X78242914Y-104989524D02*
X78290533Y-104894286D01*
X141847295Y-141012857D02*
X141047295Y-141012857D01*
X141047295Y-141012857D02*
X141047295Y-141203333D01*
X141047295Y-141203333D02*
X141085390Y-141317619D01*
X141085390Y-141317619D02*
X141161580Y-141393809D01*
X141161580Y-141393809D02*
X141237771Y-141431904D01*
X141237771Y-141431904D02*
X141390152Y-141470000D01*
X141390152Y-141470000D02*
X141504438Y-141470000D01*
X141504438Y-141470000D02*
X141656819Y-141431904D01*
X141656819Y-141431904D02*
X141733009Y-141393809D01*
X141733009Y-141393809D02*
X141809200Y-141317619D01*
X141809200Y-141317619D02*
X141847295Y-141203333D01*
X141847295Y-141203333D02*
X141847295Y-141012857D01*
X141923485Y-141622381D02*
X141923485Y-142231904D01*
X141428247Y-142689047D02*
X141428247Y-142422381D01*
X141847295Y-142422381D02*
X141047295Y-142422381D01*
X141047295Y-142422381D02*
X141047295Y-142803333D01*
X141847295Y-143108095D02*
X141047295Y-143108095D01*
X141047295Y-143108095D02*
X141847295Y-143565238D01*
X141847295Y-143565238D02*
X141047295Y-143565238D01*
X141847295Y-144365237D02*
X141847295Y-143908094D01*
X141847295Y-144136666D02*
X141047295Y-144136666D01*
X141047295Y-144136666D02*
X141161580Y-144060475D01*
X141161580Y-144060475D02*
X141237771Y-143984285D01*
X141237771Y-143984285D02*
X141275866Y-143908094D01*
X65667295Y-40711904D02*
X64867295Y-40711904D01*
X64867295Y-40711904D02*
X64867295Y-40902380D01*
X64867295Y-40902380D02*
X64905390Y-41016666D01*
X64905390Y-41016666D02*
X64981580Y-41092856D01*
X64981580Y-41092856D02*
X65057771Y-41130951D01*
X65057771Y-41130951D02*
X65210152Y-41169047D01*
X65210152Y-41169047D02*
X65324438Y-41169047D01*
X65324438Y-41169047D02*
X65476819Y-41130951D01*
X65476819Y-41130951D02*
X65553009Y-41092856D01*
X65553009Y-41092856D02*
X65629200Y-41016666D01*
X65629200Y-41016666D02*
X65667295Y-40902380D01*
X65667295Y-40902380D02*
X65667295Y-40711904D01*
X65743485Y-41321428D02*
X65743485Y-41930951D01*
X65248247Y-42121428D02*
X65248247Y-42388094D01*
X65667295Y-42502380D02*
X65667295Y-42121428D01*
X65667295Y-42121428D02*
X64867295Y-42121428D01*
X64867295Y-42121428D02*
X64867295Y-42502380D01*
X65629200Y-42807142D02*
X65667295Y-42921428D01*
X65667295Y-42921428D02*
X65667295Y-43111904D01*
X65667295Y-43111904D02*
X65629200Y-43188095D01*
X65629200Y-43188095D02*
X65591104Y-43226190D01*
X65591104Y-43226190D02*
X65514914Y-43264285D01*
X65514914Y-43264285D02*
X65438723Y-43264285D01*
X65438723Y-43264285D02*
X65362533Y-43226190D01*
X65362533Y-43226190D02*
X65324438Y-43188095D01*
X65324438Y-43188095D02*
X65286342Y-43111904D01*
X65286342Y-43111904D02*
X65248247Y-42959523D01*
X65248247Y-42959523D02*
X65210152Y-42883333D01*
X65210152Y-42883333D02*
X65172057Y-42845238D01*
X65172057Y-42845238D02*
X65095866Y-42807142D01*
X65095866Y-42807142D02*
X65019676Y-42807142D01*
X65019676Y-42807142D02*
X64943485Y-42845238D01*
X64943485Y-42845238D02*
X64905390Y-42883333D01*
X64905390Y-42883333D02*
X64867295Y-42959523D01*
X64867295Y-42959523D02*
X64867295Y-43150000D01*
X64867295Y-43150000D02*
X64905390Y-43264285D01*
X65591104Y-44064286D02*
X65629200Y-44026190D01*
X65629200Y-44026190D02*
X65667295Y-43911905D01*
X65667295Y-43911905D02*
X65667295Y-43835714D01*
X65667295Y-43835714D02*
X65629200Y-43721428D01*
X65629200Y-43721428D02*
X65553009Y-43645238D01*
X65553009Y-43645238D02*
X65476819Y-43607143D01*
X65476819Y-43607143D02*
X65324438Y-43569047D01*
X65324438Y-43569047D02*
X65210152Y-43569047D01*
X65210152Y-43569047D02*
X65057771Y-43607143D01*
X65057771Y-43607143D02*
X64981580Y-43645238D01*
X64981580Y-43645238D02*
X64905390Y-43721428D01*
X64905390Y-43721428D02*
X64867295Y-43835714D01*
X64867295Y-43835714D02*
X64867295Y-43911905D01*
X64867295Y-43911905D02*
X64905390Y-44026190D01*
X64905390Y-44026190D02*
X64943485Y-44064286D01*
X65667295Y-44826190D02*
X65667295Y-44369047D01*
X65667295Y-44597619D02*
X64867295Y-44597619D01*
X64867295Y-44597619D02*
X64981580Y-44521428D01*
X64981580Y-44521428D02*
X65057771Y-44445238D01*
X65057771Y-44445238D02*
X65095866Y-44369047D01*
X65614795Y-65504881D02*
X64814795Y-65504881D01*
X64814795Y-65504881D02*
X64814795Y-65695357D01*
X64814795Y-65695357D02*
X64852890Y-65809643D01*
X64852890Y-65809643D02*
X64929080Y-65885833D01*
X64929080Y-65885833D02*
X65005271Y-65923928D01*
X65005271Y-65923928D02*
X65157652Y-65962024D01*
X65157652Y-65962024D02*
X65271938Y-65962024D01*
X65271938Y-65962024D02*
X65424319Y-65923928D01*
X65424319Y-65923928D02*
X65500509Y-65885833D01*
X65500509Y-65885833D02*
X65576700Y-65809643D01*
X65576700Y-65809643D02*
X65614795Y-65695357D01*
X65614795Y-65695357D02*
X65614795Y-65504881D01*
X65690985Y-66114405D02*
X65690985Y-66723928D01*
X64776700Y-66800119D02*
X64890985Y-66914405D01*
X65614795Y-67638214D02*
X65614795Y-67181071D01*
X65614795Y-67409643D02*
X64814795Y-67409643D01*
X64814795Y-67409643D02*
X64929080Y-67333452D01*
X64929080Y-67333452D02*
X65005271Y-67257262D01*
X65005271Y-67257262D02*
X65043366Y-67181071D01*
X127607295Y-122353809D02*
X126807295Y-122353809D01*
X126807295Y-122353809D02*
X126807295Y-122544285D01*
X126807295Y-122544285D02*
X126845390Y-122658571D01*
X126845390Y-122658571D02*
X126921580Y-122734761D01*
X126921580Y-122734761D02*
X126997771Y-122772856D01*
X126997771Y-122772856D02*
X127150152Y-122810952D01*
X127150152Y-122810952D02*
X127264438Y-122810952D01*
X127264438Y-122810952D02*
X127416819Y-122772856D01*
X127416819Y-122772856D02*
X127493009Y-122734761D01*
X127493009Y-122734761D02*
X127569200Y-122658571D01*
X127569200Y-122658571D02*
X127607295Y-122544285D01*
X127607295Y-122544285D02*
X127607295Y-122353809D01*
X127683485Y-122963333D02*
X127683485Y-123572856D01*
X126807295Y-123687142D02*
X127607295Y-124220476D01*
X126807295Y-124220476D02*
X127607295Y-123687142D01*
X127607295Y-124944285D02*
X127607295Y-124487142D01*
X127607295Y-124715714D02*
X126807295Y-124715714D01*
X126807295Y-124715714D02*
X126921580Y-124639523D01*
X126921580Y-124639523D02*
X126997771Y-124563333D01*
X126997771Y-124563333D02*
X127035866Y-124487142D01*
X189477295Y-84301905D02*
X188677295Y-84301905D01*
X188677295Y-84301905D02*
X188677295Y-84492381D01*
X188677295Y-84492381D02*
X188715390Y-84606667D01*
X188715390Y-84606667D02*
X188791580Y-84682857D01*
X188791580Y-84682857D02*
X188867771Y-84720952D01*
X188867771Y-84720952D02*
X189020152Y-84759048D01*
X189020152Y-84759048D02*
X189134438Y-84759048D01*
X189134438Y-84759048D02*
X189286819Y-84720952D01*
X189286819Y-84720952D02*
X189363009Y-84682857D01*
X189363009Y-84682857D02*
X189439200Y-84606667D01*
X189439200Y-84606667D02*
X189477295Y-84492381D01*
X189477295Y-84492381D02*
X189477295Y-84301905D01*
X189553485Y-84911429D02*
X189553485Y-85520952D01*
X189096342Y-85863810D02*
X189477295Y-85863810D01*
X188677295Y-85597143D02*
X189096342Y-85863810D01*
X189096342Y-85863810D02*
X188677295Y-86130476D01*
X189477295Y-86816190D02*
X189477295Y-86359047D01*
X189477295Y-86587619D02*
X188677295Y-86587619D01*
X188677295Y-86587619D02*
X188791580Y-86511428D01*
X188791580Y-86511428D02*
X188867771Y-86435238D01*
X188867771Y-86435238D02*
X188905866Y-86359047D01*
X118062295Y-103343809D02*
X117262295Y-103343809D01*
X117262295Y-103343809D02*
X117262295Y-103534285D01*
X117262295Y-103534285D02*
X117300390Y-103648571D01*
X117300390Y-103648571D02*
X117376580Y-103724761D01*
X117376580Y-103724761D02*
X117452771Y-103762856D01*
X117452771Y-103762856D02*
X117605152Y-103800952D01*
X117605152Y-103800952D02*
X117719438Y-103800952D01*
X117719438Y-103800952D02*
X117871819Y-103762856D01*
X117871819Y-103762856D02*
X117948009Y-103724761D01*
X117948009Y-103724761D02*
X118024200Y-103648571D01*
X118024200Y-103648571D02*
X118062295Y-103534285D01*
X118062295Y-103534285D02*
X118062295Y-103343809D01*
X118138485Y-103953333D02*
X118138485Y-104562856D01*
X118024200Y-104715237D02*
X118062295Y-104829523D01*
X118062295Y-104829523D02*
X118062295Y-105019999D01*
X118062295Y-105019999D02*
X118024200Y-105096190D01*
X118024200Y-105096190D02*
X117986104Y-105134285D01*
X117986104Y-105134285D02*
X117909914Y-105172380D01*
X117909914Y-105172380D02*
X117833723Y-105172380D01*
X117833723Y-105172380D02*
X117757533Y-105134285D01*
X117757533Y-105134285D02*
X117719438Y-105096190D01*
X117719438Y-105096190D02*
X117681342Y-105019999D01*
X117681342Y-105019999D02*
X117643247Y-104867618D01*
X117643247Y-104867618D02*
X117605152Y-104791428D01*
X117605152Y-104791428D02*
X117567057Y-104753333D01*
X117567057Y-104753333D02*
X117490866Y-104715237D01*
X117490866Y-104715237D02*
X117414676Y-104715237D01*
X117414676Y-104715237D02*
X117338485Y-104753333D01*
X117338485Y-104753333D02*
X117300390Y-104791428D01*
X117300390Y-104791428D02*
X117262295Y-104867618D01*
X117262295Y-104867618D02*
X117262295Y-105058095D01*
X117262295Y-105058095D02*
X117300390Y-105172380D01*
X118062295Y-105934285D02*
X118062295Y-105477142D01*
X118062295Y-105705714D02*
X117262295Y-105705714D01*
X117262295Y-105705714D02*
X117376580Y-105629523D01*
X117376580Y-105629523D02*
X117452771Y-105553333D01*
X117452771Y-105553333D02*
X117490866Y-105477142D01*
X118039795Y-140858333D02*
X117239795Y-140858333D01*
X117239795Y-140858333D02*
X117239795Y-141048809D01*
X117239795Y-141048809D02*
X117277890Y-141163095D01*
X117277890Y-141163095D02*
X117354080Y-141239285D01*
X117354080Y-141239285D02*
X117430271Y-141277380D01*
X117430271Y-141277380D02*
X117582652Y-141315476D01*
X117582652Y-141315476D02*
X117696938Y-141315476D01*
X117696938Y-141315476D02*
X117849319Y-141277380D01*
X117849319Y-141277380D02*
X117925509Y-141239285D01*
X117925509Y-141239285D02*
X118001700Y-141163095D01*
X118001700Y-141163095D02*
X118039795Y-141048809D01*
X118039795Y-141048809D02*
X118039795Y-140858333D01*
X118115985Y-141467857D02*
X118115985Y-142077380D01*
X117811223Y-142229761D02*
X117811223Y-142610714D01*
X118039795Y-142153571D02*
X117239795Y-142420238D01*
X117239795Y-142420238D02*
X118039795Y-142686904D01*
X118039795Y-143334523D02*
X118039795Y-142953571D01*
X118039795Y-142953571D02*
X117239795Y-142953571D01*
X117239795Y-143486904D02*
X117239795Y-143944047D01*
X118039795Y-143715475D02*
X117239795Y-143715475D01*
X118039795Y-144629761D02*
X118039795Y-144172618D01*
X118039795Y-144401190D02*
X117239795Y-144401190D01*
X117239795Y-144401190D02*
X117354080Y-144324999D01*
X117354080Y-144324999D02*
X117430271Y-144248809D01*
X117430271Y-144248809D02*
X117468366Y-144172618D01*
X98997295Y-103341905D02*
X98197295Y-103341905D01*
X98197295Y-103341905D02*
X98197295Y-103532381D01*
X98197295Y-103532381D02*
X98235390Y-103646667D01*
X98235390Y-103646667D02*
X98311580Y-103722857D01*
X98311580Y-103722857D02*
X98387771Y-103760952D01*
X98387771Y-103760952D02*
X98540152Y-103799048D01*
X98540152Y-103799048D02*
X98654438Y-103799048D01*
X98654438Y-103799048D02*
X98806819Y-103760952D01*
X98806819Y-103760952D02*
X98883009Y-103722857D01*
X98883009Y-103722857D02*
X98959200Y-103646667D01*
X98959200Y-103646667D02*
X98997295Y-103532381D01*
X98997295Y-103532381D02*
X98997295Y-103341905D01*
X99073485Y-103951429D02*
X99073485Y-104560952D01*
X98768723Y-104713333D02*
X98768723Y-105094286D01*
X98997295Y-104637143D02*
X98197295Y-104903810D01*
X98197295Y-104903810D02*
X98997295Y-105170476D01*
X98997295Y-105856190D02*
X98997295Y-105399047D01*
X98997295Y-105627619D02*
X98197295Y-105627619D01*
X98197295Y-105627619D02*
X98311580Y-105551428D01*
X98311580Y-105551428D02*
X98387771Y-105475238D01*
X98387771Y-105475238D02*
X98425866Y-105399047D01*
X122797295Y-41441905D02*
X121997295Y-41441905D01*
X121997295Y-41441905D02*
X121997295Y-41632381D01*
X121997295Y-41632381D02*
X122035390Y-41746667D01*
X122035390Y-41746667D02*
X122111580Y-41822857D01*
X122111580Y-41822857D02*
X122187771Y-41860952D01*
X122187771Y-41860952D02*
X122340152Y-41899048D01*
X122340152Y-41899048D02*
X122454438Y-41899048D01*
X122454438Y-41899048D02*
X122606819Y-41860952D01*
X122606819Y-41860952D02*
X122683009Y-41822857D01*
X122683009Y-41822857D02*
X122759200Y-41746667D01*
X122759200Y-41746667D02*
X122797295Y-41632381D01*
X122797295Y-41632381D02*
X122797295Y-41441905D01*
X122873485Y-42051429D02*
X122873485Y-42660952D01*
X122378247Y-43118095D02*
X122378247Y-42851429D01*
X122797295Y-42851429D02*
X121997295Y-42851429D01*
X121997295Y-42851429D02*
X121997295Y-43232381D01*
X122073485Y-43499047D02*
X122035390Y-43537143D01*
X122035390Y-43537143D02*
X121997295Y-43613333D01*
X121997295Y-43613333D02*
X121997295Y-43803809D01*
X121997295Y-43803809D02*
X122035390Y-43880000D01*
X122035390Y-43880000D02*
X122073485Y-43918095D01*
X122073485Y-43918095D02*
X122149676Y-43956190D01*
X122149676Y-43956190D02*
X122225866Y-43956190D01*
X122225866Y-43956190D02*
X122340152Y-43918095D01*
X122340152Y-43918095D02*
X122797295Y-43460952D01*
X122797295Y-43460952D02*
X122797295Y-43956190D01*
X132337295Y-84352857D02*
X131537295Y-84352857D01*
X131537295Y-84352857D02*
X131537295Y-84543333D01*
X131537295Y-84543333D02*
X131575390Y-84657619D01*
X131575390Y-84657619D02*
X131651580Y-84733809D01*
X131651580Y-84733809D02*
X131727771Y-84771904D01*
X131727771Y-84771904D02*
X131880152Y-84810000D01*
X131880152Y-84810000D02*
X131994438Y-84810000D01*
X131994438Y-84810000D02*
X132146819Y-84771904D01*
X132146819Y-84771904D02*
X132223009Y-84733809D01*
X132223009Y-84733809D02*
X132299200Y-84657619D01*
X132299200Y-84657619D02*
X132337295Y-84543333D01*
X132337295Y-84543333D02*
X132337295Y-84352857D01*
X132413485Y-84962381D02*
X132413485Y-85571904D01*
X131918247Y-85762381D02*
X131918247Y-86029047D01*
X132337295Y-86143333D02*
X132337295Y-85762381D01*
X132337295Y-85762381D02*
X131537295Y-85762381D01*
X131537295Y-85762381D02*
X131537295Y-86143333D01*
X132337295Y-86905238D02*
X132337295Y-86448095D01*
X132337295Y-86676667D02*
X131537295Y-86676667D01*
X131537295Y-86676667D02*
X131651580Y-86600476D01*
X131651580Y-86600476D02*
X131727771Y-86524286D01*
X131727771Y-86524286D02*
X131765866Y-86448095D01*
X197854728Y-142491332D02*
X198254728Y-141798511D01*
X198254728Y-141798511D02*
X198089770Y-141703273D01*
X198089770Y-141703273D02*
X197971748Y-141679122D01*
X197971748Y-141679122D02*
X197867670Y-141707010D01*
X197867670Y-141707010D02*
X197796584Y-141753945D01*
X197796584Y-141753945D02*
X197687402Y-141866863D01*
X197687402Y-141866863D02*
X197630259Y-141965837D01*
X197630259Y-141965837D02*
X197587060Y-142116851D01*
X197587060Y-142116851D02*
X197581956Y-142201881D01*
X197581956Y-142201881D02*
X197609844Y-142305959D01*
X197609844Y-142305959D02*
X197689770Y-142396094D01*
X197689770Y-142396094D02*
X197854728Y-142491332D01*
X197288769Y-142252553D02*
X196760906Y-141947791D01*
X196686083Y-141772626D02*
X196568061Y-141748475D01*
X196568061Y-141748475D02*
X196403104Y-141653236D01*
X196403104Y-141653236D02*
X196356169Y-141582150D01*
X196356169Y-141582150D02*
X196342225Y-141530111D01*
X196342225Y-141530111D02*
X196347329Y-141445080D01*
X196347329Y-141445080D02*
X196385424Y-141379097D01*
X196385424Y-141379097D02*
X196456511Y-141332162D01*
X196456511Y-141332162D02*
X196508550Y-141318218D01*
X196508550Y-141318218D02*
X196593580Y-141323322D01*
X196593580Y-141323322D02*
X196744594Y-141366521D01*
X196744594Y-141366521D02*
X196829624Y-141371625D01*
X196829624Y-141371625D02*
X196881663Y-141357681D01*
X196881663Y-141357681D02*
X196952750Y-141310746D01*
X196952750Y-141310746D02*
X196990845Y-141244763D01*
X196990845Y-141244763D02*
X196995949Y-141159732D01*
X196995949Y-141159732D02*
X196982005Y-141107693D01*
X196982005Y-141107693D02*
X196935070Y-141036607D01*
X196935070Y-141036607D02*
X196770113Y-140941369D01*
X196770113Y-140941369D02*
X196652091Y-140917217D01*
X195974215Y-141405617D02*
X196374215Y-140712797D01*
X196374215Y-140712797D02*
X196110283Y-140560416D01*
X196110283Y-140560416D02*
X196025253Y-140555312D01*
X196025253Y-140555312D02*
X195973214Y-140569256D01*
X195973214Y-140569256D02*
X195902127Y-140616191D01*
X195902127Y-140616191D02*
X195844984Y-140715166D01*
X195844984Y-140715166D02*
X195839881Y-140800196D01*
X195839881Y-140800196D02*
X195853824Y-140852235D01*
X195853824Y-140852235D02*
X195900760Y-140923322D01*
X195900760Y-140923322D02*
X196164691Y-141075703D01*
X195428672Y-140826716D02*
X195098757Y-140636240D01*
X195380369Y-141062760D02*
X195549429Y-140236606D01*
X195549429Y-140236606D02*
X194918489Y-140796093D01*
X194329747Y-140368206D02*
X194343691Y-140420245D01*
X194343691Y-140420245D02*
X194423617Y-140510379D01*
X194423617Y-140510379D02*
X194489600Y-140548475D01*
X194489600Y-140548475D02*
X194607622Y-140572626D01*
X194607622Y-140572626D02*
X194711700Y-140544738D01*
X194711700Y-140544738D02*
X194782787Y-140497803D01*
X194782787Y-140497803D02*
X194891969Y-140384885D01*
X194891969Y-140384885D02*
X194949112Y-140285911D01*
X194949112Y-140285911D02*
X194992311Y-140134897D01*
X194992311Y-140134897D02*
X194997415Y-140049867D01*
X194997415Y-140049867D02*
X194969527Y-139945789D01*
X194969527Y-139945789D02*
X194889600Y-139855654D01*
X194889600Y-139855654D02*
X194823617Y-139817559D01*
X194823617Y-139817559D02*
X194705595Y-139793408D01*
X194705595Y-139793408D02*
X194653556Y-139807351D01*
X194204252Y-139899854D02*
X193973312Y-139766521D01*
X193664814Y-140072284D02*
X193994729Y-140262760D01*
X193994729Y-140262760D02*
X194394729Y-139569940D01*
X194394729Y-139569940D02*
X194064814Y-139379464D01*
X193004985Y-139691331D02*
X193400882Y-139919903D01*
X193202934Y-139805617D02*
X193602934Y-139112797D01*
X193602934Y-139112797D02*
X193611774Y-139249866D01*
X193611774Y-139249866D02*
X193639661Y-139353945D01*
X193639661Y-139353945D02*
X193686596Y-139425031D01*
X160917295Y-65594762D02*
X160117295Y-65594762D01*
X160117295Y-65594762D02*
X160117295Y-65785238D01*
X160117295Y-65785238D02*
X160155390Y-65899524D01*
X160155390Y-65899524D02*
X160231580Y-65975714D01*
X160231580Y-65975714D02*
X160307771Y-66013809D01*
X160307771Y-66013809D02*
X160460152Y-66051905D01*
X160460152Y-66051905D02*
X160574438Y-66051905D01*
X160574438Y-66051905D02*
X160726819Y-66013809D01*
X160726819Y-66013809D02*
X160803009Y-65975714D01*
X160803009Y-65975714D02*
X160879200Y-65899524D01*
X160879200Y-65899524D02*
X160917295Y-65785238D01*
X160917295Y-65785238D02*
X160917295Y-65594762D01*
X160993485Y-66204286D02*
X160993485Y-66813809D01*
X160117295Y-67385238D02*
X160117295Y-67004286D01*
X160117295Y-67004286D02*
X160498247Y-66966190D01*
X160498247Y-66966190D02*
X160460152Y-67004286D01*
X160460152Y-67004286D02*
X160422057Y-67080476D01*
X160422057Y-67080476D02*
X160422057Y-67270952D01*
X160422057Y-67270952D02*
X160460152Y-67347143D01*
X160460152Y-67347143D02*
X160498247Y-67385238D01*
X160498247Y-67385238D02*
X160574438Y-67423333D01*
X160574438Y-67423333D02*
X160764914Y-67423333D01*
X160764914Y-67423333D02*
X160841104Y-67385238D01*
X160841104Y-67385238D02*
X160879200Y-67347143D01*
X160879200Y-67347143D02*
X160917295Y-67270952D01*
X160917295Y-67270952D02*
X160917295Y-67080476D01*
X160917295Y-67080476D02*
X160879200Y-67004286D01*
X160879200Y-67004286D02*
X160841104Y-66966190D01*
X170447295Y-84340000D02*
X169647295Y-84340000D01*
X169647295Y-84340000D02*
X169647295Y-84530476D01*
X169647295Y-84530476D02*
X169685390Y-84644762D01*
X169685390Y-84644762D02*
X169761580Y-84720952D01*
X169761580Y-84720952D02*
X169837771Y-84759047D01*
X169837771Y-84759047D02*
X169990152Y-84797143D01*
X169990152Y-84797143D02*
X170104438Y-84797143D01*
X170104438Y-84797143D02*
X170256819Y-84759047D01*
X170256819Y-84759047D02*
X170333009Y-84720952D01*
X170333009Y-84720952D02*
X170409200Y-84644762D01*
X170409200Y-84644762D02*
X170447295Y-84530476D01*
X170447295Y-84530476D02*
X170447295Y-84340000D01*
X170523485Y-84949524D02*
X170523485Y-85559047D01*
X169647295Y-85635238D02*
X169647295Y-86092381D01*
X170447295Y-85863809D02*
X169647295Y-85863809D01*
X170447295Y-86778095D02*
X170447295Y-86320952D01*
X170447295Y-86549524D02*
X169647295Y-86549524D01*
X169647295Y-86549524D02*
X169761580Y-86473333D01*
X169761580Y-86473333D02*
X169837771Y-86397143D01*
X169837771Y-86397143D02*
X169875866Y-86320952D01*
X103737295Y-41461905D02*
X102937295Y-41461905D01*
X102937295Y-41461905D02*
X102937295Y-41652381D01*
X102937295Y-41652381D02*
X102975390Y-41766667D01*
X102975390Y-41766667D02*
X103051580Y-41842857D01*
X103051580Y-41842857D02*
X103127771Y-41880952D01*
X103127771Y-41880952D02*
X103280152Y-41919048D01*
X103280152Y-41919048D02*
X103394438Y-41919048D01*
X103394438Y-41919048D02*
X103546819Y-41880952D01*
X103546819Y-41880952D02*
X103623009Y-41842857D01*
X103623009Y-41842857D02*
X103699200Y-41766667D01*
X103699200Y-41766667D02*
X103737295Y-41652381D01*
X103737295Y-41652381D02*
X103737295Y-41461905D01*
X103813485Y-42071429D02*
X103813485Y-42680952D01*
X103318247Y-43138095D02*
X103318247Y-42871429D01*
X103737295Y-42871429D02*
X102937295Y-42871429D01*
X102937295Y-42871429D02*
X102937295Y-43252381D01*
X103737295Y-43976190D02*
X103737295Y-43519047D01*
X103737295Y-43747619D02*
X102937295Y-43747619D01*
X102937295Y-43747619D02*
X103051580Y-43671428D01*
X103051580Y-43671428D02*
X103127771Y-43595238D01*
X103127771Y-43595238D02*
X103165866Y-43519047D01*
X94207295Y-84285714D02*
X93407295Y-84285714D01*
X93407295Y-84285714D02*
X93407295Y-84476190D01*
X93407295Y-84476190D02*
X93445390Y-84590476D01*
X93445390Y-84590476D02*
X93521580Y-84666666D01*
X93521580Y-84666666D02*
X93597771Y-84704761D01*
X93597771Y-84704761D02*
X93750152Y-84742857D01*
X93750152Y-84742857D02*
X93864438Y-84742857D01*
X93864438Y-84742857D02*
X94016819Y-84704761D01*
X94016819Y-84704761D02*
X94093009Y-84666666D01*
X94093009Y-84666666D02*
X94169200Y-84590476D01*
X94169200Y-84590476D02*
X94207295Y-84476190D01*
X94207295Y-84476190D02*
X94207295Y-84285714D01*
X94283485Y-84895238D02*
X94283485Y-85504761D01*
X94283485Y-86228571D02*
X94245390Y-86152381D01*
X94245390Y-86152381D02*
X94169200Y-86076190D01*
X94169200Y-86076190D02*
X94054914Y-85961904D01*
X94054914Y-85961904D02*
X94016819Y-85885714D01*
X94016819Y-85885714D02*
X94016819Y-85809523D01*
X94207295Y-85847619D02*
X94169200Y-85771428D01*
X94169200Y-85771428D02*
X94093009Y-85695238D01*
X94093009Y-85695238D02*
X93940628Y-85657142D01*
X93940628Y-85657142D02*
X93673961Y-85657142D01*
X93673961Y-85657142D02*
X93521580Y-85695238D01*
X93521580Y-85695238D02*
X93445390Y-85771428D01*
X93445390Y-85771428D02*
X93407295Y-85847619D01*
X93407295Y-85847619D02*
X93407295Y-86000000D01*
X93407295Y-86000000D02*
X93445390Y-86076190D01*
X93445390Y-86076190D02*
X93521580Y-86152381D01*
X93521580Y-86152381D02*
X93673961Y-86190476D01*
X93673961Y-86190476D02*
X93940628Y-86190476D01*
X93940628Y-86190476D02*
X94093009Y-86152381D01*
X94093009Y-86152381D02*
X94169200Y-86076190D01*
X94169200Y-86076190D02*
X94207295Y-86000000D01*
X94207295Y-86000000D02*
X94207295Y-85847619D01*
X94207295Y-86952380D02*
X94207295Y-86495237D01*
X94207295Y-86723809D02*
X93407295Y-86723809D01*
X93407295Y-86723809D02*
X93521580Y-86647618D01*
X93521580Y-86647618D02*
X93597771Y-86571428D01*
X93597771Y-86571428D02*
X93635866Y-86495237D01*
X146652295Y-122369762D02*
X145852295Y-122369762D01*
X145852295Y-122369762D02*
X145852295Y-122560238D01*
X145852295Y-122560238D02*
X145890390Y-122674524D01*
X145890390Y-122674524D02*
X145966580Y-122750714D01*
X145966580Y-122750714D02*
X146042771Y-122788809D01*
X146042771Y-122788809D02*
X146195152Y-122826905D01*
X146195152Y-122826905D02*
X146309438Y-122826905D01*
X146309438Y-122826905D02*
X146461819Y-122788809D01*
X146461819Y-122788809D02*
X146538009Y-122750714D01*
X146538009Y-122750714D02*
X146614200Y-122674524D01*
X146614200Y-122674524D02*
X146652295Y-122560238D01*
X146652295Y-122560238D02*
X146652295Y-122369762D01*
X146728485Y-122979286D02*
X146728485Y-123588809D01*
X146576104Y-124236429D02*
X146614200Y-124198333D01*
X146614200Y-124198333D02*
X146652295Y-124084048D01*
X146652295Y-124084048D02*
X146652295Y-124007857D01*
X146652295Y-124007857D02*
X146614200Y-123893571D01*
X146614200Y-123893571D02*
X146538009Y-123817381D01*
X146538009Y-123817381D02*
X146461819Y-123779286D01*
X146461819Y-123779286D02*
X146309438Y-123741190D01*
X146309438Y-123741190D02*
X146195152Y-123741190D01*
X146195152Y-123741190D02*
X146042771Y-123779286D01*
X146042771Y-123779286D02*
X145966580Y-123817381D01*
X145966580Y-123817381D02*
X145890390Y-123893571D01*
X145890390Y-123893571D02*
X145852295Y-124007857D01*
X145852295Y-124007857D02*
X145852295Y-124084048D01*
X145852295Y-124084048D02*
X145890390Y-124198333D01*
X145890390Y-124198333D02*
X145928485Y-124236429D01*
X146652295Y-124998333D02*
X146652295Y-124541190D01*
X146652295Y-124769762D02*
X145852295Y-124769762D01*
X145852295Y-124769762D02*
X145966580Y-124693571D01*
X145966580Y-124693571D02*
X146042771Y-124617381D01*
X146042771Y-124617381D02*
X146080866Y-124541190D01*
X70397295Y-140416190D02*
X69597295Y-140416190D01*
X69597295Y-140416190D02*
X69597295Y-140606666D01*
X69597295Y-140606666D02*
X69635390Y-140720952D01*
X69635390Y-140720952D02*
X69711580Y-140797142D01*
X69711580Y-140797142D02*
X69787771Y-140835237D01*
X69787771Y-140835237D02*
X69940152Y-140873333D01*
X69940152Y-140873333D02*
X70054438Y-140873333D01*
X70054438Y-140873333D02*
X70206819Y-140835237D01*
X70206819Y-140835237D02*
X70283009Y-140797142D01*
X70283009Y-140797142D02*
X70359200Y-140720952D01*
X70359200Y-140720952D02*
X70397295Y-140606666D01*
X70397295Y-140606666D02*
X70397295Y-140416190D01*
X70473485Y-141025714D02*
X70473485Y-141635237D01*
X70321104Y-142282857D02*
X70359200Y-142244761D01*
X70359200Y-142244761D02*
X70397295Y-142130476D01*
X70397295Y-142130476D02*
X70397295Y-142054285D01*
X70397295Y-142054285D02*
X70359200Y-141939999D01*
X70359200Y-141939999D02*
X70283009Y-141863809D01*
X70283009Y-141863809D02*
X70206819Y-141825714D01*
X70206819Y-141825714D02*
X70054438Y-141787618D01*
X70054438Y-141787618D02*
X69940152Y-141787618D01*
X69940152Y-141787618D02*
X69787771Y-141825714D01*
X69787771Y-141825714D02*
X69711580Y-141863809D01*
X69711580Y-141863809D02*
X69635390Y-141939999D01*
X69635390Y-141939999D02*
X69597295Y-142054285D01*
X69597295Y-142054285D02*
X69597295Y-142130476D01*
X69597295Y-142130476D02*
X69635390Y-142244761D01*
X69635390Y-142244761D02*
X69673485Y-142282857D01*
X69597295Y-142511428D02*
X69597295Y-142968571D01*
X70397295Y-142739999D02*
X69597295Y-142739999D01*
X70397295Y-143692381D02*
X70016342Y-143425714D01*
X70397295Y-143235238D02*
X69597295Y-143235238D01*
X69597295Y-143235238D02*
X69597295Y-143540000D01*
X69597295Y-143540000D02*
X69635390Y-143616190D01*
X69635390Y-143616190D02*
X69673485Y-143654285D01*
X69673485Y-143654285D02*
X69749676Y-143692381D01*
X69749676Y-143692381D02*
X69863961Y-143692381D01*
X69863961Y-143692381D02*
X69940152Y-143654285D01*
X69940152Y-143654285D02*
X69978247Y-143616190D01*
X69978247Y-143616190D02*
X70016342Y-143540000D01*
X70016342Y-143540000D02*
X70016342Y-143235238D01*
X70397295Y-144416190D02*
X70397295Y-144035238D01*
X70397295Y-144035238D02*
X69597295Y-144035238D01*
X70397295Y-145101904D02*
X70397295Y-144644761D01*
X70397295Y-144873333D02*
X69597295Y-144873333D01*
X69597295Y-144873333D02*
X69711580Y-144797142D01*
X69711580Y-144797142D02*
X69787771Y-144720952D01*
X69787771Y-144720952D02*
X69825866Y-144644761D01*
X137079795Y-103269762D02*
X136279795Y-103269762D01*
X136279795Y-103269762D02*
X136279795Y-103460238D01*
X136279795Y-103460238D02*
X136317890Y-103574524D01*
X136317890Y-103574524D02*
X136394080Y-103650714D01*
X136394080Y-103650714D02*
X136470271Y-103688809D01*
X136470271Y-103688809D02*
X136622652Y-103726905D01*
X136622652Y-103726905D02*
X136736938Y-103726905D01*
X136736938Y-103726905D02*
X136889319Y-103688809D01*
X136889319Y-103688809D02*
X136965509Y-103650714D01*
X136965509Y-103650714D02*
X137041700Y-103574524D01*
X137041700Y-103574524D02*
X137079795Y-103460238D01*
X137079795Y-103460238D02*
X137079795Y-103269762D01*
X137155985Y-103879286D02*
X137155985Y-104488809D01*
X137079795Y-104679286D02*
X136279795Y-104679286D01*
X136279795Y-104679286D02*
X136279795Y-104869762D01*
X136279795Y-104869762D02*
X136317890Y-104984048D01*
X136317890Y-104984048D02*
X136394080Y-105060238D01*
X136394080Y-105060238D02*
X136470271Y-105098333D01*
X136470271Y-105098333D02*
X136622652Y-105136429D01*
X136622652Y-105136429D02*
X136736938Y-105136429D01*
X136736938Y-105136429D02*
X136889319Y-105098333D01*
X136889319Y-105098333D02*
X136965509Y-105060238D01*
X136965509Y-105060238D02*
X137041700Y-104984048D01*
X137041700Y-104984048D02*
X137079795Y-104869762D01*
X137079795Y-104869762D02*
X137079795Y-104679286D01*
X137079795Y-105898333D02*
X137079795Y-105441190D01*
X137079795Y-105669762D02*
X136279795Y-105669762D01*
X136279795Y-105669762D02*
X136394080Y-105593571D01*
X136394080Y-105593571D02*
X136470271Y-105517381D01*
X136470271Y-105517381D02*
X136508366Y-105441190D01*
X75172295Y-83657143D02*
X74372295Y-83657143D01*
X74372295Y-83657143D02*
X74372295Y-83847619D01*
X74372295Y-83847619D02*
X74410390Y-83961905D01*
X74410390Y-83961905D02*
X74486580Y-84038095D01*
X74486580Y-84038095D02*
X74562771Y-84076190D01*
X74562771Y-84076190D02*
X74715152Y-84114286D01*
X74715152Y-84114286D02*
X74829438Y-84114286D01*
X74829438Y-84114286D02*
X74981819Y-84076190D01*
X74981819Y-84076190D02*
X75058009Y-84038095D01*
X75058009Y-84038095D02*
X75134200Y-83961905D01*
X75134200Y-83961905D02*
X75172295Y-83847619D01*
X75172295Y-83847619D02*
X75172295Y-83657143D01*
X75248485Y-84266667D02*
X75248485Y-84876190D01*
X74372295Y-84952381D02*
X74372295Y-85409524D01*
X75172295Y-85180952D02*
X74372295Y-85180952D01*
X74943723Y-85638095D02*
X74943723Y-86019048D01*
X75172295Y-85561905D02*
X74372295Y-85828572D01*
X74372295Y-85828572D02*
X75172295Y-86095238D01*
X74753247Y-86628571D02*
X74791342Y-86742857D01*
X74791342Y-86742857D02*
X74829438Y-86780952D01*
X74829438Y-86780952D02*
X74905628Y-86819048D01*
X74905628Y-86819048D02*
X75019914Y-86819048D01*
X75019914Y-86819048D02*
X75096104Y-86780952D01*
X75096104Y-86780952D02*
X75134200Y-86742857D01*
X75134200Y-86742857D02*
X75172295Y-86666667D01*
X75172295Y-86666667D02*
X75172295Y-86361905D01*
X75172295Y-86361905D02*
X74372295Y-86361905D01*
X74372295Y-86361905D02*
X74372295Y-86628571D01*
X74372295Y-86628571D02*
X74410390Y-86704762D01*
X74410390Y-86704762D02*
X74448485Y-86742857D01*
X74448485Y-86742857D02*
X74524676Y-86780952D01*
X74524676Y-86780952D02*
X74600866Y-86780952D01*
X74600866Y-86780952D02*
X74677057Y-86742857D01*
X74677057Y-86742857D02*
X74715152Y-86704762D01*
X74715152Y-86704762D02*
X74753247Y-86628571D01*
X74753247Y-86628571D02*
X74753247Y-86361905D01*
X75172295Y-87580952D02*
X75172295Y-87123809D01*
X75172295Y-87352381D02*
X74372295Y-87352381D01*
X74372295Y-87352381D02*
X74486580Y-87276190D01*
X74486580Y-87276190D02*
X74562771Y-87200000D01*
X74562771Y-87200000D02*
X74600866Y-87123809D01*
X175187295Y-103304762D02*
X174387295Y-103304762D01*
X174387295Y-103304762D02*
X174387295Y-103495238D01*
X174387295Y-103495238D02*
X174425390Y-103609524D01*
X174425390Y-103609524D02*
X174501580Y-103685714D01*
X174501580Y-103685714D02*
X174577771Y-103723809D01*
X174577771Y-103723809D02*
X174730152Y-103761905D01*
X174730152Y-103761905D02*
X174844438Y-103761905D01*
X174844438Y-103761905D02*
X174996819Y-103723809D01*
X174996819Y-103723809D02*
X175073009Y-103685714D01*
X175073009Y-103685714D02*
X175149200Y-103609524D01*
X175149200Y-103609524D02*
X175187295Y-103495238D01*
X175187295Y-103495238D02*
X175187295Y-103304762D01*
X175263485Y-103914286D02*
X175263485Y-104523809D01*
X174425390Y-105133333D02*
X174387295Y-105057143D01*
X174387295Y-105057143D02*
X174387295Y-104942857D01*
X174387295Y-104942857D02*
X174425390Y-104828571D01*
X174425390Y-104828571D02*
X174501580Y-104752381D01*
X174501580Y-104752381D02*
X174577771Y-104714286D01*
X174577771Y-104714286D02*
X174730152Y-104676190D01*
X174730152Y-104676190D02*
X174844438Y-104676190D01*
X174844438Y-104676190D02*
X174996819Y-104714286D01*
X174996819Y-104714286D02*
X175073009Y-104752381D01*
X175073009Y-104752381D02*
X175149200Y-104828571D01*
X175149200Y-104828571D02*
X175187295Y-104942857D01*
X175187295Y-104942857D02*
X175187295Y-105019048D01*
X175187295Y-105019048D02*
X175149200Y-105133333D01*
X175149200Y-105133333D02*
X175111104Y-105171429D01*
X175111104Y-105171429D02*
X174844438Y-105171429D01*
X174844438Y-105171429D02*
X174844438Y-105019048D01*
X175187295Y-105933333D02*
X175187295Y-105476190D01*
X175187295Y-105704762D02*
X174387295Y-105704762D01*
X174387295Y-105704762D02*
X174501580Y-105628571D01*
X174501580Y-105628571D02*
X174577771Y-105552381D01*
X174577771Y-105552381D02*
X174615866Y-105476190D01*
X165679795Y-122391905D02*
X164879795Y-122391905D01*
X164879795Y-122391905D02*
X164879795Y-122582381D01*
X164879795Y-122582381D02*
X164917890Y-122696667D01*
X164917890Y-122696667D02*
X164994080Y-122772857D01*
X164994080Y-122772857D02*
X165070271Y-122810952D01*
X165070271Y-122810952D02*
X165222652Y-122849048D01*
X165222652Y-122849048D02*
X165336938Y-122849048D01*
X165336938Y-122849048D02*
X165489319Y-122810952D01*
X165489319Y-122810952D02*
X165565509Y-122772857D01*
X165565509Y-122772857D02*
X165641700Y-122696667D01*
X165641700Y-122696667D02*
X165679795Y-122582381D01*
X165679795Y-122582381D02*
X165679795Y-122391905D01*
X165755985Y-123001429D02*
X165755985Y-123610952D01*
X164879795Y-123687143D02*
X165679795Y-123953810D01*
X165679795Y-123953810D02*
X164879795Y-124220476D01*
X165679795Y-124906190D02*
X165679795Y-124449047D01*
X165679795Y-124677619D02*
X164879795Y-124677619D01*
X164879795Y-124677619D02*
X164994080Y-124601428D01*
X164994080Y-124601428D02*
X165070271Y-124525238D01*
X165070271Y-124525238D02*
X165108366Y-124449047D01*
X122817295Y-65634762D02*
X122017295Y-65634762D01*
X122017295Y-65634762D02*
X122017295Y-65825238D01*
X122017295Y-65825238D02*
X122055390Y-65939524D01*
X122055390Y-65939524D02*
X122131580Y-66015714D01*
X122131580Y-66015714D02*
X122207771Y-66053809D01*
X122207771Y-66053809D02*
X122360152Y-66091905D01*
X122360152Y-66091905D02*
X122474438Y-66091905D01*
X122474438Y-66091905D02*
X122626819Y-66053809D01*
X122626819Y-66053809D02*
X122703009Y-66015714D01*
X122703009Y-66015714D02*
X122779200Y-65939524D01*
X122779200Y-65939524D02*
X122817295Y-65825238D01*
X122817295Y-65825238D02*
X122817295Y-65634762D01*
X122893485Y-66244286D02*
X122893485Y-66853809D01*
X122017295Y-66968095D02*
X122017295Y-67463333D01*
X122017295Y-67463333D02*
X122322057Y-67196667D01*
X122322057Y-67196667D02*
X122322057Y-67310952D01*
X122322057Y-67310952D02*
X122360152Y-67387143D01*
X122360152Y-67387143D02*
X122398247Y-67425238D01*
X122398247Y-67425238D02*
X122474438Y-67463333D01*
X122474438Y-67463333D02*
X122664914Y-67463333D01*
X122664914Y-67463333D02*
X122741104Y-67425238D01*
X122741104Y-67425238D02*
X122779200Y-67387143D01*
X122779200Y-67387143D02*
X122817295Y-67310952D01*
X122817295Y-67310952D02*
X122817295Y-67082381D01*
X122817295Y-67082381D02*
X122779200Y-67006190D01*
X122779200Y-67006190D02*
X122741104Y-66968095D01*
X113267295Y-84247619D02*
X112467295Y-84247619D01*
X112467295Y-84247619D02*
X112467295Y-84438095D01*
X112467295Y-84438095D02*
X112505390Y-84552381D01*
X112505390Y-84552381D02*
X112581580Y-84628571D01*
X112581580Y-84628571D02*
X112657771Y-84666666D01*
X112657771Y-84666666D02*
X112810152Y-84704762D01*
X112810152Y-84704762D02*
X112924438Y-84704762D01*
X112924438Y-84704762D02*
X113076819Y-84666666D01*
X113076819Y-84666666D02*
X113153009Y-84628571D01*
X113153009Y-84628571D02*
X113229200Y-84552381D01*
X113229200Y-84552381D02*
X113267295Y-84438095D01*
X113267295Y-84438095D02*
X113267295Y-84247619D01*
X113343485Y-84857143D02*
X113343485Y-85466666D01*
X112467295Y-85580952D02*
X113267295Y-85771428D01*
X113267295Y-85771428D02*
X112695866Y-85923809D01*
X112695866Y-85923809D02*
X113267295Y-86076190D01*
X113267295Y-86076190D02*
X112467295Y-86266667D01*
X113267295Y-86990476D02*
X113267295Y-86533333D01*
X113267295Y-86761905D02*
X112467295Y-86761905D01*
X112467295Y-86761905D02*
X112581580Y-86685714D01*
X112581580Y-86685714D02*
X112657771Y-86609524D01*
X112657771Y-86609524D02*
X112695866Y-86533333D01*
X151409795Y-84269762D02*
X150609795Y-84269762D01*
X150609795Y-84269762D02*
X150609795Y-84460238D01*
X150609795Y-84460238D02*
X150647890Y-84574524D01*
X150647890Y-84574524D02*
X150724080Y-84650714D01*
X150724080Y-84650714D02*
X150800271Y-84688809D01*
X150800271Y-84688809D02*
X150952652Y-84726905D01*
X150952652Y-84726905D02*
X151066938Y-84726905D01*
X151066938Y-84726905D02*
X151219319Y-84688809D01*
X151219319Y-84688809D02*
X151295509Y-84650714D01*
X151295509Y-84650714D02*
X151371700Y-84574524D01*
X151371700Y-84574524D02*
X151409795Y-84460238D01*
X151409795Y-84460238D02*
X151409795Y-84269762D01*
X151485985Y-84879286D02*
X151485985Y-85488809D01*
X151409795Y-86136429D02*
X151028842Y-85869762D01*
X151409795Y-85679286D02*
X150609795Y-85679286D01*
X150609795Y-85679286D02*
X150609795Y-85984048D01*
X150609795Y-85984048D02*
X150647890Y-86060238D01*
X150647890Y-86060238D02*
X150685985Y-86098333D01*
X150685985Y-86098333D02*
X150762176Y-86136429D01*
X150762176Y-86136429D02*
X150876461Y-86136429D01*
X150876461Y-86136429D02*
X150952652Y-86098333D01*
X150952652Y-86098333D02*
X150990747Y-86060238D01*
X150990747Y-86060238D02*
X151028842Y-85984048D01*
X151028842Y-85984048D02*
X151028842Y-85679286D01*
X151409795Y-86898333D02*
X151409795Y-86441190D01*
X151409795Y-86669762D02*
X150609795Y-86669762D01*
X150609795Y-86669762D02*
X150724080Y-86593571D01*
X150724080Y-86593571D02*
X150800271Y-86517381D01*
X150800271Y-86517381D02*
X150838366Y-86441190D01*
X141887295Y-65614762D02*
X141087295Y-65614762D01*
X141087295Y-65614762D02*
X141087295Y-65805238D01*
X141087295Y-65805238D02*
X141125390Y-65919524D01*
X141125390Y-65919524D02*
X141201580Y-65995714D01*
X141201580Y-65995714D02*
X141277771Y-66033809D01*
X141277771Y-66033809D02*
X141430152Y-66071905D01*
X141430152Y-66071905D02*
X141544438Y-66071905D01*
X141544438Y-66071905D02*
X141696819Y-66033809D01*
X141696819Y-66033809D02*
X141773009Y-65995714D01*
X141773009Y-65995714D02*
X141849200Y-65919524D01*
X141849200Y-65919524D02*
X141887295Y-65805238D01*
X141887295Y-65805238D02*
X141887295Y-65614762D01*
X141963485Y-66224286D02*
X141963485Y-66833809D01*
X141353961Y-67367143D02*
X141887295Y-67367143D01*
X141049200Y-67176667D02*
X141620628Y-66986190D01*
X141620628Y-66986190D02*
X141620628Y-67481429D01*
X179947295Y-41381905D02*
X179147295Y-41381905D01*
X179147295Y-41381905D02*
X179147295Y-41572381D01*
X179147295Y-41572381D02*
X179185390Y-41686667D01*
X179185390Y-41686667D02*
X179261580Y-41762857D01*
X179261580Y-41762857D02*
X179337771Y-41800952D01*
X179337771Y-41800952D02*
X179490152Y-41839048D01*
X179490152Y-41839048D02*
X179604438Y-41839048D01*
X179604438Y-41839048D02*
X179756819Y-41800952D01*
X179756819Y-41800952D02*
X179833009Y-41762857D01*
X179833009Y-41762857D02*
X179909200Y-41686667D01*
X179909200Y-41686667D02*
X179947295Y-41572381D01*
X179947295Y-41572381D02*
X179947295Y-41381905D01*
X180023485Y-41991429D02*
X180023485Y-42600952D01*
X179528247Y-43058095D02*
X179528247Y-42791429D01*
X179947295Y-42791429D02*
X179147295Y-42791429D01*
X179147295Y-42791429D02*
X179147295Y-43172381D01*
X179147295Y-43858095D02*
X179147295Y-43477143D01*
X179147295Y-43477143D02*
X179528247Y-43439047D01*
X179528247Y-43439047D02*
X179490152Y-43477143D01*
X179490152Y-43477143D02*
X179452057Y-43553333D01*
X179452057Y-43553333D02*
X179452057Y-43743809D01*
X179452057Y-43743809D02*
X179490152Y-43820000D01*
X179490152Y-43820000D02*
X179528247Y-43858095D01*
X179528247Y-43858095D02*
X179604438Y-43896190D01*
X179604438Y-43896190D02*
X179794914Y-43896190D01*
X179794914Y-43896190D02*
X179871104Y-43858095D01*
X179871104Y-43858095D02*
X179909200Y-43820000D01*
X179909200Y-43820000D02*
X179947295Y-43743809D01*
X179947295Y-43743809D02*
X179947295Y-43553333D01*
X179947295Y-43553333D02*
X179909200Y-43477143D01*
X179909200Y-43477143D02*
X179871104Y-43439047D01*
X184707295Y-122354762D02*
X183907295Y-122354762D01*
X183907295Y-122354762D02*
X183907295Y-122545238D01*
X183907295Y-122545238D02*
X183945390Y-122659524D01*
X183945390Y-122659524D02*
X184021580Y-122735714D01*
X184021580Y-122735714D02*
X184097771Y-122773809D01*
X184097771Y-122773809D02*
X184250152Y-122811905D01*
X184250152Y-122811905D02*
X184364438Y-122811905D01*
X184364438Y-122811905D02*
X184516819Y-122773809D01*
X184516819Y-122773809D02*
X184593009Y-122735714D01*
X184593009Y-122735714D02*
X184669200Y-122659524D01*
X184669200Y-122659524D02*
X184707295Y-122545238D01*
X184707295Y-122545238D02*
X184707295Y-122354762D01*
X184783485Y-122964286D02*
X184783485Y-123573809D01*
X184288247Y-124030952D02*
X184326342Y-124145238D01*
X184326342Y-124145238D02*
X184364438Y-124183333D01*
X184364438Y-124183333D02*
X184440628Y-124221429D01*
X184440628Y-124221429D02*
X184554914Y-124221429D01*
X184554914Y-124221429D02*
X184631104Y-124183333D01*
X184631104Y-124183333D02*
X184669200Y-124145238D01*
X184669200Y-124145238D02*
X184707295Y-124069048D01*
X184707295Y-124069048D02*
X184707295Y-123764286D01*
X184707295Y-123764286D02*
X183907295Y-123764286D01*
X183907295Y-123764286D02*
X183907295Y-124030952D01*
X183907295Y-124030952D02*
X183945390Y-124107143D01*
X183945390Y-124107143D02*
X183983485Y-124145238D01*
X183983485Y-124145238D02*
X184059676Y-124183333D01*
X184059676Y-124183333D02*
X184135866Y-124183333D01*
X184135866Y-124183333D02*
X184212057Y-124145238D01*
X184212057Y-124145238D02*
X184250152Y-124107143D01*
X184250152Y-124107143D02*
X184288247Y-124030952D01*
X184288247Y-124030952D02*
X184288247Y-123764286D01*
X184707295Y-124983333D02*
X184707295Y-124526190D01*
X184707295Y-124754762D02*
X183907295Y-124754762D01*
X183907295Y-124754762D02*
X184021580Y-124678571D01*
X184021580Y-124678571D02*
X184097771Y-124602381D01*
X184097771Y-124602381D02*
X184135866Y-124526190D01*
X84697295Y-65634762D02*
X83897295Y-65634762D01*
X83897295Y-65634762D02*
X83897295Y-65825238D01*
X83897295Y-65825238D02*
X83935390Y-65939524D01*
X83935390Y-65939524D02*
X84011580Y-66015714D01*
X84011580Y-66015714D02*
X84087771Y-66053809D01*
X84087771Y-66053809D02*
X84240152Y-66091905D01*
X84240152Y-66091905D02*
X84354438Y-66091905D01*
X84354438Y-66091905D02*
X84506819Y-66053809D01*
X84506819Y-66053809D02*
X84583009Y-66015714D01*
X84583009Y-66015714D02*
X84659200Y-65939524D01*
X84659200Y-65939524D02*
X84697295Y-65825238D01*
X84697295Y-65825238D02*
X84697295Y-65634762D01*
X84773485Y-66244286D02*
X84773485Y-66853809D01*
X84697295Y-67463333D02*
X84697295Y-67006190D01*
X84697295Y-67234762D02*
X83897295Y-67234762D01*
X83897295Y-67234762D02*
X84011580Y-67158571D01*
X84011580Y-67158571D02*
X84087771Y-67082381D01*
X84087771Y-67082381D02*
X84125866Y-67006190D01*
D11*
X190950000Y-30270000D02*
X190950000Y-63290000D01*
X190950000Y-63290000D02*
X208730000Y-63290000D01*
X193490000Y-32810000D02*
X190950000Y-32810000D01*
X193490000Y-32810000D02*
X193490000Y-35350000D01*
X193490000Y-35350000D02*
X190950000Y-35350000D01*
X208730000Y-30270000D02*
X190950000Y-30270000D01*
X208730000Y-63290000D02*
X208730000Y-30270000D01*
D10*
X206184635Y-38799030D02*
X205684635Y-38799030D01*
X205684635Y-38699030D01*
X206184635Y-38699030D01*
X206184635Y-38799030D01*
G36*
X206184635Y-38799030D02*
G01*
X205684635Y-38799030D01*
X205684635Y-38699030D01*
X206184635Y-38699030D01*
X206184635Y-38799030D01*
G37*
X205784635Y-38999030D02*
X205684635Y-38999030D01*
X205684635Y-38699030D01*
X205784635Y-38699030D01*
X205784635Y-38999030D01*
G36*
X205784635Y-38999030D02*
G01*
X205684635Y-38999030D01*
X205684635Y-38699030D01*
X205784635Y-38699030D01*
X205784635Y-38999030D01*
G37*
X205784635Y-39499030D02*
X205684635Y-39499030D01*
X205684635Y-39299030D01*
X205784635Y-39299030D01*
X205784635Y-39499030D01*
G36*
X205784635Y-39499030D02*
G01*
X205684635Y-39499030D01*
X205684635Y-39299030D01*
X205784635Y-39299030D01*
X205784635Y-39499030D01*
G37*
X205984635Y-39199030D02*
X205884635Y-39199030D01*
X205884635Y-39099030D01*
X205984635Y-39099030D01*
X205984635Y-39199030D01*
G36*
X205984635Y-39199030D02*
G01*
X205884635Y-39199030D01*
X205884635Y-39099030D01*
X205984635Y-39099030D01*
X205984635Y-39199030D01*
G37*
X206184635Y-39499030D02*
X206084635Y-39499030D01*
X206084635Y-38699030D01*
X206184635Y-38699030D01*
X206184635Y-39499030D01*
G36*
X206184635Y-39499030D02*
G01*
X206084635Y-39499030D01*
X206084635Y-38699030D01*
X206184635Y-38699030D01*
X206184635Y-39499030D01*
G37*
D11*
X156487500Y-107625000D02*
X158887500Y-107625000D01*
X158887500Y-107600000D02*
X158887500Y-101800000D01*
X158887500Y-107525000D02*
X156487500Y-107525000D01*
X158887500Y-107400000D02*
X156487500Y-107400000D01*
X158887500Y-107225000D02*
X156487500Y-107225000D01*
X158887500Y-107050000D02*
X156487500Y-107050000D01*
X158887500Y-106875000D02*
X156487500Y-106875000D01*
X156487500Y-101800000D02*
X156487500Y-107600000D01*
X158887500Y-101800000D02*
X156487500Y-101800000D01*
X161290000Y-45645000D02*
X163690000Y-45645000D01*
X163690000Y-45620000D02*
X163690000Y-39820000D01*
X163690000Y-45545000D02*
X161290000Y-45545000D01*
X163690000Y-45420000D02*
X161290000Y-45420000D01*
X163690000Y-45245000D02*
X161290000Y-45245000D01*
X163690000Y-45070000D02*
X161290000Y-45070000D01*
X163690000Y-44895000D02*
X161290000Y-44895000D01*
X161290000Y-39820000D02*
X161290000Y-45620000D01*
X163690000Y-39820000D02*
X161290000Y-39820000D01*
X104120000Y-69554998D02*
X106520000Y-69554998D01*
X106520000Y-69529998D02*
X106520000Y-63729998D01*
X106520000Y-69454998D02*
X104120000Y-69454998D01*
X106520000Y-69329998D02*
X104120000Y-69329998D01*
X106520000Y-69154998D02*
X104120000Y-69154998D01*
X106520000Y-68979998D02*
X104120000Y-68979998D01*
X106520000Y-68804998D02*
X104120000Y-68804998D01*
X104120000Y-63729998D02*
X104120000Y-69529998D01*
X106520000Y-63729998D02*
X104120000Y-63729998D01*
X94605000Y-145725000D02*
X97005000Y-145725000D01*
X97005000Y-145700000D02*
X97005000Y-139900000D01*
X97005000Y-145625000D02*
X94605000Y-145625000D01*
X97005000Y-145500000D02*
X94605000Y-145500000D01*
X97005000Y-145325000D02*
X94605000Y-145325000D01*
X97005000Y-145150000D02*
X94605000Y-145150000D01*
X97005000Y-144975000D02*
X94605000Y-144975000D01*
X94605000Y-139900000D02*
X94605000Y-145700000D01*
X97005000Y-139900000D02*
X94605000Y-139900000D01*
X89817500Y-126690000D02*
X92217500Y-126690000D01*
X92217500Y-126665000D02*
X92217500Y-120865000D01*
X92217500Y-126590000D02*
X89817500Y-126590000D01*
X92217500Y-126465000D02*
X89817500Y-126465000D01*
X92217500Y-126290000D02*
X89817500Y-126290000D01*
X92217500Y-126115000D02*
X89817500Y-126115000D01*
X92217500Y-125940000D02*
X89817500Y-125940000D01*
X89817500Y-120865000D02*
X89817500Y-126665000D01*
X92217500Y-120865000D02*
X89817500Y-120865000D01*
X142240000Y-45675000D02*
X144640000Y-45675000D01*
X144640000Y-45650000D02*
X144640000Y-39850000D01*
X144640000Y-45575000D02*
X142240000Y-45575000D01*
X144640000Y-45450000D02*
X142240000Y-45450000D01*
X144640000Y-45275000D02*
X142240000Y-45275000D01*
X144640000Y-45100000D02*
X142240000Y-45100000D01*
X144640000Y-44925000D02*
X142240000Y-44925000D01*
X142240000Y-39850000D02*
X142240000Y-45650000D01*
X144640000Y-39850000D02*
X142240000Y-39850000D01*
X80277500Y-107620000D02*
X82677500Y-107620000D01*
X82677500Y-107595000D02*
X82677500Y-101795000D01*
X82677500Y-107520000D02*
X80277500Y-107520000D01*
X82677500Y-107395000D02*
X80277500Y-107395000D01*
X82677500Y-107220000D02*
X80277500Y-107220000D01*
X82677500Y-107045000D02*
X80277500Y-107045000D01*
X82677500Y-106870000D02*
X80277500Y-106870000D01*
X80277500Y-101795000D02*
X80277500Y-107595000D01*
X82677500Y-101795000D02*
X80277500Y-101795000D01*
X180350000Y-69495000D02*
X182750000Y-69495000D01*
X182750000Y-69470000D02*
X182750000Y-63670000D01*
X182750000Y-69395000D02*
X180350000Y-69395000D01*
X182750000Y-69270000D02*
X180350000Y-69270000D01*
X182750000Y-69095000D02*
X180350000Y-69095000D01*
X182750000Y-68920000D02*
X180350000Y-68920000D01*
X182750000Y-68745000D02*
X180350000Y-68745000D01*
X180350000Y-63670000D02*
X180350000Y-69470000D01*
X182750000Y-63670000D02*
X180350000Y-63670000D01*
X108830000Y-126655000D02*
X111230000Y-126655000D01*
X111230000Y-126630000D02*
X111230000Y-120830000D01*
X111230000Y-126555000D02*
X108830000Y-126555000D01*
X111230000Y-126430000D02*
X108830000Y-126430000D01*
X111230000Y-126255000D02*
X108830000Y-126255000D01*
X111230000Y-126080000D02*
X108830000Y-126080000D01*
X111230000Y-125905000D02*
X108830000Y-125905000D01*
X108830000Y-120830000D02*
X108830000Y-126630000D01*
X111230000Y-120830000D02*
X108830000Y-120830000D01*
D12*
X76165000Y-104907064D02*
X76165000Y-104452936D01*
X77635000Y-104907064D02*
X77635000Y-104452936D01*
D11*
X142210000Y-145695000D02*
X144610000Y-145695000D01*
X144610000Y-145670000D02*
X144610000Y-139870000D01*
X144610000Y-145595000D02*
X142210000Y-145595000D01*
X144610000Y-145470000D02*
X142210000Y-145470000D01*
X144610000Y-145295000D02*
X142210000Y-145295000D01*
X144610000Y-145120000D02*
X142210000Y-145120000D01*
X144610000Y-144945000D02*
X142210000Y-144945000D01*
X142210000Y-139870000D02*
X142210000Y-145670000D01*
X144610000Y-139870000D02*
X142210000Y-139870000D01*
X66030000Y-45775000D02*
X68430000Y-45775000D01*
X68430000Y-45750000D02*
X68430000Y-39950000D01*
X68430000Y-45675000D02*
X66030000Y-45675000D01*
X68430000Y-45550000D02*
X66030000Y-45550000D01*
X68430000Y-45375000D02*
X66030000Y-45375000D01*
X68430000Y-45200000D02*
X66030000Y-45200000D01*
X68430000Y-45025000D02*
X66030000Y-45025000D01*
X66030000Y-39950000D02*
X66030000Y-45750000D01*
X68430000Y-39950000D02*
X66030000Y-39950000D01*
X65977500Y-69577500D02*
X68377500Y-69577500D01*
X68377500Y-69552500D02*
X68377500Y-63752500D01*
X68377500Y-69477500D02*
X65977500Y-69477500D01*
X68377500Y-69352500D02*
X65977500Y-69352500D01*
X68377500Y-69177500D02*
X65977500Y-69177500D01*
X68377500Y-69002500D02*
X65977500Y-69002500D01*
X68377500Y-68827500D02*
X65977500Y-68827500D01*
X65977500Y-63752500D02*
X65977500Y-69552500D01*
X68377500Y-63752500D02*
X65977500Y-63752500D01*
X127970000Y-126655000D02*
X130370000Y-126655000D01*
X130370000Y-126630000D02*
X130370000Y-120830000D01*
X130370000Y-126555000D02*
X127970000Y-126555000D01*
X130370000Y-126430000D02*
X127970000Y-126430000D01*
X130370000Y-126255000D02*
X127970000Y-126255000D01*
X130370000Y-126080000D02*
X127970000Y-126080000D01*
X130370000Y-125905000D02*
X127970000Y-125905000D01*
X127970000Y-120830000D02*
X127970000Y-126630000D01*
X130370000Y-120830000D02*
X127970000Y-120830000D01*
X189840000Y-88565000D02*
X192240000Y-88565000D01*
X192240000Y-88540000D02*
X192240000Y-82740000D01*
X192240000Y-88465000D02*
X189840000Y-88465000D01*
X192240000Y-88340000D02*
X189840000Y-88340000D01*
X192240000Y-88165000D02*
X189840000Y-88165000D01*
X192240000Y-87990000D02*
X189840000Y-87990000D01*
X192240000Y-87815000D02*
X189840000Y-87815000D01*
X189840000Y-82740000D02*
X189840000Y-88540000D01*
X192240000Y-82740000D02*
X189840000Y-82740000D01*
X118425000Y-107645000D02*
X120825000Y-107645000D01*
X120825000Y-107620000D02*
X120825000Y-101820000D01*
X120825000Y-107545000D02*
X118425000Y-107545000D01*
X120825000Y-107420000D02*
X118425000Y-107420000D01*
X120825000Y-107245000D02*
X118425000Y-107245000D01*
X120825000Y-107070000D02*
X118425000Y-107070000D01*
X120825000Y-106895000D02*
X118425000Y-106895000D01*
X118425000Y-101820000D02*
X118425000Y-107620000D01*
X120825000Y-101820000D02*
X118425000Y-101820000D01*
X118402500Y-145750000D02*
X120802500Y-145750000D01*
X120802500Y-145725000D02*
X120802500Y-139925000D01*
X120802500Y-145650000D02*
X118402500Y-145650000D01*
X120802500Y-145525000D02*
X118402500Y-145525000D01*
X120802500Y-145350000D02*
X118402500Y-145350000D01*
X120802500Y-145175000D02*
X118402500Y-145175000D01*
X120802500Y-145000000D02*
X118402500Y-145000000D01*
X118402500Y-139925000D02*
X118402500Y-145725000D01*
X120802500Y-139925000D02*
X118402500Y-139925000D01*
X99360000Y-107605000D02*
X101760000Y-107605000D01*
X101760000Y-107580000D02*
X101760000Y-101780000D01*
X101760000Y-107505000D02*
X99360000Y-107505000D01*
X101760000Y-107380000D02*
X99360000Y-107380000D01*
X101760000Y-107205000D02*
X99360000Y-107205000D01*
X101760000Y-107030000D02*
X99360000Y-107030000D01*
X101760000Y-106855000D02*
X99360000Y-106855000D01*
X99360000Y-101780000D02*
X99360000Y-107580000D01*
X101760000Y-101780000D02*
X99360000Y-101780000D01*
X123160000Y-45705000D02*
X125560000Y-45705000D01*
X125560000Y-45680000D02*
X125560000Y-39880000D01*
X125560000Y-45605000D02*
X123160000Y-45605000D01*
X125560000Y-45480000D02*
X123160000Y-45480000D01*
X125560000Y-45305000D02*
X123160000Y-45305000D01*
X125560000Y-45130000D02*
X123160000Y-45130000D01*
X125560000Y-44955000D02*
X123160000Y-44955000D01*
X123160000Y-39880000D02*
X123160000Y-45680000D01*
X125560000Y-39880000D02*
X123160000Y-39880000D01*
X132700000Y-88635000D02*
X135100000Y-88635000D01*
X135100000Y-88610000D02*
X135100000Y-82810000D01*
X135100000Y-88535000D02*
X132700000Y-88535000D01*
X135100000Y-88410000D02*
X132700000Y-88410000D01*
X135100000Y-88235000D02*
X132700000Y-88235000D01*
X135100000Y-88060000D02*
X132700000Y-88060000D01*
X135100000Y-87885000D02*
X132700000Y-87885000D01*
X132700000Y-82810000D02*
X132700000Y-88610000D01*
X135100000Y-82810000D02*
X132700000Y-82810000D01*
X198609727Y-141671730D02*
X199809727Y-139593270D01*
X199788076Y-139580770D02*
X194765129Y-136680770D01*
X199723124Y-139543270D02*
X198523124Y-141621730D01*
X199614871Y-139480770D02*
X198414871Y-141559230D01*
X199463317Y-139393270D02*
X198263317Y-141471730D01*
X199311762Y-139305770D02*
X198111762Y-141384230D01*
X199160208Y-139218270D02*
X197960208Y-141296730D01*
X193565129Y-138759230D02*
X198588076Y-141659230D01*
X194765129Y-136680770D02*
X193565129Y-138759230D01*
X161280000Y-69515000D02*
X163680000Y-69515000D01*
X163680000Y-69490000D02*
X163680000Y-63690000D01*
X163680000Y-69415000D02*
X161280000Y-69415000D01*
X163680000Y-69290000D02*
X161280000Y-69290000D01*
X163680000Y-69115000D02*
X161280000Y-69115000D01*
X163680000Y-68940000D02*
X161280000Y-68940000D01*
X163680000Y-68765000D02*
X161280000Y-68765000D01*
X161280000Y-63690000D02*
X161280000Y-69490000D01*
X163680000Y-63690000D02*
X161280000Y-63690000D01*
X170810000Y-88565000D02*
X173210000Y-88565000D01*
X173210000Y-88540000D02*
X173210000Y-82740000D01*
X173210000Y-88465000D02*
X170810000Y-88465000D01*
X173210000Y-88340000D02*
X170810000Y-88340000D01*
X173210000Y-88165000D02*
X170810000Y-88165000D01*
X173210000Y-87990000D02*
X170810000Y-87990000D01*
X173210000Y-87815000D02*
X170810000Y-87815000D01*
X170810000Y-82740000D02*
X170810000Y-88540000D01*
X173210000Y-82740000D02*
X170810000Y-82740000D01*
X104100000Y-45725000D02*
X106500000Y-45725000D01*
X106500000Y-45700000D02*
X106500000Y-39900000D01*
X106500000Y-45625000D02*
X104100000Y-45625000D01*
X106500000Y-45500000D02*
X104100000Y-45500000D01*
X106500000Y-45325000D02*
X104100000Y-45325000D01*
X106500000Y-45150000D02*
X104100000Y-45150000D01*
X106500000Y-44975000D02*
X104100000Y-44975000D01*
X104100000Y-39900000D02*
X104100000Y-45700000D01*
X106500000Y-39900000D02*
X104100000Y-39900000D01*
X94570000Y-88625000D02*
X96970000Y-88625000D01*
X96970000Y-88600000D02*
X96970000Y-82800000D01*
X96970000Y-88525000D02*
X94570000Y-88525000D01*
X96970000Y-88400000D02*
X94570000Y-88400000D01*
X96970000Y-88225000D02*
X94570000Y-88225000D01*
X96970000Y-88050000D02*
X94570000Y-88050000D01*
X96970000Y-87875000D02*
X94570000Y-87875000D01*
X94570000Y-82800000D02*
X94570000Y-88600000D01*
X96970000Y-82800000D02*
X94570000Y-82800000D01*
X147015000Y-126690000D02*
X149415000Y-126690000D01*
X149415000Y-126665000D02*
X149415000Y-120865000D01*
X149415000Y-126590000D02*
X147015000Y-126590000D01*
X149415000Y-126465000D02*
X147015000Y-126465000D01*
X149415000Y-126290000D02*
X147015000Y-126290000D01*
X149415000Y-126115000D02*
X147015000Y-126115000D01*
X149415000Y-125940000D02*
X147015000Y-125940000D01*
X147015000Y-120865000D02*
X147015000Y-126665000D01*
X149415000Y-120865000D02*
X147015000Y-120865000D01*
X70760000Y-145765000D02*
X73160000Y-145765000D01*
X73160000Y-145740000D02*
X73160000Y-139940000D01*
X73160000Y-145665000D02*
X70760000Y-145665000D01*
X73160000Y-145540000D02*
X70760000Y-145540000D01*
X73160000Y-145365000D02*
X70760000Y-145365000D01*
X73160000Y-145190000D02*
X70760000Y-145190000D01*
X73160000Y-145015000D02*
X70760000Y-145015000D01*
X70760000Y-139940000D02*
X70760000Y-145740000D01*
X73160000Y-139940000D02*
X70760000Y-139940000D01*
X137442500Y-107590000D02*
X139842500Y-107590000D01*
X139842500Y-107565000D02*
X139842500Y-101765000D01*
X139842500Y-107490000D02*
X137442500Y-107490000D01*
X139842500Y-107365000D02*
X137442500Y-107365000D01*
X139842500Y-107190000D02*
X137442500Y-107190000D01*
X139842500Y-107015000D02*
X137442500Y-107015000D01*
X139842500Y-106840000D02*
X137442500Y-106840000D01*
X137442500Y-101765000D02*
X137442500Y-107565000D01*
X139842500Y-101765000D02*
X137442500Y-101765000D01*
X75535000Y-88625000D02*
X77935000Y-88625000D01*
X77935000Y-88600000D02*
X77935000Y-82800000D01*
X77935000Y-88525000D02*
X75535000Y-88525000D01*
X77935000Y-88400000D02*
X75535000Y-88400000D01*
X77935000Y-88225000D02*
X75535000Y-88225000D01*
X77935000Y-88050000D02*
X75535000Y-88050000D01*
X77935000Y-87875000D02*
X75535000Y-87875000D01*
X75535000Y-82800000D02*
X75535000Y-88600000D01*
X77935000Y-82800000D02*
X75535000Y-82800000D01*
X175550000Y-107625000D02*
X177950000Y-107625000D01*
X177950000Y-107600000D02*
X177950000Y-101800000D01*
X177950000Y-107525000D02*
X175550000Y-107525000D01*
X177950000Y-107400000D02*
X175550000Y-107400000D01*
X177950000Y-107225000D02*
X175550000Y-107225000D01*
X177950000Y-107050000D02*
X175550000Y-107050000D01*
X177950000Y-106875000D02*
X175550000Y-106875000D01*
X175550000Y-101800000D02*
X175550000Y-107600000D01*
X177950000Y-101800000D02*
X175550000Y-101800000D01*
X166042500Y-126655000D02*
X168442500Y-126655000D01*
X168442500Y-126630000D02*
X168442500Y-120830000D01*
X168442500Y-126555000D02*
X166042500Y-126555000D01*
X168442500Y-126430000D02*
X166042500Y-126430000D01*
X168442500Y-126255000D02*
X166042500Y-126255000D01*
X168442500Y-126080000D02*
X166042500Y-126080000D01*
X168442500Y-125905000D02*
X166042500Y-125905000D01*
X166042500Y-120830000D02*
X166042500Y-126630000D01*
X168442500Y-120830000D02*
X166042500Y-120830000D01*
X123180000Y-69555000D02*
X125580000Y-69555000D01*
X125580000Y-69530000D02*
X125580000Y-63730000D01*
X125580000Y-69455000D02*
X123180000Y-69455000D01*
X125580000Y-69330000D02*
X123180000Y-69330000D01*
X125580000Y-69155000D02*
X123180000Y-69155000D01*
X125580000Y-68980000D02*
X123180000Y-68980000D01*
X125580000Y-68805000D02*
X123180000Y-68805000D01*
X123180000Y-63730000D02*
X123180000Y-69530000D01*
X125580000Y-63730000D02*
X123180000Y-63730000D01*
X113630000Y-88625000D02*
X116030000Y-88625000D01*
X116030000Y-88600000D02*
X116030000Y-82800000D01*
X116030000Y-88525000D02*
X113630000Y-88525000D01*
X116030000Y-88400000D02*
X113630000Y-88400000D01*
X116030000Y-88225000D02*
X113630000Y-88225000D01*
X116030000Y-88050000D02*
X113630000Y-88050000D01*
X116030000Y-87875000D02*
X113630000Y-87875000D01*
X113630000Y-82800000D02*
X113630000Y-88600000D01*
X116030000Y-82800000D02*
X113630000Y-82800000D01*
X151772500Y-88590000D02*
X154172500Y-88590000D01*
X154172500Y-88565000D02*
X154172500Y-82765000D01*
X154172500Y-88490000D02*
X151772500Y-88490000D01*
X154172500Y-88365000D02*
X151772500Y-88365000D01*
X154172500Y-88190000D02*
X151772500Y-88190000D01*
X154172500Y-88015000D02*
X151772500Y-88015000D01*
X154172500Y-87840000D02*
X151772500Y-87840000D01*
X151772500Y-82765000D02*
X151772500Y-88565000D01*
X154172500Y-82765000D02*
X151772500Y-82765000D01*
X142250000Y-69535000D02*
X144650000Y-69535000D01*
X144650000Y-69510000D02*
X144650000Y-63710000D01*
X144650000Y-69435000D02*
X142250000Y-69435000D01*
X144650000Y-69310000D02*
X142250000Y-69310000D01*
X144650000Y-69135000D02*
X142250000Y-69135000D01*
X144650000Y-68960000D02*
X142250000Y-68960000D01*
X144650000Y-68785000D02*
X142250000Y-68785000D01*
X142250000Y-63710000D02*
X142250000Y-69510000D01*
X144650000Y-63710000D02*
X142250000Y-63710000D01*
X180310000Y-45645000D02*
X182710000Y-45645000D01*
X182710000Y-45620000D02*
X182710000Y-39820000D01*
X182710000Y-45545000D02*
X180310000Y-45545000D01*
X182710000Y-45420000D02*
X180310000Y-45420000D01*
X182710000Y-45245000D02*
X180310000Y-45245000D01*
X182710000Y-45070000D02*
X180310000Y-45070000D01*
X182710000Y-44895000D02*
X180310000Y-44895000D01*
X180310000Y-39820000D02*
X180310000Y-45620000D01*
X182710000Y-39820000D02*
X180310000Y-39820000D01*
X185070000Y-126675000D02*
X187470000Y-126675000D01*
X187470000Y-126650000D02*
X187470000Y-120850000D01*
X187470000Y-126575000D02*
X185070000Y-126575000D01*
X187470000Y-126450000D02*
X185070000Y-126450000D01*
X187470000Y-126275000D02*
X185070000Y-126275000D01*
X187470000Y-126100000D02*
X185070000Y-126100000D01*
X187470000Y-125925000D02*
X185070000Y-125925000D01*
X185070000Y-120850000D02*
X185070000Y-126650000D01*
X187470000Y-120850000D02*
X185070000Y-120850000D01*
X85060000Y-69555000D02*
X87460000Y-69555000D01*
X87460000Y-69530000D02*
X87460000Y-63730000D01*
X87460000Y-69455000D02*
X85060000Y-69455000D01*
X87460000Y-69330000D02*
X85060000Y-69330000D01*
X87460000Y-69155000D02*
X85060000Y-69155000D01*
X87460000Y-68980000D02*
X85060000Y-68980000D01*
X87460000Y-68805000D02*
X85060000Y-68805000D01*
X85060000Y-63730000D02*
X85060000Y-69530000D01*
X87460000Y-63730000D02*
X85060000Y-63730000D01*
D13*
X192220000Y-34080000D03*
D14*
X192220000Y-36620000D03*
X192220000Y-39160000D03*
X192220000Y-41700000D03*
X192220000Y-44240000D03*
X192220000Y-46780000D03*
X192220000Y-49320000D03*
X192220000Y-51860000D03*
X192220000Y-54400000D03*
X192220000Y-56940000D03*
X192220000Y-59480000D03*
X192220000Y-62020000D03*
X207460000Y-62020000D03*
X207460000Y-59480000D03*
X207460000Y-56940000D03*
X207460000Y-54400000D03*
X207460000Y-51860000D03*
X207460000Y-49320000D03*
X207460000Y-46780000D03*
X207460000Y-44240000D03*
X207460000Y-41700000D03*
X207460000Y-39160000D03*
X207460000Y-36620000D03*
X207460000Y-34080000D03*
D15*
X157687500Y-108500000D03*
D16*
X157687500Y-100700000D03*
D15*
X162490000Y-46520000D03*
D16*
X162490000Y-38720000D03*
D15*
X105320000Y-70429998D03*
D16*
X105320000Y-62629998D03*
D15*
X95805000Y-146600000D03*
D16*
X95805000Y-138800000D03*
D15*
X91017500Y-127565000D03*
D16*
X91017500Y-119765000D03*
D15*
X143440000Y-46550000D03*
D16*
X143440000Y-38750000D03*
D15*
X81477500Y-108495000D03*
D16*
X81477500Y-100695000D03*
D15*
X181550000Y-70370000D03*
D16*
X181550000Y-62570000D03*
D15*
X110030000Y-127530000D03*
D16*
X110030000Y-119730000D03*
D15*
X143410000Y-146570000D03*
D16*
X143410000Y-138770000D03*
D15*
X67230000Y-46650000D03*
D16*
X67230000Y-38850000D03*
D15*
X67177500Y-70452500D03*
D16*
X67177500Y-62652500D03*
D15*
X129170000Y-127530000D03*
D16*
X129170000Y-119730000D03*
D15*
X191040000Y-89440000D03*
D16*
X191040000Y-81640000D03*
D15*
X119625000Y-108520000D03*
D16*
X119625000Y-100720000D03*
D15*
X119602500Y-146625000D03*
D16*
X119602500Y-138825000D03*
D15*
X100560000Y-108480000D03*
D16*
X100560000Y-100680000D03*
D15*
X124360000Y-46580000D03*
D16*
X124360000Y-38780000D03*
D15*
X133900000Y-89510000D03*
D16*
X133900000Y-81710000D03*
D17*
X199967499Y-141070000D03*
D16*
X193212501Y-137170000D03*
D15*
X162480000Y-70390000D03*
D16*
X162480000Y-62590000D03*
D15*
X172010000Y-89440000D03*
D16*
X172010000Y-81640000D03*
D15*
X105300000Y-46600000D03*
D16*
X105300000Y-38800000D03*
D15*
X95770000Y-89500000D03*
D16*
X95770000Y-81700000D03*
D15*
X148215000Y-127565000D03*
D16*
X148215000Y-119765000D03*
D15*
X71960000Y-146640000D03*
D16*
X71960000Y-138840000D03*
D15*
X138642500Y-108465000D03*
D16*
X138642500Y-100665000D03*
D15*
X76735000Y-89500000D03*
D16*
X76735000Y-81700000D03*
D15*
X176750000Y-108500000D03*
D16*
X176750000Y-100700000D03*
D15*
X167242500Y-127530000D03*
D16*
X167242500Y-119730000D03*
D15*
X124380000Y-70430000D03*
D16*
X124380000Y-62630000D03*
D15*
X114830000Y-89500000D03*
D16*
X114830000Y-81700000D03*
D15*
X152972500Y-89465000D03*
D16*
X152972500Y-81665000D03*
D15*
X143450000Y-70410000D03*
D16*
X143450000Y-62610000D03*
D15*
X181510000Y-46520000D03*
D16*
X181510000Y-38720000D03*
D15*
X186270000Y-127550000D03*
D16*
X186270000Y-119750000D03*
D15*
X86260000Y-70430000D03*
D16*
X86260000Y-62630000D03*
M02*
