G04 #@! TF.GenerationSoftware,KiCad,Pcbnew,7.0.9*
G04 #@! TF.CreationDate,2023-12-19T21:53:41-06:00*
G04 #@! TF.ProjectId,keyboard,6b657962-6f61-4726-942e-6b696361645f,rev?*
G04 #@! TF.SameCoordinates,Original*
G04 #@! TF.FileFunction,Soldermask,Top*
G04 #@! TF.FilePolarity,Negative*
%FSLAX46Y46*%
G04 Gerber Fmt 4.6, Leading zero omitted, Abs format (unit mm)*
G04 Created by KiCad (PCBNEW 7.0.9) date 2023-12-19 21:53:41*
%MOMM*%
%LPD*%
G01*
G04 APERTURE LIST*
G04 Aperture macros list*
%AMRotRect*
0 Rectangle, with rotation*
0 The origin of the aperture is its center*
0 $1 length*
0 $2 width*
0 $3 Rotation angle, in degrees counterclockwise*
0 Add horizontal line*
21,1,$1,$2,0,0,$3*%
G04 Aperture macros list end*
%ADD10C,1.750000*%
%ADD11C,3.000000*%
%ADD12C,3.987800*%
%ADD13C,3.048000*%
%ADD14C,0.800000*%
%ADD15O,1.600000X2.000000*%
%ADD16C,1.752600*%
%ADD17R,1.752600X1.752600*%
%ADD18R,3.911600X1.752600*%
%ADD19R,3.911600X1.092200*%
%ADD20R,1.600000X1.600000*%
%ADD21C,1.600000*%
%ADD22RotRect,1.600000X1.600000X150.000000*%
G04 APERTURE END LIST*
D10*
X114939571Y-123700000D03*
D11*
X116209571Y-121160000D03*
D12*
X120019571Y-123700000D03*
D11*
X122559571Y-118620000D03*
D10*
X125099571Y-123700000D03*
X176852071Y-85600000D03*
D11*
X178122071Y-83060000D03*
D12*
X181932071Y-85600000D03*
D11*
X184472071Y-80520000D03*
D10*
X187012071Y-85600000D03*
X143514571Y-104650000D03*
D11*
X144784571Y-102110000D03*
D12*
X148594571Y-104650000D03*
D11*
X151134571Y-99570000D03*
D10*
X153674571Y-104650000D03*
X60170821Y-104650000D03*
D11*
X61440821Y-102110000D03*
D12*
X65250821Y-104650000D03*
D11*
X67790821Y-99570000D03*
D10*
X70330821Y-104650000D03*
X167327071Y-42737500D03*
D11*
X168597071Y-40197500D03*
D12*
X172407071Y-42737500D03*
D11*
X174947071Y-37657500D03*
D10*
X177487071Y-42737500D03*
X53027071Y-42737500D03*
D11*
X54297071Y-40197500D03*
D12*
X58107071Y-42737500D03*
D11*
X60647071Y-37657500D03*
D10*
X63187071Y-42737500D03*
X172089571Y-123700000D03*
D11*
X173359571Y-121160000D03*
D12*
X177169571Y-123700000D03*
D11*
X179709571Y-118620000D03*
D10*
X182249571Y-123700000D03*
X119702071Y-85600000D03*
D11*
X120972071Y-83060000D03*
D12*
X124782071Y-85600000D03*
D11*
X127322071Y-80520000D03*
D10*
X129862071Y-85600000D03*
X157802071Y-85600000D03*
D11*
X159072071Y-83060000D03*
D12*
X162882071Y-85600000D03*
D11*
X165422071Y-80520000D03*
D10*
X167962071Y-85600000D03*
D12*
X172693920Y-163872222D03*
D13*
X185892147Y-171492222D03*
D10*
X183271960Y-162060520D03*
D11*
X188941369Y-162400816D03*
D12*
X185811960Y-157661111D03*
D11*
X189916665Y-155631554D03*
D10*
X188351960Y-153261702D03*
D12*
X184631920Y-143195000D03*
D13*
X197830147Y-150815000D03*
D10*
X57789571Y-85600000D03*
D11*
X59059571Y-83060000D03*
D12*
X62869571Y-85600000D03*
D11*
X65409571Y-80520000D03*
D10*
X67949571Y-85600000D03*
X124464571Y-104650000D03*
D11*
X125734571Y-102110000D03*
D12*
X129544571Y-104650000D03*
D11*
X132084571Y-99570000D03*
D10*
X134624571Y-104650000D03*
X91127071Y-66550000D03*
D11*
X92397071Y-64010000D03*
D12*
X96207071Y-66550000D03*
D11*
X98747071Y-61470000D03*
D10*
X101287071Y-66550000D03*
D14*
X216970000Y-33850000D03*
X216970000Y-40850000D03*
D15*
X214670000Y-43550000D03*
X219270000Y-42450000D03*
X219270000Y-38450000D03*
X219270000Y-35450000D03*
D10*
X167327071Y-66550000D03*
D11*
X168597071Y-64010000D03*
D12*
X172407071Y-66550000D03*
D11*
X174947071Y-61470000D03*
D10*
X177487071Y-66550000D03*
X148277071Y-42737500D03*
D11*
X149547071Y-40197500D03*
D12*
X153357071Y-42737500D03*
D11*
X155897071Y-37657500D03*
D10*
X158437071Y-42737500D03*
X162564571Y-104650000D03*
D11*
X163834571Y-102110000D03*
D12*
X167644571Y-104650000D03*
D11*
X170184571Y-99570000D03*
D10*
X172724571Y-104650000D03*
X91127071Y-42737500D03*
D11*
X92397071Y-40197500D03*
D12*
X96207071Y-42737500D03*
D11*
X98747071Y-37657500D03*
D10*
X101287071Y-42737500D03*
X105414571Y-104650000D03*
D11*
X106684571Y-102110000D03*
D12*
X110494571Y-104650000D03*
D11*
X113034571Y-99570000D03*
D10*
X115574571Y-104650000D03*
D13*
X58075321Y-116715000D03*
D12*
X58075321Y-131955000D03*
D10*
X64933321Y-123700000D03*
D11*
X66203321Y-121160000D03*
D12*
X70013321Y-123700000D03*
D11*
X72553321Y-118620000D03*
D10*
X75093321Y-123700000D03*
D13*
X81951321Y-116715000D03*
D12*
X81951321Y-131955000D03*
D10*
X138752071Y-85600000D03*
D11*
X140022071Y-83060000D03*
D12*
X143832071Y-85600000D03*
D11*
X146372071Y-80520000D03*
D10*
X148912071Y-85600000D03*
X103033321Y-142750000D03*
D11*
X104303321Y-140210000D03*
D12*
X108113321Y-142750000D03*
D11*
X110653321Y-137670000D03*
D10*
X113193321Y-142750000D03*
D16*
X207460000Y-34080000D03*
X207460000Y-36620000D03*
X207460000Y-39160000D03*
X207460000Y-41700000D03*
X207460000Y-44240000D03*
X207460000Y-46780000D03*
X207460000Y-49320000D03*
X207460000Y-51860000D03*
X207460000Y-54400000D03*
X207460000Y-56940000D03*
X207460000Y-59480000D03*
X207460000Y-62020000D03*
X192220000Y-62020000D03*
X192220000Y-59480000D03*
X192220000Y-56940000D03*
X192220000Y-54400000D03*
X192220000Y-51860000D03*
X192220000Y-49320000D03*
X192220000Y-46780000D03*
X192220000Y-44240000D03*
X192220000Y-41700000D03*
X192220000Y-39160000D03*
X192220000Y-36620000D03*
D17*
X192220000Y-34080000D03*
D10*
X129227071Y-42737500D03*
D11*
X130497071Y-40197500D03*
D12*
X134307071Y-42737500D03*
D11*
X136847071Y-37657500D03*
D10*
X139387071Y-42737500D03*
X86364571Y-104650000D03*
D11*
X87634571Y-102110000D03*
D12*
X91444571Y-104650000D03*
D11*
X93984571Y-99570000D03*
D10*
X96524571Y-104650000D03*
X100652071Y-85600000D03*
D11*
X101922071Y-83060000D03*
D12*
X105732071Y-85600000D03*
D11*
X108272071Y-80520000D03*
D10*
X110812071Y-85600000D03*
X133989571Y-123700000D03*
D11*
X135259571Y-121160000D03*
D12*
X139069571Y-123700000D03*
D11*
X141609571Y-118620000D03*
D10*
X144149571Y-123700000D03*
X53027071Y-66550000D03*
D11*
X54297071Y-64010000D03*
D12*
X58107071Y-66550000D03*
D11*
X60647071Y-61470000D03*
D10*
X63187071Y-66550000D03*
X129227071Y-66550000D03*
D11*
X130497071Y-64010000D03*
D12*
X134307071Y-66550000D03*
D11*
X136847071Y-61470000D03*
D10*
X139387071Y-66550000D03*
X79220821Y-142750000D03*
D11*
X80490821Y-140210000D03*
D12*
X84300821Y-142750000D03*
D11*
X86840821Y-137670000D03*
D10*
X89380821Y-142750000D03*
X81602071Y-85600000D03*
D11*
X82872071Y-83060000D03*
D12*
X86682071Y-85600000D03*
D11*
X89222071Y-80520000D03*
D10*
X91762071Y-85600000D03*
X126845821Y-142750000D03*
D11*
X128115821Y-140210000D03*
D12*
X131925821Y-142750000D03*
D11*
X134465821Y-137670000D03*
D10*
X137005821Y-142750000D03*
X153039571Y-123700000D03*
D11*
X154309571Y-121160000D03*
D12*
X158119571Y-123700000D03*
D11*
X160659571Y-118620000D03*
D10*
X163199571Y-123700000D03*
X55408321Y-142750000D03*
D11*
X56678321Y-140210000D03*
D12*
X60488321Y-142750000D03*
D11*
X63028321Y-137670000D03*
D10*
X65568321Y-142750000D03*
X148277071Y-66550000D03*
D11*
X149547071Y-64010000D03*
D12*
X153357071Y-66550000D03*
D11*
X155897071Y-61470000D03*
D10*
X158437071Y-66550000D03*
X95889571Y-123700000D03*
D11*
X97159571Y-121160000D03*
D12*
X100969571Y-123700000D03*
D11*
X103509571Y-118620000D03*
D10*
X106049571Y-123700000D03*
X110177071Y-42737500D03*
D11*
X111447071Y-40197500D03*
D12*
X115257071Y-42737500D03*
D11*
X117797071Y-37657500D03*
D10*
X120337071Y-42737500D03*
X110177071Y-66550000D03*
D11*
X111447071Y-64010000D03*
D12*
X115257071Y-66550000D03*
D11*
X117797071Y-61470000D03*
D10*
X120337071Y-66550000D03*
X72077071Y-66550000D03*
D11*
X73347071Y-64010000D03*
D12*
X77157071Y-66550000D03*
D11*
X79697071Y-61470000D03*
D10*
X82237071Y-66550000D03*
D18*
X51680000Y-107783600D03*
X51680000Y-101535200D03*
D19*
X51680000Y-104659400D03*
D20*
X157687500Y-108500000D03*
D21*
X157687500Y-100700000D03*
D20*
X162490000Y-46520000D03*
D21*
X162490000Y-38720000D03*
D20*
X105320000Y-70429998D03*
D21*
X105320000Y-62629998D03*
D20*
X95805000Y-146600000D03*
D21*
X95805000Y-138800000D03*
D20*
X91017500Y-127565000D03*
D21*
X91017500Y-119765000D03*
D20*
X143440000Y-46550000D03*
D21*
X143440000Y-38750000D03*
D20*
X81477500Y-108495000D03*
D21*
X81477500Y-100695000D03*
D20*
X181550000Y-70370000D03*
D21*
X181550000Y-62570000D03*
D20*
X110030000Y-127530000D03*
D21*
X110030000Y-119730000D03*
D20*
X143410000Y-146570000D03*
D21*
X143410000Y-138770000D03*
D20*
X67230000Y-46650000D03*
D21*
X67230000Y-38850000D03*
D20*
X67177500Y-70452500D03*
D21*
X67177500Y-62652500D03*
D20*
X129170000Y-127530000D03*
D21*
X129170000Y-119730000D03*
D20*
X191040000Y-89440000D03*
D21*
X191040000Y-81640000D03*
D20*
X119625000Y-108520000D03*
D21*
X119625000Y-100720000D03*
D20*
X119602500Y-146625000D03*
D21*
X119602500Y-138825000D03*
D20*
X100560000Y-108480000D03*
D21*
X100560000Y-100680000D03*
D20*
X124360000Y-46580000D03*
D21*
X124360000Y-38780000D03*
D20*
X133900000Y-89510000D03*
D21*
X133900000Y-81710000D03*
D22*
X199967499Y-141070000D03*
D21*
X193212501Y-137170000D03*
D20*
X162480000Y-70390000D03*
D21*
X162480000Y-62590000D03*
D20*
X172010000Y-89440000D03*
D21*
X172010000Y-81640000D03*
D20*
X105300000Y-46600000D03*
D21*
X105300000Y-38800000D03*
D20*
X95770000Y-89500000D03*
D21*
X95770000Y-81700000D03*
D20*
X148215000Y-127565000D03*
D21*
X148215000Y-119765000D03*
D20*
X71960000Y-146640000D03*
D21*
X71960000Y-138840000D03*
D20*
X138642500Y-108465000D03*
D21*
X138642500Y-100665000D03*
D20*
X76735000Y-89500000D03*
D21*
X76735000Y-81700000D03*
D20*
X176750000Y-108500000D03*
D21*
X176750000Y-100700000D03*
D20*
X167242500Y-127530000D03*
D21*
X167242500Y-119730000D03*
D20*
X124380000Y-70430000D03*
D21*
X124380000Y-62630000D03*
D20*
X114830000Y-89500000D03*
D21*
X114830000Y-81700000D03*
D20*
X152972500Y-89465000D03*
D21*
X152972500Y-81665000D03*
D20*
X143450000Y-70410000D03*
D21*
X143450000Y-62610000D03*
D20*
X181510000Y-46520000D03*
D21*
X181510000Y-38720000D03*
D20*
X186270000Y-127550000D03*
D21*
X186270000Y-119750000D03*
D20*
X86260000Y-70430000D03*
D21*
X86260000Y-62630000D03*
M02*
