G04 #@! TF.GenerationSoftware,KiCad,Pcbnew,7.0.9*
G04 #@! TF.CreationDate,2023-12-20T04:01:07-06:00*
G04 #@! TF.ProjectId,keyboard,6b657962-6f61-4726-942e-6b696361645f,rev?*
G04 #@! TF.SameCoordinates,Original*
G04 #@! TF.FileFunction,Legend,Top*
G04 #@! TF.FilePolarity,Positive*
%FSLAX46Y46*%
G04 Gerber Fmt 4.6, Leading zero omitted, Abs format (unit mm)*
G04 Created by KiCad (PCBNEW 7.0.9) date 2023-12-20 04:01:07*
%MOMM*%
%LPD*%
G01*
G04 APERTURE LIST*
%ADD10C,0.200000*%
%ADD11C,0.150000*%
%ADD12R,1.752600X1.752600*%
%ADD13C,1.752600*%
G04 APERTURE END LIST*
D10*
X486064500Y-160924500D02*
X486064500Y-161925000D01*
X334090500Y-173973100D02*
X334490500Y-174666300D01*
X519112500Y-75825200D02*
X519913500Y-75825200D01*
X410374500Y-91774200D02*
X409575500Y-91774200D01*
X419100500Y-60913200D02*
X419899500Y-60913200D01*
X504313500Y-60913200D02*
X505114500Y-60913200D01*
X385249500Y-60913200D02*
X386050500Y-60913200D01*
X480501500Y-48913200D02*
X480501500Y-52012200D01*
X454306500Y-141874300D02*
X455105500Y-141874300D01*
X376237500Y-110824600D02*
X376237500Y-109825500D01*
X505114500Y-81625200D02*
X504313500Y-81625200D01*
X428913500Y-128875500D02*
X428913500Y-129874600D01*
X519112500Y-119725200D02*
X519112500Y-113925200D01*
X442399500Y-75825200D02*
X443200500Y-75825200D01*
X381799500Y-48913200D02*
X381000500Y-48913200D01*
X399537500Y-110824600D02*
X399537500Y-113925200D01*
X471775500Y-76424200D02*
X470250500Y-76424200D01*
X481813500Y-152025200D02*
X481813500Y-148924600D01*
X361950500Y-81625200D02*
X361950500Y-75825200D01*
X370962500Y-132975200D02*
X371763500Y-132975200D01*
X438150500Y-48913200D02*
X438150500Y-47913200D01*
X352425500Y-104774800D02*
X352425500Y-103774300D01*
X405100500Y-160924500D02*
X405100500Y-161925000D01*
X424663500Y-132975200D02*
X424663500Y-129874600D01*
X484194500Y-122824300D02*
X484194500Y-119725200D01*
X337624500Y-103774300D02*
X338425500Y-103774300D01*
X424150500Y-160924500D02*
X424150500Y-161925000D01*
X443200500Y-61912200D02*
X457200500Y-61912200D01*
X381288500Y-110824600D02*
X380487500Y-110824600D01*
X423349500Y-157825200D02*
X423349500Y-160924500D01*
X457200500Y-75825200D02*
X457999500Y-75825200D01*
X381799500Y-60913200D02*
X381799500Y-57812200D01*
X347149500Y-75825200D02*
X347950500Y-75825200D01*
X428625500Y-94875200D02*
X429424500Y-94875200D01*
X405100500Y-52012200D02*
X405100500Y-57812200D01*
X470250500Y-81024200D02*
X471775500Y-81024200D01*
X333663500Y-132975200D02*
X333663500Y-138775200D01*
X462250500Y-57812200D02*
X461449500Y-57812200D01*
X519112500Y-109825500D02*
X505114500Y-109825500D01*
X405100500Y-85725200D02*
X419100500Y-85725200D01*
X396088500Y-110824600D02*
X395287500Y-110824600D01*
X476250500Y-52012200D02*
X477051500Y-52012200D01*
X367000500Y-81625200D02*
X366199500Y-81625200D01*
X342900500Y-60913200D02*
X343699500Y-60913200D01*
X486064500Y-147925500D02*
X486064500Y-148924600D01*
X433675500Y-103774300D02*
X433675500Y-104774800D01*
X500863500Y-157825200D02*
X500062500Y-157825200D01*
X329679500Y-158592900D02*
X328816500Y-157099200D01*
X457200500Y-81625200D02*
X457200500Y-75825200D01*
X352713500Y-142874800D02*
X366712500Y-142874800D01*
X484918500Y-123594800D02*
X486643500Y-123594800D01*
X457999500Y-148924600D02*
X457200500Y-148924600D01*
X462250500Y-60913200D02*
X462250500Y-61912200D01*
X519112500Y-148924600D02*
X519112500Y-147925500D01*
X400050500Y-47913200D02*
X386050500Y-47913200D01*
X381000500Y-60913200D02*
X381799500Y-60913200D01*
X371475500Y-104774800D02*
X371475500Y-103774300D01*
X477051500Y-48913200D02*
X476250500Y-48913200D01*
X480501500Y-52012200D02*
X481302500Y-52012200D01*
X457200500Y-152025200D02*
X457999500Y-152025200D01*
X419899500Y-157825200D02*
X419100500Y-157825200D01*
X351912500Y-138775200D02*
X351912500Y-141874300D01*
X405100500Y-72724200D02*
X404299500Y-72724200D01*
X333723500Y-183739290D02*
X334137500Y-184453100D01*
X347662500Y-142874800D02*
X347662500Y-141874300D01*
X409575500Y-94875200D02*
X410374500Y-94875200D01*
X418587500Y-122824300D02*
X419388500Y-122824300D01*
X328900500Y-84724200D02*
X328900500Y-85725200D01*
X329067500Y-176872500D02*
X329586500Y-176572100D01*
X375724500Y-100675200D02*
X375724500Y-103774300D01*
X405613500Y-141874300D02*
X405613500Y-138775200D01*
X423349500Y-48913200D02*
X423349500Y-52012200D01*
X334490500Y-174666300D02*
X337174500Y-173116000D01*
X409575500Y-100675200D02*
X409575500Y-94875200D01*
X357475500Y-91774200D02*
X356674500Y-91774200D01*
X466212500Y-160924500D02*
X467013500Y-160924500D01*
X390525500Y-94875200D02*
X391324500Y-94875200D01*
X419100500Y-160924500D02*
X419899500Y-160924500D01*
X381000500Y-75825200D02*
X381799500Y-75825200D01*
X357475500Y-100675200D02*
X356674500Y-100675200D01*
X519112500Y-113925200D02*
X519913500Y-113925200D01*
X423349500Y-75825200D02*
X424150500Y-75825200D01*
X438150500Y-72724200D02*
X438150500Y-71725200D01*
X469394500Y-110824600D02*
X468593500Y-110824600D01*
X400338500Y-119725200D02*
X399537500Y-119725200D01*
X486064500Y-138775200D02*
X485263500Y-138775200D01*
X367000500Y-57812200D02*
X366199500Y-57812200D01*
X376525500Y-90775200D02*
X376525500Y-91774200D01*
X419100500Y-148924600D02*
X419100500Y-147925500D01*
X494873500Y-76424200D02*
X494051500Y-76424200D01*
X347950500Y-47913200D02*
X347950500Y-48913200D01*
X454306500Y-132975200D02*
X455105500Y-132975200D01*
X371763500Y-132975200D02*
X371763500Y-138775200D01*
X452725500Y-94875200D02*
X452725500Y-100675200D01*
X483394500Y-119124400D02*
X484918500Y-119124400D01*
X342387500Y-122824300D02*
X343188500Y-122824300D01*
X370962500Y-129874600D02*
X370962500Y-132975200D01*
X469905500Y-129874600D02*
X469106500Y-129874600D01*
X336774500Y-172422900D02*
X337641500Y-171922600D01*
X347149500Y-57812200D02*
X347149500Y-60913200D01*
X491670500Y-123594800D02*
X491670500Y-117324900D01*
X415138500Y-119725200D02*
X414337500Y-119725200D01*
X361437500Y-113925200D02*
X362238500Y-113925200D01*
X362749500Y-57812200D02*
X361950500Y-57812200D01*
X469905500Y-138775200D02*
X469106500Y-138775200D01*
X471775500Y-81024200D02*
X471775500Y-81625200D01*
X414337500Y-119725200D02*
X414337500Y-113925200D01*
X485775500Y-76424200D02*
X485775500Y-75825200D01*
X395287500Y-110824600D02*
X395287500Y-109825500D01*
X390525500Y-103774300D02*
X391324500Y-103774300D01*
X442399500Y-57812200D02*
X442399500Y-60913200D01*
X347950500Y-52012200D02*
X347950500Y-57812200D01*
X505114500Y-91774200D02*
X504313500Y-91774200D01*
X447675500Y-90775200D02*
X433675500Y-90775200D01*
X452725500Y-90775200D02*
X452725500Y-91774200D01*
X466212500Y-157825200D02*
X466212500Y-160924500D01*
X519913500Y-81625200D02*
X519112500Y-81625200D01*
X457200500Y-85725200D02*
X457200500Y-84724200D01*
X340717500Y-177710400D02*
X341756500Y-177109500D01*
X500062500Y-148924600D02*
X500062500Y-147925500D01*
X381000500Y-81625200D02*
X381000500Y-75825200D01*
X419100500Y-72724200D02*
X419100500Y-71725200D01*
X519112500Y-48913200D02*
X519112500Y-47913200D01*
X504313500Y-119725200D02*
X504313500Y-122824300D01*
X463500500Y-76424200D02*
X462675500Y-76424200D01*
X434188500Y-113925200D02*
X434188500Y-110824600D01*
X405100500Y-61912200D02*
X419100500Y-61912200D01*
X438150500Y-57812200D02*
X438150500Y-52012200D01*
X438949500Y-52012200D02*
X438949500Y-48913200D01*
X338425500Y-90775200D02*
X338425500Y-91774200D01*
X320873500Y-155882100D02*
X320461500Y-155168400D01*
X434188500Y-110824600D02*
X433387500Y-110824600D01*
X469394500Y-123824800D02*
X483394500Y-123824800D01*
X405100500Y-84724200D02*
X405100500Y-85725200D01*
X404299500Y-72724200D02*
X404299500Y-75825200D01*
X428913500Y-142874800D02*
X442912500Y-142874800D01*
X333663500Y-138775200D02*
X332862500Y-138775200D01*
X491338500Y-94875200D02*
X491338500Y-91774200D01*
X347950500Y-57812200D02*
X347149500Y-57812200D01*
X342387500Y-119725200D02*
X342387500Y-122824300D01*
X328900500Y-60913200D02*
X328900500Y-61912200D01*
X466143500Y-124795000D02*
X466143500Y-123594800D01*
X334332500Y-175592300D02*
X333570500Y-174272200D01*
X343699500Y-57812200D02*
X342900500Y-57812200D01*
X442912500Y-128875500D02*
X428913500Y-128875500D01*
X352713500Y-128875500D02*
X352713500Y-129874600D01*
X462250500Y-47913200D02*
X462250500Y-48913200D01*
X467869500Y-114524500D02*
X467869500Y-111294500D01*
X485263500Y-148924600D02*
X485263500Y-152025200D01*
X470974500Y-81625200D02*
X470974500Y-84724200D01*
X404812500Y-132975200D02*
X405613500Y-132975200D01*
X419388500Y-123824800D02*
X433387500Y-123824800D01*
X400050500Y-75825200D02*
X400849500Y-75825200D01*
X415138500Y-122824300D02*
X415138500Y-119725200D01*
X500863500Y-129874600D02*
X500062500Y-129874600D01*
X386050500Y-57812200D02*
X385249500Y-57812200D01*
X476539500Y-94875200D02*
X476539500Y-100675200D01*
X457999500Y-48913200D02*
X457200500Y-48913200D01*
X418587500Y-110824600D02*
X418587500Y-113925200D01*
X490537500Y-94875200D02*
X491338500Y-94875200D01*
X419899500Y-81625200D02*
X419100500Y-81625200D01*
X380487500Y-110824600D02*
X380487500Y-113925200D01*
X519112500Y-85725200D02*
X519112500Y-84724200D01*
X428112500Y-129874600D02*
X428112500Y-132975200D01*
X496101500Y-48913200D02*
X495300500Y-48913200D01*
X390813500Y-142874800D02*
X404812500Y-142874800D01*
X505114500Y-57812200D02*
X504313500Y-57812200D01*
X452725500Y-103774300D02*
X452725500Y-104774800D01*
X494051500Y-79225200D02*
X494873500Y-79225200D01*
X404812500Y-129874600D02*
X404812500Y-128875500D01*
X476539500Y-104774800D02*
X490537500Y-104774800D01*
X471775500Y-85725200D02*
X485775500Y-85725200D01*
X486064500Y-152025200D02*
X486064500Y-157825200D01*
X504313500Y-103774300D02*
X505114500Y-103774300D01*
X468593500Y-113925200D02*
X469394500Y-113925200D01*
X351912500Y-132975200D02*
X352713500Y-132975200D01*
X457999500Y-152025200D02*
X457999500Y-148924600D01*
X328206500Y-153640200D02*
X327167500Y-154241000D01*
X438150500Y-81625200D02*
X438150500Y-75825200D01*
X423862500Y-141874300D02*
X424663500Y-141874300D01*
X395575500Y-94875200D02*
X395575500Y-100675200D01*
X352713500Y-141874300D02*
X352713500Y-142874800D01*
X519913500Y-91774200D02*
X519112500Y-91774200D01*
X519913500Y-103774300D02*
X519913500Y-100675200D01*
X443200500Y-157825200D02*
X442399500Y-157825200D01*
X357187500Y-110824600D02*
X357187500Y-109825500D01*
X437637500Y-122824300D02*
X438438500Y-122824300D01*
X400338500Y-122824300D02*
X400338500Y-123824800D01*
X442912500Y-142874800D02*
X442912500Y-141874300D01*
X333663500Y-129874600D02*
X332862500Y-129874600D01*
X386050500Y-157825200D02*
X385249500Y-157825200D01*
X495300500Y-52012200D02*
X496101500Y-52012200D01*
X390012500Y-132975200D02*
X390813500Y-132975200D01*
X469394500Y-119124400D02*
X469394500Y-119725200D01*
X455105500Y-129874600D02*
X454306500Y-129874600D01*
X366712500Y-129874600D02*
X366712500Y-128875500D01*
X469106500Y-132975200D02*
X469905500Y-132975200D01*
X351912500Y-141874300D02*
X352713500Y-141874300D01*
X376237500Y-122824300D02*
X377038500Y-122824300D01*
X367000500Y-72724200D02*
X366199500Y-72724200D01*
X453238500Y-110824600D02*
X452437500Y-110824600D01*
X404299500Y-48913200D02*
X404299500Y-52012200D01*
X519112500Y-94875200D02*
X519913500Y-94875200D01*
X409062500Y-141874300D02*
X409863500Y-141874300D01*
X438150500Y-75825200D02*
X438949500Y-75825200D01*
X353224500Y-91774200D02*
X352425500Y-91774200D01*
X395575500Y-91774200D02*
X394774500Y-91774200D01*
X461119500Y-114524500D02*
X460293500Y-114524500D01*
X519913500Y-119725200D02*
X519112500Y-119725200D01*
X481012500Y-147925500D02*
X467013500Y-147925500D01*
X400849500Y-152025200D02*
X400849500Y-148924600D01*
X400338500Y-109825500D02*
X400338500Y-110824600D01*
X357475500Y-103774300D02*
X357475500Y-104774800D01*
X404299500Y-52012200D02*
X405100500Y-52012200D01*
X437637500Y-119725200D02*
X437637500Y-122824300D01*
X457999500Y-72724200D02*
X457200500Y-72724200D01*
X386050500Y-48913200D02*
X385249500Y-48913200D01*
X491338500Y-100675200D02*
X490537500Y-100675200D01*
X356674500Y-103774300D02*
X357475500Y-103774300D01*
X371475500Y-103774300D02*
X372274500Y-103774300D01*
X457200500Y-147925500D02*
X443200500Y-147925500D01*
X319027500Y-164743100D02*
X321824500Y-163128000D01*
X432874500Y-100675200D02*
X432874500Y-103774300D01*
X414337500Y-109825500D02*
X400338500Y-109825500D01*
X414625500Y-104774800D02*
X428625500Y-104774800D01*
X419100500Y-85725200D02*
X419100500Y-84724200D01*
X361950500Y-85725200D02*
X361950500Y-84724200D01*
X486064500Y-148924600D02*
X485263500Y-148924600D01*
X481302500Y-57812200D02*
X480501500Y-57812200D01*
X519913500Y-94875200D02*
X519913500Y-91774200D01*
X381799500Y-52012200D02*
X381799500Y-48913200D01*
X451924500Y-103774300D02*
X452725500Y-103774300D01*
X338425500Y-104774800D02*
X352425500Y-104774800D01*
X452437500Y-109825500D02*
X438438500Y-109825500D01*
X443200500Y-57812200D02*
X442399500Y-57812200D01*
X438949500Y-160924500D02*
X438949500Y-157825200D01*
X428913500Y-138775200D02*
X428112500Y-138775200D01*
X405613500Y-138775200D02*
X404812500Y-138775200D01*
X519112500Y-71725200D02*
X505114500Y-71725200D01*
X447675500Y-91774200D02*
X447675500Y-90775200D01*
X489024500Y-86695200D02*
X492326500Y-86695200D01*
X457999500Y-60913200D02*
X457999500Y-57812200D01*
X438438500Y-110824600D02*
X437637500Y-110824600D01*
X405100500Y-75825200D02*
X405100500Y-81625200D01*
X381000500Y-52012200D02*
X381799500Y-52012200D01*
X405100500Y-152025200D02*
X405100500Y-157825200D01*
X442399500Y-84724200D02*
X443200500Y-84724200D01*
X504313500Y-72724200D02*
X504313500Y-75825200D01*
X400849500Y-72724200D02*
X400050500Y-72724200D01*
X428913500Y-132975200D02*
X428913500Y-138775200D01*
X347950500Y-48913200D02*
X347149500Y-48913200D01*
X485263500Y-138775200D02*
X485263500Y-141874300D01*
X419899500Y-152025200D02*
X419899500Y-148924600D01*
X381000500Y-85725200D02*
X381000500Y-84724200D01*
X438438500Y-123824800D02*
X452437500Y-123824800D01*
X477051500Y-52012200D02*
X477051500Y-48913200D01*
X366199500Y-84724200D02*
X367000500Y-84724200D01*
X500062500Y-128875500D02*
X486064500Y-128875500D01*
X504313500Y-84724200D02*
X505114500Y-84724200D01*
X469394500Y-119725200D02*
X468593500Y-119725200D01*
X424150500Y-52012200D02*
X424150500Y-57812200D01*
X371763500Y-128875500D02*
X371763500Y-129874600D01*
X341756500Y-177109500D02*
X340105500Y-174251500D01*
X481813500Y-160924500D02*
X481813500Y-157825200D01*
X361950500Y-47913200D02*
X347950500Y-47913200D01*
X428625500Y-104774800D02*
X428625500Y-103774300D01*
X386050500Y-75825200D02*
X386050500Y-81625200D01*
X469106500Y-142874800D02*
X469106500Y-141874300D01*
X376237500Y-113925200D02*
X377038500Y-113925200D01*
X326782500Y-179116000D02*
X329466500Y-177565700D01*
X424150500Y-148924600D02*
X423349500Y-148924600D01*
X486064500Y-128875500D02*
X486064500Y-129874600D01*
X443200500Y-85725200D02*
X457200500Y-85725200D01*
X455105500Y-128875500D02*
X455105500Y-129874600D01*
X353224500Y-100675200D02*
X352425500Y-100675200D01*
X489945500Y-123594800D02*
X491670500Y-123594800D01*
X338425500Y-94875200D02*
X338425500Y-100675200D01*
X400849500Y-160924500D02*
X400849500Y-157825200D01*
X500062500Y-141874300D02*
X500863500Y-141874300D01*
X356674500Y-91774200D02*
X356674500Y-94875200D01*
X328900500Y-47913200D02*
X328900500Y-48913200D01*
X361950500Y-52012200D02*
X362749500Y-52012200D01*
X495300500Y-60913200D02*
X496101500Y-60913200D01*
X328099500Y-84724200D02*
X328900500Y-84724200D01*
X423349500Y-60913200D02*
X424150500Y-60913200D01*
X380487500Y-122824300D02*
X381288500Y-122824300D01*
X328900500Y-75825200D02*
X328900500Y-81625200D01*
X519913500Y-57812200D02*
X519112500Y-57812200D01*
X495300500Y-48913200D02*
X495300500Y-47913200D01*
X519913500Y-48913200D02*
X519112500Y-48913200D01*
X386563500Y-138775200D02*
X385762500Y-138775200D01*
X385762500Y-138775200D02*
X385762500Y-132975200D01*
X337174500Y-173116000D02*
X336774500Y-172422900D01*
X362238500Y-122824300D02*
X362238500Y-123824800D01*
X332862500Y-141874300D02*
X333663500Y-141874300D01*
X400849500Y-48913200D02*
X400050500Y-48913200D01*
X347950500Y-84724200D02*
X347950500Y-85725200D01*
X442399500Y-148924600D02*
X442399500Y-152025200D01*
X381000500Y-84724200D02*
X381799500Y-84724200D01*
X326381500Y-178422800D02*
X326782500Y-179116000D01*
X404299500Y-75825200D02*
X405100500Y-75825200D01*
X375724500Y-103774300D02*
X376525500Y-103774300D01*
X327089500Y-161847800D02*
X326570500Y-162148200D01*
X366199500Y-60913200D02*
X367000500Y-60913200D01*
X505114500Y-147925500D02*
X505114500Y-148924600D01*
X366199500Y-48913200D02*
X366199500Y-52012200D01*
X361950500Y-60913200D02*
X362749500Y-60913200D01*
X381799500Y-75825200D02*
X381799500Y-72724200D01*
X400849500Y-84724200D02*
X400849500Y-81625200D01*
X413824500Y-94875200D02*
X414625500Y-94875200D01*
X467524500Y-100675200D02*
X466725500Y-100675200D01*
X505114500Y-119725200D02*
X504313500Y-119725200D01*
X432874500Y-91774200D02*
X432874500Y-94875200D01*
X409575500Y-104774800D02*
X409575500Y-103774300D01*
X409062500Y-129874600D02*
X409062500Y-132975200D01*
X468593500Y-119725200D02*
X468593500Y-122824300D01*
X424150500Y-48913200D02*
X423349500Y-48913200D01*
X485775500Y-72724200D02*
X485775500Y-71725200D01*
X504313500Y-160924500D02*
X505114500Y-160924500D01*
X476250500Y-48913200D02*
X476250500Y-47913200D01*
X460293500Y-117324900D02*
X461119500Y-117324900D01*
X504313500Y-81625200D02*
X504313500Y-84724200D01*
X519112500Y-157825200D02*
X519112500Y-152025200D01*
X494873500Y-79225200D02*
X494873500Y-76424200D01*
X519913500Y-148924600D02*
X519112500Y-148924600D01*
X505114500Y-157825200D02*
X504313500Y-157825200D01*
X376525500Y-100675200D02*
X375724500Y-100675200D01*
X466725500Y-90775200D02*
X452725500Y-90775200D01*
X490537500Y-91774200D02*
X490537500Y-90775200D01*
X338203500Y-173357100D02*
X334332500Y-175592300D01*
X470250500Y-85495200D02*
X470250500Y-81024200D01*
X519112500Y-81625200D02*
X519112500Y-75825200D01*
X327167500Y-154241000D02*
X326304500Y-152747300D01*
X495300500Y-57812200D02*
X495300500Y-52012200D01*
X330348500Y-177892300D02*
X327551500Y-179507300D01*
X438150500Y-71725200D02*
X424150500Y-71725200D01*
X476539500Y-100675200D02*
X475738500Y-100675200D01*
X486576500Y-84724200D02*
X486576500Y-81625200D01*
X463500500Y-73194200D02*
X463500500Y-76424200D01*
X400050500Y-147925500D02*
X386050500Y-147925500D01*
X442912500Y-138775200D02*
X442912500Y-132975200D01*
X487299500Y-81024200D02*
X487299500Y-85495200D01*
X386050500Y-85725200D02*
X400050500Y-85725200D01*
X454306500Y-129874600D02*
X454306500Y-132975200D01*
X372274500Y-94875200D02*
X372274500Y-91774200D01*
X438949500Y-57812200D02*
X438150500Y-57812200D01*
X466725500Y-91774200D02*
X466725500Y-90775200D01*
X328900500Y-57812200D02*
X328099500Y-57812200D01*
X419100500Y-157825200D02*
X419100500Y-152025200D01*
X362238500Y-109825500D02*
X362238500Y-110824600D01*
X340105500Y-174251500D02*
X339066500Y-174852300D01*
X371763500Y-141874300D02*
X371763500Y-142874800D01*
X457200500Y-71725200D02*
X443200500Y-71725200D01*
X457200500Y-60913200D02*
X457999500Y-60913200D01*
X376525500Y-104774800D02*
X390525500Y-104774800D01*
X504313500Y-52012200D02*
X505114500Y-52012200D01*
X357187500Y-119725200D02*
X357187500Y-113925200D01*
X334137500Y-184453100D02*
X336562500Y-183054400D01*
X442399500Y-81625200D02*
X442399500Y-84724200D01*
X484918500Y-114524500D02*
X483394500Y-114524500D01*
X370962500Y-138775200D02*
X370962500Y-141874300D01*
X356674500Y-94875200D02*
X357475500Y-94875200D01*
X504313500Y-94875200D02*
X505114500Y-94875200D01*
X519913500Y-72724200D02*
X519112500Y-72724200D01*
X381000500Y-71725200D02*
X367000500Y-71725200D01*
X481012500Y-160924500D02*
X481813500Y-160924500D01*
X461449500Y-60913200D02*
X462250500Y-60913200D01*
X469905500Y-141874300D02*
X469905500Y-138775200D01*
X495300500Y-47913200D02*
X481302500Y-47913200D01*
X386050500Y-161925000D02*
X400050500Y-161925000D01*
X375724500Y-91774200D02*
X375724500Y-94875200D01*
X328099500Y-60913200D02*
X328900500Y-60913200D01*
X371763500Y-142874800D02*
X385762500Y-142874800D01*
X519913500Y-113925200D02*
X519913500Y-110824600D01*
X405100500Y-60913200D02*
X405100500Y-61912200D01*
X419100500Y-71725200D02*
X405100500Y-71725200D01*
X343188500Y-109825500D02*
X343188500Y-110824600D01*
X428913500Y-129874600D02*
X428112500Y-129874600D01*
X491338500Y-103774300D02*
X491338500Y-100675200D01*
X332862500Y-138775200D02*
X332862500Y-141874300D01*
X519112500Y-60913200D02*
X519913500Y-60913200D01*
X409062500Y-138775200D02*
X409062500Y-141874300D01*
X475738500Y-91774200D02*
X475738500Y-94875200D01*
X347662500Y-138775200D02*
X347662500Y-132975200D01*
X380487500Y-119725200D02*
X380487500Y-122824300D01*
X343699500Y-75825200D02*
X343699500Y-72724200D01*
X483394500Y-123824800D02*
X483394500Y-122824300D01*
X315652500Y-158897400D02*
X319027500Y-164743100D01*
X452437500Y-123824800D02*
X452437500Y-122824300D01*
X485263500Y-132975200D02*
X486064500Y-132975200D01*
X448474500Y-100675200D02*
X447675500Y-100675200D01*
X414625500Y-100675200D02*
X413824500Y-100675200D01*
X419100500Y-48913200D02*
X419100500Y-47913200D01*
X485263500Y-152025200D02*
X486064500Y-152025200D01*
X519112500Y-152025200D02*
X519913500Y-152025200D01*
X367000500Y-75825200D02*
X367000500Y-81625200D01*
X377038500Y-110824600D02*
X376237500Y-110824600D01*
X505114500Y-148924600D02*
X504313500Y-148924600D01*
X461449500Y-52012200D02*
X462250500Y-52012200D01*
X476539500Y-91774200D02*
X475738500Y-91774200D01*
X519112500Y-84724200D02*
X519913500Y-84724200D01*
X481813500Y-157825200D02*
X481012500Y-157825200D01*
X400050500Y-61912200D02*
X400050500Y-60913200D01*
X357988500Y-113925200D02*
X357988500Y-110824600D01*
X438150500Y-85725200D02*
X438150500Y-84724200D01*
X390525500Y-90775200D02*
X376525500Y-90775200D01*
X438150500Y-84724200D02*
X438949500Y-84724200D01*
X463500500Y-79225200D02*
X463500500Y-85495200D01*
X329855500Y-156498400D02*
X328206500Y-153640200D01*
X372274500Y-91774200D02*
X371475500Y-91774200D01*
X466212500Y-152025200D02*
X467013500Y-152025200D01*
X395287500Y-119725200D02*
X395287500Y-113925200D01*
X405100500Y-81625200D02*
X404299500Y-81625200D01*
X432874500Y-103774300D02*
X433675500Y-103774300D01*
X357187500Y-122824300D02*
X357988500Y-122824300D01*
X386563500Y-141874300D02*
X386563500Y-138775200D01*
X481012500Y-152025200D02*
X481813500Y-152025200D01*
X395575500Y-103774300D02*
X395575500Y-104774800D01*
X400050500Y-72724200D02*
X400050500Y-71725200D01*
X486643500Y-123594800D02*
X486643500Y-124795000D01*
X443200500Y-60913200D02*
X443200500Y-61912200D01*
X352425500Y-91774200D02*
X352425500Y-90775200D01*
X504313500Y-152025200D02*
X505114500Y-152025200D01*
X485263500Y-129874600D02*
X485263500Y-132975200D01*
X419100500Y-61912200D02*
X419100500Y-60913200D01*
X321824500Y-163128000D02*
X322586500Y-164448100D01*
X376525500Y-103774300D02*
X376525500Y-104774800D01*
X414337500Y-122824300D02*
X415138500Y-122824300D01*
X432874500Y-94875200D02*
X433675500Y-94875200D01*
X400849500Y-81625200D02*
X400050500Y-81625200D01*
X428913500Y-141874300D02*
X428913500Y-142874800D01*
X381288500Y-119725200D02*
X380487500Y-119725200D01*
X452437500Y-113925200D02*
X453238500Y-113925200D01*
X455105500Y-141874300D02*
X455105500Y-142874800D01*
X468593500Y-122824300D02*
X469394500Y-122824300D01*
X405613500Y-129874600D02*
X404812500Y-129874600D01*
X485775500Y-84724200D02*
X486576500Y-84724200D01*
X469394500Y-109825500D02*
X469394500Y-110824600D01*
X362749500Y-52012200D02*
X362749500Y-48913200D01*
X457200500Y-61912200D02*
X457200500Y-60913200D01*
X409575500Y-90775200D02*
X395575500Y-90775200D01*
X457200500Y-160924500D02*
X457999500Y-160924500D01*
X325516500Y-178923100D02*
X326381500Y-178422800D01*
X519112500Y-61912200D02*
X519112500Y-60913200D01*
X486064500Y-132975200D02*
X486064500Y-138775200D01*
X424150500Y-72724200D02*
X423349500Y-72724200D01*
X375724500Y-94875200D02*
X376525500Y-94875200D01*
X361950500Y-84724200D02*
X362749500Y-84724200D01*
X519112500Y-100675200D02*
X519112500Y-94875200D01*
X371475500Y-91774200D02*
X371475500Y-90775200D01*
X395287500Y-123824800D02*
X395287500Y-122824300D01*
X433387500Y-110824600D02*
X433387500Y-109825500D01*
X448474500Y-103774300D02*
X448474500Y-100675200D01*
X400050500Y-160924500D02*
X400849500Y-160924500D01*
X438949500Y-84724200D02*
X438949500Y-81625200D01*
X352425500Y-103774300D02*
X353224500Y-103774300D01*
X347662500Y-132975200D02*
X348463500Y-132975200D01*
X451924500Y-94875200D02*
X452725500Y-94875200D01*
X434188500Y-122824300D02*
X434188500Y-119725200D01*
X385249500Y-52012200D02*
X386050500Y-52012200D01*
X519112500Y-104774800D02*
X519112500Y-103774300D01*
X419100500Y-52012200D02*
X419899500Y-52012200D01*
X347950500Y-81625200D02*
X347149500Y-81625200D01*
X438150500Y-157825200D02*
X438150500Y-152025200D01*
X343699500Y-84724200D02*
X343699500Y-81625200D01*
X505114500Y-152025200D02*
X505114500Y-157825200D01*
X447675500Y-100675200D02*
X447675500Y-94875200D01*
X485775500Y-81625200D02*
X485775500Y-81024200D01*
X347149500Y-72724200D02*
X347149500Y-75825200D01*
X347950500Y-75825200D02*
X347950500Y-81625200D01*
X492326500Y-85495200D02*
X494051500Y-85495200D01*
X470974500Y-72724200D02*
X470974500Y-75825200D01*
X385762500Y-129874600D02*
X385762500Y-128875500D01*
X505114500Y-75825200D02*
X505114500Y-81625200D01*
X428112500Y-141874300D02*
X428913500Y-141874300D01*
X500863500Y-141874300D02*
X500863500Y-138775200D01*
X481302500Y-60913200D02*
X481302500Y-61912200D01*
X367000500Y-71725200D02*
X367000500Y-72724200D01*
X452437500Y-110824600D02*
X452437500Y-109825500D01*
X367513500Y-141874300D02*
X367513500Y-138775200D01*
X505114500Y-109825500D02*
X505114500Y-110824600D01*
X481813500Y-148924600D02*
X481012500Y-148924600D01*
X372274500Y-100675200D02*
X371475500Y-100675200D01*
X362238500Y-110824600D02*
X361437500Y-110824600D01*
X453238500Y-122824300D02*
X453238500Y-119725200D01*
X519112500Y-52012200D02*
X519913500Y-52012200D01*
X490537500Y-100675200D02*
X490537500Y-94875200D01*
X366712500Y-132975200D02*
X367513500Y-132975200D01*
X519913500Y-157825200D02*
X519112500Y-157825200D01*
X328099500Y-52012200D02*
X328900500Y-52012200D01*
X341578500Y-179204200D02*
X340717500Y-177710400D01*
X404812500Y-138775200D02*
X404812500Y-132975200D01*
X505114500Y-72724200D02*
X504313500Y-72724200D01*
X519112500Y-57812200D02*
X519112500Y-52012200D01*
X504313500Y-75825200D02*
X505114500Y-75825200D01*
X391324500Y-94875200D02*
X391324500Y-91774200D01*
X386050500Y-152025200D02*
X386050500Y-157825200D01*
X481012500Y-148924600D02*
X481012500Y-147925500D01*
X438438500Y-119725200D02*
X437637500Y-119725200D01*
X457999500Y-81625200D02*
X457200500Y-81625200D01*
X400050500Y-60913200D02*
X400849500Y-60913200D01*
X400338500Y-110824600D02*
X399537500Y-110824600D01*
X343699500Y-60913200D02*
X343699500Y-57812200D01*
X496101500Y-52012200D02*
X496101500Y-48913200D01*
X328900500Y-72724200D02*
X328099500Y-72724200D01*
X329774500Y-160297500D02*
X329374500Y-159605700D01*
X428625500Y-90775200D02*
X414625500Y-90775200D01*
X352425500Y-90775200D02*
X338425500Y-90775200D01*
X481302500Y-48913200D02*
X480501500Y-48913200D01*
X371475500Y-100675200D02*
X371475500Y-94875200D01*
X424150500Y-47913200D02*
X424150500Y-48913200D01*
X385762500Y-141874300D02*
X386563500Y-141874300D01*
X371763500Y-129874600D02*
X370962500Y-129874600D01*
X500863500Y-138775200D02*
X500062500Y-138775200D01*
X405100500Y-47913200D02*
X405100500Y-48913200D01*
X326304500Y-152747300D02*
X320873500Y-155882100D01*
X484918500Y-111294500D02*
X484918500Y-114524500D01*
X443200500Y-81625200D02*
X442399500Y-81625200D01*
X438949500Y-148924600D02*
X438150500Y-148924600D01*
X419100500Y-147925500D02*
X405100500Y-147925500D01*
X448474500Y-94875200D02*
X448474500Y-91774200D01*
X471775500Y-75825200D02*
X471775500Y-76424200D01*
X504313500Y-110824600D02*
X504313500Y-113925200D01*
X343699500Y-81625200D02*
X342900500Y-81625200D01*
X467524500Y-103774300D02*
X467524500Y-100675200D01*
X500062500Y-132975200D02*
X500863500Y-132975200D01*
X519112500Y-160924500D02*
X519913500Y-160924500D01*
X394774500Y-103774300D02*
X395575500Y-103774300D01*
X438438500Y-122824300D02*
X438438500Y-123824800D01*
X467869500Y-111294500D02*
X461119500Y-111294500D01*
X437637500Y-113925200D02*
X438438500Y-113925200D01*
X366199500Y-75825200D02*
X367000500Y-75825200D01*
X519112500Y-123824800D02*
X519112500Y-122824300D01*
X424150500Y-161925000D02*
X438150500Y-161925000D01*
X318981500Y-165605700D02*
X319382500Y-166297500D01*
X519913500Y-122824300D02*
X519913500Y-119725200D01*
X399537500Y-113925200D02*
X400338500Y-113925200D01*
X348463500Y-141874300D02*
X348463500Y-138775200D01*
X457999500Y-52012200D02*
X457999500Y-48913200D01*
X328900500Y-48913200D02*
X328099500Y-48913200D01*
X443200500Y-72724200D02*
X442399500Y-72724200D01*
X386050500Y-148924600D02*
X385249500Y-148924600D01*
X400050500Y-148924600D02*
X400050500Y-147925500D01*
X519913500Y-100675200D02*
X519112500Y-100675200D01*
X500863500Y-132975200D02*
X500863500Y-129874600D01*
X504313500Y-91774200D02*
X504313500Y-94875200D01*
X466725500Y-103774300D02*
X467524500Y-103774300D01*
X452437500Y-119725200D02*
X452437500Y-113925200D01*
X390012500Y-138775200D02*
X390012500Y-141874300D01*
X328099500Y-75825200D02*
X328900500Y-75825200D01*
X347950500Y-71725200D02*
X347950500Y-72724200D01*
X318449500Y-157282300D02*
X315652500Y-158897400D01*
X468524500Y-85495200D02*
X470250500Y-85495200D01*
X424150500Y-81625200D02*
X423349500Y-81625200D01*
X465224500Y-85495200D02*
X465224500Y-86695200D01*
X366712500Y-138775200D02*
X366712500Y-132975200D01*
X457200500Y-47913200D02*
X443200500Y-47913200D01*
X505114500Y-103774300D02*
X505114500Y-104774800D01*
X500062500Y-152025200D02*
X500863500Y-152025200D01*
X409863500Y-142874800D02*
X423862500Y-142874800D01*
X394774500Y-94875200D02*
X395575500Y-94875200D01*
X325808500Y-160828000D02*
X329679500Y-158592900D01*
X496101500Y-60913200D02*
X496101500Y-57812200D01*
X429424500Y-100675200D02*
X428625500Y-100675200D01*
X385249500Y-152025200D02*
X386050500Y-152025200D01*
X405100500Y-148924600D02*
X404299500Y-148924600D01*
X483394500Y-119725200D02*
X483394500Y-119124400D01*
X396088500Y-113925200D02*
X396088500Y-110824600D01*
X381000500Y-48913200D02*
X381000500Y-47913200D01*
X492495500Y-114524500D02*
X491670500Y-114524500D01*
X442399500Y-60913200D02*
X443200500Y-60913200D01*
X438949500Y-60913200D02*
X438949500Y-57812200D01*
X332862500Y-132975200D02*
X333663500Y-132975200D01*
X423862500Y-142874800D02*
X423862500Y-141874300D01*
X438949500Y-72724200D02*
X438150500Y-72724200D01*
X481012500Y-157825200D02*
X481012500Y-152025200D01*
X485263500Y-160924500D02*
X486064500Y-160924500D01*
X428625500Y-91774200D02*
X428625500Y-90775200D01*
X385762500Y-132975200D02*
X386563500Y-132975200D01*
X457200500Y-84724200D02*
X457999500Y-84724200D01*
X362238500Y-119725200D02*
X361437500Y-119725200D01*
X367000500Y-84724200D02*
X367000500Y-85725200D01*
X483394500Y-113925200D02*
X484194500Y-113925200D01*
X326690500Y-161156000D02*
X327089500Y-161847800D01*
X457200500Y-161925000D02*
X457200500Y-160924500D01*
X423349500Y-81625200D02*
X423349500Y-84724200D01*
X400050500Y-161925000D02*
X400050500Y-160924500D01*
X409062500Y-132975200D02*
X409863500Y-132975200D01*
X419388500Y-122824300D02*
X419388500Y-123824800D01*
X343188500Y-110824600D02*
X342387500Y-110824600D01*
X457999500Y-84724200D02*
X457999500Y-81625200D01*
X470974500Y-75825200D02*
X471775500Y-75825200D01*
X467869500Y-123594800D02*
X467869500Y-119124400D01*
X395575500Y-90775200D02*
X395575500Y-91774200D01*
X357187500Y-109825500D02*
X343188500Y-109825500D01*
X471775500Y-71725200D02*
X471775500Y-72724200D01*
X405100500Y-57812200D02*
X404299500Y-57812200D01*
X469394500Y-114524500D02*
X467869500Y-114524500D01*
X428625500Y-103774300D02*
X429424500Y-103774300D01*
X486064500Y-141874300D02*
X486064500Y-142874800D01*
X419899500Y-148924600D02*
X419100500Y-148924600D01*
X504313500Y-48913200D02*
X504313500Y-52012200D01*
X414625500Y-94875200D02*
X414625500Y-100675200D01*
X330926500Y-185354340D02*
X333723500Y-183739290D01*
X434188500Y-119725200D02*
X433387500Y-119725200D01*
X438949500Y-48913200D02*
X438150500Y-48913200D01*
X442399500Y-160924500D02*
X443200500Y-160924500D01*
X443713500Y-132975200D02*
X443713500Y-129874600D01*
X377038500Y-122824300D02*
X377038500Y-119725200D01*
X338425500Y-91774200D02*
X337624500Y-91774200D01*
X361950500Y-48913200D02*
X361950500Y-47913200D01*
X318515500Y-166797700D02*
X325516500Y-178923100D01*
X481012500Y-161925000D02*
X481012500Y-160924500D01*
X404299500Y-148924600D02*
X404299500Y-152025200D01*
X423349500Y-152025200D02*
X424150500Y-152025200D01*
X347149500Y-84724200D02*
X347950500Y-84724200D01*
X352425500Y-94875200D02*
X353224500Y-94875200D01*
X409863500Y-138775200D02*
X409062500Y-138775200D01*
X342900500Y-47913200D02*
X328900500Y-47913200D01*
X328900500Y-52012200D02*
X328900500Y-57812200D01*
X485775500Y-75825200D02*
X486576500Y-75825200D01*
X419100500Y-75825200D02*
X419899500Y-75825200D01*
X357475500Y-90775200D02*
X357475500Y-91774200D01*
X505114500Y-60913200D02*
X505114500Y-61912200D01*
X457200500Y-157825200D02*
X457200500Y-152025200D01*
X505114500Y-104774800D02*
X519112500Y-104774800D01*
X343699500Y-52012200D02*
X343699500Y-48913200D01*
X380487500Y-113925200D02*
X381288500Y-113925200D01*
X466725500Y-104774800D02*
X466725500Y-103774300D01*
X451924500Y-91774200D02*
X451924500Y-94875200D01*
X469905500Y-132975200D02*
X469905500Y-129874600D01*
X505114500Y-85725200D02*
X519112500Y-85725200D01*
X428625500Y-100675200D02*
X428625500Y-94875200D01*
X519913500Y-52012200D02*
X519913500Y-48913200D01*
X328900500Y-85725200D02*
X342900500Y-85725200D01*
X433387500Y-122824300D02*
X434188500Y-122824300D01*
X424150500Y-60913200D02*
X424150500Y-61912200D01*
X327551500Y-179507300D02*
X330926500Y-185354340D01*
X462675500Y-79225200D02*
X463500500Y-79225200D01*
X339066500Y-174852300D02*
X338203500Y-173357100D01*
X424150500Y-147925500D02*
X424150500Y-148924600D01*
X519913500Y-84724200D02*
X519913500Y-81625200D01*
X404299500Y-157825200D02*
X404299500Y-160924500D01*
X433675500Y-100675200D02*
X432874500Y-100675200D01*
X419899500Y-52012200D02*
X419899500Y-48913200D01*
X376237500Y-109825500D02*
X362238500Y-109825500D01*
X419899500Y-48913200D02*
X419100500Y-48913200D01*
X486064500Y-157825200D02*
X485263500Y-157825200D01*
X452725500Y-91774200D02*
X451924500Y-91774200D01*
X386050500Y-147925500D02*
X386050500Y-148924600D01*
X469106500Y-129874600D02*
X469106500Y-128875500D01*
X419388500Y-119725200D02*
X418587500Y-119725200D01*
X452725500Y-104774800D02*
X466725500Y-104774800D01*
X447675500Y-94875200D02*
X448474500Y-94875200D01*
X442399500Y-152025200D02*
X443200500Y-152025200D01*
X467013500Y-148924600D02*
X466212500Y-148924600D01*
X352713500Y-129874600D02*
X351912500Y-129874600D01*
X457200500Y-52012200D02*
X457999500Y-52012200D01*
X390525500Y-91774200D02*
X390525500Y-90775200D01*
X443200500Y-47913200D02*
X443200500Y-48913200D01*
X414625500Y-91774200D02*
X413824500Y-91774200D01*
X461119500Y-117324900D02*
X461119500Y-123594800D01*
X480501500Y-57812200D02*
X480501500Y-60913200D01*
X396088500Y-119725200D02*
X395287500Y-119725200D01*
X386050500Y-71725200D02*
X386050500Y-72724200D01*
X519112500Y-103774300D02*
X519913500Y-103774300D01*
X419899500Y-84724200D02*
X419899500Y-81625200D01*
X400050500Y-71725200D02*
X386050500Y-71725200D01*
X471775500Y-84724200D02*
X471775500Y-85725200D01*
X318037500Y-156567200D02*
X318449500Y-157282300D01*
X467013500Y-147925500D02*
X467013500Y-148924600D01*
X505114500Y-90775200D02*
X505114500Y-91774200D01*
X361437500Y-110824600D02*
X361437500Y-113925200D01*
X467869500Y-119124400D02*
X469394500Y-119124400D01*
X376525500Y-94875200D02*
X376525500Y-100675200D01*
X466212500Y-148924600D02*
X466212500Y-152025200D01*
X443200500Y-48913200D02*
X442399500Y-48913200D01*
X492326500Y-86695200D02*
X492326500Y-85495200D01*
X442912500Y-141874300D02*
X443713500Y-141874300D01*
X490537500Y-90775200D02*
X476539500Y-90775200D01*
X367513500Y-129874600D02*
X366712500Y-129874600D01*
X328900500Y-71725200D02*
X328900500Y-72724200D01*
X519112500Y-147925500D02*
X505114500Y-147925500D01*
X418587500Y-119725200D02*
X418587500Y-122824300D01*
X481302500Y-61912200D02*
X495300500Y-61912200D01*
X390012500Y-129874600D02*
X390012500Y-132975200D01*
X443713500Y-138775200D02*
X442912500Y-138775200D01*
X385762500Y-128875500D02*
X371763500Y-128875500D01*
X486576500Y-75825200D02*
X486576500Y-72724200D01*
X519112500Y-91774200D02*
X519112500Y-90775200D01*
X321667500Y-164055400D02*
X318981500Y-165605700D01*
X424150500Y-84724200D02*
X424150500Y-85725200D01*
X438150500Y-52012200D02*
X438949500Y-52012200D01*
X438150500Y-60913200D02*
X438949500Y-60913200D01*
X486064500Y-142874800D02*
X500062500Y-142874800D01*
X342900500Y-71725200D02*
X328900500Y-71725200D01*
X405100500Y-147925500D02*
X405100500Y-148924600D01*
X386050500Y-60913200D02*
X386050500Y-61912200D01*
X361437500Y-119725200D02*
X361437500Y-122824300D01*
X328900500Y-81625200D02*
X328099500Y-81625200D01*
X377038500Y-119725200D02*
X376237500Y-119725200D01*
X343188500Y-113925200D02*
X343188500Y-119725200D01*
X419100500Y-47913200D02*
X405100500Y-47913200D01*
X468593500Y-110824600D02*
X468593500Y-113925200D01*
X485263500Y-141874300D02*
X486064500Y-141874300D01*
X320461500Y-155168400D02*
X318037500Y-156567200D01*
X457200500Y-148924600D02*
X457200500Y-147925500D01*
X424150500Y-61912200D02*
X438150500Y-61912200D01*
X367513500Y-132975200D02*
X367513500Y-129874600D01*
X443200500Y-161925000D02*
X457200500Y-161925000D01*
X457200500Y-72724200D02*
X457200500Y-71725200D01*
X442399500Y-72724200D02*
X442399500Y-75825200D01*
X452725500Y-100675200D02*
X451924500Y-100675200D01*
X438150500Y-161925000D02*
X438150500Y-160924500D01*
X451924500Y-100675200D02*
X451924500Y-103774300D01*
X443200500Y-75825200D02*
X443200500Y-81625200D01*
X366199500Y-72724200D02*
X366199500Y-75825200D01*
X390813500Y-141874300D02*
X390813500Y-142874800D01*
X366712500Y-128875500D02*
X352713500Y-128875500D01*
X419388500Y-113925200D02*
X419388500Y-119725200D01*
X484194500Y-110824600D02*
X483394500Y-110824600D01*
X467524500Y-94875200D02*
X467524500Y-91774200D01*
X414337500Y-110824600D02*
X414337500Y-109825500D01*
X491670500Y-114524500D02*
X491670500Y-111294500D01*
X423349500Y-57812200D02*
X423349500Y-60913200D01*
X505114500Y-48913200D02*
X504313500Y-48913200D01*
X496101500Y-57812200D02*
X495300500Y-57812200D01*
X504313500Y-113925200D02*
X505114500Y-113925200D01*
X419100500Y-84724200D02*
X419899500Y-84724200D01*
X342387500Y-110824600D02*
X342387500Y-113925200D01*
X519112500Y-90775200D02*
X505114500Y-90775200D01*
X443200500Y-52012200D02*
X443200500Y-57812200D01*
X438438500Y-113925200D02*
X438438500Y-119725200D01*
X322067500Y-164747200D02*
X321667500Y-164055400D01*
X386050500Y-52012200D02*
X386050500Y-57812200D01*
X447675500Y-104774800D02*
X447675500Y-103774300D01*
X343188500Y-123824800D02*
X357187500Y-123824800D01*
X500062500Y-161925000D02*
X500062500Y-160924500D01*
X377038500Y-113925200D02*
X377038500Y-110824600D01*
X381288500Y-109825500D02*
X381288500Y-110824600D01*
X319382500Y-166297500D02*
X318515500Y-166797700D01*
X457999500Y-157825200D02*
X457200500Y-157825200D01*
X394774500Y-100675200D02*
X394774500Y-103774300D01*
X347149500Y-48913200D02*
X347149500Y-52012200D01*
X347662500Y-141874300D02*
X348463500Y-141874300D01*
X395287500Y-109825500D02*
X381288500Y-109825500D01*
X437637500Y-110824600D02*
X437637500Y-113925200D01*
X466725500Y-100675200D02*
X466725500Y-94875200D01*
X419899500Y-75825200D02*
X419899500Y-72724200D01*
X419388500Y-110824600D02*
X418587500Y-110824600D01*
X405100500Y-161925000D02*
X419100500Y-161925000D01*
X400849500Y-157825200D02*
X400050500Y-157825200D01*
X395287500Y-122824300D02*
X396088500Y-122824300D01*
X423862500Y-129874600D02*
X423862500Y-128875500D01*
X477051500Y-57812200D02*
X476250500Y-57812200D01*
X405100500Y-157825200D02*
X404299500Y-157825200D01*
X455105500Y-142874800D02*
X469106500Y-142874800D01*
X409863500Y-132975200D02*
X409863500Y-138775200D01*
X333570500Y-174272200D02*
X334090500Y-173973100D01*
X386563500Y-129874600D02*
X385762500Y-129874600D01*
X467013500Y-152025200D02*
X467013500Y-157825200D01*
X409575500Y-103774300D02*
X410374500Y-103774300D01*
X366199500Y-52012200D02*
X367000500Y-52012200D01*
X357187500Y-123824800D02*
X357187500Y-122824300D01*
X519112500Y-72724200D02*
X519112500Y-71725200D01*
X342387500Y-113925200D02*
X343188500Y-113925200D01*
X342900500Y-52012200D02*
X343699500Y-52012200D01*
X338425500Y-103774300D02*
X338425500Y-104774800D01*
X462250500Y-61912200D02*
X476250500Y-61912200D01*
X338425500Y-100675200D02*
X337624500Y-100675200D01*
X396088500Y-122824300D02*
X396088500Y-119725200D01*
X328816500Y-157099200D02*
X329855500Y-156498400D01*
X467524500Y-91774200D02*
X466725500Y-91774200D01*
X362238500Y-113925200D02*
X362238500Y-119725200D01*
X423349500Y-160924500D02*
X424150500Y-160924500D01*
X423862500Y-128875500D02*
X409863500Y-128875500D01*
X409575500Y-91774200D02*
X409575500Y-90775200D01*
X348463500Y-129874600D02*
X347662500Y-129874600D01*
X328900500Y-61912200D02*
X342900500Y-61912200D01*
X351912500Y-129874600D02*
X351912500Y-132975200D01*
X419100500Y-81625200D02*
X419100500Y-75825200D01*
X457999500Y-57812200D02*
X457200500Y-57812200D01*
X332862500Y-129874600D02*
X332862500Y-132975200D01*
X400849500Y-148924600D02*
X400050500Y-148924600D01*
X348463500Y-138775200D02*
X347662500Y-138775200D01*
X409863500Y-128875500D02*
X409863500Y-129874600D01*
X419100500Y-152025200D02*
X419899500Y-152025200D01*
X505114500Y-71725200D02*
X505114500Y-72724200D01*
X443713500Y-141874300D02*
X443713500Y-138775200D01*
X400849500Y-75825200D02*
X400849500Y-72724200D01*
X500863500Y-160924500D02*
X500863500Y-157825200D01*
X461119500Y-123594800D02*
X462844500Y-123594800D01*
X400338500Y-123824800D02*
X414337500Y-123824800D01*
X390813500Y-129874600D02*
X390012500Y-129874600D01*
X381288500Y-113925200D02*
X381288500Y-119725200D01*
X333663500Y-142874800D02*
X347662500Y-142874800D01*
X483394500Y-114524500D02*
X483394500Y-113925200D01*
X342900500Y-48913200D02*
X342900500Y-47913200D01*
X342900500Y-72724200D02*
X342900500Y-71725200D01*
X404299500Y-84724200D02*
X405100500Y-84724200D01*
X400050500Y-81625200D02*
X400050500Y-75825200D01*
X438150500Y-147925500D02*
X424150500Y-147925500D01*
X400849500Y-57812200D02*
X400050500Y-57812200D01*
X469394500Y-113925200D02*
X469394500Y-114524500D01*
X399537500Y-119725200D02*
X399537500Y-122824300D01*
X505114500Y-110824600D02*
X504313500Y-110824600D01*
X361950500Y-72724200D02*
X361950500Y-71725200D01*
X366712500Y-142874800D02*
X366712500Y-141874300D01*
X443200500Y-160924500D02*
X443200500Y-161925000D01*
X347950500Y-60913200D02*
X347950500Y-61912200D01*
X433387500Y-113925200D02*
X434188500Y-113925200D01*
X457999500Y-160924500D02*
X457999500Y-157825200D01*
X424150500Y-85725200D02*
X438150500Y-85725200D01*
X386050500Y-160924500D02*
X386050500Y-161925000D01*
X504313500Y-148924600D02*
X504313500Y-152025200D01*
X424150500Y-71725200D02*
X424150500Y-72724200D01*
X343699500Y-48913200D02*
X342900500Y-48913200D01*
X342900500Y-85725200D02*
X342900500Y-84724200D01*
X342900500Y-57812200D02*
X342900500Y-52012200D01*
X400050500Y-157825200D02*
X400050500Y-152025200D01*
X428112500Y-138775200D02*
X428112500Y-141874300D01*
X433675500Y-91774200D02*
X432874500Y-91774200D01*
X342900500Y-61912200D02*
X342900500Y-60913200D01*
X414337500Y-113925200D02*
X415138500Y-113925200D01*
X385249500Y-84724200D02*
X386050500Y-84724200D01*
X337624500Y-91774200D02*
X337624500Y-94875200D01*
X385249500Y-160924500D02*
X386050500Y-160924500D01*
X519112500Y-110824600D02*
X519112500Y-109825500D01*
X462250500Y-48913200D02*
X461449500Y-48913200D01*
X362749500Y-81625200D02*
X361950500Y-81625200D01*
X504313500Y-122824300D02*
X505114500Y-122824300D01*
X400338500Y-113925200D02*
X400338500Y-119725200D01*
X455105500Y-138775200D02*
X454306500Y-138775200D01*
X381000500Y-61912200D02*
X381000500Y-60913200D01*
X390525500Y-100675200D02*
X390525500Y-94875200D01*
X486064500Y-161925000D02*
X500062500Y-161925000D01*
X470974500Y-84724200D02*
X471775500Y-84724200D01*
X423349500Y-72724200D02*
X423349500Y-75825200D01*
X405100500Y-48913200D02*
X404299500Y-48913200D01*
X404812500Y-142874800D02*
X404812500Y-141874300D01*
X367000500Y-52012200D02*
X367000500Y-57812200D01*
X467013500Y-161925000D02*
X481012500Y-161925000D01*
X394774500Y-91774200D02*
X394774500Y-94875200D01*
X476539500Y-90775200D02*
X476539500Y-91774200D01*
X390012500Y-141874300D02*
X390813500Y-141874300D01*
X500062500Y-129874600D02*
X500062500Y-128875500D01*
X433675500Y-104774800D02*
X447675500Y-104774800D01*
X367000500Y-60913200D02*
X367000500Y-61912200D01*
X353224500Y-103774300D02*
X353224500Y-100675200D01*
X366199500Y-57812200D02*
X366199500Y-60913200D01*
X485775500Y-81024200D02*
X487299500Y-81024200D01*
X381799500Y-81625200D02*
X381000500Y-81625200D01*
X357187500Y-113925200D02*
X357988500Y-113925200D01*
X410374500Y-94875200D02*
X410374500Y-91774200D01*
X471775500Y-72724200D02*
X470974500Y-72724200D01*
X415138500Y-113925200D02*
X415138500Y-110824600D01*
X330640500Y-159797300D02*
X329774500Y-160297500D01*
X423349500Y-52012200D02*
X424150500Y-52012200D01*
X429424500Y-103774300D02*
X429424500Y-100675200D01*
X424663500Y-138775200D02*
X423862500Y-138775200D01*
X469106500Y-128875500D02*
X455105500Y-128875500D01*
X483394500Y-109825500D02*
X469394500Y-109825500D01*
X386050500Y-72724200D02*
X385249500Y-72724200D01*
X442399500Y-52012200D02*
X443200500Y-52012200D01*
X362238500Y-123824800D02*
X376237500Y-123824800D01*
X443200500Y-84724200D02*
X443200500Y-85725200D01*
X347149500Y-60913200D02*
X347950500Y-60913200D01*
X371475500Y-90775200D02*
X357475500Y-90775200D01*
X386050500Y-61912200D02*
X400050500Y-61912200D01*
X462250500Y-52012200D02*
X462250500Y-57812200D01*
X490537500Y-103774300D02*
X491338500Y-103774300D01*
X443200500Y-71725200D02*
X443200500Y-72724200D01*
X419899500Y-72724200D02*
X419100500Y-72724200D01*
X367000500Y-48913200D02*
X366199500Y-48913200D01*
X469106500Y-138775200D02*
X469106500Y-132975200D01*
X404299500Y-160924500D02*
X405100500Y-160924500D01*
X423349500Y-148924600D02*
X423349500Y-152025200D01*
X463500500Y-85495200D02*
X465224500Y-85495200D01*
X414337500Y-123824800D02*
X414337500Y-122824300D01*
X357988500Y-110824600D02*
X357187500Y-110824600D01*
X386050500Y-84724200D02*
X386050500Y-85725200D01*
X484918500Y-119124400D02*
X484918500Y-123594800D01*
X457999500Y-75825200D02*
X457999500Y-72724200D01*
X414625500Y-90775200D02*
X414625500Y-91774200D01*
X438438500Y-109825500D02*
X438438500Y-110824600D01*
X467013500Y-157825200D02*
X466212500Y-157825200D01*
X484194500Y-119725200D02*
X483394500Y-119725200D01*
X462844500Y-124795000D02*
X466143500Y-124795000D01*
X470250500Y-76424200D02*
X470250500Y-73194200D01*
X337624500Y-94875200D02*
X338425500Y-94875200D01*
X475738500Y-103774300D02*
X476539500Y-103774300D01*
X347662500Y-129874600D02*
X347662500Y-128875500D01*
X400050500Y-57812200D02*
X400050500Y-52012200D01*
X333663500Y-128875500D02*
X333663500Y-129874600D01*
X433675500Y-90775200D02*
X433675500Y-91774200D01*
X414625500Y-103774300D02*
X414625500Y-104774800D01*
X366712500Y-141874300D02*
X367513500Y-141874300D01*
X381799500Y-72724200D02*
X381000500Y-72724200D01*
X367513500Y-138775200D02*
X366712500Y-138775200D01*
X385249500Y-72724200D02*
X385249500Y-75825200D01*
X404299500Y-81625200D02*
X404299500Y-84724200D01*
X328099500Y-72724200D02*
X328099500Y-75825200D01*
X461449500Y-48913200D02*
X461449500Y-52012200D01*
X404299500Y-152025200D02*
X405100500Y-152025200D01*
X424663500Y-141874300D02*
X424663500Y-138775200D01*
X409863500Y-141874300D02*
X409863500Y-142874800D01*
X438150500Y-160924500D02*
X438949500Y-160924500D01*
X460293500Y-114524500D02*
X460293500Y-117324900D01*
X385762500Y-142874800D02*
X385762500Y-141874300D01*
X347662500Y-128875500D02*
X333663500Y-128875500D01*
X405613500Y-132975200D02*
X405613500Y-129874600D01*
X419100500Y-57812200D02*
X419100500Y-52012200D01*
X328099500Y-48913200D02*
X328099500Y-52012200D01*
X418587500Y-113925200D02*
X419388500Y-113925200D01*
X442912500Y-129874600D02*
X442912500Y-128875500D01*
X352713500Y-132975200D02*
X352713500Y-138775200D01*
X424150500Y-75825200D02*
X424150500Y-81625200D01*
X433387500Y-123824800D02*
X433387500Y-122824300D01*
X486576500Y-81625200D02*
X485775500Y-81625200D01*
X357475500Y-94875200D02*
X357475500Y-100675200D01*
X362749500Y-72724200D02*
X361950500Y-72724200D01*
X457200500Y-57812200D02*
X457200500Y-52012200D01*
X475738500Y-100675200D02*
X475738500Y-103774300D01*
X371475500Y-94875200D02*
X372274500Y-94875200D01*
X505114500Y-61912200D02*
X519112500Y-61912200D01*
X500863500Y-152025200D02*
X500863500Y-148924600D01*
X489945500Y-124795000D02*
X489945500Y-123594800D01*
X367000500Y-61912200D02*
X381000500Y-61912200D01*
X423862500Y-132975200D02*
X424663500Y-132975200D01*
X438949500Y-152025200D02*
X438949500Y-148924600D01*
X381799500Y-84724200D02*
X381799500Y-81625200D01*
X461119500Y-111294500D02*
X461119500Y-114524500D01*
X376525500Y-91774200D02*
X375724500Y-91774200D01*
X486064500Y-129874600D02*
X485263500Y-129874600D01*
X361950500Y-57812200D02*
X361950500Y-52012200D01*
X487299500Y-85495200D02*
X489024500Y-85495200D01*
X347149500Y-81625200D02*
X347149500Y-84724200D01*
X485775500Y-71725200D02*
X471775500Y-71725200D01*
X357988500Y-122824300D02*
X357988500Y-119725200D01*
X476250500Y-57812200D02*
X476250500Y-52012200D01*
X505114500Y-47913200D02*
X505114500Y-48913200D01*
X410374500Y-103774300D02*
X410374500Y-100675200D01*
X347950500Y-61912200D02*
X361950500Y-61912200D01*
X419899500Y-57812200D02*
X419100500Y-57812200D01*
X400050500Y-152025200D02*
X400849500Y-152025200D01*
X367000500Y-85725200D02*
X381000500Y-85725200D01*
X471775500Y-81625200D02*
X470974500Y-81625200D01*
X400050500Y-52012200D02*
X400849500Y-52012200D01*
X415138500Y-110824600D02*
X414337500Y-110824600D01*
X519112500Y-161925000D02*
X519112500Y-160924500D01*
X366199500Y-81625200D02*
X366199500Y-84724200D01*
X342900500Y-75825200D02*
X343699500Y-75825200D01*
X475738500Y-94875200D02*
X476539500Y-94875200D01*
X491670500Y-117324900D02*
X492495500Y-117324900D01*
X362749500Y-75825200D02*
X362749500Y-72724200D01*
X424150500Y-152025200D02*
X424150500Y-157825200D01*
X494051500Y-73194200D02*
X487299500Y-73194200D01*
X376237500Y-123824800D02*
X376237500Y-122824300D01*
X466725500Y-94875200D02*
X467524500Y-94875200D01*
X486576500Y-72724200D02*
X485775500Y-72724200D01*
X468524500Y-86695200D02*
X468524500Y-85495200D01*
X438150500Y-47913200D02*
X424150500Y-47913200D01*
X362749500Y-84724200D02*
X362749500Y-81625200D01*
X491338500Y-91774200D02*
X490537500Y-91774200D01*
X469106500Y-141874300D02*
X469905500Y-141874300D01*
X370962500Y-141874300D02*
X371763500Y-141874300D01*
X343188500Y-122824300D02*
X343188500Y-123824800D01*
X519913500Y-110824600D02*
X519112500Y-110824600D01*
X500062500Y-160924500D02*
X500863500Y-160924500D01*
X361950500Y-71725200D02*
X347950500Y-71725200D01*
X404299500Y-60913200D02*
X405100500Y-60913200D01*
X443200500Y-147925500D02*
X443200500Y-148924600D01*
X356674500Y-100675200D02*
X356674500Y-103774300D01*
X483394500Y-110824600D02*
X483394500Y-109825500D01*
X400849500Y-60913200D02*
X400849500Y-57812200D01*
X390813500Y-138775200D02*
X390012500Y-138775200D01*
X476250500Y-61912200D02*
X476250500Y-60913200D01*
X386050500Y-47913200D02*
X386050500Y-48913200D01*
X390525500Y-104774800D02*
X390525500Y-103774300D01*
X433675500Y-94875200D02*
X433675500Y-100675200D01*
X347950500Y-72724200D02*
X347149500Y-72724200D01*
X457200500Y-48913200D02*
X457200500Y-47913200D01*
X357988500Y-119725200D02*
X357187500Y-119725200D01*
X484194500Y-113925200D02*
X484194500Y-110824600D01*
X500062500Y-157825200D02*
X500062500Y-152025200D01*
X500062500Y-138775200D02*
X500062500Y-132975200D01*
X442399500Y-48913200D02*
X442399500Y-52012200D01*
X519913500Y-75825200D02*
X519913500Y-72724200D01*
X376237500Y-119725200D02*
X376237500Y-113925200D01*
X519112500Y-47913200D02*
X505114500Y-47913200D01*
X476539500Y-103774300D02*
X476539500Y-104774800D01*
X467013500Y-160924500D02*
X467013500Y-161925000D01*
X413824500Y-91774200D02*
X413824500Y-94875200D01*
X391324500Y-103774300D02*
X391324500Y-100675200D01*
X395575500Y-104774800D02*
X409575500Y-104774800D01*
X381000500Y-72724200D02*
X381000500Y-71725200D01*
X438150500Y-61912200D02*
X438150500Y-60913200D01*
X347950500Y-85725200D02*
X361950500Y-85725200D01*
X353224500Y-94875200D02*
X353224500Y-91774200D01*
X442912500Y-132975200D02*
X443713500Y-132975200D01*
X429424500Y-94875200D02*
X429424500Y-91774200D01*
X505114500Y-122824300D02*
X505114500Y-123824800D01*
X400050500Y-84724200D02*
X400849500Y-84724200D01*
X409863500Y-129874600D02*
X409062500Y-129874600D01*
X400849500Y-52012200D02*
X400849500Y-48913200D01*
X391324500Y-91774200D02*
X390525500Y-91774200D01*
X329466500Y-177565700D02*
X329067500Y-176872500D01*
X395575500Y-100675200D02*
X394774500Y-100675200D01*
X519913500Y-160924500D02*
X519913500Y-157825200D01*
X487299500Y-76424200D02*
X485775500Y-76424200D01*
X405100500Y-71725200D02*
X405100500Y-72724200D01*
X505114500Y-84724200D02*
X505114500Y-85725200D01*
X424150500Y-57812200D02*
X423349500Y-57812200D01*
X399537500Y-122824300D02*
X400338500Y-122824300D01*
X423349500Y-84724200D02*
X424150500Y-84724200D01*
X423862500Y-138775200D02*
X423862500Y-132975200D01*
X442399500Y-157825200D02*
X442399500Y-160924500D01*
X352425500Y-100675200D02*
X352425500Y-94875200D01*
X480501500Y-60913200D02*
X481302500Y-60913200D01*
X343188500Y-119725200D02*
X342387500Y-119725200D01*
X500863500Y-148924600D02*
X500062500Y-148924600D01*
X505114500Y-52012200D02*
X505114500Y-57812200D01*
X400050500Y-48913200D02*
X400050500Y-47913200D01*
X500062500Y-147925500D02*
X486064500Y-147925500D01*
X361950500Y-75825200D02*
X362749500Y-75825200D01*
X337641500Y-171922600D02*
X330640500Y-159797300D01*
X385249500Y-148924600D02*
X385249500Y-152025200D01*
X470250500Y-73194200D02*
X463500500Y-73194200D01*
X404812500Y-128875500D02*
X390813500Y-128875500D01*
X348463500Y-132975200D02*
X348463500Y-129874600D01*
X494051500Y-76424200D02*
X494051500Y-73194200D01*
X438150500Y-152025200D02*
X438949500Y-152025200D01*
X487299500Y-73194200D02*
X487299500Y-76424200D01*
X395287500Y-113925200D02*
X396088500Y-113925200D01*
X347149500Y-52012200D02*
X347950500Y-52012200D01*
X362749500Y-60913200D02*
X362749500Y-57812200D01*
X342900500Y-84724200D02*
X343699500Y-84724200D01*
X386563500Y-132975200D02*
X386563500Y-129874600D01*
X461449500Y-57812200D02*
X461449500Y-60913200D01*
X404299500Y-57812200D02*
X404299500Y-60913200D01*
X489024500Y-85495200D02*
X489024500Y-86695200D01*
X500062500Y-142874800D02*
X500062500Y-141874300D01*
X443200500Y-148924600D02*
X442399500Y-148924600D01*
X362749500Y-48913200D02*
X361950500Y-48913200D01*
X385249500Y-48913200D02*
X385249500Y-52012200D01*
X329586500Y-176572100D02*
X330348500Y-177892300D01*
X424150500Y-157825200D02*
X423349500Y-157825200D01*
X505114500Y-161925000D02*
X519112500Y-161925000D01*
X495300500Y-61912200D02*
X495300500Y-60913200D01*
X386050500Y-81625200D02*
X385249500Y-81625200D01*
X481302500Y-52012200D02*
X481302500Y-57812200D01*
X361437500Y-122824300D02*
X362238500Y-122824300D01*
X519913500Y-60913200D02*
X519913500Y-57812200D01*
X504313500Y-57812200D02*
X504313500Y-60913200D01*
X505114500Y-100675200D02*
X504313500Y-100675200D01*
X438949500Y-81625200D02*
X438150500Y-81625200D01*
X492495500Y-117324900D02*
X492495500Y-114524500D01*
X400050500Y-85725200D02*
X400050500Y-84724200D01*
X381288500Y-123824800D02*
X395287500Y-123824800D01*
X438150500Y-148924600D02*
X438150500Y-147925500D01*
X329374500Y-159605700D02*
X326690500Y-161156000D01*
X413824500Y-103774300D02*
X414625500Y-103774300D01*
X443200500Y-152025200D02*
X443200500Y-157825200D01*
X343699500Y-72724200D02*
X342900500Y-72724200D01*
X322586500Y-164448100D02*
X322067500Y-164747200D01*
X357475500Y-104774800D02*
X371475500Y-104774800D01*
X485775500Y-85725200D02*
X485775500Y-84724200D01*
X419899500Y-160924500D02*
X419899500Y-157825200D01*
X390813500Y-132975200D02*
X390813500Y-138775200D01*
X433387500Y-119725200D02*
X433387500Y-113925200D01*
X419100500Y-161925000D02*
X419100500Y-160924500D01*
X504313500Y-100675200D02*
X504313500Y-103774300D01*
X505114500Y-94875200D02*
X505114500Y-100675200D01*
X385249500Y-57812200D02*
X385249500Y-60913200D01*
X462675500Y-76424200D02*
X462675500Y-79225200D01*
X371763500Y-138775200D02*
X370962500Y-138775200D01*
X328099500Y-57812200D02*
X328099500Y-60913200D01*
X454306500Y-138775200D02*
X454306500Y-141874300D01*
X328099500Y-81625200D02*
X328099500Y-84724200D01*
X385249500Y-81625200D02*
X385249500Y-84724200D01*
X428112500Y-132975200D02*
X428913500Y-132975200D01*
X419899500Y-60913200D02*
X419899500Y-57812200D01*
X385249500Y-75825200D02*
X386050500Y-75825200D01*
X381799500Y-57812200D02*
X381000500Y-57812200D01*
X391324500Y-100675200D02*
X390525500Y-100675200D01*
X352713500Y-138775200D02*
X351912500Y-138775200D01*
X490537500Y-104774800D02*
X490537500Y-103774300D01*
X483394500Y-122824300D02*
X484194500Y-122824300D01*
X404812500Y-141874300D02*
X405613500Y-141874300D01*
X367000500Y-47913200D02*
X367000500Y-48913200D01*
X469394500Y-122824300D02*
X469394500Y-123824800D01*
X333663500Y-141874300D02*
X333663500Y-142874800D01*
X372274500Y-103774300D02*
X372274500Y-100675200D01*
X453238500Y-113925200D02*
X453238500Y-110824600D01*
X452437500Y-122824300D02*
X453238500Y-122824300D01*
X505114500Y-113925200D02*
X505114500Y-119725200D01*
X485263500Y-157825200D02*
X485263500Y-160924500D01*
X438949500Y-75825200D02*
X438949500Y-72724200D01*
X455105500Y-132975200D02*
X455105500Y-138775200D01*
X424663500Y-129874600D02*
X423862500Y-129874600D01*
X505114500Y-160924500D02*
X505114500Y-161925000D01*
X413824500Y-100675200D02*
X413824500Y-103774300D01*
X462844500Y-123594800D02*
X462844500Y-124795000D01*
X481302500Y-47913200D02*
X481302500Y-48913200D01*
X443713500Y-129874600D02*
X442912500Y-129874600D01*
X438949500Y-157825200D02*
X438150500Y-157825200D01*
X342900500Y-81625200D02*
X342900500Y-75825200D01*
X453238500Y-119725200D02*
X452437500Y-119725200D01*
X410374500Y-100675200D02*
X409575500Y-100675200D01*
X476250500Y-60913200D02*
X477051500Y-60913200D01*
X466143500Y-123594800D02*
X467869500Y-123594800D01*
X390813500Y-128875500D02*
X390813500Y-129874600D01*
X326570500Y-162148200D02*
X325808500Y-160828000D01*
X336562500Y-183054400D02*
X336149500Y-182339200D01*
X361950500Y-61912200D02*
X361950500Y-60913200D01*
X519913500Y-152025200D02*
X519913500Y-148924600D01*
X504313500Y-157825200D02*
X504313500Y-160924500D01*
X477051500Y-60913200D02*
X477051500Y-57812200D01*
X381000500Y-57812200D02*
X381000500Y-52012200D01*
X381288500Y-122824300D02*
X381288500Y-123824800D01*
X486643500Y-124795000D02*
X489945500Y-124795000D01*
X491670500Y-111294500D02*
X484918500Y-111294500D01*
X447675500Y-103774300D02*
X448474500Y-103774300D01*
X476250500Y-47913200D02*
X462250500Y-47913200D01*
X419388500Y-109825500D02*
X419388500Y-110824600D01*
X433387500Y-109825500D02*
X419388500Y-109825500D01*
X336149500Y-182339200D02*
X341578500Y-179204200D01*
X448474500Y-91774200D02*
X447675500Y-91774200D01*
X465224500Y-86695200D02*
X468524500Y-86695200D01*
X505114500Y-123824800D02*
X519112500Y-123824800D01*
X519112500Y-122824300D02*
X519913500Y-122824300D01*
X385249500Y-157825200D02*
X385249500Y-160924500D01*
X337624500Y-100675200D02*
X337624500Y-103774300D01*
X494051500Y-85495200D02*
X494051500Y-79225200D01*
X381000500Y-47913200D02*
X367000500Y-47913200D01*
X429424500Y-91774200D02*
X428625500Y-91774200D01*
D11*
X506146779Y-44219819D02*
X506146779Y-43219819D01*
X506146779Y-43219819D02*
X506384874Y-43219819D01*
X506384874Y-43219819D02*
X506527731Y-43267438D01*
X506527731Y-43267438D02*
X506622969Y-43362676D01*
X506622969Y-43362676D02*
X506670588Y-43457914D01*
X506670588Y-43457914D02*
X506718207Y-43648390D01*
X506718207Y-43648390D02*
X506718207Y-43791247D01*
X506718207Y-43791247D02*
X506670588Y-43981723D01*
X506670588Y-43981723D02*
X506622969Y-44076961D01*
X506622969Y-44076961D02*
X506527731Y-44172200D01*
X506527731Y-44172200D02*
X506384874Y-44219819D01*
X506384874Y-44219819D02*
X506146779Y-44219819D01*
X507527731Y-44172200D02*
X507432493Y-44219819D01*
X507432493Y-44219819D02*
X507242017Y-44219819D01*
X507242017Y-44219819D02*
X507146779Y-44172200D01*
X507146779Y-44172200D02*
X507099160Y-44076961D01*
X507099160Y-44076961D02*
X507099160Y-43696009D01*
X507099160Y-43696009D02*
X507146779Y-43600771D01*
X507146779Y-43600771D02*
X507242017Y-43553152D01*
X507242017Y-43553152D02*
X507432493Y-43553152D01*
X507432493Y-43553152D02*
X507527731Y-43600771D01*
X507527731Y-43600771D02*
X507575350Y-43696009D01*
X507575350Y-43696009D02*
X507575350Y-43791247D01*
X507575350Y-43791247D02*
X507099160Y-43886485D01*
X507956303Y-44172200D02*
X508051541Y-44219819D01*
X508051541Y-44219819D02*
X508242017Y-44219819D01*
X508242017Y-44219819D02*
X508337255Y-44172200D01*
X508337255Y-44172200D02*
X508384874Y-44076961D01*
X508384874Y-44076961D02*
X508384874Y-44029342D01*
X508384874Y-44029342D02*
X508337255Y-43934104D01*
X508337255Y-43934104D02*
X508242017Y-43886485D01*
X508242017Y-43886485D02*
X508099160Y-43886485D01*
X508099160Y-43886485D02*
X508003922Y-43838866D01*
X508003922Y-43838866D02*
X507956303Y-43743628D01*
X507956303Y-43743628D02*
X507956303Y-43696009D01*
X507956303Y-43696009D02*
X508003922Y-43600771D01*
X508003922Y-43600771D02*
X508099160Y-43553152D01*
X508099160Y-43553152D02*
X508242017Y-43553152D01*
X508242017Y-43553152D02*
X508337255Y-43600771D01*
X508813446Y-44219819D02*
X508813446Y-43553152D01*
X508813446Y-43219819D02*
X508765827Y-43267438D01*
X508765827Y-43267438D02*
X508813446Y-43315057D01*
X508813446Y-43315057D02*
X508861065Y-43267438D01*
X508861065Y-43267438D02*
X508813446Y-43219819D01*
X508813446Y-43219819D02*
X508813446Y-43315057D01*
X509718207Y-43553152D02*
X509718207Y-44362676D01*
X509718207Y-44362676D02*
X509670588Y-44457914D01*
X509670588Y-44457914D02*
X509622969Y-44505533D01*
X509622969Y-44505533D02*
X509527731Y-44553152D01*
X509527731Y-44553152D02*
X509384874Y-44553152D01*
X509384874Y-44553152D02*
X509289636Y-44505533D01*
X509718207Y-44172200D02*
X509622969Y-44219819D01*
X509622969Y-44219819D02*
X509432493Y-44219819D01*
X509432493Y-44219819D02*
X509337255Y-44172200D01*
X509337255Y-44172200D02*
X509289636Y-44124580D01*
X509289636Y-44124580D02*
X509242017Y-44029342D01*
X509242017Y-44029342D02*
X509242017Y-43743628D01*
X509242017Y-43743628D02*
X509289636Y-43648390D01*
X509289636Y-43648390D02*
X509337255Y-43600771D01*
X509337255Y-43600771D02*
X509432493Y-43553152D01*
X509432493Y-43553152D02*
X509622969Y-43553152D01*
X509622969Y-43553152D02*
X509718207Y-43600771D01*
X510194398Y-43553152D02*
X510194398Y-44219819D01*
X510194398Y-43648390D02*
X510242017Y-43600771D01*
X510242017Y-43600771D02*
X510337255Y-43553152D01*
X510337255Y-43553152D02*
X510480112Y-43553152D01*
X510480112Y-43553152D02*
X510575350Y-43600771D01*
X510575350Y-43600771D02*
X510622969Y-43696009D01*
X510622969Y-43696009D02*
X510622969Y-44219819D01*
X511480112Y-44172200D02*
X511384874Y-44219819D01*
X511384874Y-44219819D02*
X511194398Y-44219819D01*
X511194398Y-44219819D02*
X511099160Y-44172200D01*
X511099160Y-44172200D02*
X511051541Y-44076961D01*
X511051541Y-44076961D02*
X511051541Y-43696009D01*
X511051541Y-43696009D02*
X511099160Y-43600771D01*
X511099160Y-43600771D02*
X511194398Y-43553152D01*
X511194398Y-43553152D02*
X511384874Y-43553152D01*
X511384874Y-43553152D02*
X511480112Y-43600771D01*
X511480112Y-43600771D02*
X511527731Y-43696009D01*
X511527731Y-43696009D02*
X511527731Y-43791247D01*
X511527731Y-43791247D02*
X511051541Y-43886485D01*
X512384874Y-44219819D02*
X512384874Y-43219819D01*
X512384874Y-44172200D02*
X512289636Y-44219819D01*
X512289636Y-44219819D02*
X512099160Y-44219819D01*
X512099160Y-44219819D02*
X512003922Y-44172200D01*
X512003922Y-44172200D02*
X511956303Y-44124580D01*
X511956303Y-44124580D02*
X511908684Y-44029342D01*
X511908684Y-44029342D02*
X511908684Y-43743628D01*
X511908684Y-43743628D02*
X511956303Y-43648390D01*
X511956303Y-43648390D02*
X512003922Y-43600771D01*
X512003922Y-43600771D02*
X512099160Y-43553152D01*
X512099160Y-43553152D02*
X512289636Y-43553152D01*
X512289636Y-43553152D02*
X512384874Y-43600771D01*
X513622970Y-44219819D02*
X513622970Y-43219819D01*
X513622970Y-43600771D02*
X513718208Y-43553152D01*
X513718208Y-43553152D02*
X513908684Y-43553152D01*
X513908684Y-43553152D02*
X514003922Y-43600771D01*
X514003922Y-43600771D02*
X514051541Y-43648390D01*
X514051541Y-43648390D02*
X514099160Y-43743628D01*
X514099160Y-43743628D02*
X514099160Y-44029342D01*
X514099160Y-44029342D02*
X514051541Y-44124580D01*
X514051541Y-44124580D02*
X514003922Y-44172200D01*
X514003922Y-44172200D02*
X513908684Y-44219819D01*
X513908684Y-44219819D02*
X513718208Y-44219819D01*
X513718208Y-44219819D02*
X513622970Y-44172200D01*
X514432494Y-43553152D02*
X514670589Y-44219819D01*
X514908684Y-43553152D02*
X514670589Y-44219819D01*
X514670589Y-44219819D02*
X514575351Y-44457914D01*
X514575351Y-44457914D02*
X514527732Y-44505533D01*
X514527732Y-44505533D02*
X514432494Y-44553152D01*
X516051542Y-44219819D02*
X516051542Y-43219819D01*
X516622970Y-44219819D02*
X516194399Y-43648390D01*
X516622970Y-43219819D02*
X516051542Y-43791247D01*
X516956304Y-43553152D02*
X517194399Y-44219819D01*
X517432494Y-43553152D02*
X517194399Y-44219819D01*
X517194399Y-44219819D02*
X517099161Y-44457914D01*
X517099161Y-44457914D02*
X517051542Y-44505533D01*
X517051542Y-44505533D02*
X516956304Y-44553152D01*
X517956304Y-44219819D02*
X517861066Y-44172200D01*
X517861066Y-44172200D02*
X517813447Y-44076961D01*
X517813447Y-44076961D02*
X517813447Y-43219819D01*
X518718209Y-44172200D02*
X518622971Y-44219819D01*
X518622971Y-44219819D02*
X518432495Y-44219819D01*
X518432495Y-44219819D02*
X518337257Y-44172200D01*
X518337257Y-44172200D02*
X518289638Y-44076961D01*
X518289638Y-44076961D02*
X518289638Y-43696009D01*
X518289638Y-43696009D02*
X518337257Y-43600771D01*
X518337257Y-43600771D02*
X518432495Y-43553152D01*
X518432495Y-43553152D02*
X518622971Y-43553152D01*
X518622971Y-43553152D02*
X518718209Y-43600771D01*
X518718209Y-43600771D02*
X518765828Y-43696009D01*
X518765828Y-43696009D02*
X518765828Y-43791247D01*
X518765828Y-43791247D02*
X518289638Y-43886485D01*
X520527733Y-44124580D02*
X520480114Y-44172200D01*
X520480114Y-44172200D02*
X520337257Y-44219819D01*
X520337257Y-44219819D02*
X520242019Y-44219819D01*
X520242019Y-44219819D02*
X520099162Y-44172200D01*
X520099162Y-44172200D02*
X520003924Y-44076961D01*
X520003924Y-44076961D02*
X519956305Y-43981723D01*
X519956305Y-43981723D02*
X519908686Y-43791247D01*
X519908686Y-43791247D02*
X519908686Y-43648390D01*
X519908686Y-43648390D02*
X519956305Y-43457914D01*
X519956305Y-43457914D02*
X520003924Y-43362676D01*
X520003924Y-43362676D02*
X520099162Y-43267438D01*
X520099162Y-43267438D02*
X520242019Y-43219819D01*
X520242019Y-43219819D02*
X520337257Y-43219819D01*
X520337257Y-43219819D02*
X520480114Y-43267438D01*
X520480114Y-43267438D02*
X520527733Y-43315057D01*
X520956305Y-44219819D02*
X520956305Y-43219819D01*
X521384876Y-44219819D02*
X521384876Y-43696009D01*
X521384876Y-43696009D02*
X521337257Y-43600771D01*
X521337257Y-43600771D02*
X521242019Y-43553152D01*
X521242019Y-43553152D02*
X521099162Y-43553152D01*
X521099162Y-43553152D02*
X521003924Y-43600771D01*
X521003924Y-43600771D02*
X520956305Y-43648390D01*
X521861067Y-44219819D02*
X521861067Y-43553152D01*
X521861067Y-43219819D02*
X521813448Y-43267438D01*
X521813448Y-43267438D02*
X521861067Y-43315057D01*
X521861067Y-43315057D02*
X521908686Y-43267438D01*
X521908686Y-43267438D02*
X521861067Y-43219819D01*
X521861067Y-43219819D02*
X521861067Y-43315057D01*
X522765828Y-43553152D02*
X522765828Y-44219819D01*
X522337257Y-43553152D02*
X522337257Y-44076961D01*
X522337257Y-44076961D02*
X522384876Y-44172200D01*
X522384876Y-44172200D02*
X522480114Y-44219819D01*
X522480114Y-44219819D02*
X522622971Y-44219819D01*
X522622971Y-44219819D02*
X522718209Y-44172200D01*
X522718209Y-44172200D02*
X522765828Y-44124580D01*
X327208207Y-44379819D02*
X326874874Y-43903628D01*
X326636779Y-44379819D02*
X326636779Y-43379819D01*
X326636779Y-43379819D02*
X327017731Y-43379819D01*
X327017731Y-43379819D02*
X327112969Y-43427438D01*
X327112969Y-43427438D02*
X327160588Y-43475057D01*
X327160588Y-43475057D02*
X327208207Y-43570295D01*
X327208207Y-43570295D02*
X327208207Y-43713152D01*
X327208207Y-43713152D02*
X327160588Y-43808390D01*
X327160588Y-43808390D02*
X327112969Y-43856009D01*
X327112969Y-43856009D02*
X327017731Y-43903628D01*
X327017731Y-43903628D02*
X326636779Y-43903628D01*
X327636779Y-44379819D02*
X327636779Y-43713152D01*
X327636779Y-43379819D02*
X327589160Y-43427438D01*
X327589160Y-43427438D02*
X327636779Y-43475057D01*
X327636779Y-43475057D02*
X327684398Y-43427438D01*
X327684398Y-43427438D02*
X327636779Y-43379819D01*
X327636779Y-43379819D02*
X327636779Y-43475057D01*
X328541540Y-43713152D02*
X328541540Y-44522676D01*
X328541540Y-44522676D02*
X328493921Y-44617914D01*
X328493921Y-44617914D02*
X328446302Y-44665533D01*
X328446302Y-44665533D02*
X328351064Y-44713152D01*
X328351064Y-44713152D02*
X328208207Y-44713152D01*
X328208207Y-44713152D02*
X328112969Y-44665533D01*
X328541540Y-44332200D02*
X328446302Y-44379819D01*
X328446302Y-44379819D02*
X328255826Y-44379819D01*
X328255826Y-44379819D02*
X328160588Y-44332200D01*
X328160588Y-44332200D02*
X328112969Y-44284580D01*
X328112969Y-44284580D02*
X328065350Y-44189342D01*
X328065350Y-44189342D02*
X328065350Y-43903628D01*
X328065350Y-43903628D02*
X328112969Y-43808390D01*
X328112969Y-43808390D02*
X328160588Y-43760771D01*
X328160588Y-43760771D02*
X328255826Y-43713152D01*
X328255826Y-43713152D02*
X328446302Y-43713152D01*
X328446302Y-43713152D02*
X328541540Y-43760771D01*
X329017731Y-44379819D02*
X329017731Y-43379819D01*
X329446302Y-44379819D02*
X329446302Y-43856009D01*
X329446302Y-43856009D02*
X329398683Y-43760771D01*
X329398683Y-43760771D02*
X329303445Y-43713152D01*
X329303445Y-43713152D02*
X329160588Y-43713152D01*
X329160588Y-43713152D02*
X329065350Y-43760771D01*
X329065350Y-43760771D02*
X329017731Y-43808390D01*
X329779636Y-43713152D02*
X330160588Y-43713152D01*
X329922493Y-43379819D02*
X329922493Y-44236961D01*
X329922493Y-44236961D02*
X329970112Y-44332200D01*
X329970112Y-44332200D02*
X330065350Y-44379819D01*
X330065350Y-44379819D02*
X330160588Y-44379819D01*
X331208208Y-44332200D02*
X331351065Y-44379819D01*
X331351065Y-44379819D02*
X331589160Y-44379819D01*
X331589160Y-44379819D02*
X331684398Y-44332200D01*
X331684398Y-44332200D02*
X331732017Y-44284580D01*
X331732017Y-44284580D02*
X331779636Y-44189342D01*
X331779636Y-44189342D02*
X331779636Y-44094104D01*
X331779636Y-44094104D02*
X331732017Y-43998866D01*
X331732017Y-43998866D02*
X331684398Y-43951247D01*
X331684398Y-43951247D02*
X331589160Y-43903628D01*
X331589160Y-43903628D02*
X331398684Y-43856009D01*
X331398684Y-43856009D02*
X331303446Y-43808390D01*
X331303446Y-43808390D02*
X331255827Y-43760771D01*
X331255827Y-43760771D02*
X331208208Y-43665533D01*
X331208208Y-43665533D02*
X331208208Y-43570295D01*
X331208208Y-43570295D02*
X331255827Y-43475057D01*
X331255827Y-43475057D02*
X331303446Y-43427438D01*
X331303446Y-43427438D02*
X331398684Y-43379819D01*
X331398684Y-43379819D02*
X331636779Y-43379819D01*
X331636779Y-43379819D02*
X331779636Y-43427438D01*
X332208208Y-44379819D02*
X332208208Y-43713152D01*
X332208208Y-43379819D02*
X332160589Y-43427438D01*
X332160589Y-43427438D02*
X332208208Y-43475057D01*
X332208208Y-43475057D02*
X332255827Y-43427438D01*
X332255827Y-43427438D02*
X332208208Y-43379819D01*
X332208208Y-43379819D02*
X332208208Y-43475057D01*
X333112969Y-44379819D02*
X333112969Y-43379819D01*
X333112969Y-44332200D02*
X333017731Y-44379819D01*
X333017731Y-44379819D02*
X332827255Y-44379819D01*
X332827255Y-44379819D02*
X332732017Y-44332200D01*
X332732017Y-44332200D02*
X332684398Y-44284580D01*
X332684398Y-44284580D02*
X332636779Y-44189342D01*
X332636779Y-44189342D02*
X332636779Y-43903628D01*
X332636779Y-43903628D02*
X332684398Y-43808390D01*
X332684398Y-43808390D02*
X332732017Y-43760771D01*
X332732017Y-43760771D02*
X332827255Y-43713152D01*
X332827255Y-43713152D02*
X333017731Y-43713152D01*
X333017731Y-43713152D02*
X333112969Y-43760771D01*
X333970112Y-44332200D02*
X333874874Y-44379819D01*
X333874874Y-44379819D02*
X333684398Y-44379819D01*
X333684398Y-44379819D02*
X333589160Y-44332200D01*
X333589160Y-44332200D02*
X333541541Y-44236961D01*
X333541541Y-44236961D02*
X333541541Y-43856009D01*
X333541541Y-43856009D02*
X333589160Y-43760771D01*
X333589160Y-43760771D02*
X333684398Y-43713152D01*
X333684398Y-43713152D02*
X333874874Y-43713152D01*
X333874874Y-43713152D02*
X333970112Y-43760771D01*
X333970112Y-43760771D02*
X334017731Y-43856009D01*
X334017731Y-43856009D02*
X334017731Y-43951247D01*
X334017731Y-43951247D02*
X333541541Y-44046485D01*
X313674333Y-58843247D02*
X313407667Y-58843247D01*
X313407667Y-59262295D02*
X313407667Y-58462295D01*
X313407667Y-58462295D02*
X313788619Y-58462295D01*
X314474333Y-58462295D02*
X314093381Y-58462295D01*
X314093381Y-58462295D02*
X314055285Y-58843247D01*
X314055285Y-58843247D02*
X314093381Y-58805152D01*
X314093381Y-58805152D02*
X314169571Y-58767057D01*
X314169571Y-58767057D02*
X314360047Y-58767057D01*
X314360047Y-58767057D02*
X314436238Y-58805152D01*
X314436238Y-58805152D02*
X314474333Y-58843247D01*
X314474333Y-58843247D02*
X314512428Y-58919438D01*
X314512428Y-58919438D02*
X314512428Y-59109914D01*
X314512428Y-59109914D02*
X314474333Y-59186104D01*
X314474333Y-59186104D02*
X314436238Y-59224200D01*
X314436238Y-59224200D02*
X314360047Y-59262295D01*
X314360047Y-59262295D02*
X314169571Y-59262295D01*
X314169571Y-59262295D02*
X314093381Y-59224200D01*
X314093381Y-59224200D02*
X314055285Y-59186104D01*
X313617190Y-71543247D02*
X313731476Y-71581342D01*
X313731476Y-71581342D02*
X313769571Y-71619438D01*
X313769571Y-71619438D02*
X313807667Y-71695628D01*
X313807667Y-71695628D02*
X313807667Y-71809914D01*
X313807667Y-71809914D02*
X313769571Y-71886104D01*
X313769571Y-71886104D02*
X313731476Y-71924200D01*
X313731476Y-71924200D02*
X313655286Y-71962295D01*
X313655286Y-71962295D02*
X313350524Y-71962295D01*
X313350524Y-71962295D02*
X313350524Y-71162295D01*
X313350524Y-71162295D02*
X313617190Y-71162295D01*
X313617190Y-71162295D02*
X313693381Y-71200390D01*
X313693381Y-71200390D02*
X313731476Y-71238485D01*
X313731476Y-71238485D02*
X313769571Y-71314676D01*
X313769571Y-71314676D02*
X313769571Y-71390866D01*
X313769571Y-71390866D02*
X313731476Y-71467057D01*
X313731476Y-71467057D02*
X313693381Y-71505152D01*
X313693381Y-71505152D02*
X313617190Y-71543247D01*
X313617190Y-71543247D02*
X313350524Y-71543247D01*
X314112428Y-71238485D02*
X314150524Y-71200390D01*
X314150524Y-71200390D02*
X314226714Y-71162295D01*
X314226714Y-71162295D02*
X314417190Y-71162295D01*
X314417190Y-71162295D02*
X314493381Y-71200390D01*
X314493381Y-71200390D02*
X314531476Y-71238485D01*
X314531476Y-71238485D02*
X314569571Y-71314676D01*
X314569571Y-71314676D02*
X314569571Y-71390866D01*
X314569571Y-71390866D02*
X314531476Y-71505152D01*
X314531476Y-71505152D02*
X314074333Y-71962295D01*
X314074333Y-71962295D02*
X314569571Y-71962295D01*
X313388619Y-46562295D02*
X313121952Y-46181342D01*
X312931476Y-46562295D02*
X312931476Y-45762295D01*
X312931476Y-45762295D02*
X313236238Y-45762295D01*
X313236238Y-45762295D02*
X313312428Y-45800390D01*
X313312428Y-45800390D02*
X313350523Y-45838485D01*
X313350523Y-45838485D02*
X313388619Y-45914676D01*
X313388619Y-45914676D02*
X313388619Y-46028961D01*
X313388619Y-46028961D02*
X313350523Y-46105152D01*
X313350523Y-46105152D02*
X313312428Y-46143247D01*
X313312428Y-46143247D02*
X313236238Y-46181342D01*
X313236238Y-46181342D02*
X312931476Y-46181342D01*
X313693380Y-46333723D02*
X314074333Y-46333723D01*
X313617190Y-46562295D02*
X313883857Y-45762295D01*
X313883857Y-45762295D02*
X314150523Y-46562295D01*
X314340999Y-45762295D02*
X314531475Y-46562295D01*
X314531475Y-46562295D02*
X314683856Y-45990866D01*
X314683856Y-45990866D02*
X314836237Y-46562295D01*
X314836237Y-46562295D02*
X315026714Y-45762295D01*
X302885667Y-64266104D02*
X302847571Y-64304200D01*
X302847571Y-64304200D02*
X302733286Y-64342295D01*
X302733286Y-64342295D02*
X302657095Y-64342295D01*
X302657095Y-64342295D02*
X302542809Y-64304200D01*
X302542809Y-64304200D02*
X302466619Y-64228009D01*
X302466619Y-64228009D02*
X302428524Y-64151819D01*
X302428524Y-64151819D02*
X302390428Y-63999438D01*
X302390428Y-63999438D02*
X302390428Y-63885152D01*
X302390428Y-63885152D02*
X302428524Y-63732771D01*
X302428524Y-63732771D02*
X302466619Y-63656580D01*
X302466619Y-63656580D02*
X302542809Y-63580390D01*
X302542809Y-63580390D02*
X302657095Y-63542295D01*
X302657095Y-63542295D02*
X302733286Y-63542295D01*
X302733286Y-63542295D02*
X302847571Y-63580390D01*
X302847571Y-63580390D02*
X302885667Y-63618485D01*
X303571381Y-63542295D02*
X303419000Y-63542295D01*
X303419000Y-63542295D02*
X303342809Y-63580390D01*
X303342809Y-63580390D02*
X303304714Y-63618485D01*
X303304714Y-63618485D02*
X303228524Y-63732771D01*
X303228524Y-63732771D02*
X303190428Y-63885152D01*
X303190428Y-63885152D02*
X303190428Y-64189914D01*
X303190428Y-64189914D02*
X303228524Y-64266104D01*
X303228524Y-64266104D02*
X303266619Y-64304200D01*
X303266619Y-64304200D02*
X303342809Y-64342295D01*
X303342809Y-64342295D02*
X303495190Y-64342295D01*
X303495190Y-64342295D02*
X303571381Y-64304200D01*
X303571381Y-64304200D02*
X303609476Y-64266104D01*
X303609476Y-64266104D02*
X303647571Y-64189914D01*
X303647571Y-64189914D02*
X303647571Y-63999438D01*
X303647571Y-63999438D02*
X303609476Y-63923247D01*
X303609476Y-63923247D02*
X303571381Y-63885152D01*
X303571381Y-63885152D02*
X303495190Y-63847057D01*
X303495190Y-63847057D02*
X303342809Y-63847057D01*
X303342809Y-63847057D02*
X303266619Y-63885152D01*
X303266619Y-63885152D02*
X303228524Y-63923247D01*
X303228524Y-63923247D02*
X303190428Y-63999438D01*
X302428524Y-49102295D02*
X302428524Y-48302295D01*
X302428524Y-48302295D02*
X302619000Y-48302295D01*
X302619000Y-48302295D02*
X302733286Y-48340390D01*
X302733286Y-48340390D02*
X302809476Y-48416580D01*
X302809476Y-48416580D02*
X302847571Y-48492771D01*
X302847571Y-48492771D02*
X302885667Y-48645152D01*
X302885667Y-48645152D02*
X302885667Y-48759438D01*
X302885667Y-48759438D02*
X302847571Y-48911819D01*
X302847571Y-48911819D02*
X302809476Y-48988009D01*
X302809476Y-48988009D02*
X302733286Y-49064200D01*
X302733286Y-49064200D02*
X302619000Y-49102295D01*
X302619000Y-49102295D02*
X302428524Y-49102295D01*
X303190428Y-48378485D02*
X303228524Y-48340390D01*
X303228524Y-48340390D02*
X303304714Y-48302295D01*
X303304714Y-48302295D02*
X303495190Y-48302295D01*
X303495190Y-48302295D02*
X303571381Y-48340390D01*
X303571381Y-48340390D02*
X303609476Y-48378485D01*
X303609476Y-48378485D02*
X303647571Y-48454676D01*
X303647571Y-48454676D02*
X303647571Y-48530866D01*
X303647571Y-48530866D02*
X303609476Y-48645152D01*
X303609476Y-48645152D02*
X303152333Y-49102295D01*
X303152333Y-49102295D02*
X303647571Y-49102295D01*
X302428524Y-66882295D02*
X302428524Y-66082295D01*
X302428524Y-66082295D02*
X302619000Y-66082295D01*
X302619000Y-66082295D02*
X302733286Y-66120390D01*
X302733286Y-66120390D02*
X302809476Y-66196580D01*
X302809476Y-66196580D02*
X302847571Y-66272771D01*
X302847571Y-66272771D02*
X302885667Y-66425152D01*
X302885667Y-66425152D02*
X302885667Y-66539438D01*
X302885667Y-66539438D02*
X302847571Y-66691819D01*
X302847571Y-66691819D02*
X302809476Y-66768009D01*
X302809476Y-66768009D02*
X302733286Y-66844200D01*
X302733286Y-66844200D02*
X302619000Y-66882295D01*
X302619000Y-66882295D02*
X302428524Y-66882295D01*
X303152333Y-66082295D02*
X303685667Y-66082295D01*
X303685667Y-66082295D02*
X303342809Y-66882295D01*
X313617190Y-69003247D02*
X313731476Y-69041342D01*
X313731476Y-69041342D02*
X313769571Y-69079438D01*
X313769571Y-69079438D02*
X313807667Y-69155628D01*
X313807667Y-69155628D02*
X313807667Y-69269914D01*
X313807667Y-69269914D02*
X313769571Y-69346104D01*
X313769571Y-69346104D02*
X313731476Y-69384200D01*
X313731476Y-69384200D02*
X313655286Y-69422295D01*
X313655286Y-69422295D02*
X313350524Y-69422295D01*
X313350524Y-69422295D02*
X313350524Y-68622295D01*
X313350524Y-68622295D02*
X313617190Y-68622295D01*
X313617190Y-68622295D02*
X313693381Y-68660390D01*
X313693381Y-68660390D02*
X313731476Y-68698485D01*
X313731476Y-68698485D02*
X313769571Y-68774676D01*
X313769571Y-68774676D02*
X313769571Y-68850866D01*
X313769571Y-68850866D02*
X313731476Y-68927057D01*
X313731476Y-68927057D02*
X313693381Y-68965152D01*
X313693381Y-68965152D02*
X313617190Y-69003247D01*
X313617190Y-69003247D02*
X313350524Y-69003247D01*
X314074333Y-68622295D02*
X314569571Y-68622295D01*
X314569571Y-68622295D02*
X314302905Y-68927057D01*
X314302905Y-68927057D02*
X314417190Y-68927057D01*
X314417190Y-68927057D02*
X314493381Y-68965152D01*
X314493381Y-68965152D02*
X314531476Y-69003247D01*
X314531476Y-69003247D02*
X314569571Y-69079438D01*
X314569571Y-69079438D02*
X314569571Y-69269914D01*
X314569571Y-69269914D02*
X314531476Y-69346104D01*
X314531476Y-69346104D02*
X314493381Y-69384200D01*
X314493381Y-69384200D02*
X314417190Y-69422295D01*
X314417190Y-69422295D02*
X314188619Y-69422295D01*
X314188619Y-69422295D02*
X314112428Y-69384200D01*
X314112428Y-69384200D02*
X314074333Y-69346104D01*
X302695190Y-74083247D02*
X302809476Y-74121342D01*
X302809476Y-74121342D02*
X302847571Y-74159438D01*
X302847571Y-74159438D02*
X302885667Y-74235628D01*
X302885667Y-74235628D02*
X302885667Y-74349914D01*
X302885667Y-74349914D02*
X302847571Y-74426104D01*
X302847571Y-74426104D02*
X302809476Y-74464200D01*
X302809476Y-74464200D02*
X302733286Y-74502295D01*
X302733286Y-74502295D02*
X302428524Y-74502295D01*
X302428524Y-74502295D02*
X302428524Y-73702295D01*
X302428524Y-73702295D02*
X302695190Y-73702295D01*
X302695190Y-73702295D02*
X302771381Y-73740390D01*
X302771381Y-73740390D02*
X302809476Y-73778485D01*
X302809476Y-73778485D02*
X302847571Y-73854676D01*
X302847571Y-73854676D02*
X302847571Y-73930866D01*
X302847571Y-73930866D02*
X302809476Y-74007057D01*
X302809476Y-74007057D02*
X302771381Y-74045152D01*
X302771381Y-74045152D02*
X302695190Y-74083247D01*
X302695190Y-74083247D02*
X302428524Y-74083247D01*
X303609476Y-73702295D02*
X303228524Y-73702295D01*
X303228524Y-73702295D02*
X303190428Y-74083247D01*
X303190428Y-74083247D02*
X303228524Y-74045152D01*
X303228524Y-74045152D02*
X303304714Y-74007057D01*
X303304714Y-74007057D02*
X303495190Y-74007057D01*
X303495190Y-74007057D02*
X303571381Y-74045152D01*
X303571381Y-74045152D02*
X303609476Y-74083247D01*
X303609476Y-74083247D02*
X303647571Y-74159438D01*
X303647571Y-74159438D02*
X303647571Y-74349914D01*
X303647571Y-74349914D02*
X303609476Y-74426104D01*
X303609476Y-74426104D02*
X303571381Y-74464200D01*
X303571381Y-74464200D02*
X303495190Y-74502295D01*
X303495190Y-74502295D02*
X303304714Y-74502295D01*
X303304714Y-74502295D02*
X303228524Y-74464200D01*
X303228524Y-74464200D02*
X303190428Y-74426104D01*
X312874333Y-53382295D02*
X313141000Y-54182295D01*
X313141000Y-54182295D02*
X313407666Y-53382295D01*
X314131476Y-54106104D02*
X314093380Y-54144200D01*
X314093380Y-54144200D02*
X313979095Y-54182295D01*
X313979095Y-54182295D02*
X313902904Y-54182295D01*
X313902904Y-54182295D02*
X313788618Y-54144200D01*
X313788618Y-54144200D02*
X313712428Y-54068009D01*
X313712428Y-54068009D02*
X313674333Y-53991819D01*
X313674333Y-53991819D02*
X313636237Y-53839438D01*
X313636237Y-53839438D02*
X313636237Y-53725152D01*
X313636237Y-53725152D02*
X313674333Y-53572771D01*
X313674333Y-53572771D02*
X313712428Y-53496580D01*
X313712428Y-53496580D02*
X313788618Y-53420390D01*
X313788618Y-53420390D02*
X313902904Y-53382295D01*
X313902904Y-53382295D02*
X313979095Y-53382295D01*
X313979095Y-53382295D02*
X314093380Y-53420390D01*
X314093380Y-53420390D02*
X314131476Y-53458485D01*
X314931476Y-54106104D02*
X314893380Y-54144200D01*
X314893380Y-54144200D02*
X314779095Y-54182295D01*
X314779095Y-54182295D02*
X314702904Y-54182295D01*
X314702904Y-54182295D02*
X314588618Y-54144200D01*
X314588618Y-54144200D02*
X314512428Y-54068009D01*
X314512428Y-54068009D02*
X314474333Y-53991819D01*
X314474333Y-53991819D02*
X314436237Y-53839438D01*
X314436237Y-53839438D02*
X314436237Y-53725152D01*
X314436237Y-53725152D02*
X314474333Y-53572771D01*
X314474333Y-53572771D02*
X314512428Y-53496580D01*
X314512428Y-53496580D02*
X314588618Y-53420390D01*
X314588618Y-53420390D02*
X314702904Y-53382295D01*
X314702904Y-53382295D02*
X314779095Y-53382295D01*
X314779095Y-53382295D02*
X314893380Y-53420390D01*
X314893380Y-53420390D02*
X314931476Y-53458485D01*
X302428524Y-61802295D02*
X302428524Y-61002295D01*
X302428524Y-61002295D02*
X302619000Y-61002295D01*
X302619000Y-61002295D02*
X302733286Y-61040390D01*
X302733286Y-61040390D02*
X302809476Y-61116580D01*
X302809476Y-61116580D02*
X302847571Y-61192771D01*
X302847571Y-61192771D02*
X302885667Y-61345152D01*
X302885667Y-61345152D02*
X302885667Y-61459438D01*
X302885667Y-61459438D02*
X302847571Y-61611819D01*
X302847571Y-61611819D02*
X302809476Y-61688009D01*
X302809476Y-61688009D02*
X302733286Y-61764200D01*
X302733286Y-61764200D02*
X302619000Y-61802295D01*
X302619000Y-61802295D02*
X302428524Y-61802295D01*
X303571381Y-61268961D02*
X303571381Y-61802295D01*
X303380905Y-60964200D02*
X303190428Y-61535628D01*
X303190428Y-61535628D02*
X303685667Y-61535628D01*
X313674333Y-56303247D02*
X313407667Y-56303247D01*
X313407667Y-56722295D02*
X313407667Y-55922295D01*
X313407667Y-55922295D02*
X313788619Y-55922295D01*
X314436238Y-56188961D02*
X314436238Y-56722295D01*
X314245762Y-55884200D02*
X314055285Y-56455628D01*
X314055285Y-56455628D02*
X314550524Y-56455628D01*
X302409476Y-50880390D02*
X302333286Y-50842295D01*
X302333286Y-50842295D02*
X302219000Y-50842295D01*
X302219000Y-50842295D02*
X302104714Y-50880390D01*
X302104714Y-50880390D02*
X302028524Y-50956580D01*
X302028524Y-50956580D02*
X301990429Y-51032771D01*
X301990429Y-51032771D02*
X301952333Y-51185152D01*
X301952333Y-51185152D02*
X301952333Y-51299438D01*
X301952333Y-51299438D02*
X301990429Y-51451819D01*
X301990429Y-51451819D02*
X302028524Y-51528009D01*
X302028524Y-51528009D02*
X302104714Y-51604200D01*
X302104714Y-51604200D02*
X302219000Y-51642295D01*
X302219000Y-51642295D02*
X302295191Y-51642295D01*
X302295191Y-51642295D02*
X302409476Y-51604200D01*
X302409476Y-51604200D02*
X302447572Y-51566104D01*
X302447572Y-51566104D02*
X302447572Y-51299438D01*
X302447572Y-51299438D02*
X302295191Y-51299438D01*
X302790429Y-51642295D02*
X302790429Y-50842295D01*
X302790429Y-50842295D02*
X303247572Y-51642295D01*
X303247572Y-51642295D02*
X303247572Y-50842295D01*
X303628524Y-51642295D02*
X303628524Y-50842295D01*
X303628524Y-50842295D02*
X303819000Y-50842295D01*
X303819000Y-50842295D02*
X303933286Y-50880390D01*
X303933286Y-50880390D02*
X304009476Y-50956580D01*
X304009476Y-50956580D02*
X304047571Y-51032771D01*
X304047571Y-51032771D02*
X304085667Y-51185152D01*
X304085667Y-51185152D02*
X304085667Y-51299438D01*
X304085667Y-51299438D02*
X304047571Y-51451819D01*
X304047571Y-51451819D02*
X304009476Y-51528009D01*
X304009476Y-51528009D02*
X303933286Y-51604200D01*
X303933286Y-51604200D02*
X303819000Y-51642295D01*
X303819000Y-51642295D02*
X303628524Y-51642295D01*
X313679786Y-51574200D02*
X313794072Y-51612295D01*
X313794072Y-51612295D02*
X313984548Y-51612295D01*
X313984548Y-51612295D02*
X314060739Y-51574200D01*
X314060739Y-51574200D02*
X314098834Y-51536104D01*
X314098834Y-51536104D02*
X314136929Y-51459914D01*
X314136929Y-51459914D02*
X314136929Y-51383723D01*
X314136929Y-51383723D02*
X314098834Y-51307533D01*
X314098834Y-51307533D02*
X314060739Y-51269438D01*
X314060739Y-51269438D02*
X313984548Y-51231342D01*
X313984548Y-51231342D02*
X313832167Y-51193247D01*
X313832167Y-51193247D02*
X313755977Y-51155152D01*
X313755977Y-51155152D02*
X313717882Y-51117057D01*
X313717882Y-51117057D02*
X313679786Y-51040866D01*
X313679786Y-51040866D02*
X313679786Y-50964676D01*
X313679786Y-50964676D02*
X313717882Y-50888485D01*
X313717882Y-50888485D02*
X313755977Y-50850390D01*
X313755977Y-50850390D02*
X313832167Y-50812295D01*
X313832167Y-50812295D02*
X314022644Y-50812295D01*
X314022644Y-50812295D02*
X314136929Y-50850390D01*
X314365501Y-50812295D02*
X314822644Y-50812295D01*
X314594072Y-51612295D02*
X314594072Y-50812295D01*
X302695190Y-71543247D02*
X302809476Y-71581342D01*
X302809476Y-71581342D02*
X302847571Y-71619438D01*
X302847571Y-71619438D02*
X302885667Y-71695628D01*
X302885667Y-71695628D02*
X302885667Y-71809914D01*
X302885667Y-71809914D02*
X302847571Y-71886104D01*
X302847571Y-71886104D02*
X302809476Y-71924200D01*
X302809476Y-71924200D02*
X302733286Y-71962295D01*
X302733286Y-71962295D02*
X302428524Y-71962295D01*
X302428524Y-71962295D02*
X302428524Y-71162295D01*
X302428524Y-71162295D02*
X302695190Y-71162295D01*
X302695190Y-71162295D02*
X302771381Y-71200390D01*
X302771381Y-71200390D02*
X302809476Y-71238485D01*
X302809476Y-71238485D02*
X302847571Y-71314676D01*
X302847571Y-71314676D02*
X302847571Y-71390866D01*
X302847571Y-71390866D02*
X302809476Y-71467057D01*
X302809476Y-71467057D02*
X302771381Y-71505152D01*
X302771381Y-71505152D02*
X302695190Y-71543247D01*
X302695190Y-71543247D02*
X302428524Y-71543247D01*
X303571381Y-71428961D02*
X303571381Y-71962295D01*
X303380905Y-71124200D02*
X303190428Y-71695628D01*
X303190428Y-71695628D02*
X303685667Y-71695628D01*
X302717651Y-45762295D02*
X303174794Y-45762295D01*
X302946222Y-46562295D02*
X302946222Y-45762295D01*
X303365270Y-45762295D02*
X303898604Y-46562295D01*
X303898604Y-45762295D02*
X303365270Y-46562295D01*
X304355747Y-45762295D02*
X304431937Y-45762295D01*
X304431937Y-45762295D02*
X304508128Y-45800390D01*
X304508128Y-45800390D02*
X304546223Y-45838485D01*
X304546223Y-45838485D02*
X304584318Y-45914676D01*
X304584318Y-45914676D02*
X304622413Y-46067057D01*
X304622413Y-46067057D02*
X304622413Y-46257533D01*
X304622413Y-46257533D02*
X304584318Y-46409914D01*
X304584318Y-46409914D02*
X304546223Y-46486104D01*
X304546223Y-46486104D02*
X304508128Y-46524200D01*
X304508128Y-46524200D02*
X304431937Y-46562295D01*
X304431937Y-46562295D02*
X304355747Y-46562295D01*
X304355747Y-46562295D02*
X304279556Y-46524200D01*
X304279556Y-46524200D02*
X304241461Y-46486104D01*
X304241461Y-46486104D02*
X304203366Y-46409914D01*
X304203366Y-46409914D02*
X304165270Y-46257533D01*
X304165270Y-46257533D02*
X304165270Y-46067057D01*
X304165270Y-46067057D02*
X304203366Y-45914676D01*
X304203366Y-45914676D02*
X304241461Y-45838485D01*
X304241461Y-45838485D02*
X304279556Y-45800390D01*
X304279556Y-45800390D02*
X304355747Y-45762295D01*
X305536699Y-45724200D02*
X304850985Y-46752771D01*
X305803366Y-46562295D02*
X305803366Y-45762295D01*
X305803366Y-45762295D02*
X305993842Y-45762295D01*
X305993842Y-45762295D02*
X306108128Y-45800390D01*
X306108128Y-45800390D02*
X306184318Y-45876580D01*
X306184318Y-45876580D02*
X306222413Y-45952771D01*
X306222413Y-45952771D02*
X306260509Y-46105152D01*
X306260509Y-46105152D02*
X306260509Y-46219438D01*
X306260509Y-46219438D02*
X306222413Y-46371819D01*
X306222413Y-46371819D02*
X306184318Y-46448009D01*
X306184318Y-46448009D02*
X306108128Y-46524200D01*
X306108128Y-46524200D02*
X305993842Y-46562295D01*
X305993842Y-46562295D02*
X305803366Y-46562295D01*
X306527175Y-45762295D02*
X307022413Y-45762295D01*
X307022413Y-45762295D02*
X306755747Y-46067057D01*
X306755747Y-46067057D02*
X306870032Y-46067057D01*
X306870032Y-46067057D02*
X306946223Y-46105152D01*
X306946223Y-46105152D02*
X306984318Y-46143247D01*
X306984318Y-46143247D02*
X307022413Y-46219438D01*
X307022413Y-46219438D02*
X307022413Y-46409914D01*
X307022413Y-46409914D02*
X306984318Y-46486104D01*
X306984318Y-46486104D02*
X306946223Y-46524200D01*
X306946223Y-46524200D02*
X306870032Y-46562295D01*
X306870032Y-46562295D02*
X306641461Y-46562295D01*
X306641461Y-46562295D02*
X306565270Y-46524200D01*
X306565270Y-46524200D02*
X306527175Y-46486104D01*
X302409476Y-53420390D02*
X302333286Y-53382295D01*
X302333286Y-53382295D02*
X302219000Y-53382295D01*
X302219000Y-53382295D02*
X302104714Y-53420390D01*
X302104714Y-53420390D02*
X302028524Y-53496580D01*
X302028524Y-53496580D02*
X301990429Y-53572771D01*
X301990429Y-53572771D02*
X301952333Y-53725152D01*
X301952333Y-53725152D02*
X301952333Y-53839438D01*
X301952333Y-53839438D02*
X301990429Y-53991819D01*
X301990429Y-53991819D02*
X302028524Y-54068009D01*
X302028524Y-54068009D02*
X302104714Y-54144200D01*
X302104714Y-54144200D02*
X302219000Y-54182295D01*
X302219000Y-54182295D02*
X302295191Y-54182295D01*
X302295191Y-54182295D02*
X302409476Y-54144200D01*
X302409476Y-54144200D02*
X302447572Y-54106104D01*
X302447572Y-54106104D02*
X302447572Y-53839438D01*
X302447572Y-53839438D02*
X302295191Y-53839438D01*
X302790429Y-54182295D02*
X302790429Y-53382295D01*
X302790429Y-53382295D02*
X303247572Y-54182295D01*
X303247572Y-54182295D02*
X303247572Y-53382295D01*
X303628524Y-54182295D02*
X303628524Y-53382295D01*
X303628524Y-53382295D02*
X303819000Y-53382295D01*
X303819000Y-53382295D02*
X303933286Y-53420390D01*
X303933286Y-53420390D02*
X304009476Y-53496580D01*
X304009476Y-53496580D02*
X304047571Y-53572771D01*
X304047571Y-53572771D02*
X304085667Y-53725152D01*
X304085667Y-53725152D02*
X304085667Y-53839438D01*
X304085667Y-53839438D02*
X304047571Y-53991819D01*
X304047571Y-53991819D02*
X304009476Y-54068009D01*
X304009476Y-54068009D02*
X303933286Y-54144200D01*
X303933286Y-54144200D02*
X303819000Y-54182295D01*
X303819000Y-54182295D02*
X303628524Y-54182295D01*
X302428524Y-56722295D02*
X302428524Y-55922295D01*
X302428524Y-55922295D02*
X302619000Y-55922295D01*
X302619000Y-55922295D02*
X302733286Y-55960390D01*
X302733286Y-55960390D02*
X302809476Y-56036580D01*
X302809476Y-56036580D02*
X302847571Y-56112771D01*
X302847571Y-56112771D02*
X302885667Y-56265152D01*
X302885667Y-56265152D02*
X302885667Y-56379438D01*
X302885667Y-56379438D02*
X302847571Y-56531819D01*
X302847571Y-56531819D02*
X302809476Y-56608009D01*
X302809476Y-56608009D02*
X302733286Y-56684200D01*
X302733286Y-56684200D02*
X302619000Y-56722295D01*
X302619000Y-56722295D02*
X302428524Y-56722295D01*
X303647571Y-56722295D02*
X303190428Y-56722295D01*
X303419000Y-56722295D02*
X303419000Y-55922295D01*
X303419000Y-55922295D02*
X303342809Y-56036580D01*
X303342809Y-56036580D02*
X303266619Y-56112771D01*
X303266619Y-56112771D02*
X303190428Y-56150866D01*
X302466619Y-69003247D02*
X302733285Y-69003247D01*
X302847571Y-69422295D02*
X302466619Y-69422295D01*
X302466619Y-69422295D02*
X302466619Y-68622295D01*
X302466619Y-68622295D02*
X302847571Y-68622295D01*
X303533286Y-68622295D02*
X303380905Y-68622295D01*
X303380905Y-68622295D02*
X303304714Y-68660390D01*
X303304714Y-68660390D02*
X303266619Y-68698485D01*
X303266619Y-68698485D02*
X303190429Y-68812771D01*
X303190429Y-68812771D02*
X303152333Y-68965152D01*
X303152333Y-68965152D02*
X303152333Y-69269914D01*
X303152333Y-69269914D02*
X303190429Y-69346104D01*
X303190429Y-69346104D02*
X303228524Y-69384200D01*
X303228524Y-69384200D02*
X303304714Y-69422295D01*
X303304714Y-69422295D02*
X303457095Y-69422295D01*
X303457095Y-69422295D02*
X303533286Y-69384200D01*
X303533286Y-69384200D02*
X303571381Y-69346104D01*
X303571381Y-69346104D02*
X303609476Y-69269914D01*
X303609476Y-69269914D02*
X303609476Y-69079438D01*
X303609476Y-69079438D02*
X303571381Y-69003247D01*
X303571381Y-69003247D02*
X303533286Y-68965152D01*
X303533286Y-68965152D02*
X303457095Y-68927057D01*
X303457095Y-68927057D02*
X303304714Y-68927057D01*
X303304714Y-68927057D02*
X303228524Y-68965152D01*
X303228524Y-68965152D02*
X303190429Y-69003247D01*
X303190429Y-69003247D02*
X303152333Y-69079438D01*
X313617190Y-66463247D02*
X313731476Y-66501342D01*
X313731476Y-66501342D02*
X313769571Y-66539438D01*
X313769571Y-66539438D02*
X313807667Y-66615628D01*
X313807667Y-66615628D02*
X313807667Y-66729914D01*
X313807667Y-66729914D02*
X313769571Y-66806104D01*
X313769571Y-66806104D02*
X313731476Y-66844200D01*
X313731476Y-66844200D02*
X313655286Y-66882295D01*
X313655286Y-66882295D02*
X313350524Y-66882295D01*
X313350524Y-66882295D02*
X313350524Y-66082295D01*
X313350524Y-66082295D02*
X313617190Y-66082295D01*
X313617190Y-66082295D02*
X313693381Y-66120390D01*
X313693381Y-66120390D02*
X313731476Y-66158485D01*
X313731476Y-66158485D02*
X313769571Y-66234676D01*
X313769571Y-66234676D02*
X313769571Y-66310866D01*
X313769571Y-66310866D02*
X313731476Y-66387057D01*
X313731476Y-66387057D02*
X313693381Y-66425152D01*
X313693381Y-66425152D02*
X313617190Y-66463247D01*
X313617190Y-66463247D02*
X313350524Y-66463247D01*
X314569571Y-66882295D02*
X314112428Y-66882295D01*
X314341000Y-66882295D02*
X314341000Y-66082295D01*
X314341000Y-66082295D02*
X314264809Y-66196580D01*
X314264809Y-66196580D02*
X314188619Y-66272771D01*
X314188619Y-66272771D02*
X314112428Y-66310866D01*
X313331476Y-48340390D02*
X313255286Y-48302295D01*
X313255286Y-48302295D02*
X313141000Y-48302295D01*
X313141000Y-48302295D02*
X313026714Y-48340390D01*
X313026714Y-48340390D02*
X312950524Y-48416580D01*
X312950524Y-48416580D02*
X312912429Y-48492771D01*
X312912429Y-48492771D02*
X312874333Y-48645152D01*
X312874333Y-48645152D02*
X312874333Y-48759438D01*
X312874333Y-48759438D02*
X312912429Y-48911819D01*
X312912429Y-48911819D02*
X312950524Y-48988009D01*
X312950524Y-48988009D02*
X313026714Y-49064200D01*
X313026714Y-49064200D02*
X313141000Y-49102295D01*
X313141000Y-49102295D02*
X313217191Y-49102295D01*
X313217191Y-49102295D02*
X313331476Y-49064200D01*
X313331476Y-49064200D02*
X313369572Y-49026104D01*
X313369572Y-49026104D02*
X313369572Y-48759438D01*
X313369572Y-48759438D02*
X313217191Y-48759438D01*
X313712429Y-49102295D02*
X313712429Y-48302295D01*
X313712429Y-48302295D02*
X314169572Y-49102295D01*
X314169572Y-49102295D02*
X314169572Y-48302295D01*
X314550524Y-49102295D02*
X314550524Y-48302295D01*
X314550524Y-48302295D02*
X314741000Y-48302295D01*
X314741000Y-48302295D02*
X314855286Y-48340390D01*
X314855286Y-48340390D02*
X314931476Y-48416580D01*
X314931476Y-48416580D02*
X314969571Y-48492771D01*
X314969571Y-48492771D02*
X315007667Y-48645152D01*
X315007667Y-48645152D02*
X315007667Y-48759438D01*
X315007667Y-48759438D02*
X314969571Y-48911819D01*
X314969571Y-48911819D02*
X314931476Y-48988009D01*
X314931476Y-48988009D02*
X314855286Y-49064200D01*
X314855286Y-49064200D02*
X314741000Y-49102295D01*
X314741000Y-49102295D02*
X314550524Y-49102295D01*
X313674333Y-63923247D02*
X313407667Y-63923247D01*
X313407667Y-64342295D02*
X313407667Y-63542295D01*
X313407667Y-63542295D02*
X313788619Y-63542295D01*
X314017190Y-63542295D02*
X314550524Y-63542295D01*
X314550524Y-63542295D02*
X314207666Y-64342295D01*
X302428524Y-59262295D02*
X302428524Y-58462295D01*
X302428524Y-58462295D02*
X302619000Y-58462295D01*
X302619000Y-58462295D02*
X302733286Y-58500390D01*
X302733286Y-58500390D02*
X302809476Y-58576580D01*
X302809476Y-58576580D02*
X302847571Y-58652771D01*
X302847571Y-58652771D02*
X302885667Y-58805152D01*
X302885667Y-58805152D02*
X302885667Y-58919438D01*
X302885667Y-58919438D02*
X302847571Y-59071819D01*
X302847571Y-59071819D02*
X302809476Y-59148009D01*
X302809476Y-59148009D02*
X302733286Y-59224200D01*
X302733286Y-59224200D02*
X302619000Y-59262295D01*
X302619000Y-59262295D02*
X302428524Y-59262295D01*
X303380905Y-58462295D02*
X303457095Y-58462295D01*
X303457095Y-58462295D02*
X303533286Y-58500390D01*
X303533286Y-58500390D02*
X303571381Y-58538485D01*
X303571381Y-58538485D02*
X303609476Y-58614676D01*
X303609476Y-58614676D02*
X303647571Y-58767057D01*
X303647571Y-58767057D02*
X303647571Y-58957533D01*
X303647571Y-58957533D02*
X303609476Y-59109914D01*
X303609476Y-59109914D02*
X303571381Y-59186104D01*
X303571381Y-59186104D02*
X303533286Y-59224200D01*
X303533286Y-59224200D02*
X303457095Y-59262295D01*
X303457095Y-59262295D02*
X303380905Y-59262295D01*
X303380905Y-59262295D02*
X303304714Y-59224200D01*
X303304714Y-59224200D02*
X303266619Y-59186104D01*
X303266619Y-59186104D02*
X303228524Y-59109914D01*
X303228524Y-59109914D02*
X303190428Y-58957533D01*
X303190428Y-58957533D02*
X303190428Y-58767057D01*
X303190428Y-58767057D02*
X303228524Y-58614676D01*
X303228524Y-58614676D02*
X303266619Y-58538485D01*
X303266619Y-58538485D02*
X303304714Y-58500390D01*
X303304714Y-58500390D02*
X303380905Y-58462295D01*
X313617190Y-74083247D02*
X313731476Y-74121342D01*
X313731476Y-74121342D02*
X313769571Y-74159438D01*
X313769571Y-74159438D02*
X313807667Y-74235628D01*
X313807667Y-74235628D02*
X313807667Y-74349914D01*
X313807667Y-74349914D02*
X313769571Y-74426104D01*
X313769571Y-74426104D02*
X313731476Y-74464200D01*
X313731476Y-74464200D02*
X313655286Y-74502295D01*
X313655286Y-74502295D02*
X313350524Y-74502295D01*
X313350524Y-74502295D02*
X313350524Y-73702295D01*
X313350524Y-73702295D02*
X313617190Y-73702295D01*
X313617190Y-73702295D02*
X313693381Y-73740390D01*
X313693381Y-73740390D02*
X313731476Y-73778485D01*
X313731476Y-73778485D02*
X313769571Y-73854676D01*
X313769571Y-73854676D02*
X313769571Y-73930866D01*
X313769571Y-73930866D02*
X313731476Y-74007057D01*
X313731476Y-74007057D02*
X313693381Y-74045152D01*
X313693381Y-74045152D02*
X313617190Y-74083247D01*
X313617190Y-74083247D02*
X313350524Y-74083247D01*
X314493381Y-73702295D02*
X314341000Y-73702295D01*
X314341000Y-73702295D02*
X314264809Y-73740390D01*
X314264809Y-73740390D02*
X314226714Y-73778485D01*
X314226714Y-73778485D02*
X314150524Y-73892771D01*
X314150524Y-73892771D02*
X314112428Y-74045152D01*
X314112428Y-74045152D02*
X314112428Y-74349914D01*
X314112428Y-74349914D02*
X314150524Y-74426104D01*
X314150524Y-74426104D02*
X314188619Y-74464200D01*
X314188619Y-74464200D02*
X314264809Y-74502295D01*
X314264809Y-74502295D02*
X314417190Y-74502295D01*
X314417190Y-74502295D02*
X314493381Y-74464200D01*
X314493381Y-74464200D02*
X314531476Y-74426104D01*
X314531476Y-74426104D02*
X314569571Y-74349914D01*
X314569571Y-74349914D02*
X314569571Y-74159438D01*
X314569571Y-74159438D02*
X314531476Y-74083247D01*
X314531476Y-74083247D02*
X314493381Y-74045152D01*
X314493381Y-74045152D02*
X314417190Y-74007057D01*
X314417190Y-74007057D02*
X314264809Y-74007057D01*
X314264809Y-74007057D02*
X314188619Y-74045152D01*
X314188619Y-74045152D02*
X314150524Y-74083247D01*
X314150524Y-74083247D02*
X314112428Y-74159438D01*
X313674333Y-61383247D02*
X313407667Y-61383247D01*
X313407667Y-61802295D02*
X313407667Y-61002295D01*
X313407667Y-61002295D02*
X313788619Y-61002295D01*
X314436238Y-61002295D02*
X314283857Y-61002295D01*
X314283857Y-61002295D02*
X314207666Y-61040390D01*
X314207666Y-61040390D02*
X314169571Y-61078485D01*
X314169571Y-61078485D02*
X314093381Y-61192771D01*
X314093381Y-61192771D02*
X314055285Y-61345152D01*
X314055285Y-61345152D02*
X314055285Y-61649914D01*
X314055285Y-61649914D02*
X314093381Y-61726104D01*
X314093381Y-61726104D02*
X314131476Y-61764200D01*
X314131476Y-61764200D02*
X314207666Y-61802295D01*
X314207666Y-61802295D02*
X314360047Y-61802295D01*
X314360047Y-61802295D02*
X314436238Y-61764200D01*
X314436238Y-61764200D02*
X314474333Y-61726104D01*
X314474333Y-61726104D02*
X314512428Y-61649914D01*
X314512428Y-61649914D02*
X314512428Y-61459438D01*
X314512428Y-61459438D02*
X314474333Y-61383247D01*
X314474333Y-61383247D02*
X314436238Y-61345152D01*
X314436238Y-61345152D02*
X314360047Y-61307057D01*
X314360047Y-61307057D02*
X314207666Y-61307057D01*
X314207666Y-61307057D02*
X314131476Y-61345152D01*
X314131476Y-61345152D02*
X314093381Y-61383247D01*
X314093381Y-61383247D02*
X314055285Y-61459438D01*
D10*
X299590000Y-42390000D02*
X299590000Y-75410000D01*
X299590000Y-75410000D02*
X317370000Y-75410000D01*
X302130000Y-44930000D02*
X299590000Y-44930000D01*
X302130000Y-44930000D02*
X302130000Y-47470000D01*
X302130000Y-47470000D02*
X299590000Y-47470000D01*
X317370000Y-42390000D02*
X299590000Y-42390000D01*
X317370000Y-75410000D02*
X317370000Y-42390000D01*
D11*
X313011568Y-51609360D02*
X312911568Y-51609360D01*
X312911568Y-50809360D01*
X313011568Y-50809360D01*
X313011568Y-51609360D01*
G36*
X313011568Y-51609360D02*
G01*
X312911568Y-51609360D01*
X312911568Y-50809360D01*
X313011568Y-50809360D01*
X313011568Y-51609360D01*
G37*
X313211568Y-51309360D02*
X313111568Y-51309360D01*
X313111568Y-51209360D01*
X313211568Y-51209360D01*
X313211568Y-51309360D01*
G36*
X313211568Y-51309360D02*
G01*
X313111568Y-51309360D01*
X313111568Y-51209360D01*
X313211568Y-51209360D01*
X313211568Y-51309360D01*
G37*
X313411568Y-50909360D02*
X312911568Y-50909360D01*
X312911568Y-50809360D01*
X313411568Y-50809360D01*
X313411568Y-50909360D01*
G36*
X313411568Y-50909360D02*
G01*
X312911568Y-50909360D01*
X312911568Y-50809360D01*
X313411568Y-50809360D01*
X313411568Y-50909360D01*
G37*
X313411568Y-51109360D02*
X313311568Y-51109360D01*
X313311568Y-50809360D01*
X313411568Y-50809360D01*
X313411568Y-51109360D01*
G36*
X313411568Y-51109360D02*
G01*
X313311568Y-51109360D01*
X313311568Y-50809360D01*
X313411568Y-50809360D01*
X313411568Y-51109360D01*
G37*
X313411568Y-51609360D02*
X313311568Y-51609360D01*
X313311568Y-51409360D01*
X313411568Y-51409360D01*
X313411568Y-51609360D01*
G36*
X313411568Y-51609360D02*
G01*
X313311568Y-51609360D01*
X313311568Y-51409360D01*
X313411568Y-51409360D01*
X313411568Y-51609360D01*
G37*
X288300000Y-44400000D02*
X288300000Y-56500000D01*
X288550000Y-44400000D02*
X288550000Y-42400000D01*
X294150000Y-42400000D02*
X288550000Y-42400000D01*
X294150000Y-44400000D02*
X294150000Y-42400000D01*
X294400000Y-44400000D02*
X288300000Y-44400000D01*
X294400000Y-44400000D02*
X294400000Y-56500000D01*
X294400000Y-56500000D02*
X288300000Y-56500000D01*
D12*
X300860000Y-46200000D03*
D13*
X300860000Y-48740000D03*
X300860000Y-51280000D03*
X300860000Y-53820000D03*
X300860000Y-56360000D03*
X300860000Y-58900000D03*
X300860000Y-61440000D03*
X300860000Y-63980000D03*
X300860000Y-66520000D03*
X300860000Y-69060000D03*
X300860000Y-71600000D03*
X300860000Y-74140000D03*
X316100000Y-74140000D03*
X316100000Y-71600000D03*
X316100000Y-69060000D03*
X316100000Y-66520000D03*
X316100000Y-63980000D03*
X316100000Y-61440000D03*
X316100000Y-58900000D03*
X316100000Y-56360000D03*
X316100000Y-53820000D03*
X316100000Y-51280000D03*
X316100000Y-48740000D03*
X316100000Y-46200000D03*
M02*
