G04 #@! TF.GenerationSoftware,KiCad,Pcbnew,7.0.9*
G04 #@! TF.CreationDate,2023-12-20T04:01:07-06:00*
G04 #@! TF.ProjectId,keyboard,6b657962-6f61-4726-942e-6b696361645f,rev?*
G04 #@! TF.SameCoordinates,Original*
G04 #@! TF.FileFunction,Soldermask,Bot*
G04 #@! TF.FilePolarity,Negative*
%FSLAX46Y46*%
G04 Gerber Fmt 4.6, Leading zero omitted, Abs format (unit mm)*
G04 Created by KiCad (PCBNEW 7.0.9) date 2023-12-20 04:01:07*
%MOMM*%
%LPD*%
G01*
G04 APERTURE LIST*
G04 Aperture macros list*
%AMRotRect*
0 Rectangle, with rotation*
0 The origin of the aperture is its center*
0 $1 length*
0 $2 width*
0 $3 Rotation angle, in degrees counterclockwise*
0 Add horizontal line*
21,1,$1,$2,0,0,$3*%
G04 Aperture macros list end*
%ADD10C,1.750000*%
%ADD11C,3.000000*%
%ADD12C,3.987800*%
%ADD13R,2.550000X2.500000*%
%ADD14R,1.752600X1.752600*%
%ADD15C,1.752600*%
%ADD16C,3.048000*%
%ADD17RotRect,2.550000X2.500000X120.000000*%
%ADD18C,0.800000*%
%ADD19O,1.600000X2.000000*%
%ADD20R,1.600000X1.600000*%
%ADD21R,1.200000X1.200000*%
%ADD22C,1.600000*%
%ADD23RotRect,1.600000X1.600000X30.000000*%
%ADD24RotRect,1.200000X1.200000X30.000000*%
G04 APERTURE END LIST*
D10*
X383213000Y-116824132D03*
D11*
X384483000Y-114284132D03*
D12*
X388293000Y-116824132D03*
D11*
X390833000Y-111744132D03*
D10*
X393373000Y-116824132D03*
D13*
X381208000Y-114284132D03*
X394135000Y-111744132D03*
D10*
X392738000Y-135874132D03*
D11*
X394008000Y-133334132D03*
D12*
X397818000Y-135874132D03*
D11*
X400358000Y-130794132D03*
D10*
X402898000Y-135874132D03*
D13*
X390733000Y-133334132D03*
X403660000Y-130794132D03*
D14*
X300860000Y-46200000D03*
D15*
X300860000Y-48740000D03*
X300860000Y-51280000D03*
X300860000Y-53820000D03*
X300860000Y-56360000D03*
X300860000Y-58900000D03*
X300860000Y-61440000D03*
X300860000Y-63980000D03*
X300860000Y-66520000D03*
X300860000Y-69060000D03*
X300860000Y-71600000D03*
X300860000Y-74140000D03*
X316100000Y-74140000D03*
X316100000Y-71600000D03*
X316100000Y-69060000D03*
X316100000Y-66520000D03*
X316100000Y-63980000D03*
X316100000Y-61440000D03*
X316100000Y-58900000D03*
X316100000Y-56360000D03*
X316100000Y-53820000D03*
X316100000Y-51280000D03*
X316100000Y-48740000D03*
X316100000Y-46200000D03*
D10*
X378450500Y-97774132D03*
D11*
X379720500Y-95234132D03*
D12*
X383530500Y-97774132D03*
D11*
X386070500Y-92694132D03*
D10*
X388610500Y-97774132D03*
D13*
X376445500Y-95234132D03*
X389372500Y-92694132D03*
D10*
X397500500Y-97774132D03*
D11*
X398770500Y-95234132D03*
D12*
X402580500Y-97774132D03*
D11*
X405120500Y-92694132D03*
D10*
X407660500Y-97774132D03*
D13*
X395495500Y-95234132D03*
X408422500Y-92694132D03*
D16*
X466842500Y-71739132D03*
D12*
X466842500Y-86979132D03*
D10*
X473700500Y-78724132D03*
D11*
X474970500Y-76184132D03*
D12*
X478780500Y-78724132D03*
D11*
X481320500Y-73644132D03*
D10*
X483860500Y-78724132D03*
D16*
X490718500Y-71739132D03*
D12*
X490718500Y-86979132D03*
D13*
X471695500Y-76184132D03*
X484622500Y-73644132D03*
D10*
X407025500Y-154924132D03*
D11*
X408295500Y-152384132D03*
D12*
X412105500Y-154924132D03*
D11*
X414645500Y-149844132D03*
D10*
X417185500Y-154924132D03*
D13*
X405020500Y-152384132D03*
X417947500Y-149844132D03*
D10*
X445125500Y-78724132D03*
D11*
X446395500Y-76184132D03*
D12*
X450205500Y-78724132D03*
D11*
X452745500Y-73644132D03*
D10*
X455285500Y-78724132D03*
D13*
X443120500Y-76184132D03*
X456047500Y-73644132D03*
D10*
X349875500Y-54911632D03*
D11*
X351145500Y-52371632D03*
D12*
X354955500Y-54911632D03*
D11*
X357495500Y-49831632D03*
D10*
X360035500Y-54911632D03*
D13*
X347870500Y-52371632D03*
X360797500Y-49831632D03*
D10*
X421313000Y-116824132D03*
D11*
X422583000Y-114284132D03*
D12*
X426393000Y-116824132D03*
D11*
X428933000Y-111744132D03*
D10*
X431473000Y-116824132D03*
D13*
X419308000Y-114284132D03*
X432235000Y-111744132D03*
D10*
X387975500Y-154924132D03*
D11*
X389245500Y-152384132D03*
D12*
X393055500Y-154924132D03*
D11*
X395595500Y-149844132D03*
D10*
X398135500Y-154924132D03*
D13*
X385970500Y-152384132D03*
X398897500Y-149844132D03*
D10*
X335588000Y-135874132D03*
D11*
X336858000Y-133334132D03*
D12*
X340668000Y-135874132D03*
D11*
X343208000Y-130794132D03*
D10*
X345748000Y-135874132D03*
D13*
X333583000Y-133334132D03*
X346510000Y-130794132D03*
D10*
X373688000Y-135874132D03*
D11*
X374958000Y-133334132D03*
D12*
X378768000Y-135874132D03*
D11*
X381308000Y-130794132D03*
D10*
X383848000Y-135874132D03*
D13*
X371683000Y-133334132D03*
X384610000Y-130794132D03*
D10*
X487988000Y-135874132D03*
D11*
X489258000Y-133334132D03*
D12*
X493068000Y-135874132D03*
D11*
X495608000Y-130794132D03*
D10*
X498148000Y-135874132D03*
D13*
X485983000Y-133334132D03*
X498910000Y-130794132D03*
D10*
X330825500Y-78724132D03*
D11*
X332095500Y-76184132D03*
D12*
X335905500Y-78724132D03*
D11*
X338445500Y-73644132D03*
D10*
X340985500Y-78724132D03*
D13*
X328820500Y-76184132D03*
X341747500Y-73644132D03*
D10*
X354638000Y-135874132D03*
D11*
X355908000Y-133334132D03*
D12*
X359718000Y-135874132D03*
D11*
X362258000Y-130794132D03*
D10*
X364798000Y-135874132D03*
D13*
X352633000Y-133334132D03*
X365560000Y-130794132D03*
D10*
X340350500Y-97774132D03*
D11*
X341620500Y-95234132D03*
D12*
X345430500Y-97774132D03*
D11*
X347970500Y-92694132D03*
D10*
X350510500Y-97774132D03*
D13*
X338345500Y-95234132D03*
X351272500Y-92694132D03*
D10*
X440363000Y-116824132D03*
D11*
X441633000Y-114284132D03*
D12*
X445443000Y-116824132D03*
D11*
X447983000Y-111744132D03*
D10*
X450523000Y-116824132D03*
D13*
X438358000Y-114284132D03*
X451285000Y-111744132D03*
D10*
X457031750Y-135874132D03*
D11*
X458301750Y-133334132D03*
D12*
X462111750Y-135874132D03*
D11*
X464651750Y-130794132D03*
D10*
X467191750Y-135874132D03*
D13*
X455026750Y-133334132D03*
X467953750Y-130794132D03*
D10*
X387975500Y-78724132D03*
D11*
X389245500Y-76184132D03*
D12*
X393055500Y-78724132D03*
D11*
X395595500Y-73644132D03*
D10*
X398135500Y-78724132D03*
D13*
X385970500Y-76184132D03*
X398897500Y-73644132D03*
D10*
X468938000Y-154924132D03*
D11*
X470208000Y-152384132D03*
D12*
X474018000Y-154924132D03*
D11*
X476558000Y-149844132D03*
D10*
X479098000Y-154924132D03*
D13*
X466933000Y-152384132D03*
X479860000Y-149844132D03*
D10*
X407025500Y-54911632D03*
D11*
X408295500Y-52371632D03*
D12*
X412105500Y-54911632D03*
D11*
X414645500Y-49831632D03*
D10*
X417185500Y-54911632D03*
D13*
X405020500Y-52371632D03*
X417947500Y-49831632D03*
D10*
X487988000Y-154924132D03*
D11*
X489258000Y-152384132D03*
D12*
X493068000Y-154924132D03*
D11*
X495608000Y-149844132D03*
D10*
X498148000Y-154924132D03*
D13*
X485983000Y-152384132D03*
X498910000Y-149844132D03*
D10*
X507038000Y-97774132D03*
D11*
X508308000Y-95234132D03*
D12*
X512118000Y-97774132D03*
D11*
X514658000Y-92694132D03*
D10*
X517198000Y-97774132D03*
D13*
X505033000Y-95234132D03*
X517960000Y-92694132D03*
D10*
X507038000Y-116824132D03*
D11*
X508308000Y-114284132D03*
D12*
X512118000Y-116824132D03*
D11*
X514658000Y-111744132D03*
D10*
X517198000Y-116824132D03*
D13*
X505033000Y-114284132D03*
X517960000Y-111744132D03*
D10*
X426075500Y-154924132D03*
D11*
X427345500Y-152384132D03*
D12*
X431155500Y-154924132D03*
D11*
X433695500Y-149844132D03*
D10*
X436235500Y-154924132D03*
D13*
X424070500Y-152384132D03*
X436997500Y-149844132D03*
D10*
X483225500Y-54911632D03*
D11*
X484495500Y-52371632D03*
D12*
X488305500Y-54911632D03*
D11*
X490845500Y-49831632D03*
D10*
X493385500Y-54911632D03*
D13*
X481220500Y-52371632D03*
X494147500Y-49831632D03*
D16*
X464461250Y-109839132D03*
D12*
X464461250Y-125079132D03*
D10*
X471319250Y-116824132D03*
D11*
X472589250Y-114284132D03*
D12*
X476399250Y-116824132D03*
D11*
X478939250Y-111744132D03*
D10*
X481479250Y-116824132D03*
D16*
X488337250Y-109839132D03*
D12*
X488337250Y-125079132D03*
D13*
X469314250Y-114284132D03*
X482241250Y-111744132D03*
D10*
X464175500Y-54911632D03*
D11*
X465445500Y-52371632D03*
D12*
X469255500Y-54911632D03*
D11*
X471795500Y-49831632D03*
D10*
X474335500Y-54911632D03*
D13*
X462170500Y-52371632D03*
X475097500Y-49831632D03*
D10*
X349875500Y-78724132D03*
D11*
X351145500Y-76184132D03*
D12*
X354955500Y-78724132D03*
D11*
X357495500Y-73644132D03*
D10*
X360035500Y-78724132D03*
D13*
X347870500Y-76184132D03*
X360797500Y-73644132D03*
D10*
X387975500Y-54911632D03*
D11*
X389245500Y-52371632D03*
D12*
X393055500Y-54911632D03*
D11*
X395595500Y-49831632D03*
D10*
X398135500Y-54911632D03*
D13*
X385970500Y-52371632D03*
X398897500Y-49831632D03*
D10*
X368925500Y-54911632D03*
D11*
X370195500Y-52371632D03*
D12*
X374005500Y-54911632D03*
D11*
X376545500Y-49831632D03*
D10*
X379085500Y-54911632D03*
D13*
X366920500Y-52371632D03*
X379847500Y-49831632D03*
D10*
X445252500Y-154924132D03*
D11*
X446522500Y-152384132D03*
D12*
X450332500Y-154924132D03*
D11*
X452872500Y-149844132D03*
D10*
X455412500Y-154924132D03*
D13*
X443247500Y-152384132D03*
X456174500Y-149844132D03*
D10*
X402263000Y-116824132D03*
D11*
X403533000Y-114284132D03*
D12*
X407343000Y-116824132D03*
D11*
X409883000Y-111744132D03*
D10*
X412423000Y-116824132D03*
D13*
X400258000Y-114284132D03*
X413185000Y-111744132D03*
D10*
X345113000Y-116824132D03*
D11*
X346383000Y-114284132D03*
D12*
X350193000Y-116824132D03*
D11*
X352733000Y-111744132D03*
D10*
X355273000Y-116824132D03*
D13*
X343108000Y-114284132D03*
X356035000Y-111744132D03*
D10*
X368925500Y-78724132D03*
D11*
X370195500Y-76184132D03*
D12*
X374005500Y-78724132D03*
D11*
X376545500Y-73644132D03*
D10*
X379085500Y-78724132D03*
D13*
X366920500Y-76184132D03*
X379847500Y-73644132D03*
D10*
X507038000Y-154924132D03*
D11*
X508308000Y-152384132D03*
D12*
X512118000Y-154924132D03*
D11*
X514658000Y-149844132D03*
D10*
X517198000Y-154924132D03*
D13*
X505033000Y-152384132D03*
X517960000Y-149844132D03*
D10*
X416550500Y-97774132D03*
D11*
X417820500Y-95234132D03*
D12*
X421630500Y-97774132D03*
D11*
X424170500Y-92694132D03*
D10*
X426710500Y-97774132D03*
D13*
X414545500Y-95234132D03*
X427472500Y-92694132D03*
D10*
X364163000Y-116824132D03*
D11*
X365433000Y-114284132D03*
D12*
X369243000Y-116824132D03*
D11*
X371783000Y-111744132D03*
D10*
X374323000Y-116824132D03*
D13*
X362158000Y-114284132D03*
X375085000Y-111744132D03*
D10*
X359400500Y-97774132D03*
D11*
X360670500Y-95234132D03*
D12*
X364480500Y-97774132D03*
D11*
X367020500Y-92694132D03*
D10*
X369560500Y-97774132D03*
D13*
X357395500Y-95234132D03*
X370322500Y-92694132D03*
D16*
X327990273Y-183192200D03*
D12*
X341188500Y-175572200D03*
D10*
X330610460Y-173760498D03*
D11*
X327775755Y-173930646D03*
D12*
X328070460Y-169361089D03*
D11*
X322401051Y-169701384D03*
D10*
X325530460Y-164961680D03*
D16*
X316052273Y-162514978D03*
D12*
X329250500Y-154894978D03*
D17*
X329413255Y-176766879D03*
X320750051Y-166841769D03*
D10*
X330825500Y-54911632D03*
D11*
X332095500Y-52371632D03*
D12*
X335905500Y-54911632D03*
D11*
X338445500Y-49831632D03*
D10*
X340985500Y-54911632D03*
D13*
X328820500Y-52371632D03*
X341747500Y-49831632D03*
D10*
X426075500Y-78724132D03*
D11*
X427345500Y-76184132D03*
D12*
X431155500Y-78724132D03*
D11*
X433695500Y-73644132D03*
D10*
X436235500Y-78724132D03*
D13*
X424070500Y-76184132D03*
X436997500Y-73644132D03*
D10*
X411788000Y-135874132D03*
D11*
X413058000Y-133334132D03*
D12*
X416868000Y-135874132D03*
D11*
X419408000Y-130794132D03*
D10*
X421948000Y-135874132D03*
D13*
X409783000Y-133334132D03*
X422710000Y-130794132D03*
D10*
X507038000Y-78724132D03*
D11*
X508308000Y-76184132D03*
D12*
X512118000Y-78724132D03*
D11*
X514658000Y-73644132D03*
D10*
X517198000Y-78724132D03*
D13*
X505033000Y-76184132D03*
X517960000Y-73644132D03*
D10*
X426075500Y-54911632D03*
D11*
X427345500Y-52371632D03*
D12*
X431155500Y-54911632D03*
D11*
X433695500Y-49831632D03*
D10*
X436235500Y-54911632D03*
D13*
X424070500Y-52371632D03*
X436997500Y-49831632D03*
D10*
X407025500Y-78724132D03*
D11*
X408295500Y-76184132D03*
D12*
X412105500Y-78724132D03*
D11*
X414645500Y-73644132D03*
D10*
X417185500Y-78724132D03*
D13*
X405020500Y-76184132D03*
X417947500Y-73644132D03*
D10*
X435600500Y-97774132D03*
D11*
X436870500Y-95234132D03*
D12*
X440680500Y-97774132D03*
D11*
X443220500Y-92694132D03*
D10*
X445760500Y-97774132D03*
D13*
X433595500Y-95234132D03*
X446522500Y-92694132D03*
D10*
X507038000Y-54911632D03*
D11*
X508308000Y-52371632D03*
D12*
X512118000Y-54911632D03*
D11*
X514658000Y-49831632D03*
D10*
X517198000Y-54911632D03*
D13*
X505033000Y-52371632D03*
X517960000Y-49831632D03*
D10*
X454650500Y-97774132D03*
D11*
X455920500Y-95234132D03*
D12*
X459730500Y-97774132D03*
D11*
X462270500Y-92694132D03*
D10*
X464810500Y-97774132D03*
D13*
X452645500Y-95234132D03*
X465572500Y-92694132D03*
D10*
X445125500Y-54911632D03*
D11*
X446395500Y-52371632D03*
D12*
X450205500Y-54911632D03*
D11*
X452745500Y-49831632D03*
D10*
X455285500Y-54911632D03*
D13*
X443120500Y-52371632D03*
X456047500Y-49831632D03*
D10*
X430838000Y-135874132D03*
D11*
X432108000Y-133334132D03*
D12*
X435918000Y-135874132D03*
D11*
X438458000Y-130794132D03*
D10*
X440998000Y-135874132D03*
D13*
X428833000Y-133334132D03*
X441760000Y-130794132D03*
D18*
X291350000Y-46000000D03*
X291350000Y-53000000D03*
D19*
X289050000Y-55700000D03*
X293650000Y-54600000D03*
X293650000Y-50600000D03*
X293650000Y-47600000D03*
D10*
X478463000Y-97774132D03*
D11*
X479733000Y-95234132D03*
D12*
X483543000Y-97774132D03*
D11*
X486083000Y-92694132D03*
D10*
X488623000Y-97774132D03*
D13*
X476458000Y-95234132D03*
X489385000Y-92694132D03*
D20*
X459420500Y-58732200D03*
D21*
X459420500Y-56407200D03*
X459420500Y-53257200D03*
D22*
X459420500Y-50932200D03*
D20*
X383220500Y-82582200D03*
D21*
X383220500Y-80257200D03*
X383220500Y-77107200D03*
D22*
X383220500Y-74782200D03*
D20*
X378440500Y-120722200D03*
D21*
X378440500Y-118397200D03*
X378440500Y-115247200D03*
D22*
X378440500Y-112922200D03*
D20*
X345100499Y-58777201D03*
D21*
X345100499Y-56452201D03*
X345100499Y-53302201D03*
D22*
X345100499Y-50977201D03*
D20*
X521300500Y-120742200D03*
D21*
X521300500Y-118417200D03*
X521300500Y-115267200D03*
D22*
X521300500Y-112942200D03*
D20*
X349900500Y-139787200D03*
D21*
X349900500Y-137462200D03*
X349900500Y-134312200D03*
D22*
X349900500Y-131987200D03*
D20*
X387980500Y-139742200D03*
D21*
X387980500Y-137417200D03*
X387980500Y-134267200D03*
D22*
X387980500Y-131942200D03*
D20*
X364170501Y-58777199D03*
D21*
X364170501Y-56452199D03*
X364170501Y-53302199D03*
D22*
X364170501Y-50977199D03*
D20*
X521320500Y-101677200D03*
D21*
X521320500Y-99352200D03*
X521320500Y-96202200D03*
D22*
X521320500Y-93877200D03*
D20*
X373660500Y-101702200D03*
D21*
X373660500Y-99377200D03*
X373660500Y-96227200D03*
D22*
X373660500Y-93902200D03*
D20*
X521370500Y-82622200D03*
D21*
X521370500Y-80297200D03*
X521370500Y-77147200D03*
D22*
X521370500Y-74822200D03*
D20*
X492770500Y-101667200D03*
D21*
X492770500Y-99342200D03*
X492770500Y-96192200D03*
D22*
X492770500Y-93867200D03*
D20*
X502260500Y-158787200D03*
D21*
X502260500Y-156462200D03*
X502260500Y-153312200D03*
D22*
X502260500Y-150987200D03*
D20*
X407015500Y-139774700D03*
D21*
X407015500Y-137449700D03*
X407015500Y-134299700D03*
D22*
X407015500Y-131974700D03*
D20*
X421320499Y-58752201D03*
D21*
X421320499Y-56427201D03*
X421320499Y-53277201D03*
D22*
X421320499Y-50952201D03*
D20*
X477260500Y-139742200D03*
D21*
X477260500Y-137417200D03*
X477260500Y-134267200D03*
D22*
X477260500Y-131942200D03*
D20*
X468930500Y-101662200D03*
D21*
X468930500Y-99337200D03*
X468930500Y-96187200D03*
D22*
X468930500Y-93862200D03*
D20*
X392720500Y-101682200D03*
D21*
X392720500Y-99357200D03*
X392720500Y-96207200D03*
D22*
X392720500Y-93882200D03*
D20*
X496883000Y-82587200D03*
D21*
X496883000Y-80262200D03*
X496883000Y-77112200D03*
D22*
X496883000Y-74787200D03*
D20*
X383230500Y-58772200D03*
D21*
X383230500Y-56447200D03*
X383230500Y-53297200D03*
D22*
X383230500Y-50972200D03*
D20*
X435610500Y-120692200D03*
D21*
X435610500Y-118367200D03*
X435610500Y-115217200D03*
D22*
X435610500Y-112892200D03*
D23*
X314923001Y-154012200D03*
D24*
X316936510Y-152849700D03*
X319664490Y-151274700D03*
D22*
X321677999Y-150112200D03*
D20*
X521350500Y-158802200D03*
D21*
X521350500Y-156477200D03*
X521350500Y-153327200D03*
D22*
X521350500Y-151002200D03*
D20*
X449860500Y-101677200D03*
D21*
X449860500Y-99352200D03*
X449860500Y-96202200D03*
D22*
X449860500Y-93877200D03*
D20*
X397490500Y-120722200D03*
D21*
X397490500Y-118397200D03*
X397490500Y-115247200D03*
D22*
X397490500Y-112922200D03*
D20*
X345088000Y-82599700D03*
D21*
X345088000Y-80274700D03*
X345088000Y-77124700D03*
D22*
X345088000Y-74799700D03*
D20*
X354590500Y-101734700D03*
D21*
X354590500Y-99409700D03*
X354590500Y-96259700D03*
D22*
X354590500Y-93934700D03*
D20*
X426070500Y-139762200D03*
D21*
X426070500Y-137437200D03*
X426070500Y-134287200D03*
D22*
X426070500Y-131962200D03*
D20*
X421330500Y-82542200D03*
D21*
X421330500Y-80217200D03*
X421330500Y-77067200D03*
D22*
X421330500Y-74742200D03*
D20*
X440355500Y-82612200D03*
D21*
X440355500Y-80287200D03*
X440355500Y-77137200D03*
D22*
X440355500Y-74812200D03*
D20*
X459470500Y-82592200D03*
D21*
X459470500Y-80267200D03*
X459470500Y-77117200D03*
D22*
X459470500Y-74792200D03*
D20*
X359370500Y-120737200D03*
D21*
X359370500Y-118412200D03*
X359370500Y-115262200D03*
D22*
X359370500Y-112937200D03*
D20*
X496250500Y-120707200D03*
D21*
X496250500Y-118382200D03*
X496250500Y-115232200D03*
D22*
X496250500Y-112907200D03*
D20*
X416540500Y-120702200D03*
D21*
X416540500Y-118377200D03*
X416540500Y-115227200D03*
D22*
X416540500Y-112902200D03*
D20*
X402260500Y-82562200D03*
D21*
X402260500Y-80237200D03*
X402260500Y-77087200D03*
D22*
X402260500Y-74762200D03*
D20*
X368910500Y-139762200D03*
D21*
X368910500Y-137437200D03*
X368910500Y-134287200D03*
D22*
X368910500Y-131962200D03*
D20*
X497530500Y-58732200D03*
D21*
X497530500Y-56407200D03*
X497530500Y-53257200D03*
D22*
X497530500Y-50932200D03*
D20*
X364140500Y-82602200D03*
D21*
X364140500Y-80277200D03*
X364140500Y-77127200D03*
D22*
X364140500Y-74802200D03*
D20*
X483220500Y-158782200D03*
D21*
X483220500Y-156457200D03*
X483220500Y-153307200D03*
D22*
X483220500Y-150982200D03*
D20*
X521370500Y-58732200D03*
D21*
X521370500Y-56407200D03*
X521370500Y-53257200D03*
D22*
X521370500Y-50932200D03*
D20*
X454640500Y-120692200D03*
D21*
X454640500Y-118367200D03*
X454640500Y-115217200D03*
D22*
X454640500Y-112892200D03*
D20*
X430830500Y-101662200D03*
D21*
X430830500Y-99337200D03*
X430830500Y-96187200D03*
D22*
X430830500Y-93862200D03*
D20*
X440380500Y-158777200D03*
D21*
X440380500Y-156452200D03*
X440380500Y-153302200D03*
D22*
X440380500Y-150977200D03*
D20*
X459430500Y-158817200D03*
D21*
X459430500Y-156492200D03*
X459430500Y-153342200D03*
D22*
X459430500Y-151017200D03*
D20*
X478470500Y-58732200D03*
D21*
X478470500Y-56407200D03*
X478470500Y-53257200D03*
D22*
X478470500Y-50932200D03*
D20*
X411800500Y-101682200D03*
D21*
X411800500Y-99357200D03*
X411800500Y-96207200D03*
D22*
X411800500Y-93882200D03*
D20*
X402270500Y-158802200D03*
D21*
X402270500Y-156477200D03*
X402270500Y-153327200D03*
D22*
X402270500Y-151002200D03*
D20*
X421300500Y-158812200D03*
D21*
X421300500Y-156487200D03*
X421300500Y-153337200D03*
D22*
X421300500Y-151012200D03*
D20*
X502270500Y-139772200D03*
D21*
X502270500Y-137447200D03*
X502270500Y-134297200D03*
D22*
X502270500Y-131972200D03*
D20*
X445130500Y-139742200D03*
D21*
X445130500Y-137417200D03*
X445130500Y-134267200D03*
D22*
X445130500Y-131942200D03*
D20*
X402280500Y-58752200D03*
D21*
X402280500Y-56427200D03*
X402280500Y-53277200D03*
D22*
X402280500Y-50952200D03*
D20*
X440390500Y-58732200D03*
D21*
X440390500Y-56407200D03*
X440390500Y-53257200D03*
D22*
X440390500Y-50932200D03*
M02*
