M48
; DRILL file {KiCad 7.0.9} date Wed Dec 20 04:01:00 2023
; FORMAT={-:-/ absolute / inch / decimal}
; #@! TF.CreationDate,2023-12-20T04:01:00-06:00
; #@! TF.GenerationSoftware,Kicad,Pcbnew,7.0.9
; #@! TF.FileFunction,Plated,1,2,PTH
FMAT,2
INCH
; #@! TA.AperFunction,Plated,PTH,ViaDrill
T1C0.0157
; #@! TA.AperFunction,Plated,PTH,ComponentDrill
T2C0.0276
; #@! TA.AperFunction,Plated,PTH,ComponentDrill
T3C0.0354
; #@! TA.AperFunction,Plated,PTH,ComponentDrill
T4C0.0430
%
G90
G05
T1
X11.7224Y-2.1496
X12.5823Y-6.0756
X12.6563Y-2.5811
X12.689Y-2.9902
X12.7909Y-2.5799
X12.8154Y-3.0236
X12.8583Y-2.6331
X13.8921Y-2.6807
X14.8933Y-2.6969
X15.5563Y-2.6969
X16.4768Y-2.7398
X17.137Y-2.7744
X17.6063Y-3.4248
X18.1661Y-3.3591
X18.1843Y-3.1984
X19.2504Y-2.6815
T2
X12.3985Y-6.0635
X12.6645Y-5.9099
X13.5861Y-2.9449
X13.5861Y-3.252
X13.5866Y-2.007
X13.5866Y-2.3141
X13.7756Y-5.1963
X13.7756Y-5.5034
X13.9603Y-3.6982
X13.9603Y-4.0053
X14.1484Y-4.4463
X14.1484Y-4.7534
X14.3362Y-2.945
X14.3362Y-3.2521
X14.3374Y-2.007
X14.3374Y-2.3141
X14.524Y-5.1954
X14.524Y-5.5024
X14.711Y-3.6969
X14.711Y-4.004
X14.8992Y-4.4458
X14.8992Y-4.7528
X15.0874Y-2.9442
X15.0874Y-3.2513
X15.0878Y-2.0068
X15.0878Y-2.3139
X15.2748Y-5.1946
X15.2748Y-5.5017
X15.4614Y-3.6961
X15.4614Y-4.0032
X15.6492Y-4.4458
X15.6492Y-4.7528
X15.837Y-2.9434
X15.837Y-3.2505
X15.8374Y-5.945
X15.8374Y-6.2521
X15.8378Y-2.006
X15.8378Y-2.3131
X16.0242Y-5.1959
X16.0242Y-5.5029
X16.2126Y-3.6961
X16.2126Y-4.0032
X16.3992Y-4.445
X16.3992Y-4.7521
X16.5866Y-5.9454
X16.5866Y-6.2524
X16.5874Y-2.006
X16.5874Y-2.3131
X16.5878Y-2.9426
X16.5878Y-3.2497
X16.7744Y-5.1954
X16.7744Y-5.5024
X16.9618Y-3.6954
X16.9618Y-4.0024
X17.15Y-4.4446
X17.15Y-4.7517
X17.3368Y-2.9454
X17.3368Y-3.2524
X17.3378Y-5.944
X17.3378Y-6.2511
X17.3382Y-2.0052
X17.3382Y-2.3123
X17.5248Y-5.1946
X17.5248Y-5.5017
X17.711Y-3.696
X17.711Y-4.003
X17.8992Y-4.4446
X17.8992Y-4.7517
X18.0874Y-2.0052
X18.0874Y-2.3123
X18.0878Y-5.9456
X18.0878Y-6.2526
X18.0894Y-2.9446
X18.0894Y-3.2517
X18.4618Y-3.6954
X18.4618Y-4.0024
X18.7898Y-5.1946
X18.7898Y-5.5017
X18.8374Y-2.0052
X18.8374Y-2.3123
X19.0244Y-5.9442
X19.0244Y-6.2513
X19.4004Y-3.6956
X19.4004Y-4.0026
X19.5374Y-4.4452
X19.5374Y-4.7523
X19.5623Y-2.9444
X19.5623Y-3.2515
X19.5878Y-2.0052
X19.5878Y-2.3123
X19.774Y-5.9444
X19.774Y-6.2515
X19.7744Y-5.1958
X19.7744Y-5.5028
X20.5236Y-4.4465
X20.5236Y-4.7536
X20.5244Y-3.696
X20.5244Y-4.003
X20.5256Y-5.945
X20.5256Y-6.2521
X20.5264Y-2.0052
X20.5264Y-2.3123
X20.5264Y-2.9458
X20.5264Y-3.2528
T4
X11.8449Y-1.8189
X11.8449Y-1.9189
X11.8449Y-2.0189
X11.8449Y-2.1189
X11.8449Y-2.2189
X11.8449Y-2.3189
X11.8449Y-2.4189
X11.8449Y-2.5189
X11.8449Y-2.6189
X11.8449Y-2.7189
X11.8449Y-2.8189
X11.8449Y-2.9189
X12.4449Y-1.8189
X12.4449Y-1.9189
X12.4449Y-2.0189
X12.4449Y-2.1189
X12.4449Y-2.2189
X12.4449Y-2.3189
X12.4449Y-2.4189
X12.4449Y-2.5189
X12.4449Y-2.6189
X12.4449Y-2.7189
X12.4449Y-2.8189
X12.4449Y-2.9189
T3
G00X11.3799Y-2.185
M15
G01X11.3799Y-2.2008
M16
G05
G00X11.561Y-1.8661
M15
G01X11.561Y-1.8819
M16
G05
G00X11.561Y-1.9843
M15
G01X11.561Y-2.0
M16
G05
G00X11.561Y-2.1417
M15
G01X11.561Y-2.1575
M16
G05
T0
M30
