M48
; DRILL file {KiCad 7.0.9} date Wed Dec 20 04:01:00 2023
; FORMAT={-:-/ absolute / inch / decimal}
; #@! TF.CreationDate,2023-12-20T04:01:00-06:00
; #@! TF.GenerationSoftware,Kicad,Pcbnew,7.0.9
; #@! TF.FileFunction,NonPlated,1,2,NPTH
FMAT,2
INCH
; #@! TA.AperFunction,NonPlated,NPTH,ComponentDrill
T1C0.0315
; #@! TA.AperFunction,NonPlated,NPTH,ComponentDrill
T2C0.0689
; #@! TA.AperFunction,NonPlated,NPTH,ComponentDrill
T3C0.1181
; #@! TA.AperFunction,NonPlated,NPTH,ComponentDrill
T4C0.1200
; #@! TA.AperFunction,NonPlated,NPTH,ComponentDrill
T5C0.1570
%
G90
G05
T1
X11.4705Y-1.811
X11.4705Y-2.0866
T2
X12.8162Y-6.4946
X13.0162Y-6.841
X13.0246Y-2.1619
X13.0246Y-3.0994
X13.2121Y-5.3494
X13.3996Y-3.8494
X13.4246Y-2.1619
X13.4246Y-3.0994
X13.5871Y-4.5994
X13.6121Y-5.3494
X13.7746Y-2.1619
X13.7746Y-3.0994
X13.7996Y-3.8494
X13.9621Y-5.3494
X13.9871Y-4.5994
X14.1496Y-3.8494
X14.1746Y-2.1619
X14.1746Y-3.0994
X14.3371Y-4.5994
X14.3621Y-5.3494
X14.5246Y-2.1619
X14.5246Y-3.0994
X14.5496Y-3.8494
X14.7121Y-5.3494
X14.7371Y-4.5994
X14.8996Y-3.8494
X14.9246Y-2.1619
X14.9246Y-3.0994
X15.0871Y-4.5994
X15.1121Y-5.3494
X15.2746Y-2.1619
X15.2746Y-3.0994
X15.2746Y-6.0994
X15.2996Y-3.8494
X15.4621Y-5.3494
X15.4871Y-4.5994
X15.6496Y-3.8494
X15.6746Y-2.1619
X15.6746Y-3.0994
X15.6746Y-6.0994
X15.8371Y-4.5994
X15.8621Y-5.3494
X16.0246Y-2.1619
X16.0246Y-3.0994
X16.0246Y-6.0994
X16.0496Y-3.8494
X16.2121Y-5.3494
X16.2371Y-4.5994
X16.3996Y-3.8494
X16.4246Y-2.1619
X16.4246Y-3.0994
X16.4246Y-6.0994
X16.5871Y-4.5994
X16.6121Y-5.3494
X16.7746Y-2.1619
X16.7746Y-3.0994
X16.7746Y-6.0994
X16.7996Y-3.8494
X16.9621Y-5.3494
X16.9871Y-4.5994
X17.1496Y-3.8494
X17.1746Y-2.1619
X17.1746Y-3.0994
X17.1746Y-6.0994
X17.3371Y-4.5994
X17.3621Y-5.3494
X17.5246Y-2.1619
X17.5246Y-3.0994
X17.5296Y-6.0994
X17.5496Y-3.8494
X17.7371Y-4.5994
X17.8996Y-3.8494
X17.9246Y-2.1619
X17.9246Y-3.0994
X17.9296Y-6.0994
X17.9934Y-5.3494
X18.2746Y-2.1619
X18.2996Y-3.8494
X18.3934Y-5.3494
X18.4621Y-6.0994
X18.5559Y-4.5994
X18.6496Y-3.0994
X18.6746Y-2.1619
X18.8371Y-3.8494
X18.8621Y-6.0994
X18.9559Y-4.5994
X19.0246Y-2.1619
X19.0496Y-3.0994
X19.2121Y-5.3494
X19.2121Y-6.0994
X19.2371Y-3.8494
X19.4246Y-2.1619
X19.6121Y-5.3494
X19.6121Y-6.0994
X19.9621Y-2.1619
X19.9621Y-3.0994
X19.9621Y-3.8494
X19.9621Y-4.5994
X19.9621Y-6.0994
X20.3621Y-2.1619
X20.3621Y-3.0994
X20.3621Y-3.8494
X20.3621Y-4.5994
X20.3621Y-6.0994
T3
X12.693Y-6.6812
X12.9046Y-6.8477
X13.0746Y-2.0619
X13.0746Y-2.9994
X13.2621Y-5.2494
X13.3246Y-1.9619
X13.3246Y-2.8994
X13.4496Y-3.7494
X13.5121Y-5.1494
X13.6371Y-4.4994
X13.6996Y-3.6494
X13.8246Y-2.0619
X13.8246Y-2.9994
X13.8871Y-4.3994
X14.0121Y-5.2494
X14.0746Y-1.9619
X14.0746Y-2.8994
X14.1996Y-3.7494
X14.2621Y-5.1494
X14.3871Y-4.4994
X14.4496Y-3.6494
X14.5746Y-2.0619
X14.5746Y-2.9994
X14.6371Y-4.3994
X14.7621Y-5.2494
X14.8246Y-1.9619
X14.8246Y-2.8994
X14.9496Y-3.7494
X15.0121Y-5.1494
X15.1371Y-4.4994
X15.1996Y-3.6494
X15.3246Y-2.0619
X15.3246Y-2.9994
X15.3246Y-5.9994
X15.3871Y-4.3994
X15.5121Y-5.2494
X15.5746Y-1.9619
X15.5746Y-2.8994
X15.5746Y-5.8994
X15.6996Y-3.7494
X15.7621Y-5.1494
X15.8871Y-4.4994
X15.9496Y-3.6494
X16.0746Y-2.0619
X16.0746Y-2.9994
X16.0746Y-5.9994
X16.1371Y-4.3994
X16.2621Y-5.2494
X16.3246Y-1.9619
X16.3246Y-2.8994
X16.3246Y-5.8994
X16.4496Y-3.7494
X16.5121Y-5.1494
X16.6371Y-4.4994
X16.6996Y-3.6494
X16.8246Y-2.0619
X16.8246Y-2.9994
X16.8246Y-5.9994
X16.8871Y-4.3994
X17.0121Y-5.2494
X17.0746Y-1.9619
X17.0746Y-2.8994
X17.0746Y-5.8994
X17.1996Y-3.7494
X17.2621Y-5.1494
X17.3871Y-4.4994
X17.4496Y-3.6494
X17.5746Y-2.0619
X17.5746Y-2.9994
X17.5796Y-5.9994
X17.6371Y-4.3994
X17.8246Y-1.9619
X17.8246Y-2.8994
X17.8296Y-5.8994
X17.9496Y-3.7494
X18.0434Y-5.2494
X18.1996Y-3.6494
X18.2934Y-5.1494
X18.3246Y-2.0619
X18.5121Y-5.9994
X18.5746Y-1.9619
X18.6059Y-4.4994
X18.6996Y-2.9994
X18.7621Y-5.8994
X18.8559Y-4.3994
X18.8871Y-3.7494
X18.9496Y-2.8994
X19.0746Y-2.0619
X19.1371Y-3.6494
X19.2621Y-5.2494
X19.2621Y-5.9994
X19.3246Y-1.9619
X19.5121Y-5.1494
X19.5121Y-5.8994
X20.0121Y-2.0619
X20.0121Y-2.9994
X20.0121Y-3.7494
X20.0121Y-4.4994
X20.0121Y-5.9994
X20.2621Y-1.9619
X20.2621Y-2.8994
X20.2621Y-3.6494
X20.2621Y-4.3994
X20.2621Y-5.8994
T4
X12.443Y-6.3982
X12.913Y-7.2123
X18.2859Y-4.3244
X18.3796Y-2.8244
X19.2259Y-4.3244
X19.3196Y-2.8244
T5
X12.9162Y-6.6678
X12.9626Y-6.0982
X13.2246Y-2.1619
X13.2246Y-3.0994
X13.4121Y-5.3494
X13.4326Y-6.9123
X13.5996Y-3.8494
X13.7871Y-4.5994
X13.9746Y-2.1619
X13.9746Y-3.0994
X14.1621Y-5.3494
X14.3496Y-3.8494
X14.5371Y-4.5994
X14.7246Y-2.1619
X14.7246Y-3.0994
X14.9121Y-5.3494
X15.0996Y-3.8494
X15.2871Y-4.5994
X15.4746Y-2.1619
X15.4746Y-3.0994
X15.4746Y-6.0994
X15.6621Y-5.3494
X15.8496Y-3.8494
X16.0371Y-4.5994
X16.2246Y-2.1619
X16.2246Y-3.0994
X16.2246Y-6.0994
X16.4121Y-5.3494
X16.5996Y-3.8494
X16.7871Y-4.5994
X16.9746Y-2.1619
X16.9746Y-3.0994
X16.9746Y-6.0994
X17.1621Y-5.3494
X17.3496Y-3.8494
X17.5371Y-4.5994
X17.7246Y-2.1619
X17.7246Y-3.0994
X17.7296Y-6.0994
X18.0996Y-3.8494
X18.1934Y-5.3494
X18.2859Y-4.9244
X18.3796Y-3.4244
X18.4746Y-2.1619
X18.6621Y-6.0994
X18.7559Y-4.5994
X18.8496Y-3.0994
X19.0371Y-3.8494
X19.2246Y-2.1619
X19.2259Y-4.9244
X19.3196Y-3.4244
X19.4121Y-5.3494
X19.4121Y-6.0994
X20.1621Y-2.1619
X20.1621Y-3.0994
X20.1621Y-3.8494
X20.1621Y-4.5994
X20.1621Y-6.0994
T0
M30
